<svg xmlns="http://www.w3.org/2000/svg" width="140" height="40" viewBox="0 0 140 40" fill="none">
  <g clip-path="url(#clip0_1_195)">
    <path d="M30.3047 28.4667C29.3321 31.536 27.4739 34.2214 24.9813 36.1595C22.4888 38.0976 19.4824 39.1949 16.3688 39.3028C13.2552 39.4108 10.1847 38.5243 7.57291 36.7632C4.9611 35.0021 2.93399 32.4515 1.76586 29.4564C0.597726 26.4614 0.344968 23.1665 1.04178 20.0176C1.7386 16.8687 3.35135 14.0178 5.66182 11.8506C7.97228 9.6834 10.8689 8.30457 13.9598 7.90068C17.0507 7.49678 20.1867 8.0873 22.9433 9.59234L23.4867 9.09598C20.6144 7.46847 17.327 6.80175 14.0751 7.18716C10.8232 7.57256 7.76567 8.99124 5.32146 11.2488C2.87726 13.5064 1.16591 16.4925 0.421857 19.7981C-0.322193 23.1036 -0.0625494 26.5668 1.16522 29.7133C2.39299 32.8599 4.52883 35.5358 7.28014 37.3744C10.0314 39.2131 13.2636 40.1247 16.5339 39.9842C19.8042 39.8437 22.9527 38.6581 25.5479 36.5897C28.1432 34.5214 30.0583 31.6714 31.0309 28.4304L30.3047 28.4667Z" fill="white"/>
    <path d="M5.70239 28.611C14.8702 27.787 23.9626 26.2261 32.8974 23.9423L32.4826 25.866C23.7164 28.0314 14.7078 28.9551 5.70239 28.6119" fill="white"/>
    <path d="M7.15991 27.6671C16.1288 26.1917 24.9596 23.9239 33.556 20.8887L33.1308 22.8578C23.1217 26.1245 14.5808 27.5764 7.15991 27.6671" fill="white"/>
    <path d="M8.55884 26.6646C17.3036 24.333 25.8801 21.3688 34.2252 17.7936L33.7973 19.7754C24.6098 23.5176 16.104 25.9813 8.55884 26.6646" fill="white"/>
    <path d="M9.95215 25.4749C18.6952 22.5873 27.1105 18.7252 35.0506 13.9561L34.5256 16.3871C24.6311 21.4823 16.246 24.749 9.95215 25.4749" fill="white"/>
    <path d="M11.7605 24.2227C20.2151 19.981 28.3289 15.0446 36.0242 9.46075L35.4459 12.1385C27.5289 17.3789 19.6285 21.7209 11.7605 24.2227" fill="white"/>
    <path d="M13.1487 22.6692C21.7192 17.1969 29.7795 10.9085 37.2252 3.88557L36.5199 7.15229C29.4477 13.4024 21.5845 18.6201 13.1487 22.6601M37.7607 0L35.1086 0.0716862C32.0315 3.96137 28.7225 7.64727 25.2009 11.1077C21.6003 14.6657 17.9813 17.8562 14.3579 20.9986C22.2933 15.4452 30.1674 9.22665 37.7607 0.00272226M41.6124 31.0438H63.2197V31.6345H41.6124V31.0438ZM118.398 31.0438H139.969V31.6345H118.398V31.0438Z" fill="white"/>
    <path d="M47.082 14.3463L44.5314 19.6175H49.6178L47.082 14.3463ZM44.0458 20.6756L42.7376 23.3207C42.4471 23.9405 41.3814 23.5022 41.6728 22.8361L46.5491 12.8727C46.5996 12.7725 46.6765 12.6894 46.7709 12.633C46.8653 12.5766 46.9732 12.5492 47.082 12.5542C47.1882 12.5516 47.293 12.5801 47.3843 12.6364C47.4756 12.6927 47.5498 12.7746 47.5983 12.8727L52.4589 22.7853C52.878 23.5058 51.6836 23.9241 51.3765 23.2708L50.1165 20.6756H44.0458ZM55.4146 22.4215H62.3096C62.4629 22.4215 62.6099 22.4846 62.7183 22.597C62.8267 22.7094 62.8876 22.8618 62.8876 23.0208C62.8876 23.1798 62.8267 23.3322 62.7183 23.4446C62.6099 23.557 62.4629 23.6202 62.3096 23.6202H54.3331C53.704 23.6202 53.5098 23.0821 53.865 22.6129L61.0986 13.7011H54.5589C54.4122 13.7011 54.2716 13.6407 54.1679 13.5332C54.0642 13.4256 54.0059 13.2797 54.0059 13.1276C54.0059 12.9756 54.0642 12.8297 54.1679 12.7221C54.2716 12.6146 54.4122 12.5542 54.5589 12.5542H62.2449C62.9064 12.5542 63.0849 13.0932 62.713 13.5968L55.4146 22.4215ZM65.7178 22.4714H72.0956C72.2425 22.4714 72.3834 22.5319 72.4873 22.6396C72.5912 22.7473 72.6495 22.8934 72.6495 23.0458C72.6495 23.1981 72.5912 23.3442 72.4873 23.4519C72.3834 23.5596 72.2425 23.6202 72.0956 23.6202H65.2978C65.1997 23.6237 65.1019 23.6063 65.0105 23.5691C64.9192 23.5319 64.8361 23.4757 64.7665 23.4039C64.6969 23.3322 64.6422 23.2464 64.6058 23.1518C64.5694 23.0573 64.5521 22.956 64.5549 22.8543V13.3028C64.5539 13.2023 64.5725 13.1027 64.6098 13.01C64.647 12.9172 64.7021 12.8333 64.7715 12.7633C64.841 12.6933 64.9235 12.6386 65.0139 12.6027C65.1044 12.5667 65.201 12.5502 65.2978 12.5542H72.1114C72.2539 12.5563 72.3897 12.6171 72.489 12.7231C72.5883 12.8291 72.6429 12.9717 72.6408 13.1195C72.6387 13.2672 72.5801 13.4081 72.4778 13.5111C72.3756 13.614 72.2381 13.6706 72.0956 13.6685H65.7178V17.5831H71.7885C72.4343 17.5831 72.4666 18.6965 71.7885 18.6965H65.7178V22.4714ZM76.0524 18.5776H79.3144C81.4293 18.5776 82.3498 17.5305 82.3174 16.2437C82.3016 14.8363 81.1869 13.703 79.3144 13.703H76.0524V18.5776ZM76.0524 19.6584V22.9877C76.0491 23.1461 75.9866 23.2969 75.8782 23.4085C75.7698 23.5201 75.6238 23.5837 75.4711 23.5859C75.3184 23.5882 75.1707 23.5288 75.0593 23.4205C74.9479 23.3121 74.8814 23.1631 74.8738 23.0049V13.1549C74.8705 13.0734 74.8838 12.9922 74.9129 12.9165C74.9421 12.8408 74.9863 12.7723 75.0427 12.7156C75.0992 12.6589 75.1665 12.6151 75.2404 12.5873C75.3143 12.5595 75.393 12.5482 75.4714 12.5542H79.2986C82.0925 12.5542 83.5135 14.2356 83.5135 16.2437C83.5564 17.0818 83.2784 17.9035 82.7402 18.5302C82.2019 19.1569 81.4468 19.5379 80.6391 19.5903L83.2554 22.5939C83.3161 22.6467 83.3655 22.7122 83.4004 22.786C83.4353 22.8598 83.4549 22.9404 83.458 23.0225C83.4611 23.1047 83.4476 23.1866 83.4184 23.263C83.3891 23.3394 83.3448 23.4086 83.2883 23.4663C83.2318 23.5239 83.1642 23.5686 83.09 23.5976C83.0158 23.6265 82.9366 23.6391 82.8575 23.6344C82.7784 23.6298 82.701 23.608 82.6305 23.5706C82.5599 23.5331 82.4977 23.4808 82.4478 23.4169L79.1866 19.6593L76.0524 19.6584ZM86.6784 22.4886H90.2948C91.7158 22.4886 93.282 22.0884 93.282 20.3317C93.282 18.9569 92.1839 18.3662 90.7786 18.3662H86.6775L86.6784 22.4886ZM86.6784 13.6866V17.2355H89.9719C91.3605 17.2355 92.5715 16.8354 92.5715 15.5659C92.5715 14.0696 90.9248 13.6866 89.9238 13.6866H86.6784ZM90.2948 23.6211H86.0948C85.9357 23.6194 85.7837 23.5527 85.6718 23.4354C85.5599 23.3182 85.4971 23.1599 85.4971 22.9949V13.1803C85.4974 13.0154 85.5602 12.8572 85.6721 12.74C85.7839 12.6228 85.9358 12.5561 86.0948 12.5542H89.922C91.4235 12.5542 93.7484 13.0941 93.7484 15.565C93.7709 16.0007 93.6636 16.4331 93.4412 16.8035C93.2188 17.1739 92.892 17.4644 92.505 17.6357C93.0816 17.7856 93.5921 18.134 93.9529 18.6239C94.3138 19.1138 94.5035 19.7162 94.4913 20.3326C94.4939 22.9242 92.33 23.6202 90.2956 23.6202L90.2948 23.6211ZM100.792 14.3463L98.2406 19.6211H103.327L100.792 14.3463ZM97.7568 20.6756L96.4486 23.3207C96.1573 23.9405 95.0924 23.5022 95.3829 22.8361L100.259 12.8727C100.31 12.7725 100.387 12.6894 100.481 12.633C100.575 12.5766 100.683 12.5492 100.792 12.5542C100.898 12.5515 101.003 12.58 101.095 12.6363C101.186 12.6926 101.261 12.7746 101.309 12.8727L106.169 22.7853C106.588 23.5058 105.394 23.9241 105.087 23.2708L103.827 20.6756H97.7568ZM107.72 13.1658C107.72 12.9992 107.783 12.8395 107.897 12.7217C108.01 12.604 108.164 12.5378 108.325 12.5378C108.486 12.5378 108.64 12.604 108.753 12.7217C108.867 12.8395 108.931 12.9992 108.931 13.1658V23.0476C108.919 23.2059 108.85 23.3538 108.738 23.4617C108.626 23.5696 108.478 23.6295 108.325 23.6295C108.172 23.6295 108.025 23.5696 107.912 23.4617C107.8 23.3538 107.731 23.2059 107.72 23.0476V13.1658ZM116.907 13.6812H113.807C113.73 13.6902 113.653 13.6824 113.579 13.6582C113.506 13.6339 113.438 13.5939 113.381 13.5407C113.323 13.4875 113.277 13.4223 113.246 13.3494C113.215 13.2765 113.198 13.1976 113.198 13.1177C113.198 13.0378 113.215 12.9588 113.246 12.8859C113.277 12.813 113.323 12.7478 113.381 12.6946C113.438 12.6414 113.506 12.6014 113.579 12.5772C113.653 12.553 113.73 12.5451 113.807 12.5542H117.44C117.586 12.5608 117.724 12.6212 117.831 12.7245C117.938 12.8278 118.005 12.9672 118.022 13.1177V19.6565C117.969 20.7537 117.503 21.7855 116.724 22.5296C115.944 23.2737 114.915 23.6705 113.856 23.6347C112.895 23.6651 111.96 23.3089 111.247 22.6406C110.533 21.9724 110.097 21.0439 110.029 20.0495C110.025 19.9663 110.037 19.8832 110.065 19.805C110.092 19.7269 110.135 19.6553 110.19 19.5946C110.245 19.5339 110.311 19.4853 110.384 19.4517C110.458 19.4181 110.537 19.4002 110.617 19.399C110.697 19.3979 110.777 19.4135 110.851 19.445C110.926 19.4764 110.993 19.5231 111.05 19.5822C111.106 19.6413 111.151 19.7116 111.181 19.7889C111.21 19.8662 111.225 19.949 111.223 20.0322C111.24 20.3729 111.322 20.7067 111.463 21.0146C111.605 21.3225 111.804 21.5985 112.048 21.8267C112.292 22.055 112.578 22.2311 112.888 22.345C113.198 22.4589 113.527 22.5083 113.855 22.4904C114.619 22.5214 115.365 22.243 115.934 21.7141C116.504 21.1853 116.853 20.4474 116.907 19.6565V13.6812ZM124.45 14.3463L121.898 19.6211H126.984L124.45 14.3463ZM121.413 20.6756L120.105 23.3207C119.815 23.9405 118.749 23.5022 119.039 22.8361L123.916 12.8727C123.966 12.7726 124.043 12.6895 124.138 12.6331C124.232 12.5768 124.34 12.5494 124.449 12.5542C124.555 12.5516 124.66 12.5801 124.751 12.6364C124.842 12.6927 124.916 12.7746 124.965 12.8727L129.825 22.7853C130.245 23.5058 129.049 23.9241 128.743 23.2708L127.483 20.6756H121.413ZM138.772 13.1449C138.772 12.4353 139.997 12.4008 139.997 13.1449V22.8452C139.997 23.69 138.884 23.7744 138.544 23.1828L132.507 14.7165L132.636 17.0486V23.014C132.636 23.1825 132.571 23.344 132.457 23.4631C132.342 23.5823 132.186 23.6492 132.024 23.6492C131.861 23.6492 131.705 23.5823 131.59 23.4631C131.476 23.344 131.411 23.1825 131.411 23.014V13.3318C131.402 13.1668 131.448 13.0036 131.542 12.8699C131.635 12.7363 131.771 12.6404 131.925 12.5985C132.079 12.5567 132.242 12.5716 132.387 12.6406C132.532 12.7096 132.649 12.8285 132.719 12.977L138.932 21.6792L138.771 19.1275L138.772 13.1449ZM70.525 28.0093L68.7601 31.6989H72.2794L70.525 28.0093ZM68.425 32.4376L67.5194 34.2878C67.3181 34.7215 66.5805 34.4166 66.7826 33.9484L70.1575 26.9794C70.192 26.9098 70.2451 26.8518 70.3104 26.8124C70.3756 26.773 70.4504 26.7538 70.5259 26.7571C70.5997 26.7554 70.6725 26.7753 70.7358 26.8147C70.7991 26.854 70.8504 26.9111 70.8838 26.9794L74.2473 33.913C74.5386 34.4166 73.7109 34.7088 73.4991 34.2524L72.6241 32.4376H68.425ZM75.3174 27.1863C75.3174 27.071 75.3615 26.9605 75.4401 26.879C75.5187 26.7975 75.6254 26.7517 75.7365 26.7517C75.8477 26.7517 75.9543 26.7975 76.0329 26.879C76.1115 26.9605 76.1556 27.071 76.1556 27.1863V34.1154C76.1488 34.2258 76.1016 34.3294 76.0238 34.405C75.9459 34.4807 75.8432 34.5228 75.7365 34.5228C75.6298 34.5228 75.5271 34.4807 75.4493 34.405C75.3714 34.3294 75.3243 34.2258 75.3174 34.1154V27.1863ZM78.6678 30.9694H80.9244C82.3883 30.9694 83.0244 30.2371 83.0025 29.336C82.9875 29.0744 82.9207 28.8188 82.8061 28.5851C82.6916 28.3515 82.5318 28.1449 82.3368 27.9783C82.1417 27.8116 81.9156 27.6884 81.6726 27.6165C81.4296 27.5446 81.1749 27.5254 80.9244 27.5602H78.6678V30.9694ZM78.6678 31.7252V34.0537C78.6626 34.1612 78.6181 34.2627 78.5433 34.3375C78.4686 34.4123 78.3692 34.4547 78.2654 34.4562C78.1615 34.4577 78.061 34.4182 77.9843 34.3456C77.9075 34.273 77.8603 34.1728 77.8523 34.0655V27.1763C77.8497 27.1197 77.8587 27.0632 77.8786 27.0105C77.8985 26.9578 77.929 26.91 77.968 26.8703C78.007 26.8307 78.0537 26.8 78.1049 26.7803C78.1561 26.7606 78.2108 26.7524 78.2653 26.7562H80.913C82.8459 26.7562 83.8294 27.9358 83.8294 29.3369C83.8616 29.9199 83.6708 30.4926 83.2985 30.9307C82.9262 31.3688 82.4023 31.637 81.8405 31.6771L83.6509 33.7778C83.6926 33.8146 83.7264 33.8599 83.7503 33.911C83.7742 33.962 83.7876 34.0176 83.7898 34.0743C83.7919 34.131 83.7826 34.1876 83.7626 34.2404C83.7425 34.2932 83.7121 34.3411 83.6733 34.3811C83.6345 34.4211 83.5881 34.4523 83.5371 34.4727C83.4861 34.4932 83.4315 34.5024 83.3768 34.4999C83.3222 34.4974 83.2686 34.4831 83.2195 34.458C83.1705 34.4329 83.127 34.3975 83.0918 34.354L80.8343 31.7225L78.6678 31.7252ZM85.617 34.4956C85.5589 34.5048 85.4996 34.4997 85.4438 34.4806C85.388 34.4615 85.3373 34.429 85.296 34.3857C85.2546 34.3424 85.2237 34.2896 85.2057 34.2316C85.1878 34.1736 85.1833 34.112 85.1926 34.0519V27.1718C85.1926 27.0581 85.2362 26.949 85.3137 26.8686C85.3913 26.7882 85.4964 26.743 85.6061 26.743C85.7157 26.743 85.8209 26.7882 85.8984 26.8686C85.976 26.949 86.0195 27.0581 86.0195 27.1718V33.7052H90.1985C90.2524 33.6987 90.307 33.704 90.3587 33.7209C90.4104 33.7378 90.4581 33.7658 90.4986 33.8032C90.5391 33.8406 90.5716 33.8864 90.5938 33.9377C90.616 33.989 90.6275 34.0446 90.6275 34.1009C90.6275 34.1571 90.616 34.2127 90.5938 34.264C90.5716 34.3153 90.5391 34.3612 90.4986 34.3985C90.4581 34.4359 90.4104 34.4639 90.3587 34.4808C90.307 34.4977 90.2524 34.5031 90.1985 34.4965L85.617 34.4956ZM91.5486 27.1863C91.5486 27.071 91.5928 26.9605 91.6714 26.879C91.75 26.7975 91.8566 26.7517 91.9678 26.7517C92.0789 26.7517 92.1855 26.7975 92.2641 26.879C92.3427 26.9605 92.3869 27.071 92.3869 27.1863V34.1154C92.38 34.2258 92.3329 34.3294 92.255 34.405C92.1772 34.4807 92.0745 34.5228 91.9678 34.5228C91.8611 34.5228 91.7584 34.4807 91.6805 34.405C91.6027 34.3294 91.5555 34.2258 91.5486 34.1154V27.1863ZM99.1235 27.1373C99.1235 26.6391 99.9723 26.6146 99.9723 27.1373V33.952C99.9723 34.5455 99.2014 34.6045 98.9669 34.1889L94.7888 28.2407L94.8763 29.8786V34.07C94.8763 34.1868 94.8315 34.2989 94.7518 34.3815C94.6722 34.4641 94.5641 34.5106 94.4515 34.5106C94.3388 34.5106 94.2307 34.4641 94.1511 34.3815C94.0714 34.2989 94.0266 34.1868 94.0266 34.07V27.2644C94.0183 27.1494 94.049 27.035 94.1134 26.9411C94.1778 26.8472 94.2719 26.7796 94.3794 26.75C94.4868 26.7205 94.6008 26.7309 94.7017 26.7794C94.8025 26.828 94.8838 26.9116 94.9314 27.0157L99.2329 33.1299L99.1209 31.3369L99.1235 27.1373ZM102.609 33.6916H107.022C107.491 33.6916 107.559 34.4965 107.022 34.4965H102.318C102.25 34.4986 102.182 34.4862 102.118 34.46C102.055 34.4338 101.997 34.3943 101.949 34.344C101.901 34.2938 101.863 34.2338 101.838 34.1677C101.813 34.1017 101.801 34.0311 101.804 33.9602V27.2698C101.802 27.1998 101.815 27.1303 101.84 27.0655C101.866 27.0007 101.904 26.9419 101.952 26.8928C102 26.8438 102.058 26.8054 102.121 26.78C102.183 26.7546 102.251 26.7428 102.318 26.7453H107.029C107.124 26.7533 107.213 26.7986 107.278 26.872C107.342 26.9454 107.377 27.0414 107.376 27.1406C107.375 27.2398 107.337 27.3348 107.271 27.4063C107.204 27.4778 107.114 27.5205 107.019 27.5257H102.605V30.2679H106.805C107.252 30.2679 107.274 31.0474 106.805 31.0474H102.605L102.609 33.6916ZM109.167 32.4784C109.457 33.4448 110.697 33.658 111.591 33.658C112.541 33.658 114.016 33.355 114.016 32.1789C114.016 31.1654 112.843 31.0837 111.614 30.9793C110.072 30.8514 108.419 30.6998 108.419 28.964C108.419 27.4268 110.117 26.7399 111.481 26.7399C112.654 26.7399 114.118 27.0302 114.587 28.3587C114.755 28.8242 113.995 29.0338 113.828 28.6382C113.493 27.7525 112.297 27.6019 111.493 27.6019C110.744 27.6019 109.291 27.9159 109.291 28.9757C109.291 29.9893 110.408 30.0946 111.704 30.1989C113.236 30.3387 114.878 30.4195 114.878 32.1671C114.878 33.9493 112.967 34.4974 111.593 34.4974C110.456 34.4974 108.71 34.0891 108.342 32.6916C108.208 32.1789 109.078 32.0038 109.169 32.482" fill="white"/>
  </g>
  <defs>
    <clipPath id="clip0_1_195">
      <rect width="140" height="40" fill="white"/>
    </clipPath>
  </defs>
</svg>