<svg width="146" height="40" viewBox="0 0 146 40" fill="none" xmlns="http://www.w3.org/2000/svg">
<g clip-path="url(#clip0_1_1221)">
<path d="M31.4275 28.4667C30.4189 31.536 28.4918 34.2214 25.9069 36.1595C23.3221 38.0976 20.2042 39.1949 16.9753 39.3028C13.7463 39.4108 10.5621 38.5243 7.85351 36.7632C5.14493 35.0021 3.04271 32.4515 1.83129 29.4564C0.619882 26.4614 0.357759 23.1665 1.08039 20.0176C1.80303 16.8687 3.47553 14.0178 5.87161 11.8506C8.26768 9.6834 11.2717 8.30457 14.4771 7.90068C17.6825 7.49678 20.9346 8.0873 23.7934 9.59234L24.3569 9.09598C21.3782 7.46847 17.9691 6.80175 14.5966 7.18716C11.2242 7.57256 8.05341 8.99124 5.51864 11.2488C2.98387 13.5064 1.20912 16.4925 0.437497 19.7981C-0.334122 23.1036 -0.0648581 26.5668 1.2084 29.7133C2.48166 32.8599 4.69664 35.5358 7.54989 37.3744C10.4031 39.2131 13.7551 40.1247 17.1466 39.9842C20.538 39.8437 23.8031 38.6581 26.4945 36.5897C29.186 34.5214 31.172 31.6714 32.1807 28.4304L31.4275 28.4667Z" fill="#082E6A"/>
<path d="M5.9137 28.611C15.4212 27.787 24.8504 26.2261 34.1163 23.9423L33.6862 25.866C24.5952 28.0314 15.2527 28.9551 5.9137 28.6119" fill="#0098DA"/>
<path d="M7.42542 27.6672C16.7266 26.1918 25.8846 23.9241 34.7996 20.8888L34.3586 22.8579C23.9786 26.1246 15.1212 27.5765 7.42542 27.6672Z" fill="#0098DA"/>
<path d="M8.87549 26.6645C17.9443 24.333 26.8385 21.3688 35.4929 17.7936L35.0491 19.7754C25.5212 23.5176 16.7002 25.9813 8.87549 26.6645Z" fill="#51C2E1"/>
<path d="M10.321 25.4749C19.388 22.5873 28.1152 18.7252 36.3495 13.9561L35.805 16.3871C25.5439 21.4823 16.8481 24.749 10.321 25.4749Z" fill="#9FD7E0"/>
<path d="M12.1957 24.2227C20.9635 19.981 29.378 15.0446 37.3584 9.46077L36.7586 12.1386C28.5483 17.3789 20.3552 21.7209 12.1957 24.2227Z" fill="#51C2E1"/>
<path d="M13.6359 22.6692C22.5239 17.1969 30.8829 10.9085 38.6044 3.88557L37.8731 7.15229C30.5388 13.4024 22.3842 18.6201 13.6359 22.6601M39.1598 0L36.4094 0.0716862C33.2184 3.96137 29.7867 7.64727 26.1347 11.1077C22.4006 14.6657 18.6475 17.8562 14.8899 20.9986C23.1193 15.4452 31.2852 9.22665 39.1598 0.00272226M43.1543 31.0438H65.5621V31.6345H43.1543V31.0438ZM122.785 31.0438H145.155V31.6345H122.785V31.0438Z" fill="#0098DA"/>
<path d="M48.8265 14.3463L46.1814 19.6175H51.4562L48.8265 14.3463ZM45.6778 20.6756L44.3212 23.3207C44.0199 23.9405 42.9147 23.5022 43.2169 22.8361L48.2739 12.8727C48.3262 12.7725 48.406 12.6894 48.5039 12.633C48.6017 12.5766 48.7137 12.5492 48.8265 12.5542C48.9367 12.5516 49.0453 12.5801 49.14 12.6364C49.2347 12.6927 49.3116 12.7746 49.3619 12.8727L54.4026 22.7853C54.8373 23.5058 53.5986 23.9241 53.2801 23.2708L51.9735 20.6756H45.6778ZM57.4679 22.4214H64.6184C64.7773 22.4214 64.9298 22.4846 65.0422 22.597C65.1546 22.7094 65.2177 22.8618 65.2177 23.0208C65.2177 23.1798 65.1546 23.3322 65.0422 23.4446C64.9298 23.557 64.7773 23.6202 64.6184 23.6202H56.3463C55.6939 23.6202 55.4924 23.0821 55.8608 22.6129L63.3625 13.7011H56.5804C56.4283 13.7011 56.2825 13.6407 56.1749 13.5332C56.0674 13.4256 56.0069 13.2797 56.0069 13.1276C56.0069 12.9756 56.0674 12.8297 56.1749 12.7221C56.2825 12.6146 56.4283 12.5542 56.5804 12.5542H64.5512C65.2372 12.5542 65.4223 13.0932 65.0367 13.5968L57.4679 22.4214ZM68.1528 22.4714H74.7669C74.9193 22.4714 75.0654 22.5319 75.1731 22.6396C75.2808 22.7473 75.3413 22.8934 75.3413 23.0458C75.3413 23.1981 75.2808 23.3442 75.1731 23.4519C75.0654 23.5596 74.9193 23.6202 74.7669 23.6202H67.7172C67.6155 23.6237 67.5141 23.6063 67.4193 23.5691C67.3246 23.5319 67.2384 23.4757 67.1663 23.4039C67.0941 23.3322 67.0373 23.2464 66.9996 23.1518C66.9619 23.0573 66.9439 22.956 66.9468 22.8543V13.3028C66.9457 13.2023 66.9651 13.1027 67.0037 13.01C67.0424 12.9172 67.0994 12.8333 67.1715 12.7633C67.2435 12.6933 67.329 12.6386 67.4229 12.6027C67.5167 12.5667 67.6168 12.5502 67.7172 12.5542H74.7833C74.9311 12.5563 75.0719 12.6171 75.1749 12.7231C75.2778 12.8291 75.3344 12.9717 75.3323 13.1195C75.3301 13.2672 75.2693 13.4081 75.1633 13.5111C75.0573 13.614 74.9147 13.6706 74.7669 13.6685H68.1528V17.5831H74.4484C75.1181 17.5831 75.1517 18.6965 74.4484 18.6965H68.1528V22.4714ZM78.8703 18.5776H82.2532C84.4464 18.5776 85.401 17.5305 85.3674 16.2437C85.3511 14.8363 84.195 13.703 82.2532 13.703H78.8703V18.5776ZM78.8703 19.6584V22.9877C78.8669 23.1461 78.8021 23.2969 78.6897 23.4085C78.5772 23.5201 78.4259 23.5837 78.2675 23.5859C78.1091 23.5882 77.956 23.5288 77.8405 23.4205C77.7249 23.3121 77.6559 23.1631 77.648 23.0049V13.1549C77.6446 13.0734 77.6584 12.9922 77.6886 12.9165C77.7188 12.8408 77.7647 12.7723 77.8232 12.7156C77.8818 12.6589 77.9516 12.6151 78.0282 12.5873C78.1049 12.5595 78.1865 12.5482 78.2678 12.5542H82.2368C85.1342 12.5542 86.6079 14.2356 86.6079 16.2437C86.6523 17.0818 86.3641 17.9035 85.8059 18.5302C85.2477 19.1569 84.4646 19.5379 83.627 19.5903L86.3402 22.5939C86.4031 22.6467 86.4544 22.7122 86.4905 22.786C86.5267 22.8598 86.5471 22.9404 86.5503 23.0225C86.5535 23.1047 86.5395 23.1866 86.5092 23.263C86.4789 23.3394 86.433 23.4086 86.3743 23.4663C86.3157 23.5239 86.2456 23.5686 86.1687 23.5976C86.0918 23.6265 86.0096 23.6391 85.9276 23.6344C85.8455 23.6298 85.7653 23.608 85.6921 23.5706C85.6189 23.5331 85.5544 23.4808 85.5026 23.4169L82.1207 19.6593L78.8703 19.6584ZM89.89 22.4886H93.6404C95.114 22.4886 96.7383 22.0884 96.7383 20.3317C96.7383 18.9569 95.5995 18.3662 94.1422 18.3662H89.8891L89.89 22.4886ZM89.89 13.6866V17.2355H93.3055C94.7456 17.2355 96.0015 16.8354 96.0015 15.5659C96.0015 14.0696 94.2937 13.6866 93.2556 13.6866H89.89ZM93.6404 23.6211H89.2848C89.1198 23.6194 88.9622 23.5527 88.8461 23.4354C88.7301 23.3182 88.665 23.1599 88.665 22.9949V13.1803C88.6652 13.0154 88.7304 12.8572 88.8464 12.74C88.9624 12.6228 89.1199 12.5561 89.2848 12.5542H93.2538C94.811 12.5542 97.222 13.0941 97.222 15.565C97.2453 16.0007 97.1341 16.4331 96.9034 16.8035C96.6728 17.1739 96.3338 17.4644 95.9325 17.6357C96.5305 17.7856 97.0599 18.134 97.4341 18.6239C97.8083 19.1138 98.0051 19.7162 97.9924 20.3326C97.9951 22.9242 95.751 23.6202 93.6413 23.6202L93.6404 23.6211ZM104.527 14.3463L101.881 19.6211H107.156L104.527 14.3463ZM101.379 20.6756L100.022 23.3207C99.7201 23.9405 98.6158 23.5022 98.917 22.8361L103.974 12.8727C104.026 12.7725 104.106 12.6894 104.204 12.633C104.302 12.5766 104.414 12.5492 104.527 12.5542C104.637 12.5515 104.746 12.58 104.841 12.6363C104.935 12.6926 105.013 12.7746 105.063 12.8727L110.103 22.7853C110.537 23.5058 109.299 23.9241 108.98 23.2708L107.674 20.6756H101.379ZM111.711 13.1658C111.711 12.9992 111.777 12.8395 111.895 12.7217C112.012 12.604 112.172 12.5378 112.339 12.5378C112.505 12.5378 112.665 12.604 112.783 12.7217C112.9 12.8395 112.967 12.9992 112.967 13.1658V23.0476C112.955 23.2059 112.883 23.3538 112.767 23.4617C112.65 23.5696 112.497 23.6295 112.339 23.6295C112.18 23.6295 112.027 23.5696 111.911 23.4617C111.794 23.3538 111.723 23.2059 111.711 23.0476V13.1658ZM121.239 13.6812H118.024C117.944 13.6902 117.864 13.6824 117.788 13.6582C117.712 13.6339 117.642 13.5939 117.582 13.5407C117.522 13.4875 117.475 13.4223 117.442 13.3494C117.409 13.2765 117.392 13.1976 117.392 13.1177C117.392 13.0378 117.409 12.9588 117.442 12.8859C117.475 12.813 117.522 12.7478 117.582 12.6946C117.642 12.6414 117.712 12.6014 117.788 12.5772C117.864 12.553 117.944 12.5451 118.024 12.5542H121.791C121.943 12.5608 122.086 12.6212 122.197 12.7245C122.308 12.8278 122.378 12.9672 122.395 13.1177V19.6565C122.34 20.7537 121.857 21.7855 121.049 22.5296C120.24 23.2737 119.172 23.6705 118.075 23.6347C117.078 23.6651 116.108 23.3089 115.369 22.6406C114.629 21.9724 114.176 21.0439 114.105 20.0495C114.101 19.9663 114.114 19.8832 114.143 19.805C114.171 19.7269 114.216 19.6553 114.273 19.5946C114.329 19.5339 114.398 19.4853 114.474 19.4517C114.55 19.4181 114.633 19.4002 114.716 19.399C114.799 19.3979 114.882 19.4135 114.959 19.445C115.036 19.4764 115.106 19.5231 115.164 19.5822C115.223 19.6413 115.269 19.7116 115.3 19.7889C115.331 19.8662 115.346 19.949 115.344 20.0322C115.362 20.3729 115.447 20.7067 115.593 21.0146C115.74 21.3225 115.946 21.5985 116.2 21.8267C116.453 22.055 116.749 22.2311 117.071 22.345C117.392 22.4589 117.733 22.5083 118.074 22.4904C118.866 22.5214 119.639 22.243 120.23 21.7141C120.82 21.1853 121.182 20.4474 121.239 19.6565V13.6812ZM129.061 14.3463L126.415 19.6211H131.689L129.061 14.3463ZM125.912 20.6756L124.555 23.3207C124.254 23.9405 123.149 23.5022 123.45 22.8361L128.507 12.8727C128.56 12.7726 128.639 12.6895 128.737 12.6331C128.835 12.5768 128.947 12.5494 129.06 12.5542C129.17 12.5516 129.279 12.5801 129.373 12.6364C129.468 12.6927 129.545 12.7746 129.595 12.8727L134.635 22.7853C135.07 23.5058 133.831 23.9241 133.513 23.2708L132.207 20.6756H125.912ZM143.914 13.1449C143.914 12.4353 145.185 12.4008 145.185 13.1449V22.8452C145.185 23.69 144.029 23.7744 143.677 23.1828L137.416 14.7165L137.55 17.0486V23.014C137.55 23.1825 137.484 23.344 137.364 23.4631C137.245 23.5823 137.084 23.6492 136.915 23.6492C136.747 23.6492 136.585 23.5823 136.466 23.4631C136.347 23.344 136.28 23.1825 136.28 23.014V13.3318C136.27 13.1668 136.318 13.0036 136.415 12.8699C136.513 12.7363 136.653 12.6404 136.813 12.5985C136.973 12.5567 137.142 12.5716 137.292 12.6406C137.443 12.7096 137.564 12.8285 137.637 12.977L144.079 21.6792L143.912 19.1275L143.914 13.1449ZM73.1381 28.0093L71.3079 31.6989H74.9575L73.1381 28.0093ZM70.9603 32.4376L70.0211 34.2878C69.8124 34.7215 69.0475 34.4166 69.2571 33.9484L72.757 26.9794C72.7928 26.9098 72.8478 26.8518 72.9155 26.8124C72.9832 26.773 73.0608 26.7538 73.139 26.7571C73.2156 26.7554 73.291 26.7753 73.3567 26.8147C73.4224 26.854 73.4756 26.9111 73.5102 26.9794L76.9983 33.913C77.3005 34.4166 76.4421 34.7088 76.2225 34.2524L75.315 32.4376H70.9603ZM78.1081 27.1863C78.1081 27.071 78.1539 26.9605 78.2354 26.879C78.3169 26.7975 78.4274 26.7517 78.5427 26.7517C78.658 26.7517 78.7686 26.7975 78.8501 26.879C78.9316 26.9605 78.9774 27.071 78.9774 27.1863V34.1154C78.9702 34.2258 78.9213 34.3294 78.8406 34.405C78.7599 34.4807 78.6534 34.5228 78.5427 34.5228C78.4321 34.5228 78.3256 34.4807 78.2448 34.405C78.1641 34.3294 78.1152 34.2258 78.1081 34.1154V27.1863ZM81.5826 30.9694H83.9228C85.4409 30.9694 86.1006 30.2371 86.0779 29.336C86.0624 29.0744 85.9931 28.8188 85.8743 28.5851C85.7555 28.3515 85.5898 28.1449 85.3875 27.9783C85.1853 27.8116 84.9508 27.6884 84.6988 27.6165C84.4467 27.5446 84.1826 27.5254 83.9228 27.5602H81.5826V30.9694ZM81.5826 31.7252V34.0537C81.5772 34.1612 81.5311 34.2627 81.4535 34.3375C81.376 34.4123 81.273 34.4547 81.1653 34.4562C81.0576 34.4577 80.9533 34.4182 80.8738 34.3456C80.7942 34.273 80.7453 34.1728 80.7369 34.0655V27.1763C80.7342 27.1197 80.7435 27.0632 80.7642 27.0105C80.7849 26.9578 80.8165 26.91 80.8569 26.8703C80.8974 26.8307 80.9457 26.8 80.9988 26.7803C81.052 26.7606 81.1087 26.7524 81.1652 26.7562H83.911C85.9155 26.7562 86.9355 27.9358 86.9355 29.3369C86.9688 29.9199 86.771 30.4926 86.3849 30.9307C85.9988 31.3688 85.4555 31.637 84.8729 31.6771L86.7503 33.7778C86.7936 33.8146 86.8287 33.8599 86.8534 33.911C86.8782 33.962 86.8922 34.0176 86.8944 34.0743C86.8965 34.131 86.8869 34.1876 86.8662 34.2404C86.8454 34.2932 86.8139 34.3411 86.7736 34.3811C86.7334 34.4211 86.6853 34.4523 86.6323 34.4727C86.5794 34.4932 86.5228 34.5024 86.4661 34.4999C86.4094 34.4974 86.3539 34.4831 86.303 34.458C86.2521 34.4329 86.207 34.3975 86.1705 34.354L83.8294 31.7225L81.5826 31.7252ZM88.7893 34.4956C88.7291 34.5048 88.6675 34.4997 88.6097 34.4806C88.5518 34.4615 88.4993 34.4289 88.4564 34.3857C88.4135 34.3424 88.3814 34.2896 88.3628 34.2316C88.3442 34.1736 88.3395 34.112 88.3492 34.0519V27.1718C88.3492 27.0581 88.3944 26.949 88.4748 26.8686C88.5552 26.7882 88.6643 26.743 88.778 26.743C88.8917 26.743 89.0007 26.7882 89.0812 26.8686C89.1616 26.949 89.2067 27.0581 89.2067 27.1718V33.7052H93.5406C93.5964 33.6987 93.653 33.704 93.7067 33.7209C93.7603 33.7378 93.8098 33.7658 93.8518 33.8032C93.8938 33.8406 93.9275 33.8864 93.9505 33.9377C93.9735 33.989 93.9854 34.0446 93.9854 34.1009C93.9854 34.1571 93.9735 34.2127 93.9505 34.264C93.9275 34.3153 93.8938 34.3611 93.8518 34.3985C93.8098 34.4359 93.7603 34.4639 93.7067 34.4808C93.653 34.4977 93.5964 34.5031 93.5406 34.4965L88.7893 34.4956ZM94.9407 27.1863C94.9407 27.071 94.9865 26.9605 95.068 26.879C95.1495 26.7975 95.2601 26.7517 95.3754 26.7517C95.4907 26.7517 95.6012 26.7975 95.6827 26.879C95.7642 26.9605 95.81 27.071 95.81 27.1863V34.1154C95.8029 34.2258 95.754 34.3294 95.6733 34.405C95.5925 34.4807 95.486 34.5228 95.3754 34.5228C95.2647 34.5228 95.1582 34.4807 95.0775 34.405C94.9968 34.3294 94.9479 34.2258 94.9407 34.1154V27.1863ZM102.796 27.1373C102.796 26.6391 103.676 26.6146 103.676 27.1373V33.952C103.676 34.5455 102.877 34.6045 102.634 34.1889L98.3009 28.2407L98.3916 29.8786V34.07C98.3916 34.1868 98.3452 34.2989 98.2626 34.3815C98.18 34.4641 98.0679 34.5106 97.9511 34.5106C97.8343 34.5106 97.7222 34.4641 97.6396 34.3815C97.5569 34.2989 97.5105 34.1868 97.5105 34.07V27.2644C97.5019 27.1494 97.5337 27.035 97.6005 26.9411C97.6673 26.8472 97.7649 26.7796 97.8763 26.75C97.9878 26.7205 98.106 26.7309 98.2106 26.7794C98.3151 26.828 98.3994 26.9116 98.4488 27.0157L102.91 33.1299L102.794 31.3369L102.796 27.1373ZM106.411 33.6916H110.988C111.474 33.6916 111.544 34.4965 110.988 34.4965H106.109C106.038 34.4986 105.968 34.4862 105.902 34.46C105.836 34.4338 105.776 34.3943 105.726 34.344C105.676 34.2938 105.637 34.2338 105.611 34.1677C105.585 34.1017 105.573 34.0311 105.576 33.9602V27.2698C105.574 27.1998 105.587 27.1303 105.614 27.0655C105.64 27.0006 105.68 26.9419 105.73 26.8928C105.78 26.8438 105.839 26.8054 105.904 26.78C105.97 26.7546 106.039 26.7428 106.109 26.7453H110.995C111.094 26.7533 111.186 26.7986 111.253 26.872C111.319 26.9454 111.356 27.0414 111.354 27.1406C111.353 27.2398 111.314 27.3348 111.245 27.4063C111.176 27.4778 111.083 27.5205 110.984 27.5257H106.407V30.2679H110.763C111.226 30.2679 111.249 31.0474 110.763 31.0474H106.407L106.411 33.6916ZM113.212 32.4784C113.513 33.4448 114.799 33.658 115.726 33.658C116.711 33.658 118.241 33.355 118.241 32.1789C118.241 31.1654 117.024 31.0837 115.75 30.9793C114.151 30.8514 112.436 30.6998 112.436 28.964C112.436 27.4268 114.197 26.7399 115.612 26.7399C116.828 26.7399 118.346 27.0302 118.833 28.3587C119.007 28.8242 118.219 29.0338 118.045 28.6382C117.698 27.7525 116.457 27.6019 115.624 27.6019C114.848 27.6019 113.34 27.9159 113.34 28.9757C113.34 29.9893 114.499 30.0946 115.843 30.1989C117.431 30.3387 119.134 30.4195 119.134 32.1671C119.134 33.9493 117.153 34.4974 115.728 34.4974C114.548 34.4974 112.738 34.0891 112.356 32.6916C112.217 32.1789 113.12 32.0038 113.213 32.482" fill="#082E6A"/>
</g>
<defs>
<clipPath id="clip0_1_1221">
<rect width="145.187" height="40" fill="white"/>
</clipPath>
</defs>
</svg>
