<svg xmlns="http://www.w3.org/2000/svg" width="146" height="40" viewBox="0 0 146 40" fill="none">
  <g clip-path="url(#clip0_1_509)">
    <path d="M31.4271 28.4671C29.3528 34.7493 23.4301 39.2976 16.4615 39.2976C7.77194 39.2976 0.702114 32.2281 0.702114 23.5388C0.702114 14.8489 7.77194 7.77937 16.4615 7.77937C19.1072 7.77937 21.6009 8.43766 23.7925 9.59417L24.3565 9.09817C22.0112 7.81086 19.3208 7.07692 16.4615 7.07692C7.38429 7.07692 0 14.4612 0 23.5388C0 32.6152 7.38429 40 16.4615 40C23.8352 40 30.0919 35.1266 32.1805 28.4322L31.4271 28.4671Z" fill="#EEEEEE"/>
    <path d="M5.91383 28.6111C15.4174 27.7361 24.8339 26.2802 34.1164 23.9419C33.9727 24.5835 33.8294 25.224 33.686 25.8657C21.8105 28.5721 13.5274 28.8215 5.91383 28.6111Z" fill="#EEEEEE"/>
    <path d="M7.42589 27.6678C16.3271 26.2698 25.4405 24.0548 34.7995 20.8891C34.6527 21.5451 34.5059 22.2016 34.3591 22.8582C23.9786 26.1219 15.125 27.579 7.42589 27.6678Z" fill="#EEEEEE"/>
    <path d="M8.87571 26.6644C17.6058 24.4883 26.4947 21.4407 35.4928 17.7939C35.3449 18.4545 35.1972 19.115 35.0493 19.7755C25.5185 23.5181 16.7003 25.9821 8.87571 26.6644Z" fill="#EEEEEE"/>
    <path d="M10.3221 25.4774C19.1247 22.8031 27.7814 18.7801 36.3509 13.9589C36.1697 14.7697 35.9885 15.5799 35.8068 16.3902C25.5439 21.4854 16.8486 24.7486 10.3221 25.4774Z" fill="#EEEEEE"/>
    <path d="M12.1952 24.2222C22.0798 19.4418 30.1178 14.4887 37.3581 9.46057C37.1582 10.3527 36.9587 11.245 36.7589 12.1378C28.5486 17.3781 20.3553 21.7199 12.1952 24.2222Z" fill="#EEEEEE"/>
    <path d="M13.6355 22.6689C23.355 16.5243 31.7863 10.2737 38.6047 3.89C38.3613 4.98 38.117 6.07069 37.8727 7.16069C29.8092 14.1189 21.5548 18.912 13.6355 22.6689Z" fill="#EEEEEE"/>
    <path d="M39.16 0C38.2434 0.0240571 37.3262 0.0475429 36.4094 0.0713714C33.0103 4.22771 29.581 7.82406 26.1346 11.108C22.4006 14.6659 18.6468 17.8569 14.8898 20.9963C23.1196 15.4429 31.2849 9.22434 39.16 0Z" fill="#EEEEEE"/>
    <path d="M53.5951 31.0526H43.0967V31.6438H53.5951V31.0526Z" fill="#EEEEEE"/>
    <path d="M145.267 31.0526H134.769V31.6438H145.267V31.0526Z" fill="#EEEEEE"/>
    <path d="M57.3997 30.4156H61.4005V27.2028C61.4005 26.638 62.1941 26.638 62.1941 27.2028V34.0636C62.1941 34.6405 61.4005 34.6639 61.4005 34.0636V31.157C60.0195 31.157 58.8021 31.157 57.3997 31.157V34.0636C57.3997 34.6759 56.6167 34.6049 56.6167 34.0636V27.2028C56.6167 26.6259 57.3997 26.6615 57.3997 27.2028V30.4156Z" fill="#EEEEEE"/>
    <path d="M66.901 28.0125L65.183 31.7178H68.6077L66.901 28.0125ZM64.857 32.4586L63.9763 34.317C63.7805 34.7522 63.0632 34.4466 63.2587 33.9759L66.542 26.9775C66.6074 26.8244 66.7596 26.7538 66.9009 26.7538C67.0422 26.7538 67.1727 26.8244 67.2487 26.9775L70.5211 33.9403C70.8038 34.4466 69.9993 34.7402 69.7926 34.2815L68.9445 32.4587H64.857V32.4586Z" fill="#EEEEEE"/>
    <path d="M70.1725 27.3479C69.9618 26.8381 70.7267 26.5061 70.9486 27.0158L73.7978 33.0842L76.5811 27.04C76.7583 26.5537 77.5124 26.8146 77.3458 27.3479L74.1528 34.2574C73.9977 34.5653 73.5986 34.6365 73.41 34.2218L70.1725 27.3479Z" fill="#EEEEEE"/>
    <path d="M80.4456 28.0205L78.7279 31.7086H82.1526L80.4456 28.0205ZM78.4017 32.446L77.5212 34.2958C77.3254 34.7287 76.6081 34.4242 76.8035 33.9563L80.0869 26.9907C80.152 26.8381 80.3042 26.7682 80.4455 26.7682C80.5869 26.7682 80.7173 26.8382 80.7935 26.9907L84.066 33.9208C84.3486 34.4242 83.5442 34.7173 83.3375 34.2608L82.4897 32.446H78.4017Z" fill="#EEEEEE"/>
    <path d="M90.1111 31.403L87.3118 27.4413C86.9801 26.9683 87.7103 26.5308 88.009 27.0038L90.5094 30.6582L93.0427 26.9918C93.3194 26.5422 94.0054 26.9207 93.7066 27.4173L90.9297 31.403V34.0521C90.9297 34.3479 90.7083 34.4901 90.5203 34.4901C90.2992 34.4901 90.1111 34.3479 90.1111 34.0521V31.403Z" fill="#EEEEEE"/>
    <path d="M95.2207 30.5503C95.2207 32.4707 96.43 33.6886 98.0089 33.6886C99.5207 33.6886 100.764 32.5177 100.764 30.5503C100.764 29.0394 99.8117 27.833 98.4344 27.599C98.0983 27.552 97.7738 27.552 97.4602 27.599C96.1052 27.8215 95.2207 28.9574 95.2207 30.5503ZM94.3807 30.5147C94.3807 28.6765 95.5674 27.107 97.3481 26.8146C97.7626 26.7555 98.1431 26.7676 98.5351 26.8146C100.26 27.0956 101.592 28.5945 101.592 30.5147C101.592 32.9506 99.9127 34.4965 98.009 34.4965C95.9931 34.4965 94.3807 32.9976 94.3807 30.5147Z" fill="#EEEEEE"/>
    <path d="M103.214 34.5051C102.912 34.5051 102.789 34.3497 102.789 34.0624V27.1959C102.789 26.6339 103.617 26.6339 103.617 27.1959V33.7155H107.802C108.373 33.7155 108.373 34.5051 107.802 34.5051H103.214Z" fill="#EEEEEE"/>
    <path d="M109.659 34.5051C109.357 34.5051 109.234 34.3497 109.234 34.0624V27.1959C109.234 26.6339 110.062 26.6339 110.062 27.1959V33.7155H114.247C114.818 33.7155 114.818 34.5051 114.247 34.5051H109.659Z" fill="#EEEEEE"/>
    <path d="M118.775 28.0165L117.057 31.7155H120.482L118.775 28.0165ZM116.731 32.4546L115.851 34.3101C115.655 34.7442 114.937 34.4391 115.133 33.9695L118.416 26.9837C118.481 26.8306 118.634 26.7607 118.775 26.7607C118.916 26.7607 119.047 26.8306 119.123 26.9837L122.395 33.934C122.678 34.4391 121.874 34.7321 121.667 34.2746L120.819 32.4546H116.731Z" fill="#EEEEEE"/>
    <path d="M124.221 30.9781H126.507C127.99 30.9781 128.635 30.2436 128.612 29.341C128.601 28.3542 127.82 27.5594 126.507 27.5594H124.221V30.9781ZM124.221 31.7361V34.0715C124.221 34.6249 123.395 34.6249 123.395 34.0836V27.1747C123.395 26.9218 123.565 26.7533 123.814 26.7533H126.496C128.454 26.7533 129.45 27.9327 129.45 29.341C129.45 30.5566 128.828 31.4357 127.435 31.6885L129.269 33.7947C129.699 34.2523 129.077 34.7815 128.703 34.3726L126.417 31.7361H124.221Z" fill="#EEEEEE"/>
    <path d="M130.808 27.1896C130.808 26.6117 131.624 26.6231 131.624 27.1896V34.0997C131.624 34.6307 130.808 34.6542 130.808 34.0997V27.1896Z" fill="#EEEEEE"/>
    <path d="M48.5329 14.3586L45.9975 19.6224H51.0521L48.5329 14.3586ZM45.5159 20.6752L44.2162 23.3157C43.9275 23.9338 42.8685 23.4992 43.1571 22.8312L48.0033 12.8878C48.0996 12.6705 48.3244 12.5707 48.5328 12.5707C48.7412 12.5707 48.9342 12.6705 49.0463 12.8878L53.8763 22.7807C54.2938 23.4993 53.1062 23.9178 52.8015 23.2659L51.5498 20.6753H45.5159V20.6752Z" fill="#EEEEEE"/>
    <path d="M56.8142 22.4172H63.6664C64.4205 22.4172 64.4367 23.5611 63.6664 23.6133H55.7391C55.1135 23.6133 54.9206 23.0761 55.2738 22.6075L62.4629 13.7146H55.9638C55.2577 13.7146 55.2419 12.6223 55.9638 12.5707H63.6025C64.2601 12.5707 64.4367 13.108 64.0675 13.6109L56.8142 22.4172Z" fill="#EEEEEE"/>
    <path d="M77.3243 18.5817H80.566C82.6683 18.5817 83.5829 17.537 83.5506 16.2526C83.5348 14.8483 82.4275 13.7175 80.566 13.7175H77.3243V18.5817ZM77.3243 19.6603V22.9826C77.3243 23.7704 76.1531 23.7704 76.1531 22.9998V13.1699C76.1531 12.8104 76.3937 12.5707 76.7466 12.5707H80.5496C83.326 12.5707 84.7383 14.2485 84.7383 16.2526C84.7383 17.9825 83.8556 19.2326 81.8817 19.5921L84.4814 22.5886C85.091 23.2401 84.2088 23.9929 83.679 23.4109L80.4375 19.6603H77.3243Z" fill="#EEEEEE"/>
    <path d="M87.8849 22.4848H91.4796C92.8915 22.4848 94.4481 22.0858 94.4481 20.3317C94.4481 18.9601 93.3569 18.3701 91.9606 18.3701H87.8849V22.4848H87.8849ZM87.8849 13.6991V17.2411H91.1582C92.5383 17.2411 93.7419 16.842 93.7419 15.5742C93.7419 14.0816 92.1051 13.6991 91.1103 13.6991H87.8849ZM91.4796 23.6133H87.3069C86.9864 23.6133 86.7132 23.3358 86.7132 22.9883V13.1957C86.7132 12.8482 86.9864 12.5707 87.3069 12.5707H91.1103C92.6029 12.5707 94.9134 13.1092 94.9134 15.5742C94.9134 16.4774 94.5123 17.2761 93.6781 17.6407C94.8492 18.0398 95.6514 18.9258 95.6514 20.3317C95.6513 22.9189 93.5014 23.6133 91.4796 23.6133Z" fill="#EEEEEE"/>
    <path d="M101.911 14.3586L99.3756 19.6224H104.431L101.911 14.3586ZM98.8942 20.6752L97.5943 23.3157C97.3053 23.9338 96.2465 23.4992 96.5352 22.8312L101.381 12.8878C101.478 12.6705 101.702 12.5707 101.911 12.5707C102.12 12.5707 102.312 12.6705 102.424 12.8878L107.255 22.7807C107.672 23.4993 106.485 23.9178 106.18 23.2659L104.928 20.6753H98.8942V20.6752Z" fill="#EEEEEE"/>
    <path d="M129.679 14.3586L127.143 19.6224H132.198L129.679 14.3586ZM126.662 20.6752L125.362 23.3157C125.073 23.9338 124.014 23.4992 124.303 22.8312L129.149 12.8878C129.245 12.6705 129.47 12.5707 129.678 12.5707C129.887 12.5707 130.08 12.6705 130.192 12.8878L135.022 22.7807C135.439 23.4993 134.252 23.9178 133.947 23.2659L132.695 20.6753H126.662V20.6752Z" fill="#EEEEEE"/>
    <path d="M143.914 13.1602C143.914 12.452 145.133 12.4187 145.133 13.1602V22.8409C145.133 23.6838 144.026 23.7681 143.689 23.1775L137.688 14.7284L137.816 17.0558V23.0095C137.816 23.8351 136.596 23.8523 136.596 23.0095V13.3459C136.596 12.5025 137.495 12.3677 137.896 12.9921L144.074 21.6769L143.914 19.1304V13.1602Z" fill="#EEEEEE"/>
    <path d="M109.743 19.1717L105.63 13.4996C105.142 12.8224 106.215 12.1963 106.654 12.8734L110.328 18.1052L114.052 12.8562C114.458 12.2129 115.466 12.7547 115.028 13.4658L110.946 19.1717V22.9647C110.946 23.3879 110.621 23.5915 110.345 23.5915C110.019 23.5915 109.743 23.3879 109.743 22.9647V19.1717Z" fill="#EEEEEE"/>
    <path d="M122.423 23.0118C121.654 23.3787 120.79 23.6122 120.021 23.6122C117.283 23.6122 114.817 21.2778 114.817 17.9762C114.817 15.2417 116.691 13.0736 119.156 12.6734C121.03 12.4067 122.663 12.8907 123.928 14.2743C124.408 14.8414 123.544 15.5249 123.095 15.0249C122.007 13.8242 120.742 13.6407 119.333 13.8075C117.363 14.1247 115.97 15.5754 115.97 17.9928C115.97 20.5278 117.843 22.4614 120.053 22.4614C120.646 22.4614 121.302 22.2951 121.911 21.978C122.407 21.7114 122.887 21.3111 123.224 20.861C123.592 20.2939 124.569 20.9109 124.152 21.5279C123.72 22.1615 123.111 22.6621 122.423 23.0118Z" fill="#EEEEEE"/>
    <path d="M70.0437 22.4757C69.4474 22.4757 68.7862 22.3077 68.1736 21.9889C67.8276 21.8025 67.4924 21.5497 67.2049 21.2623C66.5681 20.6012 66.1157 19.6557 65.9953 18.6603H74.1035C73.8007 20.8667 72.0644 22.4757 70.0437 22.4757ZM70.9466 12.6206C69.0604 12.3522 67.4159 12.839 66.1423 14.2325C65.6587 14.8035 66.5294 15.4917 66.9806 14.9882C68.077 13.7794 69.3505 13.5942 70.7692 13.7622C72.6588 14.0661 74.0186 15.409 74.1428 17.6413L65.5861 17.6263C64.9302 17.6263 64.7446 18.0381 64.7765 18.405V18.3878C64.8984 20.4423 65.9637 21.983 67.1202 22.7113C67.2929 22.8277 67.4718 22.9349 67.6578 23.0295C68.4316 23.3988 69.3021 23.6339 70.0761 23.6339C72.833 23.6339 75.3156 21.2835 75.3156 17.9595C75.3157 15.2061 73.4292 13.0237 70.9466 12.6206Z" fill="#EEEEEE"/>
  </g>
  <defs>
    <clipPath id="clip0_1_509">
      <rect width="145.267" height="40" fill="white"/>
    </clipPath>
  </defs>
</svg>