<svg width="131" height="33" viewBox="0 0 131 33" fill="none" xmlns="http://www.w3.org/2000/svg">
<g clip-path="url(#clip0_1_195)">
<path d="M28.2847 23.0767C27.377 25.5649 25.6426 27.7418 23.3162 29.313C20.9898 30.8841 18.1837 31.7736 15.2777 31.8612C12.3716 31.9487 9.50582 31.23 7.06809 29.8024C4.63036 28.3748 2.73836 26.3071 1.64809 23.8791C0.55782 21.4511 0.32191 18.7801 0.97228 16.2274C1.62265 13.6747 3.12791 11.3636 5.28437 9.60677C7.44084 7.84992 10.1444 6.73217 13.0293 6.40475C15.9142 6.07732 18.8411 6.55603 21.414 7.77611L21.9212 7.37373C19.2403 6.05438 16.1721 5.51389 13.1369 5.82632C10.1017 6.13876 7.24799 7.28882 4.9667 9.11896C2.68541 10.9491 1.08813 13.3698 0.393674 16.0495C-0.300783 18.7291 -0.0584455 21.5366 1.08749 24.0874C2.23342 26.6381 4.2269 28.8074 6.79483 30.2979C9.36275 31.7885 12.3795 32.5274 15.4318 32.4135C18.4842 32.2996 21.4227 31.3385 23.845 29.6618C26.2673 27.985 28.0548 25.6747 28.9626 23.0473L28.2847 23.0767Z" fill="white"/>
<path d="M5.32227 23.1937C13.8791 22.5258 22.3653 21.2604 30.7046 19.409L30.3175 20.9685C22.1356 22.7239 13.7274 23.4727 5.32227 23.1944" fill="white"/>
<path d="M6.68262 22.4286C15.0537 21.2325 23.2959 19.3941 31.3194 16.9336L30.9224 18.5299C21.5805 21.1781 13.6089 22.355 6.68262 22.4286Z" fill="white"/>
<path d="M7.98828 21.6159C16.1502 19.7258 24.155 17.3228 31.9439 14.4246L31.5446 16.0311C22.9694 19.0648 15.0305 21.062 7.98828 21.6159Z" fill="white"/>
<path d="M9.28882 20.6515C17.4491 18.3106 25.3035 15.1797 32.7144 11.3136L32.2244 13.2843C22.9894 17.4148 15.1632 20.063 9.28882 20.6515Z" fill="white"/>
<path d="M10.9766 19.6363C18.8676 16.1977 26.4406 12.196 33.6231 7.66943L33.0832 9.84021C25.6939 14.0883 18.3201 17.6082 10.9766 19.6363Z" fill="white"/>
<path d="M12.2722 18.377C20.2715 13.9408 27.7945 8.84305 34.7439 3.14987L34.0857 5.79806C27.4849 10.8648 20.1457 15.0945 12.2722 18.3696M35.2437 0L32.7684 0.058113C29.8965 3.21132 26.808 6.19932 23.5211 9.00457C20.1605 11.8889 16.7827 14.4753 13.4009 17.0227C20.8073 12.5208 28.1566 7.47966 35.2437 0.00220682M38.8388 25.1659H59.0058V25.6448H38.8388V25.1659ZM110.506 25.1659H130.639V25.6448H110.506V25.1659Z" fill="white"/>
<path d="M43.9437 11.63L41.5631 15.9031H46.3105L43.9437 11.63ZM41.1099 16.7608L39.8889 18.9051C39.6178 19.4075 38.6231 19.0522 38.895 18.5123L43.4464 10.4353C43.4935 10.3542 43.5653 10.2868 43.6533 10.2411C43.7414 10.1953 43.8422 10.1732 43.9437 10.1771C44.0429 10.175 44.1407 10.1981 44.2259 10.2438C44.3111 10.2895 44.3803 10.3559 44.4256 10.4353L48.9622 18.4711C49.3534 19.0552 48.2386 19.3943 47.952 18.8647L46.776 16.7608H41.1099ZM51.721 18.1761H58.1564C58.2994 18.1761 58.4366 18.2273 58.5378 18.3184C58.639 18.4096 58.6958 18.5331 58.6958 18.662C58.6958 18.7909 58.639 18.9144 58.5378 19.0056C58.4366 19.0967 58.2994 19.1479 58.1564 19.1479H50.7115C50.1243 19.1479 49.943 18.7117 50.2746 18.3313L57.0261 11.1069H50.9222C50.7854 11.1069 50.6541 11.058 50.5573 10.9708C50.4605 10.8836 50.4061 10.7653 50.4061 10.642C50.4061 10.5187 50.4605 10.4005 50.5573 10.3133C50.6541 10.2261 50.7854 10.1771 50.9222 10.1771H58.0959C58.7134 10.1771 58.88 10.6141 58.5329 11.0223L51.721 18.1761ZM61.3373 18.2166H67.2901C67.4272 18.2166 67.5587 18.2657 67.6557 18.353C67.7526 18.4403 67.8071 18.5587 67.8071 18.6822C67.8071 18.8057 67.7526 18.9242 67.6557 19.0115C67.5587 19.0988 67.4272 19.1479 67.2901 19.1479H60.9453C60.8538 19.1507 60.7625 19.1366 60.6773 19.1065C60.592 19.0763 60.5145 19.0308 60.4495 18.9726C60.3845 18.9144 60.3335 18.8449 60.2995 18.7682C60.2655 18.6916 60.2494 18.6095 60.252 18.527V10.784C60.251 10.7026 60.2685 10.6218 60.3032 10.5466C60.338 10.4714 60.3893 10.4034 60.4542 10.3467C60.519 10.2899 60.596 10.2456 60.6804 10.2165C60.7649 10.1873 60.855 10.1739 60.9453 10.1771H67.3048C67.4378 10.1789 67.5646 10.2282 67.6572 10.3141C67.7499 10.4001 67.8008 10.5156 67.7989 10.6354C67.797 10.7552 67.7423 10.8694 67.6468 10.9529C67.5514 11.0363 67.4231 11.0822 67.2901 11.0805H61.3373V14.2539H67.0035C67.6062 14.2539 67.6364 15.1565 67.0035 15.1565H61.3373V18.2166ZM70.9831 15.0601H74.0277C76.0016 15.0601 76.8608 14.2112 76.8306 13.1681C76.8159 12.0272 75.7754 11.1084 74.0277 11.1084H70.9831V15.0601ZM70.9831 15.9362V18.6352C70.98 18.7635 70.9217 18.8858 70.8206 18.9763C70.7194 19.0668 70.5831 19.1183 70.4406 19.1201C70.298 19.1219 70.1603 19.0739 70.0563 18.986C69.9523 18.8982 69.8902 18.7774 69.8831 18.6491V10.6641C69.88 10.5981 69.8924 10.5322 69.9196 10.4709C69.9468 10.4095 69.9881 10.354 70.0408 10.308C70.0934 10.262 70.1563 10.2266 70.2253 10.204C70.2942 10.1815 70.3677 10.1723 70.4409 10.1771H74.013C76.6207 10.1771 77.9469 11.5402 77.9469 13.1681C77.987 13.8475 77.7276 14.5137 77.2252 15.0217C76.7228 15.5297 76.018 15.8386 75.2642 15.881L77.706 18.3159C77.7627 18.3588 77.8088 18.4118 77.8413 18.4716C77.8739 18.5315 77.8922 18.5968 77.8951 18.6634C77.898 18.73 77.8854 18.7964 77.8581 18.8583C77.8309 18.9203 77.7895 18.9764 77.7367 19.0231C77.684 19.0698 77.6209 19.1061 77.5517 19.1296C77.4825 19.153 77.4085 19.1632 77.3347 19.1595C77.2608 19.1557 77.1886 19.1381 77.1227 19.1077C77.0569 19.0773 76.9988 19.0349 76.9522 18.9831L73.9085 15.9369L70.9831 15.9362ZM80.9009 18.2306H84.2762C85.6025 18.2306 87.0643 17.9062 87.0643 16.482C87.0643 15.3676 86.0394 14.8887 84.7278 14.8887H80.9001L80.9009 18.2306ZM80.9009 11.0952V13.9721H83.9748C85.2709 13.9721 86.4012 13.6477 86.4012 12.6186C86.4012 11.4056 84.8642 11.0952 83.9299 11.0952H80.9009ZM84.2762 19.1486H80.3561C80.2077 19.1473 80.0658 19.0932 79.9614 18.9981C79.8569 18.9031 79.7983 18.7748 79.7984 18.641V10.6847C79.7986 10.551 79.8572 10.4228 79.9616 10.3278C80.066 10.2328 80.2078 10.1787 80.3561 10.1771H83.9283C85.3297 10.1771 87.4996 10.6148 87.4996 12.6179C87.5206 12.9711 87.4205 13.3216 87.213 13.6219C87.0054 13.9221 86.7003 14.1577 86.3391 14.2965C86.8773 14.418 87.3538 14.7005 87.6905 15.0976C88.0273 15.4948 88.2045 15.9831 88.193 16.4828C88.1954 18.5837 86.1758 19.1479 84.277 19.1479L84.2762 19.1486ZM94.0739 11.63L91.6925 15.906H96.4398L94.0739 11.63ZM91.2408 16.7608L90.0199 18.9051C89.7479 19.4075 88.7541 19.0522 89.0252 18.5123L93.5765 10.4353C93.6236 10.3542 93.6954 10.2868 93.7835 10.2411C93.8716 10.1953 93.9723 10.1732 94.0739 10.1771C94.1732 10.175 94.2711 10.1981 94.3564 10.2437C94.4418 10.2894 94.5112 10.3558 94.5566 10.4353L99.0924 18.4711C99.4836 19.0552 98.3688 19.3943 98.0822 18.8647L96.9061 16.7608H91.2408ZM100.54 10.6729C100.54 10.5379 100.599 10.4085 100.705 10.313C100.811 10.2175 100.955 10.1639 101.105 10.1639C101.255 10.1639 101.398 10.2175 101.504 10.313C101.61 10.4085 101.67 10.5379 101.67 10.6729V18.6837C101.659 18.812 101.595 18.9319 101.49 19.0194C101.385 19.1069 101.248 19.1555 101.105 19.1555C100.962 19.1555 100.824 19.1069 100.719 19.0194C100.615 18.9319 100.55 18.812 100.54 18.6837V10.6729ZM109.115 11.0908H106.221C106.15 11.0981 106.077 11.0917 106.009 11.0721C105.94 11.0525 105.877 11.02 105.824 10.9769C105.77 10.9338 105.727 10.8809 105.698 10.8218C105.668 10.7627 105.653 10.6987 105.653 10.6339C105.653 10.5692 105.668 10.5052 105.698 10.4461C105.727 10.387 105.77 10.3341 105.824 10.291C105.877 10.2479 105.94 10.2154 106.009 10.1958C106.077 10.1762 106.15 10.1698 106.221 10.1771H109.612C109.748 10.1825 109.878 10.2315 109.977 10.3152C110.077 10.399 110.14 10.512 110.155 10.6339V15.9347C110.106 16.8241 109.671 17.6606 108.944 18.2638C108.216 18.867 107.255 19.1887 106.267 19.1596C105.37 19.1843 104.497 18.8955 103.832 18.3538C103.166 17.8121 102.758 17.0594 102.695 16.2533C102.691 16.1859 102.702 16.1185 102.728 16.0551C102.754 15.9918 102.794 15.9338 102.845 15.8846C102.896 15.8353 102.958 15.7959 103.027 15.7687C103.095 15.7415 103.169 15.7269 103.244 15.726C103.319 15.7251 103.393 15.7377 103.463 15.7632C103.532 15.7887 103.595 15.8266 103.648 15.8745C103.701 15.9224 103.742 15.9794 103.77 16.0421C103.798 16.1047 103.811 16.1718 103.81 16.2393C103.826 16.5154 103.902 16.786 104.034 17.0356C104.166 17.2852 104.351 17.509 104.58 17.694C104.808 17.8791 105.074 18.0218 105.363 18.1141C105.653 18.2065 105.96 18.2465 106.266 18.232C106.979 18.2572 107.675 18.0315 108.207 17.6028C108.738 17.174 109.064 16.5758 109.115 15.9347V11.0908ZM116.154 11.63L113.773 15.906H118.52L116.154 11.63ZM113.321 16.7608L112.1 18.9051C111.828 19.4075 110.834 19.0522 111.105 18.5123L115.656 10.4353C115.703 10.3542 115.775 10.2869 115.863 10.2412C115.951 10.1954 116.052 10.1732 116.154 10.1771C116.253 10.175 116.351 10.1981 116.436 10.2438C116.521 10.2895 116.59 10.3559 116.635 10.4353L121.171 18.4711C121.563 19.0552 120.448 19.3943 120.162 18.8647L118.986 16.7608H113.321ZM129.523 10.656C129.523 10.0808 130.666 10.0528 130.666 10.656V18.5197C130.666 19.2045 129.626 19.2729 129.309 18.7933L123.674 11.9301L123.795 13.8206V18.6565C123.795 18.7931 123.735 18.924 123.628 19.0206C123.521 19.1172 123.375 19.1714 123.224 19.1714C123.072 19.1714 122.927 19.1172 122.819 19.0206C122.712 18.924 122.652 18.7931 122.652 18.6565V10.8076C122.643 10.6738 122.686 10.5415 122.774 10.4331C122.861 10.3248 122.988 10.247 123.132 10.2131C123.275 10.1792 123.428 10.1913 123.563 10.2472C123.698 10.3031 123.808 10.3995 123.873 10.5199L129.671 17.5744L129.521 15.5059L129.523 10.656ZM65.8242 22.706L64.1769 25.697H67.4616L65.8242 22.706ZM63.8641 26.2958L63.0189 27.7957C62.831 28.1473 62.1426 27.9001 62.3312 27.5206L65.4812 21.8711C65.5134 21.8146 65.5629 21.7676 65.6238 21.7357C65.6848 21.7038 65.7546 21.6882 65.825 21.6909C65.8939 21.6895 65.9618 21.7056 66.0209 21.7375C66.08 21.7694 66.1279 21.8157 66.159 21.8711L69.2983 27.4919C69.5703 27.9001 68.7977 28.137 68.6001 27.767L67.7834 26.2958H63.8641ZM70.2971 22.0388C70.2971 21.9454 70.3383 21.8557 70.4117 21.7897C70.4851 21.7236 70.5846 21.6865 70.6883 21.6865C70.7921 21.6865 70.8916 21.7236 70.9649 21.7897C71.0383 21.8557 71.0795 21.9454 71.0795 22.0388V27.6559C71.0731 27.7454 71.0291 27.8294 70.9564 27.8907C70.8838 27.9521 70.7879 27.9862 70.6883 27.9862C70.5887 27.9862 70.4929 27.9521 70.4202 27.8907C70.3476 27.8294 70.3035 27.7454 70.2971 27.6559V22.0388ZM73.4242 25.1056H75.5304C76.8967 25.1056 77.4904 24.5119 77.47 23.7815C77.456 23.5694 77.3936 23.3622 77.2867 23.1728C77.1798 22.9834 77.0307 22.8159 76.8486 22.6808C76.6666 22.5457 76.4556 22.4459 76.2287 22.3875C76.0019 22.3292 75.7642 22.3137 75.5304 22.3419H73.4242V25.1056ZM73.4242 25.7183V27.6059C73.4193 27.6931 73.3778 27.7754 73.308 27.836C73.2383 27.8966 73.1455 27.931 73.0486 27.9322C72.9517 27.9334 72.8579 27.9014 72.7863 27.8425C72.7146 27.7837 72.6706 27.7025 72.663 27.6155V22.0307C72.6606 21.9848 72.669 21.939 72.6876 21.8963C72.7062 21.8535 72.7347 21.8148 72.7711 21.7826C72.8075 21.7505 72.851 21.7256 72.8988 21.7097C72.9466 21.6937 72.9976 21.6871 73.0485 21.6901H75.5198C77.3238 21.6901 78.2418 22.6464 78.2418 23.7822C78.2718 24.2548 78.0938 24.7191 77.7463 25.0742C77.3988 25.4294 76.9098 25.6468 76.3855 25.6793L78.0752 27.3823C78.1141 27.4121 78.1456 27.4488 78.168 27.4902C78.1903 27.5316 78.2028 27.5767 78.2048 27.6227C78.2067 27.6686 78.1981 27.7144 78.1794 27.7572C78.1607 27.8001 78.1323 27.8389 78.0961 27.8713C78.0599 27.9037 78.0166 27.929 77.969 27.9456C77.9213 27.9622 77.8704 27.9697 77.8194 27.9676C77.7684 27.9656 77.7184 27.954 77.6726 27.9336C77.6268 27.9133 77.5862 27.8846 77.5533 27.8494L75.4463 25.7161L73.4242 25.7183ZM79.9102 27.9641C79.856 27.9716 79.8006 27.9674 79.7486 27.9519C79.6965 27.9365 79.6492 27.9101 79.6106 27.875C79.572 27.84 79.5431 27.7972 79.5264 27.7501C79.5096 27.7031 79.5054 27.6532 79.5142 27.6044V22.027C79.5142 21.9349 79.5548 21.8465 79.6272 21.7813C79.6995 21.7161 79.7977 21.6795 79.9 21.6795C80.0024 21.6795 80.1005 21.7161 80.1729 21.7813C80.2453 21.8465 80.2859 21.9349 80.2859 22.027V27.3234H84.1864C84.2366 27.3181 84.2876 27.3224 84.3359 27.3361C84.3841 27.3498 84.4287 27.3725 84.4665 27.4028C84.5043 27.4331 84.5346 27.4703 84.5553 27.5119C84.576 27.5535 84.5867 27.5986 84.5867 27.6441C84.5867 27.6897 84.576 27.7348 84.5553 27.7764C84.5346 27.818 84.5043 27.8552 84.4665 27.8854C84.4287 27.9157 84.3841 27.9385 84.3359 27.9522C84.2876 27.9659 84.2366 27.9702 84.1864 27.9649L79.9102 27.9641ZM85.4465 22.0388C85.4465 21.9454 85.4877 21.8557 85.5611 21.7897C85.6344 21.7236 85.7339 21.6865 85.8377 21.6865C85.9414 21.6865 86.0409 21.7236 86.1143 21.7897C86.1877 21.8557 86.2289 21.9454 86.2289 22.0388V27.6559C86.2225 27.7454 86.1785 27.8294 86.1058 27.8907C86.0331 27.9521 85.9373 27.9862 85.8377 27.9862C85.7381 27.9862 85.6423 27.9521 85.5696 27.8907C85.4969 27.8294 85.4529 27.7454 85.4465 27.6559V22.0388ZM92.5165 21.9991C92.5165 21.5952 93.3087 21.5754 93.3087 21.9991V27.5235C93.3087 28.0046 92.5892 28.0524 92.3703 27.7155L88.4707 22.8936L88.5523 24.2214V27.6191C88.5523 27.7139 88.5106 27.8047 88.4362 27.8717C88.3618 27.9386 88.261 27.9763 88.1558 27.9763C88.0507 27.9763 87.9498 27.9386 87.8755 27.8717C87.8011 27.8047 87.7593 27.7139 87.7593 27.6191V22.1021C87.7515 22.0089 87.7802 21.9162 87.8403 21.84C87.9004 21.7639 87.9883 21.7091 88.0886 21.6851C88.1888 21.6612 88.2953 21.6696 88.3894 21.709C88.4835 21.7483 88.5593 21.8161 88.6038 21.9005L92.6186 26.857L92.514 25.4035L92.5165 21.9991ZM95.7693 27.3124H99.8886C100.326 27.3124 100.389 27.9649 99.8886 27.9649H95.4982C95.4344 27.9666 95.3709 27.9565 95.3116 27.9353C95.2523 27.914 95.1984 27.882 95.1534 27.8413C95.1084 27.8005 95.0732 27.7519 95.0499 27.6984C95.0266 27.6448 95.0157 27.5876 95.018 27.5301V22.1065C95.0168 22.0497 95.0285 21.9934 95.0524 21.9408C95.0762 21.8883 95.1117 21.8407 95.1566 21.8009C95.2015 21.7611 95.255 21.73 95.3137 21.7094C95.3724 21.6889 95.4352 21.6793 95.4982 21.6813H99.8952C99.9842 21.6878 100.067 21.7245 100.127 21.784C100.187 21.8435 100.22 21.9213 100.219 22.0017C100.218 22.0822 100.182 22.1592 100.12 22.2171C100.059 22.2751 99.9745 22.3097 99.8854 22.3139H95.7661V24.5369H99.6861C100.103 24.5369 100.124 25.1688 99.6861 25.1688H95.7661L95.7693 27.3124ZM101.89 26.3289C102.161 27.1123 103.319 27.2852 104.153 27.2852C105.039 27.2852 106.416 27.0395 106.416 26.0861C106.416 25.2645 105.321 25.1982 104.175 25.1137C102.736 25.0099 101.192 24.8871 101.192 23.4799C101.192 22.2337 102.777 21.6769 104.05 21.6769C105.145 21.6769 106.511 21.9123 106.95 22.9892C107.106 23.3666 106.397 23.5365 106.241 23.2158C105.928 22.4978 104.812 22.3757 104.061 22.3757C103.363 22.3757 102.006 22.6302 102.006 23.4894C102.006 24.3111 103.049 24.3964 104.259 24.481C105.688 24.5943 107.221 24.6598 107.221 26.0766C107.221 27.5213 105.437 27.9656 104.155 27.9656C103.093 27.9656 101.464 27.6346 101.12 26.5017C100.995 26.0861 101.808 25.9442 101.892 26.3318" fill="white"/>
</g>
<defs>
<clipPath id="clip0_1_195">
<rect width="130.669" height="32.4263" fill="white"/>
</clipPath>
</defs>
</svg>
