<svg  width="495" height="274" id="Layer_1" data-name="Layer 1" xmlns="http://www.w3.org/2000/svg" xmlns:xlink="http://www.w3.org/1999/xlink" viewBox="0 0 495 274"><defs><style>.cls-1{fill:#fff;}.cls-2{mask:url(#mask);}.cls-3{fill:#daeafc;}.cls-4{fill:#ffe8a0;}.cls-5{fill:#f9e6d2;}.cls-6{fill:#fcc8d2;}.cls-7{fill:#b4eefc;}.cls-8{fill:#ddd8d4;}.cls-9{fill:#88d5ed;}.cls-10{fill:#ddd;}.cls-11{fill:#edeef1;}.cls-12{fill:#edf9fd;}.cls-13{fill:#525c7a;}.cls-14{mask:url(#mask-2);}</style><mask id="mask" x="0" y="195.57" width="494.71" height="78.43" maskUnits="userSpaceOnUse"><g id="b"><path id="a" class="cls-1" d="M494.7,274V195.57H0V274Z"/></g></mask><mask id="mask-2" x="333.25" y="0.5" width="11.46" height="3.3" maskUnits="userSpaceOnUse"><g id="d"><path id="c" class="cls-1" d="M344.7.5H333.25V3.8H344.7Z"/></g></mask></defs><title>Artboard 1</title><g class="cls-2"><path class="cls-3" d="M493.53,210.94c-4.6-7.14-11.3-12.53-19.74-14.39-7.54-1.66-15.06-.87-22.65-.21l-28.95,2.51-6-.27c-31-1.26-62-.89-93,.19-25.66.89-51.31,2.27-77,3.61-29-.6-58-1.32-87-1.3-29.79,0-59.6.92-89.28,3.57q-18.15-1.12-36.23-3.11c-4.16-.46-8.14,3.72-8.4,7.72q-2.9-.13-5.8-.2a12.59,12.59,0,0,0-17.42,5.36C-.43,219.37-.39,225.36.71,230.69a19.78,19.78,0,0,0,9.61,13.51,19.26,19.26,0,0,0,8.56,2.25,8.59,8.59,0,0,0,4.77,1.75h.78c13.64.27,27.35.47,41,.57q16.58,1.66,33.22,2.62a8.59,8.59,0,0,0-2.95,8.87c1,3.78,4.39,5.8,8.12,6.15,46.53,4.44,93.25,6.46,140,7.19s93.4.22,140.09-.31c9.88-.11,19.28-2.1,25.34-10.61a23.81,23.81,0,0,0,3.48-7.46c0-.05,0-.1,0-.15A54.91,54.91,0,0,0,437,257c12.45-1.78,23.6-8.18,32.8-16.53a8.15,8.15,0,0,0,1.85-8.95,88.83,88.83,0,0,0,18.92-9.15c3.7-2.36,5.55-7.53,3-11.47"/></g><path class="cls-1" d="M224.35,113.81l.36-.21c-.85.89-1.41,1.5-.36.21m89.1-18q-.26.43-.49.88c-.22.22-.42.47-.62.72a7.19,7.19,0,0,0-3.51-3.31c1.94-.65,3.91-1.22,5.87-1.82l2.8-.87a16.45,16.45,0,0,0-4.06,4.4m-18.09,41.05c.09.15.2.3.31.44h-.49l.18-.43m89.43-17.74h-.48l-.06-.11.33-.25.2.35m22.64-51.06h0M89.54,132.77l.13,0-.06,0h-.07m362.25,3.34-6.69-1.05a6.74,6.74,0,0,0,.23-.94,185.08,185.08,0,0,0,2.57-37.74c-.22-5.76-5.17-9.13-10.64-8.08-4,.77-8.2,1.57-12.36,2.34q1.34-10.32,1.81-20.74A7.31,7.31,0,0,0,425,64.69l.32-4.87c.38-5.93-5.65-8.91-10.64-8.08,1.09-.18-2-.12-2.34-.14-1.23-.08-2.46-.24-3.7-.28a18.2,18.2,0,0,0-9.43,2.1c-5.09,2.91-8.61,8.7-12,13.26-3.31,4.39-7.19,9.4-9.46,14.72A7,7,0,0,0,374.46,83l-6.15-1.37C364,80.76,359,82.83,358,87.47c-1,4.25,1.28,9.29,5.87,10.31l.11,0q-.05.36-.07.73a8.6,8.6,0,0,0-.94,1.28l-1.2,2a7.72,7.72,0,0,0-.52,1.07,25.08,25.08,0,0,0-9.76-.83c1.28-3,1-7-1.68-9.2q-.83-.69-1.7-1.31h0a26.47,26.47,0,0,0-19.45-4.84,30.24,30.24,0,0,0,2.82-1.89c3-2.29,4.94-5.57,3.86-9.47-.92-3.34-4.47-6.47-8.11-6.15-6.95.6-14,.89-21,1.63q0-1.33-.07-2.65c-.29-5.15-1.22-10.43-6-13.38-4.24-2.65-9.92-1.85-14.69-1.84-5.11,0-11.13-.85-15,3.25-3.37,3.6-3.63,9.62-3.15,14.27.12,1.12.29,2.16.47,3.14a8.06,8.06,0,0,0-3-.5c-4.68.11-10.67-.69-14.9,1.55-4.7,2.48-6.15,8.08-7.57,12.82-.69,2.29-1.27,4.6-1.81,6.93-4.12,1.58-5.76,5.83-5,10a53.87,53.87,0,0,1,.63,6.11l-.08.32-.87.29a7.13,7.13,0,0,0-3.73-.9,9.49,9.49,0,0,0-4.67,1.4,8.58,8.58,0,0,0-1,.95,8.66,8.66,0,0,0-4.13,6.2q-16.46-.47-32.91.57a9.63,9.63,0,0,0-1.91.32,11.56,11.56,0,0,0-2.86-2q-.56-.84-1.06-1.71l-.16-.32a8.56,8.56,0,0,0-1.75-3.63A8.43,8.43,0,0,0,173.2,108a8.61,8.61,0,0,0-3.29-6.13c-3-2.27-8.39-2.65-11,.66l-.23.3-.27.1c-.32.08-.81.17-1,.21-.73.08-1.46.13-2.19.18a90.43,90.43,0,0,1-10.12.14,8.48,8.48,0,0,0-8.11,6.15c0,.12,0,.25-.07.38q-4.75.48-9.52.87c-2.64.21-5.28.38-7.92.54a11.32,11.32,0,0,0,.37-1.91c.51-4.75-3.53-9.21-8-10.07-3.36-.64-6.92,0-10.35-.27-4.47-.41-9-.67-13.29.37A8.56,8.56,0,0,0,85,99.28c-3.71.5-7.82,4.09-7.29,8.23l.23,1.83c0,.26.07.51.11.76.46,3.46.64,7.23,1.45,10.68-1.78,2.63-1.92,5.69-2.45,8.76a95.43,95.43,0,0,0-1.51,13.58,8.47,8.47,0,0,0,8.41,8.38,8.56,8.56,0,0,0,8.41-8.38c0-1.6.1-3.2.24-4.8,0-.53.12-1.06.16-1.59,0,.43-.06.72-.07.9,0-.28.07-.71.11-.91.18-1,.36-2,.54-3.06.1-.56.18-1.12.27-1.68a10.94,10.94,0,0,0,3.56-2.37,10.25,10.25,0,0,0,1.26-1.76,8.68,8.68,0,0,0,3.75,1h.25l10.06,0a8.09,8.09,0,0,0,2.72-.49q7.71-.38,15.4-1c6.45-.56,14.67-.44,20.76-3.65a26.68,26.68,0,0,0,8,.81c-1.29,3.47.07,7,2.79,9.41l.08.2c.12.34.25.67.36,1a43.46,43.46,0,0,0,2.09,5.21,15.2,15.2,0,0,0,10.91,8c4.68.84,9.6.42,14.33.33s9.33-.21,14-.37a9.15,9.15,0,0,0,7-3.71c1.68.23,3.24.41,4.93.56a8.62,8.62,0,0,0,7.39,5.53v0c.56,0,.22,0,.26,0l.23,0q60.53,3.85,121.21,4.34h0a8.41,8.41,0,0,0,8.34-7.91l5.27.46c19.39,1.71,38.82,3.27,58.27,4.18,10.92.51,21.86.81,32.8.82a8.41,8.41,0,0,0,8.27-7.27c.5-3.74-1.88-8.55-6-9.2"/><path class="cls-4" d="M385.71,85.83q-.78-.35-1.53-.75a1.73,1.73,0,0,0,.67-3.15c-.35-.22-.69-.46-1-.69,1.55-.08,2.55-2.29.87-3.06A11.9,11.9,0,0,1,380,74.44a.84.84,0,0,0-.21-.51l-.8-1c-.08-.14-.16-.3-.24-.44A1.71,1.71,0,0,0,379.84,70a64,64,0,0,1-6.42-19.11,1.63,1.63,0,0,0-.2-.56q-.08-.63-.2-1.26a1.41,1.41,0,0,0-.1-.46,18.29,18.29,0,0,0-.67-2.32c-3.25-9-12.45-13.7-21.28-9.15a1.55,1.55,0,0,0-.54,2.31A1.87,1.87,0,0,0,352,40.65a7.79,7.79,0,0,0,.78.71l.59.49a11.78,11.78,0,0,0,1.36,4.51q1,2.27,2.21,4.47c1.39,3.76,4.61,7.3,6.6,10.33a14.92,14.92,0,0,1,1.16,2.14,31.53,31.53,0,0,0,1.74,7.32q0,.44.09.88c0,.25,0,.5,0,.75a15.13,15.13,0,0,0-.32,1.85,1.92,1.92,0,0,0-.08.34c0,.06,0,.11,0,.17a1.55,1.55,0,0,0-.48.84,12.87,12.87,0,0,0,9.43,15.67,1.61,1.61,0,0,0,2-1.16,15.16,15.16,0,0,0,3,.37,1.61,1.61,0,0,0,1.54-2.18,1.39,1.39,0,0,0,.77-.21c.53.28,1.07.54,1.62.79,2,.87,3.67-2,1.69-2.9"/><path class="cls-5" d="M231.73,103.24l.28-.1-.21.09h-.07m-18.43,6.11-.1,0-.12,0,.94-.22-.71.22m5.13,2.89a1,1,0,0,0,0-.12l.18-.05a1.32,1.32,0,0,0-.17.17M207,124l0,.07,0-.1.05,0m25.49-23.85-.08,0a2.77,2.77,0,0,0-1.91-2.65l-.08-.18c-1.79-3.53-5.64-5.52-9.45-7.15A2.88,2.88,0,0,0,218,88.36l-1.14.11-1-.43a7.21,7.21,0,0,0-6.58,1.8,3.86,3.86,0,0,0-.48.29l-1.51,1.07a3.82,3.82,0,0,0-1.18,1.31h-.07c-.6,0-1.2.08-1.8.16a3.49,3.49,0,0,0-2.7-1.39c-4.37,0-9.71,1.84-11.93,5.8a21.17,21.17,0,0,0-3.52,2c-1.56,1.13-3.14,2.83-3.22,4.64l0,0a10.38,10.38,0,0,0-2.75,3.25c-1,.8-1.12,2.72.46,2.95l.49.08c1.46.9,3.84.92,5.21,1.48A1.3,1.3,0,0,0,188,111a2.8,2.8,0,0,0,.43-.1l6,.36h.4c2.18.82,4.95.44,7.37,0a4,4,0,0,0-2.3,3.62,3.57,3.57,0,0,0,.66,2,.75.75,0,0,0,.23.72l.53.5a.63.63,0,0,0,0,.27c.78,2,2.35,3.56,3.22,5.59q1.46,3.39,3.21,6.65a.85.85,0,0,0,1.53-.2c1-3.88,3.61-6.75,6.25-9.64a23.77,23.77,0,0,0,4.79-8.43c.48-1.5,0-1.65-1.22-2.08-1.72-.59-1.09-.79-2.18-1.41a2.55,2.55,0,0,0-1.69-.12,135.39,135.39,0,0,0,14.13-4.55,4,4,0,0,0,1.28-.79,2.27,2.27,0,0,0,1.41.06,1.65,1.65,0,0,0,1.17-1.17,2,2,0,0,0-.79-2.17m-33.93,33.5c-.58-.64-1.28-1-1.71-1.78a.85.85,0,0,0-1.56.42,7,7,0,0,0,.41,1.91.93.93,0,0,0-.46.52,1.73,1.73,0,0,0,.5,1.86c.56.52,1.31.55,2,.89a.85.85,0,0,0,1.15-.3l0,0a2,2,0,0,0,.63,0c.66-.07,1.19-.9.59-1.43a22.52,22.52,0,0,1-1.54-2.07m161-31.71a1.74,1.74,0,0,0,.49-.11l-.53.46,0-.35M347.67,78a1.89,1.89,0,0,0,0-1.25,15.61,15.61,0,0,0,1.2-1.76,8.31,8.31,0,0,0,1.1-3.94s0,0,0,0l.65-2.43q.44-.66.86-1.33a43.26,43.26,0,0,0-1,5c-1,2-1.83,3.91-2.76,5.78h0M364.93,92a1.47,1.47,0,0,0,0-.19h0c0-.06,0-.12,0-.19s0-.12,0-.18c0-.28,0-.54,0-.81-.08-5.69,1.71-10.9,1.18-16.41a1.91,1.91,0,0,0-.36-.93c-.29-5.5-1.11-15.89-6.7-13.82a2.12,2.12,0,0,0-.56.31,1.65,1.65,0,0,0-1,.21,8,8,0,0,0-.9.61,5.24,5.24,0,0,0-2.87,1.87,1.72,1.72,0,0,0-.21-.51l-.16-.27a1.69,1.69,0,0,0-3.13.85c0,.1,0,.21,0,.31q-.75,1.33-1.55,2.63a1.39,1.39,0,0,0-.81.76,20.92,20.92,0,0,1-1.68,3q-.78,1.07-1.61,2.11a23.32,23.32,0,0,0-3.3,2.44,1.74,1.74,0,0,0-.78.35c-5.28,4.24-12.06,8.72-18.78,10.07a1.7,1.7,0,0,0-.74,2.81c2.08,2.37,5.11,1.35,7.74.22h0c4.32.09,9.05-3.06,12.72-5.07A15,15,0,0,0,344,80.31a1.86,1.86,0,0,0,.65.26l-.59.85q-1.67,2.11-3.53,4.07-4.09,2-8.29,3.78a1.69,1.69,0,0,0-2.42,2.21l.32.58c0,.06.07.1.1.15l.12.28a1.69,1.69,0,0,0,2.12,1.62q1.79-.54,3.55-1.16a1.69,1.69,0,0,0,1.17.14,33.7,33.7,0,0,0,9.39-4.34,4.34,4.34,0,0,0-.37,1.26.81.81,0,0,0-.91.64h0v.16q-.14,2.37-.2,4.75a.75.75,0,0,0,.5.75l-.14,2.26c-.07,1.08,1.61,1.08,1.68,0l.35-5.82c0-.11.05-.22.07-.33.16-.89.07-2.42.65-3.13a.91.91,0,0,0-.26-1.35l.11-.07a19.75,19.75,0,0,0,4-3.08,2.1,2.1,0,0,0,.67-.35,24.08,24.08,0,0,0,2.05-1.78,29.91,29.91,0,0,1,.94,8.48,1.61,1.61,0,0,0-.56.82,30.18,30.18,0,0,0-1.24,9.85c.08,2.31-.11,5.77,1.53,7.6a1.69,1.69,0,0,0,2.37,0c1-1.2,2-2.61,3.1-3.82a1.49,1.49,0,0,0,1-.2c1.79-1.06,3.77-3,4.26-5.08.59-2.5-.37-5.71-1.22-8.35"/><path class="cls-6" d="M364.44,107A1.58,1.58,0,0,0,362,105.4c-2.44,1.63-4.47,4.09-7.19,5.28v0a5.47,5.47,0,0,1-1.31-3,1.82,1.82,0,0,0,.24-.68c.25-2.13-.93-3.53-2.81-4.31l-.13,0c-2.26-1.9-5.23-2.54-7.93-.15l0,0c-4,.86-7.88,2.15-11.93,2.72a1.3,1.3,0,0,0-.91.6,1.57,1.57,0,0,0-.42,0,33.82,33.82,0,0,0-6.45,2.25c-1.75.82-4.2,1.86-5.35,3.5a3.28,3.28,0,0,0-.11,3.5c.36,3.82,4.83,6.3,7.62,8.39l.89.66a8,8,0,0,0,.9,1.55,1.52,1.52,0,0,0-.69.42c-2.44,2.79-2.58,7.56-2.5,11.07a18,18,0,0,0,1,5.81c-.09.3-.18.6-.28.9a1.58,1.58,0,0,0,.18,1.27c.48,2.4,4.72,3.92,6.55,4.51a1.7,1.7,0,0,0,2.12-1.62c.29-4.24-.49-8.59-.93-12.81l.82-3.08a1.58,1.58,0,0,0-1.15-2,1.72,1.72,0,0,0-.4-.2v0a1.6,1.6,0,0,0,0-.22,31.79,31.79,0,0,1,5.26,4.49,1.46,1.46,0,0,0,2.38-.15,1.53,1.53,0,0,0,.67-.26l.87-.6a2.08,2.08,0,0,0,.64-.73,1.69,1.69,0,0,0,.94-2.44c-1.14-1.7-2.22-3.57-3.44-5.3l.08-.08A13.32,13.32,0,0,1,340.7,123a15.11,15.11,0,0,0,2.45-1.81,52.9,52.9,0,0,0,5.2-4.81,1.63,1.63,0,0,0,.46-.93,1.39,1.39,0,0,0,.37-.8c1.54,0,3.07,0,4.61.09a1.73,1.73,0,0,0,1.34-.67c3.27-.36,5.69-2.25,8.07-4.4a1.55,1.55,0,0,0,.49-.81l.07-.06.27-.28a1.57,1.57,0,0,0,.41-1.56"/><path class="cls-7" d="M292.35,93.44l-.58-1.21c-.89-1.85-3.34-.43-3.07,1.29A7.57,7.57,0,0,0,290.13,97c.75,1,2.78,1.16,3.07-.4a9,9,0,0,0-.34-5c-.52-1.44-2.85-1.74-3.23,0a8,8,0,0,0,.29,4.86,1.69,1.69,0,0,0,3.23,0,7.94,7.94,0,0,0-.83-6.78c-.59-1-2.37-1.21-2.9,0a9.3,9.3,0,0,0-.31,7.35,1.69,1.69,0,0,0,3.23,0,7.86,7.86,0,0,0-1.21-7.42A1.7,1.7,0,0,0,288,90a10.18,10.18,0,0,0,.18,6.32c.43,1.25,2.39,1.79,3.07.4a6.25,6.25,0,0,0-.42-6.71,1.7,1.7,0,0,0-2.9,0,10.36,10.36,0,0,0-1.37,5,1.68,1.68,0,0,0,3.29.45,7.41,7.41,0,0,0-1-6.25,1.7,1.7,0,0,0-2.9,0,7.94,7.94,0,0,0-1.12,7.18c.65,2.11,3.56,1.2,3.23-.89l-.4-2.58-3.23.89c.31,1.36.91,3.29-1.61,3.56a7.26,7.26,0,0,1-2.78-.79A1.69,1.69,0,0,0,278,97.71c-.67,3.22-1,10.94,4.25,8.08,2.86-1.56,5.62-3.36,8.42-5,1.29-.77,2.63-1.5,3.86-2.35.81-.56,2-2.15,3-2.15A1.69,1.69,0,0,0,299,93.73a5.67,5.67,0,0,0-2.48-2.07c-1.26-.62-1.35-.42-1.75-2.33a16.27,16.27,0,0,0-.42-2.07,1.68,1.68,0,0,0-3.23.89l.31,2.3c.25,1.85,3.52,1.44,3.3-.45a13.26,13.26,0,0,0-.79-3.38,1.69,1.69,0,0,0-3.23,0,6.35,6.35,0,0,0-.44,2.4l3.3-.45-.27-1.75c-.22-1.41-2.46-1.64-3.07-.4a10,10,0,0,0-.94,2.72l3.3.44-.18-2.11a1.69,1.69,0,0,0-3.13-.85,4.36,4.36,0,0,0-.92,3,1.69,1.69,0,0,0,3.13.85,5.87,5.87,0,0,0,1.19-4,1.69,1.69,0,0,0-3.13-.85,4.41,4.41,0,0,0-.84,2.83c0,1.33,1.91,2.38,2.86,1.19a3.07,3.07,0,0,0,.69-3.43,1.7,1.7,0,0,0-2.46-1,6,6,0,0,0-2.37,3.08l3.23.89a4.63,4.63,0,0,0,.26-1.83C290.84,86,289,85,288,86.2a6.06,6.06,0,0,0-1.35,2.5,1.7,1.7,0,0,0,2.46,1.9,3.24,3.24,0,0,0,1.7-2.11c.57-1.53-1.76-2.92-2.8-1.63l-1.09,1.34,1.63-.43-1-.16,1.17,2.06c.18-.85,3.62-1.76,4.29-2L290.92,86a60.83,60.83,0,0,0,.68,6.83c.26,1.69,2.85,1.51,3.23,0l.41-1.61-2.8.74,2.56,3.1,1.63-2.81L295.27,92a1.74,1.74,0,0,0-2.06,1.17l-.36.86,3.07-.4-.32-1c-.44-1.93-3.18-1.44-3.3.38,0,.73-.09,1.57-.14,2.13h3.35a15.33,15.33,0,0,0-.89-3.67,1.69,1.69,0,0,0-3.3.48L291,95.2l3.3-.44-.7-3.83c-.37-2-3.11-1.28-3.3.45a18.72,18.72,0,0,0,0,4l3.3-.45-.9-4.76c-.31-1.62-2.89-1.58-3.23,0a16.73,16.73,0,0,0-.38,4.82c.12,1.76,2.95,2.43,3.3.45a11,11,0,0,0-.42-5.82,1.69,1.69,0,0,0-3.23,0,11,11,0,0,0-.77,3.77l3.3-.45-.87-3a1.69,1.69,0,0,0-3.23,0,18.29,18.29,0,0,0-.76,4.54h3.35a31.06,31.06,0,0,1-.09-3.16c.05-2.22-3.08-2.09-3.36,0l-.39,3,3.3-.45L289,92.36c-.29-2-3.13-1.29-3.3.44a7.63,7.63,0,0,0,.49,3.6,1.69,1.69,0,0,0,3.23,0,29.48,29.48,0,0,1,2.74-6.83h-2.9c1.54,2.24,1.84,4.44.58,6.73a1.69,1.69,0,0,0,2.64,2.06l1.59-1.62-2.37-2.37a12.24,12.24,0,0,1-1,1.07q-1,.71.78,1.29a1.69,1.69,0,0,0-3.07-1.29L287.36,97l3.07,1.29.36-1.82c.35-1.75-2.16-3.1-3.07-1.29a15,15,0,0,1-1.37,2.24l3.13.85a5.21,5.21,0,0,1-.08-1.7c.07-1.94-2.74-2.1-3.3-.34a14.79,14.79,0,0,0-.67,2.22h3.24c-.09-.56-.19-1-.28-1.44-.36-1.72-2.75-1.52-3.23-.05-.15.44-3.27-.18-3.86-.17l.45,3.28,2-.53c2.11-.56,1.21-3.64-.89-3.24a3.83,3.83,0,0,0-3.2,3.89L282.5,99l-.62-.77c-1-1.19-2.85-.15-2.86,1.19l0,2.17c0,1.85,2.89,2.33,3.3.45l.17-.79c.45-2.1-2.75-3-3.23-.89l-.54,2.38a1.7,1.7,0,0,0,2.46,1.89,9.94,9.94,0,0,0,3.89-3.45,1.69,1.69,0,0,0-1.45-2.53,10.06,10.06,0,0,0-2,.27l.89,3.24,4.53-1.7a1.68,1.68,0,0,0-.89-3.24,9.61,9.61,0,0,0-4.28,2.31c-1.21,1.08.06,3.4,1.63,2.81a32.33,32.33,0,0,0,3.89-1.76l-1.69-2.9-2.46,1.64a1.68,1.68,0,0,0,1.69,2.9l5.42-2.59c2-.94.25-3.76-1.69-2.9a40.1,40.1,0,0,0-7.48,4.32c-1.71,1.25-.18,4.06,1.69,2.9a35.44,35.44,0,0,0,5-3.77c1.4-1.25-.45-3.73-2-2.64a20,20,0,0,1-1.9,1.67c-2-.75-2.9,2.49-.89,3.24,2.26.84,2.9-.91,4.48-2l-2-2.64a30.58,30.58,0,0,1-4.36,3.25l1.69,2.9a40.1,40.1,0,0,1,7.48-4.32l-1.69-2.9-5.42,2.59,1.69,2.9,2.46-1.64a1.68,1.68,0,0,0-1.69-2.9,25.17,25.17,0,0,1-3.09,1.42l1.63,2.81a6.08,6.08,0,0,1,2.8-1.45l-.89-3.24L281.56,99a1.68,1.68,0,0,0,.89,3.24l1.14-.15-1.45-2.53a6.59,6.59,0,0,1-2.68,2.24l2.46,1.89.54-2.38-3.23-.89-.17.79,3.3.45,0-2.17-2.86,1.19.62.77c1,1.22,2.81.13,2.86-1.19l.73-.65-.89-3.24-2,.52a1.71,1.71,0,0,0,.45,3.34c2.8-.07,5.91,1.08,7.09-2.28h-3.23c.09.56.19.84.28,1.29.36,1.7,2.76,1.46,3.24,0l.67-2.13-3.3-.45a5.19,5.19,0,0,0,.08,1.7,1.69,1.69,0,0,0,3.13.85,15,15,0,0,0,1.37-2.24l-3.07-1.29-.36,1.82a1.69,1.69,0,0,0,3.07,1.29l1.08-1.62-3.07-1.29c-.29,1.36-.18,3,1.29,3.55,1.88.74,3.44-1.42,4.49-2.64,1.39-1.62-.85-3.94-2.37-2.37L290.1,96l2.64,2a9.11,9.11,0,0,0-.58-10.08,1.7,1.7,0,0,0-2.9.08,30.25,30.25,0,0,0-3.08,7.67h3.23a6.19,6.19,0,0,1-.37-2.8c-1.1.15-2.2.25-3.3.4l.23,1.51c.3,2.05,3.07,1.14,3.3-.53.13-1,.26-1.94.39-3.06h-3.36a30.78,30.78,0,0,0,.09,3.2,1.68,1.68,0,0,0,3.35-.08,21.72,21.72,0,0,1,.64-3.68h-3.23c.29,1.12.58,2.08.87,3.07a1.68,1.68,0,0,0,3.3-.32,7.65,7.65,0,0,1,.65-2.75h-3.23a7,7,0,0,1,.42,4c1.1.15,2.2.33,3.3.48a12.91,12.91,0,0,1,.26-3.89h-3.23c.3,1.68.6,3.11.9,4.7.35,1.83,3.49,1.41,3.3-.48a18.88,18.88,0,0,1,0-4l-3.3.44.7,3.83c.36,2,3.13,1.3,3.3-.45l.3-3.25-3.3.45a10.35,10.35,0,0,1,.77,2.85,1.68,1.68,0,0,0,3.35,0l.14-2.2-3.3.45a6.88,6.88,0,0,0,.66,1.78c.71,1.45,2.57.79,3.07-.4l.36-.86-2.06,1.17,1.38.34a1.69,1.69,0,0,0,1.63-2.81l-2.56-3.1a1.67,1.67,0,0,0-2.8.64c-.14.54-.28.94-.41,1.5h3.23a45.13,45.13,0,0,1-.56-5.83,1.66,1.66,0,0,0-2.12-1.57c-2.2.8-6.08,1.75-6.63,4.37a1.71,1.71,0,0,0,1.17,2.08l1,.17a1.69,1.69,0,0,0,1.63-.43l1.08-1.34-2.8-1.63-.16.11,2.46,1.89.49-1-2.86-1.19-.14.94c-.65,2.09,2.49,2.88,3.23.89l.83-1.07-2.46-1,.17.17L292,88.5l.38-1.14-3.13-.85a2.55,2.55,0,0,1-.73,2.28l3.13.85.46-1.3L289,87.49l.18,2.11c.15,1.74,2.93,2.44,3.3.45a5,5,0,0,1,.6-1.92l-3.07-.4.27,1.75c.3,1.91,3.27,1.28,3.29-.56a3.29,3.29,0,0,1,.32-1.62h-3.23a11,11,0,0,1,.67,2.61c1.1-.15,2.2-.24,3.3-.39-.11-.77-.21-1.51-.31-2.28l-3.23.91c.56,1.63.2,3.36,1.3,4.8.93,1.21,2.9,1.27,3.69,2.48l1.45-2.52a4.43,4.43,0,0,0-3.07,1.25,35.49,35.49,0,0,1-4.53,3.15l-5.15,3.08c-1,.62-3.68,2.88-4.86,2.74l1.45.83c-.79-1.49-.44-3.79-.12-5.35l-2.06,1.17c2.35.87,5.11,1.51,7.25-.23s1.8-4.35,1.27-6.68c-.49-2.15-3.56-1.19-3.23.89l.4,2.58c1.08-.3,2.16-.69,3.23-1a5.13,5.13,0,0,1,.79-4.69H286a4.46,4.46,0,0,1,.68,3.76c1.1.15,2.2.38,3.29.53a5.83,5.83,0,0,1,.91-3.17H288a3,3,0,0,1,.42,3.28l3.07.38a7.12,7.12,0,0,1-.18-4.54c-1,.13-2,.33-3.07.46a5,5,0,0,1,.88,4.89h3.23a6.59,6.59,0,0,1,0-5h-2.9a5.36,5.36,0,0,1,.5,4.47h3.23a5.85,5.85,0,0,1-.28-3.36h-3.23a5.92,5.92,0,0,1,.34,3.26c1-.13,2-.23,3.07-.37a5.58,5.58,0,0,1-1.08-2.62l-3.07,1.3.58,1.22c.93,1.95,3.82.25,2.9-1.69"/><path class="cls-1" d="M191,114.73h0m22.19,22a1.53,1.53,0,0,0-1.27-.45,8.14,8.14,0,0,0-1.06-1.35,26,26,0,0,1-3.39-4.2,11.22,11.22,0,0,0-.89-1.66,1.79,1.79,0,0,0-.69-.64q-.6-1.06-1.16-2.13a13.68,13.68,0,0,0-2.45-5.67,1.77,1.77,0,0,0-.78-.61c-.18-.26-.37-.52-.58-.77a1.67,1.67,0,0,0-.46-1.25h0l-.06-.05c-2.32-2.57-4.35-5.81-8-6.45a45,45,0,0,0-5.84-.46c-1.43-.06-3.14-.88-4.51-.48a1.69,1.69,0,0,0,0,3.24,8.71,8.71,0,0,1,1.09.4,1.51,1.51,0,0,0,.32,1.12,1.63,1.63,0,0,0,.28.71,6.8,6.8,0,0,0,.47.61q1,1.27,2.07,2.43a22.1,22.1,0,0,0,4.34,5,22.38,22.38,0,0,0,2.34,2.51q.32.39.66.75a1.88,1.88,0,0,0,.68,1.91q2.21,1.62,4.26,3.45a30.63,30.63,0,0,0,3,3.85,1.51,1.51,0,0,0,.15,1.35,11.26,11.26,0,0,0,5,4.08c.25.1.51.2.77.28a1.77,1.77,0,0,0-.37.2,14.35,14.35,0,0,0-3.51-1.06,1.71,1.71,0,0,0-1.68,1.68,2.59,2.59,0,0,1-1.16,1.46,1.35,1.35,0,0,0-.53,1,20.58,20.58,0,0,0-2.57,1.48,1.68,1.68,0,0,0-.64.78h-.18a1.27,1.27,0,0,0-.77.37.92.92,0,0,0-.16.24c-.76-.24-1.48.88-.81,1.4a1.67,1.67,0,0,0,1,.38,6,6,0,0,0,2.48,0,1.45,1.45,0,0,0,.48-.12,6.46,6.46,0,0,0,1.19-.49.75.75,0,0,0,.38-.45,17.49,17.49,0,0,1,4-1.68,16,16,0,0,0,3.47-.62,1.53,1.53,0,0,0,.82-.57,3.78,3.78,0,0,0,2.86-.75,1.77,1.77,0,0,0,.78-1.3h.1a7.67,7.67,0,0,0,1.59.12,2.35,2.35,0,0,0,1.76-1c1.06-1.62-.67-3.83-1.89-5.38a5.81,5.81,0,0,0-1-1.33"/><path class="cls-1" d="M201.76,138.53a1.16,1.16,0,0,0-.49-.65,4.15,4.15,0,0,0-2.5-.24c-.88.17-1,.79-1,1.57-.08,1.4-.13,2.83-.1,4.24s.9,3.63,2.46,2a7.46,7.46,0,0,0,1.5-2.43,1.92,1.92,0,0,0,.28-.58,10.54,10.54,0,0,0,.41-3.08v-.06a.76.76,0,0,0-.56-.77M201,156.69h0l.14,0-.14,0m2,.3a1.44,1.44,0,0,0,.89-.76c.56-.1,1.11-.23,1.71-.34.05.52.49,1,1,.75.58.35,1.53-.09,1.26-.9l-.1-.29.37-.37a2.48,2.48,0,0,0,.38-.38c.65-.83-.37-1.94-1.19-1.19l-.23.23a3.69,3.69,0,0,1-1.8.48c-.63.11-1.23.31-1.84.41a1.89,1.89,0,0,0-1.83.11.7.7,0,0,0-.34.41,5.14,5.14,0,0,1-.57-.23.67.67,0,0,0-.75,0,.79.79,0,0,0-.73.8,4.36,4.36,0,0,0,.1,1.05c.17.86,1.41.74,1.62,0a1.13,1.13,0,0,0,.55.26,1.87,1.87,0,0,0,.54-.1h0a1.24,1.24,0,0,0,.9.11m-2.69,18.73-.27-.77a.81.81,0,0,0-1.12-.52,2.15,2.15,0,0,1-.46-.53.89.89,0,0,0-1.63-.61,1.42,1.42,0,0,0-.07.16.83.83,0,0,0-1.15.54q0,.23-.06.46c-2-.29-4.67,1-6.06,1.78a.85.85,0,0,0,.2,1.53,8.38,8.38,0,0,0,3.1,0,.92.92,0,0,0,.43.12,18.54,18.54,0,0,0,5.78-.43.8.8,0,0,0,.44-.14l.47-.15a.93.93,0,0,0,.4-1.41s0,0,0,0m12-2.7a.85.85,0,0,0-.56-.76l-.11,0a.81.81,0,0,0-.82.22,1.28,1.28,0,0,0-.28.56,18,18,0,0,1-4.46,1.44c-1.11.29-2.34.28-3.07,1.23a.84.84,0,0,0,.5,1.23,8.36,8.36,0,0,0,4.48-.84,36.43,36.43,0,0,0,4.27-1.65.81.81,0,0,0,0-1.39M210.2,45.27l0,0,0,0-.05,0M214.13,38a15,15,0,0,1-1.62-.35l-.14-.07A8.45,8.45,0,0,0,211,33.9c-.95-1.28-3.35-2.65-4.79-1.4a2.77,2.77,0,0,0-.73,1.64c-.19.85-.19,1.73-.41,2.58-.27,1-1,1.86-1.25,2.81a2.42,2.42,0,0,0-.09,1.52,13.63,13.63,0,0,0,1.43,2.18,11.43,11.43,0,0,1,.8,1.75.7.7,0,0,0-.14.53,2.19,2.19,0,0,0,1.32,2,4.55,4.55,0,0,0,1.27.25c1.92.28,3.1.59,4.11,2.4A.85.85,0,0,0,214,50l.44-.72a.79.79,0,0,0,.21-.14c1.54-1.48,2.11-3.6,3.62-5.09,1.11-1.09,1.93-1.64.83-3.19s-3.2-2.41-5-2.89M187.92,94.15h0a.74.74,0,0,0,.2-.08l-.05.06-.15,0M182,94.2a.8.8,0,0,0,.32.31,4.13,4.13,0,0,0-.1.91.85.85,0,0,0,1.06.81c1.66-.56,2.89,0,4.49-.08a.7.7,0,0,0,.87,0l.86-.6a.89.89,0,0,0,.38-.84,15.87,15.87,0,0,1,3.35-1.91c1.29-.65,3.69-2.27,5.2-1.77l.39.15c.89.31,1.51-1.12.65-1.53l-.2-.08h0l-.3-.11a14,14,0,0,1-2.52-1.16,14.38,14.38,0,0,0-1.86-1.3c-.51-.19-.54-.3-1.09-.22-1,.13-2,1.14-2.92,1.56a24.48,24.48,0,0,1-4.68,1.61,5.6,5.6,0,0,0-.34-.49c-.43-.56-1.2-.13-1.4.37l-.06.14a.92.92,0,0,0-1.05.82,3.52,3.52,0,0,1-.14.75.9.9,0,0,0-.51.4c-.54-.06-1.17.46-.94,1.06A7.33,7.33,0,0,0,182,94.2M358.92,55.69c-.39-1.17-1.69-2.28-2.37-3.12.29-2.42-1-5.48-1.8-7.35a2,2,0,0,0-.73-.89,35.25,35.25,0,0,1-1.33-3.52,1.69,1.69,0,0,0-3.3.45c-.08,1.53-.72,3.3-.83,5a1.47,1.47,0,0,0-.31.58c-.51,2-1.7,5.06,0,6.79A5.22,5.22,0,0,0,351,54.75c.52,1.25,1.23,2.45,1.77,3.68l0,0c-1.09,1.36.32,3.8,2,2.64l.34-.26a4.83,4.83,0,0,0,.88-.66,1.85,1.85,0,0,0,.42-.72,10.55,10.55,0,0,0,2.48-.5,1.74,1.74,0,0,0,0-3.28m-39.5,29.9c-2.72-.19-5.49-.25-8.12-.29h-.8s.08-.12.06-.12a1.62,1.62,0,1,0,0,3.24h0a4.92,4.92,0,0,0,1.88,1.16,1.46,1.46,0,0,0,1.39.71c1.92-.15,3.63-1.29,5.51-1.36a1.66,1.66,0,0,0,0-3.33m8.17,5.11a1.33,1.33,0,0,0-.82.23,4.38,4.38,0,0,1-.67.36,1.61,1.61,0,0,0-.83-.51,3.79,3.79,0,0,0-3.35.38,2,2,0,0,0-.7,1.3l-.06,0a2,2,0,0,0,.24,3.42,2,2,0,0,0,1.67,0,3.37,3.37,0,0,0,.69.43,3.14,3.14,0,0,0,2.24,0,3.28,3.28,0,0,0,1.77-2,4.11,4.11,0,0,0,.62.21,1.71,1.71,0,0,0,2.06-1.17,2.93,2.93,0,0,0-.07-2,1.7,1.7,0,0,0-2.8-.74M345,135.22a3,3,0,0,0-.34-1.47,2.76,2.76,0,0,0-3.45-.83c-3.76,1.71-.38,6.57,1.12,8.81l-.78,1.46a1.77,1.77,0,0,0-.2.65,17.81,17.81,0,0,0-1.65,2.27,1.59,1.59,0,0,0-.17,1.18c-.66.28-1.31.58-2,.92a.84.84,0,0,0,.42,1.56,9.58,9.58,0,0,0,7.21-4,.68.68,0,0,0-.1-1c.07-.18.14-.35.23-.53,1.31-1,2.91-2.32,3-3.71.09-1.86-2.16-4-3.27-5.28l-.06-.06m-21.86,34c.08,0,0,0,0,0m0-1.68a3.26,3.26,0,0,0-.53,0l-.1,0c-.13,0-.3-.05-.09,0a.87.87,0,0,0-1.15.3.85.85,0,0,0,.3,1.15,2.11,2.11,0,0,0,1.16.29c.19,0,.17.1.32.1h0c.75.56,1.87-.6,1.14-1.36a1.69,1.69,0,0,0-1.08-.58m29.11-83c.37-.61-.14-.08-.46.3a1.56,1.56,0,0,0-1,1.5v.19a2.19,2.19,0,0,0-.9,1,6.29,6.29,0,0,0-.94,3,38.83,38.83,0,0,1-1,4.31c-.31,1.39.07,2.81-.27,4.17a1.7,1.7,0,0,0,2.06,2.07l1,.6a1.69,1.69,0,0,0,3.3-.44V96.52a18.79,18.79,0,0,0,.34-9.07,6.2,6.2,0,0,0,.7-1.18l0,0h0c.06-.13.12-.26.17-.41.67-1.82-2.11-2.88-3.07-1.29"/><path class="cls-8" d="M223.74,26a24.73,24.73,0,0,0-5.8-3.52,2.83,2.83,0,0,0-.41-.2,14.76,14.76,0,0,0-11.83.5c-3.26,1.62-5.16,5.75-.7,7.3l.18,0A2.65,2.65,0,0,0,208,31.62a4.2,4.2,0,0,1,1.75.09,9.74,9.74,0,0,1,.56.83c.17.27.34.53.52.79a3,3,0,0,0,1.2,3.3c1.11.77,2.66.81,4.07,1a7.89,7.89,0,0,1,.71.35c1.11.63,1.71,1.64,2.68,2.41.21.17.43.32.65.46l.2.15,1,.94a2.29,2.29,0,0,0,2.79.47l.82.2a2.54,2.54,0,0,0,3.19-2.42c-.34-5.48.44-10.42-4.38-14.21"/><path class="cls-9" d="M204.61,45.46h1.68a.84.84,0,1,0,0-1.67h-1.68a.84.84,0,1,0,0,1.67m145.24,94.49a.83.83,0,0,0-1.16.52c0,.16-.07.31-.11.46a.76.76,0,0,0-.84.4h0a59.88,59.88,0,0,1-3.42,5.09.81.81,0,0,0-.46.24c-2.24,2.2-6.69,1.52-9.59,1.63-.76,0-1.24,1.2-.42,1.56,2.54,1.11,6.31,2.14,8.95.7,1.88-1,3.56-3.57,4.9-5.84a.71.71,0,0,0,.75-.24c.15-.16.28-.32.41-.49l.08.11,0,.06h0a1,1,0,0,0,.22.19l.08.12c0,.12,0,.24,0,.36a.89.89,0,0,0,0,.17c-.08.32-.18.64-.29,1-.24.7-.59,2,.66,2a.84.84,0,0,0,.84-.83V147s0-.06,0-.1,0-.16.08-.28q.16-.44.29-.9a15.46,15.46,0,0,0,.41-1.84,17.15,17.15,0,0,0,.19-3.52c0-.86-1.28-1.21-1.6-.43m-22.61,29a5.63,5.63,0,0,0-2.33-.65,6.46,6.46,0,0,0-1.07.19.67.67,0,0,0-.56-.91,24.36,24.36,0,0,1-4-.93,9.9,9.9,0,0,0-2.42-1.17.84.84,0,0,0-1,1,2.14,2.14,0,0,0,.15.34.77.77,0,0,0,.26.36,22.27,22.27,0,0,0,3.89,2.55v0a1.88,1.88,0,0,0,1.51.85c1.79.17,2.79-1.18,4.74-.26,1,.46,1.82-1,.84-1.45m3.49.95-.33.1a.84.84,0,0,0-.34.19l-.14,0a4.19,4.19,0,0,0-2.53,2.08,2.93,2.93,0,0,0-.35.57c-.43,1,.9,1.8,1.45.84.54-1.2,2.08-1.61,3.05-2.4.67-.54-.05-1.62-.82-1.4m15.56-120a4.51,4.51,0,0,0,2.9.47.84.84,0,0,0,.59-1,.86.86,0,0,0-1-.58,2.59,2.59,0,0,1-1.6-.3c-1-.51-1.8.93-.85,1.44M224,80.06l-.11.08L224,80l0,0m-7.29-24.79,0-.1.06,0,0,.15M236.49,58q-.2-.87-.45-1.73a19.32,19.32,0,0,0-3.14-6.33,17.86,17.86,0,0,0-2.8-2.64c-.6-.49-2.52-1.35-3.08-2.06,0-.26.07-.48-.08-.65A1.72,1.72,0,0,0,225,42.37h0a1.53,1.53,0,0,0-1.65-.5l-1.9.21a1.78,1.78,0,0,0-1.89.78l-2.47,3.54c-.25.36-1.09,1.87-1.79,2.86a1.78,1.78,0,0,0-.9.41h0l-1.14,1a1.32,1.32,0,0,0-.41.63l-1.17,1.2A1.76,1.76,0,0,0,212,55c-1.45,2.5-1.57,5.37-2.41,8.38a17.78,17.78,0,0,1-2.94,6.15c-1.29,1.67-3.13,2.73-4.45,4.36s-2,3.29-3.76,4.61a10.09,10.09,0,0,0-3.25,3.18H195a1.72,1.72,0,0,0-1.45.83,1.67,1.67,0,0,0,0,1.69l.08.13a1.76,1.76,0,0,0,1.81.79,1.71,1.71,0,0,0,.59.3l5.09,2.71a19.68,19.68,0,0,0,3.83,2c2.51.66,4.86-1.85,6.65-3.24.41-.32.81-.65,1.21-1a1.36,1.36,0,0,0,.43.18l4,.88a2.13,2.13,0,0,0,.41,0,7.71,7.71,0,0,0,2.05,1.49c2.87,1.52,5.94,2.76,8.56,4.71a14.51,14.51,0,0,1,5.26,8.35,1.69,1.69,0,0,0,3.3-.44c0-1.85.05-3.69.1-5.54a1.73,1.73,0,0,0,.88-1.37,10.7,10.7,0,0,0,0-2.18c0-6.55-.05-13,.38-19.48a1.49,1.49,0,0,0-.06-.5c.15-1.28.23-2.58.33-3.89.23-3.1.77-6.68-1-9.43a1.63,1.63,0,0,0-1-.72"/><path class="cls-10" d="M131.5,184.73a29.28,29.28,0,0,1-5.29,0c-2.19-.27-3.76-1.53-5.47-2.83s-3.67-2.66-5.29-4.17a7.67,7.67,0,0,1-2.18-3.5c.19-.8.15-1.53-.47-1.87l-.11-.53a2.6,2.6,0,0,0-.26-.73,3.85,3.85,0,0,0-.08-.65c0-.47,0-.94,0-1.4a21.9,21.9,0,0,0,0-2.57,4.71,4.71,0,0,0-.26-1.13c1-2.65,1.92-5.62,3.67-7.76a2.54,2.54,0,0,0,.58-2c5.48-5.73,14.09-10.62,21.44-5.71a2.24,2.24,0,0,0,1.61.41,7.2,7.2,0,0,0,1,.84,35.23,35.23,0,0,1,6.07,6.41v.07a72,72,0,0,1,1.87,8.84,20.61,20.61,0,0,0,0,4.63c-1.2,3.55-4,6.93-5.81,9.81a2,2,0,0,0-.24.57l-.14.11c-3.06,2.14-6.89,2.91-10.56,3.15m21.9-20.42a2.73,2.73,0,0,0-.54-1q-.17-1-.37-1.91a1.94,1.94,0,0,0,.35-2.24,28.85,28.85,0,0,0-7-9.68,3,3,0,0,0-.62-1.48c-.51-.66-1.05-1.29-1.6-1.93a2.14,2.14,0,0,0-3.12-.28l-.25-.19c-9.79-6.56-21.84-.2-28.69,7.75a2.47,2.47,0,0,0-.56,2.3,38.06,38.06,0,0,0-3.46,7.41,2.17,2.17,0,0,0-.87,1.93v.12a2.86,2.86,0,0,0,.62,2.39c0,.23,0,.45,0,.68,0,.63,0,1.25,0,1.88a8.54,8.54,0,0,0,.55,3.23,14.81,14.81,0,0,0,2.51,6.48c1.72,2.19,4.29,3.81,6.47,5.5,2,1.55,4,3.32,6.5,4.07a22.21,22.21,0,0,0,7.29.51c4.57-.2,9.3-1,13.26-3.42a18.74,18.74,0,0,0,4.3-3.63,15,15,0,0,0,2.64-3.49q1.15-1.78,2.18-3.63a2.14,2.14,0,0,0,1-2.06q-.09-2-.28-3.91a12.4,12.4,0,0,0-.33-5.34M303.58,99.07l.09-.2a3.42,3.42,0,0,0-1.46-4.58c-.78-3.08-5.73-2.94-6.44.15-.08.33-.14.66-.19,1-5.13,1.45-8.68,5.79-13.74,7.31a3.13,3.13,0,0,0-2.27,2.38,3.81,3.81,0,0,0-1.49,4.69c1,2.46,3.66,2.75,6,3.28.52.12,1.32.27,2.2.45l0,.07c2.9,3.64,9.89,7.44,13.18,2.64,3.26-2.15,6.34-5,6.54-9.12a12.12,12.12,0,0,0-1.48-5.67q-.53-1.18-1-2.39m65.62,53.21a8.62,8.62,0,0,0-2.44.15c-2.05-.21-4.19-1.16-6.3-.93-2.72.3-5.28,1.17-8,1.3-4.45.22-8.73,0-12.93,1.2-5-1-12.61.59-14.61,5.3-.11.2-.21.4-.3.61l-.33.22c-2.45,1.82-1.57,3.82.18,5.28a3.16,3.16,0,0,0,.3.4,5.22,5.22,0,0,0,3.27,2.74c4.11,1.24,8.94.84,13.11.27,3.39-.46,9.5-1,13.59-3.26a2.77,2.77,0,0,0,2.78-1.12,7.26,7.26,0,0,0,1.45-4.3c2.31-.35,5.1.07,7.07-.46a2.44,2.44,0,0,0,1.8-2.33,8.54,8.54,0,0,0,.9,0,1.41,1.41,0,0,0,.3,0,8.67,8.67,0,0,0,.86-.13c2.94-.6,2-4.72-.67-4.93M251.73,178.2a2,2,0,0,0-1.32,0,18.15,18.15,0,0,1-8,1.05,2,2,0,0,0-1.95.83L240,180a2.69,2.69,0,0,0-.9-.55,72,72,0,0,1-7.12-3.05,2.48,2.48,0,0,0-1.09-1.42,15,15,0,0,1-5-4.85,2.19,2.19,0,0,0,.07-1.85l-3.35-9.56a2.46,2.46,0,0,0,.24-.82l.59-5.33,3.76-7.17c.29-.55.58-1.1.86-1.65l.36-.16a2.54,2.54,0,0,0,1.68-2.11q1.5-1.13,3.06-2.17l.2-.05a49.33,49.33,0,0,1,11.84-2.1,2.5,2.5,0,0,0,1.21-.41l.27.05a2.42,2.42,0,0,0,.42.13c1.26.26,2.53.48,3.8.67a16.46,16.46,0,0,1,3.8,1.64,2.66,2.66,0,0,0,.72.67,19.83,19.83,0,0,1,3.44,2.81c.14.18.29.37.45.54a2.24,2.24,0,0,0,.19.39,25.65,25.65,0,0,0,3.77,4.81c.22,2.94,1.51,5.53,2.31,8.29v0a53.42,53.42,0,0,1-1,8.45q-.6,1.63-1.32,3.21a2.62,2.62,0,0,0-.93.87,39.22,39.22,0,0,1-4.77,5.8,16.8,16.8,0,0,0-5.89,3.11m19.86-19.46a11.54,11.54,0,0,0-.09-6.42,2.38,2.38,0,0,0-.1-.25c0-2.21-.19-4.82-1.63-6.12a2.1,2.1,0,0,0-.46-1.62c-1.32-1.78-2.44-4.15-4.59-5l-.08,0a3.17,3.17,0,0,0-.36-.47c-3-3.31-6.19-6.08-10.81-6.57a1.91,1.91,0,0,0-.51,0,23.18,23.18,0,0,0-5.71-1.51c0-.68-.43-1.18-1.49-1.18a2.49,2.49,0,0,0-1.65.57A40.41,40.41,0,0,0,228,134.85a2.29,2.29,0,0,0-1.14,1.26l0,.06a2.14,2.14,0,0,0-1.73.75,41.93,41.93,0,0,0-5.44,7.69,2.37,2.37,0,0,0-.17,1.9c-.82,2-1.66,4.09-2.46,6.15a5.89,5.89,0,0,0-.42,4.24c-.56,2.54-.7,5.18.22,7.22a2.87,2.87,0,0,0,0,.92,21.47,21.47,0,0,0,7.3,12.58,2.88,2.88,0,0,0,.19.23L227,180.4a2,2,0,0,0,1.14,1.45,54.34,54.34,0,0,0,11.21,3.82,2.45,2.45,0,0,0,1.83-.33c1.39.22,2.79.36,4.18.52a14,14,0,0,0,2.93.39,2.34,2.34,0,0,0,2.26-1.6,45.94,45.94,0,0,0,4.49-1.05,4.26,4.26,0,0,0,.68-.19,2.68,2.68,0,0,0,1.11-.76,13.93,13.93,0,0,0,4.39-2.8,11.62,11.62,0,0,0,5-4,2,2,0,0,0,.43-1.43,15.15,15.15,0,0,0,2.5-3.71,2.63,2.63,0,0,0,.24-.84,21.65,21.65,0,0,0,2.77-9.62,2.08,2.08,0,0,0-.53-1.53"/><path class="cls-11" d="M239.37,101.07a1.69,1.69,0,0,0-3.3-.44,20.77,20.77,0,0,1-.9,2.24,6.14,6.14,0,0,1-.13-.8,1.63,1.63,0,0,0-2.59-.88c-1.7,0-3,.95-4.77,1.68a46.59,46.59,0,0,1-9.17,2.91c-1.66.33-1.54,2.82,0,3.23,3.61.95,7.52.71,11.23.84,1.42,0,3,.14,3.9-.51h0a11.13,11.13,0,0,0,5.6-4,3.7,3.7,0,0,0,.79-2.08c0-.79-.66-1.43-.68-2.15m-138.42,42.5,0-.08a2,2,0,0,0,.38.17l.13.44a2.09,2.09,0,0,0-.54-.53m70.44-20.14c.88-2.3-1.93-3.59-3.7-2.83-1,.41-2.45.08-3.48.17a20.12,20.12,0,0,0-3.29.61,20.18,20.18,0,0,0-2.91.12h-.06a49.13,49.13,0,0,0-11.44.36c-.77.11-1.53.25-2.3.38l-10.15.64a2.41,2.41,0,0,0-1.37.54l-1.39,0c-7.66.14-15,2.75-22.74,2.29a2.16,2.16,0,0,0-1.86.73c-5.17.22-10.32,1-15.44,1.66a1.73,1.73,0,0,0-1.62,1.23,8.05,8.05,0,0,0,.39,4.41,1.71,1.71,0,0,0-.26.87c0,.18,0,.36,0,.54a1.53,1.53,0,0,0-.45,1.13l0,2.57a6.3,6.3,0,0,0-.05,1.06,55.68,55.68,0,0,0-.42,7.57c0,.06,0,.12-.06.18a11.17,11.17,0,0,0-.27,4.2c.2,2.11.3,4.3.65,6.42a7.77,7.77,0,0,1-.39,1.38,1.69,1.69,0,0,0,1.44,2.12l.36.27a1.56,1.56,0,0,0,1.86-.14,1.58,1.58,0,0,0,1.92-.16l5,.51a1.35,1.35,0,0,0,1.22-.46l5.64.06a1.59,1.59,0,0,0,.89-.27,1.44,1.44,0,0,0,2-1.12c1-5,4-9,7.28-12.82,3-.17,6.39-3,8.9-3.56a25.47,25.47,0,0,1,12.63.62c2.69.79,8,2.72,10,5.51a2.61,2.61,0,0,0,.12.85,3.18,3.18,0,0,0,2.32,2.33l.28.08c.1.48.15.94.29,1.45a10.91,10.91,0,0,0,1.51,2.83,12.56,12.56,0,0,1,.95,2.37,2.87,2.87,0,0,0,2.47,3.07c3.1.33,6-.46,9.09-.6.71,0,1.39,0,2,0,1.5,1.25,4.49-.16,4.11-2.69l-.16-1.06a2,2,0,0,0-.06-.23c-.58-4.11-.08-8.31-.34-12.47,0,0,0-.09,0-.14a2.51,2.51,0,0,0,.63-1.7l.26-10.84a2.69,2.69,0,0,0,0-.35s0-.09,0-.14a9.14,9.14,0,0,0,0-2.27,2.49,2.49,0,0,0-.11-.51c.1-.84.27-1.68.3-2.52,0-1.26-.65-3.06-.2-4.24"/><path class="cls-11" d="M134.54,164.74a2.82,2.82,0,0,0-1.9-1.91,4.83,4.83,0,0,0-3-.07,2,2,0,0,0-.87.68,5.05,5.05,0,0,0-.67.3,1.4,1.4,0,0,0-.79,1.16,2,2,0,0,0-.18,2.67,2.54,2.54,0,0,0,.14,1.15,2.31,2.31,0,0,0,3.08,1.08,2.57,2.57,0,0,0,.57.23,2.53,2.53,0,0,0,2.93-1.52,2.28,2.28,0,0,0,.59-1.24,3.19,3.19,0,0,0,.14-2.52"/><path class="cls-12" d="M227.27,134c-1.57,1.42.6,3.68,1.56,4.77,1.43,1.62,3.79-.75,2.38-2.37l-1.08-1.24-2.38,2.37c.83.89,2,1.82,2.34,3,.52,2.09,3.77,1.2,3.24-.89-.46-1.85-1.94-3.17-3.2-4.51-1.48-1.59-3.79.76-2.38,2.37l1.09,1.24,2.38-2.37c-.32-.36-1.1-1.12-1.19-1.61l-.43,1.63.06-.06c1.6-1.45-.78-3.82-2.38-2.37"/><path class="cls-13" d="M468.26,199.5q-58.65-.21-117.3-.74c-25-.23-49.93-.54-74.9-.79-19.82-.2-39.64-.33-59.46-.29-23.86.06-47.72.36-71.58.76q-55.33.94-110.66,2.36l-17.44.42a.63.63,0,0,0,0,1.26q58.63-1.43,117.27-2.59c25-.46,49.92-.82,74.88-.93q29.73-.13,59.46.19c23.87.22,47.73.52,71.6.75q55.34.54,110.69.77l17.45.07a.63.63,0,0,0,0-1.26m-68.14-49.28q34.07,0,68.14.16a.63.63,0,0,0,0-1.26q-34.07-.12-68.14-.16a.63.63,0,0,0,0,1.26M55.24,227a1.4,1.4,0,0,0-1.24.43c-.11.11-.22.39-.33.47l-.16.53q-2.12.47-2.62-1.2a.64.64,0,0,0-1-.13l-1.12,1.07a2.25,2.25,0,0,0-2-.77c-1.37.18-1.72,1.72-2.75,2.31-1.59-2.81-5.15-1.27-7.56-.13-.73.35-.09,1.43.64,1.09,1.59-.76,5-2.67,6,0a.65.65,0,0,0,.78.44c1.18-.26,3.22-3.52,4.29-1.68a.64.64,0,0,0,1,.13l1.06-1c.79,1.23,2,2.44,3.59,1.57.53-.3.59-1.15.94-1.37,1.62-1,4.68,2.23,5.66,3.17.58.57,1.48-.32.89-.89-1.38-1.34-4-4-6-4.05m94.49-5.65a58.07,58.07,0,0,0-7.68,4.91,78,78,0,0,0,.94-8.61.52.52,0,0,0,.22-.47l-.11-2.43h0s0-.07,0-.1h0a.62.62,0,0,0-1.21,0h0v.12a77.53,77.53,0,0,1-.91,10.54c-.22-.48-.45-1-.71-1.43a28.08,28.08,0,0,0-2.2-2.95l0,0,.07-.13a.64.64,0,0,0-.1-.76.88.88,0,0,0-1-.26.64.64,0,0,0-.46.61c0,1,.81,1.56,1.4,2.36a18.4,18.4,0,0,1,2.62,5.18.64.64,0,0,0,1.06.28,56.64,56.64,0,0,1,8.73-5.71c.72-.38.08-1.47-.64-1.09m79.86,8.5a43.27,43.27,0,0,0-5.57,6.68l-1.57-8.65c-.15-.8-1.36-.46-1.22.34l1.74,9.59a85.39,85.39,0,0,0-7.22-5.9c-.66-.48-1.29.61-.64,1.09a82.48,82.48,0,0,1,7.68,6.36.65.65,0,0,0,.5.17c.25.61,1.31.27,1.18-.47l-.13-.72a41.94,41.94,0,0,1,5.23-6.68v.11c-.39.71.7,1.35,1.09.63a2,2,0,0,0-.1-2.42.64.64,0,0,0-1-.13m-40.13,16.8c-.26-.21-.52-.45-.78-.66a.66.66,0,0,0-.89,0,19.3,19.3,0,0,0-5.22,7.1l-.2-.27c1.18-.87.85-2.6.88-4l.18-8.35a.63.63,0,0,0-1.26,0L182,246.2c0,.94.39,4.85-.44,5.57l-4.49-6c-.83-1.11-1.66-2.31-3.11-1.54-.72.38-.08,1.47.64,1.09.9-.48,6.86,8.39,7.55,9.32.33.44,1,.51,1.15,0a15.9,15.9,0,0,1,5-7.25l.26.22c.63.51,1.52-.44.89-1m155.28-33.37c.41.05.47.51.81.61,1.14.36,1-.5,1.82-.91,1.33-.68,2.11,1.25,3.43.29.65-.48,0-1.57-.64-1.09s-2-1.31-3.13-.66c0,0-.9.86-.75.82-.65.16-.19-.24-.85-.41s-.68-.26-1.23-.07c-.72.26-.81,1-1.73.65-.67-.24-.81-1.23-1.79-1.36-1.78-.24-2.92,1.51-3.74,2.78-.44.68.65,1.32,1.09.64.7-1.08.85-1.63,2.27-1.51,2.1.18.46.2,1.49.69.42.2.53.46,1,.46s.63-.22,1-.39.41-.62.94-.55m60.89,9.12a22.09,22.09,0,0,0-9.28,1.58,2.59,2.59,0,0,0-2.05-2c-1.67-.4-3,.62-4,1.95a3.49,3.49,0,0,0-5.29.38c-.49.65.6,1.2,1.09.56a2.28,2.28,0,0,1,3.7.32.64.64,0,0,0,1.09,0q1.21-2.71,4.26-.42a.64.64,0,0,0,.93.71c3.07-1.57,6.14-1.83,9.54-1.82a.63.63,0,0,0,0-1.26m-129.84-5.56a5.5,5.5,0,0,1-4-1.23c-.6-.47-1-1.25-1.85-1.39a1.68,1.68,0,0,0-1.18.21c-.55.27-.72,1.27-1.21,1.47s-1.13-.4-1.56-.41c-.92,0-1,.52-1.77.85-1.84.82-2.09-2.91-4.66-1.66-2,1-1.52,2.68-4.74,1.65-.81-.26-1-.69-1.9-.37-.77.26-.44,1.48.34,1.21s2.05,1.38,3,1.49a2.9,2.9,0,0,0,2.48-1.31c.91-1,1.64-2,2.92-.71.27.27.34.74.64,1a1.63,1.63,0,0,0,1.92.34c.29-.12.43-.43.72-.54q.49-.87,1.53-.35a2.75,2.75,0,0,0,.39.14,1.87,1.87,0,0,0,1.61-.45c.66-.57.27-.87,1.3-.84.85,0,1.27.78,2,1.21a6.84,6.84,0,0,0,4.11.94c.81,0,.81-1.3,0-1.26M173.9,145.47a70.79,70.79,0,0,1,18.43-1.59c.81,0,.81-1.23,0-1.26a72,72,0,0,0-18.77,1.64c-.79.17-.46,1.39.34,1.21"/><path class="cls-13" d="M115.42,99.63c.59-.24.23.13,0,0m2.52,9.78c0,.06,0,.08,0,0m63.56-13.9a1.45,1.45,0,0,0,.95,1,.69.69,0,0,0,.33,0,170.8,170.8,0,0,0-15.66,23.88.59.59,0,0,0-.07.43L165,121c2.58-4.58,5.25-9.18,8.14-13.56,2.7-4.08,6-7.76,8.3-12.05l.06.16m2.49-6.4.8,0c.52-.07,1.09.06,1.61,0a7,7,0,0,0,2.39-.56,37.19,37.19,0,0,0,5-2.88.68.68,0,0,0,.75.51,25.22,25.22,0,0,1-4.37,1.83c-1.7.7-3.39,1.54-5.15,2.08a7.8,7.8,0,0,1-1.89.29.61.61,0,0,0-.17-.31l1-1m14.31-9.59c2.13-2.69,4.51-4.89,6.84-7.38,4-4.31,4.64-10.23,6.1-15.7a9.17,9.17,0,0,1,.65,3.8,30.68,30.68,0,0,1-1.6,7.31c-1.68,4.91-5.11,8.43-9,11.65-1.19,1-5.45,3.43-6.45,5.45-.35-.35-1-.4-1.48-.71a15.1,15.1,0,0,0,5-4.43m11.52-32.84a.48.48,0,0,0-.38-.17.48.48,0,0,0-.39,0c-1,.13-2.2.27-2.84-.7a11.13,11.13,0,0,1-.54-2.47,8,8,0,0,0-.63-1.67s-1.43-2-1.22-1.44c-.53-1.52.84-2.34,1.2-3.69.52-1.92.09-3.54,1.16-5.28,2.54.33,4.09,1,5.1,3.71.15.4,0,.73.18,1.12.81,1.41,3.76,1.58,5,2.35s2,2.28,3,3.32c-1.23.93-1.93,2.5-2.77,3.78a32.39,32.39,0,0,1-3.59,4.35,6.76,6.76,0,0,0-3.3-3.24m-4.42-19.75A14.33,14.33,0,0,1,209,24c3.94-2,6.89.11,9.78,2.66,2.33,2,4.92,3.8,5.21,7.14.12,1.32-.18,2.66-.05,4,.1,1,1,2.51.59,3.53a.6.6,0,0,0,0,.27,4.67,4.67,0,0,1-4.8-1.5c-.58-.63-.89-1.46-1.54-2.05-1.42-1.3-3.65-1.21-5-2.5-1-1-.83-2.78-2.17-3.91a8,8,0,0,0-4.26-1.52.63.63,0,0,0-.35-.32c-1.64-.62-2.43-1.4-1-2.87m6.24,26.47c1.52-1.76,3.2-3.38,4.67-5.18,1.19-1.45,2.47-4.77,4.23-5.65l.05,0a6.64,6.64,0,0,0,4.3.21,7.64,7.64,0,0,0,.49,1.49c-.76,1-2.74,1.52-3.76,2.24a24.8,24.8,0,0,0-3.34,3.22c-1.93,2-4.56,3.28-6.09,5.64a10.35,10.35,0,0,1-.57-2m20.63-1.26c4.27,5.08,5.46,11.46,5.45,17.93s-.68,12.69-.47,19.06c.15,4.75-1,9.43-2.38,14a27.69,27.69,0,0,0-9.45-11.53,18.57,18.57,0,0,0-3.61-1.81c-1.77-.74-3.23-1.85-4.93-2.69a9,9,0,0,0-4.28-.92q4.33-3.63,8.6-7.33c4.27-3.71,8.4-7.83,10.52-13.17,1.67-4.22,2-9.16-1.26-12.68-2.45-2.62-6.87-4.74-10-2.07-.62.53.28,1.42.89.89,2.46-2.11,6-.09,7.92,1.78a8.49,8.49,0,0,1,2.39,7.11c-.45,4.75-3.2,9-6.36,12.47A107,107,0,0,1,215.51,82l-5.37,4.55a.55.55,0,0,0-.13.11l-.38.32C208.1,88.31,206,91.07,204,90.5s-4-2.29-5.68-3.41c-.84-.57-2.23-1.19-1.73-2.49.28-.74,2.14-1.77,2.77-2.26,3-2.4,6.09-4.75,8.51-7.76a23.59,23.59,0,0,0,4.43-9.46,26.31,26.31,0,0,0,.92-5.83,7.72,7.72,0,0,0-.57-2.73.58.58,0,0,0,.49-.3c1-1.62,2.45-2.51,3.9-3.65a33.4,33.4,0,0,0,3.32-3.2,15.31,15.31,0,0,1,4.47-3.07,4.28,4.28,0,0,0,1.22-.84c1.6,2.49,4.31,4.36,6.23,6.64m4.82,54.18c-2.05,1.67-3.54,3.56-6.37,3.1a30.65,30.65,0,0,0-5-.45c-1.15,0-7.46.61-7.84-1a29.09,29.09,0,0,0,4.5-1.05c3.74-1.26,7-3.72,11.05-3.86a14.18,14.18,0,0,1,.79,2.29.52.52,0,0,0,.09.26.57.57,0,0,0,.63.27.59.59,0,0,0,.52-.43c.39-1.28.81-2.6,1.21-3.94,1.46,1.49,2.48,3.13.39,4.83M219,120.94a.52.52,0,0,0,0,.65c8.1,11.69,16.77,23.34,23.19,36.06a2.34,2.34,0,0,0-1.14.68c-3.89-5.19-6.14-11.36-10.21-16.47-4.46-5.59-7.86-12-11.86-17.89a.58.58,0,0,0-.34-.34.69.69,0,0,0-.7.1l-.05,0h0a.55.55,0,0,0-.18.36,96.43,96.43,0,0,1-4.33,11.1l-.78-.61c3.34-8,4.75-16.81,9.38-24.28l0-.07h1.42c-1.73,3.45-2.58,7.26-4.43,10.65m26.1,8.27c3.91-.11,8.1.35,11.6,2.21a38.37,38.37,0,0,1,4.4,2.76c-.38.26-.76.53-1.13.81l-.44.35c-8.86-5.67-21.12-6.47-30.43-1.45l-.58-.84c5.06-2.93,10.79-3.67,16.58-3.84m46,4.86-.43,1.28c-7.77-4.59-18.25-4.48-26.16-.06q-.59-.52-1.21-1c8.36-4.83,19.49-5.1,27.8-.21m.3-8.31a.62.62,0,0,0-.31-.54,4.4,4.4,0,0,0-1.17-.36l-.72-3.05a5.33,5.33,0,0,1,2-.11c1,.3.58,1.9.61,2.68a6,6,0,0,0,.83,3.08.68.68,0,0,0,.06.82l-.25-.07c-1-.43-1.07-1.46-1.08-2.43m4.05-.26c.72-1.91,1.18-4.12,2.29-5.85a.54.54,0,0,0,.06-.53,93.8,93.8,0,0,0,6.69-8.53,10.83,10.83,0,0,0-.1,4.32c.74,3.7,2.87,7.33,4.37,10.77,1.39,3.2,2.64,6.39,4.83,9.15a67.91,67.91,0,0,0,7.11,8.22,25.18,25.18,0,0,0,5,3q3.37,1.82,6.83,3.48a1.52,1.52,0,0,0,.43,2.22.65.65,0,0,0-.19.26c-.09.22-.19.43-.28.65-14.85-6.29-25.59-20.76-29-36.37a.62.62,0,0,0-1.17-.09.58.58,0,0,0-.21.34,22,22,0,0,1-1.73,3.79q-.69,1.54-1.24,3.13a.69.69,0,0,0-.1.94c3.86,4.89,8.4,9.19,11,15,1.77,3.9,3.46,7.72,6.26,11a32.73,32.73,0,0,0,8.9,7.21,10,10,0,0,0-1.75,2.48c-6.29-2.24-11.28-9.25-14.27-14.88-1.61-3-2.91-6.21-4.77-9.11a83.21,83.21,0,0,0-6-7.9.51.51,0,0,0-.21-.25.54.54,0,0,0-.83.05.66.66,0,0,0-.19.26c-1.37,3.38-2.89,6.7-4.26,10.07-1.09,2.68-1.75,5.24-3.55,7.52a64.77,64.77,0,0,1-4.26,4.92c-2,2.05-3.44,4.46-5.4,6.51l-.07-.12a1.5,1.5,0,0,0-.32-.32c.34-.59.57-1.17.94-1.74.17-.06.17-.18.17-.37v-.07a51.53,51.53,0,0,1,3.51-4.36c1.49-1.63,3-3,3.95-5a107.43,107.43,0,0,0,5.57-14.6.62.62,0,0,0,0-.33c.68-1.6,1.36-3.21,2-4.84m-16.4-17.65s0,0,0-.07a13.9,13.9,0,0,1,1.91-2c.66,3.75,2.94,6.38,5.72,8.62-3.11-1.41-8-2.52-7.62-6.58m18,10.24L297,118a65.35,65.35,0,0,0-6.28-5.41c-3.27-2.48-4.69-5.54-6-9.38.72-.4,1.45-.79,2.19-1.16,1.3,6.3,5.47,11.39,10.93,14.71a.56.56,0,0,0,.25.07c-.35.42-.72.82-1.08,1.23m-13.4-14.19c.91,2.76,2,5.86,4.05,7.92,2.42,2.43,5.41,4.3,7.94,6.66a.63.63,0,0,0,.12.14l.35.3.14.09-.39.44a.63.63,0,0,0-.12-.12c-5-3.92-12.73-6.95-13.6-14.18a.68.68,0,0,0-.06-.2q.76-.56,1.58-1.06m7.36-3.86a15.41,15.41,0,0,0,2.39,8.19,34.75,34.75,0,0,0,6.13,6.92l-.72.89-.17-.48a.66.66,0,0,0-.91-.37,21.33,21.33,0,0,1-9.61-13.69c1-.49,2-1,2.89-1.46M294,98.34c-.32,5.39,4.53,10.24,7.73,14-.45.6-.89,1.2-1.35,1.79a35.44,35.44,0,0,1-5.08-5.56,15,15,0,0,1-3-9.12.73.73,0,0,0,0-.11l.61-.35,1.13-.69m2.54-3.86c-1.72-.77-4.2-2-4.36-4a.64.64,0,0,0,.64-.46,6.4,6.4,0,0,1,.9-2.86c.16.45.29.91.44,1.36a5.76,5.76,0,0,0,1,2.53c.94,1,2.35,1.3,3.23,2.39-.34.33-.68.65-1,1l-.52.42a.52.52,0,0,0-.31-.32m-9.75-6.07a18.27,18.27,0,0,1,1.56-1.61,8.14,8.14,0,0,1,2-1.57c1.51-.71,2.33-.19,2.87.75a4.29,4.29,0,0,0-1.41,2.61.62.62,0,0,0-.6.22c-1.46-.53-3.14-1-4.41-.39m-4.56,9.74a18.58,18.58,0,0,1-2.67,2.13.51.51,0,0,0-.52-.2c-.28-1.57-.06-3,1.79-3.34a5.37,5.37,0,0,1,2.33.44c-.3.33-.61.65-.94,1m-.6-6.21c.68-1,1.8-1.43,2.49-2.29a5.88,5.88,0,0,0,.75-1.46A9.78,9.78,0,0,1,286,85.84c.07-.08,2.59-2.21,2.45-1.35a.63.63,0,0,0,.08.42,16.71,16.71,0,0,0-3,3,6.09,6.09,0,0,0-1.52,4.49c.05.39.48,1.08.47,1.44a2.27,2.27,0,0,1-1.78,1.94c-.85.09-1.67-.41-2.59-.23l-.18,0a10.24,10.24,0,0,1,1.65-3.65m22.23-2.19.1.2a.51.51,0,0,0-.22.36c-.73,4.41-1.32,10.28.06,14.95a39.71,39.71,0,0,1-2.95-11.78.63.63,0,0,0-.26-.46,44.44,44.44,0,0,1,3.28-3.26m1.57-2.51a7.34,7.34,0,0,1,2.93-.83,2.26,2.26,0,0,0-.41,3.92,3.57,3.57,0,0,0,3.7.67h0a9,9,0,0,1,4.87.3l0,.07a.68.68,0,0,0-.15,0A10.18,10.18,0,0,0,311,93a4.34,4.34,0,0,0-2.29-.24,8.42,8.42,0,0,1-3.49-3.17c-.53-.89-.83-1.66.18-2.31M312.3,85a69.86,69.86,0,0,1,8-.09l.1,0a12.66,12.66,0,0,1,.69,2.21,32,32,0,0,1-7,1.25c-1.06,0-1.91.21-2.69-.65-.17-.19-.16-.61-.42-.82s-1.53-.57-1.42-1.32S312,85,312.3,85m27.15-9.82c2.49-1.77,5.15-3.48,7-5.94,2.23-2.91,4.29-6.1,6.29-9.19a4,4,0,0,1-.05,2.46.6.6,0,0,0-.11.22c-1.49,2.56-2.07,5.81-3.07,8.49a32.43,32.43,0,0,1-3.72,7.23,41.68,41.68,0,0,1-15.75,7.42c-2.22.54-6.88,2.28-8-.22-.21-.49-.31-.91-.44-1.26,6.58-1.64,12.31-5.29,17.81-9.2M351.83,54.3c1.27-.28,2.71-.78,3.54-.4s1.38-.75.64-1.09c-1.2-.55-1.92-.14-3.22.11-3.24.62-4.57.23-4.69-3.33a14.27,14.27,0,0,1,.09-1.74c.2-1.88,1.22-2.4,2.06-3.94.51-.93.41-4.47.8-4.75a.64.64,0,0,0,.21-.26,9.46,9.46,0,0,1,3.1,4.37,51.45,51.45,0,0,0,1.31,5.1c.6,1.45,1.53,2.73,2.21,4.14s.81,2.71,1.73,3.83c.3.37.61.7.93,1a11.88,11.88,0,0,0-6.39,3.32c-.11-.9-.34-1.82-.48-2.45a9.1,9.1,0,0,0-1.84-3.93M365.37,66c.81,3.75.66,7.64.57,11.47v0a69,69,0,0,0-.74,14.82c.19,2.18.93,4.2,1.24,6.32.51,3.49-3,4.36-5.28,6.18a30.77,30.77,0,0,0-2.55,2.46c-.75.77-.74,1-1.95.77-1.47-.29-1.2-1-1.34-2.43a56,56,0,0,1,0-8.09c.23-5.41,2-10.84,0-16.07l0,0,1.06-1.3a25.88,25.88,0,0,0,5.85-12.62c.43-2.56-.17-5.38-3.18-5.27-.81,0-.82,1.29,0,1.26,4.39-.16.59,9.37-.35,11.17-1.71,3.26-4.42,6-6.79,8.84a18.87,18.87,0,0,1-9,6.08c-3.54,1.22-7.15,2.69-10.87,3.27a7.89,7.89,0,0,0-1.16-3.58,23.54,23.54,0,0,0,16.14-10,44,44,0,0,0,4.88-10.89c.79-2.38,1.36-5,3.21-6.83a10.57,10.57,0,0,1,6.61-3.06,10.75,10.75,0,0,1,1.68,2.11,18.21,18.21,0,0,1,2,5.41m-6.6,46.06c-3.13,1.63-7,1.13-10.41,1.2-5.69.12-11.37.51-17,1.13a.64.64,0,0,0-.28,0h-.16a.64.64,0,0,0-.47.28,1.39,1.39,0,0,0-.33,1.84c.51,1,1.93,1.48,2.8,2.1a24.55,24.55,0,0,1,4.13,3.81,77.4,77.4,0,0,1,6.32,8.33,9.24,9.24,0,0,0-4.43,3.05l-.07.11a69.91,69.91,0,0,0-8-7.14c-2.73-2.27-5.51-4.49-8-7a20.4,20.4,0,0,1-3.9-4.77c-1.49-2.92.25-5.38,2.79-6.84,3.72-2.14,8.26-2.84,12.34-4,3.83-1.14,7.64-2.38,11.5-3.42a.74.74,0,0,1,.45-.16l.39-.1a.6.6,0,0,0,.41-.08,5.72,5.72,0,0,1,3.88.9c.72.44,3.28,2,3.15,3.08a.51.51,0,0,0,.11.41c0,1.7.12,4.75,1.42,5.51,1.55.9,3.55-1.55,4.4-2.42a21.61,21.61,0,0,1,3.92-3.34l.1-.06c1,3.36-2.33,6.18-5,7.59m4.12.2c-1,1.34-3.49,1.87-5.09,2.19a18,18,0,0,1-5.2.31c-.51,0-1-.12-1.39-.17,1.39,0,2.78-.08,4.15-.24a13.74,13.74,0,0,0,8.19-4.34,4.08,4.08,0,0,1-.67,2.24m-15,10.65-3.22,7.6h-.18l-1-1.5,0-.05c1-2.42,2.13-4.76,3.19-7.15.73-1.65,1.2-3.66,2.34-5.08a.65.65,0,0,0,.1-.67l0,0a.51.51,0,0,0,.45,0,4.77,4.77,0,0,1,1.67-.32c-1.5,2.15-2.35,4.79-3.36,7.18m2.48,7a.73.73,0,0,0,.13.22c2.11,3.46,4.47,6.82,6.62,10.19,2.64,4.14,5.25,8.32,8,12.43a.68.68,0,0,0,.28.42l1.2,1.8h-.11a1.88,1.88,0,0,0-.3.1c-6.54-9.19-12.91-18.49-18.56-28.26l.44-1c.72,1.4,1.5,2.78,2.33,4.14m5.41-6.14a14.82,14.82,0,0,0,.7,1.32,13.29,13.29,0,0,0-2,1.15,15.32,15.32,0,0,0,1.3-2.47m23.11-.18a43.53,43.53,0,0,1,4.36-.1,2.18,2.18,0,0,1,2,.4l-2,0a.62.62,0,0,0-.24,0,14,14,0,0,0-3.29.15c-3.79.11-7.58.13-11.36.18-3.31,0-6.93-.24-10.2.31l-.49.11a14,14,0,0,1-.84-1.56c4.8.27,9.61.46,14.42.51q3.82,0,7.63,0m4.49,9.13a28.72,28.72,0,0,0-2.54-2.12c1-1.61,1.81-3.29,2.68-4.94,2.08,2.45,1.32,4.81-.15,7.07m2.82,4.72a32.57,32.57,0,0,1,3.94,5.17l-.93.57a31.69,31.69,0,0,0-6.43-7.47q.4-.52.79-1c.93.93,1.81,1.87,2.64,2.76m3.94,10.43c2.86,7.49,1.82,17-3.11,23.41-5.07,6.58-13,11.13-21.37,11.45-4.94.19-9.56-.26-14-2.59a27.43,27.43,0,0,1-10.17-9.36l1.67-.23c4.05,6.3,10.77,10.78,18.38,11.12,8.41.38,15.77-2.09,21.84-8a23.62,23.62,0,0,0,6.71-20.07,22.57,22.57,0,0,0-2.58-7.9l1.26-.76a25.67,25.67,0,0,1,1.36,2.95m-24.67-14.52a.58.58,0,0,0,0,.2q.17,8.92.44,17.84l-.08.15c-2.58-3.91-5.07-7.9-7.59-11.85-1-1.49-1.94-3-2.93-4.47a28.56,28.56,0,0,1,10.19-1.87m12.31.28a26.79,26.79,0,0,1,3.3,2.2l-.91,1.19q-.52-.41-1.06-.8c-7.07-5.11-16.61-5.17-24.55-2.08l-.87-1.33c7.64-3,16.82-3.27,24.09.82m.37-1.21c-7.57-4.19-17.23-3.86-25.16-.68l-.38-.6c3.53-2.16,8.73-2.53,12.77-2.7s8.79-.16,12.45,1.75c.45.23.89.5,1.32.78-.32.49-.65,1-1,1.45m2.2,1.39q-.54-.39-1.11-.74c.33-.45.64-.91.94-1.37a29.25,29.25,0,0,1,2.47,2.1l-.85,1.12c-.48-.38-1-.75-1.45-1.1m.78,4,.93-1.19a29.29,29.29,0,0,1,6.1,7.19l-1.26.77a28.3,28.3,0,0,0-5.77-6.77M370,154.31a4.83,4.83,0,0,1,.45.27l-.94.57.49-.84m-3.51,2.45,0-.11a.45.45,0,0,1,.06-.33.63.63,0,0,0,.27-.09,1.23,1.23,0,0,1,.79-.19,1.14,1.14,0,0,1,.25.05s0,.09,0,.15c-.2.57-.33.91-1,.65l-.15-.07-.1-.07m10.36-20.47a22.19,22.19,0,0,1,2.28,1.47l.29.23q-1.31,1.74-2.59,3.52-3.91,5.49-7.38,11.27a14.29,14.29,0,0,0-2.28-.57l0-.55a124.72,124.72,0,0,1,9.7-15.37m-10.15-2.77a.57.57,0,0,0,0-.16,23.13,23.13,0,0,1,9.06,2.34,124.66,124.66,0,0,0-8.64,13.45q-.22-7.81-.38-15.63M368,154.83l-.87-1.3a.6.6,0,0,0,0-.08,12.45,12.45,0,0,1,1.65.37l-.63,1.05-.16,0h0m3.52-.93a6.11,6.11,0,0,0-.94-.61q4.53-7.5,9.79-14.52a24.37,24.37,0,0,1,5.41,6.45l-14.26,8.68m16.62,9.41-.12-.05a124.47,124.47,0,0,0-17.1-4.27,2,2,0,0,0-.29-.77,4.29,4.29,0,0,1,1.83,0,.64.64,0,0,0,.8-.61,4.66,4.66,0,0,0-.85-2.76l14-8.49A24,24,0,0,1,388.47,162c-.09.45-.2.88-.32,1.32m-14.63,15.44a.62.62,0,0,0-.11-.18l-.24-.24a.62.62,0,0,0-.56-.16c.84-1.71-1.4-7.09-1.72-8.38-.51-2-1.57-4.55-2-6.9a6.27,6.27,0,0,0,.63-.38,3.87,3.87,0,0,0,1.37-2.26,124.51,124.51,0,0,1,16.82,4.22l.1,0c-2.24,6.48-7.85,11.72-14.27,14.26m-17.91-.2a22.75,22.75,0,0,1,2.59-4.13q1.56-2.44,3.2-4.82,2-2.87,4-5.7a12.44,12.44,0,0,0,2.54-.6c.18.6.39,1.2.56,1.81q1.67,6,2.91,12.08a10.28,10.28,0,0,0,.36,1.84.66.66,0,0,0,.13.29c-.72.23-1.45.43-2.18.58a25.27,25.27,0,0,1-14-.86.58.58,0,0,0-.06-.51m3.67-13.83a.61.61,0,0,0,.31,0,22.69,22.69,0,0,1,4.13-.62c-1.35,1.9-2.69,3.81-4,5.74q-1.62,2.39-3.17,4.84c-.73,1.15-1.89,2.48-2.24,3.84a22.77,22.77,0,0,1-9.77-8.2q5-.79,9.86-2.05c1.23-.32,3.21-.48,4.14-1.47a3.19,3.19,0,0,0,.74-2.06m5.43-2c-1.77.33-3.59.29-5.33.77a2.23,2.23,0,0,1,1.4-2c1.55-.67,3.38-.26,5.07-.36l-1.14,1.58m2.77-1.7a6.72,6.72,0,0,0,.12,1,9,9,0,0,1-1,.32l.93-1.3m1.18.32a7.1,7.1,0,0,1,0-1.18.62.62,0,0,0,0-.24l0,0a.57.57,0,0,0,.16.06l.76.13a4.31,4.31,0,0,1-1,1.27m-9.5-35.61a70.61,70.61,0,0,1,7.58-.21l7.58-.09c.67,0,6.3-.38,8.08-.34-.85,1.61-1.67,3.23-2.6,4.79a15.3,15.3,0,0,0-2.14-1.16c-3.72-1.62-8.31-1.71-12.29-1.54-4.31.17-9.7.58-13.42,2.88h0l-.14-.24c2.25-1.63,4.61-3.75,7.38-4.09m-27.29,35.4h0a1.34,1.34,0,0,0-1.5.41,2.36,2.36,0,0,0-.57,2.58,2.44,2.44,0,0,0,3,.71,2,2,0,0,0,.28-2.92l-.13-.15.92-1.17a2.38,2.38,0,0,1,1,.93c.81,1.41,0,3.62-1.37,4.48a4.47,4.47,0,0,1-3.29.39,2.87,2.87,0,0,1-1.87-3.09,3.6,3.6,0,0,1,.88-2.34,2.19,2.19,0,0,1,2.44-1c.33,0,.66.09,1,.16l-.74.94m-1,2a2.65,2.65,0,0,1,.11-.47.59.59,0,0,0,.22-.17.68.68,0,0,0,.19-.22,1.78,1.78,0,0,1,.43.19,1.17,1.17,0,0,1,.41.52c.11.28.11.68-.21.8a1.33,1.33,0,0,1-1-.2c-.17-.14-.15-.23-.11-.46m4.31-10.6a6.1,6.1,0,0,0-.61,1.55l-.54.07-.91.12q.48-.95.88-1.93a.58.58,0,0,0,0-.1,8.9,8.9,0,0,0,1.16.29m-.49-7.26q0-2.62-.12-5.23c-.13-2.14-1.5-6.43-.1-8.38l.65.61a46.7,46.7,0,0,1,3.35,3.45c-1.35,3.15-2.45,6.4-3.78,9.56M349,140a7.84,7.84,0,0,0-2.11,2.21c-1.55,2-2.85,4.68-5.36,5.64a9.74,9.74,0,0,1-3.91.33A9.14,9.14,0,0,0,340,146c1.25-1.69,2.92-4.06,2.27-6.27a11.57,11.57,0,0,0-.57-1.48.55.55,0,0,0-.12-.25,16.52,16.52,0,0,0-2-3.07.6.6,0,0,0,.18-.15,8.2,8.2,0,0,1,4.26-2.85c1.74,2.68,3.38,5.43,4.92,8.14m1-6.8A28.22,28.22,0,0,0,347.4,135l-.3-.48a15.45,15.45,0,0,1,2.67-1.63l.22.35m-1,4.19-.06.06-.87-1.43a25.89,25.89,0,0,1,2.58-1.74l.86,1.36a24.69,24.69,0,0,0-2.52,1.76m9.54,13.37q-4.1-.81-8.14-1.9c.39-.85.79-1.68,1.19-2.51a5.59,5.59,0,0,0,.77-3.26c-.15-1.1-.83-2.77-2-3.18l0,0-.83-1.44a.66.66,0,0,0,.37-.14,21.57,21.57,0,0,1,2.3-1.57c3.21,5,6.57,10,10,14.87-.91-.71-2.65-.62-3.66-.82M343.83,152l1.91-2.43a14,14,0,0,0,2.18.42H348c0,.49,0,1,0,1.47a.51.51,0,0,0,.38.64.62.62,0,0,0,.85-.36v0q.33-.82.68-1.62c2,.54,4,1,6,1.48.35.07,1.36.2,2.42.35-4.67.25-9.3,1-13.94,1.51a1.79,1.79,0,0,0-.54-1.43m-7.37.76,1,.08a2,2,0,0,0,.15.92l-1.61.19a4.85,4.85,0,0,1,.39-.85.6.6,0,0,0,.08-.35m2.27.13q2,0,3.93-.09a.69.69,0,0,0,.35.24,1.84,1.84,0,0,1,0,.24c0,.31-.19.4-.52.27a5.31,5.31,0,0,1-1.27,0c-.68,0-2.36.17-2.54-.63m9.32-6.26a19.34,19.34,0,0,1,0,2.13l-.13,0a11.38,11.38,0,0,1-1.35-.25,13.15,13.15,0,0,1,1.49-1.85m-14.16,3.19c1.17-.56,3.37-.11,4.61-.18a10.48,10.48,0,0,0,3.81-.71,9.23,9.23,0,0,0,3.18-2.67c1.1-1.33,2.42-4.39,4.18-5.14h.11a.6.6,0,0,0,.23,0c.64.17,1.11,2.35,1.1,2.68a6.35,6.35,0,0,1-1.09,2.76q-.38.77-.73,1.55a15,15,0,0,0-.12-2.71.5.5,0,0,0-.62-.44.54.54,0,0,0-.52.06,11.94,11.94,0,0,0-2.62,2.9l-2.83,3.6c-1.3.07-2.6.12-3.9.09-.61,0-6-.13-4.8-1.81m4.65-4.06q.64-1.23,1.19-2.51c.45-1.06.77-2.24,1.23-3.32.55,2.06-.66,4.2-2.41,5.82m1.77-7.39a38.56,38.56,0,0,0-1.58,4,38.7,38.7,0,0,1-2.62,5.12,9.83,9.83,0,0,1-1.25.57c1.73-3.64,3-7.48,4.53-11.19a12.48,12.48,0,0,1,.92,1.48M347,128.23q1,1.79,2.13,3.57a16.73,16.73,0,0,0-2.68,1.65l-1-1.54v0l1.55-3.66m-1.72-8.17q.63-.59,1.24-1.19c-.31.78-.59,1.56-.92,2.3-1,2.22-2,4.4-3,6.63l-1.55-2.19-.92-1.25a64.75,64.75,0,0,0,5.12-4.28m-13.89-4.43c4.06-.44,8.13-.78,12.21-1,1.7-.08,3.42-.07,5.15-.07-1.2,1-2.2,2.47-3.3,3.54a62.33,62.33,0,0,1-6,5.2h0a36.16,36.16,0,0,0-2.39-2.78,24.79,24.79,0,0,0-2.7-2.44c-.24-.18-3-2.3-2.92-2.5M326,144.77c-.32-3-.59-6-.9-9-.43-4-.66-7.32,1.77-10.67,2.26,1.89,4.57,3.71,6.76,5.67-1.45,1.9-.68,4.3-.45,6.56a76.36,76.36,0,0,1,.25,11.1l-.05,0c-2.47-1.17-5-2.38-7.36-3.72m20.64-46.51a19.25,19.25,0,0,0-.17-2.44c-.17-1.79-.68-5,.58-6.53v0c.42-.23.84-.47,1.23-.73-.77,3.21-.35,6.64-1.66,9.71m7.73-15.67c1.15,3.58.4,6.88,0,10.6a80.29,80.29,0,0,0-.46,8.82,16.82,16.82,0,0,0-2.31-1.65,7.58,7.58,0,0,0-4-1.27c1.7-3.75.7-8,2.34-11.72a.69.69,0,0,0,0-.12,35.57,35.57,0,0,0,4.35-4.65M319.81,93a6.48,6.48,0,0,0-2.24-1,3.66,3.66,0,0,1,.47-1c.41-.42.9,0,1.32.24a3.49,3.49,0,0,0,.91.36,6.47,6.47,0,0,0-.46,1.45m6.93,1.42c-.56.44-.88.89-1.59,1a4.72,4.72,0,0,1-2.2-.68,10.44,10.44,0,0,1-1.55-.81c-1-1.27,1-3.2,2.11-3.42s2.28.1,3.36,0a17.36,17.36,0,0,0,2.85-.61,6.1,6.1,0,0,1,.58,1.18,10.8,10.8,0,0,1,.38,1.55,10.5,10.5,0,0,0-3.93,1.86m1.71,1.77a.38.38,0,0,1,.08-.68.64.64,0,0,0,.27-.18c.3-.13.85-.3,1.09,0s-.32.59-.56.73-.59.33-.88.11m-1.41,0-.23-.09.2-.16a1.51,1.51,0,0,0,0,.25m3.34-2a1.71,1.71,0,0,0-.24-.11l.12,0a.66.66,0,0,0,.12.16m-8.43-6a.63.63,0,0,0,.22-.1,4.27,4.27,0,0,0,.53.12c2.42.4,5.84-.67,8.15-1.26a44.28,44.28,0,0,0,12-5,21.43,21.43,0,0,1-13.09,6.25.64.64,0,0,0-.46.26.57.57,0,0,0-.19.26,22.24,22.24,0,0,1-5.64.53,3.08,3.08,0,0,0-2,.54,3.34,3.34,0,0,0-.56.65.61.61,0,0,0-.18,0c-1.13,0-1.85-1.31-3.08-.7a1.39,1.39,0,0,0-.54.48,9.66,9.66,0,0,0-2.13-.53c.68-.06,1.33-.15,1.88-.21a46.17,46.17,0,0,0,5.1-1.25m-10.59,1.62a.63.63,0,0,0-.22.1,2.41,2.41,0,0,1-1.7,0,2.34,2.34,0,0,1-1.18-1.25c-.15-.66.49-1,1-1.25l.1-.06a1.3,1.3,0,0,1,.47.28c.36.42.18,1,.52,1.41a1.45,1.45,0,0,0,1,.55c.15,0,.31.07.48.09l-.3.12-.15,0m-5.26,20c.89-3.28,2.19-6.49,3.29-9.7.41-1.2.68-2.42,1-3.62.83-2.7,2.82-3.51,5.41-3.78a.58.58,0,0,0,.66.42,5.14,5.14,0,0,1,3,1.29.61.61,0,0,0,.45.16,1.12,1.12,0,0,0,.08.14c.47.6,1.65.77,2.29,1.14a6.27,6.27,0,0,0,2.8,1h.15l.07,0q.89.39,1.82.7a2.36,2.36,0,0,0,1.64.17.66.66,0,0,0,.26-.19,2.3,2.3,0,0,0,.77-.25c.88-.47,1.83-1.34,1.26-2.41a1.65,1.65,0,0,0-.49-.57.6.6,0,0,0,.37,0l.14-.06h.1c4.74-.56,9.7-2.37,14.14-4.19a9.85,9.85,0,0,0-.26,1.89c-.13,2.18,1,5.65-.08,7.64-3.77,1-7.49,2.23-11.24,3.35s-7.5,1.84-11,3.39c-5.22,2.3-7.31,6.49-3.54,11.29a47.71,47.71,0,0,0,6.69,6.72,12,12,0,0,0-2.35,8.72c.27,3.65.69,7.3,1.1,10.95-.57-.33-1.14-.65-1.69-1-1.91-1.2-3.2-3.06-4.67-4.75-2.17-2.5-4.49-4.92-6-7.9-1.42-2.83-2.57-5.82-3.83-8.72-1.74-4-3.56-7.39-2.35-11.87m-.39-3q-.16-.33-.3-.66l.07-.05c.94-.92.29-3.42.62-4.6A59.35,59.35,0,0,1,309,94l.14-.07a.85.85,0,0,1,.54-.06l.42.08a4.5,4.5,0,0,0-.37.6,24.44,24.44,0,0,0-1,3.71c-.62,1.93-1.32,3.84-2,5.76-.3.89-.65,1.79-1,2.71m-.86-15.43a9.46,9.46,0,0,0,2.86,2.27v0a1.75,1.75,0,0,0-.09.38c-.76,1.82-1.37,3.69-2.1,5.52a12.12,12.12,0,0,0-.81,2.43,18.1,18.1,0,0,0,0,1.82c-.86-4-.44-8.78.13-12.44M304,109.15a.62.62,0,0,0-.1-.23c-2.6-3.87-6.09-8.16-6.12-13a.64.64,0,0,0-.05-.24l.51-.41c.48-.41.94-.84,1.39-1.29a41.49,41.49,0,0,0,4.51,15l-.14.2m-1.5,2.16-.08,0c-3.07-3.61-7.73-8.27-7.14-13.4a.52.52,0,0,0-.07-.34q.68-.46,1.34-.95c.31,4.87,3.62,9,6.26,13a.63.63,0,0,0,.74.25c-.35.5-.7,1-1.05,1.5m.24,7.17c3.94,15.28,14.68,29.05,29.26,35.31-.12.24-.24.48-.37.72a11.43,11.43,0,0,0-4.85,1.75c-.2.14-.38.28-.56.43l0,0A31.13,31.13,0,0,1,316,147.91c-2.52-3.45-3.75-7.49-5.76-11.21-2.58-4.76-6.54-8.56-9.91-12.74a34.94,34.94,0,0,1,1.63-4c.25-.51.54-1,.79-1.52m34.86,51.44c-4.06.37-9.31,1-12.4-2.29-3.39-3.62-.42-9.26,3.5-11.06,2.11-1,4.79-1.09,7-1.35l.9-.1c-1.13,1.29-2.18,2.65-3.23,4a11.39,11.39,0,0,0-1.61-.34h-.05l-.11,0a4.16,4.16,0,0,0-4.6,4.07,4.49,4.49,0,0,0,1.22,3.89,4.88,4.88,0,0,0,4.18,1,5.1,5.1,0,0,0,4-5.51,3.26,3.26,0,0,0-1.8-2.56,60.11,60.11,0,0,1,3.92-4.69c.64-.06,1.29-.1,1.93-.12s1.06,0,1.57,0l.48,0a.6.6,0,0,0,.27,0c6.77-.75,13.49-2,20.33-1.77h.08l2.08,2.94a1.93,1.93,0,0,0-.07.9,1.44,1.44,0,0,0,.25.7,2.53,2.53,0,0,0,1.64.66,1.83,1.83,0,0,0,1.75-1.24l2.52-1.53a3.35,3.35,0,0,1,.56,1.37,4.33,4.33,0,0,0-2.49.21c-1.15.55-1.4,2-2.47,2.57-2.16,1.09-6.66-.82-8.38,1.54-.72,1-.21,2.46-.67,3.54-1,2.34-4.8,2.6-6.93,3.09a102.68,102.68,0,0,1-13.37,2.13M330,171.29a16.17,16.17,0,0,0,1.83.2,40.47,40.47,0,0,0-4.56,3,29.06,29.06,0,0,1,2.69-3.2l0,0m-4.44-.46-1.66.32.25-.36c.34-.48.75-1,1.06-1.49h.06a8.67,8.67,0,0,0,1.78,1.09l.68.28c-.76.06-1.57,0-2.17.15m-6.14,1.87c-.49-.25-1.33-.58-1.51-1.14a2.83,2.83,0,0,1,0-.94,31,31,0,0,1,2.75,1.69l.07,0a1.06,1.06,0,0,0-.22.85q-.53-.23-1.05-.5m2.7.45-.23,0h0a.69.69,0,0,0,.48,0,1,1,0,0,1,0,.15.83.83,0,0,0-.29-.09m-.67,0h.2a.36.36,0,0,1-.2,0m-5.67-5.6c1.41-1,3.52.49,5,.95a17.44,17.44,0,0,0,3.05.66c-.24.34-.51.67-.74,1l-.87,1.24c-.24,0-.49,0-.73,0a.67.67,0,0,0-.19-.21,28.58,28.58,0,0,0-2.89-1.85,9.27,9.27,0,0,1-2.59-1.82m7.59-.56a6.64,6.64,0,0,0,.53.88q-.69-.13-1.36-.32a4,4,0,0,0,.83-.56m-17.52-16.67a38.72,38.72,0,0,1,1.12,9.23l-1.41-.2c.7-8.77-3.33-17.67-10.07-23.69l.63-1.48c5.53,3.71,8.34,9.81,9.73,16.15m-2.87,14.77c-3.4,10.42-15,17.46-25.6,17.63-5,.08-9.42-.63-13.68-3q.46-.43.9-.89a21.64,21.64,0,0,0,8.63,2.67c10.49.8,21-3.31,26.71-12.49a21.57,21.57,0,0,0,3.11-8.77l1,.12a26.66,26.66,0,0,1-1.08,4.69m-51.33,20.28c-11.11,3.27-24.1-.27-30.49-10.21a29.25,29.25,0,0,1-4-9.66q2.65-.4,5.3-.75c1.91,7.52,7,13.71,14.76,15.66a23.53,23.53,0,0,0,20-3.73A28.64,28.64,0,0,0,261.5,180a27.17,27.17,0,0,1-9.88,5.36m-38-20.58a10.77,10.77,0,0,0-.26-1.55c.72,0,1.44,0,2.16,0,.05.42.11.84.18,1.25l-2.08.33m-1.67,8.43,0,.17a8.34,8.34,0,0,0-2.5.82,55,55,0,0,1-5.83,1.58,2,2,0,0,1,.14-.54,9.63,9.63,0,0,0,7.71-3.83,15.73,15.73,0,0,1,.45,1.8m-.66,3.22c-2.08,1-4.87.89-7.1,1.44a.58.58,0,0,0-.34.21l-.34,0a6.63,6.63,0,0,0,.11-1.05h.06q2.12-.44,4.21-1c.34-.1,4-1.46,4-1.41a.61.61,0,0,0,.29.17,1.52,1.52,0,0,1-.93,1.66m-10.55,4.15c-1.16.23-2.33.45-3.48.71-.06-1,.68-1.21,1.65-1.44l4.92-.51c-.21,1-2.12,1-3.08,1.24m-14.33-1.84.87-.74a77.41,77.41,0,0,0,12.51-.29h0c0,.17,0,.34,0,.52a.62.62,0,0,0,.08.29l-.74.08a.64.64,0,0,0-.3,0l-.3.06-.43,0a.68.68,0,0,0-.27.09l-.39.09a.59.59,0,0,0-.46-.05c-3.18.81-7.44,1.3-10.62-.05m-33.24-3.33c.2-.85.37-1.72.49-2.59a.67.67,0,0,0,.24.07,176.69,176.69,0,0,0,25.21.46.64.64,0,0,0,.61-.8c-.26-1.44-.18-5-1.36-6s-4.18-.25-5.54-.19q-9.41.4-18.8,1.22,0-1.23-.2-2.45h.07c6.64,0,13.28-.33,19.91-.49,3.59-.09,7,.14,10.13-2,2-1.41,3.78-3.25,5.66-4.85,2.13-1.81,4.31-3.58,6.38-5.46.69,0,1.38.07,2.05.07-3.3,1.89-6.11,4.69-8.88,7.24-2.43,2.24-6.38,4.46-7.52,7.74-.62,1.78-1,5.74,1.23,6.48,1.76.59,4-.84,5.55-1.49q3.25-1.32,6.4-2.86a10,10,0,0,0,1.36,2.15l-.06,0c-13,8.21-28.6,4.18-43,3.74m-14.89,13.87a24.31,24.31,0,0,1-25.77-7.07,22.14,22.14,0,0,1-5.72-12.82c-.39-5.05,1.72-10,4.53-14.1,5.11-7.48,14.25-12.72,23.45-10.26a24.53,24.53,0,0,1,18,22.85c-.13,10-4.52,18.37-14.5,21.4M154,168.7h0c4.79,0,9.58-.69,14.38-.94,2.2-.12,4.45-.33,6.65-.27a5.15,5.15,0,0,1,2.55.29l.18,1a11.4,11.4,0,0,1,.62,3.32,176.65,176.65,0,0,1-24.5-.49s-.05-.06-.09-.06c.1-.94.17-1.76.2-2.88M184,96.9a.54.54,0,0,0,.1-.12l.24-.31a.64.64,0,0,0,.15-.47,2.1,2.1,0,0,1,2.49.09c-3.6,2.46-6.13,7-8.6,10.51q-4.74,6.71-9,13.75a.64.64,0,0,0-.09.25l-1,.08A166.46,166.46,0,0,1,184,96.9m7.06-2.44c3-2.5,6.56-4.31,10.71-3.39a.62.62,0,0,0,.47-.07l.12.07q-5.7,1.5-11.29,3.4m18.1,37.71c0-1.5,2-5.4,2.8-6.78a18.94,18.94,0,0,1,3.93-4.75c-1.47,4.4-2.89,8.9-4.66,13.19a17,17,0,0,1-2.07-1.67m3.15,32.63c-1.45-.39-3.05-.16-4.43-.77-.64-.28-.78-.33-.37-.9A5.08,5.08,0,0,1,210.8,161a.61.61,0,0,0,.26-.12,9.24,9.24,0,0,1,1.29,3.88m-12.08,8.42a8.82,8.82,0,0,1-4.34-4.31c1.16-1,3.34-1.9,4.86-1.33s.68,1.84.37,2.82l-.89,2.81m-.32,1.44c0,.26,0,.51,0,.77a19.38,19.38,0,0,1-3.3-2.57l.16-.1a.62.62,0,0,0,.24-.26,10,10,0,0,0,3,2,.62.62,0,0,0-.05.18m-1.68-20.91a11.9,11.9,0,0,1,.55,2.73.62.62,0,0,0,.13.34,9.94,9.94,0,0,0-5.07,8.58,9.66,9.66,0,0,0,.48,2.95c-2.14,1.1-10.21,5.83-11.63,3.13a5.8,5.8,0,0,1,2-6.2c2.17-2.27,4.78-4.22,7.11-6.35a43.49,43.49,0,0,1,6.47-5.17M209,151c-.32.4-2,.6-2.56.74l-.5.13a.55.55,0,0,0-.14,0c-.66.18-1.33.34-2,.48-.46.09-3.36.94-3.18-.14a11,11,0,0,0,2.41-.68,51,51,0,0,1,6.28-2.29A3.53,3.53,0,0,1,209,151m-4.24,4.62c0-.68,0-1.36,0-2l.51-.14q-.12,1.12-.2,2.24l-.36-.06m-.61,7.42a1.29,1.29,0,0,0-.42-.06,42.33,42.33,0,0,0,.95-6.1l.36.06a28,28,0,0,1-.89,6.1m-.88,1.36a.56.56,0,0,0,.13-.12h0c.1,0,.24-.07.34,0a1.38,1.38,0,0,1,.52.4.69.69,0,0,1-.21,1,.75.75,0,0,1-1-.24.8.8,0,0,1,.13-1m-3.24-8.09a13.49,13.49,0,0,0-.42-2.34l.07,0a8.56,8.56,0,0,0,3.87-.12c0,.57,0,1.13,0,1.69a9.59,9.59,0,0,0-3.47.73m0,7c-.19.47-.22.53-.77.59a8.54,8.54,0,0,1-1.24-.05l-2.71-.11a8.8,8.8,0,0,1,3-4.92,4,4,0,0,1,1.74,4.49m6.34-7.38c.07-1,.15-1.93.28-2.9l1.53-.48a24.17,24.17,0,0,0-1.5,3.46l-.31-.08m-13.93-5.3.89-.57h0c3.39,1.23,6.46-.08,9.63-1.44,4.4-1.89,9-2.94,13.48-4.47.07.53.13,1.07.18,1.64-3.77,1.77-8,1.92-11.85,3.57-2.29,1-4,1.81-6.55,1.85a16.46,16.46,0,0,1-5.79-.59M216,142a12.2,12.2,0,0,1-3,.84q0-.49,0-1a7.54,7.54,0,0,0,2.41-1.59A11.92,11.92,0,0,1,216,142M205,141.12a28.53,28.53,0,0,0,5.64,1,7.29,7.29,0,0,0,1.2,0c0,.27,0,.54,0,.82a12,12,0,0,1-6.85-1.81m-.35,5.38a19.36,19.36,0,0,1-4.2-1.9q.85-.76,1.66-1.56a7,7,0,0,0,1.22-1.56,13.33,13.33,0,0,0,8.45,2.7,56.07,56.07,0,0,0-6.51,2.06l-.62.26M202,147.69h0c-.58-.24-1.1-.58-1.66-.86-.29-.15-.59-.26-.88-.4-.12-.06-.61-.36-.62-.29a.72.72,0,0,0,0-.11l.65-.54a20.58,20.58,0,0,0,3.52,1.77l-1,.44m-4.18-.86a3.47,3.47,0,0,0,1.22.79c.49.22,1,.47,1.43.71a10.33,10.33,0,0,1-5.71.77q1.57-1.08,3.07-2.26m3.37-9.39.16,0a5.07,5.07,0,0,1,.76,1.33c-.64-.1-.87,1-.19,1.26l.3.12a4.7,4.7,0,0,1-1,2,19.41,19.41,0,0,1-2.85,2.88c-.2-2.49-.45-5-.45-7.49a8.51,8.51,0,0,1,3.27-.1m-5.71-6.68,3,3.37,1.73,1.94c-.62,0-1.24,0-1.83.08q-.62,0-1.23.13c-.94.12-.95.17-1.26-.85a15.65,15.65,0,0,1-.37-4.68m19.45,8.32a11.83,11.83,0,0,1-1.81,1.32q0-1.71.15-3.42a10.06,10.06,0,0,1,1.66,2.1m-20.06-27.3.18.13a.63.63,0,0,0,.27.1l.06,0c2.4,2.91,4.86,5.79,7,8.92a52.17,52.17,0,0,1,4.41,8.86,13.84,13.84,0,0,0,5.12,6l.21.16q-.2,2.48-.23,5a11.21,11.21,0,0,1-3.79-.4,27.41,27.41,0,0,1-4.34-1.12c-.2-1.31-1.22-2.58-2.57-4.1l-10.9-12.36c-3.54-4-7.07-8-9.07-13.05a17,17,0,0,0,4.92,1.42c2.81.36,6.12-.71,8.76.47m2.38.56a12.89,12.89,0,0,0,2.24,0,9.21,9.21,0,0,0-.7,1.85l-1.55-1.88M171,163.46c0-7.27-.07-14.54-.06-21.82,0-6.84.41-13.68.41-20.51a.66.66,0,0,0-.5-.62c2.39-3.93,4.89-7.8,7.51-11.58l.3-.43c.4.26.8.51,1.22.74a.51.51,0,0,0-.1.57c2.87,7.57,9,13.42,14.29,19.38l.13.15a.59.59,0,0,0,0,.1c.08,2.33-.21,4.91.72,7.09.29.68.51,1.12,1.3,1.15h.44c0,2.76.32,5.56.52,8.31a71,71,0,0,1-6.16,4,.57.57,0,0,0-.19.12.61.61,0,0,0-.14.82.66.66,0,0,0,.2.22,6.57,6.57,0,0,0,3.37,1c-1.5,1.32-3,2.6-4.58,3.89-2.11,1.77-4.09,3.86-6.35,5.44-3.16,2.21-7.18,1.78-10.87,1.87l-1.45,0m27.16,13.15a.61.61,0,0,0-.22-.18,10.86,10.86,0,0,1-3.15-2.5l.71-.38a20.59,20.59,0,0,0,3.77,3l-1.11.1m-8.56-.37a.65.65,0,0,0,.2-.2,31.82,31.82,0,0,0,3.84-1.54,11.68,11.68,0,0,0,2.43,2.25c-2.43.14-4.86.16-7.29.07.27-.2.54-.4.82-.58m12.6,2-1.11.11a.65.65,0,0,0,0-.17,30.38,30.38,0,0,1,.1-3.32,9.73,9.73,0,0,0,1.29.26c-.26,1-.08,2.1-.32,3.11M211,169.9a7.87,7.87,0,0,0-2.52-2.1c-.93-.5-2.38-1.33-3.47-.92s-1.12,1.87-1.13,2.85a10.08,10.08,0,0,0,.89,4.19,8.14,8.14,0,0,1-3.34-.27l0,0a31.3,31.3,0,0,0,1.52-5,1.79,1.79,0,0,0-1.26-2.09,6.89,6.89,0,0,0-6.26,1.13,8.34,8.34,0,0,1-.33-2.3c0-.15,0-.29,0-.44l2.37.1a11.86,11.86,0,0,0,2.36.07c1-.18,1.29-1,1.45-2a5.36,5.36,0,0,0-2-5.17,8.31,8.31,0,0,1,4.06-1.21,41.12,41.12,0,0,1-1.13,6.78,2,2,0,0,0-.06,2.61,2,2,0,0,0,2.8.24,1.94,1.94,0,0,0,.21-2.66,26.37,26.37,0,0,0,1-6.59,8.47,8.47,0,0,1,4,2.7,6.53,6.53,0,0,0-2.86,1.47c-.63.57-1.74,1.72-1.46,2.66s1.57,1.32,2.36,1.49a35.69,35.69,0,0,1,4,.62A9.27,9.27,0,0,1,211,169.9m-5,3.78c-.47-1-1.91-5.74.14-5.51a6.78,6.78,0,0,1,4.07,2.8,8.41,8.41,0,0,1-4.21,2.71m19.41-37.06c-6.95,6.95-10.78,16-10.07,25.33-.81,0-1.62.05-2.43,0a10,10,0,0,0-5.09-5.55,22.61,22.61,0,0,1,2-4.36.62.62,0,0,0,.09-.28,1.27,1.27,0,0,0,.17-.23,6.39,6.39,0,0,0,.44-2.64q1.68-.36,3.33-.83a35,35,0,0,0-1,10.47.63.63,0,0,0,1.26,0c0-3.7,0-7.42,1.24-10.94a19.39,19.39,0,0,0,2.16-.91.52.52,0,0,0,.25-.18.5.5,0,0,0,.09-.15.54.54,0,0,0,0-.3c-.07-.76-.13-1.54-.22-2.33a.51.51,0,0,0,.41-.32,17.83,17.83,0,0,1,3.08-4.58,21.21,21.21,0,0,1,3.51-3.44l.78,1.2,0,0m3.84,5.57c-5,5.35-7.93,11.74-7.39,19.11-1.76.26-3.52.47-5.3.59a29.19,29.19,0,0,1,0-5.57c.73-7.16,4.56-13.59,9.56-18.65q1.5,2.24,3.17,4.35l.05.07-.12.1m-4.36,8.7a27.56,27.56,0,0,1,5.24-7.79c3.26,4.42,5.48,9.44,8.48,14a107.26,107.26,0,0,0-13.72-6.2m14.62,8.32a4.41,4.41,0,0,1,.15-.58l.37.49-.52.09m.18,1.87a2.72,2.72,0,0,1-.19-.6,7.11,7.11,0,0,0,1-.18,1.86,1.86,0,0,0,.37.65l-1.19.12m3.23-2.3a.55.55,0,0,0,.35,0c.69-.28,1.07.6,1,1.17,0,1-1.07,1-1.77.66s-1.09-.71-.62-1.38a1.2,1.2,0,0,1,1-.43M248.44,139q-1.45,4.57-2.67,9.21-.6,2.31-1.15,4.64c-.11.46-.18,1.28-.3,2.11a4.07,4.07,0,0,0-2.15-.09c-2.59-4.9-5.5-9.66-8.56-14.32A22.77,22.77,0,0,1,248.44,139m6.5,1.16a24.26,24.26,0,0,0-22-.68q-1.52-2.29-3.08-4.56c8.67-4.62,20.51-4,28.73,1.24a25.57,25.57,0,0,0-3.63,4m6-2.33a23,23,0,0,0-3.65,3.89q-.62-.47-1.27-.9a24.11,24.11,0,0,1,1.92-2.29,23.69,23.69,0,0,1,1.74-1.63q.64.45,1.25.94m1-.81q-.61-.49-1.24-.94c.5-.38,1-.75,1.54-1.09q.62.48,1.21,1-.78.5-1.51,1m9.89,9.69-1.88.74a28.36,28.36,0,0,0-6.59-9.22l-.42-.37q.74-.53,1.52-1a31.18,31.18,0,0,1,7.37,9.86M267,135.48c.6,1.43,1.21,2.84,1.83,4.26a35.48,35.48,0,0,0-3.3-3.54c.48-.26,1-.49,1.47-.72m12.21,15.69-1.56,1.95a.67.67,0,0,0-.11.2,6.31,6.31,0,0,0-.92.14q-4.54-9.08-8.46-18.45h0a26.24,26.24,0,0,1,16.9-.73l-5.84,16.91m9-15.65A40.25,40.25,0,0,1,281.69,148l4.61-13.34q1,.36,2,.82l0,0m-8.38,18.13-.11,0,.64-1.84c3.79-4.82,7.22-9.73,9-15.72l.89.51h0a61.85,61.85,0,0,1-3.77,8.81c-1.14,2.12-3.11,3.67-4.63,5.51q-1.09,1.33-2.05,2.76m1.93,3.24a2.8,2.8,0,0,1,.37,1.21l-1.51,0c.39-.41.78-.83,1.14-1.26m11.82-16.8.29-.72a26.24,26.24,0,0,1,2.15,2.25,77,77,0,0,1-11.71,12c.6-.76,1.22-1.51,1.9-2.22a62.83,62.83,0,0,0,4.56-5.35c1.44-1.89,1.93-3.77,2.8-6m-10.25,18a3.81,3.81,0,0,0-.47-1.77c5.33-3.7,9.88-8.67,14-13.67a23.73,23.73,0,0,1,4.93,16.26,137.86,137.86,0,0,0-18.42-.81m14.78,11.41-.1-.07-15.28-9.16a4.45,4.45,0,0,0,.41-.91,136.62,136.62,0,0,1,18.48.79,23.54,23.54,0,0,1-1.11,4.67,19.69,19.69,0,0,1-2.4,4.68m-17.57,10.67c-.49-5.85-1.52-11.65-1.55-17.52a5.52,5.52,0,0,0,2-.66,5,5,0,0,0,1-.74l15.43,9.25a26.64,26.64,0,0,1-16.83,9.66M270.74,169a27.66,27.66,0,0,0,1.54-6.51q.91-.84,1.87-1.62a3,3,0,0,0,.26.3,5.35,5.35,0,0,0,3.36,1.48c0,5.9,1.07,11.74,1.56,17.62-.45,0-.9.07-1.35.08a24.59,24.59,0,0,1-12.53-2.5,28.44,28.44,0,0,0,5.28-8.85m-7,7.86a24.39,24.39,0,0,1-3.63-2.89,21.25,21.25,0,0,0,2.61-3.56c1.91-1.51,3.86-3,5.76-4.51.75-.6,1.52-1.31,2.3-2-.07.41-.15.82-.24,1.23a27.28,27.28,0,0,1-6.25,12.12l-.56-.35m-11.27-9q-.22-.47-.42-1,1.2,1,2.44,2a23.48,23.48,0,0,0,3.76,5.15c-.3.29-.6.57-.91.84a26.6,26.6,0,0,1-4.87-7m-8.38-3.65a4.93,4.93,0,0,0,2.53-1,4,4,0,0,0,.84-.89,35.15,35.15,0,0,0,2.68,2.82,23.68,23.68,0,0,0,6.13,10.59A20.74,20.74,0,0,1,245,179.89h-.16c.13-5.22-.43-10.48-.75-15.68m-4.35-1.16a5.88,5.88,0,0,0,3.09,1.16c.32,5.21.88,10.48.75,15.7a20.06,20.06,0,0,1-15.33-6.61l11.49-10.26m-9.62.74c2.73-.32,5.54-.87,8.33-1.27l-11,9.83a21.55,21.55,0,0,1-3.75-7.76q3.21-.42,6.42-.79m22.15-8.7-1.57.64a35.69,35.69,0,0,1,.69-4.8,26.37,26.37,0,0,1,3.85-9.09q.65.42,1.27.89a27.19,27.19,0,0,0-4.24,12.35m10.43-4.56c-2.71,1.2-5.41,2.41-8.13,3.58-.36-.09-.59-.18-.6-.29a.52.52,0,0,0-.25-.38c.1-.64.22-1.27.35-1.88a23.82,23.82,0,0,1,3.41-8.05,20.68,20.68,0,0,1,5.22,7m1.09-.48a21.51,21.51,0,0,0-5.59-7.55A22,22,0,0,1,260,140.4a21.28,21.28,0,0,1,1.9-1.74,27.45,27.45,0,0,1,6.86,9.29q-2.48,1-4.93,2.12m7.21,6q-2.8-.51-5.63-.9a22.62,22.62,0,0,0-1.11-4q2.46-1.09,5-2.12a27.69,27.69,0,0,1,1.79,7m6.11,1.09-.09.13-2.42-.52a3.16,3.16,0,0,1,.64-1.3A2.22,2.22,0,0,1,276,155c.37.74.74,1.49,1.12,2.23m1-2.62-.35,1-.48-1a5.34,5.34,0,0,1,.83,0m3.27,4.82.51,0-.15.24-.36-.22m-2.25.56a1.5,1.5,0,0,0,.3-.16l.07-.06,1.31.79a4.89,4.89,0,0,1-1.73.71q0-.64,0-1.27m-.53-1.14a.47.47,0,0,1-.49-.2.63.63,0,0,0,.3-.7.66.66,0,0,0,.08-.14h.09a.48.48,0,0,1,.23.35c.06.23.05.63-.22.72m-4.09-.76,1.24.27c-.37.22-.74.46-1.1.71a4.28,4.28,0,0,1-.14-1m-2.07-.41.75.14a6.1,6.1,0,0,0,.41,2c-.39.32-.77.65-1.15,1a28.6,28.6,0,0,0,0-3.17m-6.83-1.14q2.79.39,5.56.89a26.73,26.73,0,0,1-.07,4.65q-.89.84-1.82,1.64c-1.69,1.43-3.44,2.78-5.19,4.14a22.51,22.51,0,0,0,1.52-11.31m-8.68-2c2.1-.92,4.19-1.86,6.29-2.79a21.16,21.16,0,0,1,1,3.39c-1.61-.12-4.88-.32-7.29-.59m-6.27,2.65,1.54-.63a31.07,31.07,0,0,0,.38,6.76,17.54,17.54,0,0,0,.83,3.11q-1-.88-2-1.8a27.06,27.06,0,0,1-.7-7.43m-2.91,1.12,1.64-.63a33.25,33.25,0,0,0,.36,5.36q-.84-.86-1.61-1.78l-.1-.1a4.75,4.75,0,0,0-.3-2.85m11.91,13.09-3.87-3q-.51-.92-.94-1.89A22.65,22.65,0,0,1,253.45,156l1.29-.55q4.86.31,9.68.94a20.57,20.57,0,0,1-1,9.76,20.12,20.12,0,0,1-1.61,3.43c-.74.59-1.48,1.18-2.21,1.78m-1.12.95c-.18-.21-.34-.43-.51-.64l.65.52-.14.12m16.79-12-.14-.16a12.36,12.36,0,0,1,1.75-1,1.87,1.87,0,0,0,.92.85q0,.69-.05,1.39a3.74,3.74,0,0,1-2.48-1m-2.54-11.16a.62.62,0,0,0,.6.43q1,2.16,2.1,4.3a4.38,4.38,0,0,0-1.46,1.06,3.53,3.53,0,0,0-.73,1.6l-1-.19a29.11,29.11,0,0,0-1.9-7.73l1.89-.75c.17.42.33.84.48,1.27m-18.55-7.91a30.32,30.32,0,0,0-4.8,15c-.76.3-1.52.59-2.29.88a5.85,5.85,0,0,0-1.78-1.7c.36-1.61.72-3.22,1.12-4.83.94-3.79,2-7.55,3.2-11.28a21.49,21.49,0,0,1,4.55,1.89m-10.73,16.12,0,0-.67-1.32a3,3,0,0,1,1.29.17,2.05,2.05,0,0,1-.59,1.12m.11,4.69.1,0a2.09,2.09,0,0,0,1.88-2.32,2.94,2.94,0,0,0-.89-1.85,3.28,3.28,0,0,0,.35-1.09c1.66,1.21,2.58,3.71,1.08,5.29-1,1.09-3.16,1.15-4.48.67a4,4,0,0,1-.92-.47c1-.1,1.92-.18,2.87-.21m-16.07-.33c2.75-.44,5.52-.75,8.29-1,.7-.07,1.53-.07,2.36-.1a3.34,3.34,0,0,0,.19.69c-3.1.43-6.21,1-9.28,1.41-4.07.48-8.12,1-12.17,1.61q-.09-.56-.17-1.12c3.62-.24,7.18-.88,10.78-1.45m-3.07-9.64a106.9,106.9,0,0,1,14,6.33,5.45,5.45,0,0,0-.24.93c-1,0-2.08.05-2.9.14-2.17.23-4.34.46-6.5.78-1.88.28-3.76.59-5.64.88a21.73,21.73,0,0,1,1.31-9.06m38.07,27-.48-.3a26.81,26.81,0,0,1-3.76-3c.31-.27.62-.55.91-.83a26,26,0,0,0,4.23,3.24c-.29.3-.58.6-.89.89m41.63-19.94-1-.12a26.17,26.17,0,0,0-8.71-20.91c.17-.41.34-.83.51-1.24,6.43,5.91,10,13.87,9.23,22.27m-85.6-33.55c1.88,2.86,3.65,5.82,5.48,8.73a22.09,22.09,0,0,0-3.74,3.61,19.83,19.83,0,0,0-2.86,4,13.12,13.12,0,0,0-.82-2.74c.37-.41,0-1-.5-1a7.77,7.77,0,0,0-.46-.71,10.37,10.37,0,0,0-1.29-1.43,89.26,89.26,0,0,0,4.18-10.49m2-15.35a47.56,47.56,0,0,0-3.79,8.28.66.66,0,0,0-.34.14,19.74,19.74,0,0,0-6,7.59c-.65,1.46-1.63,2.79-1.95,4.29q-.17-.3-.32-.61c-1.57-3.31-2.66-6.54-4.75-9.62-1.13-1.67-2.35-3.26-3.61-4.83a8.41,8.41,0,0,1,1.21-3.3,63.91,63.91,0,0,0,9.75-2.81,39.43,39.43,0,0,1,5.88-1.23c.24,1.72,2.25,2,3.95,2.1m-9.78-22.57c3.08-.75,5.22.48,7.81,2,2,1.15,4.27,1.7,6.16,3a28,28,0,0,1,8.08,9.13,20,20,0,0,0-6.93,2.18,38,38,0,0,1-10.71,3c-3.57.59-6.89,2.06-10.39,3-2.67.68-6.71,1.81-9.55.64a9.5,9.5,0,0,1-2.51-2.71c-.42-.69-1.52-.06-1.09.64a11.09,11.09,0,0,0,1,1.4.59.59,0,0,0,0,.16c-1.17-.05-2.38.08-3.64.13a16.44,16.44,0,0,1-9.66-2.71q1.55-2.21,3.16-4.38c1.59-2.14,3.08-4.58,5.35-6.06a.68.68,0,0,0,.14-.12.58.58,0,0,0,.57-.16l.13-.12q7.53-2.71,15.3-4.69l.68.35a.66.66,0,0,0,.77-.1l5.34-4.5m-28.07,7.53-.05,0a.11.11,0,0,0,.05,0m-.06-.07a4.39,4.39,0,0,1-.2-.73q-.12-.36-.25-.7a.64.64,0,0,0-.19-.51,7.42,7.42,0,0,1-.39-1.43,26.61,26.61,0,0,0,3.28-.27,40.47,40.47,0,0,0,4.58-1.82c1.88-.77,4.5-1.36,6.17-2.71.69.5,1.54.91,2,1.21.72.49,1.45,1,2.18,1.4-4.52-.08-8.34,2.61-11.61,5.75a4.23,4.23,0,0,0-4.7-.48c-.2,0-.87.14-.86.29M88.74,162.9c0-.52-.09-1.1-.11-1.52-.1-2.46-.48-4.91-.6-7.38a85.23,85.23,0,0,1,.68-14.88,72.84,72.84,0,0,0,.85-7.61,5.38,5.38,0,0,0,0-1.81,4.47,4.47,0,0,0,1.79.17,31.76,31.76,0,0,0,3.22-.09,129.37,129.37,0,0,0,14.06-1.91c20.27-3.42,41-4.35,61.48-6.05,0,6.61-.4,13.22-.41,19.83,0,7.29.07,14.57.06,21.85-5.27.16-10.55.37-15.82.38a.64.64,0,0,0-.26.05,26,26,0,0,0-15.5-19c-9.32-4-19.46-.35-25.86,7.07a27.48,27.48,0,0,0-5.91,11l-17.63-.07M75.42,145.34c.68-15.08,2-30.15,3.24-45.2,5.84-.05,11.67-.15,17.51-.23l13.38-.19,4.5-.06a6.34,6.34,0,0,0,1.22,0c0,3.37,1,7,1.51,10.33a.63.63,0,0,0,.61.46c4,.14,7.94.2,11.89,0,1.42-.08,3.83,0,5.09-.79,1.53-1,.82-3.35,1.31-5.06.22,0,.44,0,.65-.05,1,0,2.05-.18,3.07-.26l7.71-.66c3.7-.32,7.15-1.16,10.81-1.75,6.16-1,12.77-2.18,19.06-2-1.65,2.29-3.4,4.51-5,6.87-3,4.62-5.86,9.48-8.57,14.31-18.26,1.39-36.67,2.45-54.71,5.48-5.43.91-10.88,1.94-16.41,2-4.36.07-3.82-.4-4.15,4-.39,5-1.33,10-1.5,15q-.12,3.71.1,7.42c.09,1.41.23,2.81.36,4.22,0,.33.45,3.68.43,3.7a.63.63,0,0,0,.32,1.17l18.16.07a20.7,20.7,0,0,0,2.9,15.43,25.5,25.5,0,0,0,25.74,11.74c5.41-.84,10.88-3.22,14.41-7.52a20.09,20.09,0,0,0,3.69-7.2c11.13.29,22.94,2.72,33.8.24-.6.51-1.2,1-1.82,1.53a.63.63,0,0,0,.13,1c3.17,1.8,7.41,1.64,11,.9a4.46,4.46,0,0,0,.2,1.88.65.65,0,0,0,.78.44c2.24-.53,4.55-.82,6.76-1.45,1.34-.38,1.65-1,1.43-2.24,1.48-.32,3-.52,4.46-.81,1-.19,3.06-.4,3.72-1.27.53-.7.16-2,.06-2.78a16.3,16.3,0,0,0-1-4,10.66,10.66,0,0,0,1.25-4l2.32-.37a30.41,30.41,0,0,0,1.76,5.62c5.06,12,17.31,17.88,30,16.16a28.65,28.65,0,0,0,14.91-6.79,24.07,24.07,0,0,0,9.92,3.18c11.61.9,23.34-3.72,29.57-14a23.83,23.83,0,0,0,3.27-9.29l1.46.21a39.53,39.53,0,0,1-2.52,9.74c-.27.76.95,1.09,1.22.33a36.71,36.71,0,0,0,2.64-11.21A41.23,41.23,0,0,0,306.81,149c-1.53-6.38-4.62-12.33-10.21-16q.73-1.69,1.44-3.4a62.71,62.71,0,0,1,6.64,9.27c1.91,3.45,3.33,7.13,5.55,10.4,3.19,4.72,7.29,9.93,12.82,12a7.8,7.8,0,0,0-.19,4.49l-.1.09a2.78,2.78,0,0,1-3,.77.62.62,0,0,0-.26,0q-.77-.26-1.55-.46a3.21,3.21,0,0,0-3.46,1l0,0a.51.51,0,0,0-.07.72,8.55,8.55,0,0,0,2.3,2.09.61.61,0,0,0,0,.12c0,.82-.2,1.93.38,2.59a8.92,8.92,0,0,0,3.29,1.9c.74.31,1.92,1,2.68.44a2.38,2.38,0,0,0,.57-2.45c.77-.13,1.54-.3,2.33-.44a15.9,15.9,0,0,1,1.85-.14,27.53,27.53,0,0,0-2.46,3.32.67.67,0,0,0-.07.16l-.07.07a.64.64,0,0,0,.23.86l.57.39a.58.58,0,0,0,.82-.19l.12-.08a38.79,38.79,0,0,1,7.64-5c1.78-.1,3.55-.33,5.21-.52l.39,0,.06.11c4.54,7.14,12.1,12.48,20.72,12.89,9.46.45,17.75-2.32,24.56-9A26,26,0,0,0,392.56,152a24.35,24.35,0,0,0-2.73-7.76l.94-.57a32,32,0,0,1,2.09,4.55c.28.76,1.5.43,1.22-.34a33.4,33.4,0,0,0-6.67-11c-1-1.06-2-2.19-3.11-3.29,1.77-2.7,2.72-5.53.44-8.46l1.48,0a.62.62,0,0,0,.55-.31c2.1-4.16-8.43-2.52-10.06-2.51-7,.05-14.06-.18-21.08-.59a.55.55,0,0,0-.61.58l0,.07a15.2,15.2,0,0,1-2.29,4.11c-.56.67-1.16,1.31-1.72,2q-1.13-1.9-2.12-3.87a.58.58,0,0,0-.23-.25l.34-.81c1.08-2.55,2-5.37,3.64-7.59a.6.6,0,0,0,.1-.18,20.88,20.88,0,0,0,3.81.17,19.48,19.48,0,0,0,5.93-1.68c2.63-1.27,2.37-3.55,2.35-6.2a5.44,5.44,0,0,0,.14-4.19,10.8,10.8,0,0,0,2-1.07c1.75-1.33,1.15-3.07.59-4.9-1.77-5.82-1.34-12-.62-18a.57.57,0,0,0,.27-.5c.07-7.48.86-16.36-4.85-22.21a15.59,15.59,0,0,1-3.17-4.87c-.92-2-2.23-3.78-2.85-5.93-1-3.69-1.47-6.24-4.67-8.76a.7.7,0,0,0-1.1.4l-.14.08a1.68,1.68,0,0,0-.88,1.16,7.11,7.11,0,0,0,.12,1.61,5,5,0,0,1-1.4,3.58c-1.6,1.77-1.29,3.25-1.49,5.62-.13,1.54.1,2.78,1.46,3.7a4.49,4.49,0,0,0,2,.69l0,0a7.4,7.4,0,0,1,2.1,3.79l0,.15a.63.63,0,0,0-.27.24c-1.8,2.78-3.74,5.48-5.59,8.24-2.23,3.34-5.28,5.44-8.52,7.72-5.53,3.9-11.32,7.45-18,8.82a.56.56,0,0,0-.3.16q-3-.12-5.9,0c-1.17.06-3.74-.16-4.8.45a1.51,1.51,0,0,0-.71,1.1c-2,.25-5.17.9-4.8,3.33,0,.05,0,.1,0,.15a.63.63,0,0,0-.48.15,52.54,52.54,0,0,0-3.75,3.75c-1.18-1.23-3.18-1.76-3.76-3.37s.25-3.53-1.35-4.86a3.75,3.75,0,0,0-4.46-.15,1.36,1.36,0,0,0-1.13-1.22c-1.4-.32-2.89,1.21-3.62,2.18a16.07,16.07,0,0,0-1.2,2.41c-.51,1-1.4,1.39-2.09,2.14a12.55,12.55,0,0,0-3,6.14.65.65,0,0,0,.06.36c-2.13,1.68-.39,5.82.29,8,.24.77,1.46.44,1.22-.33-.17-.55-.51-1.37-.8-2.27.88,0,1.93-1,2.49-1.46a21,21,0,0,0,2.81-2.81c1.58-.32,1.75-1.44,1.45-2.92a11.1,11.1,0,0,1-.4-3.73l.25.11c.62.27,1.16-.44.89-.87,1-.94,2.63-.41,4,.13-.19,2.76,2.64,4.51,5,5.55a51.81,51.81,0,0,1-6,3.76c-4.2,2.3-9.08,4.15-12,8.1a.5.5,0,0,0,0,.69c-.23,4.2,4.11,5.49,7.29,6.93a38.8,38.8,0,0,1,6.77,4.24,7.14,7.14,0,0,0,3.86,1.71c-.33.88-.6,1.79-.91,2.67s-.74,2-1.14,3c-.94-1.62,0-3.51-.76-5.2s-3.26-.89-4.65-.78a.66.66,0,0,0-.34,1.18l.89,3.74a.64.64,0,0,0,.61.46l.75.17a3.93,3.93,0,0,0,.67,2.32,2.56,2.56,0,0,0,1.35.78.48.48,0,0,0,.07.13,13.31,13.31,0,0,0-2.28-.85,45.43,45.43,0,0,0-9.3-2.36c-.8-.12-1.14,1.09-.34,1.21a46.75,46.75,0,0,1,5.56,1.15c.52.14,5.88,1.85,5.89,1.8a.64.64,0,0,0,.27.64l-.55,1.78c-8.76-5-20.62-4.67-29.28.6a37.47,37.47,0,0,0-5.29-3.29,24.79,24.79,0,0,0-11.87-2.2c-6,.17-12,1-17.3,4.06-2.51-3.61-5-7.2-7.54-10.78,1.8-3.45,2.64-7.29,4.46-10.73a.67.67,0,0,0,.07-.25,29.69,29.69,0,0,1,3.35.05c1.5.13,3.33,1,4.88.58,1.18-.32,2.19-1.43,3.1-2.18s3.18-2,3.72-3.32c.73-1.81-1.49-4.06-2.77-5.28a33.06,33.06,0,0,0,1.47-9.1c-.07-6.64.29-13.22.4-19.85.09-5.18-.38-10.55-2.71-15.26a24.7,24.7,0,0,0-4.62-6.3c-2.15-2.18-5.1-4.16-5.58-7.37a.71.71,0,0,0-.11-.55.61.61,0,0,0-.14-.2,2.21,2.21,0,0,0,0-1.45,17.52,17.52,0,0,1-.62-4.43c.07-2,.06-3.86-1.14-5.58s-3.16-3.14-4.76-4.55a15,15,0,0,0-4.62-3.22c-3.91-1.38-7.58,1.07-10.2,3.78-.64.66-2.22,1.83-2,3,.18.91,1.5,1.38,2.56,1.7-1.33,2.19-.71,4.58-2,6.81-.64,1.1-1.54,1.74-.8,3.11.65,1.19,1.76,1.65,2.17,3.09.29,1,.26,2.43.83,3.34.88,1.4,2.49.92,4,.72a5.4,5.4,0,0,1,2.86,2.93.71.71,0,0,0,.1.17q-.82.88-1.61,1.78a.48.48,0,0,0-.26.53,9.53,9.53,0,0,0,.25,1.21.62.62,0,0,0-.16.27c-1.71,5.61-2,12-6.18,16.56-1.83,2-3.92,3.66-5.61,5.8-1.87,2.36-3.58,4.91-6.5,6.08a.64.64,0,0,0-.38.93,4.42,4.42,0,0,0,.91.87c-1.25.78-2.49,1.59-3.8,2.25-2,1-3.76.42-5.84.75-1.64.26-2.18,1.34-1.44,2.5a.67.67,0,0,0-.38.06c-.47.24-.6.34-.75.73a.49.49,0,0,0-.09.26.55.55,0,0,0,0,.37,11.85,11.85,0,0,0,.46,1.89,40.12,40.12,0,0,1-3,5l-.08,0a72.39,72.39,0,0,0-12.41.89,104.81,104.81,0,0,0-13.14,2.1c-5.4,1.37-11.44,1.23-17,1.71a.66.66,0,0,0-.61.46,14.81,14.81,0,0,0-.59,2.3,15.7,15.7,0,0,0-.11,2.33c-.63.72-3,.6-3.87.66-3.4.24-6.83.21-10.24.14-.62,0-1.27,0-1.9,0a2.36,2.36,0,0,1,0-.38,10.49,10.49,0,0,0-.25-1.77l-1.16-8.25a.63.63,0,0,0-.61-.46c-12.6.17-25.19.4-37.78.51a.65.65,0,0,0-.63.63c-1.23,15.25-2.6,30.53-3.29,45.82,0,.81,1.23.81,1.26,0"/><path class="cls-13" d="M241.38,97.59a51.52,51.52,0,0,1,1.22-10.92c.68-3,1.48-7.14,3.4-9.61,2.31-3,7.81-2.5,11.27-2.7,3.68-.21,7.37-.26,11.06-.21a.64.64,0,0,0,.63-.63l0-8.91,0-4.46a10.48,10.48,0,0,1,0-2.94c1.08-3.17,6.73-2,9.25-2.06l8.2-.06c2.73,0,5.47-.09,8.2-.06,2.08,0,3.75.12,4.7,2.39a14.91,14.91,0,0,1,.65,2.94,94.66,94.66,0,0,1,1.56,17.17.63.63,0,0,0,.63.63l27.9-3.59a.68.68,0,0,0,.61-.46l1.09-2.68c.31-.75-.92-1.08-1.22-.33-.68,1.68-.82,2.1-2.63,2.5-1,.23-2.18.28-3.22.41l-7.51,1-14.4,1.85a96.76,96.76,0,0,0-.62-10.36c-.36-3.06-.6-6.45-1.62-9.38a4.48,4.48,0,0,0-3.55-3.17c-3.17-.64-6.8-.12-10-.1l-10.94.08c-2.06,0-5.67-.71-7.37.87s-1,4.63-1,6.49l0,11.62c-4.59-.05-9.17.07-13.75.44-2.93.24-6.67.07-8.7,2.57s-2.9,6.41-3.65,9.45a53.14,53.14,0,0,0-1.49,12.25.63.63,0,0,0,1.26,0M387.68,79a64.85,64.85,0,0,0,8.43-24l26.55-.8a229.62,229.62,0,0,1-2.29,37.78.64.64,0,0,0,.78.78,124.45,124.45,0,0,1,21.49-1.1q.85,25.11-.61,50.22c0,.81,1.22.81,1.26,0q1.48-25.39.6-50.84a.64.64,0,0,0-.63-.63,126.25,126.25,0,0,0-21.54,1,231.5,231.5,0,0,0,2.2-37.87.64.64,0,0,0-.63-.63l-27.71.84a.65.65,0,0,0-.63.63,63.36,63.36,0,0,1-8.35,24,.63.63,0,0,0,1.09.64M51.27,152.61a327.32,327.32,0,0,1,33.75-1c.81,0,.81-1.23,0-1.26a327.35,327.35,0,0,0-33.75,1c-.81.06-.81,1.32,0,1.26M359,241c-.26-.21-.52-.45-.78-.66a.66.66,0,0,0-.89,0,19.3,19.3,0,0,0-5.22,7.1l-.2-.27c1.18-.87.85-2.6.88-4l.18-8.35a.63.63,0,0,0-1.26,0l-.12,5.72c0,.94.39,4.85-.44,5.57l-4.49-6c-.83-1.11-1.66-2.31-3.11-1.54-.72.38-.08,1.47.64,1.09.9-.48,6.86,8.39,7.55,9.32.33.44,1,.51,1.15,0a15.9,15.9,0,0,1,5-7.25l.26.22c.63.51,1.52-.44.89-1M142.52,181.16a15.49,15.49,0,0,1-2.82,1.92l-.14-.35c-.53-1.39-1.81-2.85-2.48-4.24-1.22-2.54-2.85-4.81-4.27-7.22a4.38,4.38,0,0,0,2-2.28,4.22,4.22,0,0,0,.18-.61,113.43,113.43,0,0,1,12.54,1.16c-.32,4.34-1.63,8.66-5,11.6m-13.38,4.17a18,18,0,0,1-8.05-2.48l.13-.21,0-.06c2.12-3.6,4.34-7.13,6.52-10.7l.16,0a8.68,8.68,0,0,0,3.74-.17c1.1,1.8,2.37,3.49,3.35,5.36.56,1.06,1,2.17,1.57,3.24a26.6,26.6,0,0,1,1.95,3.16.72.72,0,0,0-.05.16,20.89,20.89,0,0,1-9.34,1.66M111.85,168v0q6.69-.38,13.39-.21a4.09,4.09,0,0,0,1.34,3.7c-2.19,3.59-4.44,7.15-6.57,10.78-4.77-3.2-8.2-8.46-8.16-14.23m12.6-17.32a.68.68,0,0,0,0,.23,107.24,107.24,0,0,0,3.51,12.7l-.39.1a3.12,3.12,0,0,0-2,2,1.11,1.11,0,0,0-.12.39q0,.2-.07.39-6.73-.18-13.46.2c.67-6.82,6-13.48,12.53-16m16.06,2.9c-2.74,3.21-5.26,6.58-7.79,10a3.45,3.45,0,0,0-.73-.22,8.86,8.86,0,0,0-2.79,0,106.83,106.83,0,0,1-3.53-12.78.59.59,0,0,0-.14-.27,15,15,0,0,1,3.63-.68,16.28,16.28,0,0,1,11.34,4m-7.92,13.55a1.85,1.85,0,0,0-.3-.72.54.54,0,0,0-.06-.14l.74-1a3,3,0,0,1,.88,1.87l-1.26,0m-3.47,2.54a1.87,1.87,0,0,0,.25.11,3,3,0,0,0,1.22.09.69.69,0,0,0,.05.15c.11.22.23.44.35.65a7.71,7.71,0,0,1-1.82.14l-.73,0,.67-1.12m-.24-3.47v0a2,2,0,0,0-.37.38l-1.88-.06.06-.29a2.55,2.55,0,0,1,1.7-1.39c.16.45.32.89.48,1.34m2.2-.49-.07.11a4.21,4.21,0,0,0-.94,0c-.15-.4-.29-.81-.44-1.21a10.64,10.64,0,0,1,1.28-.09,3.06,3.06,0,0,1,1,.15l-.81,1.08M130,167a2,2,0,0,1,1,0,.51.51,0,0,0,.36.18c0,.09-.07.19-.06.28s-.08.14-.08.21h0c0,.2.08.38-.08.56a1.38,1.38,0,0,1-1.52.24c-.61-.34-.17-1.3.4-1.48m-3.38,2a4.38,4.38,0,0,1-.1-1.29l1.58.05a2,2,0,0,0,.14.88l-1,1.62a2.54,2.54,0,0,1-.65-1.26m5.61,1.16q-.22-.4-.43-.81a2,2,0,0,0,.75-.95l0-.11,1.15,0a3.18,3.18,0,0,1-1.51,1.84m15.43-2.39c0,.17,0,.34,0,.51a116.56,116.56,0,0,0-12.5-1.16,4.48,4.48,0,0,0-1.34-3c2.49-3.32,5-6.65,7.68-9.81a19.63,19.63,0,0,1,6.18,13.44m-11.29-18.15c-7.51-3.23-15.72-.12-20.72,6-5.23,6.37-6.77,14.63-2.08,21.74a20,20,0,0,0,19.32,9.07,18.88,18.88,0,0,0,11.72-5.54c3.24-3.54,4.22-8.45,4.3-13.1a20.33,20.33,0,0,0-12.55-18.15"/><g class="cls-14"><path class="cls-13" d="M334.18,2.32a2.8,2.8,0,0,1,4.25,1.18.63.63,0,0,0,1,.13,3.72,3.72,0,0,1,4.53-1.16c.75.3,1.08-.91.34-1.22a4.89,4.89,0,0,0-5.2.89,4,4,0,0,0-5.55-.91c-.68.44-.05,1.53.64,1.09"/></g><path class="cls-13" d="M314,12.55a4.11,4.11,0,0,1,6.2,1.71.64.64,0,0,0,1,.13,5.36,5.36,0,0,1,6.48-1.66c.75.31,1.08-.91.34-1.22a6.52,6.52,0,0,0-7.14,1.37,5.27,5.27,0,0,0-7.5-1.42c-.68.44,0,1.53.64,1.09M121.07,49.16h10.09a.34.34,0,0,0,.27.15l.13-.16a.59.59,0,0,0,.51-.75c-.65-1.65,2.41-3.55,3.6-3.42a4,4,0,0,1,3.52,3.2.63.63,0,0,0,.23.33.54.54,0,0,0,.37.17h.06a.57.57,0,0,0,.6-.37.62.62,0,0,0,0-.41,4.32,4.32,0,0,0-.1-.48c-.55-2.78-.62-5.2,1.18-7.64a8.56,8.56,0,0,1,14.17.51c1.22,2,1.21,3.94,1.11,6.08,0,.38,0,.76-.05,1.13v.09s0,0,0,.05a.56.56,0,0,0,.43,1H174.4c1.12,0,1.12-1.12,0-1.12H158.09a18,18,0,0,0,.11-1.93s-.08,0-.08,0h.08s0-.1,0-.14a.48.48,0,0,0-.09-.25,9.47,9.47,0,0,0-1.79-6.17,9.83,9.83,0,0,0-15.77.06,8.9,8.9,0,0,0-1.74,6.06,4.31,4.31,0,0,0-4.08-1.22c-1.6.3-4.07,2.26-4,4.21h-9.64c-.56,0-.56,1.12,0,1.12"/></svg>