<svg width="90" height="86" fill="none" xmlns="http://www.w3.org/2000/svg"><path d="M89.078 44.73c0 8.69-1.603 15.665-4.837 20.925A44.957 44.957 0 0 1 72.85 78.423c-6.188 4.782-14.85 7.144-25.987 7.144H.203V.742h35.888c4.64-.028 9.28.253 13.865.844A62.243 62.243 0 0 1 60.334 3.92a41.27 41.27 0 0 1 7.847 3.375 41.223 41.223 0 0 1 5.822 4.022 39.241 39.241 0 0 1 7.763 8.381 40.512 40.512 0 0 1 5.315 11.194 45.146 45.146 0 0 1 1.997 13.838Zm-26.55-1.125c0-6.891-1.35-12.263-4.022-16.116-2.306-3.544-5.681-6.272-9.675-7.734a34.817 34.817 0 0 0-11.503-1.97h-12.01c4.276 7.229 3.404 44.27 0 50.204H37.3a32.395 32.395 0 0 0 17.69-4.781c5.007-3.178 7.482-9.731 7.482-19.631l.056.028Z" fill="#F0292A"/></svg>
