<?xml version="1.0" encoding="utf-8"?>
<!-- Generator: Adobe Illustrator 22.0.0, SVG Export Plug-In . SVG Version: 6.00 Build 0)  -->
<svg version="1.1" xmlns="http://www.w3.org/2000/svg" xmlns:xlink="http://www.w3.org/1999/xlink" x="0px" y="0px" width="50px"
	 height="50px" viewBox="0 0 50 50" style="enable-background:new 0 0 50 50;" xml:space="preserve">
<style type="text/css">
	.st0{fill:#FFFFFF;}
	.st1{fill:#A4ABB1;}
</style>
<g id="Layer_1">
</g>
<g id="Lager_1">
	<rect class="st0" width="50" height="50"/>
	<path class="st1" d="M37.6,31.7c-3.3,3.8-6.1,5.2-10.6,5.4c-6.6,0.2-12.1-5.4-12.1-12.1c0-6.7,5.4-12.1,12.1-12.1
		c2.4,0,4.8,0.7,6.8,2.1c0.6,0.4,1.2,0.8,1.8,1.3l-1.8,1.8c-1.8-1.8-4.2-2.8-6.8-2.8c-5.3,0-9.7,4.3-9.7,9.7c0,5.3,4.3,9.7,9.7,9.7
		c2,0,4.3-1,6.4-2.6c0.7-0.6,1.8-1.8,2.2-2.3l-2-1.9c-0.2,0.2-1.5,1.6-2,2c-1.6,1.3-3.3,2-4.7,2c-3.8,0-6.9-3.1-6.9-6.9
		c0-3.8,3.1-6.9,6.9-6.9c2.9,0,5,1.9,6.8,4l5.7-5.8l-1-1c-0.9-1-2.1-1.8-3.2-2.6c-2.5-1.7-5.4-2.6-8.4-2.6
		c-8.2,0-14.8,6.6-14.8,14.8c0,8.2,6.6,14.8,14.8,14.8c4,0,7.7-1.6,10.5-4.4l2,2c-3.3,3.3-7.8,5.2-12.5,5.2
		c-9.7,0-17.6-7.9-17.6-17.6c0-9.7,7.9-17.6,17.6-17.6c4.1,0,8.2,1.5,11.3,4.1c0.7,0.6,2.5,2.3,3.1,3l2-1.9
		c-0.7-0.8-2.5-2.5-3.3-3.2C36.4,6.3,31.8,4.7,27,4.7C15.8,4.7,6.6,13.8,6.6,25c0,11.2,9.1,20.3,20.3,20.3c6,0,11.9-2.9,16.4-8
		L37.6,31.7"/>
</g>
</svg>
