<?xml version="1.0" encoding="utf-8"?>
<!-- Generator: Adobe Illustrator 28.0.0, SVG Export Plug-In . SVG Version: 6.00 Build 0)  -->
<svg version="1.1" xmlns="http://www.w3.org/2000/svg" xmlns:xlink="http://www.w3.org/1999/xlink" x="0px" y="0px"
	 viewBox="0 0 4785.79 790.49" style="enable-background:new 0 0 4785.79 790.49;" xml:space="preserve">
<style type="text/css">
	.st0{fill:#FFFFFF;}
</style>
<g id="Background">
</g>
<g id="Artwork">
	<g>
		<path class="st0" d="M720,720h160V240H720V720z M960,160h400V0H960V160z M720,0h160v160H720V0z M480,720h160V0H480V720z M240,560
			h160V0H240V560z M0,720h160V0H0V720z M960,720h160V240H960V720z"/>
		<g>
			<path class="st0" d="M1508.07,570.63c0-89.79,56.22-156.51,144.76-156.51c88.53,0,144.34,66.71,144.34,156.51
				c0,89.79-55.8,156.09-144.34,156.09C1564.29,726.71,1508.07,660.42,1508.07,570.63z M1735.07,570.63
				c0-60-26.85-106.58-81.82-106.58s-83.08,46.57-83.08,106.58c0,59.58,28.11,106.16,83.08,106.16S1735.07,630.21,1735.07,570.63z"
				/>
			<path class="st0" d="M1825.69,504.75h54.97v26.85h1.26c13.85-18.88,33.99-32.73,63.36-32.73c57.06,0,93.57,46.57,93.57,113.71
				c0,69.65-37.76,113.71-93.15,113.71c-30.21,0-49.93-12.17-62.1-30.63h-0.84v94.83h-57.06V504.75z M1980.94,614.26
				c0-40.7-14.27-69.23-49.51-69.23c-35.67,0-49.93,30.63-49.93,69.23c0,39.02,18.04,64.62,52.03,64.62
				C1962.48,678.88,1980.94,654.96,1980.94,614.26z"/>
			<path class="st0" d="M2054.78,612.17c0-63.78,43.22-113.29,106.16-113.29c69.23,0,106.16,52.87,106.16,129.65h-156.09
				c4.2,33.15,22.66,53.71,54.97,53.71c22.24,0,35.25-10.07,41.54-26.43h56.22c-7.97,38.18-41.96,70.49-97.34,70.49
				C2095.06,726.29,2054.78,676.36,2054.78,612.17z M2111.85,589.09h95.67c-1.68-27.27-19.72-46.15-45.73-46.15
				C2131.57,542.93,2116.88,560.98,2111.85,589.09z"/>
			<path class="st0" d="M2349.33,534.12h1.26c14.69-23.08,34.41-35.25,63.78-35.25c44.48,0,74.27,33.57,74.27,80.56V720h-57.06
				V587.83c0-23.08-13.43-39.44-37.34-39.44c-25.17,0-43.64,20.14-43.64,49.51V720h-57.06V504.75h55.8V534.12z"/>
			<path class="st0" d="M2515.48,571.05c0-88.95,55.38-156.93,143.92-156.93c73.85,0,117.48,44.06,123.78,101.12h-60.42
				c-5.46-30.21-28.11-49.93-63.36-49.93c-55.39,0-81.82,46.16-81.82,105.74c0,61.26,31.89,105.32,82.24,105.32
				c35.66,0,60.84-21.4,64.62-52.87h59.58c-1.68,26.43-13.01,52.03-33.15,70.91c-20.56,19.3-49.51,31.89-91.05,31.89
				C2575.48,726.29,2515.48,661.26,2515.48,571.05z"/>
			<path class="st0" d="M2802.46,612.59c0-64.2,45.74-113.71,112.45-113.71c66.71,0,112.45,49.51,112.45,113.71
				c0,64.2-45.73,113.71-112.45,113.71C2848.2,726.29,2802.46,676.78,2802.46,612.59z M2969.46,612.59
				c0-41.96-19.72-70.49-54.55-70.49c-35.25,0-54.55,28.53-54.55,70.49c0,41.96,19.3,70.07,54.55,70.07
				C2949.74,682.66,2969.46,654.54,2969.46,612.59z"/>
			<path class="st0" d="M3189.73,720v-25.18h-1.26c-14.69,19.72-31.47,31.05-61.68,31.05c-47.83,0-74.69-30.63-74.69-77.62v-143.5
				h56.64V638.6c0,25.18,11.33,39.02,35.67,39.02c26.85,0,43.22-20.14,43.22-48.67v-124.2h57.06V720H3189.73z"/>
			<path class="st0" d="M3336.58,539.16h1.26c13.01-24.34,27.69-36.92,52.87-36.92c6.29,0,10.07,0.42,13.43,1.68v49.93h-1.26
				c-37.34-3.78-64.2,15.94-64.2,61.26V720h-57.06V504.75h54.97V539.16z"/>
			<path class="st0" d="M3415.46,650.35h52.87c3.78,24.76,21.4,35.67,46.99,35.67c25.17,0,39.44-9.65,39.44-24.76
				c0-20.56-27.27-22.66-56.64-28.53c-38.6-7.55-76.36-18.04-76.36-65.04c0-46.57,38.6-68.81,87.69-68.81
				c56.64,0,88.11,28.11,92.31,71.33h-51.61c-2.52-23.08-17.2-31.47-41.54-31.47c-22.24,0-36.92,8.39-36.92,23.92
				c0,18.46,28.53,20.14,59.16,26.43c36.08,7.55,75.95,17.62,75.95,67.97c0,43.22-36.92,69.23-90.63,69.23
				C3453.65,726.29,3418.82,696.08,3415.46,650.35z"/>
			<path class="st0" d="M3623.98,612.17c0-63.78,43.22-113.29,106.16-113.29c69.23,0,106.16,52.87,106.16,129.65h-156.09
				c4.2,33.15,22.66,53.71,54.97,53.71c22.24,0,35.25-10.07,41.54-26.43h56.22c-7.97,38.18-41.96,70.49-97.34,70.49
				C3664.26,726.29,3623.98,676.36,3623.98,612.17z M3681.05,589.09h95.67c-1.68-27.27-19.72-46.15-45.73-46.15
				C3700.77,542.93,3686.08,560.98,3681.05,589.09z"/>
			<path class="st0" d="M3846.36,420h62.1l39.02,148.95c5.88,25.6,13.01,65.46,13.01,65.46h0.84c0,0,7.55-37.34,13.85-63.78
				L4007.9,420h58.74l32.73,150.21c6.29,26.43,13.85,64.2,13.85,64.2h0.84c0,0,8.81-39.86,14.69-65.88L4166.5,420h60l-85.6,300
				h-56.64l-36.5-160.7c-5.04-21.82-10.49-53.29-10.49-53.29h-0.84c0,0-4.62,31.47-9.65,53.29L3989.86,720h-56.22L3846.36,420z"/>
			<path class="st0" d="M4352.79,696.08h-0.84c-10.91,16.36-26.43,28.95-63.36,28.95c-44.06,0-75.11-23.08-75.11-65.88
				c0-47.41,38.6-62.52,86.44-69.23c35.66-5.04,52.03-7.97,52.03-24.34c0-15.52-12.17-25.59-36.08-25.59
				c-26.85,0-39.86,9.65-41.54,30.21h-50.77c1.68-37.76,29.79-70.91,92.73-70.91c64.62,0,90.63,28.95,90.63,79.3v109.51
				c0,16.36,2.52,26.01,7.55,29.79v2.1h-54.97C4356.15,715.8,4354.05,705.73,4352.79,696.08z M4353.21,644.05v-32.31
				c-10.07,5.88-25.59,9.23-39.86,12.59c-29.79,6.71-44.48,13.43-44.48,33.57c0,20.14,13.43,27.27,33.57,27.27
				C4335.17,685.17,4353.21,665.03,4353.21,644.05z"/>
			<path class="st0" d="M4497.96,539.16h1.26c13.01-24.34,27.69-36.92,52.87-36.92c6.29,0,10.07,0.42,13.43,1.68v49.93h-1.26
				c-37.34-3.78-64.2,15.94-64.2,61.26V720h-57.06V504.75h54.97V539.16z"/>
			<path class="st0" d="M4573.48,612.17c0-63.78,43.22-113.29,106.16-113.29c69.23,0,106.16,52.87,106.16,129.65h-156.09
				c4.2,33.15,22.66,53.71,54.97,53.71c22.24,0,35.25-10.07,41.54-26.43h56.22c-7.97,38.18-41.96,70.49-97.34,70.49
				C4613.76,726.29,4573.48,676.36,4573.48,612.17z M4630.55,589.09h95.67c-1.68-27.27-19.72-46.15-45.73-46.15
				C4650.27,542.93,4635.58,560.98,4630.55,589.09z"/>
		</g>
	</g>
</g>
<g id="Guides">
</g>
</svg>
