<svg width="143" height="26" viewBox="0 0 143 26" fill="none" xmlns="http://www.w3.org/2000/svg">
  <path
    d="M0.462 25V0.689999H9.71L13.45 14.29H13.518L17.258 0.689999H26.574V25H20.148V9.768H20.08L16.034 25H10.832L6.786 9.768H6.718V25H0.462ZM29.4815 25V0.689999H36.5875V25H29.4815ZM38.5569 6.742V0.689999H59.5009V6.742H52.5309V25H45.4249V6.742H38.5569ZM67.2834 25V0.689999H69.5614V22.892H82.5154V25H67.2834ZM91.5167 25.442C88.9553 25.442 86.9493 24.592 85.4987 22.892C84.048 21.1693 83.3227 18.948 83.3227 16.228C83.3227 13.5533 84.0593 11.3547 85.5327 9.632C87.006 7.88667 88.944 7.014 91.3467 7.014C92.7067 7.014 93.8853 7.27467 94.8827 7.796C95.9027 8.31733 96.696 9.04267 97.2627 9.972C97.8293 10.9013 98.2373 11.9213 98.4867 13.032C98.7587 14.12 98.8947 15.31 98.8947 16.602H85.4987C85.544 18.6873 86.0767 20.3873 87.0967 21.702C88.1167 22.994 89.59 23.64 91.5167 23.64C94.1913 23.64 95.9027 22.3253 96.6507 19.696H98.6907C98.3053 21.464 97.4893 22.8693 96.2427 23.912C95.0187 24.932 93.4433 25.442 91.5167 25.442ZM85.5327 14.936H96.6847C96.6393 13.1 96.1633 11.6153 95.2567 10.482C94.3727 9.326 93.0693 8.748 91.3467 8.748C89.6467 8.748 88.298 9.31467 87.3007 10.448C86.326 11.5813 85.7367 13.0773 85.5327 14.936ZM106.266 25.408C104.566 25.408 103.184 24.9887 102.118 24.15C101.053 23.3113 100.52 22.0987 100.52 20.512C100.52 19.5147 100.69 18.676 101.03 17.996C101.393 17.2933 101.937 16.7493 102.662 16.364C103.41 15.9787 104.158 15.6953 104.906 15.514C105.677 15.31 106.629 15.14 107.762 15.004C109.666 14.7773 110.924 14.5393 111.536 14.29C112.171 14.018 112.488 13.4627 112.488 12.624V12.284C112.488 9.92667 111.083 8.748 108.272 8.748C105.144 8.748 103.501 10.0513 103.342 12.658H101.268C101.382 10.9127 102.028 9.54133 103.206 8.544C104.385 7.54667 106.074 7.048 108.272 7.048C112.42 7.048 114.494 8.86133 114.494 12.488V22.042C114.494 23.0167 114.88 23.5267 115.65 23.572C115.764 23.572 116.024 23.5267 116.432 23.436H116.534V24.966C116.126 25.1473 115.65 25.238 115.106 25.238C113.474 25.238 112.613 24.4107 112.522 22.756V22.382H112.42C110.992 24.3993 108.941 25.408 106.266 25.408ZM106.64 23.708C108.454 23.708 109.882 23.198 110.924 22.178C111.99 21.1353 112.522 19.9567 112.522 18.642V15.48C111.661 15.956 110.142 16.3413 107.966 16.636C107.241 16.7267 106.663 16.8173 106.232 16.908C105.824 16.9987 105.36 17.1347 104.838 17.316C104.34 17.4973 103.954 17.7127 103.682 17.962C103.433 18.2113 103.206 18.5513 103.002 18.982C102.821 19.4127 102.73 19.9227 102.73 20.512C102.73 22.6427 104.034 23.708 106.64 23.708ZM118.473 25V7.422H120.581V10.686H120.649C121.85 8.41933 123.641 7.286 126.021 7.286C126.225 7.286 126.418 7.30867 126.599 7.354V9.428C125.216 9.20133 123.97 9.48467 122.859 10.278C121.34 11.4113 120.581 12.9867 120.581 15.004V25H118.473ZM128.932 25V7.422H131.04V10.108H131.108C132.491 8.068 134.451 7.048 136.99 7.048C138.667 7.048 140.016 7.53533 141.036 8.51C142.079 9.462 142.6 10.7993 142.6 12.522V25H140.492V12.726C140.492 10.142 139.155 8.85 136.48 8.85C134.961 8.85 133.669 9.326 132.604 10.278C131.561 11.23 131.04 12.42 131.04 13.848V25H128.932Z"
    fill="white" />
</svg>
