<?xml version="1.0" encoding="utf-8"?>
<!-- Generator: Adobe Illustrator 23.0.6, SVG Export Plug-In . SVG Version: 6.00 Build 0)  -->
<svg version="1.1" xmlns="http://www.w3.org/2000/svg" xmlns:xlink="http://www.w3.org/1999/xlink" x="0px" y="0px" width="285px"
	 height="70px" viewBox="0 0 285 70" style="enable-background:new 0 0 285 70;" xml:space="preserve">
<style type="text/css">
	.st0{fill:#FFFFFF;}
</style>
<g id="Layer_1">
</g>
<g id="Lager_1">
	<g>
		<path class="st0" d="M52.5,46.2C47.1,52.4,42.4,54.8,35,55C24,55.3,15,46.1,15,35.1c0-11,8.9-19.9,19.9-19.9c4,0,7.9,1.2,11.3,3.5
			c0.9,0.7,2,1.4,2.9,2.1l-3,3c-3-2.9-7-4.6-11.2-4.6c-8.8,0-15.9,7.2-15.9,15.9C19,43.9,26.2,51,35,51c3.2,0,7.1-1.6,10.5-4.3
			c1.1-0.9,3-3,3.7-3.7l-3.2-3.2c-0.4,0.4-2.4,2.7-3.3,3.4c-2.6,2.1-5.5,3.3-7.7,3.3c-6.3,0-11.4-5.1-11.4-11.4
			c0-6.3,5.1-11.4,11.4-11.4c4.8,0,8.3,3.1,11.3,6.7l9.4-9.5L54,19.2c-1.5-1.6-3.5-3-5.2-4.2c-4.1-2.8-8.8-4.3-13.8-4.3
			c-13.5,0-24.4,11-24.4,24.4c0,13.5,11,24.4,24.4,24.4c6.6,0,12.8-2.6,17.4-7.3l3.3,3.3c-5.5,5.5-12.9,8.6-20.7,8.6
			c-16,0-29.1-13.1-29.1-29.1C5.9,19.1,18.9,6,35,6c6.8,0,13.5,2.4,18.7,6.8c1.2,1,4.1,3.8,5.1,4.9l3.3-3.1
			c-1.1-1.3-4.1-4.1-5.5-5.3c-6-5.1-13.7-7.9-21.6-7.9C16.4,1.5,1.4,16.6,1.4,35.1c0,18.5,15.1,33.6,33.6,33.6
			c9.8,0,19.7-4.8,27.1-13.2L52.5,46.2"/>
		<g>
			<path class="st0" d="M89.2,56.6c-11,0-14.9-10.8-14.9-20.1C74.3,27.6,78,16,88.7,16c1.6,0,2.9,0.3,4.3,0.9V23
				c-1-0.4-2.1-0.7-3.2-0.7c-7.1,0-8.7,8.5-8.7,14c0,5.6,1.7,14.2,8.7,14.2c1.1,0,2.1-0.3,3.1-0.7v6.1
				C91.8,56.4,90.5,56.6,89.2,56.6"/>
			<path class="st0" d="M119.6,36.3c0-11-3.5-20.4-12.2-20.4c-8.6,0-12.1,9.4-12.1,20.4c0,11,3.5,20.4,12.1,20.4
				C116.1,56.8,119.6,47.3,119.6,36.3 M112.6,36.3c0,5.8-0.5,14.3-5.2,14.3c-4.7,0-5.2-8.5-5.2-14.3c0-6,0.5-14.3,5.2-14.3
				C112.2,22,112.7,30.4,112.6,36.3L112.6,36.3z"/>
			<path class="st0" d="M139.8,56.2l-9.5-27.2l-0.1,0.1l0.3,3.3l0.5,7.5v16.4h-6.6V16.5h6.3l9.5,27l0.2-0.1c-0.3-0.9-1-9.9-1-10.9
				v-16h6.6v39.7H139.8"/>
			<polyline class="st0" points="158.4,22.5 158.4,32.9 166.1,32.9 166.1,38.9 158.5,38.9 158.5,56.2 151.9,56.2 151.9,16.5 
				166.9,16.5 166.9,22.5 158.4,22.5 			"/>
			<rect x="171.3" y="16.5" class="st0" width="6.6" height="39.7"/>
			<path class="st0" d="M205.4,24.7l-6.3,2.5c-0.4-2.3-1.2-5.1-4.3-5.2c-4.8-0.1-5.3,7.7-5.3,14.3c0,8.9,1.3,14.3,5.4,14.3
				c2.7,0,4.4-2,4.5-8.2c0.2-0.3,0.1-1.6,0.1-1.8h-4.7v-6h11.3v1.8c0,8-0.5,20.3-11.1,20.3c-10,0-12.4-10.3-12.4-20.3
				c0-10.1,1.9-20.6,12.1-20.6C200.6,15.9,203.9,19.3,205.4,24.7"/>
			<path class="st0" d="M220.5,56.8c-7.8,0-10.4-4.5-10.4-11.8V16.5h6.5v27.3c0,4.1,0.6,6.9,3.8,6.9c3.7,0,3.9-2.6,3.9-5.7V16.5h6.6
				V45C231,49.8,230.7,56.8,220.5,56.8"/>
			<path class="st0" d="M257.1,56.2L250,37.5c4.2-1.5,5.6-6.2,5.6-10.3c0-10.4-7.5-10.7-11.9-10.7h-7.1v39.7h6.6V37.3h0.1l7,18.9
				H257.1 M244.1,22c4,0,4.9,2.6,4.9,5.9c0,3.4-1.3,5.8-4.5,5.9c-0.2,0-1.1,0-1.4,0V22H244.1z"/>
			<path class="st0" d="M282.9,56.2l-9-39.7h-6.2l-8.9,39.7h6.5l1.5-7.2h7.9l1.5,7.2H282.9 M273.6,43.8h-5.9l1.8-11.7l1-6.6h0.1
				l1.5,10.2L273.6,43.8z"/>
		</g>
	</g>
</g>
</svg>
