<svg width="143" height="24" viewBox="0 0 143 24" fill="none" xmlns="http://www.w3.org/2000/svg">
<g id="Logo / DoneDeal Logos">
<path id="Shape" d="M0.526123 23.6539V0H8.52492C11.7538 0 14.2977 0.489223 16.1813 1.44321C18.0403 2.39719 19.6058 3.88932 20.6576 5.69945C21.7584 7.55849 22.3455 9.68661 22.321 11.8392C22.321 16.6825 19.3123 21.0366 14.7625 22.7489C13.9798 23.0669 13.1481 23.3115 12.2919 23.4582C11.5581 23.5805 10.1149 23.6295 8.01123 23.6295L0.526123 23.6539ZM8.158 3.00872H3.92622V20.6452H8.2803C9.96812 20.6452 11.289 20.5229 12.2185 20.3027C13.0258 20.1071 13.833 19.8135 14.5668 19.4221C15.2028 19.0552 15.7654 18.6149 16.2791 18.1012C17.9669 16.4134 18.7986 14.2608 18.7986 11.668C18.7986 9.12401 17.9425 7.04481 16.2302 5.43037C15.5942 4.81884 14.8604 4.32962 14.0531 3.96271C13.3193 3.59579 12.5365 3.35118 11.7293 3.20441C10.5307 3.05764 9.3566 2.98426 8.158 3.00872Z" fill="#F0292A"/>
<path id="Vector" d="M31.8617 8.04773C34.2344 8.04773 36.2158 8.80603 37.7813 10.3471C39.3468 11.8881 40.1296 13.7961 40.1296 16.1199C40.1785 18.248 39.2979 20.3028 37.7324 21.7215C36.1424 23.2136 34.1366 23.9475 31.7149 23.9475C29.3667 23.9475 27.4098 23.1892 25.8442 21.6726C24.3032 20.2049 23.4471 18.1502 23.496 16.0221C23.4471 13.8695 24.3032 11.7903 25.8687 10.3226C27.4831 8.83049 29.4645 8.04773 31.8617 8.04773ZM31.6905 10.8363C30.3206 10.7874 28.9997 11.3255 28.0457 12.304C27.0918 13.2824 26.627 14.5299 26.627 16.0221C26.627 17.5142 27.1162 18.7372 28.0947 19.6912C29.0731 20.6452 30.3206 21.11 31.8372 21.11C33.3538 21.11 34.6013 20.6208 35.5553 19.6668C36.5093 18.7128 36.9985 17.4897 36.9985 15.9976C37.0475 14.6033 36.4848 13.2824 35.4819 12.304C34.479 11.35 33.1092 10.8118 31.6905 10.8363Z" fill="#F0292A"/>
<path id="Vector_2" d="M44.923 8.07213V10.0779C46.2928 8.53689 47.8584 7.77859 49.6196 7.77859C50.5735 7.77859 51.5031 8.04767 52.3347 8.53689C53.1664 9.02611 53.8269 9.73549 54.2427 10.6161C54.683 11.4967 54.9032 12.891 54.9032 14.7745V23.7028H51.8211V14.8234C51.8211 13.2334 51.5765 12.0838 51.0872 11.3988C50.598 10.7139 49.7908 10.3715 48.6411 10.3715C47.1734 10.3715 45.9259 11.1053 44.923 12.573V23.7028H41.7675V8.07213H44.923Z" fill="#F0292A"/>
<path id="Vector_3" d="M70.7787 15.8998C70.7787 15.8998 63.1957 16.9516 59.7956 16.3401C59.1107 16.2178 60.4805 19.0063 61.4345 19.838C62.3885 20.6697 63.6116 21.0855 65.0548 21.0121C67.0851 20.9388 69.0419 20.1805 70.6075 18.884L70.7298 21.8927C69.8981 22.5287 68.9686 23.018 67.9657 23.3604C66.9138 23.7029 65.8131 23.8741 64.7123 23.8986C63 23.9719 61.5813 23.6784 60.505 22.9935C59.4042 22.3086 58.4747 21.3546 57.8387 20.2294C57.1293 18.9574 56.738 17.5387 56.7135 16.0955C56.6157 13.7227 57.2027 11.7658 58.4992 10.2248C59.7712 8.68373 61.4834 7.87651 63.636 7.77866C65.7152 7.70528 67.3786 8.34127 68.675 9.76002C69.9715 11.1788 70.6564 13.0867 70.7542 15.5084L70.7787 15.8998ZM60.4561 14.481C60.8964 14.1386 67.8189 13.9673 68.3081 14.163C68.7973 14.3587 67.77 11.986 67.085 11.35C66.4001 10.714 65.4951 10.396 64.3943 10.4449C63.3914 10.4449 62.413 10.8363 61.7036 11.5701C61.0431 12.2551 60.0158 14.8235 60.4561 14.481Z" fill="#F0292A"/>
<path id="Vector_4" d="M97.3429 12.3773C97.3429 14.7745 96.9026 16.7314 96.022 18.1746C95.2148 19.5444 94.163 20.743 92.9154 21.7215C91.2276 23.0424 88.8794 23.7028 85.8462 23.7028H73.1509V0.171196H82.9109C84.1828 0.146735 85.4303 0.244579 86.6779 0.391346C87.6318 0.513652 88.5858 0.733802 89.4909 1.02734C90.2247 1.27195 90.9586 1.58994 91.619 1.95686C92.1816 2.27485 92.6953 2.66623 93.209 3.08207C94.0162 3.74252 94.7256 4.52528 95.3126 5.40588C95.9486 6.35986 96.4378 7.41169 96.7558 8.51244C97.1717 9.78442 97.3429 11.0809 97.3429 12.3773ZM90.1269 12.0838C90.1269 10.1758 89.76 8.68367 89.0261 7.60738C88.4146 6.62894 87.4851 5.87064 86.3843 5.4548C85.3814 5.08788 84.3296 4.91666 83.2533 4.91666H79.9755C81.1497 6.92247 80.905 17.1961 79.9755 18.835H83.2288C84.9167 18.884 86.6045 18.4192 88.0477 17.5141C89.442 16.6335 90.1269 14.8234 90.1269 12.0838Z" fill="#F0292A"/>
<path id="Vector_5" d="M116.643 15.5817C116.643 15.5817 108.204 17.3185 104.608 16.7069C103.801 16.5602 105.538 18.566 106.492 19.1775C107.446 19.7891 108.571 20.0826 109.696 19.9847C111.751 19.8624 114.001 19.1775 116.423 17.9055L116.619 21.6726C115.616 22.2596 114.539 22.7244 113.439 23.1158C112.191 23.5561 110.577 23.8496 108.62 23.9475C106.492 24.0698 104.681 23.7762 103.14 23.0668C101.697 22.4309 100.474 21.379 99.618 20.0337C98.7863 18.6638 98.3216 17.0983 98.2482 15.4839C98.1259 13.8939 98.4194 12.3039 99.1043 10.8852C99.7892 9.46645 100.914 8.31678 102.284 7.55848C103.727 6.7268 105.513 6.23758 107.641 6.11527C109.036 6.04189 110.454 6.26204 111.751 6.80019C113.145 7.36279 114.319 8.34124 115.126 9.58876C116.056 10.9097 116.57 12.6709 116.692 14.8479L116.643 15.5817ZM112.02 13.2579C112.656 13.4047 111.628 11.2766 111.066 10.665C110.479 10.0291 109.672 9.73552 108.644 9.80891C107.715 9.83337 106.834 10.2492 106.247 10.9586C105.66 11.668 104.755 13.8939 105.464 13.6493C106.271 13.3313 110.772 12.9889 112.02 13.2579Z" fill="#F0292A"/>
<path id="Vector_6" d="M135.87 22.8222C134.965 23.1647 134.158 23.4582 133.4 23.6783C132.519 23.923 131.59 24.0208 130.66 23.9963C129.657 23.9963 128.948 23.8251 128.556 23.4582C128.165 23.1157 127.871 22.651 127.7 22.1618C127.04 22.6999 126.306 23.1402 125.523 23.4827C124.716 23.8251 123.664 23.9963 122.368 23.9963C121.12 23.9963 120.093 23.7762 119.335 23.3359C118.625 22.969 118.063 22.4064 117.72 21.697C117.402 21.061 117.255 20.3516 117.255 19.6423C117.231 18.7127 117.5 17.7832 118.063 17.0249C118.65 16.2911 119.383 15.704 120.215 15.3126C121.389 14.7745 122.588 14.3097 123.811 13.9428L125.743 13.3313C126.184 13.1845 126.502 13.0867 126.722 12.9888C126.942 12.891 127.187 12.7931 127.407 12.6953C127.407 11.8636 127.235 11.2032 126.893 10.7384C126.551 10.2736 125.817 10.029 124.692 10.029C123.395 10.029 122.123 10.3226 120.973 10.9096C119.824 11.4967 118.772 12.2795 117.842 13.1845V8.46352C118.601 7.92538 119.432 7.46061 120.313 7.11816C121.194 6.7757 122.123 6.50663 123.077 6.3354C124.031 6.16417 125.01 6.09079 125.988 6.09079C128.483 6.09079 130.367 6.58001 131.638 7.534C132.91 8.48798 133.522 9.83334 133.522 11.5212V18.1746C133.498 18.6638 133.571 19.1286 133.693 19.5933C133.767 19.8869 134.036 20.0826 134.354 20.0581C134.892 20.0092 135.43 19.838 135.919 19.5689L135.87 22.8222ZM127.358 19.4955V15.4349C126.257 15.8508 125.181 16.3889 124.202 17.0249C123.566 17.4408 123.175 18.1501 123.199 18.9329C123.175 19.4221 123.346 19.9113 123.689 20.2538C124.007 20.5473 124.422 20.7186 124.838 20.7186C125.279 20.7186 125.694 20.5962 126.086 20.3761C126.526 20.107 126.966 19.8135 127.358 19.4955Z" fill="#F0292A"/>
<path id="Vector_7" d="M142.474 23.7029H136.359V0.171295H142.474V23.7029Z" fill="#F0292A"/>
</g>
</svg>
