<?xml version="1.0" encoding="iso-8859-1"?>
<!-- Generator: Adobe Illustrator 25.1.0, SVG Export Plug-In . SVG Version: 6.00 Build 0)  -->
<svg version="1.1" id="Artwork" xmlns="http://www.w3.org/2000/svg" xmlns:xlink="http://www.w3.org/1999/xlink" x="0px" y="0px"
	 viewBox="0 0 3116.072 799.307" style="enable-background:new 0 0 3116.072 799.307;" xml:space="preserve">
<path d="M720,725.879h160v-480H720V725.879z M960,165.879h400v-160H960V165.879z M720,5.879h160v160H720V5.879z M480,725.879h160
	v-720H480V725.879z M240,565.879h160v-560H240V565.879z M0,725.879h160v-720H0V725.879z M960,725.879h160v-480H960V725.879z"/>
<g>
	<path d="M1543.077,425.875h60.84v249.233h140.981v50.771h-201.821V425.875z"/>
	<path d="M1758.32,618.045c0-63.777,43.218-113.288,106.155-113.288c69.231,0,106.155,52.868,106.155,129.652h-156.086
		c4.196,33.147,22.657,53.707,54.966,53.707c22.238,0,35.245-10.07,41.539-26.435h56.225c-7.973,38.183-41.959,70.491-97.344,70.491
		C1798.601,732.173,1758.32,682.241,1758.32,618.045z M1815.384,594.968h95.666c-1.679-27.273-19.721-46.154-45.735-46.154
		C1835.104,548.813,1820.419,566.855,1815.384,594.968z"/>
	<path d="M2125.87,701.962h-0.839c-10.909,16.364-26.434,28.952-63.357,28.952c-44.057,0-75.106-23.077-75.106-65.875
		c0-47.414,38.603-62.519,86.436-69.232c35.664-5.035,52.028-7.972,52.028-24.336c0-15.524-12.168-25.595-36.084-25.595
		c-26.854,0-39.861,9.65-41.539,30.21h-50.771c1.679-37.763,29.791-70.909,92.729-70.909c64.616,0,90.631,28.951,90.631,79.302
		V693.99c0,16.363,2.518,26.015,7.553,29.79v2.099h-54.966C2129.228,721.683,2127.129,711.612,2125.87,701.962z M2126.29,649.934
		v-32.309c-10.07,5.875-25.595,9.231-39.86,12.588c-29.791,6.714-44.477,13.427-44.477,33.567c0,20.14,13.427,27.272,33.567,27.272
		C2108.248,691.053,2126.29,670.913,2126.29,649.934z"/>
	<path d="M2271.04,545.037h1.259c13.007-24.336,27.692-36.924,52.867-36.924c6.294,0,10.07,0.42,13.428,1.679v49.931h-1.259
		c-37.344-3.776-64.197,15.944-64.197,61.26v104.896h-57.063V510.631h54.966V545.037z"/>
	<path d="M2419.15,540.002h1.259c14.686-23.077,34.406-35.245,63.777-35.245c44.476,0,74.267,33.566,74.267,80.561v140.562h-57.063
		v-132.17c0-23.077-13.427-39.441-37.344-39.441c-25.175,0-43.637,20.141-43.637,49.512v122.1h-57.063V510.631h55.805V540.002z"/>
	<path d="M2593.693,425.875h57.063v51.189h-57.063V425.875z M2593.693,510.631h57.063v215.248h-57.063V510.631z"/>
	<path d="M2743.483,540.002h1.259c14.686-23.077,34.406-35.245,63.777-35.245c44.476,0,74.267,33.566,74.267,80.561v140.562h-57.063
		v-132.17c0-23.077-13.427-39.441-37.344-39.441c-25.175,0-43.637,20.141-43.637,49.512v122.1h-57.063V510.631h55.805V540.002z"/>
	<path d="M2912.153,732.173h56.644c4.615,13.427,16.784,23.916,43.218,23.916c32.308,0,47.833-15.524,47.833-44.896v-23.497h-1.259
		c-12.588,14.266-28.952,25.175-56.225,25.175c-47.833,0-94.827-37.763-94.827-102.798c0-64.197,38.603-105.316,93.148-105.316
		c26.854,0,46.574,10.489,59.581,28.532h0.84v-22.658h54.966v198.884c0,30.21-9.65,50.771-25.595,65.456
		c-18.043,16.783-45.735,24.336-77.624,24.336C2954.111,799.307,2918.027,774.131,2912.153,732.173z M3062.784,608.814
		c0-31.47-16.783-58.323-51.189-58.323c-28.951,0-48.252,22.658-48.252,58.742c0,36.504,19.301,57.903,48.672,57.903
		C3048.099,667.137,3062.784,640.703,3062.784,608.814z"/>
</g>
<g>
	<path d="M1530.07,156.506C1530.07,66.715,1586.295,0,1674.827,0c88.533,0,144.338,66.715,144.338,156.506
		c0,89.792-55.805,156.086-144.338,156.086C1586.295,312.592,1530.07,246.298,1530.07,156.506z M1757.066,156.506
		c0-60.001-26.854-106.575-81.819-106.575s-83.078,46.574-83.078,106.575c0,59.581,28.112,106.155,83.078,106.155
		S1757.066,216.087,1757.066,156.506z"/>
	<path d="M1847.692,90.631h54.966v26.854h1.259c13.846-18.881,33.986-32.728,63.357-32.728c57.063,0,93.567,46.574,93.567,113.708
		c0,69.651-37.763,113.708-93.147,113.708c-30.211,0-49.932-12.168-62.1-30.63h-0.839v94.826h-57.063V90.631z M2002.939,200.143
		c0-40.699-14.267-69.231-49.512-69.231c-35.665,0-49.931,30.63-49.931,69.231c0,39.021,18.042,64.616,52.029,64.616
		C1984.478,264.759,2002.939,240.843,2002.939,200.143z"/>
	<path d="M2076.782,198.045c0-63.777,43.218-113.288,106.155-113.288c69.232,0,106.156,52.868,106.156,129.652h-156.087
		c4.196,33.147,22.658,53.707,54.966,53.707c22.238,0,35.246-10.07,41.539-26.435h56.225c-7.972,38.183-41.958,70.491-97.344,70.491
		C2117.062,312.173,2076.782,262.241,2076.782,198.045z M2133.847,174.968h95.665c-1.678-27.273-19.721-46.154-45.734-46.154
		C2153.567,128.813,2138.882,146.855,2133.847,174.968z"/>
	<path d="M2371.325,120.002h1.259c14.686-23.077,34.406-35.245,63.777-35.245c44.476,0,74.267,33.566,74.267,80.561v140.562h-57.063
		v-132.17c0-23.077-13.427-39.441-37.344-39.441c-25.175,0-43.637,20.141-43.637,49.512v122.1h-57.063V90.631h55.805V120.002z"/>
</g>
</svg>
