<?xml version="1.0" encoding="UTF-8"?>
<svg id="Layer_1" xmlns="http://www.w3.org/2000/svg" version="1.1" viewBox="0 0 437.2 330.1">
  <!-- Generator: Adobe Illustrator 29.1.0, SVG Export Plug-In . SVG Version: 2.1.0 Build 142)  -->
  <defs>
    <style>
      .st0, .st1 {
        fill: #fff;
      }

      .st2, .st1 {
        opacity: .2;
      }
    </style>
  </defs>
  <g class="st2">
    <path class="st0" d="M143,311.8c.9.9,1.3,1.8,1.3,2.9s-.8,2.7-2.4,4c-1.6,1.3-3.5,2.3-5.9,3-2.3.8-4.4,1.1-6.2,1.1-3,0-5.5-.3-7.2-.9-1.8-.6-3.6-1.4-5.4-2.5-1.2-.7-2.2-1.2-2.9-1.5-.8-.3-1.7-.5-2.7-.5s-1,0-1.4.2c-.4.1-.9.4-1.5.6-.6.3-1.2.6-1.7.8-.5.2-1.2.2-2,.2s-2.1-.4-3-1.3c-.8-.9-1.2-1.9-1.2-3,0-1.9.8-3.1,2.5-3.7l7.1-2.6c-3.7-.8-7-2.4-9.9-4.8-2.9-2.4-5.1-5.4-6.6-8.9-1.6-3.5-2.4-7.3-2.4-11.4s1-9,3.1-13c2.1-3.9,4.9-7,8.6-9.3,3.7-2.3,7.8-3.4,12.5-3.4s8.8,1.1,12.5,3.4c3.7,2.3,6.6,5.4,8.7,9.3,2.1,3.9,3.1,8.2,3.1,13s-.8,7.9-2.4,11.4c-1.6,3.5-3.8,6.5-6.7,8.9-2.9,2.4-6.2,4-9.9,4.8l-4.4,1.6c1.1.1,2.1.4,3,.8.9.4,2,.9,3.2,1.6,1.5.8,2.8,1.4,3.9,1.8,1.1.4,2.3.6,3.7.6s2.2-.2,3.1-.5c.9-.4,1.7-.9,2.5-1.5.3-.2.7-.6,1.3-1,.6-.5,1.1-.8,1.6-1,.5-.2,1-.4,1.4-.4,1,0,1.9.4,2.8,1.3ZM102.7,292.2c1.3,2.6,3,4.7,5.3,6.2,2.3,1.5,4.8,2.2,7.7,2.2s5.4-.8,7.7-2.3c2.3-1.5,4.1-3.6,5.4-6.2s1.9-5.5,1.9-8.7-.6-6.1-1.9-8.7-3.1-4.7-5.4-6.2c-2.3-1.5-4.9-2.3-7.7-2.3s-5.5.7-7.7,2.2c-2.3,1.5-4,3.6-5.3,6.2-1.3,2.6-1.9,5.5-1.9,8.7s.6,6.1,1.9,8.7Z"/>
    <path class="st0" d="M181.9,299.7c-1.7,3-4.1,5.4-7,7-3,1.7-6.2,2.5-9.8,2.5s-6.9-.8-9.9-2.5c-3-1.7-5.3-4-7-7-1.7-3-2.6-6.4-2.6-10.2s.9-7.2,2.6-10.2c1.7-3,4-5.4,7-7.1,3-1.7,6.2-2.5,9.9-2.5s6.8.8,9.8,2.5c3,1.7,5.3,4,7,7.1,1.7,3,2.6,6.4,2.6,10.2s-.9,7.2-2.6,10.2ZM174.4,283.2c-1-1.8-2.3-3.2-3.9-4.2-1.6-1-3.5-1.5-5.5-1.5s-3.8.5-5.5,1.5c-1.6,1-3,2.4-3.9,4.2-1,1.8-1.5,3.9-1.5,6.2s.5,4.4,1.5,6.2c1,1.8,2.3,3.2,3.9,4.2,1.6,1,3.5,1.5,5.5,1.5s3.8-.5,5.5-1.5c1.6-1,3-2.4,3.9-4.2,1-1.8,1.5-3.9,1.5-6.2s-.5-4.4-1.5-6.2Z"/>
    <path class="st0" d="M215,270.8c1,.8,1.5,1.8,1.5,2.9s-.4,2.6-1.1,3.3c-.8.7-1.7,1.1-2.7,1.1s-1.5-.2-2.4-.5c-.1,0-.5-.1-1-.3-.5-.1-1-.2-1.6-.2-1.2,0-2.4.4-3.6,1.1-1.1.8-2.1,1.9-2.8,3.5-.7,1.5-1.1,3.4-1.1,5.5v16.9c0,1.2-.4,2.3-1.2,3.1-.8.8-1.8,1.2-3.1,1.2s-2.3-.4-3.1-1.2c-.8-.8-1.2-1.9-1.2-3.1v-29.5c0-1.2.4-2.3,1.2-3.1.8-.8,1.8-1.2,3.1-1.2s2.3.4,3.1,1.2c.8.8,1.2,1.9,1.2,3.1v.9c1.1-2,2.7-3.4,4.7-4.5,2-1,4.2-1.5,6.6-1.5s2.6.4,3.6,1.2Z"/>
    <path class="st0" d="M222.8,264.9c-.7-.5-1-1.5-1-2.8v-1.4c0-1.3.4-2.3,1.1-2.8s1.9-.8,3.4-.8,2.8.3,3.5.8c.7.5,1,1.5,1,2.8v1.4c0,1.4-.3,2.3-1,2.8-.7.5-1.9.8-3.5.8s-2.8-.3-3.4-.8ZM229.4,307.2c-.8.8-1.8,1.2-3.1,1.2s-2.3-.4-3.1-1.2c-.8-.8-1.2-1.9-1.2-3.1v-29.5c0-1.2.4-2.3,1.2-3.1.8-.8,1.8-1.2,3.1-1.2s2.3.4,3.1,1.2c.8.8,1.2,1.9,1.2,3.1v29.5c0,1.2-.4,2.3-1.2,3.1Z"/>
    <path class="st0" d="M273.4,270.8c.8.8,1.2,1.9,1.2,3.1v30.2c0,1.2-.4,2.3-1.2,3.1-.8.8-1.8,1.2-3.1,1.2s-2.2-.4-3-1.2c-.8-.8-1.2-1.8-1.2-3.1-1.2,1.4-2.8,2.6-4.8,3.5-2,1-4.2,1.5-6.4,1.5-3.3,0-6.3-.8-8.9-2.5-2.7-1.7-4.8-4-6.3-7-1.5-3-2.3-6.4-2.3-10.2s.8-7.2,2.3-10.2c1.5-3,3.6-5.4,6.2-7.1,2.6-1.7,5.6-2.5,8.7-2.5s4.4.4,6.4,1.2c2,.8,3.7,1.9,5.1,3.2h0c0-1.3.4-2.3,1.2-3.2.8-.8,1.8-1.2,3.1-1.2s2.3.4,3.1,1.2ZM263.4,297.9c2-2.3,2.9-5.1,2.9-8.5s-1-6.3-2.9-8.6-4.5-3.4-7.6-3.4-5.5,1.1-7.5,3.4c-2,2.3-2.9,5.1-2.9,8.6s1,6.3,2.9,8.5c1.9,2.3,4.4,3.4,7.5,3.4s5.6-1.1,7.6-3.4Z"/>
  </g>
  <g class="st2">
    <path class="st0" d="M143,146.6c.9.9,1.3,1.8,1.3,2.9s-.8,2.7-2.4,4c-1.6,1.3-3.5,2.3-5.9,3-2.3.8-4.4,1.1-6.2,1.1-3,0-5.5-.3-7.2-.9-1.8-.6-3.6-1.4-5.4-2.5-1.2-.7-2.2-1.2-2.9-1.5-.8-.3-1.7-.5-2.7-.5s-1,0-1.4.2c-.4.1-.9.4-1.5.6-.6.3-1.2.6-1.7.7-.5.2-1.2.2-2,.2s-2.1-.4-3-1.3c-.8-.9-1.2-1.9-1.2-3,0-1.9.8-3.1,2.5-3.7l7.1-2.6c-3.7-.8-7-2.4-9.9-4.8-2.9-2.4-5.1-5.4-6.6-8.9-1.6-3.5-2.4-7.3-2.4-11.4s1-9,3.1-13c2.1-3.9,4.9-7,8.6-9.3,3.7-2.3,7.8-3.4,12.5-3.4s8.8,1.1,12.5,3.4c3.7,2.3,6.6,5.4,8.7,9.3,2.1,3.9,3.1,8.2,3.1,13s-.8,7.9-2.4,11.4c-1.6,3.5-3.8,6.5-6.7,8.9-2.9,2.4-6.2,4-9.9,4.8l-4.4,1.6c1.1.1,2.1.4,3,.8.9.4,2,.9,3.2,1.6,1.5.8,2.8,1.4,3.9,1.8,1.1.4,2.3.6,3.7.6s2.2-.2,3.1-.5c.9-.4,1.7-.9,2.5-1.5.3-.2.7-.6,1.3-1,.6-.5,1.1-.8,1.6-1,.5-.2,1-.4,1.4-.4,1,0,1.9.4,2.8,1.3ZM102.7,127c1.3,2.6,3,4.7,5.3,6.2,2.3,1.5,4.8,2.2,7.7,2.2s5.4-.8,7.7-2.3c2.3-1.5,4.1-3.6,5.4-6.2,1.3-2.6,1.9-5.5,1.9-8.7s-.6-6.1-1.9-8.7c-1.3-2.6-3.1-4.7-5.4-6.2-2.3-1.5-4.9-2.3-7.7-2.3s-5.5.7-7.7,2.2c-2.3,1.5-4,3.6-5.3,6.2-1.3,2.6-1.9,5.5-1.9,8.7s.6,6.1,1.9,8.7Z"/>
    <path class="st0" d="M181.9,134.5c-1.7,3-4.1,5.4-7,7-3,1.7-6.2,2.5-9.8,2.5s-6.9-.8-9.9-2.5c-3-1.7-5.3-4-7-7-1.7-3-2.6-6.4-2.6-10.2s.9-7.2,2.6-10.2c1.7-3,4-5.4,7-7.1,3-1.7,6.2-2.5,9.9-2.5s6.8.8,9.8,2.5c3,1.7,5.3,4,7,7.1,1.7,3,2.6,6.4,2.6,10.2s-.9,7.2-2.6,10.2ZM174.4,118c-1-1.8-2.3-3.2-3.9-4.2-1.6-1-3.5-1.5-5.5-1.5s-3.8.5-5.5,1.5c-1.6,1-3,2.4-3.9,4.2-1,1.8-1.5,3.9-1.5,6.2s.5,4.4,1.5,6.2c1,1.8,2.3,3.2,3.9,4.2,1.6,1,3.5,1.5,5.5,1.5s3.8-.5,5.5-1.5,3-2.4,3.9-4.2c1-1.8,1.5-3.9,1.5-6.2s-.5-4.4-1.5-6.2Z"/>
    <path class="st0" d="M215,105.6c1,.8,1.5,1.8,1.5,2.9s-.4,2.6-1.1,3.3c-.8.7-1.7,1.1-2.7,1.1s-1.5-.2-2.4-.5c-.1,0-.5-.1-1-.3-.5-.1-1-.2-1.6-.2-1.2,0-2.4.4-3.6,1.1-1.1.8-2.1,1.9-2.8,3.5-.7,1.5-1.1,3.4-1.1,5.5v16.9c0,1.2-.4,2.3-1.2,3.1-.8.8-1.8,1.2-3.1,1.2s-2.3-.4-3.1-1.2c-.8-.8-1.2-1.9-1.2-3.1v-29.5c0-1.2.4-2.3,1.2-3.1.8-.8,1.8-1.2,3.1-1.2s2.3.4,3.1,1.2c.8.8,1.2,1.9,1.2,3.1v.9c1.1-2,2.7-3.4,4.7-4.5,2-1,4.2-1.5,6.6-1.5s2.6.4,3.6,1.2Z"/>
    <path class="st0" d="M222.8,99.7c-.7-.5-1-1.5-1-2.8v-1.4c0-1.3.4-2.3,1.1-2.8.7-.5,1.9-.8,3.4-.8s2.8.3,3.5.8c.7.5,1,1.5,1,2.8v1.4c0,1.4-.3,2.3-1,2.8-.7.5-1.9.7-3.5.7s-2.8-.3-3.4-.8ZM229.4,142c-.8.8-1.8,1.2-3.1,1.2s-2.3-.4-3.1-1.2c-.8-.8-1.2-1.9-1.2-3.1v-29.5c0-1.2.4-2.3,1.2-3.1.8-.8,1.8-1.2,3.1-1.2s2.3.4,3.1,1.2c.8.8,1.2,1.9,1.2,3.1v29.5c0,1.2-.4,2.3-1.2,3.1Z"/>
    <path class="st0" d="M273.4,105.6c.8.8,1.2,1.9,1.2,3.1v30.2c0,1.2-.4,2.3-1.2,3.1-.8.8-1.8,1.2-3.1,1.2s-2.2-.4-3-1.2c-.8-.8-1.2-1.8-1.2-3.1-1.2,1.4-2.8,2.6-4.8,3.5-2,1-4.2,1.5-6.4,1.5-3.3,0-6.3-.8-8.9-2.5-2.7-1.7-4.8-4-6.3-7-1.5-3-2.3-6.4-2.3-10.2s.8-7.2,2.3-10.2c1.5-3,3.6-5.4,6.2-7.1,2.6-1.7,5.6-2.5,8.7-2.5s4.4.4,6.4,1.2c2,.8,3.7,1.9,5.1,3.2h0c0-1.3.4-2.3,1.2-3.2.8-.8,1.8-1.2,3.1-1.2s2.3.4,3.1,1.2ZM263.4,132.7c2-2.3,2.9-5.1,2.9-8.5s-1-6.3-2.9-8.6-4.5-3.4-7.6-3.4-5.5,1.1-7.5,3.4c-2,2.3-2.9,5.1-2.9,8.6s1,6.3,2.9,8.5c1.9,2.3,4.4,3.4,7.5,3.4s5.6-1.1,7.6-3.4Z"/>
  </g>
  <g class="st2">
    <path class="st0" d="M54.4,229.2c.9.9,1.3,1.8,1.3,2.9s-.8,2.7-2.4,4c-1.6,1.3-3.5,2.3-5.9,3-2.3.8-4.4,1.1-6.2,1.1-3,0-5.5-.3-7.2-.9-1.8-.6-3.6-1.4-5.4-2.5-1.2-.7-2.2-1.2-2.9-1.5-.8-.3-1.7-.5-2.7-.5s-1,0-1.4.2c-.4.1-.9.4-1.5.6-.6.3-1.2.6-1.7.8-.5.2-1.2.2-2,.2s-2.1-.4-3-1.3c-.8-.9-1.2-1.9-1.2-3,0-1.9.8-3.1,2.5-3.7l7.1-2.6c-3.7-.8-7-2.4-9.9-4.8-2.9-2.4-5.1-5.4-6.6-8.9-1.6-3.5-2.4-7.3-2.4-11.4s1-9,3.1-13c2.1-3.9,4.9-7,8.6-9.3,3.7-2.3,7.8-3.4,12.5-3.4s8.8,1.1,12.5,3.4c3.7,2.3,6.6,5.4,8.7,9.3,2.1,3.9,3.1,8.2,3.1,13s-.8,7.9-2.4,11.4c-1.6,3.5-3.8,6.5-6.7,8.9-2.9,2.4-6.2,4-9.9,4.8l-4.4,1.6c1.1.1,2.1.4,3,.8.9.4,2,.9,3.2,1.6,1.5.8,2.8,1.4,3.9,1.8,1.1.4,2.3.6,3.7.6s2.2-.2,3.1-.5c.9-.4,1.7-.9,2.5-1.5.3-.2.7-.6,1.3-1,.6-.5,1.1-.8,1.6-1,.5-.2,1-.4,1.4-.4,1,0,1.9.4,2.8,1.3ZM14,209.6c1.3,2.6,3,4.7,5.3,6.2,2.3,1.5,4.8,2.2,7.7,2.2s5.4-.8,7.7-2.3c2.3-1.5,4.1-3.6,5.4-6.2s1.9-5.5,1.9-8.7-.6-6.1-1.9-8.7-3.1-4.7-5.4-6.2c-2.3-1.5-4.9-2.3-7.7-2.3s-5.5.7-7.7,2.2c-2.3,1.5-4,3.6-5.3,6.2-1.3,2.6-1.9,5.5-1.9,8.7s.6,6.1,1.9,8.7Z"/>
    <path class="st0" d="M93.2,217.1c-1.7,3-4.1,5.4-7,7-3,1.7-6.2,2.5-9.8,2.5s-6.9-.8-9.9-2.5c-3-1.7-5.3-4-7-7-1.7-3-2.6-6.4-2.6-10.2s.9-7.2,2.6-10.2c1.7-3,4-5.4,7-7.1,3-1.7,6.2-2.5,9.9-2.5s6.8.8,9.8,2.5c3,1.7,5.3,4,7,7.1,1.7,3,2.6,6.4,2.6,10.2s-.9,7.2-2.6,10.2ZM85.8,200.6c-1-1.8-2.3-3.2-3.9-4.2-1.6-1-3.5-1.5-5.5-1.5s-3.8.5-5.5,1.5c-1.6,1-3,2.4-3.9,4.2-1,1.8-1.5,3.9-1.5,6.2s.5,4.4,1.5,6.2c1,1.8,2.3,3.2,3.9,4.2,1.6,1,3.5,1.5,5.5,1.5s3.8-.5,5.5-1.5c1.6-1,3-2.4,3.9-4.2,1-1.8,1.5-3.9,1.5-6.2s-.5-4.4-1.5-6.2Z"/>
    <path class="st0" d="M126.4,188.2c1,.8,1.5,1.8,1.5,2.9s-.4,2.6-1.1,3.3c-.8.7-1.7,1.1-2.7,1.1s-1.5-.2-2.4-.5c-.1,0-.5-.1-1-.3-.5-.1-1-.2-1.6-.2-1.2,0-2.4.4-3.6,1.1-1.1.8-2.1,1.9-2.8,3.5-.7,1.5-1.1,3.4-1.1,5.5v16.9c0,1.2-.4,2.3-1.2,3.1-.8.8-1.8,1.2-3.1,1.2s-2.3-.4-3.1-1.2c-.8-.8-1.2-1.9-1.2-3.1v-29.5c0-1.2.4-2.3,1.2-3.1.8-.8,1.8-1.2,3.1-1.2s2.3.4,3.1,1.2c.8.8,1.2,1.9,1.2,3.1v.9c1.1-2,2.7-3.4,4.7-4.5,2-1,4.2-1.5,6.6-1.5s2.6.4,3.6,1.2Z"/>
    <path class="st0" d="M134.2,182.3c-.7-.5-1-1.5-1-2.8v-1.4c0-1.3.4-2.3,1.1-2.8s1.9-.8,3.4-.8,2.8.3,3.5.8c.7.5,1,1.5,1,2.8v1.4c0,1.4-.3,2.3-1,2.8-.7.5-1.9.8-3.5.8s-2.8-.3-3.4-.8ZM140.8,224.6c-.8.8-1.8,1.2-3.1,1.2s-2.3-.4-3.1-1.2c-.8-.8-1.2-1.9-1.2-3.1v-29.5c0-1.2.4-2.3,1.2-3.1.8-.8,1.8-1.2,3.1-1.2s2.3.4,3.1,1.2c.8.8,1.2,1.9,1.2,3.1v29.5c0,1.2-.4,2.3-1.2,3.1Z"/>
    <path class="st0" d="M184.7,188.2c.8.8,1.2,1.9,1.2,3.1v30.2c0,1.2-.4,2.3-1.2,3.1-.8.8-1.8,1.2-3.1,1.2s-2.2-.4-3-1.2c-.8-.8-1.2-1.8-1.2-3.1-1.2,1.4-2.8,2.6-4.8,3.5-2,1-4.2,1.5-6.4,1.5-3.3,0-6.3-.8-8.9-2.5-2.7-1.7-4.8-4-6.3-7-1.5-3-2.3-6.4-2.3-10.2s.8-7.2,2.3-10.2c1.5-3,3.6-5.4,6.2-7.1,2.6-1.7,5.6-2.5,8.7-2.5s4.4.4,6.4,1.2c2,.8,3.7,1.9,5.1,3.2h0c0-1.3.4-2.3,1.2-3.2.8-.8,1.8-1.2,3.1-1.2s2.3.4,3.1,1.2ZM174.8,215.3c2-2.3,2.9-5.1,2.9-8.5s-1-6.3-2.9-8.6-4.5-3.4-7.6-3.4-5.5,1.1-7.5,3.4c-2,2.3-2.9,5.1-2.9,8.6s1,6.3,2.9,8.5c1.9,2.3,4.4,3.4,7.5,3.4s5.6-1.1,7.6-3.4Z"/>
  </g>
  <g class="st2">
    <path class="st0" d="M54.4,64c.9.9,1.3,1.8,1.3,2.9s-.8,2.7-2.4,4c-1.6,1.3-3.5,2.3-5.9,3-2.3.8-4.4,1.1-6.2,1.1-3,0-5.5-.3-7.2-.9-1.8-.6-3.6-1.4-5.4-2.5-1.2-.7-2.2-1.2-2.9-1.5-.8-.3-1.7-.5-2.7-.5s-1,0-1.4.2c-.4.1-.9.4-1.5.6-.6.3-1.2.6-1.7.7-.5.2-1.2.2-2,.2s-2.1-.4-3-1.3c-.8-.9-1.2-1.9-1.2-3,0-1.9.8-3.1,2.5-3.7l7.1-2.6c-3.7-.8-7-2.4-9.9-4.8-2.9-2.4-5.1-5.4-6.6-8.9-1.6-3.5-2.4-7.3-2.4-11.4s1-9,3.1-13c2.1-3.9,4.9-7,8.6-9.3,3.7-2.3,7.8-3.4,12.5-3.4s8.8,1.1,12.5,3.4c3.7,2.3,6.6,5.4,8.7,9.3,2.1,3.9,3.1,8.2,3.1,13s-.8,7.9-2.4,11.4c-1.6,3.5-3.8,6.5-6.7,8.9-2.9,2.4-6.2,4-9.9,4.8l-4.4,1.6c1.1.1,2.1.4,3,.8.9.4,2,.9,3.2,1.6,1.5.8,2.8,1.4,3.9,1.8,1.1.4,2.3.6,3.7.6s2.2-.2,3.1-.5c.9-.4,1.7-.9,2.5-1.5.3-.2.7-.6,1.3-1,.6-.5,1.1-.8,1.6-1,.5-.2,1-.4,1.4-.4,1,0,1.9.4,2.8,1.3ZM14,44.4c1.3,2.6,3,4.7,5.3,6.2,2.3,1.5,4.8,2.2,7.7,2.2s5.4-.8,7.7-2.3c2.3-1.5,4.1-3.6,5.4-6.2,1.3-2.6,1.9-5.5,1.9-8.7s-.6-6.1-1.9-8.7c-1.3-2.6-3.1-4.7-5.4-6.2-2.3-1.5-4.9-2.3-7.7-2.3s-5.5.7-7.7,2.2c-2.3,1.5-4,3.6-5.3,6.2-1.3,2.6-1.9,5.5-1.9,8.7s.6,6.1,1.9,8.7Z"/>
    <path class="st0" d="M93.2,51.9c-1.7,3-4.1,5.4-7,7-3,1.7-6.2,2.5-9.8,2.5s-6.9-.8-9.9-2.5c-3-1.7-5.3-4-7-7-1.7-3-2.6-6.4-2.6-10.2s.9-7.2,2.6-10.2c1.7-3,4-5.4,7-7.1,3-1.7,6.2-2.5,9.9-2.5s6.8.8,9.8,2.5c3,1.7,5.3,4,7,7.1,1.7,3,2.6,6.4,2.6,10.2s-.9,7.2-2.6,10.2ZM85.8,35.4c-1-1.8-2.3-3.2-3.9-4.2-1.6-1-3.5-1.5-5.5-1.5s-3.8.5-5.5,1.5c-1.6,1-3,2.4-3.9,4.2-1,1.8-1.5,3.9-1.5,6.2s.5,4.4,1.5,6.2c1,1.8,2.3,3.2,3.9,4.2,1.6,1,3.5,1.5,5.5,1.5s3.8-.5,5.5-1.5,3-2.4,3.9-4.2c1-1.8,1.5-3.9,1.5-6.2s-.5-4.4-1.5-6.2Z"/>
    <path class="st0" d="M126.4,23c1,.8,1.5,1.8,1.5,2.9s-.4,2.6-1.1,3.3c-.8.7-1.7,1.1-2.7,1.1s-1.5-.2-2.4-.5c-.1,0-.5-.1-1-.3-.5-.1-1-.2-1.6-.2-1.2,0-2.4.4-3.6,1.1-1.1.8-2.1,1.9-2.8,3.5-.7,1.5-1.1,3.4-1.1,5.5v16.9c0,1.2-.4,2.3-1.2,3.1-.8.8-1.8,1.2-3.1,1.2s-2.3-.4-3.1-1.2c-.8-.8-1.2-1.9-1.2-3.1v-29.5c0-1.2.4-2.3,1.2-3.1.8-.8,1.8-1.2,3.1-1.2s2.3.4,3.1,1.2c.8.8,1.2,1.9,1.2,3.1v.9c1.1-2,2.7-3.4,4.7-4.5,2-1,4.2-1.5,6.6-1.5s2.6.4,3.6,1.2Z"/>
    <path class="st0" d="M134.2,17.1c-.7-.5-1-1.5-1-2.8v-1.4c0-1.3.4-2.3,1.1-2.8.7-.5,1.9-.8,3.4-.8s2.8.3,3.5.8c.7.5,1,1.5,1,2.8v1.4c0,1.4-.3,2.3-1,2.8-.7.5-1.9.7-3.5.7s-2.8-.3-3.4-.8ZM140.8,59.4c-.8.8-1.8,1.2-3.1,1.2s-2.3-.4-3.1-1.2c-.8-.8-1.2-1.9-1.2-3.1v-29.5c0-1.2.4-2.3,1.2-3.1.8-.8,1.8-1.2,3.1-1.2s2.3.4,3.1,1.2c.8.8,1.2,1.9,1.2,3.1v29.5c0,1.2-.4,2.3-1.2,3.1Z"/>
    <path class="st0" d="M184.7,23c.8.8,1.2,1.9,1.2,3.1v30.2c0,1.2-.4,2.3-1.2,3.1-.8.8-1.8,1.2-3.1,1.2s-2.2-.4-3-1.2c-.8-.8-1.2-1.8-1.2-3.1-1.2,1.4-2.8,2.6-4.8,3.5-2,1-4.2,1.5-6.4,1.5-3.3,0-6.3-.8-8.9-2.5-2.7-1.7-4.8-4-6.3-7-1.5-3-2.3-6.4-2.3-10.2s.8-7.2,2.3-10.2c1.5-3,3.6-5.4,6.2-7.1,2.6-1.7,5.6-2.5,8.7-2.5s4.4.4,6.4,1.2c2,.8,3.7,1.9,5.1,3.2h0c0-1.3.4-2.3,1.2-3.2.8-.8,1.8-1.2,3.1-1.2s2.3.4,3.1,1.2ZM174.8,50.1c2-2.3,2.9-5.1,2.9-8.5s-1-6.3-2.9-8.6-4.5-3.4-7.6-3.4-5.5,1.1-7.5,3.4c-2,2.3-2.9,5.1-2.9,8.6s1,6.3,2.9,8.5c1.9,2.3,4.4,3.4,7.5,3.4s5.6-1.1,7.6-3.4Z"/>
  </g>
  <path class="st1" d="M358.4,311.8c.9.9,1.3,1.8,1.3,2.9s-.8,2.7-2.4,4c-1.6,1.3-3.5,2.3-5.9,3-2.3.8-4.4,1.1-6.2,1.1-3,0-5.5-.3-7.2-.9-1.8-.6-3.6-1.4-5.4-2.5-1.2-.7-2.2-1.2-2.9-1.5-.8-.3-1.7-.5-2.7-.5s-1,0-1.4.2c-.4.1-.9.4-1.5.6-.6.3-1.2.6-1.7.8-.5.2-1.2.2-2,.2s-2.1-.4-3-1.3c-.8-.9-1.2-1.9-1.2-3,0-1.9.8-3.1,2.5-3.7l7.1-2.6c-3.7-.8-7-2.4-9.9-4.8-2.9-2.4-5.1-5.4-6.6-8.9-1.6-3.5-2.4-7.3-2.4-11.4s1-9,3.1-13c2.1-3.9,4.9-7,8.6-9.3,3.7-2.3,7.8-3.4,12.5-3.4s8.8,1.1,12.5,3.4c3.7,2.3,6.6,5.4,8.7,9.3s3.1,8.2,3.1,13-.8,7.9-2.4,11.4c-1.6,3.5-3.8,6.5-6.7,8.9-2.9,2.4-6.2,4-9.9,4.8l-4.4,1.6c1.1.1,2.1.4,3,.8s2,.9,3.2,1.6c1.5.8,2.8,1.4,3.9,1.8,1.1.4,2.3.6,3.7.6s2.2-.2,3.1-.5c.9-.4,1.7-.9,2.5-1.5.3-.2.7-.6,1.3-1,.6-.5,1.1-.8,1.6-1,.5-.2,1-.4,1.4-.4,1,0,1.9.4,2.8,1.3ZM318,292.2c1.3,2.6,3,4.7,5.3,6.2,2.3,1.5,4.8,2.2,7.7,2.2s5.4-.8,7.7-2.3c2.3-1.5,4.1-3.6,5.4-6.2,1.3-2.6,1.9-5.5,1.9-8.7s-.6-6.1-1.9-8.7c-1.3-2.6-3.1-4.7-5.4-6.2-2.3-1.5-4.9-2.3-7.7-2.3s-5.5.7-7.7,2.2c-2.3,1.5-4,3.6-5.3,6.2-1.3,2.6-1.9,5.5-1.9,8.7s.6,6.1,1.9,8.7Z"/>
  <path class="st1" d="M397.2,299.7c-1.7,3-4.1,5.4-7,7-3,1.7-6.2,2.5-9.8,2.5s-6.9-.8-9.9-2.5c-3-1.7-5.3-4-7-7-1.7-3-2.6-6.4-2.6-10.2s.9-7.2,2.6-10.2c1.7-3,4-5.4,7-7.1,3-1.7,6.2-2.5,9.9-2.5s6.8.8,9.8,2.5c3,1.7,5.3,4,7,7.1,1.7,3,2.6,6.4,2.6,10.2s-.9,7.2-2.6,10.2ZM389.7,283.2c-1-1.8-2.3-3.2-3.9-4.2-1.6-1-3.5-1.5-5.5-1.5s-3.8.5-5.5,1.5c-1.6,1-3,2.4-3.9,4.2-1,1.8-1.5,3.9-1.5,6.2s.5,4.4,1.5,6.2c1,1.8,2.3,3.2,3.9,4.2,1.6,1,3.5,1.5,5.5,1.5s3.8-.5,5.5-1.5c1.6-1,3-2.4,3.9-4.2,1-1.8,1.5-3.9,1.5-6.2s-.5-4.4-1.5-6.2Z"/>
  <path class="st1" d="M430.3,270.8c1,.8,1.5,1.8,1.5,2.9s-.4,2.6-1.1,3.3c-.8.7-1.7,1.1-2.7,1.1s-1.5-.2-2.4-.5c-.1,0-.5-.1-1-.3-.5-.1-1-.2-1.6-.2-1.2,0-2.4.4-3.6,1.1-1.1.8-2.1,1.9-2.8,3.5-.7,1.5-1.1,3.4-1.1,5.5v16.9c0,1.2-.4,2.3-1.2,3.1-.8.8-1.8,1.2-3.1,1.2s-2.3-.4-3.1-1.2c-.8-.8-1.2-1.9-1.2-3.1v-29.5c0-1.2.4-2.3,1.2-3.1.8-.8,1.8-1.2,3.1-1.2s2.3.4,3.1,1.2c.8.8,1.2,1.9,1.2,3.1v.9c1.1-2,2.7-3.4,4.7-4.5,2-1,4.2-1.5,6.6-1.5s2.6.4,3.6,1.2Z"/>
  <path class="st1" d="M1.1,264.9c-.7-.5-1-1.5-1-2.8v-1.4c0-1.3.4-2.3,1.1-2.8s1.9-.8,3.4-.8,2.8.3,3.5.8c.7.5,1,1.5,1,2.8v1.4c0,1.4-.3,2.3-1,2.8-.7.5-1.9.8-3.5.8s-2.8-.3-3.4-.8ZM7.6,307.2c-.8.8-1.8,1.2-3.1,1.2s-2.3-.4-3.1-1.2c-.8-.8-1.2-1.9-1.2-3.1v-29.5c0-1.2.4-2.3,1.2-3.1.8-.8,1.8-1.2,3.1-1.2s2.3.4,3.1,1.2c.8.8,1.2,1.9,1.2,3.1v29.5c0,1.2-.4,2.3-1.2,3.1Z"/>
  <path class="st1" d="M51.6,270.8c.8.8,1.2,1.9,1.2,3.1v30.2c0,1.2-.4,2.3-1.2,3.1-.8.8-1.8,1.2-3.1,1.2s-2.2-.4-3-1.2c-.8-.8-1.2-1.8-1.2-3.1-1.2,1.4-2.8,2.6-4.8,3.5-2,1-4.2,1.5-6.4,1.5-3.3,0-6.3-.8-8.9-2.5-2.7-1.7-4.8-4-6.3-7-1.5-3-2.3-6.4-2.3-10.2s.8-7.2,2.3-10.2c1.5-3,3.6-5.4,6.2-7.1,2.6-1.7,5.6-2.5,8.7-2.5s4.4.4,6.4,1.2c2,.8,3.7,1.9,5.1,3.2h0c0-1.3.4-2.3,1.2-3.2.8-.8,1.8-1.2,3.1-1.2s2.3.4,3.1,1.2ZM41.7,297.9c2-2.3,2.9-5.1,2.9-8.5s-1-6.3-2.9-8.6-4.5-3.4-7.6-3.4-5.5,1.1-7.5,3.4c-2,2.3-2.9,5.1-2.9,8.6s1,6.3,2.9,8.5c1.9,2.3,4.4,3.4,7.5,3.4s5.6-1.1,7.6-3.4Z"/>
  <path class="st1" d="M358.4,146.6c.9.9,1.3,1.8,1.3,2.9s-.8,2.7-2.4,4c-1.6,1.3-3.5,2.3-5.9,3-2.3.8-4.4,1.1-6.2,1.1-3,0-5.5-.3-7.2-.9-1.8-.6-3.6-1.4-5.4-2.5-1.2-.7-2.2-1.2-2.9-1.5-.8-.3-1.7-.5-2.7-.5s-1,0-1.4.2c-.4.1-.9.4-1.5.6-.6.3-1.2.6-1.7.7-.5.2-1.2.2-2,.2s-2.1-.4-3-1.3c-.8-.9-1.2-1.9-1.2-3,0-1.9.8-3.1,2.5-3.7l7.1-2.6c-3.7-.8-7-2.4-9.9-4.8-2.9-2.4-5.1-5.4-6.6-8.9-1.6-3.5-2.4-7.3-2.4-11.4s1-9,3.1-13c2.1-3.9,4.9-7,8.6-9.3,3.7-2.3,7.8-3.4,12.5-3.4s8.8,1.1,12.5,3.4c3.7,2.3,6.6,5.4,8.7,9.3,2.1,3.9,3.1,8.2,3.1,13s-.8,7.9-2.4,11.4c-1.6,3.5-3.8,6.5-6.7,8.9-2.9,2.4-6.2,4-9.9,4.8l-4.4,1.6c1.1.1,2.1.4,3,.8.9.4,2,.9,3.2,1.6,1.5.8,2.8,1.4,3.9,1.8,1.1.4,2.3.6,3.7.6s2.2-.2,3.1-.5,1.7-.9,2.5-1.5c.3-.2.7-.6,1.3-1,.6-.5,1.1-.8,1.6-1,.5-.2,1-.4,1.4-.4,1,0,1.9.4,2.8,1.3ZM318,127c1.3,2.6,3,4.7,5.3,6.2,2.3,1.5,4.8,2.2,7.7,2.2s5.4-.8,7.7-2.3c2.3-1.5,4.1-3.6,5.4-6.2,1.3-2.6,1.9-5.5,1.9-8.7s-.6-6.1-1.9-8.7c-1.3-2.6-3.1-4.7-5.4-6.2-2.3-1.5-4.9-2.3-7.7-2.3s-5.5.7-7.7,2.2c-2.3,1.5-4,3.6-5.3,6.2-1.3,2.6-1.9,5.5-1.9,8.7s.6,6.1,1.9,8.7Z"/>
  <path class="st1" d="M397.2,134.5c-1.7,3-4.1,5.4-7,7-3,1.7-6.2,2.5-9.8,2.5s-6.9-.8-9.9-2.5c-3-1.7-5.3-4-7-7-1.7-3-2.6-6.4-2.6-10.2s.9-7.2,2.6-10.2c1.7-3,4-5.4,7-7.1,3-1.7,6.2-2.5,9.9-2.5s6.8.8,9.8,2.5c3,1.7,5.3,4,7,7.1,1.7,3,2.6,6.4,2.6,10.2s-.9,7.2-2.6,10.2ZM389.7,118c-1-1.8-2.3-3.2-3.9-4.2-1.6-1-3.5-1.5-5.5-1.5s-3.8.5-5.5,1.5c-1.6,1-3,2.4-3.9,4.2-1,1.8-1.5,3.9-1.5,6.2s.5,4.4,1.5,6.2c1,1.8,2.3,3.2,3.9,4.2s3.5,1.5,5.5,1.5,3.8-.5,5.5-1.5,3-2.4,3.9-4.2c1-1.8,1.5-3.9,1.5-6.2s-.5-4.4-1.5-6.2Z"/>
  <path class="st1" d="M430.3,105.6c1,.8,1.5,1.8,1.5,2.9s-.4,2.6-1.1,3.3c-.8.7-1.7,1.1-2.7,1.1s-1.5-.2-2.4-.5c-.1,0-.5-.1-1-.3-.5-.1-1-.2-1.6-.2-1.2,0-2.4.4-3.6,1.1-1.1.8-2.1,1.9-2.8,3.5-.7,1.5-1.1,3.4-1.1,5.5v16.9c0,1.2-.4,2.3-1.2,3.1-.8.8-1.8,1.2-3.1,1.2s-2.3-.4-3.1-1.2c-.8-.8-1.2-1.9-1.2-3.1v-29.5c0-1.2.4-2.3,1.2-3.1.8-.8,1.8-1.2,3.1-1.2s2.3.4,3.1,1.2c.8.8,1.2,1.9,1.2,3.1v.9c1.1-2,2.7-3.4,4.7-4.5,2-1,4.2-1.5,6.6-1.5s2.6.4,3.6,1.2Z"/>
  <path class="st1" d="M1.1,99.7c-.7-.5-1-1.5-1-2.8v-1.4c0-1.3.4-2.3,1.1-2.8.7-.5,1.9-.8,3.4-.8s2.8.3,3.5.8c.7.5,1,1.5,1,2.8v1.4c0,1.4-.3,2.3-1,2.8-.7.5-1.9.7-3.5.7s-2.8-.3-3.4-.8ZM7.6,142c-.8.8-1.8,1.2-3.1,1.2s-2.3-.4-3.1-1.2c-.8-.8-1.2-1.9-1.2-3.1v-29.5c0-1.2.4-2.3,1.2-3.1.8-.8,1.8-1.2,3.1-1.2s2.3.4,3.1,1.2c.8.8,1.2,1.9,1.2,3.1v29.5c0,1.2-.4,2.3-1.2,3.1Z"/>
  <path class="st1" d="M51.6,105.6c.8.8,1.2,1.9,1.2,3.1v30.2c0,1.2-.4,2.3-1.2,3.1-.8.8-1.8,1.2-3.1,1.2s-2.2-.4-3-1.2c-.8-.8-1.2-1.8-1.2-3.1-1.2,1.4-2.8,2.6-4.8,3.5-2,1-4.2,1.5-6.4,1.5-3.3,0-6.3-.8-8.9-2.5-2.7-1.7-4.8-4-6.3-7-1.5-3-2.3-6.4-2.3-10.2s.8-7.2,2.3-10.2c1.5-3,3.6-5.4,6.2-7.1,2.6-1.7,5.6-2.5,8.7-2.5s4.4.4,6.4,1.2c2,.8,3.7,1.9,5.1,3.2h0c0-1.3.4-2.3,1.2-3.2.8-.8,1.8-1.2,3.1-1.2s2.3.4,3.1,1.2ZM41.7,132.7c2-2.3,2.9-5.1,2.9-8.5s-1-6.3-2.9-8.6-4.5-3.4-7.6-3.4-5.5,1.1-7.5,3.4c-2,2.3-2.9,5.1-2.9,8.6s1,6.3,2.9,8.5c1.9,2.3,4.4,3.4,7.5,3.4s5.6-1.1,7.6-3.4Z"/>
  <g class="st2">
    <path class="st0" d="M269.7,229.2c.9.9,1.3,1.8,1.3,2.9s-.8,2.7-2.4,4c-1.6,1.3-3.5,2.3-5.9,3-2.3.8-4.4,1.1-6.2,1.1-3,0-5.5-.3-7.2-.9-1.8-.6-3.6-1.4-5.4-2.5-1.2-.7-2.2-1.2-2.9-1.5-.8-.3-1.7-.5-2.7-.5s-1,0-1.4.2c-.4.1-.9.4-1.5.6-.6.3-1.2.6-1.7.8-.5.2-1.2.2-2,.2s-2.1-.4-3-1.3c-.8-.9-1.2-1.9-1.2-3,0-1.9.8-3.1,2.5-3.7l7.1-2.6c-3.7-.8-7-2.4-9.9-4.8-2.9-2.4-5.1-5.4-6.6-8.9-1.6-3.5-2.4-7.3-2.4-11.4s1-9,3.1-13c2.1-3.9,4.9-7,8.6-9.3,3.7-2.3,7.8-3.4,12.5-3.4s8.8,1.1,12.5,3.4c3.7,2.3,6.6,5.4,8.7,9.3s3.1,8.2,3.1,13-.8,7.9-2.4,11.4c-1.6,3.5-3.8,6.5-6.7,8.9-2.9,2.4-6.2,4-9.9,4.8l-4.4,1.6c1.1.1,2.1.4,3,.8s2,.9,3.2,1.6c1.5.8,2.8,1.4,3.9,1.8,1.1.4,2.3.6,3.7.6s2.2-.2,3.1-.5c.9-.4,1.7-.9,2.5-1.5.3-.2.7-.6,1.3-1,.6-.5,1.1-.8,1.6-1,.5-.2,1-.4,1.4-.4,1,0,1.9.4,2.8,1.3ZM229.4,209.6c1.3,2.6,3,4.7,5.3,6.2,2.3,1.5,4.8,2.2,7.7,2.2s5.4-.8,7.7-2.3c2.3-1.5,4.1-3.6,5.4-6.2,1.3-2.6,1.9-5.5,1.9-8.7s-.6-6.1-1.9-8.7c-1.3-2.6-3.1-4.7-5.4-6.2-2.3-1.5-4.9-2.3-7.7-2.3s-5.5.7-7.7,2.2c-2.3,1.5-4,3.6-5.3,6.2-1.3,2.6-1.9,5.5-1.9,8.7s.6,6.1,1.9,8.7Z"/>
    <path class="st0" d="M308.6,217.1c-1.7,3-4.1,5.4-7,7-3,1.7-6.2,2.5-9.8,2.5s-6.9-.8-9.9-2.5c-3-1.7-5.3-4-7-7-1.7-3-2.6-6.4-2.6-10.2s.9-7.2,2.6-10.2c1.7-3,4-5.4,7-7.1,3-1.7,6.2-2.5,9.9-2.5s6.8.8,9.8,2.5c3,1.7,5.3,4,7,7.1,1.7,3,2.6,6.4,2.6,10.2s-.9,7.2-2.6,10.2ZM301.1,200.6c-1-1.8-2.3-3.2-3.9-4.2-1.6-1-3.5-1.5-5.5-1.5s-3.8.5-5.5,1.5c-1.6,1-3,2.4-3.9,4.2-1,1.8-1.5,3.9-1.5,6.2s.5,4.4,1.5,6.2c1,1.8,2.3,3.2,3.9,4.2,1.6,1,3.5,1.5,5.5,1.5s3.8-.5,5.5-1.5c1.6-1,3-2.4,3.9-4.2,1-1.8,1.5-3.9,1.5-6.2s-.5-4.4-1.5-6.2Z"/>
    <path class="st0" d="M341.7,188.2c1,.8,1.5,1.8,1.5,2.9s-.4,2.6-1.1,3.3c-.8.7-1.7,1.1-2.7,1.1s-1.5-.2-2.4-.5c-.1,0-.5-.1-1-.3-.5-.1-1-.2-1.6-.2-1.2,0-2.4.4-3.6,1.1-1.1.8-2.1,1.9-2.8,3.5-.7,1.5-1.1,3.4-1.1,5.5v16.9c0,1.2-.4,2.3-1.2,3.1-.8.8-1.8,1.2-3.1,1.2s-2.3-.4-3.1-1.2c-.8-.8-1.2-1.9-1.2-3.1v-29.5c0-1.2.4-2.3,1.2-3.1.8-.8,1.8-1.2,3.1-1.2s2.3.4,3.1,1.2c.8.8,1.2,1.9,1.2,3.1v.9c1.1-2,2.7-3.4,4.7-4.5,2-1,4.2-1.5,6.6-1.5s2.6.4,3.6,1.2Z"/>
    <path class="st0" d="M349.5,182.3c-.7-.5-1-1.5-1-2.8v-1.4c0-1.3.4-2.3,1.1-2.8s1.9-.8,3.4-.8,2.8.3,3.5.8c.7.5,1,1.5,1,2.8v1.4c0,1.4-.3,2.3-1,2.8-.7.5-1.9.8-3.5.8s-2.8-.3-3.4-.8ZM356.1,224.6c-.8.8-1.8,1.2-3.1,1.2s-2.3-.4-3.1-1.2c-.8-.8-1.2-1.9-1.2-3.1v-29.5c0-1.2.4-2.3,1.2-3.1.8-.8,1.8-1.2,3.1-1.2s2.3.4,3.1,1.2c.8.8,1.2,1.9,1.2,3.1v29.5c0,1.2-.4,2.3-1.2,3.1Z"/>
    <path class="st0" d="M400.1,188.2c.8.8,1.2,1.9,1.2,3.1v30.2c0,1.2-.4,2.3-1.2,3.1-.8.8-1.8,1.2-3.1,1.2s-2.2-.4-3-1.2c-.8-.8-1.2-1.8-1.2-3.1-1.2,1.4-2.8,2.6-4.8,3.5-2,1-4.2,1.5-6.4,1.5-3.3,0-6.3-.8-8.9-2.5-2.7-1.7-4.8-4-6.3-7-1.5-3-2.3-6.4-2.3-10.2s.8-7.2,2.3-10.2c1.5-3,3.6-5.4,6.2-7.1,2.6-1.7,5.6-2.5,8.7-2.5s4.4.4,6.4,1.2c2,.8,3.7,1.9,5.1,3.2h0c0-1.3.4-2.3,1.2-3.2.8-.8,1.8-1.2,3.1-1.2s2.3.4,3.1,1.2ZM390.1,215.3c2-2.3,2.9-5.1,2.9-8.5s-1-6.3-2.9-8.6-4.5-3.4-7.6-3.4-5.5,1.1-7.5,3.4c-2,2.3-2.9,5.1-2.9,8.6s1,6.3,2.9,8.5c1.9,2.3,4.4,3.4,7.5,3.4s5.6-1.1,7.6-3.4Z"/>
  </g>
  <g class="st2">
    <path class="st0" d="M269.7,64c.9.9,1.3,1.8,1.3,2.9s-.8,2.7-2.4,4c-1.6,1.3-3.5,2.3-5.9,3-2.3.8-4.4,1.1-6.2,1.1-3,0-5.5-.3-7.2-.9-1.8-.6-3.6-1.4-5.4-2.5-1.2-.7-2.2-1.2-2.9-1.5-.8-.3-1.7-.5-2.7-.5s-1,0-1.4.2c-.4.1-.9.4-1.5.6-.6.3-1.2.6-1.7.7-.5.2-1.2.2-2,.2s-2.1-.4-3-1.3c-.8-.9-1.2-1.9-1.2-3,0-1.9.8-3.1,2.5-3.7l7.1-2.6c-3.7-.8-7-2.4-9.9-4.8-2.9-2.4-5.1-5.4-6.6-8.9-1.6-3.5-2.4-7.3-2.4-11.4s1-9,3.1-13c2.1-3.9,4.9-7,8.6-9.3,3.7-2.3,7.8-3.4,12.5-3.4s8.8,1.1,12.5,3.4c3.7,2.3,6.6,5.4,8.7,9.3,2.1,3.9,3.1,8.2,3.1,13s-.8,7.9-2.4,11.4c-1.6,3.5-3.8,6.5-6.7,8.9-2.9,2.4-6.2,4-9.9,4.8l-4.4,1.6c1.1.1,2.1.4,3,.8.9.4,2,.9,3.2,1.6,1.5.8,2.8,1.4,3.9,1.8,1.1.4,2.3.6,3.7.6s2.2-.2,3.1-.5,1.7-.9,2.5-1.5c.3-.2.7-.6,1.3-1,.6-.5,1.1-.8,1.6-1,.5-.2,1-.4,1.4-.4,1,0,1.9.4,2.8,1.3ZM229.4,44.4c1.3,2.6,3,4.7,5.3,6.2,2.3,1.5,4.8,2.2,7.7,2.2s5.4-.8,7.7-2.3c2.3-1.5,4.1-3.6,5.4-6.2,1.3-2.6,1.9-5.5,1.9-8.7s-.6-6.1-1.9-8.7c-1.3-2.6-3.1-4.7-5.4-6.2-2.3-1.5-4.9-2.3-7.7-2.3s-5.5.7-7.7,2.2c-2.3,1.5-4,3.6-5.3,6.2-1.3,2.6-1.9,5.5-1.9,8.7s.6,6.1,1.9,8.7Z"/>
    <path class="st0" d="M308.6,51.9c-1.7,3-4.1,5.4-7,7-3,1.7-6.2,2.5-9.8,2.5s-6.9-.8-9.9-2.5c-3-1.7-5.3-4-7-7-1.7-3-2.6-6.4-2.6-10.2s.9-7.2,2.6-10.2c1.7-3,4-5.4,7-7.1,3-1.7,6.2-2.5,9.9-2.5s6.8.8,9.8,2.5c3,1.7,5.3,4,7,7.1,1.7,3,2.6,6.4,2.6,10.2s-.9,7.2-2.6,10.2ZM301.1,35.4c-1-1.8-2.3-3.2-3.9-4.2-1.6-1-3.5-1.5-5.5-1.5s-3.8.5-5.5,1.5c-1.6,1-3,2.4-3.9,4.2-1,1.8-1.5,3.9-1.5,6.2s.5,4.4,1.5,6.2c1,1.8,2.3,3.2,3.9,4.2s3.5,1.5,5.5,1.5,3.8-.5,5.5-1.5,3-2.4,3.9-4.2c1-1.8,1.5-3.9,1.5-6.2s-.5-4.4-1.5-6.2Z"/>
    <path class="st0" d="M341.7,23c1,.8,1.5,1.8,1.5,2.9s-.4,2.6-1.1,3.3c-.8.7-1.7,1.1-2.7,1.1s-1.5-.2-2.4-.5c-.1,0-.5-.1-1-.3-.5-.1-1-.2-1.6-.2-1.2,0-2.4.4-3.6,1.1-1.1.8-2.1,1.9-2.8,3.5-.7,1.5-1.1,3.4-1.1,5.5v16.9c0,1.2-.4,2.3-1.2,3.1-.8.8-1.8,1.2-3.1,1.2s-2.3-.4-3.1-1.2c-.8-.8-1.2-1.9-1.2-3.1v-29.5c0-1.2.4-2.3,1.2-3.1.8-.8,1.8-1.2,3.1-1.2s2.3.4,3.1,1.2c.8.8,1.2,1.9,1.2,3.1v.9c1.1-2,2.7-3.4,4.7-4.5,2-1,4.2-1.5,6.6-1.5s2.6.4,3.6,1.2Z"/>
    <path class="st0" d="M349.5,17.1c-.7-.5-1-1.5-1-2.8v-1.4c0-1.3.4-2.3,1.1-2.8.7-.5,1.9-.8,3.4-.8s2.8.3,3.5.8c.7.5,1,1.5,1,2.8v1.4c0,1.4-.3,2.3-1,2.8-.7.5-1.9.7-3.5.7s-2.8-.3-3.4-.8ZM356.1,59.4c-.8.8-1.8,1.2-3.1,1.2s-2.3-.4-3.1-1.2c-.8-.8-1.2-1.9-1.2-3.1v-29.5c0-1.2.4-2.3,1.2-3.1.8-.8,1.8-1.2,3.1-1.2s2.3.4,3.1,1.2c.8.8,1.2,1.9,1.2,3.1v29.5c0,1.2-.4,2.3-1.2,3.1Z"/>
    <path class="st0" d="M400.1,23c.8.8,1.2,1.9,1.2,3.1v30.2c0,1.2-.4,2.3-1.2,3.1-.8.8-1.8,1.2-3.1,1.2s-2.2-.4-3-1.2c-.8-.8-1.2-1.8-1.2-3.1-1.2,1.4-2.8,2.6-4.8,3.5-2,1-4.2,1.5-6.4,1.5-3.3,0-6.3-.8-8.9-2.5-2.7-1.7-4.8-4-6.3-7-1.5-3-2.3-6.4-2.3-10.2s.8-7.2,2.3-10.2c1.5-3,3.6-5.4,6.2-7.1,2.6-1.7,5.6-2.5,8.7-2.5s4.4.4,6.4,1.2c2,.8,3.7,1.9,5.1,3.2h0c0-1.3.4-2.3,1.2-3.2.8-.8,1.8-1.2,3.1-1.2s2.3.4,3.1,1.2ZM390.1,50.1c2-2.3,2.9-5.1,2.9-8.5s-1-6.3-2.9-8.6-4.5-3.4-7.6-3.4-5.5,1.1-7.5,3.4c-2,2.3-2.9,5.1-2.9,8.6s1,6.3,2.9,8.5c1.9,2.3,4.4,3.4,7.5,3.4s5.6-1.1,7.6-3.4Z"/>
  </g>
</svg>