<?xml version="1.0" encoding="UTF-8"?>
<svg id="Layer_1" xmlns="http://www.w3.org/2000/svg" version="1.1" viewBox="0 0 334 330.1">
  <!-- Generator: Adobe Illustrator 29.1.0, SVG Export Plug-In . SVG Version: 2.1.0 Build 142)  -->
  <defs>
    <style>
      .st0, .st1 {
        opacity: 0;
      }

      .st0, .st2 {
        fill: #fff;
      }
    </style>
  </defs>
  <g class="st1">
    <path class="st2" d="M41.3,11.7c0,1-.3,1.9-1,2.8-.7,1-1.7,1.5-2.8,1.5s-1.6-.2-2.4-.6c-2.3-1.1-4.7-1.6-7.3-1.6s-6,.7-8.5,2c-2.4,1.4-4.2,3.3-5.5,5.7-1.3,2.5-1.9,5.3-1.9,8.5,0,5.4,1.5,9.6,4.4,12.4,2.9,2.8,6.8,4.2,11.5,4.2s5.3-.5,7.3-1.6c.8-.4,1.6-.6,2.2-.6,1.2,0,2.2.5,3,1.5.7.9,1,1.8,1,2.8s-.2,1.4-.6,2c-.4.6-.9,1.1-1.6,1.4-3.6,1.8-7.4,2.7-11.5,2.7s-8.7-1-12.5-2.9c-3.8-1.9-6.8-4.7-9.1-8.5-2.3-3.7-3.4-8.3-3.4-13.6s1.1-8.9,3.2-12.7c2.1-3.7,5.1-6.7,8.9-8.8,3.8-2.1,8.1-3.2,12.8-3.2s7.9.9,11.4,2.7c1.4.7,2.1,1.9,2.1,3.5Z"/>
    <path class="st2" d="M55.7,53.1c-.8.8-1.8,1.2-3,1.2s-2.1-.4-2.9-1.2c-.8-.8-1.2-1.8-1.2-3V7.3c0-1.2.4-2.2,1.2-3s1.8-1.2,3-1.2,2.1.4,2.9,1.2c.8.8,1.2,1.8,1.2,3v42.8c0,1.2-.4,2.2-1.2,3Z"/>
    <path class="st2" d="M99.6,17.8c.8.8,1.2,1.8,1.2,3v29.3c0,1.2-.4,2.2-1.2,3-.8.8-1.8,1.2-3,1.2s-2.2-.4-2.9-1.2c-.8-.8-1.2-1.8-1.2-3-1.2,1.3-2.7,2.5-4.7,3.4-2,.9-4,1.4-6.2,1.4-3.2,0-6.1-.8-8.7-2.5-2.6-1.6-4.6-3.9-6.1-6.8-1.5-2.9-2.3-6.2-2.3-9.9s.7-7,2.2-9.9c1.5-2.9,3.5-5.2,6.1-6.9,2.6-1.6,5.4-2.5,8.5-2.5s4.3.4,6.2,1.2c1.9.8,3.6,1.8,4.9,3.1h0c0-1.3.4-2.3,1.2-3.1.8-.8,1.8-1.2,3-1.2s2.2.4,3,1.2ZM90,44.1c1.9-2.2,2.8-5,2.8-8.3s-.9-6.1-2.8-8.3c-1.9-2.2-4.3-3.3-7.3-3.3s-5.4,1.1-7.3,3.3c-1.9,2.2-2.8,5-2.8,8.3s.9,6.1,2.8,8.3c1.9,2.2,4.3,3.3,7.3,3.3s5.4-1.1,7.3-3.3Z"/>
    <path class="st2" d="M107,46.5c0-1.2.6-2.2,1.8-3,.6-.4,1.3-.6,2-.6s1.9.4,2.8,1.3c1.4,1.4,2.8,2.5,4.3,3.2,1.5.7,3.3,1,5.4,1,3.6-.1,5.4-1.5,5.4-4.1s-.6-2.4-1.8-3c-1.2-.7-3.1-1.4-5.7-2.1-2.7-.7-4.9-1.5-6.5-2.2-1.7-.7-3.1-1.9-4.4-3.4-1.2-1.5-1.8-3.5-1.8-6.1s.6-4.1,1.9-5.8c1.3-1.6,2.9-2.9,5-3.8,2.1-.9,4.2-1.4,6.5-1.4s4.7.4,7.1,1.3c2.4.9,4.2,2.2,5.5,3.9.6.7.9,1.6.9,2.5s-.4,1.9-1.3,2.6c-.6.5-1.4.8-2.2.8s-1.8-.3-2.5-1c-.8-1-1.9-1.8-3.2-2.4-1.3-.6-2.8-.9-4.5-.9-3.5,0-5.3,1.3-5.3,3.8s.3,1.8,1,2.5c.6.6,1.5,1.1,2.5,1.5,1,.3,2.4.8,4.2,1.3,2.5.7,4.6,1.4,6.2,2.1,1.7.7,3.1,1.9,4.2,3.4,1.2,1.5,1.7,3.5,1.7,6s-.7,4.2-2,5.9c-1.3,1.7-3.1,3-5.2,3.8-2.1.9-4.3,1.3-6.5,1.3s-5.9-.5-8.5-1.5-4.8-2.7-6.4-4.9c-.4-.6-.6-1.2-.6-2.1Z"/>
    <path class="st2" d="M140.4,46.5c0-1.2.6-2.2,1.8-3,.6-.4,1.3-.6,2-.6s1.9.4,2.8,1.3c1.4,1.4,2.8,2.5,4.3,3.2,1.5.7,3.3,1,5.4,1,3.6-.1,5.4-1.5,5.4-4.1s-.6-2.4-1.8-3c-1.2-.7-3.1-1.4-5.7-2.1-2.7-.7-4.9-1.5-6.5-2.2-1.7-.7-3.1-1.9-4.4-3.4-1.2-1.5-1.8-3.5-1.8-6.1s.6-4.1,1.9-5.8c1.3-1.6,2.9-2.9,5-3.8,2.1-.9,4.2-1.4,6.5-1.4s4.7.4,7.1,1.3c2.4.9,4.2,2.2,5.5,3.9.6.7.9,1.6.9,2.5s-.4,1.9-1.3,2.6c-.6.5-1.4.8-2.2.8s-1.8-.3-2.5-1c-.8-1-1.9-1.8-3.2-2.4-1.3-.6-2.8-.9-4.5-.9-3.5,0-5.3,1.3-5.3,3.8s.3,1.8,1,2.5c.6.6,1.5,1.1,2.5,1.5,1,.3,2.4.8,4.2,1.3,2.5.7,4.6,1.4,6.2,2.1,1.7.7,3.1,1.9,4.2,3.4,1.2,1.5,1.7,3.5,1.7,6s-.7,4.2-2,5.9c-1.3,1.7-3.1,3-5.2,3.8-2.1.9-4.3,1.3-6.5,1.3s-5.9-.5-8.5-1.5-4.8-2.7-6.4-4.9c-.4-.6-.6-1.2-.6-2.1Z"/>
    <path class="st2" d="M222,18.5c.8.8,1.1,1.8,1.1,3.1s0,.9-.3,1.6l-10.6,28.5c-.3.8-.8,1.5-1.5,2-.7.5-1.5.7-2.3.7h-.6c-1.6-.2-2.7-1-3.5-2.7l-5.9-17-5.6,17c-.8,1.7-2,2.5-3.5,2.6h-.6c-.8,0-1.6-.2-2.3-.7-.7-.5-1.2-1.1-1.5-2l-10.6-28.5c-.2-.5-.3-1-.3-1.6,0-1.2.4-2.2,1.1-3,.8-.9,1.8-1.3,3-1.3s1.7.2,2.4.7c.7.4,1.1,1.1,1.4,2l7.5,20.3,5.5-14.8c.7-1.7,2-2.6,3.8-2.6s1.7.2,2.3.6c.5.4,1,1.1,1.4,1.9l5.3,14.5,7.4-19.9c.3-.9.8-1.5,1.5-2,.7-.4,1.5-.7,2.6-.7s2,.4,2.8,1.2Z"/>
    <path class="st2" d="M230,12c-.6-.5-1-1.4-1-2.7v-1.3c0-1.3.3-2.2,1-2.7.7-.5,1.8-.8,3.3-.8s2.7.3,3.4.8c.6.5,1,1.4,1,2.7v1.3c0,1.3-.3,2.3-1,2.7-.7.5-1.8.7-3.4.7s-2.7-.3-3.3-.8ZM236.4,53.1c-.8.8-1.8,1.2-3,1.2s-2.2-.4-3-1.2c-.8-.8-1.2-1.8-1.2-3v-28.6c0-1.2.4-2.2,1.2-3,.8-.8,1.8-1.2,3-1.2s2.2.4,3,1.2c.8.8,1.2,1.8,1.2,3v28.6c0,1.2-.4,2.2-1.2,3Z"/>
    <path class="st2" d="M272.5,47.8c.7.7,1.1,1.6,1.1,2.7s-.4,2-1.1,2.7c-.7.7-1.7,1.1-2.8,1.1h-22.3c-1.1,0-2-.4-2.7-1.1-.7-.8-1.1-1.6-1.1-2.5s0-1.4.3-2c.2-.5.5-1.1,1-1.8l16.5-21.3h-13.4c-1.1,0-2-.4-2.8-1.1-.7-.7-1.1-1.7-1.1-2.8s.4-2,1.1-2.7c.7-.7,1.7-1.1,2.8-1.1h21.3c1,0,1.9.4,2.6,1.1.7.7,1.1,1.6,1.1,2.7s0,1.3-.2,1.8-.5,1.1-1,1.7l-16.6,21.5h14.5c1.1,0,2,.4,2.8,1.1Z"/>
    <path class="st2" d="M310.9,37.6c-.8.7-1.8,1-2.9,1h-22.9c.6,2.7,1.8,4.9,3.8,6.4,2,1.5,4.2,2.3,6.7,2.3s3.4-.2,4.4-.5c1.1-.3,1.9-.7,2.5-1.1.6-.4,1-.7,1.3-.8.8-.4,1.6-.6,2.4-.6s1.8.3,2.5,1c.7.7,1,1.5,1,2.4s-.6,2.4-1.9,3.4c-1.3,1.1-3,2-5.2,2.7-2.2.7-4.4,1.1-6.6,1.1-3.9,0-7.3-.8-10.1-2.4-2.9-1.6-5.1-3.8-6.7-6.7-1.6-2.8-2.4-6-2.4-9.6s.8-7.5,2.5-10.5c1.7-3,3.9-5.3,6.6-6.9s5.6-2.4,8.7-2.4,5.9.8,8.6,2.5,4.9,3.9,6.5,6.7c1.6,2.8,2.4,5.9,2.4,9.1,0,1.1-.5,2-1.3,2.7ZM285.2,31.8h18.1v-.5c-.2-1.9-1.1-3.6-2.8-5-1.7-1.4-3.6-2.1-5.8-2.1-5.4,0-8.5,2.5-9.5,7.5Z"/>
  </g>
  <path class="st0" d="M203.3,94.9c0,1-.3,1.9-1,2.8-.7,1-1.7,1.5-2.8,1.5s-1.6-.2-2.4-.6c-2.3-1.1-4.7-1.6-7.3-1.6s-6,.7-8.5,2c-2.4,1.4-4.2,3.3-5.5,5.7-1.3,2.5-1.9,5.3-1.9,8.5,0,5.4,1.5,9.6,4.4,12.4,2.9,2.8,6.8,4.2,11.5,4.2s5.3-.5,7.3-1.6c.8-.4,1.6-.6,2.2-.6,1.2,0,2.2.5,3,1.5.7.9,1,1.8,1,2.8s-.2,1.4-.6,2c-.4.6-.9,1.1-1.6,1.4-3.6,1.8-7.4,2.7-11.5,2.7s-8.7-1-12.5-2.9c-3.8-1.9-6.8-4.7-9.1-8.5-2.3-3.7-3.4-8.3-3.4-13.6s1.1-8.9,3.2-12.7c2.1-3.7,5.1-6.7,8.9-8.8,3.8-2.1,8.1-3.2,12.8-3.2s7.9.9,11.4,2.7c1.4.7,2.1,1.9,2.1,3.5Z"/>
  <path class="st0" d="M217.7,136.2c-.8.8-1.8,1.2-3,1.2s-2.1-.4-2.9-1.2c-.8-.8-1.2-1.8-1.2-3v-42.8c0-1.2.4-2.2,1.2-3,.8-.8,1.8-1.2,3-1.2s2.1.4,2.9,1.2c.8.8,1.2,1.8,1.2,3v42.8c0,1.2-.4,2.2-1.2,3Z"/>
  <path class="st0" d="M261.6,100.9c.8.8,1.2,1.8,1.2,3v29.3c0,1.2-.4,2.2-1.2,3-.8.8-1.8,1.2-3,1.2s-2.2-.4-2.9-1.2c-.8-.8-1.2-1.8-1.2-3-1.2,1.3-2.7,2.5-4.7,3.4-2,.9-4,1.4-6.2,1.4-3.2,0-6.1-.8-8.7-2.5-2.6-1.6-4.6-3.9-6.1-6.8-1.5-2.9-2.3-6.2-2.3-9.9s.7-7,2.2-9.9c1.5-2.9,3.5-5.2,6.1-6.9,2.6-1.6,5.4-2.5,8.5-2.5s4.3.4,6.2,1.2c1.9.8,3.6,1.8,4.9,3.1h0c0-1.3.4-2.3,1.2-3.1.8-.8,1.8-1.2,3-1.2s2.2.4,3,1.2ZM252,127.2c1.9-2.2,2.8-5,2.8-8.3s-.9-6.1-2.8-8.3c-1.9-2.2-4.3-3.3-7.3-3.3s-5.4,1.1-7.3,3.3c-1.9,2.2-2.8,5-2.8,8.3s.9,6.1,2.8,8.3c1.9,2.2,4.3,3.3,7.3,3.3s5.4-1.1,7.3-3.3Z"/>
  <path class="st0" d="M269,129.6c0-1.2.6-2.2,1.8-3,.6-.4,1.3-.6,2-.6s1.9.4,2.8,1.3c1.4,1.4,2.8,2.5,4.3,3.2,1.5.7,3.3,1,5.4,1,3.6-.1,5.4-1.5,5.4-4.1s-.6-2.4-1.8-3c-1.2-.7-3.1-1.4-5.7-2.1-2.7-.7-4.9-1.5-6.5-2.2-1.7-.7-3.1-1.9-4.4-3.4-1.2-1.5-1.8-3.5-1.8-6.1s.6-4.1,1.9-5.8c1.3-1.6,2.9-2.9,5-3.8,2.1-.9,4.2-1.4,6.5-1.4s4.7.4,7.1,1.3c2.4.9,4.2,2.2,5.5,3.9.6.7.9,1.6.9,2.5s-.4,1.9-1.3,2.6c-.6.5-1.4.8-2.2.8s-1.8-.3-2.5-1c-.8-1-1.9-1.8-3.2-2.4-1.3-.6-2.8-.9-4.5-.9-3.5,0-5.3,1.3-5.3,3.8s.3,1.8,1,2.5c.6.6,1.5,1.1,2.5,1.5,1,.3,2.4.8,4.2,1.3,2.5.7,4.6,1.4,6.2,2.1,1.7.7,3.1,1.9,4.2,3.4,1.2,1.5,1.7,3.5,1.7,6s-.7,4.2-2,5.9c-1.3,1.7-3.1,3-5.2,3.8-2.1.9-4.3,1.3-6.5,1.3s-5.9-.5-8.5-1.5c-2.6-1-4.8-2.7-6.4-4.9-.4-.6-.6-1.2-.6-2.1Z"/>
  <path class="st0" d="M302.4,129.6c0-1.2.6-2.2,1.8-3,.6-.4,1.3-.6,2-.6s1.9.4,2.8,1.3c1.4,1.4,2.8,2.5,4.3,3.2,1.5.7,3.3,1,5.4,1,3.6-.1,5.4-1.5,5.4-4.1s-.6-2.4-1.8-3c-1.2-.7-3.1-1.4-5.7-2.1-2.7-.7-4.9-1.5-6.5-2.2-1.7-.7-3.1-1.9-4.4-3.4-1.2-1.5-1.8-3.5-1.8-6.1s.6-4.1,1.9-5.8c1.3-1.6,2.9-2.9,5-3.8,2.1-.9,4.2-1.4,6.5-1.4s4.7.4,7.1,1.3c2.4.9,4.2,2.2,5.5,3.9.6.7.9,1.6.9,2.5s-.4,1.9-1.3,2.6c-.6.5-1.4.8-2.2.8s-1.8-.3-2.5-1c-.8-1-1.9-1.8-3.2-2.4-1.3-.6-2.8-.9-4.5-.9-3.5,0-5.3,1.3-5.3,3.8s.3,1.8,1,2.5c.6.6,1.5,1.1,2.5,1.5,1,.3,2.4.8,4.2,1.3,2.5.7,4.6,1.4,6.2,2.1,1.7.7,3.1,1.9,4.2,3.4,1.2,1.5,1.7,3.5,1.7,6s-.7,4.2-2,5.9c-1.3,1.7-3.1,3-5.2,3.8-2.1.9-4.3,1.3-6.5,1.3s-5.9-.5-8.5-1.5c-2.6-1-4.8-2.7-6.4-4.9-.4-.6-.6-1.2-.6-2.1Z"/>
  <path class="st0" d="M49.9,101.6c.8.8,1.1,1.8,1.1,3.1s0,.9-.3,1.6l-10.6,28.5c-.3.8-.8,1.5-1.5,2-.7.5-1.5.7-2.3.7h-.6c-1.6-.2-2.7-1-3.5-2.7l-5.9-17-5.6,17c-.8,1.7-2,2.5-3.5,2.6h-.6c-.8,0-1.6-.2-2.3-.7-.7-.5-1.2-1.1-1.5-2l-10.6-28.5c-.2-.5-.3-1-.3-1.6,0-1.2.4-2.2,1.1-3,.8-.9,1.8-1.3,3-1.3s1.7.2,2.4.7c.7.4,1.1,1.1,1.4,2l7.5,20.3,5.5-14.8c.7-1.7,2-2.6,3.8-2.6s1.7.2,2.3.6c.5.4,1,1.1,1.4,1.9l5.3,14.5,7.4-19.9c.3-.9.8-1.5,1.5-2,.7-.4,1.5-.7,2.6-.7s2,.4,2.8,1.2Z"/>
  <path class="st0" d="M57.9,95.1c-.6-.5-1-1.4-1-2.7v-1.3c0-1.3.3-2.2,1-2.7.7-.5,1.8-.8,3.3-.8s2.7.3,3.4.8c.6.5,1,1.4,1,2.7v1.3c0,1.3-.3,2.3-1,2.7-.7.5-1.8.7-3.4.7s-2.7-.3-3.3-.8ZM64.3,136.2c-.8.8-1.8,1.2-3,1.2s-2.2-.4-3-1.2c-.8-.8-1.2-1.8-1.2-3v-28.6c0-1.2.4-2.2,1.2-3,.8-.8,1.8-1.2,3-1.2s2.2.4,3,1.2c.8.8,1.2,1.8,1.2,3v28.6c0,1.2-.4,2.2-1.2,3Z"/>
  <path class="st0" d="M100.4,130.9c.7.7,1.1,1.6,1.1,2.7s-.4,2-1.1,2.7c-.7.7-1.7,1.1-2.8,1.1h-22.3c-1.1,0-2-.4-2.7-1.1-.7-.8-1.1-1.6-1.1-2.5s0-1.4.3-2c.2-.5.5-1.1,1-1.8l16.5-21.3h-13.4c-1.1,0-2-.4-2.8-1.1-.7-.7-1.1-1.7-1.1-2.8s.4-2,1.1-2.7c.7-.7,1.7-1.1,2.8-1.1h21.3c1,0,1.9.4,2.6,1.1s1.1,1.6,1.1,2.7,0,1.3-.2,1.8c-.1.5-.5,1.1-1,1.7l-16.6,21.5h14.5c1.1,0,2,.4,2.8,1.1Z"/>
  <path class="st0" d="M138.7,120.8c-.8.7-1.8,1-2.9,1h-22.9c.6,2.7,1.8,4.9,3.8,6.4,2,1.5,4.2,2.3,6.7,2.3s3.4-.2,4.4-.5c1.1-.3,1.9-.7,2.5-1.1.6-.4,1-.7,1.3-.8.8-.4,1.6-.6,2.4-.6s1.8.3,2.5,1,1,1.5,1,2.4-.6,2.4-1.9,3.4c-1.3,1.1-3,2-5.2,2.7-2.2.7-4.4,1.1-6.6,1.1-3.9,0-7.3-.8-10.1-2.4-2.9-1.6-5.1-3.8-6.7-6.7-1.6-2.8-2.4-6-2.4-9.6s.8-7.5,2.5-10.5c1.7-3,3.9-5.3,6.6-6.9,2.7-1.6,5.6-2.4,8.7-2.4s5.9.8,8.6,2.5,4.9,3.9,6.5,6.7c1.6,2.8,2.4,5.9,2.4,9.1,0,1.1-.5,2-1.3,2.7ZM113,114.9h18.1v-.5c-.2-1.9-1.1-3.6-2.8-5-1.7-1.4-3.6-2.1-5.8-2.1-5.4,0-8.5,2.5-9.5,7.5Z"/>
  <g class="st1">
    <path class="st2" d="M41.3,178c0,1-.3,1.9-1,2.8-.7,1-1.7,1.5-2.8,1.5s-1.6-.2-2.4-.6c-2.3-1.1-4.7-1.6-7.3-1.6s-6,.7-8.5,2c-2.4,1.4-4.2,3.3-5.5,5.7-1.3,2.5-1.9,5.3-1.9,8.5,0,5.4,1.5,9.6,4.4,12.4,2.9,2.8,6.8,4.2,11.5,4.2s5.3-.5,7.3-1.6c.8-.4,1.6-.6,2.2-.6,1.2,0,2.2.5,3,1.5.7.9,1,1.8,1,2.8s-.2,1.4-.6,2c-.4.6-.9,1.1-1.6,1.4-3.6,1.8-7.4,2.7-11.5,2.7s-8.7-1-12.5-2.9c-3.8-1.9-6.8-4.7-9.1-8.5-2.3-3.7-3.4-8.3-3.4-13.6s1.1-8.9,3.2-12.7c2.1-3.7,5.1-6.7,8.9-8.8,3.8-2.1,8.1-3.2,12.8-3.2s7.9.9,11.4,2.7c1.4.7,2.1,1.9,2.1,3.5Z"/>
    <path class="st2" d="M55.7,219.4c-.8.8-1.8,1.2-3,1.2s-2.1-.4-2.9-1.2c-.8-.8-1.2-1.8-1.2-3v-42.8c0-1.2.4-2.2,1.2-3,.8-.8,1.8-1.2,3-1.2s2.1.4,2.9,1.2c.8.8,1.2,1.8,1.2,3v42.8c0,1.2-.4,2.2-1.2,3Z"/>
    <path class="st2" d="M99.6,184c.8.8,1.2,1.8,1.2,3v29.3c0,1.2-.4,2.2-1.2,3-.8.8-1.8,1.2-3,1.2s-2.2-.4-2.9-1.2c-.8-.8-1.2-1.8-1.2-3-1.2,1.3-2.7,2.5-4.7,3.4-2,.9-4,1.4-6.2,1.4-3.2,0-6.1-.8-8.7-2.5-2.6-1.6-4.6-3.9-6.1-6.8-1.5-2.9-2.3-6.2-2.3-9.9s.7-7,2.2-9.9c1.5-2.9,3.5-5.2,6.1-6.9,2.6-1.6,5.4-2.5,8.5-2.5s4.3.4,6.2,1.2c1.9.8,3.6,1.8,4.9,3.1h0c0-1.3.4-2.3,1.2-3.1.8-.8,1.8-1.2,3-1.2s2.2.4,3,1.2ZM90,210.4c1.9-2.2,2.8-5,2.8-8.3s-.9-6.1-2.8-8.3c-1.9-2.2-4.3-3.3-7.3-3.3s-5.4,1.1-7.3,3.3c-1.9,2.2-2.8,5-2.8,8.3s.9,6.1,2.8,8.3c1.9,2.2,4.3,3.3,7.3,3.3s5.4-1.1,7.3-3.3Z"/>
    <path class="st2" d="M107,212.8c0-1.2.6-2.2,1.8-3,.6-.4,1.3-.6,2-.6s1.9.4,2.8,1.3c1.4,1.4,2.8,2.5,4.3,3.2,1.5.7,3.3,1,5.4,1,3.6-.1,5.4-1.5,5.4-4.1s-.6-2.4-1.8-3c-1.2-.7-3.1-1.4-5.7-2.1-2.7-.7-4.9-1.5-6.5-2.2-1.7-.7-3.1-1.9-4.4-3.4-1.2-1.5-1.8-3.5-1.8-6.1s.6-4.1,1.9-5.8c1.3-1.6,2.9-2.9,5-3.8,2.1-.9,4.2-1.4,6.5-1.4s4.7.4,7.1,1.3c2.4.9,4.2,2.2,5.5,3.9.6.7.9,1.6.9,2.5s-.4,1.9-1.3,2.6c-.6.5-1.4.8-2.2.8s-1.8-.3-2.5-1c-.8-1-1.9-1.8-3.2-2.4-1.3-.6-2.8-.9-4.5-.9-3.5,0-5.3,1.3-5.3,3.8s.3,1.8,1,2.5c.6.6,1.5,1.1,2.5,1.5,1,.3,2.4.8,4.2,1.3,2.5.7,4.6,1.4,6.2,2.1,1.7.7,3.1,1.9,4.2,3.4,1.2,1.5,1.7,3.5,1.7,6s-.7,4.2-2,5.9c-1.3,1.7-3.1,3-5.2,3.8-2.1.9-4.3,1.3-6.5,1.3s-5.9-.5-8.5-1.5c-2.6-1-4.8-2.7-6.4-4.9-.4-.6-.6-1.2-.6-2.1Z"/>
    <path class="st2" d="M140.4,212.8c0-1.2.6-2.2,1.8-3,.6-.4,1.3-.6,2-.6s1.9.4,2.8,1.3c1.4,1.4,2.8,2.5,4.3,3.2,1.5.7,3.3,1,5.4,1,3.6-.1,5.4-1.5,5.4-4.1s-.6-2.4-1.8-3c-1.2-.7-3.1-1.4-5.7-2.1-2.7-.7-4.9-1.5-6.5-2.2-1.7-.7-3.1-1.9-4.4-3.4-1.2-1.5-1.8-3.5-1.8-6.1s.6-4.1,1.9-5.8c1.3-1.6,2.9-2.9,5-3.8,2.1-.9,4.2-1.4,6.5-1.4s4.7.4,7.1,1.3c2.4.9,4.2,2.2,5.5,3.9.6.7.9,1.6.9,2.5s-.4,1.9-1.3,2.6c-.6.5-1.4.8-2.2.8s-1.8-.3-2.5-1c-.8-1-1.9-1.8-3.2-2.4-1.3-.6-2.8-.9-4.5-.9-3.5,0-5.3,1.3-5.3,3.8s.3,1.8,1,2.5c.6.6,1.5,1.1,2.5,1.5,1,.3,2.4.8,4.2,1.3,2.5.7,4.6,1.4,6.2,2.1,1.7.7,3.1,1.9,4.2,3.4,1.2,1.5,1.7,3.5,1.7,6s-.7,4.2-2,5.9c-1.3,1.7-3.1,3-5.2,3.8-2.1.9-4.3,1.3-6.5,1.3s-5.9-.5-8.5-1.5c-2.6-1-4.8-2.7-6.4-4.9-.4-.6-.6-1.2-.6-2.1Z"/>
    <path class="st2" d="M222,184.7c.8.8,1.1,1.8,1.1,3.1s0,.9-.3,1.6l-10.6,28.5c-.3.8-.8,1.5-1.5,2-.7.5-1.5.7-2.3.7h-.6c-1.6-.2-2.7-1-3.5-2.7l-5.9-17-5.6,17c-.8,1.7-2,2.5-3.5,2.6h-.6c-.8,0-1.6-.2-2.3-.7-.7-.5-1.2-1.1-1.5-2l-10.6-28.5c-.2-.5-.3-1-.3-1.6,0-1.2.4-2.2,1.1-3,.8-.9,1.8-1.3,3-1.3s1.7.2,2.4.7c.7.4,1.1,1.1,1.4,2l7.5,20.3,5.5-14.8c.7-1.7,2-2.6,3.8-2.6s1.7.2,2.3.6c.5.4,1,1.1,1.4,1.9l5.3,14.5,7.4-19.9c.3-.9.8-1.5,1.5-2,.7-.4,1.5-.7,2.6-.7s2,.4,2.8,1.2Z"/>
    <path class="st2" d="M230,178.3c-.6-.5-1-1.4-1-2.7v-1.3c0-1.3.3-2.2,1-2.7.7-.5,1.8-.8,3.3-.8s2.7.3,3.4.8c.6.5,1,1.4,1,2.7v1.3c0,1.3-.3,2.3-1,2.7-.7.5-1.8.7-3.4.7s-2.7-.3-3.3-.8ZM236.4,219.4c-.8.8-1.8,1.2-3,1.2s-2.2-.4-3-1.2c-.8-.8-1.2-1.8-1.2-3v-28.6c0-1.2.4-2.2,1.2-3,.8-.8,1.8-1.2,3-1.2s2.2.4,3,1.2c.8.8,1.2,1.8,1.2,3v28.6c0,1.2-.4,2.2-1.2,3Z"/>
    <path class="st2" d="M272.5,214c.7.7,1.1,1.6,1.1,2.7s-.4,2-1.1,2.7c-.7.7-1.7,1.1-2.8,1.1h-22.3c-1.1,0-2-.4-2.7-1.1-.7-.8-1.1-1.6-1.1-2.5s0-1.4.3-2c.2-.5.5-1.1,1-1.8l16.5-21.3h-13.4c-1.1,0-2-.4-2.8-1.1-.7-.7-1.1-1.7-1.1-2.8s.4-2,1.1-2.7c.7-.7,1.7-1.1,2.8-1.1h21.3c1,0,1.9.4,2.6,1.1s1.1,1.6,1.1,2.7,0,1.3-.2,1.8c-.1.5-.5,1.1-1,1.7l-16.6,21.5h14.5c1.1,0,2,.4,2.8,1.1Z"/>
    <path class="st2" d="M310.9,203.9c-.8.7-1.8,1-2.9,1h-22.9c.6,2.7,1.8,4.9,3.8,6.4,2,1.5,4.2,2.3,6.7,2.3s3.4-.2,4.4-.5c1.1-.3,1.9-.7,2.5-1.1.6-.4,1-.7,1.3-.8.8-.4,1.6-.6,2.4-.6s1.8.3,2.5,1,1,1.5,1,2.4-.6,2.4-1.9,3.4c-1.3,1.1-3,2-5.2,2.7-2.2.7-4.4,1.1-6.6,1.1-3.9,0-7.3-.8-10.1-2.4-2.9-1.6-5.1-3.8-6.7-6.7-1.6-2.8-2.4-6-2.4-9.6s.8-7.5,2.5-10.5c1.7-3,3.9-5.3,6.6-6.9,2.7-1.6,5.6-2.4,8.7-2.4s5.9.8,8.6,2.5,4.9,3.9,6.5,6.7c1.6,2.8,2.4,5.9,2.4,9.1,0,1.1-.5,2-1.3,2.7ZM285.2,198h18.1v-.5c-.2-1.9-1.1-3.6-2.8-5-1.7-1.4-3.6-2.1-5.8-2.1-5.4,0-8.5,2.5-9.5,7.5Z"/>
  </g>
  <path class="st0" d="M203.3,261.1c0,1-.3,1.9-1,2.8-.7,1-1.7,1.5-2.8,1.5s-1.6-.2-2.4-.6c-2.3-1.1-4.7-1.6-7.3-1.6s-6,.7-8.5,2c-2.4,1.4-4.2,3.3-5.5,5.7-1.3,2.5-1.9,5.3-1.9,8.5,0,5.4,1.5,9.6,4.4,12.4,2.9,2.8,6.8,4.2,11.5,4.2s5.3-.5,7.3-1.6c.8-.4,1.6-.6,2.2-.6,1.2,0,2.2.5,3,1.5.7.9,1,1.8,1,2.8s-.2,1.4-.6,2c-.4.6-.9,1.1-1.6,1.4-3.6,1.8-7.4,2.7-11.5,2.7s-8.7-1-12.5-2.9c-3.8-1.9-6.8-4.7-9.1-8.5-2.3-3.7-3.4-8.3-3.4-13.6s1.1-8.9,3.2-12.7c2.1-3.7,5.1-6.7,8.9-8.8,3.8-2.1,8.1-3.2,12.8-3.2s7.9.9,11.4,2.7c1.4.7,2.1,1.9,2.1,3.5Z"/>
  <path class="st0" d="M217.7,302.5c-.8.8-1.8,1.2-3,1.2s-2.1-.4-2.9-1.2c-.8-.8-1.2-1.8-1.2-3v-42.8c0-1.2.4-2.2,1.2-3s1.8-1.2,3-1.2,2.1.4,2.9,1.2c.8.8,1.2,1.8,1.2,3v42.8c0,1.2-.4,2.2-1.2,3Z"/>
  <path class="st0" d="M261.6,267.1c.8.8,1.2,1.8,1.2,3v29.3c0,1.2-.4,2.2-1.2,3-.8.8-1.8,1.2-3,1.2s-2.2-.4-2.9-1.2c-.8-.8-1.2-1.8-1.2-3-1.2,1.3-2.7,2.5-4.7,3.4-2,.9-4,1.4-6.2,1.4-3.2,0-6.1-.8-8.7-2.5-2.6-1.6-4.6-3.9-6.1-6.8-1.5-2.9-2.3-6.2-2.3-9.9s.7-7,2.2-9.9c1.5-2.9,3.5-5.2,6.1-6.9,2.6-1.6,5.4-2.5,8.5-2.5s4.3.4,6.2,1.2c1.9.8,3.6,1.8,4.9,3.1h0c0-1.3.4-2.3,1.2-3.1.8-.8,1.8-1.2,3-1.2s2.2.4,3,1.2ZM252,293.5c1.9-2.2,2.8-5,2.8-8.3s-.9-6.1-2.8-8.3c-1.9-2.2-4.3-3.3-7.3-3.3s-5.4,1.1-7.3,3.3c-1.9,2.2-2.8,5-2.8,8.3s.9,6.1,2.8,8.3c1.9,2.2,4.3,3.3,7.3,3.3s5.4-1.1,7.3-3.3Z"/>
  <path class="st0" d="M269,295.9c0-1.2.6-2.2,1.8-3,.6-.4,1.3-.6,2-.6s1.9.4,2.8,1.3c1.4,1.4,2.8,2.5,4.3,3.2,1.5.7,3.3,1,5.4,1,3.6-.1,5.4-1.5,5.4-4.1s-.6-2.4-1.8-3c-1.2-.7-3.1-1.4-5.7-2.1-2.7-.7-4.9-1.5-6.5-2.2-1.7-.7-3.1-1.9-4.4-3.4-1.2-1.5-1.8-3.5-1.8-6.1s.6-4.1,1.9-5.8c1.3-1.6,2.9-2.9,5-3.8,2.1-.9,4.2-1.4,6.5-1.4s4.7.4,7.1,1.3c2.4.9,4.2,2.2,5.5,3.9.6.7.9,1.6.9,2.5s-.4,1.9-1.3,2.6c-.6.5-1.4.8-2.2.8s-1.8-.3-2.5-1c-.8-1-1.9-1.8-3.2-2.4-1.3-.6-2.8-.9-4.5-.9-3.5,0-5.3,1.3-5.3,3.8s.3,1.8,1,2.5c.6.6,1.5,1.1,2.5,1.5,1,.3,2.4.8,4.2,1.3,2.5.7,4.6,1.4,6.2,2.1,1.7.7,3.1,1.9,4.2,3.4,1.2,1.5,1.7,3.5,1.7,6s-.7,4.2-2,5.9c-1.3,1.7-3.1,3-5.2,3.8-2.1.9-4.3,1.3-6.5,1.3s-5.9-.5-8.5-1.5-4.8-2.7-6.4-4.9c-.4-.6-.6-1.2-.6-2.1Z"/>
  <path class="st0" d="M302.4,295.9c0-1.2.6-2.2,1.8-3,.6-.4,1.3-.6,2-.6s1.9.4,2.8,1.3c1.4,1.4,2.8,2.5,4.3,3.2,1.5.7,3.3,1,5.4,1,3.6-.1,5.4-1.5,5.4-4.1s-.6-2.4-1.8-3c-1.2-.7-3.1-1.4-5.7-2.1-2.7-.7-4.9-1.5-6.5-2.2-1.7-.7-3.1-1.9-4.4-3.4-1.2-1.5-1.8-3.5-1.8-6.1s.6-4.1,1.9-5.8c1.3-1.6,2.9-2.9,5-3.8,2.1-.9,4.2-1.4,6.5-1.4s4.7.4,7.1,1.3c2.4.9,4.2,2.2,5.5,3.9.6.7.9,1.6.9,2.5s-.4,1.9-1.3,2.6c-.6.5-1.4.8-2.2.8s-1.8-.3-2.5-1c-.8-1-1.9-1.8-3.2-2.4-1.3-.6-2.8-.9-4.5-.9-3.5,0-5.3,1.3-5.3,3.8s.3,1.8,1,2.5c.6.6,1.5,1.1,2.5,1.5,1,.3,2.4.8,4.2,1.3,2.5.7,4.6,1.4,6.2,2.1,1.7.7,3.1,1.9,4.2,3.4,1.2,1.5,1.7,3.5,1.7,6s-.7,4.2-2,5.9c-1.3,1.7-3.1,3-5.2,3.8-2.1.9-4.3,1.3-6.5,1.3s-5.9-.5-8.5-1.5-4.8-2.7-6.4-4.9c-.4-.6-.6-1.2-.6-2.1Z"/>
  <path class="st0" d="M49.9,267.9c.8.8,1.1,1.8,1.1,3.1s0,.9-.3,1.6l-10.6,28.5c-.3.8-.8,1.5-1.5,2-.7.5-1.5.7-2.3.7h-.6c-1.6-.2-2.7-1-3.5-2.7l-5.9-17-5.6,17c-.8,1.7-2,2.5-3.5,2.6h-.6c-.8,0-1.6-.2-2.3-.7-.7-.5-1.2-1.1-1.5-2l-10.6-28.5c-.2-.5-.3-1-.3-1.6,0-1.2.4-2.2,1.1-3,.8-.9,1.8-1.3,3-1.3s1.7.2,2.4.7c.7.4,1.1,1.1,1.4,2l7.5,20.3,5.5-14.8c.7-1.7,2-2.6,3.8-2.6s1.7.2,2.3.6c.5.4,1,1.1,1.4,1.9l5.3,14.5,7.4-19.9c.3-.9.8-1.5,1.5-2,.7-.4,1.5-.7,2.6-.7s2,.4,2.8,1.2Z"/>
  <path class="st0" d="M57.9,261.4c-.6-.5-1-1.4-1-2.7v-1.3c0-1.3.3-2.2,1-2.7.7-.5,1.8-.8,3.3-.8s2.7.3,3.4.8c.6.5,1,1.4,1,2.7v1.3c0,1.3-.3,2.3-1,2.7-.7.5-1.8.7-3.4.7s-2.7-.3-3.3-.8ZM64.3,302.5c-.8.8-1.8,1.2-3,1.2s-2.2-.4-3-1.2c-.8-.8-1.2-1.8-1.2-3v-28.6c0-1.2.4-2.2,1.2-3,.8-.8,1.8-1.2,3-1.2s2.2.4,3,1.2c.8.8,1.2,1.8,1.2,3v28.6c0,1.2-.4,2.2-1.2,3Z"/>
  <path class="st0" d="M100.4,297.2c.7.7,1.1,1.6,1.1,2.7s-.4,2-1.1,2.7c-.7.7-1.7,1.1-2.8,1.1h-22.3c-1.1,0-2-.4-2.7-1.1-.7-.8-1.1-1.6-1.1-2.5s0-1.4.3-2c.2-.5.5-1.1,1-1.8l16.5-21.3h-13.4c-1.1,0-2-.4-2.8-1.1-.7-.7-1.1-1.7-1.1-2.8s.4-2,1.1-2.7c.7-.7,1.7-1.1,2.8-1.1h21.3c1,0,1.9.4,2.6,1.1s1.1,1.6,1.1,2.7,0,1.3-.2,1.8c-.1.5-.5,1.1-1,1.7l-16.6,21.5h14.5c1.1,0,2,.4,2.8,1.1Z"/>
  <path class="st0" d="M138.7,287c-.8.7-1.8,1-2.9,1h-22.9c.6,2.7,1.8,4.9,3.8,6.4,2,1.5,4.2,2.3,6.7,2.3s3.4-.2,4.4-.5c1.1-.3,1.9-.7,2.5-1.1.6-.4,1-.7,1.3-.8.8-.4,1.6-.6,2.4-.6s1.8.3,2.5,1,1,1.5,1,2.4-.6,2.4-1.9,3.4c-1.3,1.1-3,2-5.2,2.7-2.2.7-4.4,1.1-6.6,1.1-3.9,0-7.3-.8-10.1-2.4-2.9-1.6-5.1-3.8-6.7-6.7-1.6-2.8-2.4-6-2.4-9.6s.8-7.5,2.5-10.5c1.7-3,3.9-5.3,6.6-6.9,2.7-1.6,5.6-2.4,8.7-2.4s5.9.8,8.6,2.5,4.9,3.9,6.5,6.7c1.6,2.8,2.4,5.9,2.4,9.1,0,1.1-.5,2-1.3,2.7ZM113,281.1h18.1v-.5c-.2-1.9-1.1-3.6-2.8-5-1.7-1.4-3.6-2.1-5.8-2.1-5.4,0-8.5,2.5-9.5,7.5Z"/>
</svg>