<?xml version="1.0" encoding="UTF-8"?>
<svg id="Layer_1" xmlns="http://www.w3.org/2000/svg" version="1.1" viewBox="0 0 252.1 190.3">
  <!-- Generator: Adobe Illustrator 29.1.0, SVG Export Plug-In . SVG Version: 2.1.0 Build 142)  -->
  <defs>
    <style>
      .st0, .st1 {
        opacity: 0;
      }

      .st2, .st1 {
        fill: #fff;
      }

      .st1 {
        isolation: isolate;
      }
    </style>
  </defs>
  <g class="st0">
    <path class="st2" d="M82.5,183.7c.5.5.7,1,.7,1.7s-.5,1.6-1.4,2.3c-.9.7-2,1.3-3.4,1.7-1.3.5-2.5.6-3.6.6-1.7,0-3.2-.2-4.2-.5-1-.3-2.1-.8-3.1-1.4-.7-.4-1.3-.7-1.7-.9-.5-.2-1-.3-1.6-.3s-.6,0-.8.1c-.2,0-.5.2-.9.3-.3.2-.7.3-1,.5-.3.1-.7.1-1.2.1s-1.2-.2-1.7-.7c-.5-.5-.7-1.1-.7-1.7,0-1.1.5-1.8,1.4-2.1l4.1-1.5c-2.1-.5-4-1.4-5.7-2.8s-2.9-3.1-3.8-5.1c-.9-2-1.4-4.2-1.4-6.6s.6-5.2,1.8-7.5c1.2-2.2,2.8-4,5-5.4s4.5-2,7.2-2,5.1.6,7.2,2c2.1,1.3,3.8,3.1,5,5.4,1.2,2.2,1.8,4.7,1.8,7.5s-.5,4.6-1.4,6.6c-.9,2-2.2,3.7-3.9,5.1s-3.6,2.3-5.7,2.8l-2.5.9c.6,0,1.2.2,1.7.5s1.2.5,1.8.9c.9.5,1.6.8,2.2,1s1.3.3,2.1.3,1.3-.1,1.8-.3c.5-.2,1-.5,1.4-.9.2-.1.4-.3.7-.6.3-.3.6-.5.9-.6s.6-.2.8-.2c.6,0,1.1.2,1.6.7h0ZM59.3,172.4c.7,1.5,1.7,2.7,3.1,3.6s2.8,1.3,4.4,1.3,3.1-.5,4.4-1.3c1.3-.9,2.4-2.1,3.1-3.6.7-1.5,1.1-3.2,1.1-5s-.3-3.5-1.1-5-1.8-2.7-3.1-3.6-2.8-1.3-4.4-1.3-3.2.4-4.4,1.3c-1.3.9-2.3,2.1-3.1,3.6s-1.1,3.2-1.1,5,.3,3.5,1.1,5h0Z"/>
    <path class="st2" d="M104.9,176.7c-1,1.7-2.4,3.1-4,4-1.7,1-3.6,1.4-5.7,1.4s-4-.5-5.7-1.4-3.1-2.3-4-4-1.5-3.7-1.5-5.9.5-4.2,1.5-5.9c1-1.7,2.3-3.1,4-4.1s3.6-1.4,5.7-1.4,3.9.5,5.7,1.4,3.1,2.3,4,4.1c1,1.7,1.5,3.7,1.5,5.9s-.5,4.2-1.5,5.9ZM100.6,167.2c-.6-1-1.3-1.8-2.2-2.4-.9-.6-2-.9-3.2-.9s-2.2.3-3.2.9c-.9.6-1.7,1.4-2.2,2.4-.6,1-.9,2.2-.9,3.6s.3,2.5.9,3.6c.6,1,1.3,1.8,2.2,2.4.9.6,2,.9,3.2.9s2.2-.3,3.2-.9c.9-.6,1.7-1.4,2.2-2.4.6-1,.9-2.2.9-3.6s-.3-2.5-.9-3.6Z"/>
    <path class="st2" d="M124,160.1c.6.5.9,1,.9,1.7s-.2,1.5-.6,1.9c-.5.4-1,.6-1.6.6s-.9-.1-1.4-.3c0,0-.3,0-.6-.2-.3,0-.6-.1-.9-.1-.7,0-1.4.2-2.1.6-.6.5-1.2,1.1-1.6,2-.4.9-.6,2-.6,3.2v9.7c0,.7-.2,1.3-.7,1.8-.5.5-1,.7-1.8.7s-1.3-.2-1.8-.7c-.5-.5-.7-1.1-.7-1.8v-17c0-.7.2-1.3.7-1.8.5-.5,1-.7,1.8-.7s1.3.2,1.8.7c.5.5.7,1.1.7,1.8v.5c.6-1.2,1.6-2,2.7-2.6,1.2-.6,2.4-.9,3.8-.9s1.5.2,2.1.7h0Z"/>
    <path class="st2" d="M128.5,156.7c-.4-.3-.6-.9-.6-1.6v-.8c0-.7.2-1.3.6-1.6s1.1-.5,2-.5,1.6.2,2,.5.6.9.6,1.6v.8c0,.8-.2,1.3-.6,1.6s-1.1.5-2,.5-1.6-.2-2-.5h0ZM132.3,181.1c-.5.5-1,.7-1.8.7s-1.3-.2-1.8-.7c-.5-.5-.7-1.1-.7-1.8v-17c0-.7.2-1.3.7-1.8.5-.5,1-.7,1.8-.7s1.3.2,1.8.7c.5.5.7,1.1.7,1.8v17c0,.7-.2,1.3-.7,1.8Z"/>
    <path class="st2" d="M157.7,160.1c.5.5.7,1.1.7,1.8v17.4c0,.7-.2,1.3-.7,1.8s-1,.7-1.8.7-1.3-.2-1.7-.7c-.5-.5-.7-1-.7-1.8-.7.8-1.6,1.5-2.8,2-1.2.6-2.4.9-3.7.9-1.9,0-3.6-.5-5.1-1.4-1.6-1-2.8-2.3-3.6-4s-1.3-3.7-1.3-5.9.5-4.2,1.3-5.9,2.1-3.1,3.6-4.1c1.5-1,3.2-1.4,5-1.4s2.5.2,3.7.7c1.2.5,2.1,1.1,2.9,1.8h0c0-.7.2-1.3.7-1.8.5-.5,1-.7,1.8-.7s1.3.2,1.8.7h0ZM151.9,175.7c1.2-1.3,1.7-2.9,1.7-4.9s-.6-3.6-1.7-5-2.6-2-4.4-2-3.2.6-4.3,2-1.7,2.9-1.7,5,.6,3.6,1.7,4.9c1.1,1.3,2.5,2,4.3,2s3.2-.6,4.4-2Z"/>
  </g>
  <g class="st0">
    <path class="st2" d="M82.5,88.5c.5.5.7,1,.7,1.7s-.5,1.6-1.4,2.3c-.9.7-2,1.3-3.4,1.7-1.3.5-2.5.6-3.6.6-1.7,0-3.2-.2-4.2-.5-1-.3-2.1-.8-3.1-1.4-.7-.4-1.3-.7-1.7-.9-.5-.2-1-.3-1.6-.3s-.6,0-.8.1c-.2,0-.5.2-.9.3-.3.2-.7.3-1,.4-.3.1-.7.1-1.2.1s-1.2-.2-1.7-.7c-.5-.5-.7-1.1-.7-1.7,0-1.1.5-1.8,1.4-2.1l4.1-1.5c-2.1-.5-4-1.4-5.7-2.8-1.7-1.4-2.9-3.1-3.8-5.1-.9-2-1.4-4.2-1.4-6.6s.6-5.2,1.8-7.5c1.2-2.2,2.8-4,5-5.4s4.5-2,7.2-2,5.1.6,7.2,2c2.1,1.3,3.8,3.1,5,5.4,1.2,2.2,1.8,4.7,1.8,7.5s-.5,4.6-1.4,6.6c-.9,2-2.2,3.7-3.9,5.1s-3.6,2.3-5.7,2.8l-2.5.9c.6,0,1.2.2,1.7.5.5.2,1.2.5,1.8.9.9.5,1.6.8,2.2,1,.6.2,1.3.3,2.1.3s1.3-.1,1.8-.3c.5-.2,1-.5,1.4-.9.2-.1.4-.3.7-.6.3-.3.6-.5.9-.6s.6-.2.8-.2c.6,0,1.1.2,1.6.7h0ZM59.3,77.2c.7,1.5,1.7,2.7,3.1,3.6s2.8,1.3,4.4,1.3,3.1-.5,4.4-1.3c1.3-.9,2.4-2.1,3.1-3.6.7-1.5,1.1-3.2,1.1-5s-.3-3.5-1.1-5c-.7-1.5-1.8-2.7-3.1-3.6s-2.8-1.3-4.4-1.3-3.2.4-4.4,1.3c-1.3.9-2.3,2.1-3.1,3.6s-1.1,3.2-1.1,5,.3,3.5,1.1,5h0Z"/>
    <path class="st2" d="M104.9,81.5c-1,1.7-2.4,3.1-4,4-1.7,1-3.6,1.4-5.7,1.4s-4-.5-5.7-1.4-3.1-2.3-4-4-1.5-3.7-1.5-5.9.5-4.2,1.5-5.9c1-1.7,2.3-3.1,4-4.1s3.6-1.4,5.7-1.4,3.9.5,5.7,1.4,3.1,2.3,4,4.1c1,1.7,1.5,3.7,1.5,5.9s-.5,4.2-1.5,5.9ZM100.6,72c-.6-1-1.3-1.8-2.2-2.4-.9-.6-2-.9-3.2-.9s-2.2.3-3.2.9c-.9.6-1.7,1.4-2.2,2.4-.6,1-.9,2.2-.9,3.6s.3,2.5.9,3.6,1.3,1.8,2.2,2.4c.9.6,2,.9,3.2.9s2.2-.3,3.2-.9,1.7-1.4,2.2-2.4c.6-1,.9-2.2.9-3.6s-.3-2.5-.9-3.6Z"/>
    <path class="st2" d="M124,64.8c.6.5.9,1,.9,1.7s-.2,1.5-.6,1.9c-.5.4-1,.6-1.6.6s-.9-.1-1.4-.3c0,0-.3,0-.6-.2-.3,0-.6-.1-.9-.1-.7,0-1.4.2-2.1.6-.6.5-1.2,1.1-1.6,2-.4.9-.6,2-.6,3.2v9.7c0,.7-.2,1.3-.7,1.8s-1,.7-1.8.7-1.3-.2-1.8-.7-.7-1.1-.7-1.8v-17c0-.7.2-1.3.7-1.8.5-.5,1-.7,1.8-.7s1.3.2,1.8.7c.5.5.7,1.1.7,1.8v.5c.6-1.2,1.6-2,2.7-2.6,1.2-.6,2.4-.9,3.8-.9s1.5.2,2.1.7h0Z"/>
    <path class="st2" d="M128.5,61.4c-.4-.3-.6-.9-.6-1.6v-.8c0-.7.2-1.3.6-1.6.4-.3,1.1-.5,2-.5s1.6.2,2,.5.6.9.6,1.6v.8c0,.8-.2,1.3-.6,1.6s-1.1.4-2,.4-1.6-.2-2-.5h0ZM132.3,85.8c-.5.5-1,.7-1.8.7s-1.3-.2-1.8-.7-.7-1.1-.7-1.8v-17c0-.7.2-1.3.7-1.8.5-.5,1-.7,1.8-.7s1.3.2,1.8.7c.5.5.7,1.1.7,1.8v17c0,.7-.2,1.3-.7,1.8Z"/>
    <path class="st2" d="M157.7,64.8c.5.5.7,1.1.7,1.8v17.4c0,.7-.2,1.3-.7,1.8-.5.5-1,.7-1.8.7s-1.3-.2-1.7-.7-.7-1-.7-1.8c-.7.8-1.6,1.5-2.8,2-1.2.6-2.4.9-3.7.9-1.9,0-3.6-.5-5.1-1.4-1.6-1-2.8-2.3-3.6-4s-1.3-3.7-1.3-5.9.5-4.2,1.3-5.9,2.1-3.1,3.6-4.1c1.5-1,3.2-1.4,5-1.4s2.5.2,3.7.7c1.2.5,2.1,1.1,2.9,1.8h0c0-.7.2-1.3.7-1.8.5-.5,1-.7,1.8-.7s1.3.2,1.8.7h0ZM151.9,80.4c1.2-1.3,1.7-2.9,1.7-4.9s-.6-3.6-1.7-5-2.6-2-4.4-2-3.2.6-4.3,2-1.7,2.9-1.7,5,.6,3.6,1.7,4.9c1.1,1.3,2.5,2,4.3,2s3.2-.6,4.4-2Z"/>
  </g>
  <g class="st0">
    <path class="st2" d="M31.4,136.1c.5.5.7,1,.7,1.7s-.5,1.6-1.4,2.3c-.9.7-2,1.3-3.4,1.7-1.3.5-2.5.6-3.6.6-1.7,0-3.2-.2-4.2-.5-1-.3-2.1-.8-3.1-1.4-.7-.4-1.3-.7-1.7-.9-.5-.2-1-.3-1.6-.3s-.6,0-.8.1c-.2,0-.5.2-.9.3-.3.2-.7.3-1,.5s-.7.1-1.2.1-1.2-.2-1.7-.7c-.5-.5-.7-1.1-.7-1.7,0-1.1.5-1.8,1.4-2.1l4.1-1.5c-2.1-.5-4-1.4-5.7-2.8-1.7-1.4-2.9-3.1-3.8-5.1-.9-2-1.4-4.2-1.4-6.6s.6-5.2,1.8-7.5c1.2-2.2,2.8-4,5-5.4s4.5-2,7.2-2,5.1.6,7.2,2c2.1,1.3,3.8,3.1,5,5.4,1.2,2.2,1.8,4.7,1.8,7.5s-.5,4.6-1.4,6.6c-.9,2-2.2,3.7-3.9,5.1s-3.6,2.3-5.7,2.8l-2.5.9c.6,0,1.2.2,1.7.5.5.2,1.2.5,1.8.9.9.5,1.6.8,2.2,1,.6.2,1.3.3,2.1.3s1.3-.1,1.8-.3c.5-.2,1-.5,1.4-.9.2-.1.4-.3.7-.6.3-.3.6-.5.9-.6s.6-.2.8-.2c.6,0,1.1.2,1.6.7h0ZM8.1,124.8c.7,1.5,1.7,2.7,3.1,3.6s2.8,1.3,4.4,1.3,3.1-.5,4.4-1.3,2.4-2.1,3.1-3.6,1.1-3.2,1.1-5-.3-3.5-1.1-5-1.8-2.7-3.1-3.6c-1.3-.9-2.8-1.3-4.4-1.3s-3.2.4-4.4,1.3c-1.3.9-2.3,2.1-3.1,3.6-.7,1.5-1.1,3.2-1.1,5s.3,3.5,1.1,5h0Z"/>
    <path class="st2" d="M53.8,129.1c-1,1.7-2.4,3.1-4,4-1.7,1-3.6,1.4-5.7,1.4s-4-.5-5.7-1.4-3.1-2.3-4-4-1.5-3.7-1.5-5.9.5-4.2,1.5-5.9c1-1.7,2.3-3.1,4-4.1,1.7-1,3.6-1.4,5.7-1.4s3.9.5,5.7,1.4,3.1,2.3,4,4.1c1,1.7,1.5,3.7,1.5,5.9s-.5,4.2-1.5,5.9ZM49.5,119.6c-.6-1-1.3-1.8-2.2-2.4s-2-.9-3.2-.9-2.2.3-3.2.9c-.9.6-1.7,1.4-2.2,2.4-.6,1-.9,2.2-.9,3.6s.3,2.5.9,3.6,1.3,1.8,2.2,2.4,2,.9,3.2.9,2.2-.3,3.2-.9c.9-.6,1.7-1.4,2.2-2.4.6-1,.9-2.2.9-3.6s-.3-2.5-.9-3.6Z"/>
    <path class="st2" d="M72.9,112.4c.6.5.9,1,.9,1.7s-.2,1.5-.6,1.9c-.5.4-1,.6-1.6.6s-.9-.1-1.4-.3c0,0-.3,0-.6-.2-.3,0-.6-.1-.9-.1-.7,0-1.4.2-2.1.6-.6.5-1.2,1.1-1.6,2-.4.9-.6,2-.6,3.2v9.7c0,.7-.2,1.3-.7,1.8-.5.5-1,.7-1.8.7s-1.3-.2-1.8-.7c-.5-.5-.7-1.1-.7-1.8v-17c0-.7.2-1.3.7-1.8.5-.5,1-.7,1.8-.7s1.3.2,1.8.7c.5.5.7,1.1.7,1.8v.5c.6-1.2,1.6-2,2.7-2.6,1.2-.6,2.4-.9,3.8-.9s1.5.2,2.1.7h0Z"/>
    <path class="st2" d="M77.4,109c-.4-.3-.6-.9-.6-1.6v-.8c0-.7.2-1.3.6-1.6s1.1-.5,2-.5,1.6.2,2,.5.6.9.6,1.6v.8c0,.8-.2,1.3-.6,1.6s-1.1.5-2,.5-1.6-.2-2-.5h0ZM81.2,133.4c-.5.5-1,.7-1.8.7s-1.3-.2-1.8-.7-.7-1.1-.7-1.8v-17c0-.7.2-1.3.7-1.8s1-.7,1.8-.7,1.3.2,1.8.7.7,1.1.7,1.8v17c0,.7-.2,1.3-.7,1.8Z"/>
    <path class="st2" d="M106.5,112.4c.5.5.7,1.1.7,1.8v17.4c0,.7-.2,1.3-.7,1.8s-1,.7-1.8.7-1.3-.2-1.7-.7-.7-1-.7-1.8c-.7.8-1.6,1.5-2.8,2-1.2.6-2.4.9-3.7.9-1.9,0-3.6-.5-5.1-1.4-1.6-1-2.8-2.3-3.6-4s-1.3-3.7-1.3-5.9.5-4.2,1.3-5.9,2.1-3.1,3.6-4.1c1.5-1,3.2-1.4,5-1.4s2.5.2,3.7.7,2.1,1.1,2.9,1.8h0c0-.7.2-1.3.7-1.8.5-.5,1-.7,1.8-.7s1.3.2,1.8.7h0ZM100.8,128.1c1.2-1.3,1.7-2.9,1.7-4.9s-.6-3.6-1.7-5-2.6-2-4.4-2-3.2.6-4.3,2c-1.2,1.3-1.7,2.9-1.7,5s.6,3.6,1.7,4.9c1.1,1.3,2.5,2,4.3,2s3.2-.6,4.4-2Z"/>
  </g>
  <g class="st0">
    <path class="st2" d="M31.4,40.8c.5.5.7,1,.7,1.7s-.5,1.6-1.4,2.3c-.9.7-2,1.3-3.4,1.7-1.3.5-2.5.6-3.6.6-1.7,0-3.2-.2-4.2-.5-1-.3-2.1-.8-3.1-1.4-.7-.4-1.3-.7-1.7-.9-.5-.2-1-.3-1.6-.3s-.6,0-.8.1c-.2,0-.5.2-.9.3-.3.2-.7.3-1,.4-.3.1-.7.1-1.2.1s-1.2-.2-1.7-.7c-.5-.5-.7-1.1-.7-1.7,0-1.1.5-1.8,1.4-2.1l4.1-1.5c-2.1-.5-4-1.4-5.7-2.8-1.7-1.4-2.9-3.1-3.8-5.1-.9-2-1.4-4.2-1.4-6.6s.6-5.2,1.8-7.5c1.2-2.2,2.8-4,5-5.4s4.5-2,7.2-2,5.1.6,7.2,2c2.1,1.3,3.8,3.1,5,5.4,1.2,2.2,1.8,4.7,1.8,7.5s-.5,4.6-1.4,6.6c-.9,2-2.2,3.7-3.9,5.1s-3.6,2.3-5.7,2.8l-2.5.9c.6,0,1.2.2,1.7.5.5.2,1.2.5,1.8.9.9.5,1.6.8,2.2,1,.6.2,1.3.3,2.1.3s1.3-.1,1.8-.3c.5-.2,1-.5,1.4-.9.2-.1.4-.3.7-.6.3-.3.6-.5.9-.6s.6-.2.8-.2c.6,0,1.1.2,1.6.7h0ZM8.1,29.5c.7,1.5,1.7,2.7,3.1,3.6s2.8,1.3,4.4,1.3,3.1-.5,4.4-1.3,2.4-2.1,3.1-3.6c.7-1.5,1.1-3.2,1.1-5s-.3-3.5-1.1-5c-.7-1.5-1.8-2.7-3.1-3.6-1.3-.9-2.8-1.3-4.4-1.3s-3.2.4-4.4,1.3c-1.3.9-2.3,2.1-3.1,3.6s-1.1,3.2-1.1,5,.3,3.5,1.1,5h0Z"/>
    <path class="st2" d="M53.8,33.9c-1,1.7-2.4,3.1-4,4-1.7,1-3.6,1.4-5.7,1.4s-4-.5-5.7-1.4-3.1-2.3-4-4-1.5-3.7-1.5-5.9.5-4.2,1.5-5.9c1-1.7,2.3-3.1,4-4.1s3.6-1.4,5.7-1.4,3.9.5,5.7,1.4,3.1,2.3,4,4.1c1,1.7,1.5,3.7,1.5,5.9s-.5,4.2-1.5,5.9ZM49.5,24.3c-.6-1-1.3-1.8-2.2-2.4s-2-.9-3.2-.9-2.2.3-3.2.9c-.9.6-1.7,1.4-2.2,2.4-.6,1-.9,2.2-.9,3.6s.3,2.5.9,3.6,1.3,1.8,2.2,2.4,2,.9,3.2.9,2.2-.3,3.2-.9,1.7-1.4,2.2-2.4c.6-1,.9-2.2.9-3.6s-.3-2.5-.9-3.6Z"/>
    <path class="st2" d="M72.9,17.2c.6.5.9,1,.9,1.7s-.2,1.5-.6,1.9c-.5.4-1,.6-1.6.6s-.9-.1-1.4-.3c0,0-.3,0-.6-.2-.3,0-.6-.1-.9-.1-.7,0-1.4.2-2.1.6-.6.5-1.2,1.1-1.6,2-.4.9-.6,2-.6,3.2v9.7c0,.7-.2,1.3-.7,1.8-.5.5-1,.7-1.8.7s-1.3-.2-1.8-.7c-.5-.5-.7-1.1-.7-1.8v-17c0-.7.2-1.3.7-1.8.5-.5,1-.7,1.8-.7s1.3.2,1.8.7c.5.5.7,1.1.7,1.8v.5c.6-1.2,1.6-2,2.7-2.6,1.2-.6,2.4-.9,3.8-.9s1.5.2,2.1.7h0Z"/>
    <path class="st2" d="M77.4,13.8c-.4-.3-.6-.9-.6-1.6v-.8c0-.7.2-1.3.6-1.6.4-.3,1.1-.5,2-.5s1.6.2,2,.5.6.9.6,1.6v.8c0,.8-.2,1.3-.6,1.6s-1.1.4-2,.4-1.6-.2-2-.5h0ZM81.2,38.2c-.5.5-1,.7-1.8.7s-1.3-.2-1.8-.7-.7-1.1-.7-1.8v-17c0-.7.2-1.3.7-1.8.5-.5,1-.7,1.8-.7s1.3.2,1.8.7c.5.5.7,1.1.7,1.8v17c0,.7-.2,1.3-.7,1.8Z"/>
    <path class="st2" d="M106.5,17.2c.5.5.7,1.1.7,1.8v17.4c0,.7-.2,1.3-.7,1.8s-1,.7-1.8.7-1.3-.2-1.7-.7-.7-1-.7-1.8c-.7.8-1.6,1.5-2.8,2-1.2.6-2.4.9-3.7.9-1.9,0-3.6-.5-5.1-1.4-1.6-1-2.8-2.3-3.6-4s-1.3-3.7-1.3-5.9.5-4.2,1.3-5.9,2.1-3.1,3.6-4.1c1.5-1,3.2-1.4,5-1.4s2.5.2,3.7.7c1.2.5,2.1,1.1,2.9,1.8h0c0-.7.2-1.3.7-1.8.5-.5,1-.7,1.8-.7s1.3.2,1.8.7h0ZM100.8,32.8c1.2-1.3,1.7-2.9,1.7-4.9s-.6-3.6-1.7-5-2.6-2-4.4-2-3.2.6-4.3,2-1.7,2.9-1.7,5,.6,3.6,1.7,4.9c1.1,1.3,2.5,2,4.3,2s3.2-.6,4.4-2Z"/>
  </g>
  <path class="st1" d="M206.7,183.7c.5.5.7,1,.7,1.7s-.5,1.6-1.4,2.3-2,1.3-3.4,1.7c-1.3.5-2.5.6-3.6.6-1.7,0-3.2-.2-4.2-.5-1-.3-2.1-.8-3.1-1.4-.7-.4-1.3-.7-1.7-.9-.5-.2-1-.3-1.6-.3s-.6,0-.8.1c-.2,0-.5.2-.9.3-.3.2-.7.3-1,.5-.3.1-.7.1-1.2.1s-1.2-.2-1.7-.7c-.5-.5-.7-1.1-.7-1.7,0-1.1.5-1.8,1.4-2.1l4.1-1.5c-2.1-.5-4-1.4-5.7-2.8s-2.9-3.1-3.8-5.1c-.9-2-1.4-4.2-1.4-6.6s.6-5.2,1.8-7.5c1.2-2.2,2.8-4,5-5.4s4.5-2,7.2-2,5.1.6,7.2,2,3.8,3.1,5,5.4,1.8,4.7,1.8,7.5-.5,4.6-1.4,6.6-2.2,3.7-3.9,5.1c-1.7,1.4-3.6,2.3-5.7,2.8l-2.5.9c.6,0,1.2.2,1.7.5s1.2.5,1.8.9c.9.5,1.6.8,2.2,1s1.3.3,2.1.3,1.3-.1,1.8-.3c.5-.2,1-.5,1.4-.9.2-.1.4-.3.7-.6.3-.3.6-.5.9-.6s.6-.2.8-.2c.6,0,1.1.2,1.6.7h0ZM183.4,172.4c.7,1.5,1.7,2.7,3.1,3.6s2.8,1.3,4.4,1.3,3.1-.5,4.4-1.3c1.3-.9,2.4-2.1,3.1-3.6s1.1-3.2,1.1-5-.3-3.5-1.1-5-1.8-2.7-3.1-3.6-2.8-1.3-4.4-1.3-3.2.4-4.4,1.3c-1.3.9-2.3,2.1-3.1,3.6s-1.1,3.2-1.1,5,.3,3.5,1.1,5h0Z"/>
  <path class="st1" d="M229.1,176.7c-1,1.7-2.4,3.1-4,4-1.7,1-3.6,1.4-5.7,1.4s-4-.5-5.7-1.4-3.1-2.3-4-4-1.5-3.7-1.5-5.9.5-4.2,1.5-5.9,2.3-3.1,4-4.1,3.6-1.4,5.7-1.4,3.9.5,5.7,1.4,3.1,2.3,4,4.1c1,1.7,1.5,3.7,1.5,5.9s-.5,4.2-1.5,5.9ZM224.7,167.2c-.6-1-1.3-1.8-2.2-2.4s-2-.9-3.2-.9-2.2.3-3.2.9c-.9.6-1.7,1.4-2.2,2.4-.6,1-.9,2.2-.9,3.6s.3,2.5.9,3.6c.6,1,1.3,1.8,2.2,2.4s2,.9,3.2.9,2.2-.3,3.2-.9c.9-.6,1.7-1.4,2.2-2.4.6-1,.9-2.2.9-3.6s-.3-2.5-.9-3.6Z"/>
  <path class="st1" d="M248.1,160.1c.6.5.9,1,.9,1.7s-.2,1.5-.6,1.9c-.5.4-1,.6-1.6.6s-.9-.1-1.4-.3c0,0-.3,0-.6-.2-.3,0-.6-.1-.9-.1-.7,0-1.4.2-2.1.6-.6.5-1.2,1.1-1.6,2-.4.9-.6,2-.6,3.2v9.7c0,.7-.2,1.3-.7,1.8s-1,.7-1.8.7-1.3-.2-1.8-.7-.7-1.1-.7-1.8v-17c0-.7.2-1.3.7-1.8s1-.7,1.8-.7,1.3.2,1.8.7.7,1.1.7,1.8v.5c.6-1.2,1.6-2,2.7-2.6,1.2-.6,2.4-.9,3.8-.9s1.5.2,2.1.7h0Z"/>
  <path class="st1" d="M.7,156.7c-.4-.3-.6-.9-.6-1.6v-.8c0-.7.2-1.3.6-1.6s1.1-.5,2-.5,1.6.2,2,.5.6.9.6,1.6v.8c0,.8-.2,1.3-.6,1.6s-1.1.5-2,.5-1.6-.2-2-.5h0ZM4.4,181.1c-.5.5-1,.7-1.8.7s-1.3-.2-1.8-.7c-.5-.5-.7-1.1-.7-1.8v-17c0-.7.2-1.3.7-1.8.5-.5,1-.7,1.8-.7s1.3.2,1.8.7c.5.5.7,1.1.7,1.8v17c0,.7-.2,1.3-.7,1.8Z"/>
  <path class="st1" d="M29.8,160.1c.5.5.7,1.1.7,1.8v17.4c0,.7-.2,1.3-.7,1.8-.5.5-1,.7-1.8.7s-1.3-.2-1.7-.7c-.5-.5-.7-1-.7-1.8-.7.8-1.6,1.5-2.8,2-1.2.6-2.4.9-3.7.9-1.9,0-3.6-.5-5.1-1.4-1.6-1-2.8-2.3-3.6-4s-1.3-3.7-1.3-5.9.5-4.2,1.3-5.9,2.1-3.1,3.6-4.1,3.2-1.4,5-1.4,2.5.2,3.7.7c1.2.5,2.1,1.1,2.9,1.8h0c0-.7.2-1.3.7-1.8.5-.5,1-.7,1.8-.7s1.3.2,1.8.7h0ZM24.1,175.7c1.2-1.3,1.7-2.9,1.7-4.9s-.6-3.6-1.7-5-2.6-2-4.4-2-3.2.6-4.3,2-1.7,2.9-1.7,5,.6,3.6,1.7,4.9c1.1,1.3,2.5,2,4.3,2s3.2-.6,4.4-2Z"/>
  <path class="st1" d="M206.7,88.5c.5.5.7,1,.7,1.7s-.5,1.6-1.4,2.3-2,1.3-3.4,1.7c-1.3.5-2.5.6-3.6.6-1.7,0-3.2-.2-4.2-.5-1-.3-2.1-.8-3.1-1.4-.7-.4-1.3-.7-1.7-.9-.5-.2-1-.3-1.6-.3s-.6,0-.8.1c-.2,0-.5.2-.9.3-.3.2-.7.3-1,.4-.3.1-.7.1-1.2.1s-1.2-.2-1.7-.7c-.5-.5-.7-1.1-.7-1.7,0-1.1.5-1.8,1.4-2.1l4.1-1.5c-2.1-.5-4-1.4-5.7-2.8-1.7-1.4-2.9-3.1-3.8-5.1-.9-2-1.4-4.2-1.4-6.6s.6-5.2,1.8-7.5c1.2-2.2,2.8-4,5-5.4s4.5-2,7.2-2,5.1.6,7.2,2,3.8,3.1,5,5.4,1.8,4.7,1.8,7.5-.5,4.6-1.4,6.6-2.2,3.7-3.9,5.1c-1.7,1.4-3.6,2.3-5.7,2.8l-2.5.9c.6,0,1.2.2,1.7.5.5.2,1.2.5,1.8.9.9.5,1.6.8,2.2,1,.6.2,1.3.3,2.1.3s1.3-.1,1.8-.3,1-.5,1.4-.9c.2-.1.4-.3.7-.6.3-.3.6-.5.9-.6s.6-.2.8-.2c.6,0,1.1.2,1.6.7h0ZM183.4,77.2c.7,1.5,1.7,2.7,3.1,3.6s2.8,1.3,4.4,1.3,3.1-.5,4.4-1.3c1.3-.9,2.4-2.1,3.1-3.6.7-1.5,1.1-3.2,1.1-5s-.3-3.5-1.1-5-1.8-2.7-3.1-3.6-2.8-1.3-4.4-1.3-3.2.4-4.4,1.3c-1.3.9-2.3,2.1-3.1,3.6s-1.1,3.2-1.1,5,.3,3.5,1.1,5h0Z"/>
  <path class="st1" d="M229.1,81.5c-1,1.7-2.4,3.1-4,4-1.7,1-3.6,1.4-5.7,1.4s-4-.5-5.7-1.4-3.1-2.3-4-4-1.5-3.7-1.5-5.9.5-4.2,1.5-5.9,2.3-3.1,4-4.1,3.6-1.4,5.7-1.4,3.9.5,5.7,1.4,3.1,2.3,4,4.1c1,1.7,1.5,3.7,1.5,5.9s-.5,4.2-1.5,5.9ZM224.7,72c-.6-1-1.3-1.8-2.2-2.4s-2-.9-3.2-.9-2.2.3-3.2.9c-.9.6-1.7,1.4-2.2,2.4-.6,1-.9,2.2-.9,3.6s.3,2.5.9,3.6,1.3,1.8,2.2,2.4,2,.9,3.2.9,2.2-.3,3.2-.9,1.7-1.4,2.2-2.4c.6-1,.9-2.2.9-3.6s-.3-2.5-.9-3.6Z"/>
  <path class="st1" d="M248.1,64.8c.6.5.9,1,.9,1.7s-.2,1.5-.6,1.9c-.5.4-1,.6-1.6.6s-.9-.1-1.4-.3c0,0-.3,0-.6-.2-.3,0-.6-.1-.9-.1-.7,0-1.4.2-2.1.6-.6.5-1.2,1.1-1.6,2-.4.9-.6,2-.6,3.2v9.7c0,.7-.2,1.3-.7,1.8-.5.5-1,.7-1.8.7s-1.3-.2-1.8-.7c-.5-.5-.7-1.1-.7-1.8v-17c0-.7.2-1.3.7-1.8.5-.5,1-.7,1.8-.7s1.3.2,1.8.7c.5.5.7,1.1.7,1.8v.5c.6-1.2,1.6-2,2.7-2.6,1.2-.6,2.4-.9,3.8-.9s1.5.2,2.1.7h0Z"/>
  <path class="st1" d="M.7,61.4c-.4-.3-.6-.9-.6-1.6v-.8c0-.7.2-1.3.6-1.6s1.1-.5,2-.5,1.6.2,2,.5.6.9.6,1.6v.8c0,.8-.2,1.3-.6,1.6s-1.1.4-2,.4-1.6-.2-2-.5h0ZM4.4,85.8c-.5.5-1,.7-1.8.7s-1.3-.2-1.8-.7c-.5-.5-.7-1.1-.7-1.8v-17c0-.7.2-1.3.7-1.8.5-.5,1-.7,1.8-.7s1.3.2,1.8.7c.5.5.7,1.1.7,1.8v17c0,.7-.2,1.3-.7,1.8Z"/>
  <path class="st1" d="M29.8,64.8c.5.5.7,1.1.7,1.8v17.4c0,.7-.2,1.3-.7,1.8s-1,.7-1.8.7-1.3-.2-1.7-.7-.7-1-.7-1.8c-.7.8-1.6,1.5-2.8,2-1.2.6-2.4.9-3.7.9-1.9,0-3.6-.5-5.1-1.4-1.6-1-2.8-2.3-3.6-4s-1.3-3.7-1.3-5.9.5-4.2,1.3-5.9,2.1-3.1,3.6-4.1,3.2-1.4,5-1.4,2.5.2,3.7.7c1.2.5,2.1,1.1,2.9,1.8h0c0-.7.2-1.3.7-1.8.5-.5,1-.7,1.8-.7s1.3.2,1.8.7h0ZM24.1,80.4c1.2-1.3,1.7-2.9,1.7-4.9s-.6-3.6-1.7-5-2.6-2-4.4-2-3.2.6-4.3,2-1.7,2.9-1.7,5,.6,3.6,1.7,4.9c1.1,1.3,2.5,2,4.3,2s3.2-.6,4.4-2Z"/>
  <g class="st0">
    <path class="st2" d="M155.5,136.1c.5.5.7,1,.7,1.7s-.5,1.6-1.4,2.3-2,1.3-3.4,1.7c-1.3.5-2.5.6-3.6.6-1.7,0-3.2-.2-4.2-.5-1-.3-2.1-.8-3.1-1.4-.7-.4-1.3-.7-1.7-.9-.5-.2-1-.3-1.6-.3s-.6,0-.8.1c-.2,0-.5.2-.9.3-.3.2-.7.3-1,.5s-.7.1-1.2.1-1.2-.2-1.7-.7c-.5-.5-.7-1.1-.7-1.7,0-1.1.5-1.8,1.4-2.1l4.1-1.5c-2.1-.5-4-1.4-5.7-2.8-1.7-1.4-2.9-3.1-3.8-5.1-.9-2-1.4-4.2-1.4-6.6s.6-5.2,1.8-7.5c1.2-2.2,2.8-4,5-5.4,2.1-1.3,4.5-2,7.2-2s5.1.6,7.2,2c2.1,1.3,3.8,3.1,5,5.4s1.8,4.7,1.8,7.5-.5,4.6-1.4,6.6-2.2,3.7-3.9,5.1c-1.7,1.4-3.6,2.3-5.7,2.8l-2.5.9c.6,0,1.2.2,1.7.5s1.2.5,1.8.9c.9.5,1.6.8,2.2,1,.6.2,1.3.3,2.1.3s1.3-.1,1.8-.3c.5-.2,1-.5,1.4-.9.2-.1.4-.3.7-.6.3-.3.6-.5.9-.6s.6-.2.8-.2c.6,0,1.1.2,1.6.7h0ZM132.3,124.8c.7,1.5,1.7,2.7,3.1,3.6s2.8,1.3,4.4,1.3,3.1-.5,4.4-1.3,2.4-2.1,3.1-3.6c.7-1.5,1.1-3.2,1.1-5s-.3-3.5-1.1-5c-.7-1.5-1.8-2.7-3.1-3.6-1.3-.9-2.8-1.3-4.4-1.3s-3.2.4-4.4,1.3c-1.3.9-2.3,2.1-3.1,3.6-.7,1.5-1.1,3.2-1.1,5s.3,3.5,1.1,5h0Z"/>
    <path class="st2" d="M178,129.1c-1,1.7-2.4,3.1-4,4-1.7,1-3.6,1.4-5.7,1.4s-4-.5-5.7-1.4-3.1-2.3-4-4-1.5-3.7-1.5-5.9.5-4.2,1.5-5.9,2.3-3.1,4-4.1c1.7-1,3.6-1.4,5.7-1.4s3.9.5,5.7,1.4,3.1,2.3,4,4.1c1,1.7,1.5,3.7,1.5,5.9s-.5,4.2-1.5,5.9ZM173.6,119.6c-.6-1-1.3-1.8-2.2-2.4s-2-.9-3.2-.9-2.2.3-3.2.9c-.9.6-1.7,1.4-2.2,2.4-.6,1-.9,2.2-.9,3.6s.3,2.5.9,3.6,1.3,1.8,2.2,2.4,2,.9,3.2.9,2.2-.3,3.2-.9c.9-.6,1.7-1.4,2.2-2.4.6-1,.9-2.2.9-3.6s-.3-2.5-.9-3.6Z"/>
    <path class="st2" d="M197.1,112.4c.6.5.9,1,.9,1.7s-.2,1.5-.6,1.9c-.5.4-1,.6-1.6.6s-.9-.1-1.4-.3c0,0-.3,0-.6-.2-.3,0-.6-.1-.9-.1-.7,0-1.4.2-2.1.6-.6.5-1.2,1.1-1.6,2-.4.9-.6,2-.6,3.2v9.7c0,.7-.2,1.3-.7,1.8-.5.5-1,.7-1.8.7s-1.3-.2-1.8-.7c-.5-.5-.7-1.1-.7-1.8v-17c0-.7.2-1.3.7-1.8.5-.5,1-.7,1.8-.7s1.3.2,1.8.7c.5.5.7,1.1.7,1.8v.5c.6-1.2,1.6-2,2.7-2.6,1.2-.6,2.4-.9,3.8-.9s1.5.2,2.1.7h0Z"/>
    <path class="st2" d="M201.5,109c-.4-.3-.6-.9-.6-1.6v-.8c0-.7.2-1.3.6-1.6s1.1-.5,2-.5,1.6.2,2,.5.6.9.6,1.6v.8c0,.8-.2,1.3-.6,1.6s-1.1.5-2,.5-1.6-.2-2-.5h0ZM205.4,133.4c-.5.5-1,.7-1.8.7s-1.3-.2-1.8-.7c-.5-.5-.7-1.1-.7-1.8v-17c0-.7.2-1.3.7-1.8.5-.5,1-.7,1.8-.7s1.3.2,1.8.7c.5.5.7,1.1.7,1.8v17c0,.7-.2,1.3-.7,1.8Z"/>
    <path class="st2" d="M230.7,112.4c.5.5.7,1.1.7,1.8v17.4c0,.7-.2,1.3-.7,1.8-.5.5-1,.7-1.8.7s-1.3-.2-1.7-.7-.7-1-.7-1.8c-.7.8-1.6,1.5-2.8,2-1.2.6-2.4.9-3.7.9-1.9,0-3.6-.5-5.1-1.4-1.6-1-2.8-2.3-3.6-4s-1.3-3.7-1.3-5.9.5-4.2,1.3-5.9,2.1-3.1,3.6-4.1c1.5-1,3.2-1.4,5-1.4s2.5.2,3.7.7,2.1,1.1,2.9,1.8h0c0-.7.2-1.3.7-1.8.5-.5,1-.7,1.8-.7s1.3.2,1.8.7h0ZM225,128.1c1.2-1.3,1.7-2.9,1.7-4.9s-.6-3.6-1.7-5-2.6-2-4.4-2-3.2.6-4.3,2c-1.2,1.3-1.7,2.9-1.7,5s.6,3.6,1.7,4.9c1.1,1.3,2.5,2,4.3,2s3.2-.6,4.4-2Z"/>
  </g>
  <g class="st0">
    <path class="st2" d="M155.5,40.8c.5.5.7,1,.7,1.7s-.5,1.6-1.4,2.3-2,1.3-3.4,1.7c-1.3.5-2.5.6-3.6.6-1.7,0-3.2-.2-4.2-.5-1-.3-2.1-.8-3.1-1.4-.7-.4-1.3-.7-1.7-.9-.5-.2-1-.3-1.6-.3s-.6,0-.8.1c-.2,0-.5.2-.9.3-.3.2-.7.3-1,.4-.3.1-.7.1-1.2.1s-1.2-.2-1.7-.7c-.5-.5-.7-1.1-.7-1.7,0-1.1.5-1.8,1.4-2.1l4.1-1.5c-2.1-.5-4-1.4-5.7-2.8-1.7-1.4-2.9-3.1-3.8-5.1-.9-2-1.4-4.2-1.4-6.6s.6-5.2,1.8-7.5c1.2-2.2,2.8-4,5-5.4,2.1-1.3,4.5-2,7.2-2s5.1.6,7.2,2c2.1,1.3,3.8,3.1,5,5.4,1.2,2.2,1.8,4.7,1.8,7.5s-.5,4.6-1.4,6.6-2.2,3.7-3.9,5.1c-1.7,1.4-3.6,2.3-5.7,2.8l-2.5.9c.6,0,1.2.2,1.7.5.5.2,1.2.5,1.8.9.9.5,1.6.8,2.2,1,.6.2,1.3.3,2.1.3s1.3-.1,1.8-.3,1-.5,1.4-.9c.2-.1.4-.3.7-.6.3-.3.6-.5.9-.6s.6-.2.8-.2c.6,0,1.1.2,1.6.7h0ZM132.3,29.5c.7,1.5,1.7,2.7,3.1,3.6s2.8,1.3,4.4,1.3,3.1-.5,4.4-1.3,2.4-2.1,3.1-3.6c.7-1.5,1.1-3.2,1.1-5s-.3-3.5-1.1-5c-.7-1.5-1.8-2.7-3.1-3.6-1.3-.9-2.8-1.3-4.4-1.3s-3.2.4-4.4,1.3c-1.3.9-2.3,2.1-3.1,3.6s-1.1,3.2-1.1,5,.3,3.5,1.1,5h0Z"/>
    <path class="st2" d="M178,33.9c-1,1.7-2.4,3.1-4,4-1.7,1-3.6,1.4-5.7,1.4s-4-.5-5.7-1.4-3.1-2.3-4-4-1.5-3.7-1.5-5.9.5-4.2,1.5-5.9,2.3-3.1,4-4.1,3.6-1.4,5.7-1.4,3.9.5,5.7,1.4,3.1,2.3,4,4.1c1,1.7,1.5,3.7,1.5,5.9s-.5,4.2-1.5,5.9ZM173.6,24.3c-.6-1-1.3-1.8-2.2-2.4s-2-.9-3.2-.9-2.2.3-3.2.9c-.9.6-1.7,1.4-2.2,2.4-.6,1-.9,2.2-.9,3.6s.3,2.5.9,3.6,1.3,1.8,2.2,2.4,2,.9,3.2.9,2.2-.3,3.2-.9,1.7-1.4,2.2-2.4c.6-1,.9-2.2.9-3.6s-.3-2.5-.9-3.6Z"/>
    <path class="st2" d="M197.1,17.2c.6.5.9,1,.9,1.7s-.2,1.5-.6,1.9c-.5.4-1,.6-1.6.6s-.9-.1-1.4-.3c0,0-.3,0-.6-.2-.3,0-.6-.1-.9-.1-.7,0-1.4.2-2.1.6-.6.5-1.2,1.1-1.6,2-.4.9-.6,2-.6,3.2v9.7c0,.7-.2,1.3-.7,1.8-.5.5-1,.7-1.8.7s-1.3-.2-1.8-.7c-.5-.5-.7-1.1-.7-1.8v-17c0-.7.2-1.3.7-1.8.5-.5,1-.7,1.8-.7s1.3.2,1.8.7c.5.5.7,1.1.7,1.8v.5c.6-1.2,1.6-2,2.7-2.6,1.2-.6,2.4-.9,3.8-.9s1.5.2,2.1.7h0Z"/>
    <path class="st2" d="M201.5,13.8c-.4-.3-.6-.9-.6-1.6v-.8c0-.7.2-1.3.6-1.6s1.1-.5,2-.5,1.6.2,2,.5.6.9.6,1.6v.8c0,.8-.2,1.3-.6,1.6s-1.1.4-2,.4-1.6-.2-2-.5h0ZM205.4,38.2c-.5.5-1,.7-1.8.7s-1.3-.2-1.8-.7c-.5-.5-.7-1.1-.7-1.8v-17c0-.7.2-1.3.7-1.8.5-.5,1-.7,1.8-.7s1.3.2,1.8.7c.5.5.7,1.1.7,1.8v17c0,.7-.2,1.3-.7,1.8Z"/>
    <path class="st2" d="M230.7,17.2c.5.5.7,1.1.7,1.8v17.4c0,.7-.2,1.3-.7,1.8-.5.5-1,.7-1.8.7s-1.3-.2-1.7-.7-.7-1-.7-1.8c-.7.8-1.6,1.5-2.8,2-1.2.6-2.4.9-3.7.9-1.9,0-3.6-.5-5.1-1.4-1.6-1-2.8-2.3-3.6-4s-1.3-3.7-1.3-5.9.5-4.2,1.3-5.9,2.1-3.1,3.6-4.1,3.2-1.4,5-1.4,2.5.2,3.7.7c1.2.5,2.1,1.1,2.9,1.8h0c0-.7.2-1.3.7-1.8.5-.5,1-.7,1.8-.7s1.3.2,1.8.7h0ZM225,32.8c1.2-1.3,1.7-2.9,1.7-4.9s-.6-3.6-1.7-5-2.6-2-4.4-2-3.2.6-4.3,2-1.7,2.9-1.7,5,.6,3.6,1.7,4.9c1.1,1.3,2.5,2,4.3,2s3.2-.6,4.4-2Z"/>
  </g>
</svg>