<?xml version="1.0" encoding="UTF-8"?>
<svg id="Layer_1" data-name="Layer 1" xmlns="http://www.w3.org/2000/svg" viewBox="0 0 334 310">
  <defs>
    <style>
      .cls-1 {
        opacity: .05;
      }

      .cls-2 {
        fill: #fff;
      }
    </style>
  </defs>
  <g class="cls-1">
    <g>
      <path class="cls-2" d="M47.65,18.14c0,1-.36,1.99-1.08,2.94-.77,1.01-1.75,1.51-2.94,1.51-.81,0-1.63-.22-2.44-.65-2.35-1.1-4.88-1.65-7.61-1.65-3.35,0-6.27.71-8.76,2.12-2.49,1.41-4.4,3.4-5.74,5.96-1.34,2.56-2.01,5.49-2.01,8.79,0,5.65,1.52,9.93,4.56,12.85,3.04,2.92,7.02,4.38,11.95,4.38,2.92,0,5.46-.55,7.61-1.65.86-.38,1.63-.57,2.3-.57,1.24,0,2.3.53,3.16,1.58.72.91,1.08,1.89,1.08,2.94,0,.77-.19,1.46-.57,2.08-.38.62-.93,1.1-1.65,1.44-3.73,1.87-7.7,2.8-11.91,2.8-4.69,0-9-.99-12.92-2.98-3.92-1.98-7.06-4.92-9.4-8.79-2.35-3.88-3.52-8.56-3.52-14.07,0-4.88,1.11-9.26,3.34-13.13s5.3-6.9,9.22-9.08c3.92-2.18,8.35-3.27,13.28-3.27,4.26,0,8.21.93,11.84,2.8,1.48.77,2.22,1.99,2.22,3.66Z"/>
      <path class="cls-2" d="M62.61,61.02c-.84.84-1.88,1.26-3.12,1.26s-2.2-.42-3.01-1.26c-.81-.84-1.22-1.88-1.22-3.12V13.54c0-1.24.42-2.28,1.26-3.12.84-.84,1.88-1.26,3.12-1.26s2.2.42,3.01,1.26c.81.84,1.22,1.88,1.22,3.12v44.36c0,1.25-.42,2.29-1.26,3.12Z"/>
      <path class="cls-2" d="M108.08,24.38c.81.81,1.22,1.87,1.22,3.16v30.36c0,1.25-.41,2.29-1.22,3.12-.81.84-1.84,1.26-3.09,1.26s-2.26-.41-3.05-1.22c-.79-.81-1.21-1.84-1.26-3.09-1.2,1.39-2.81,2.57-4.85,3.55-2.03.98-4.17,1.47-6.42,1.47-3.3,0-6.29-.85-8.97-2.55-2.68-1.7-4.8-4.06-6.35-7.07-1.56-3.01-2.33-6.43-2.33-10.26s.76-7.26,2.3-10.3c1.53-3.04,3.62-5.41,6.28-7.11,2.66-1.7,5.59-2.55,8.79-2.55,2.3,0,4.45.42,6.46,1.26,2.01.84,3.71,1.9,5.1,3.19v-.07c0-1.24.41-2.28,1.22-3.12.81-.84,1.84-1.26,3.09-1.26s2.27.41,3.09,1.22ZM98.1,51.69c1.96-2.27,2.94-5.13,2.94-8.58s-.98-6.32-2.94-8.61c-1.96-2.3-4.5-3.45-7.61-3.45s-5.57,1.15-7.54,3.45c-1.96,2.3-2.94,5.17-2.94,8.61s.97,6.3,2.91,8.58c1.94,2.27,4.46,3.41,7.57,3.41s5.65-1.14,7.61-3.41Z"/>
      <path class="cls-2" d="M115.76,54.17c0-1.24.62-2.3,1.87-3.16.67-.43,1.36-.65,2.08-.65,1.01,0,1.96.46,2.87,1.36,1.44,1.48,2.93,2.58,4.49,3.3,1.55.72,3.43,1.08,5.63,1.08,3.73-.14,5.6-1.55,5.6-4.23,0-1.39-.63-2.44-1.9-3.16-1.27-.72-3.24-1.44-5.92-2.15-2.78-.76-5.04-1.53-6.78-2.3-1.75-.77-3.25-1.93-4.52-3.48-1.27-1.55-1.9-3.65-1.9-6.28,0-2.3.66-4.29,1.97-5.99,1.32-1.7,3.04-3.01,5.17-3.95,2.13-.93,4.39-1.4,6.78-1.4s4.88.46,7.32,1.36c2.44.91,4.35,2.25,5.74,4.02.62.77.93,1.63.93,2.58,0,1.1-.46,2.01-1.36,2.73-.67.53-1.44.79-2.3.79-1.05,0-1.91-.33-2.58-1-.86-1.05-1.97-1.89-3.34-2.51-1.36-.62-2.91-.93-4.63-.93-3.64,0-5.46,1.32-5.46,3.95,0,1.05.33,1.9,1.01,2.55.67.65,1.52,1.15,2.55,1.51,1.03.36,2.48.8,4.34,1.33,2.58.72,4.74,1.46,6.46,2.23,1.72.77,3.18,1.94,4.38,3.52,1.2,1.58,1.79,3.66,1.79,6.24,0,2.34-.69,4.39-2.08,6.14-1.39,1.75-3.17,3.08-5.35,3.98-2.18.91-4.41,1.36-6.71,1.36-3.16,0-6.1-.53-8.83-1.58-2.73-1.05-4.95-2.75-6.67-5.1-.43-.57-.65-1.29-.65-2.15Z"/>
      <path class="cls-2" d="M150.35,54.17c0-1.24.62-2.3,1.87-3.16.67-.43,1.36-.65,2.08-.65,1.01,0,1.96.46,2.87,1.36,1.44,1.48,2.93,2.58,4.49,3.3s3.43,1.08,5.63,1.08c3.73-.14,5.6-1.55,5.6-4.23,0-1.39-.63-2.44-1.9-3.16-1.27-.72-3.24-1.44-5.92-2.15-2.78-.76-5.04-1.53-6.78-2.3-1.75-.77-3.25-1.93-4.52-3.48-1.27-1.55-1.9-3.65-1.9-6.28,0-2.3.66-4.29,1.97-5.99,1.32-1.7,3.04-3.01,5.17-3.95s4.39-1.4,6.78-1.4,4.88.46,7.32,1.36c2.44.91,4.35,2.25,5.74,4.02.62.77.93,1.63.93,2.58,0,1.1-.46,2.01-1.36,2.73-.67.53-1.44.79-2.3.79-1.05,0-1.91-.33-2.58-1-.86-1.05-1.97-1.89-3.34-2.51-1.36-.62-2.91-.93-4.63-.93-3.64,0-5.46,1.32-5.46,3.95,0,1.05.33,1.9,1,2.55s1.52,1.15,2.55,1.51c1.03.36,2.48.8,4.34,1.33,2.58.72,4.74,1.46,6.46,2.23,1.72.77,3.18,1.94,4.38,3.52,1.2,1.58,1.79,3.66,1.79,6.24,0,2.34-.69,4.39-2.08,6.14-1.39,1.75-3.17,3.08-5.35,3.98-2.18.91-4.41,1.36-6.71,1.36-3.16,0-6.1-.53-8.83-1.58-2.73-1.05-4.95-2.75-6.67-5.1-.43-.57-.65-1.29-.65-2.15Z"/>
      <path class="cls-2" d="M234.94,25.14c.79.84,1.18,1.9,1.18,3.19,0,.43-.1.98-.29,1.65l-10.98,29.57c-.29.86-.8,1.54-1.54,2.05-.74.5-1.54.75-2.4.75l-.57-.07c-1.63-.1-2.85-1-3.66-2.73l-6.1-17.66-5.81,17.66c-.81,1.72-2.03,2.63-3.66,2.73l-.57.07c-.86,0-1.66-.25-2.4-.75s-1.26-1.18-1.54-2.05l-10.98-29.57c-.19-.53-.29-1.08-.29-1.65,0-1.2.39-2.24,1.18-3.12.79-.88,1.83-1.33,3.12-1.33.96,0,1.78.23,2.48.68.69.46,1.18,1.14,1.47,2.05l7.75,21.03,5.67-15.36c.76-1.77,2.08-2.66,3.95-2.66,1,0,1.78.22,2.33.65.55.43,1.02,1.1,1.4,2.01l5.53,15,7.68-20.67c.29-.91.79-1.59,1.51-2.05.72-.45,1.6-.68,2.66-.68,1.15,0,2.12.42,2.91,1.26Z"/>
      <path class="cls-2" d="M243.23,18.43c-.67-.53-1-1.46-1-2.8v-1.36c0-1.34.36-2.27,1.08-2.8.72-.53,1.87-.79,3.45-.79,1.67,0,2.85.26,3.52.79.67.53,1,1.46,1,2.8v1.36c0,1.39-.35,2.33-1.04,2.83-.69.5-1.88.75-3.55.75s-2.78-.26-3.45-.79ZM249.83,61.02c-.81.84-1.84,1.26-3.09,1.26s-2.27-.42-3.09-1.26c-.81-.84-1.22-1.88-1.22-3.12v-29.64c0-1.24.41-2.28,1.22-3.12.81-.84,1.84-1.26,3.09-1.26s2.27.42,3.09,1.26c.81.84,1.22,1.88,1.22,3.12v29.64c0,1.25-.41,2.29-1.22,3.12Z"/>
      <path class="cls-2" d="M287.22,55.5c.76.74,1.15,1.69,1.15,2.84s-.38,2.03-1.15,2.8c-.77.77-1.72,1.15-2.87,1.15h-23.11c-1.1,0-2.02-.39-2.76-1.18-.74-.79-1.11-1.64-1.11-2.55,0-.81.1-1.49.29-2.05.19-.55.55-1.18,1.08-1.9l17.08-22.11h-13.92c-1.15,0-2.11-.38-2.87-1.15-.77-.76-1.15-1.72-1.15-2.87s.38-2.02,1.15-2.76c.76-.74,1.72-1.11,2.87-1.11h22.11c1.05,0,1.95.37,2.69,1.11.74.74,1.11,1.66,1.11,2.76,0,.72-.07,1.33-.22,1.83-.14.5-.48,1.09-1,1.76l-17.23,22.32h15c1.15,0,2.1.37,2.87,1.11Z"/>
      <path class="cls-2" d="M326.99,44.98c-.86.72-1.87,1.08-3.01,1.08h-23.69c.57,2.82,1.89,5.04,3.95,6.64,2.06,1.6,4.38,2.4,6.96,2.4,1.96,0,3.49-.18,4.59-.54,1.1-.36,1.97-.74,2.62-1.15.65-.41,1.09-.68,1.33-.83.86-.43,1.67-.65,2.44-.65,1,0,1.87.36,2.58,1.08.72.72,1.08,1.56,1.08,2.51,0,1.29-.67,2.46-2.01,3.52-1.34,1.1-3.13,2.03-5.38,2.8-2.25.77-4.52,1.15-6.82,1.15-4.02,0-7.53-.84-10.51-2.51-2.99-1.67-5.3-3.98-6.93-6.93s-2.44-6.26-2.44-9.94c0-4.11.86-7.73,2.58-10.84,1.72-3.11,3.99-5.49,6.82-7.14,2.82-1.65,5.84-2.48,9.04-2.48s6.14.86,8.94,2.58c2.8,1.72,5.03,4.04,6.71,6.96,1.67,2.92,2.51,6.08,2.51,9.47-.05,1.15-.5,2.08-1.36,2.8ZM300.36,38.88h18.81v-.5c-.19-2.01-1.17-3.73-2.94-5.17-1.77-1.44-3.78-2.15-6.03-2.15-5.55,0-8.83,2.61-9.83,7.82Z"/>
    </g>
    <g>
      <path class="cls-2" d="M47.65,175.64c0,1-.36,1.99-1.08,2.94-.77,1.01-1.75,1.51-2.94,1.51-.81,0-1.63-.22-2.44-.65-2.35-1.1-4.88-1.65-7.61-1.65-3.35,0-6.27.71-8.76,2.12-2.49,1.41-4.4,3.4-5.74,5.96-1.34,2.56-2.01,5.49-2.01,8.79,0,5.65,1.52,9.93,4.56,12.85,3.04,2.92,7.02,4.38,11.95,4.38,2.92,0,5.46-.55,7.61-1.65.86-.38,1.63-.57,2.3-.57,1.24,0,2.3.53,3.16,1.58.72.91,1.08,1.89,1.08,2.94,0,.77-.19,1.46-.57,2.08-.38.62-.93,1.1-1.65,1.44-3.73,1.87-7.7,2.8-11.91,2.8-4.69,0-9-.99-12.92-2.98-3.92-1.98-7.06-4.92-9.4-8.79-2.35-3.88-3.52-8.56-3.52-14.07,0-4.88,1.11-9.26,3.34-13.13s5.3-6.9,9.22-9.08c3.92-2.18,8.35-3.27,13.28-3.27,4.26,0,8.21.93,11.84,2.8,1.48.77,2.22,1.99,2.22,3.66Z"/>
      <path class="cls-2" d="M62.61,218.53c-.84.84-1.88,1.26-3.12,1.26s-2.2-.42-3.01-1.26c-.81-.84-1.22-1.88-1.22-3.12v-44.36c0-1.24.42-2.28,1.26-3.12.84-.84,1.88-1.26,3.12-1.26s2.2.42,3.01,1.26c.81.84,1.22,1.88,1.22,3.12v44.36c0,1.25-.42,2.29-1.26,3.12Z"/>
      <path class="cls-2" d="M108.08,181.89c.81.81,1.22,1.87,1.22,3.16v30.36c0,1.25-.41,2.29-1.22,3.12-.81.84-1.84,1.26-3.09,1.26s-2.26-.41-3.05-1.22c-.79-.81-1.21-1.84-1.26-3.09-1.2,1.39-2.81,2.57-4.85,3.55-2.03.98-4.17,1.47-6.42,1.47-3.3,0-6.29-.85-8.97-2.55-2.68-1.7-4.8-4.06-6.35-7.07-1.56-3.01-2.33-6.43-2.33-10.26s.76-7.26,2.3-10.3c1.53-3.04,3.62-5.41,6.28-7.11,2.66-1.7,5.59-2.55,8.79-2.55,2.3,0,4.45.42,6.46,1.26,2.01.84,3.71,1.9,5.1,3.19v-.07c0-1.24.41-2.28,1.22-3.12.81-.84,1.84-1.26,3.09-1.26s2.27.41,3.09,1.22ZM98.1,209.2c1.96-2.27,2.94-5.13,2.94-8.58s-.98-6.32-2.94-8.61c-1.96-2.3-4.5-3.45-7.61-3.45s-5.57,1.15-7.54,3.45c-1.96,2.3-2.94,5.17-2.94,8.61s.97,6.3,2.91,8.58c1.94,2.27,4.46,3.41,7.57,3.41s5.65-1.14,7.61-3.41Z"/>
      <path class="cls-2" d="M115.76,211.67c0-1.24.62-2.3,1.87-3.16.67-.43,1.36-.65,2.08-.65,1.01,0,1.96.46,2.87,1.36,1.44,1.48,2.93,2.58,4.49,3.3,1.55.72,3.43,1.08,5.63,1.08,3.73-.14,5.6-1.55,5.6-4.23,0-1.39-.63-2.44-1.9-3.16-1.27-.72-3.24-1.44-5.92-2.15-2.78-.76-5.04-1.53-6.78-2.3-1.75-.77-3.25-1.93-4.52-3.48-1.27-1.55-1.9-3.65-1.9-6.28,0-2.3.66-4.29,1.97-5.99,1.32-1.7,3.04-3.01,5.17-3.95,2.13-.93,4.39-1.4,6.78-1.4s4.88.46,7.32,1.36c2.44.91,4.35,2.25,5.74,4.02.62.77.93,1.63.93,2.58,0,1.1-.46,2.01-1.36,2.73-.67.53-1.44.79-2.3.79-1.05,0-1.91-.33-2.58-1-.86-1.05-1.97-1.89-3.34-2.51-1.36-.62-2.91-.93-4.63-.93-3.64,0-5.46,1.32-5.46,3.95,0,1.05.33,1.9,1.01,2.55.67.65,1.52,1.15,2.55,1.51,1.03.36,2.48.8,4.34,1.33,2.58.72,4.74,1.46,6.46,2.23,1.72.77,3.18,1.94,4.38,3.52,1.2,1.58,1.79,3.66,1.79,6.24,0,2.34-.69,4.39-2.08,6.14-1.39,1.75-3.17,3.08-5.35,3.98-2.18.91-4.41,1.36-6.71,1.36-3.16,0-6.1-.53-8.83-1.58-2.73-1.05-4.95-2.75-6.67-5.1-.43-.57-.65-1.29-.65-2.15Z"/>
      <path class="cls-2" d="M150.35,211.67c0-1.24.62-2.3,1.87-3.16.67-.43,1.36-.65,2.08-.65,1.01,0,1.96.46,2.87,1.36,1.44,1.48,2.93,2.58,4.49,3.3s3.43,1.08,5.63,1.08c3.73-.14,5.6-1.55,5.6-4.23,0-1.39-.63-2.44-1.9-3.16-1.27-.72-3.24-1.44-5.92-2.15-2.78-.76-5.04-1.53-6.78-2.3-1.75-.77-3.25-1.93-4.52-3.48-1.27-1.55-1.9-3.65-1.9-6.28,0-2.3.66-4.29,1.97-5.99,1.32-1.7,3.04-3.01,5.17-3.95s4.39-1.4,6.78-1.4,4.88.46,7.32,1.36c2.44.91,4.35,2.25,5.74,4.02.62.77.93,1.63.93,2.58,0,1.1-.46,2.01-1.36,2.73-.67.53-1.44.79-2.3.79-1.05,0-1.91-.33-2.58-1-.86-1.05-1.97-1.89-3.34-2.51-1.36-.62-2.91-.93-4.63-.93-3.64,0-5.46,1.32-5.46,3.95,0,1.05.33,1.9,1,2.55s1.52,1.15,2.55,1.51c1.03.36,2.48.8,4.34,1.33,2.58.72,4.74,1.46,6.46,2.23,1.72.77,3.18,1.94,4.38,3.52,1.2,1.58,1.79,3.66,1.79,6.24,0,2.34-.69,4.39-2.08,6.14-1.39,1.75-3.17,3.08-5.35,3.98-2.18.91-4.41,1.36-6.71,1.36-3.16,0-6.1-.53-8.83-1.58-2.73-1.05-4.95-2.75-6.67-5.1-.43-.57-.65-1.29-.65-2.15Z"/>
      <path class="cls-2" d="M234.94,182.64c.79.84,1.18,1.9,1.18,3.19,0,.43-.1.98-.29,1.65l-10.98,29.57c-.29.86-.8,1.54-1.54,2.05-.74.5-1.54.75-2.4.75l-.57-.07c-1.63-.1-2.85-1-3.66-2.73l-6.1-17.66-5.81,17.66c-.81,1.72-2.03,2.63-3.66,2.73l-.57.07c-.86,0-1.66-.25-2.4-.75s-1.26-1.18-1.54-2.05l-10.98-29.57c-.19-.53-.29-1.08-.29-1.65,0-1.2.39-2.24,1.18-3.12.79-.88,1.83-1.33,3.12-1.33.96,0,1.78.23,2.48.68.69.46,1.18,1.14,1.47,2.05l7.75,21.03,5.67-15.36c.76-1.77,2.08-2.66,3.95-2.66,1,0,1.78.22,2.33.65.55.43,1.02,1.1,1.4,2.01l5.53,15,7.68-20.67c.29-.91.79-1.59,1.51-2.05.72-.45,1.6-.68,2.66-.68,1.15,0,2.12.42,2.91,1.26Z"/>
      <path class="cls-2" d="M243.23,175.93c-.67-.53-1-1.46-1-2.8v-1.36c0-1.34.36-2.27,1.08-2.8.72-.53,1.87-.79,3.45-.79,1.67,0,2.85.26,3.52.79.67.53,1,1.46,1,2.8v1.36c0,1.39-.35,2.33-1.04,2.83-.69.5-1.88.75-3.55.75s-2.78-.26-3.45-.79ZM249.83,218.53c-.81.84-1.84,1.26-3.09,1.26s-2.27-.42-3.09-1.26c-.81-.84-1.22-1.88-1.22-3.12v-29.64c0-1.24.41-2.28,1.22-3.12.81-.84,1.84-1.26,3.09-1.26s2.27.42,3.09,1.26c.81.84,1.22,1.88,1.22,3.12v29.64c0,1.25-.41,2.29-1.22,3.12Z"/>
      <path class="cls-2" d="M287.22,213c.76.74,1.15,1.69,1.15,2.84s-.38,2.03-1.15,2.8c-.77.77-1.72,1.15-2.87,1.15h-23.11c-1.1,0-2.02-.39-2.76-1.18-.74-.79-1.11-1.64-1.11-2.55,0-.81.1-1.49.29-2.05.19-.55.55-1.18,1.08-1.9l17.08-22.11h-13.92c-1.15,0-2.11-.38-2.87-1.15-.77-.76-1.15-1.72-1.15-2.87s.38-2.02,1.15-2.76c.76-.74,1.72-1.11,2.87-1.11h22.11c1.05,0,1.95.37,2.69,1.11.74.74,1.11,1.66,1.11,2.76,0,.72-.07,1.33-.22,1.83-.14.5-.48,1.09-1,1.76l-17.23,22.32h15c1.15,0,2.1.37,2.87,1.11Z"/>
      <path class="cls-2" d="M326.99,202.49c-.86.72-1.87,1.08-3.01,1.08h-23.69c.57,2.82,1.89,5.04,3.95,6.64,2.06,1.6,4.38,2.4,6.96,2.4,1.96,0,3.49-.18,4.59-.54,1.1-.36,1.97-.74,2.62-1.15.65-.41,1.09-.68,1.33-.83.86-.43,1.67-.65,2.44-.65,1,0,1.87.36,2.58,1.08.72.72,1.08,1.56,1.08,2.51,0,1.29-.67,2.46-2.01,3.52-1.34,1.1-3.13,2.03-5.38,2.8-2.25.77-4.52,1.15-6.82,1.15-4.02,0-7.53-.84-10.51-2.51-2.99-1.67-5.3-3.98-6.93-6.93s-2.44-6.26-2.44-9.94c0-4.11.86-7.73,2.58-10.84,1.72-3.11,3.99-5.49,6.82-7.14,2.82-1.65,5.84-2.48,9.04-2.48s6.14.86,8.94,2.58c2.8,1.72,5.03,4.04,6.71,6.96,1.67,2.92,2.51,6.08,2.51,9.47-.05,1.15-.5,2.08-1.36,2.8ZM300.36,196.39h18.81v-.5c-.19-2.01-1.17-3.73-2.94-5.17-1.77-1.44-3.78-2.15-6.03-2.15-5.55,0-8.83,2.61-9.83,7.82Z"/>
    </g>
    <g>
      <g>
        <path class="cls-2" d="M215.12,96.89c0,1-.36,1.99-1.08,2.94-.77,1.01-1.75,1.51-2.94,1.51-.81,0-1.63-.22-2.44-.65-2.35-1.1-4.88-1.65-7.61-1.65-3.35,0-6.27.71-8.76,2.12-2.49,1.41-4.4,3.4-5.74,5.96-1.34,2.56-2.01,5.49-2.01,8.79,0,5.65,1.52,9.93,4.56,12.85,3.04,2.92,7.02,4.38,11.95,4.38,2.92,0,5.46-.55,7.61-1.65.86-.38,1.63-.57,2.3-.57,1.24,0,2.3.53,3.16,1.58.72.91,1.08,1.89,1.08,2.94,0,.77-.19,1.46-.57,2.08-.38.62-.93,1.1-1.65,1.44-3.73,1.87-7.7,2.8-11.91,2.8-4.69,0-9-.99-12.92-2.98-3.92-1.98-7.06-4.92-9.4-8.79-2.35-3.88-3.52-8.56-3.52-14.07,0-4.88,1.11-9.26,3.34-13.13s5.3-6.9,9.22-9.08c3.92-2.18,8.35-3.27,13.28-3.27,4.26,0,8.21.93,11.84,2.8,1.48.77,2.22,1.99,2.22,3.66Z"/>
        <path class="cls-2" d="M230.08,139.78c-.84.84-1.88,1.26-3.12,1.26s-2.2-.42-3.01-1.26c-.81-.84-1.22-1.88-1.22-3.12v-44.36c0-1.24.42-2.28,1.26-3.12.84-.84,1.88-1.26,3.12-1.26s2.2.42,3.01,1.26c.81.84,1.22,1.88,1.22,3.12v44.36c0,1.25-.42,2.29-1.26,3.12Z"/>
        <path class="cls-2" d="M275.55,103.14c.81.81,1.22,1.87,1.22,3.16v30.36c0,1.25-.41,2.29-1.22,3.12-.81.84-1.84,1.26-3.09,1.26s-2.26-.41-3.05-1.22c-.79-.81-1.21-1.84-1.26-3.09-1.2,1.39-2.81,2.57-4.85,3.55-2.03.98-4.17,1.47-6.42,1.47-3.3,0-6.29-.85-8.97-2.55-2.68-1.7-4.8-4.06-6.35-7.07-1.56-3.01-2.33-6.43-2.33-10.26s.76-7.26,2.3-10.3c1.53-3.04,3.62-5.41,6.28-7.11,2.66-1.7,5.59-2.55,8.79-2.55,2.3,0,4.45.42,6.46,1.26,2.01.84,3.71,1.9,5.1,3.19v-.07c0-1.24.41-2.28,1.22-3.12.81-.84,1.84-1.26,3.09-1.26s2.27.41,3.09,1.22ZM265.58,130.45c1.96-2.27,2.94-5.13,2.94-8.58s-.98-6.32-2.94-8.61c-1.96-2.3-4.5-3.45-7.61-3.45s-5.57,1.15-7.54,3.45c-1.96,2.3-2.94,5.17-2.94,8.61s.97,6.3,2.91,8.58c1.94,2.27,4.46,3.41,7.57,3.41s5.65-1.14,7.61-3.41Z"/>
        <path class="cls-2" d="M283.23,132.92c0-1.24.62-2.3,1.87-3.16.67-.43,1.36-.65,2.08-.65,1.01,0,1.96.46,2.87,1.36,1.44,1.48,2.93,2.58,4.49,3.3,1.55.72,3.43,1.08,5.63,1.08,3.73-.14,5.6-1.55,5.6-4.23,0-1.39-.63-2.44-1.9-3.16-1.27-.72-3.24-1.44-5.92-2.15-2.78-.76-5.04-1.53-6.78-2.3-1.75-.77-3.25-1.93-4.52-3.48-1.27-1.55-1.9-3.65-1.9-6.28,0-2.3.66-4.29,1.97-5.99,1.32-1.7,3.04-3.01,5.17-3.95,2.13-.93,4.39-1.4,6.78-1.4s4.88.46,7.32,1.36c2.44.91,4.35,2.25,5.74,4.02.62.77.93,1.63.93,2.58,0,1.1-.46,2.01-1.36,2.73-.67.53-1.44.79-2.3.79-1.05,0-1.91-.33-2.58-1-.86-1.05-1.97-1.89-3.34-2.51-1.36-.62-2.91-.93-4.63-.93-3.64,0-5.46,1.32-5.46,3.95,0,1.05.33,1.9,1.01,2.55.67.65,1.52,1.15,2.55,1.51,1.03.36,2.48.8,4.34,1.33,2.58.72,4.74,1.46,6.46,2.23,1.72.77,3.18,1.94,4.38,3.52,1.2,1.58,1.79,3.66,1.79,6.24,0,2.34-.69,4.39-2.08,6.14-1.39,1.75-3.17,3.08-5.35,3.98-2.18.91-4.41,1.36-6.71,1.36-3.16,0-6.1-.53-8.83-1.58-2.73-1.05-4.95-2.75-6.67-5.1-.43-.57-.65-1.29-.65-2.15Z"/>
        <path class="cls-2" d="M331.14,116.95c-1.03-.36-1.88-.86-2.55-1.51s-1-1.49-1-2.55c0-2.63,1.82-3.95,5.46-3.95.33,0,.64.02.96.04v-7.04c-.25,0-.49-.03-.74-.03-2.39,0-4.65.47-6.78,1.4s-3.85,2.25-5.17,3.95c-1.32,1.7-1.97,3.7-1.97,5.99,0,2.63.63,4.73,1.9,6.28,1.27,1.56,2.77,2.72,4.52,3.48,1.75.77,4.01,1.53,6.78,2.3.52.14,1,.28,1.46.41v-7.88c-1.16-.34-2.12-.64-2.86-.9Z"/>
        <path class="cls-2" d="M329.13,133.78c-1.55-.72-3.05-1.82-4.49-3.3-.91-.91-1.87-1.36-2.87-1.36-.72,0-1.41.22-2.08.65-1.24.86-1.87,1.91-1.87,3.16,0,.86.22,1.58.65,2.15,1.72,2.35,3.95,4.04,6.67,5.1,2.73,1.05,5.67,1.58,8.83,1.58,0,0,.02,0,.02,0v-6.92c-1.87-.08-3.5-.41-4.87-1.04Z"/>
      </g>
      <g>
        <path class="cls-2" d="M69.46,103.89c.79.84,1.18,1.9,1.18,3.19,0,.43-.1.98-.29,1.65l-10.98,29.57c-.29.86-.8,1.54-1.54,2.05-.74.5-1.54.75-2.4.75l-.57-.07c-1.63-.1-2.85-1-3.66-2.73l-6.1-17.66-5.81,17.66c-.81,1.72-2.03,2.63-3.66,2.73l-.57.07c-.86,0-1.66-.25-2.4-.75s-1.26-1.18-1.54-2.05l-10.98-29.57c-.19-.53-.29-1.08-.29-1.65,0-1.2.39-2.24,1.18-3.12.79-.88,1.83-1.33,3.12-1.33.96,0,1.78.23,2.48.68.69.46,1.18,1.14,1.47,2.05l7.75,21.03,5.67-15.36c.76-1.77,2.08-2.66,3.95-2.66,1,0,1.78.22,2.33.65.55.43,1.02,1.1,1.4,2.01l5.53,15,7.68-20.67c.29-.91.79-1.59,1.51-2.05.72-.45,1.6-.68,2.66-.68,1.15,0,2.12.42,2.91,1.26Z"/>
        <path class="cls-2" d="M77.75,97.18c-.67-.53-1-1.46-1-2.8v-1.36c0-1.34.36-2.27,1.08-2.8.72-.53,1.87-.79,3.45-.79,1.67,0,2.85.26,3.52.79.67.53,1,1.46,1,2.8v1.36c0,1.39-.35,2.33-1.04,2.83-.69.5-1.88.75-3.55.75s-2.78-.26-3.45-.79ZM84.35,139.78c-.81.84-1.84,1.26-3.09,1.26s-2.27-.42-3.09-1.26c-.81-.84-1.22-1.88-1.22-3.12v-29.64c0-1.24.41-2.28,1.22-3.12.81-.84,1.84-1.26,3.09-1.26s2.27.42,3.09,1.26c.81.84,1.22,1.88,1.22,3.12v29.64c0,1.25-.41,2.29-1.22,3.12Z"/>
        <path class="cls-2" d="M121.74,134.25c.76.74,1.15,1.69,1.15,2.84s-.38,2.03-1.15,2.8c-.77.77-1.72,1.15-2.87,1.15h-23.11c-1.1,0-2.02-.39-2.76-1.18-.74-.79-1.11-1.64-1.11-2.55,0-.81.1-1.49.29-2.05.19-.55.55-1.18,1.08-1.9l17.08-22.11h-13.92c-1.15,0-2.11-.38-2.87-1.15-.77-.76-1.15-1.72-1.15-2.87s.38-2.02,1.15-2.76c.76-.74,1.72-1.11,2.87-1.11h22.11c1.05,0,1.95.37,2.69,1.11.74.74,1.11,1.66,1.11,2.76,0,.72-.07,1.33-.22,1.83-.14.5-.48,1.09-1,1.76l-17.23,22.32h15c1.15,0,2.1.37,2.87,1.11Z"/>
        <path class="cls-2" d="M161.51,123.73c-.86.72-1.87,1.08-3.01,1.08h-23.69c.57,2.82,1.89,5.04,3.95,6.64,2.06,1.6,4.38,2.4,6.96,2.4,1.96,0,3.49-.18,4.59-.54,1.1-.36,1.97-.74,2.62-1.15.65-.41,1.09-.68,1.33-.83.86-.43,1.67-.65,2.44-.65,1,0,1.87.36,2.58,1.08.72.72,1.08,1.56,1.08,2.51,0,1.29-.67,2.46-2.01,3.52-1.34,1.1-3.13,2.03-5.38,2.8-2.25.77-4.52,1.15-6.82,1.15-4.02,0-7.53-.84-10.51-2.51-2.99-1.67-5.3-3.98-6.93-6.93s-2.44-6.26-2.44-9.94c0-4.11.86-7.73,2.58-10.84,1.72-3.11,3.99-5.49,6.82-7.14,2.82-1.65,5.84-2.48,9.04-2.48s6.14.86,8.94,2.58c2.8,1.72,5.03,4.04,6.71,6.96,1.67,2.92,2.51,6.08,2.51,9.47-.05,1.15-.5,2.08-1.36,2.8ZM134.88,117.63h18.81v-.5c-.19-2.01-1.17-3.73-2.94-5.17-1.77-1.44-3.78-2.15-6.03-2.15-5.55,0-8.83,2.61-9.83,7.82Z"/>
        <path class="cls-2" d="M13.08,136.4c1.39-1.75,2.08-3.79,2.08-6.14,0-2.58-.6-4.67-1.79-6.24-1.2-1.58-2.66-2.75-4.38-3.52-1.72-.77-3.88-1.51-6.46-2.23-.53-.15-1.02-.29-1.48-.43v7.88c1.94.58,3.44,1.16,4.46,1.74,1.27.72,1.9,1.77,1.9,3.16,0,2.68-1.87,4.09-5.6,4.23-.26,0-.51-.02-.76-.03v6.92c2.29,0,4.52-.46,6.69-1.36,2.18-.91,3.96-2.24,5.35-3.98Z"/>
        <path class="cls-2" d="M4.72,109.88c1.36.62,2.48,1.46,3.34,2.51.67.67,1.53,1,2.58,1,.86,0,1.63-.26,2.3-.79.91-.72,1.36-1.63,1.36-2.73,0-.96-.31-1.82-.93-2.58-1.39-1.77-3.3-3.11-5.74-4.02-2.19-.82-4.39-1.25-6.58-1.33v7.04c1.34.1,2.57.39,3.67.89Z"/>
      </g>
    </g>
    <g>
      <g>
        <path class="cls-2" d="M215.12,249.74c0,1-.36,1.99-1.08,2.94-.77,1.01-1.75,1.51-2.94,1.51-.81,0-1.63-.22-2.44-.65-2.35-1.1-4.88-1.65-7.61-1.65-3.35,0-6.27.71-8.76,2.12-2.49,1.41-4.4,3.4-5.74,5.96-1.34,2.56-2.01,5.49-2.01,8.79,0,5.65,1.52,9.93,4.56,12.85,3.04,2.92,7.02,4.38,11.95,4.38,2.92,0,5.46-.55,7.61-1.65.86-.38,1.63-.57,2.3-.57,1.24,0,2.3.53,3.16,1.58.72.91,1.08,1.89,1.08,2.94,0,.77-.19,1.46-.57,2.08-.38.62-.93,1.1-1.65,1.44-3.73,1.87-7.7,2.8-11.91,2.8-4.69,0-9-.99-12.92-2.98-3.92-1.98-7.06-4.92-9.4-8.79-2.35-3.88-3.52-8.56-3.52-14.07,0-4.88,1.11-9.26,3.34-13.13s5.3-6.9,9.22-9.08c3.92-2.18,8.35-3.27,13.28-3.27,4.26,0,8.21.93,11.84,2.8,1.48.77,2.22,1.99,2.22,3.66Z"/>
        <path class="cls-2" d="M230.08,292.63c-.84.84-1.88,1.26-3.12,1.26s-2.2-.42-3.01-1.26c-.81-.84-1.22-1.88-1.22-3.12v-44.36c0-1.24.42-2.28,1.26-3.12.84-.84,1.88-1.26,3.12-1.26s2.2.42,3.01,1.26c.81.84,1.22,1.88,1.22,3.12v44.36c0,1.25-.42,2.29-1.26,3.12Z"/>
        <path class="cls-2" d="M275.55,255.99c.81.81,1.22,1.87,1.22,3.16v30.36c0,1.25-.41,2.29-1.22,3.12-.81.84-1.84,1.26-3.09,1.26s-2.26-.41-3.05-1.22c-.79-.81-1.21-1.84-1.26-3.09-1.2,1.39-2.81,2.57-4.85,3.55-2.03.98-4.17,1.47-6.42,1.47-3.3,0-6.29-.85-8.97-2.55-2.68-1.7-4.8-4.06-6.35-7.07-1.56-3.01-2.33-6.43-2.33-10.26s.76-7.26,2.3-10.3c1.53-3.04,3.62-5.41,6.28-7.11,2.66-1.7,5.59-2.55,8.79-2.55,2.3,0,4.45.42,6.46,1.26,2.01.84,3.71,1.9,5.1,3.19v-.07c0-1.24.41-2.28,1.22-3.12.81-.84,1.84-1.26,3.09-1.26s2.27.41,3.09,1.22ZM265.58,283.3c1.96-2.27,2.94-5.13,2.94-8.58s-.98-6.32-2.94-8.61c-1.96-2.3-4.5-3.45-7.61-3.45s-5.57,1.15-7.54,3.45c-1.96,2.3-2.94,5.17-2.94,8.61s.97,6.3,2.91,8.58c1.94,2.27,4.46,3.41,7.57,3.41s5.65-1.14,7.61-3.41Z"/>
        <path class="cls-2" d="M283.23,285.77c0-1.24.62-2.3,1.87-3.16.67-.43,1.36-.65,2.08-.65,1.01,0,1.96.46,2.87,1.36,1.44,1.48,2.93,2.58,4.49,3.3,1.55.72,3.43,1.08,5.63,1.08,3.73-.14,5.6-1.55,5.6-4.23,0-1.39-.63-2.44-1.9-3.16-1.27-.72-3.24-1.44-5.92-2.15-2.78-.76-5.04-1.53-6.78-2.3-1.75-.77-3.25-1.93-4.52-3.48-1.27-1.55-1.9-3.65-1.9-6.28,0-2.3.66-4.29,1.97-5.99,1.32-1.7,3.04-3.01,5.17-3.95,2.13-.93,4.39-1.4,6.78-1.4s4.88.46,7.32,1.36c2.44.91,4.35,2.25,5.74,4.02.62.77.93,1.63.93,2.58,0,1.1-.46,2.01-1.36,2.73-.67.53-1.44.79-2.3.79-1.05,0-1.91-.33-2.58-1-.86-1.05-1.97-1.89-3.34-2.51-1.36-.62-2.91-.93-4.63-.93-3.64,0-5.46,1.32-5.46,3.95,0,1.05.33,1.9,1.01,2.55.67.65,1.52,1.15,2.55,1.51,1.03.36,2.48.8,4.34,1.33,2.58.72,4.74,1.46,6.46,2.23,1.72.77,3.18,1.94,4.38,3.52,1.2,1.58,1.79,3.66,1.79,6.24,0,2.34-.69,4.39-2.08,6.14-1.39,1.75-3.17,3.08-5.35,3.98-2.18.91-4.41,1.36-6.71,1.36-3.16,0-6.1-.53-8.83-1.58-2.73-1.05-4.95-2.75-6.67-5.1-.43-.57-.65-1.29-.65-2.15Z"/>
        <path class="cls-2" d="M331.14,269.8c-1.03-.36-1.88-.86-2.55-1.51s-1-1.49-1-2.55c0-2.63,1.82-3.95,5.46-3.95.33,0,.64.02.96.04v-7.04c-.25,0-.49-.03-.74-.03-2.39,0-4.65.47-6.78,1.4s-3.85,2.25-5.17,3.95c-1.32,1.7-1.97,3.7-1.97,5.99,0,2.63.63,4.73,1.9,6.28,1.27,1.56,2.77,2.72,4.52,3.48,1.75.77,4.01,1.53,6.78,2.3.52.14,1,.28,1.46.41v-7.88c-1.16-.34-2.12-.64-2.86-.9Z"/>
        <path class="cls-2" d="M329.13,286.64c-1.55-.72-3.05-1.82-4.49-3.3-.91-.91-1.87-1.36-2.87-1.36-.72,0-1.41.22-2.08.65-1.24.86-1.87,1.91-1.87,3.16,0,.86.22,1.58.65,2.15,1.72,2.35,3.95,4.04,6.67,5.1,2.73,1.05,5.67,1.58,8.83,1.58,0,0,.02,0,.02,0v-6.92c-1.87-.08-3.5-.41-4.87-1.04Z"/>
      </g>
      <g>
        <path class="cls-2" d="M69.46,256.74c.79.84,1.18,1.9,1.18,3.19,0,.43-.1.98-.29,1.65l-10.98,29.57c-.29.86-.8,1.54-1.54,2.05-.74.5-1.54.75-2.4.75l-.57-.07c-1.63-.1-2.85-1-3.66-2.73l-6.1-17.66-5.81,17.66c-.81,1.72-2.03,2.63-3.66,2.73l-.57.07c-.86,0-1.66-.25-2.4-.75s-1.26-1.18-1.54-2.05l-10.98-29.57c-.19-.53-.29-1.08-.29-1.65,0-1.2.39-2.24,1.18-3.12.79-.88,1.83-1.33,3.12-1.33.96,0,1.78.23,2.48.68.69.46,1.18,1.14,1.47,2.05l7.75,21.03,5.67-15.36c.76-1.77,2.08-2.66,3.95-2.66,1,0,1.78.22,2.33.65.55.43,1.02,1.1,1.4,2.01l5.53,15,7.68-20.67c.29-.91.79-1.59,1.51-2.05.72-.45,1.6-.68,2.66-.68,1.15,0,2.12.42,2.91,1.26Z"/>
        <path class="cls-2" d="M77.75,250.03c-.67-.53-1-1.46-1-2.8v-1.36c0-1.34.36-2.27,1.08-2.8.72-.53,1.87-.79,3.45-.79,1.67,0,2.85.26,3.52.79.67.53,1,1.46,1,2.8v1.36c0,1.39-.35,2.33-1.04,2.83-.69.5-1.88.75-3.55.75s-2.78-.26-3.45-.79ZM84.35,292.63c-.81.84-1.84,1.26-3.09,1.26s-2.27-.42-3.09-1.26c-.81-.84-1.22-1.88-1.22-3.12v-29.64c0-1.24.41-2.28,1.22-3.12.81-.84,1.84-1.26,3.09-1.26s2.27.42,3.09,1.26c.81.84,1.22,1.88,1.22,3.12v29.64c0,1.25-.41,2.29-1.22,3.12Z"/>
        <path class="cls-2" d="M121.74,287.1c.76.74,1.15,1.69,1.15,2.84s-.38,2.03-1.15,2.8c-.77.77-1.72,1.15-2.87,1.15h-23.11c-1.1,0-2.02-.39-2.76-1.18-.74-.79-1.11-1.64-1.11-2.55,0-.81.1-1.49.29-2.05.19-.55.55-1.18,1.08-1.9l17.08-22.11h-13.92c-1.15,0-2.11-.38-2.87-1.15-.77-.76-1.15-1.72-1.15-2.87s.38-2.02,1.15-2.76c.76-.74,1.72-1.11,2.87-1.11h22.11c1.05,0,1.95.37,2.69,1.11.74.74,1.11,1.66,1.11,2.76,0,.72-.07,1.33-.22,1.83-.14.5-.48,1.09-1,1.76l-17.23,22.32h15c1.15,0,2.1.37,2.87,1.11Z"/>
        <path class="cls-2" d="M161.51,276.59c-.86.72-1.87,1.08-3.01,1.08h-23.69c.57,2.82,1.89,5.04,3.95,6.64,2.06,1.6,4.38,2.4,6.96,2.4,1.96,0,3.49-.18,4.59-.54,1.1-.36,1.97-.74,2.62-1.15.65-.41,1.09-.68,1.33-.83.86-.43,1.67-.65,2.44-.65,1,0,1.87.36,2.58,1.08.72.72,1.08,1.56,1.08,2.51,0,1.29-.67,2.46-2.01,3.52-1.34,1.1-3.13,2.03-5.38,2.8-2.25.77-4.52,1.15-6.82,1.15-4.02,0-7.53-.84-10.51-2.51-2.99-1.67-5.3-3.98-6.93-6.93s-2.44-6.26-2.44-9.94c0-4.11.86-7.73,2.58-10.84,1.72-3.11,3.99-5.49,6.82-7.14,2.82-1.65,5.84-2.48,9.04-2.48s6.14.86,8.94,2.58c2.8,1.72,5.03,4.04,6.71,6.96,1.67,2.92,2.51,6.08,2.51,9.47-.05,1.15-.5,2.08-1.36,2.8ZM134.88,270.49h18.81v-.5c-.19-2.01-1.17-3.73-2.94-5.17-1.77-1.44-3.78-2.15-6.03-2.15-5.55,0-8.83,2.61-9.83,7.82Z"/>
        <path class="cls-2" d="M13.08,289.26c1.39-1.75,2.08-3.79,2.08-6.14,0-2.58-.6-4.67-1.79-6.24-1.2-1.58-2.66-2.75-4.38-3.52-1.72-.77-3.88-1.51-6.46-2.23-.53-.15-1.02-.29-1.48-.43v7.88c1.94.58,3.44,1.16,4.46,1.74,1.27.72,1.9,1.77,1.9,3.16,0,2.68-1.87,4.09-5.6,4.23-.26,0-.51-.02-.76-.03v6.92c2.29,0,4.52-.46,6.69-1.36,2.18-.91,3.96-2.24,5.35-3.98Z"/>
        <path class="cls-2" d="M4.72,262.73c1.36.62,2.48,1.46,3.34,2.51.67.67,1.53,1,2.58,1,.86,0,1.63-.26,2.3-.79.91-.72,1.36-1.63,1.36-2.73,0-.96-.31-1.82-.93-2.58-1.39-1.77-3.3-3.11-5.74-4.02-2.19-.82-4.39-1.25-6.58-1.33v7.04c1.34.1,2.57.39,3.67.89Z"/>
      </g>
    </g>
  </g>
</svg>