<svg width="54" height="69" viewBox="0 0 54 69" fill="none" xmlns="http://www.w3.org/2000/svg">
<path d="M26.6088 35.259C18.8112 35.259 12.4805 28.9188 12.4805 21.1307C12.4805 13.3427 18.8207 7.00244 26.6088 7.00244C34.3968 7.00244 40.737 13.3427 40.737 21.1307C40.737 28.9188 34.3968 35.259 26.6088 35.259ZM26.6088 8.88558C19.8616 8.88558 14.3731 14.3741 14.3731 21.1213C14.3731 27.8684 19.8616 33.357 26.6088 33.357C33.3559 33.357 38.8444 27.8684 38.8444 21.1213C38.8444 14.3741 33.3559 8.88558 26.6088 8.88558Z" fill="#2D2D2D"/>
<path d="M26.6103 68.3229C22.6927 68.3229 3.05688 67.9539 0.662739 60.6673C-1.24879 54.8476 1.0318 48.6966 6.76639 44.2111C12.9363 39.3755 19.6172 36.9341 26.6103 36.9341C33.6035 36.9341 40.2844 39.385 46.4543 44.2111C52.1889 48.6966 54.4695 54.857 52.5579 60.6673C50.1638 67.9539 30.5186 68.3229 26.6103 68.3229ZM26.6103 38.8172C20.0525 38.8172 13.769 41.1357 7.93034 45.6968C2.8487 49.6713 0.804684 55.0463 2.45125 60.0806C3.88963 64.4431 15.9739 66.4303 26.6009 66.4303C37.2279 66.4303 49.3216 64.4431 50.7505 60.0806C52.4065 55.0558 50.3531 49.6713 45.2714 45.6968C39.4422 41.1357 33.1588 38.8172 26.5914 38.8172H26.6103Z" fill="#2D2D2D"/>
<path d="M7.19079 18.8787C7.19079 18.8787 7.10562 18.8787 7.06777 18.8787C6.5473 18.8125 6.18771 18.3299 6.25395 17.8189C7.5977 7.65558 16.351 0 26.6089 0C36.8668 0 45.6012 7.64612 46.9639 17.781C47.0301 18.3015 46.6705 18.7746 46.1501 18.8409C45.6201 18.9071 45.1564 18.5475 45.0902 18.0271C43.8505 8.829 35.9111 1.8926 26.6089 1.8926C17.3068 1.8926 9.34836 8.83846 8.12763 18.0554C8.06139 18.5286 7.65448 18.8787 7.19079 18.8787Z" fill="#2D2D2D"/>
<path d="M9.27662 29.6953C5.66175 29.6953 2.71875 26.7523 2.71875 23.1375C2.71875 19.5226 5.66175 16.5796 9.27662 16.5796C9.78763 16.5796 10.3081 16.6364 10.8096 16.7594C11.3206 16.8824 11.6329 17.3934 11.5099 17.9044C11.3869 18.4154 10.8759 18.7277 10.3649 18.6047C10.0053 18.5195 9.63622 18.4722 9.26716 18.4722C6.69322 18.4722 4.60189 20.5635 4.60189 23.1375C4.60189 25.7114 6.69322 27.8027 9.26716 27.8027C10.1378 27.8027 10.98 27.5662 11.7181 27.1119C12.1628 26.8375 12.7496 26.97 13.024 27.4147C13.2984 27.8595 13.1659 28.4368 12.7212 28.7206C11.6897 29.3641 10.4974 29.6953 9.27662 29.6953Z" fill="#2D2D2D"/>
<path d="M44.0328 29.6953C43.0203 29.6953 42.0551 29.4682 41.1561 29.0329C40.6829 28.8058 40.4937 28.238 40.7208 27.7649C40.9479 27.2917 41.5157 27.1025 41.9888 27.3296C42.6323 27.6419 43.3231 27.8027 44.0328 27.8027C46.6068 27.8027 48.6981 25.7114 48.6981 23.1375C48.6981 20.5635 46.6068 18.4722 44.0328 18.4722C43.7206 18.4722 43.3988 18.5006 43.096 18.5668C42.5755 18.6709 42.0835 18.3397 41.9794 17.8287C41.8753 17.3177 42.2065 16.8162 42.7175 16.7121C43.1528 16.6269 43.5975 16.5796 44.0423 16.5796C47.6572 16.5796 50.6002 19.5226 50.6002 23.1375C50.6002 26.7523 47.6572 29.6953 44.0423 29.6953H44.0328Z" fill="#2D2D2D"/>
</svg>
