<?xml version="1.0" encoding="UTF-8"?><svg id="a" xmlns="http://www.w3.org/2000/svg" xmlns:xlink="http://www.w3.org/1999/xlink" viewBox="0 0 3211.37 2742.85"><defs><style>.aj,.ak,.al,.am{fill:none;}.an{fill:#f53b51;}.ao{fill:#f3c285;}.ap{fill:#ea3939;}.aq{fill:#e59a48;}.ar{fill:#ea903f;}.as{fill:#e54833;}.at{fill:#fff;}.au{fill:#ffe4ae;}.av{fill:#edc57e;}.aw{fill:#ffd1ac;}.ax{fill:#fdb856;}.ay{fill:#ff886e;}.b`{fill:#7f2d3b;}.ba{fill:#7f481f;}.bb{fill:#a06825;}.bc{fill:#877b7c;}.bd{fill:#9e5718;}.be{fill:#91642d;}.bf{fill:#91552c;}.bg{fill:#c1d0ea;}.bh{fill:#b77e56;}.bi{fill:#b78858;}.bj{fill:#bc7235;}.bk{fill:#afa0a1;}.bl{fill:#c18e63;}.bm{fill:#c65c4b;}.bn{fill:#d19c78;}.bo{fill:#d35e4a;}.bp{fill:#d1d2d3;}.bq{fill:#c4873d;}.br{fill:#dd6b58;}.bs{fill:#dd6a57;}.bt{fill:#db5f4b;}.bu{fill:#afb1b2;}.bv{fill:#c5d3d2;}.bw{fill:#c68734;}.bx{fill:#e29c49;}.by{fill:#216868;}.c`{fill:#418c8c;}.ca{fill:#414959;}.cb{fill:#110b0b;}.cc{fill:#1d2533;}.cd{fill:#1e0e0e;}.ce{fill:#3d7f7f;}.cf{fill:#3f3131;}.cg{fill:#a36231;}.ch{fill:#52997d;}.ci{fill:#542e0c;}.cj{fill:#6bc6a5;}.ck{fill:#350c0e;}.cl{fill:#605859;}.cm{fill:#776f70;}.cn{fill:#620c0d;}.co{fill:#773e18;}.cp{fill:#513214;}.cq{fill:#4d9fa0;}.ak{stroke:#fbed21;}.ak,.al{stroke-width:4px;}.ak,.al,.am{stroke-miterlimit:10;}.al{stroke:#000;}.am{stroke:#6cd3d3;stroke-linecap:round;stroke-width:10px;}.cr{clip-path:url(#v);}.cs{clip-path:url(#u);}.ct{clip-path:url(#t);}.cu{clip-path:url(#y);}.cv{clip-path:url(#x);}.cw{clip-path:url(#w);}.cx{clip-path:url(#c);}.cy{clip-path:url(#b);}.d`{clip-path:url(#f);}.da{clip-path:url(#e);}.db{clip-path:url(#d);}.dc{clip-path:url(#n);}.dd{clip-path:url(#m);}.de{clip-path:url(#l);}.df{clip-path:url(#k);}.dg{clip-path:url(#j);}.dh{clip-path:url(#i);}.di{clip-path:url(#h);}.dj{clip-path:url(#g);}.dk{clip-path:url(#s);}.dl{clip-path:url(#r);}.dm{clip-path:url(#q);}.dn{clip-path:url(#p);}.do{clip-path:url(#o);}.dp{clip-path:url(#ah);}.dq{clip-path:url(#ag);}.dr{clip-path:url(#ab);}.ds{clip-path:url(#aa);}.dt{clip-path:url(#ac);}.du{clip-path:url(#af);}.dv{clip-path:url(#ae);}.dw{clip-path:url(#ai);}.dx{clip-path:url(#ad);}.dy{clip-path:url(#a`);}</style><clipPath id="b"><path d="M80.74,1204.31c12.02-117.59,166.14-198.17,344.26-179.97,20.44,2.09,40.3,5.4,59.44,9.78-15.29-58.83-20.49-119.88-14.16-181.84,36.18-354.09,434.58-603.43,889.86-556.92,91.69,9.37,178.68,30.03,258.87,59.93,.16-5.7,.52-11.41,1.11-17.14,17.42-170.48,219.64-289.46,451.67-265.75,113.32,11.58,212.78,55.05,282.88,116.36,12.61,.69,25.28,1.67,38,2.97,385,39.34,668.87,347.63,634.03,688.58-11.47,112.3-56.1,214.13-124.53,298.81,145.6,140.86,226.56,329.9,206.25,528.65-38.5,376.76-426.25,645.75-866.08,600.81-151-15.43-288.51-65.86-402.43-140.68-172.62,171.65-491.07,268.13-842.78,232.2-505.86-51.69-888.96-357.74-855.66-683.58,11.01-107.79,66.22-204.23,153.47-283.18-133.09-39.01-224.17-131.43-214.19-229.04Z" style="fill:#ffe4ae;"/></clipPath><clipPath id="c"><ellipse cx="1608.4" cy="2287.67" rx="1374.97" ry="381.73" style="fill:#7f481f;"/></clipPath><clipPath id="d"><rect x="229.29" y="993.54" width="579.05" height="108.93" rx="24.87" ry="24.87" transform="translate(1037.62 2096) rotate(180)" style="fill:#c68734;"/></clipPath><clipPath id="e"><rect x="611.49" y="609.42" width="103.2" height="384.12" rx="24.87" ry="24.87" transform="translate(1326.18 1602.95) rotate(180)" style="fill:#f53b51;"/></clipPath><clipPath id="f"><rect x="521.68" y="716.43" width="87.91" height="275.19" rx="19.43" ry="19.43" transform="translate(1131.26 1708.06) rotate(180)" style="fill:#fdb856;"/></clipPath><clipPath id="g"><rect x="414.66" y="609.42" width="103.2" height="384.12" rx="24.87" ry="24.87" transform="translate(932.51 1602.95) rotate(180)" style="fill:#4d9fa0;"/></clipPath><clipPath id="h"><rect x="324.84" y="716.43" width="87.91" height="275.19" rx="19.43" ry="19.43" transform="translate(737.58 1708.06) rotate(180)" style="fill:#ffd1ac;"/></clipPath><clipPath id="i"><rect x="1590.67" y="1597.58" width="912.88" height="99.45" rx="11.67" ry="11.67" style="fill:#3f3131;"/></clipPath><clipPath id="j"><path d="M1958.9,1138.87l168.86-137.09c9.06-7.36,22.49-5.96,29.85,3.1l1.11,1.37c7.36,9.06,5.96,22.49-3.1,29.85l-168.86,137.09c-2.27,1.84-4.8,3.13-7.45,3.89-7.94,2.29-16.88-.2-22.4-6.99l-1.11-1.37c-7.36-9.06-5.96-22.49,3.1-29.85Z" style="fill:#f53b51;"/></clipPath><clipPath id="k"><path d="M2316.88,1282l-94.07-92.97s18.81-111.78-61.98-128.38c-17.71-19.92-61.98-14.39-61.98-14.39,0,0-7.75-33.2-38.74-23.24-30.99,9.96-22.14,58.66-22.14,58.66,0,0,0-8.85-22.14,0-22.14,8.85-4.43,141.67,57.55,144.99,61.98,3.32,53.12,0,53.12,0l53.12,75.26h158.27l-21.03-19.92Z" style="fill:#ff886e;"/></clipPath><clipPath id="l"><path d="M1796.7,1716.89l-362.92-96.75c-6.27-1.67-10.03-8.17-8.36-14.44l118.53-444.63c1.67-6.27,8.17-10.03,14.44-8.36l362.92,96.75c6.27,1.67,10.03,8.17,8.36,14.44l-118.53,444.63c-1.67,6.27-8.17,10.03-14.44,8.36Z" style="fill:#4d9fa0;"/></clipPath><clipPath id="m"><path d="M1794.35,1306.14l-167.9-44.76c-1.73-.46-2.77-2.26-2.31-3.99l15.09-56.6c.46-1.73,2.26-2.77,3.99-2.31l167.9,44.76c1.73,.46,2.77,2.26,2.31,3.99l-15.09,56.6c-.46,1.73-2.26,2.77-3.99,2.31Z" style="fill:none;"/></clipPath><clipPath id="n"><path d="M1783.72,1290.46l-144.14-38.43c-1.26-.34-2.01-1.64-1.68-2.9l9.09-34.1c.34-1.26,1.64-2.01,2.9-1.68l144.14,38.43c1.26,.34,2.01,1.64,1.68,2.9l-9.09,34.1c-.34,1.26-1.64,2.01-2.9,1.68Z" style="fill:#fff;"/></clipPath><clipPath id="o"><path d="M2050.01,2224.54s103.61-60.87,63.11-107c-40.5-46.13,47.86-55.1,25.25-129.42-22.62-74.32-55.22,76.88-71,57.66,9.99-39.72,3.16-72.4-17.36-43.57-20.51,28.83,0,93.54,0,93.54,0,0-13.15-49.33-30.5-21.14-17.36,28.19,23.14,87.14,5.26,117.25-9.47-35.88-31.03-41.65-24.19-8.97,6.84,32.68,6.84,73.04,6.84,73.04l42.6-31.39Z" style="fill:#52997d;"/></clipPath><clipPath id="p"><path d="M1934.4,2201.94s-166.12-127.41-86.23-198.51c79.89-71.09-70.96-105.51-15.95-229.17,55.01-123.66,79.03,144.75,110.42,114.89-8.78-70.82,10.04-125.85,39.33-71.61,29.3,54.24-20.02,161.74-20.02,161.74,0,0,33.29-82.49,57.27-30.03,23.98,52.46-58.66,145.71-34.18,201.6,24.05-60.01,62.56-65.37,43.75-10.33-18.81,55.03-27.45,124.82-27.45,124.82l-66.94-63.4Z" style="fill:#6bc6a5;"/></clipPath><clipPath id="q"><polygon points="1893.66 2265.84 1915.98 2416.53 2103.51 2416.53 2120.25 2265.84 1893.66 2265.84" style="fill:#ffe4ae;"/></clipPath><clipPath id="r"><rect x="1869.1" y="2214.49" width="275.71" height="78.14" rx="14.52" ry="14.52" style="fill:#b78858;"/></clipPath><clipPath id="s"><polygon points="1001.42 2056.38 958.95 2343.03 602.23 2343.03 570.38 2056.38 1001.42 2056.38" style="fill:#b77e56;"/></clipPath><clipPath id="t"><rect x="523.67" y="1958.71" width="524.46" height="148.63" rx="27.63" ry="27.63" transform="translate(1571.8 4066.05) rotate(180)" style="fill:#c18e63;"/></clipPath><clipPath id="u"><polygon points="2231.51 2233.71 2265.13 2460.63 2547.52 2460.63 2572.73 2233.71 2231.51 2233.71" style="fill:#b77e56;"/></clipPath><clipPath id="v"><rect x="2194.53" y="2156.39" width="415.18" height="117.66" rx="21.87" ry="21.87" style="fill:#c18e63;"/></clipPath><clipPath id="w"><rect x="1108.25" y="2045.5" width="31.84" height="424.29" rx="15.92" ry="15.92" style="fill:#afa0a1;"/></clipPath><clipPath id="x"><path d="M1121.61,2457.06s-101.89-23.88-127.37,50.95c0,19.11,14.33,12.74,14.33,12.74,0,0,39.8-49.36,113.04-33.43,11.14-17.51,0-30.25,0-30.25Z" style="fill:#877b7c;"/></clipPath><clipPath id="y"><path d="M1126.56,2457.06s101.89-23.88,127.37,50.95c0,19.11-14.33,12.74-14.33,12.74,0,0-39.8-49.36-113.04-33.43-11.14-17.51,0-30.25,0-30.25Z" style="fill:none;"/></clipPath><clipPath id="a`"><path d="M1152.23,1197.45l-9.61,82.6s87.94-4.84,97.8,19.74c9.85,24.59,10.57-90.86,10.57-90.86,0,0-58.25-31.89-98.76-11.48Z" style="fill:#ff886e;"/></clipPath><clipPath id="aa"><path d="M1427.34,867.31s142.14,321.57-53.62,365.53c-195.76,43.96-188.95-96.64-188.95-96.64,0,0,45.39-322.01,242.57-268.89Z" style="fill:#ff886e;"/></clipPath><clipPath id="ab"><path d="M1373.92,1637.27s81.9,208.07,174.87,112.89c57.55-78.58,53.12-149.41,53.12-149.41l-66.41-13.28s7.75,23.24-26.56,59.77c-21.03-46.48-43.16-95.18-43.16-95.18l-91.86,85.22Z" style="fill:#ff886e;"/></clipPath><clipPath id="ac"><path d="M1373.92,1637.27s81.9,208.07,174.87,112.89c57.55-78.58,53.12-149.41,53.12-149.41l-66.41-13.28s7.75,23.24-26.56,59.77c-21.03-46.48-43.16-95.18-43.16-95.18l-91.86,85.22Z" style="fill:none;"/></clipPath><clipPath id="ad"><path d="M1450.28,2337.85s-25.46,47.59,17.71,59.77c43.16,12.17,161.59-68.62,119.53-84.11-42.06-15.49-137.24,24.35-137.24,24.35Z" style="fill:#fff;"/></clipPath><clipPath id="ae"><path d="M1323.01,2325.68s-25.46,47.59,17.71,59.77c43.16,12.17,161.59-68.62,119.53-84.11-42.06-15.49-137.24,24.35-137.24,24.35Z" style="fill:#fff;"/></clipPath><clipPath id="af"><path d="M1705.64,1525.2l-173.33,.67c-9.3,.04-17.14-7.5-17.43-16.74l-.04-1.4c-.28-9.24,7.09-16.84,16.4-16.87l173.33-.67c2.33,0,4.56,.46,6.61,1.3,6.14,2.54,10.61,8.51,10.82,15.44l.04,1.4c.28,9.24-7.09,16.84-16.4,16.87Z" style="fill:#f53b51;"/></clipPath><clipPath id="ag"><path d="M1279.84,1813.24l-338.67-28.78s-118.42,206.97,90.75,236.85c209.18,29.88,299.93-49.8,325.39-15.49,25.46,34.31,84.11,345.31,84.11,345.31,0,0,59.8,32.81,64.19-15.49,3.32-36.52,81.9-693.94-225.78-522.39Z" style="fill:#414959;"/></clipPath><clipPath id="ah"><path d="M1101.3,1271.76l-2.03,17.5s-35.82,2.93-46.69,35.37c-10.87,32.44-152.14,454.15-123.69,484.07,28.45,29.92,196.63,93.82,384.92,30.57,13.43-115.51-13.72-248.16-13.72-248.16,0,0,65.61,106.96,84.13,100.25,18.52-6.72,136.11-133.18,123.41-161.26-12.7-28.08-89.43-124.14-209.94-192.93,8.83-14.94,2.04-17.5,2.04-17.5,0,0-42.61-75.91-198.42-47.91Z" style="fill:#fdb856;"/></clipPath><clipPath id="ai"><path d="M1538.74,1620.18c4.37,6.44,48.78,27.05,64.27,11.56,61.98-49.8,34.31-81.9,22.14-107.36,6.74-9.44,7.28-19.61,2.5-27.54-6.99-11.6-25.35-18.43-52.3-11.19-45.38,12.17-43.16,61.98-43.16,61.98l3.32,39.84-1.66,23.8c-.22,2.93,2.05,9.66,4.9,8.92h0Z" style="fill:#ff886e;"/></clipPath></defs><g><path d="M80.74,1204.31c12.02-117.59,166.14-198.17,344.26-179.97,20.44,2.09,40.3,5.4,59.44,9.78-15.29-58.83-20.49-119.88-14.16-181.84,36.18-354.09,434.58-603.43,889.86-556.92,91.69,9.37,178.68,30.03,258.87,59.93,.16-5.7,.52-11.41,1.11-17.14,17.42-170.48,219.64-289.46,451.67-265.75,113.32,11.58,212.78,55.05,282.88,116.36,12.61,.69,25.28,1.67,38,2.97,385,39.34,668.87,347.63,634.03,688.58-11.47,112.3-56.1,214.13-124.53,298.81,145.6,140.86,226.56,329.9,206.25,528.65-38.5,376.76-426.25,645.75-866.08,600.81-151-15.43-288.51-65.86-402.43-140.68-172.62,171.65-491.07,268.13-842.78,232.2-505.86-51.69-888.96-357.74-855.66-683.58,11.01-107.79,66.22-204.23,153.47-283.18-133.09-39.01-224.17-131.43-214.19-229.04Z" style="fill:#ffe4ae;"/><g style="clip-path:url(#b);"><g><g><ellipse cx="1168.84" cy="899.73" rx="281.13" ry="132.3" style="fill:#fff;"/><ellipse cx="1450.58" cy="1024.68" rx="281.13" ry="132.3" style="fill:#fff;"/><ellipse cx="978.35" cy="1087.15" rx="350.34" ry="132.3" style="fill:#fff;"/></g><g><ellipse cx="2472.21" cy="311.75" rx="281.13" ry="132.3" style="fill:#fff;"/><ellipse cx="2753.95" cy="436.7" rx="281.13" ry="132.3" style="fill:#fff;"/><ellipse cx="2281.72" cy="499.17" rx="350.34" ry="132.3" style="fill:#fff;"/></g><g><ellipse cx="2735.58" cy="1644.52" rx="281.13" ry="132.3" style="fill:#fff;"/><ellipse cx="3017.32" cy="1769.46" rx="281.13" ry="132.3" style="fill:#fff;"/><ellipse cx="2545.09" cy="1831.94" rx="350.34" ry="132.3" style="fill:#fff;"/></g><g><ellipse cx="536.75" cy="1791.51" rx="281.13" ry="132.3" style="fill:#fff;"/><ellipse cx="818.5" cy="1916.46" rx="281.13" ry="132.3" style="fill:#fff;"/><ellipse cx="346.27" cy="1978.93" rx="350.34" ry="132.3" style="fill:#fff;"/></g></g></g></g><g><ellipse cx="1608.4" cy="2287.67" rx="1374.97" ry="381.73" style="fill:#7f481f;"/><g style="clip-path:url(#c);"><ellipse cx="1411.3" cy="2352.86" rx="1374.97" ry="381.73" style="fill:#9e5718;"/></g></g><g><ellipse cx="683.75" cy="2322.35" rx="164.76" ry="86.17" style="fill:#773e18;"/><ellipse cx="887.71" cy="2390.76" rx="204.57" ry="79.38" style="fill:#773e18;"/></g><g><ellipse cx="2017.83" cy="2371.54" rx="268.96" ry="101.06" style="fill:#773e18;"/><ellipse cx="2350.78" cy="2451.77" rx="333.96" ry="93.1" style="fill:#773e18;"/></g><ellipse cx="1444.46" cy="2356.84" rx="232.13" ry="81.46" style="fill:#773e18;"/><ellipse cx="1142.5" cy="2527.11" rx="191.1" ry="55.74" style="fill:#773e18;"/><g><g><rect x="229.29" y="993.54" width="579.05" height="108.93" rx="24.87" ry="24.87" transform="translate(1037.62 2096) rotate(180)" style="fill:#c68734;"/><g style="clip-path:url(#d);"><path d="M788.27,958.18s21.02,122.31-5.73,129.95-601.98,3.82-601.98,3.82l74.53,72.62,600.07,15.29-30.58-214.04-36.31-7.64Z" style="fill:#91642d;"/></g></g><path d="M648.76,1019.34h126.13c4.2,0,7.64-3.44,7.64-7.64h0c0-4.2-3.44-7.64-7.64-7.64h-126.13c-4.2,0-7.64,3.44-7.64,7.64h0c0,4.2,3.44,7.64,7.64,7.64Z" style="fill:#a06825;"/><path d="M300.95,1019.34h214.04c2.1,0,3.82-1.72,3.82-3.82h0c0-2.1-1.72-3.82-3.82-3.82h-214.04c-2.1,0-3.82,1.72-3.82,3.82h0c0,2.1,1.72,3.82,3.82,3.82Z" style="fill:#a06825;"/><path d="M274.19,1078.58h126.13c4.2,0,7.64-3.44,7.64-7.64h0c0-4.2-3.44-7.64-7.64-7.64h-126.13c-4.2,0-7.64,3.44-7.64,7.64h0c0,4.2,3.44,7.64,7.64,7.64Z" style="fill:#a06825;"/><path d="M461.48,1051.82h118.48c3.15,0,5.73-2.58,5.73-5.73h0c0-3.15-2.58-5.73-5.73-5.73h-118.48c-3.15,0-5.73,2.58-5.73,5.73h0c0,3.15,2.58,5.73,5.73,5.73Z" style="fill:#a06825;"/><path d="M627.74,1072.84h89.82c5.26,0,9.56-4.3,9.56-9.56h0c0-5.26-4.3-9.56-9.56-9.56h-89.82c-5.26,0-9.56,4.3-9.56,9.56h0c0,5.26,4.3,9.56,9.56,9.56Z" style="fill:#a06825;"/><g><rect x="611.49" y="609.42" width="103.2" height="384.12" rx="24.87" ry="24.87" transform="translate(1326.18 1602.95) rotate(180)" style="fill:#f53b51;"/><g style="clip-path:url(#e);"><rect x="673.6" y="295.05" width="152.88" height="724.29" rx="24.87" ry="24.87" transform="translate(1500.09 1314.38) rotate(180)" style="fill:#7f2d3b;"/></g></g><g><rect x="521.68" y="716.43" width="87.91" height="275.19" rx="19.43" ry="19.43" transform="translate(1131.26 1708.06) rotate(180)" style="fill:#fdb856;"/><g style="clip-path:url(#f);"><rect x="564.67" y="639.04" width="76.44" height="412.79" rx="24.87" ry="24.87" transform="translate(1205.79 1690.86) rotate(-180)" style="fill:#c4873d;"/></g></g><g><rect x="414.66" y="609.42" width="103.2" height="384.12" rx="24.87" ry="24.87" transform="translate(932.51 1602.95) rotate(180)" style="fill:#4d9fa0;"/><g style="clip-path:url(#g);"><path d="M431.86,1051.82h0c13.14,0,23.89-10.75,23.89-23.89v-489.23c0-13.14-10.75-23.89-23.89-23.89h0c-13.14,0-23.89,10.75-23.89,23.89v489.23c0,13.14,10.75,23.89,23.89,23.89Z" style="fill:#216868;"/></g></g><g><rect x="324.84" y="716.43" width="87.91" height="275.19" rx="19.43" ry="19.43" transform="translate(737.58 1708.06) rotate(180)" style="fill:#ffd1ac;"/><g style="clip-path:url(#h);"><rect x="297.13" y="631.39" width="72.62" height="422.34" rx="24.87" ry="24.87" transform="translate(666.87 1685.13) rotate(180)" style="fill:#d19c78;"/></g></g></g><g><g><rect x="2458.22" y="1842.2" width="51.18" height="577.72" rx="18.04" ry="18.04" style="fill:#ea903f;"/><rect x="2471.4" y="2180.03" width="12.41" height="181" rx="6.01" ry="6.01" style="fill:#bc7235;"/><rect x="2483.8" y="2106.89" width="9.3" height="53.31" rx="4.51" ry="4.51" style="fill:#bc7235;"/><rect x="2471.4" y="1933.32" width="6.2" height="69.43" rx="3.01" ry="3.01" style="fill:#bc7235;"/><rect x="2488.46" y="1884.97" width="4.65" height="59.51" rx="2.26" ry="2.26" style="fill:#bc7235;"/></g><rect x="1382.73" y="1841.58" width="51.18" height="577.72" rx="18.04" ry="18.04" style="fill:#ea903f;"/><path d="M2417.89,2352.45c0,9.15-7.49,16.64-16.64,16.64h-17.9c-9.15,0-16.64-7.49-16.64-16.64v-544.45c0-9.15,7.49-16.64,16.64-16.64h17.9c9.15,0,16.64,7.49,16.64,16.64" style="fill:#ea903f;"/><path d="M1532.38,2351.21c0,9.15-7.49,16.64-16.64,16.64h-17.9c-9.15,0-16.64-7.49-16.64-16.64v-544.45c0-9.15,7.49-16.64,16.64-16.64h17.9c9.15,0,16.64,7.49,16.64,16.64" style="fill:#ea903f;"/><rect x="1143.13" y="1713.27" width="1646.96" height="106.62" rx="18.04" ry="18.04" style="fill:#ea903f;"/><rect x="1257.89" y="1819.88" width="1386.42" height="44.63" rx="10.71" ry="10.71" style="fill:#a36231;"/><path d="M1322.56,1746.12h-124.7c-4.09,0-7.44-3.35-7.44-7.44h0c0-4.09,3.35-7.44,7.44-7.44h124.7c4.09,0,7.44,3.35,7.44,7.44h0c0,4.09-3.35,7.44-7.44,7.44Z" style="fill:#bc7235;"/><path d="M1869.07,1765.95h-352.36c-5.45,0-9.92-4.46-9.92-9.92h0c0-5.45,4.46-9.92,9.92-9.92h352.36c5.45,0,9.92,4.46,9.92,9.92h0c0,5.45-4.46,9.92-9.92,9.92Z" style="fill:#bc7235;"/><path d="M1468.65,1789.51h-102.06c-6.48,0-11.78-5.3-11.78-11.78h0c0-6.48,5.3-11.78,11.78-11.78h102.06c6.48,0,11.78,5.3,11.78,11.78h0c0,6.48-5.3,11.78-11.78,11.78Z" style="fill:#bc7235;"/><path d="M2668.67,1746.12h-499.99c-4.09,0-7.44-3.35-7.44-7.44h0c0-4.09,3.35-7.44,7.44-7.44h499.99c4.09,0,7.44,3.35,7.44,7.44h0c0,4.09-3.35,7.44-7.44,7.44Z" style="fill:#bc7235;"/><path d="M2189.77,1777.11h-178.04c-3.07,0-5.58-2.51-5.58-5.58h0c0-3.07,2.51-5.58,5.58-5.58h178.04c3.07,0,5.58,2.51,5.58,5.58h0c0,3.07-2.51,5.58-5.58,5.58Z" style="fill:#bc7235;"/><path d="M2701.54,1777.11h-114.46c-3.07,0-5.58-2.51-5.58-5.58h0c0-3.07,2.51-5.58,5.58-5.58h114.46c3.07,0,5.58,2.51,5.58,5.58h0c0,3.07-2.51,5.58-5.58,5.58Z" style="fill:#bc7235;"/><path d="M1412.05,1909.77h.28c2.49,0,4.51,2.02,4.51,4.51v65.36c0,2.49-2.02,4.51-4.51,4.51h-.28c-2.49,0-4.51-2.02-4.51-4.51v-65.36c0-2.49,2.02-4.51,4.51-4.51Z" style="fill:#bc7235;"/><path d="M1412.05,2088.29h.28c2.49,0,4.51,2.02,4.51,4.51v144.71c0,2.49-2.02,4.51-4.51,4.51h-.28c-2.49,0-4.51-2.02-4.51-4.51v-144.71c0-2.49,2.02-4.51,4.51-4.51Z" style="fill:#bc7235;"/><rect x="1393.59" y="2285.41" width="7.75" height="68.19" rx="3.76" ry="3.76" style="fill:#bc7235;"/><rect x="1393.59" y="1994.07" width="7.75" height="37.19" rx="3.76" ry="3.76" style="fill:#bc7235;"/></g><g><rect x="1551.55" y="767.29" width="972.85" height="728.87" rx="12.48" ry="12.48" style="fill:#110b0b;"/><rect x="2025.06" y="1360.22" width="44.1" height="252.38" rx="12.21" ry="12.21" style="fill:#110b0b;"/><g><rect x="1590.67" y="1597.58" width="912.88" height="99.45" rx="11.67" ry="11.67" style="fill:#3f3131;"/><g style="clip-path:url(#i);"><path d="M1540.49,1678.77s885.41,26.56,923.04-23.24c37.63-49.8-28.78-110.68-28.78-110.68l133.92,53.12v206.96l-431.64,86.33-677.34-66.41,80.79-146.09Z" style="fill:#1e0e0e;"/></g></g><rect x="1540.27" y="763.07" width="956.97" height="709.29" rx="12.21" ry="12.21" style="fill:#3f3131;"/><rect x="1605.92" y="829.75" width="829.38" height="592.95" rx="12.41" ry="12.41" style="fill:#c5d3d2;"/></g><g><g><g><path d="M1966.59,1399.31h0c-4.57,0-8.3-3.74-8.3-8.3v-45.38c0-4.57,3.74-8.3,8.3-8.3h0c4.57,0,8.3,3.74,8.3,8.3v45.38c0,4.57-3.74,8.3-8.3,8.3Z" style="fill:#ea3939;"/><path d="M1997.58,1399.31h0c-4.57,0-8.3-3.74-8.3-8.3v-45.38c0-4.57,3.74-8.3,8.3-8.3h0c4.57,0,8.3,3.74,8.3,8.3v45.38c0,4.57-3.74,8.3-8.3,8.3Z" style="fill:#ea3939;"/><polygon points="1942.79 1346.19 1942.79 1390.46 1904.06 1368.33 1942.79 1346.19" style="fill:#ea3939;"/><polygon points="2021.37 1346.19 2021.37 1390.46 2060.11 1368.33 2021.37 1346.19" style="fill:#ea3939;"/></g><rect x="2156.4" y="1337.34" width="85.22" height="53.12" rx="14.4" ry="14.4" style="fill:#ea3939;"/><rect x="2259.33" y="1337.34" width="53.12" height="53.12" rx="11.37" ry="11.37" style="fill:#ea3939;"/></g><path d="M2364.47,1314.09h-713.86c-2.43,0-4.43-1.99-4.43-4.43h0c0-2.43,1.99-4.43,4.43-4.43h713.86c2.43,0,4.43,1.99,4.43,4.43h0c0,2.43-1.99,4.43-4.43,4.43Z" style="fill:#ea3939;"/></g><g><polygon points="1667.21 966.57 1780.1 1295.28 2348.98 1282 2184.07 953.29 1667.21 966.57" style="fill:#fff;"/><path d="M2001.5,1174.89l-24.44,2.67c-5.13,.56-9.66,3.61-12.1,8.15l-11.66,21.65c-6.16,11.44-22.77,10.85-28.1-1l-10.09-22.42c-2.12-4.71-6.42-8.07-11.49-8.99l-24.19-4.4c-12.79-2.32-17.36-18.3-7.73-27.03l18.2-16.53c3.82-3.47,5.69-8.59,5-13.71l-3.29-24.37c-1.74-12.88,12.04-22.16,23.32-15.71l21.34,12.21c4.48,2.56,9.93,2.76,14.58,.52l22.15-10.66c11.71-5.64,24.8,4.6,22.15,17.32l-5.01,24.07c-1.05,5.05,.45,10.3,4.01,14.03l16.99,17.78c8.98,9.39,3.29,25.01-9.63,26.42Z" style="fill:#e59a48;"/><path d="M1835.28,1096.12l-1.06-.81c-3.93-2.98-9.07-3.83-13.74-2.28l-1.27,.42c-11.78,3.9-22.91-7.4-18.84-19.12l.44-1.26c1.62-4.65,.84-9.8-2.08-13.77l-.79-1.07c-7.35-10-.04-24.08,12.36-23.83l1.33,.03c4.93,.1,9.58-2.23,12.46-6.23l.78-1.08c7.24-10.08,22.89-7.48,26.48,4.39l.39,1.28c1.43,4.72,5.08,8.43,9.78,9.92l1.27,.4c11.82,3.77,14.19,19.46,4.01,26.54l-1.09,.76c-4.04,2.81-6.44,7.44-6.42,12.37v1.33c.07,12.41-14.11,19.5-24,12.01Z" style="fill:#e59a48;"/><g><polygon points="1929.58 1191.87 1982.01 1176.1 1954.92 1143.14 1929.58 1191.87" style="fill:#f3c285;"/><g><path d="M1958.9,1138.87l168.86-137.09c9.06-7.36,22.49-5.96,29.85,3.1l1.11,1.37c7.36,9.06,5.96,22.49-3.1,29.85l-168.86,137.09c-2.27,1.84-4.8,3.13-7.45,3.89-7.94,2.29-16.88-.2-22.4-6.99l-1.11-1.37c-7.36-9.06-5.96-22.49,3.1-29.85Z" style="fill:#f53b51;"/><g style="clip-path:url(#j);"><line x1="1947.77" y1="1167.45" x2="2156.95" y2="997.01" style="fill:none; stroke:#fbed21; stroke-miterlimit:10; stroke-width:4px;"/><line x1="1955.52" y1="1177.41" x2="2166.91" y2="1012.5" style="fill:none; stroke:#fbed21; stroke-miterlimit:10; stroke-width:4px;"/></g></g><path d="M2158.18,1006.25c6.8,8.65,7.49,19.45,1.54,24.13-5.95,4.67-16.28,1.45-23.08-7.2-6.8-8.65-7.49-19.45-1.54-24.13,5.95-4.67,16.28-1.45,23.08,7.2Z" style="fill:#542e0c;"/></g><g><path d="M2316.88,1282l-94.07-92.97s18.81-111.78-61.98-128.38c-17.71-19.92-61.98-14.39-61.98-14.39,0,0-7.75-33.2-38.74-23.24-30.99,9.96-22.14,58.66-22.14,58.66,0,0,0-8.85-22.14,0-22.14,8.85-4.43,141.67,57.55,144.99,61.98,3.32,53.12,0,53.12,0l53.12,75.26h158.27l-21.03-19.92Z" style="fill:#ff886e;"/><g style="clip-path:url(#k);"><path d="M2029.68,1054.56s27.67-43.16,45.38-27.67c17.71,15.49,9.96,28.78,25.46,27.67,15.49-1.11,46.48-4.43,53.12,7.75,21.03,8.85,47.59,21.03,60.87,65.3,6.36,21.21,4.34,37.34,.51,48.39-4.54,13.08,4.61,22.11,13.88,32.4l100.72,101.82,39.84-8.85-92.97-131.7-40.95-146.09-110.68-13.28-81.9,4.43-13.28,39.84Z" style="fill:#d35e4a;"/></g></g><path d="M2041.85,1087.76s11.07,26.56,12.17,46.48c1.11,19.92,14.39-1.11,9.96-18.82-4.43-17.71-17.71-63.09-22.14-27.67Z" style="fill:#d35e4a;"/></g><g><g><path d="M1796.7,1716.89l-362.92-96.75c-6.27-1.67-10.03-8.17-8.36-14.44l118.53-444.63c1.67-6.27,8.17-10.03,14.44-8.36l362.92,96.75c6.27,1.67,10.03,8.17,8.36,14.44l-118.53,444.63c-1.67,6.27-8.17,10.03-14.44,8.36Z" style="fill:#4d9fa0;"/><g style="clip-path:url(#l);"><polygon points="1925.81 1219.97 1796.02 1698.8 1396.83 1589.66 1396.83 1678.16 1911.06 1824.66 2053.63 1678.16 2003.49 1307.47 1925.81 1219.97" style="fill:#3d7f7f;"/></g></g><path d="M1763.17,1682.59l-298.96-79.7c-5.17-1.38-8.26-6.73-6.89-11.9l97.64-366.27c1.38-5.17,6.73-8.26,11.9-6.89l298.96,79.7c5.17,1.38,8.26,6.73,6.89,11.9l-97.64,366.27c-1.38,5.17-6.73,8.26-11.9,6.89Z" style="fill:#fff;"/><path d="M1793.36,1306.14l-167.9-44.76c-1.73-.46-2.77-2.26-2.31-3.99l15.09-56.6c.46-1.73,2.26-2.77,3.99-2.31l167.9,44.76c1.73,.46,2.77,2.26,2.31,3.99l-15.09,56.6c-.46,1.73-2.26,2.77-3.99,2.31Z" style="fill:#d1d2d3;"/><g style="clip-path:url(#m);"><polygon points="1812.74 1235.7 1794.06 1302.56 1617.07 1255.36 1669.18 1295.68 1825.52 1323.21 1845.18 1243.56 1812.74 1235.7" style="fill:#afb1b2;"/></g><g><path d="M1783.72,1290.46l-144.14-38.43c-1.26-.34-2.01-1.64-1.68-2.9l9.09-34.1c.34-1.26,1.64-2.01,2.9-1.68l144.14,38.43c1.26,.34,2.01,1.64,1.68,2.9l-9.09,34.1c-.34,1.26-1.64,2.01-2.9,1.68Z" style="fill:#fff;"/><g style="clip-path:url(#n);"><polygon points="1637.72 1236.68 1796.02 1278.96 1804.87 1246.51 1643.62 1203.25 1637.72 1236.68" style="fill:#4d9fa0;"/></g></g></g><g><g><g><path d="M2050.01,2224.54s103.61-60.87,63.11-107c-40.5-46.13,47.86-55.1,25.25-129.42-22.62-74.32-55.22,76.88-71,57.66,9.99-39.72,3.16-72.4-17.36-43.57-20.51,28.83,0,93.54,0,93.54,0,0-13.15-49.33-30.5-21.14-17.36,28.19,23.14,87.14,5.26,117.25-9.47-35.88-31.03-41.65-24.19-8.97,6.84,32.68,6.84,73.04,6.84,73.04l42.6-31.39Z" style="fill:#52997d;"/><g style="clip-path:url(#o);"><path d="M2125.39,1951.76s3.35,73.67-29.02,108.27c-32.37,34.6-1.12,70.32-13.39,97.11-12.28,26.79-90.41,119.44-90.41,119.44l83.72-6.7,106.04-107.16-24.56-73.67,24.56-107.16-56.93-30.14Z" style="fill:#6bc6a5;"/></g></g><g><path d="M1934.4,2201.94s-166.12-127.41-86.23-198.51c79.89-71.09-70.96-105.51-15.95-229.17,55.01-123.66,79.03,144.75,110.42,114.89-8.78-70.82,10.04-125.85,39.33-71.61,29.3,54.24-20.02,161.74-20.02,161.74,0,0,33.29-82.49,57.27-30.03,23.98,52.46-58.66,145.71-34.18,201.6,24.05-60.01,62.56-65.37,43.75-10.33-18.81,55.03-27.45,124.82-27.45,124.82l-66.94-63.4Z" style="fill:#6bc6a5;"/><g style="clip-path:url(#p);"><path d="M1837.4,1736.32s-35.72,69.21,25.67,74.79c66.88,6.08,53.58,99.34,81.49,97.11,27.91-2.23-20.09-100.46,12.28-125.02,32.37-24.56-43.53-10.05-43.53-10.05l13.39,65.86-25.67-91.53-6.7-30.14-56.93,18.98Z" style="fill:#52997d;"/><path d="M1964.65,1791.02s26.79,13.39,13.39,104.93c-13.39,91.53-24.56,101.58-24.56,101.58,0,0,35.72-72.56,65.86-69.21,30.14,3.35,6.7-128.37,6.7-128.37l-61.39-8.93Z" style="fill:#52997d;"/><path d="M1849.68,1922.73s68.09,39.07,21.21,110.51c-32.09,48.89,77.02,150.69,112.74,202.04,35.9,51.61,10.05,68.09,10.05,68.09l-141.76-89.3-97.11-190.88,94.88-100.46Z" style="fill:#52997d;"/><path d="M2022.69,1983.91s-80.37,156.49-45.77,177.7c34.6,21.21,24.56-71.44,56.93-72.56,32.37-1.12-25.67-17.86-25.67-17.86l14.51-87.29Z" style="fill:#52997d;"/></g></g></g><g><g><polygon points="1893.66 2265.84 1915.98 2416.53 2103.51 2416.53 2120.25 2265.84 1893.66 2265.84" style="fill:#ffe4ae;"/><g style="clip-path:url(#q);"><path d="M1947.8,2245.19s-54.7,129.48,93.76,143.99c148.46,14.51,62.51,40.18,62.51,40.18h-194.22l-59.16-113.86,18.98-70.32h78.14Z" style="fill:#edc57e;"/></g></g><g><rect x="1869.1" y="2214.49" width="275.71" height="78.14" rx="14.52" ry="14.52" style="fill:#b78858;"/><g style="clip-path:url(#r);"><path d="M1880.82,2196.07s-10.05,75.9,6.7,84.83c16.74,8.93,283.52,2.23,283.52,2.23l-42.42,34.6-274.59,5.58-41.3-126.13,68.09-1.12Z" style="fill:#513214;"/></g></g></g></g><g><g><g><ellipse cx="678.22" cy="1623.56" rx="125.91" ry="510.03" transform="translate(-261.29 135.86) rotate(-9.6)" style="fill:#4d9fa0;"/><line x1="622.48" y1="1297.11" x2="763.29" y2="2126.45" style="fill:none; stroke:#6cd3d3; stroke-linecap:round; stroke-miterlimit:10; stroke-width:10px;"/></g><line x1="695.96" y1="1403.55" x2="652.51" y2="1471.56" style="fill:none; stroke:#6cd3d3; stroke-linecap:round; stroke-miterlimit:10; stroke-width:10px;"/><line x1="716.63" y1="1525.72" x2="673.17" y2="1593.73" style="fill:none; stroke:#6cd3d3; stroke-linecap:round; stroke-miterlimit:10; stroke-width:10px;"/><line x1="741.58" y1="1673.2" x2="698.12" y2="1741.21" style="fill:none; stroke:#6cd3d3; stroke-linecap:round; stroke-miterlimit:10; stroke-width:10px;"/><line x1="766.52" y1="1820.68" x2="723.07" y2="1888.69" style="fill:none; stroke:#6cd3d3; stroke-linecap:round; stroke-miterlimit:10; stroke-width:10px;"/><line x1="789.24" y1="1954.96" x2="745.78" y2="2022.97" style="fill:none; stroke:#6cd3d3; stroke-linecap:round; stroke-miterlimit:10; stroke-width:10px;"/><line x1="572.59" y1="1327.06" x2="636" y2="1377" style="fill:none; stroke:#6cd3d3; stroke-linecap:round; stroke-miterlimit:10; stroke-width:10px;"/><line x1="593.26" y1="1449.23" x2="656.66" y2="1499.16" style="fill:none; stroke:#6cd3d3; stroke-linecap:round; stroke-miterlimit:10; stroke-width:10px;"/><line x1="618.2" y1="1596.71" x2="681.61" y2="1646.64" style="fill:none; stroke:#6cd3d3; stroke-linecap:round; stroke-miterlimit:10; stroke-width:10px;"/><line x1="643.15" y1="1744.19" x2="706.56" y2="1794.13" style="fill:none; stroke:#6cd3d3; stroke-linecap:round; stroke-miterlimit:10; stroke-width:10px;"/><line x1="667.39" y1="1900.85" x2="730.79" y2="1950.78" style="fill:none; stroke:#6cd3d3; stroke-linecap:round; stroke-miterlimit:10; stroke-width:10px;"/></g><ellipse cx="888.84" cy="1697.28" rx="367.46" ry="90.71" transform="translate(-932.92 2290.59) rotate(-80.4)" style="fill:#418c8c;"/><g><line x1="923.68" y1="1559.17" x2="838.71" y2="2059.6" style="fill:none; stroke:#6cd3d3; stroke-linecap:round; stroke-miterlimit:10; stroke-width:10px;"/><line x1="879.34" y1="1623.4" x2="905.56" y2="1664.44" style="fill:none; stroke:#6cd3d3; stroke-linecap:round; stroke-miterlimit:10; stroke-width:10px;"/><line x1="866.87" y1="1697.12" x2="893.09" y2="1738.15" style="fill:none; stroke:#6cd3d3; stroke-linecap:round; stroke-miterlimit:10; stroke-width:10px;"/><line x1="851.81" y1="1786.11" x2="878.04" y2="1827.14" style="fill:none; stroke:#6cd3d3; stroke-linecap:round; stroke-miterlimit:10; stroke-width:10px;"/><line x1="836.76" y1="1875.1" x2="862.98" y2="1916.14" style="fill:none; stroke:#6cd3d3; stroke-linecap:round; stroke-miterlimit:10; stroke-width:10px;"/><line x1="823.06" y1="1956.12" x2="849.28" y2="1997.16" style="fill:none; stroke:#6cd3d3; stroke-linecap:round; stroke-miterlimit:10; stroke-width:10px;"/><line x1="953.78" y1="1577.24" x2="915.52" y2="1607.37" style="fill:none; stroke:#6cd3d3; stroke-linecap:round; stroke-miterlimit:10; stroke-width:10px;"/><line x1="941.31" y1="1650.96" x2="903.05" y2="1681.09" style="fill:none; stroke:#6cd3d3; stroke-linecap:round; stroke-miterlimit:10; stroke-width:10px;"/><line x1="926.26" y1="1739.95" x2="888" y2="1770.08" style="fill:none; stroke:#6cd3d3; stroke-linecap:round; stroke-miterlimit:10; stroke-width:10px;"/><line x1="911.2" y1="1828.94" x2="872.94" y2="1859.07" style="fill:none; stroke:#6cd3d3; stroke-linecap:round; stroke-miterlimit:10; stroke-width:10px;"/><line x1="896.58" y1="1923.47" x2="858.32" y2="1953.6" style="fill:none; stroke:#6cd3d3; stroke-linecap:round; stroke-miterlimit:10; stroke-width:10px;"/></g><g><polygon points="1001.42 2056.38 958.95 2343.03 602.23 2343.03 570.38 2056.38 1001.42 2056.38" style="fill:#b77e56;"/><g style="clip-path:url(#s);"><path d="M898.44,2017.1s104.04,246.3-178.36,273.91c-282.4,27.6-118.91,76.44-118.91,76.44h369.46l112.54-216.58-36.1-133.77h-148.63Z" style="fill:#91552c;"/></g></g><g><rect x="523.67" y="1958.71" width="524.46" height="148.63" rx="27.63" ry="27.63" transform="translate(1571.8 4066.05) rotate(180)" style="fill:#c18e63;"/><g style="clip-path:url(#t);"><path d="M1025.83,1923.67s19.11,144.39-12.74,161.37c-31.85,16.99-539.32,4.25-539.32,4.25l80.69,65.82,522.34,10.62,78.56-239.93-129.52-2.12Z" style="fill:#91552c;"/></g></g><path d="M828.02,2007.08h122.39c7.05,0,12.82-5.77,12.82-12.82h0c0-7.05-5.77-12.82-12.82-12.82h-122.39c-7.05,0-12.82,5.77-12.82,12.82h0c0,7.05,5.77,12.82,12.82,12.82Z" style="fill:#91552c;"/><path d="M585,2059.53h120.05c7.37,0,13.4-6.03,13.4-13.4h0c0-7.37-6.03-13.4-13.4-13.4h-120.05c-7.37,0-13.4,6.03-13.4,13.4h0c0,7.37,6.03,13.4,13.4,13.4Z" style="fill:#91552c;"/><path d="M601.32,1994.26h78.09c3.53,0,6.41-2.88,6.41-6.41h0c0-3.53-2.88-6.41-6.41-6.41h-78.09c-3.53,0-6.41,2.88-6.41,6.41h0c0,3.53,2.88,6.41,6.41,6.41Z" style="fill:#91552c;"/><path d="M773.82,2045.54h52.45c3.53,0,6.41-2.88,6.41-6.41h0c0-3.53-2.88-6.41-6.41-6.41h-52.45c-3.53,0-6.41,2.88-6.41,6.41h0c0,3.53,2.88,6.41,6.41,6.41Z" style="fill:#91552c;"/><path d="M925.93,2045.54h59.44c1.92,0,3.5-1.57,3.5-3.5h0c0-1.92-1.57-3.5-3.5-3.5h-59.44c-1.92,0-3.5,1.57-3.5,3.5h0c0,1.92,1.57,3.5,3.5,3.5Z" style="fill:#91552c;"/></g><g><g><g><ellipse cx="2487.36" cy="1891.07" rx="403.76" ry="99.67" transform="translate(207.91 4028.18) rotate(-80.4)" style="fill:#4d9fa0;"/><line x1="2531.48" y1="1632.65" x2="2420.02" y2="2289.17" style="fill:none; stroke:#6cd3d3; stroke-linecap:round; stroke-miterlimit:10; stroke-width:10px;"/></g><line x1="2473.32" y1="1716.91" x2="2507.72" y2="1770.75" style="fill:none; stroke:#6cd3d3; stroke-linecap:round; stroke-miterlimit:10; stroke-width:10px;"/><line x1="2456.96" y1="1813.62" x2="2491.36" y2="1867.46" style="fill:none; stroke:#6cd3d3; stroke-linecap:round; stroke-miterlimit:10; stroke-width:10px;"/><line x1="2437.21" y1="1930.37" x2="2471.61" y2="1984.21" style="fill:none; stroke:#6cd3d3; stroke-linecap:round; stroke-miterlimit:10; stroke-width:10px;"/><line x1="2417.46" y1="2047.12" x2="2451.86" y2="2100.96" style="fill:none; stroke:#6cd3d3; stroke-linecap:round; stroke-miterlimit:10; stroke-width:10px;"/><line x1="2399.48" y1="2153.42" x2="2433.88" y2="2207.26" style="fill:none; stroke:#6cd3d3; stroke-linecap:round; stroke-miterlimit:10; stroke-width:10px;"/><line x1="2570.98" y1="1656.36" x2="2520.79" y2="1695.88" style="fill:none; stroke:#6cd3d3; stroke-linecap:round; stroke-miterlimit:10; stroke-width:10px;"/><line x1="2554.62" y1="1753.07" x2="2504.43" y2="1792.6" style="fill:none; stroke:#6cd3d3; stroke-linecap:round; stroke-miterlimit:10; stroke-width:10px;"/><line x1="2534.87" y1="1869.82" x2="2484.68" y2="1909.35" style="fill:none; stroke:#6cd3d3; stroke-linecap:round; stroke-miterlimit:10; stroke-width:10px;"/><line x1="2515.12" y1="1986.57" x2="2464.93" y2="2026.1" style="fill:none; stroke:#6cd3d3; stroke-linecap:round; stroke-miterlimit:10; stroke-width:10px;"/><line x1="2495.94" y1="2110.58" x2="2445.74" y2="2150.11" style="fill:none; stroke:#6cd3d3; stroke-linecap:round; stroke-miterlimit:10; stroke-width:10px;"/></g><ellipse cx="2320.63" cy="1949.43" rx="71.81" ry="290.89" transform="translate(-292.64 414.36) rotate(-9.6)" style="fill:#418c8c;"/><g><line x1="2293.05" y1="1840.1" x2="2360.31" y2="2236.25" style="fill:none; stroke:#6cd3d3; stroke-linecap:round; stroke-miterlimit:10; stroke-width:10px;"/><line x1="2328.15" y1="1890.94" x2="2307.39" y2="1923.43" style="fill:none; stroke:#6cd3d3; stroke-linecap:round; stroke-miterlimit:10; stroke-width:10px;"/><line x1="2338.02" y1="1949.3" x2="2317.26" y2="1981.79" style="fill:none; stroke:#6cd3d3; stroke-linecap:round; stroke-miterlimit:10; stroke-width:10px;"/><line x1="2349.94" y1="2019.75" x2="2329.18" y2="2052.24" style="fill:none; stroke:#6cd3d3; stroke-linecap:round; stroke-miterlimit:10; stroke-width:10px;"/><line x1="2361.86" y1="2090.2" x2="2341.1" y2="2122.68" style="fill:none; stroke:#6cd3d3; stroke-linecap:round; stroke-miterlimit:10; stroke-width:10px;"/><line x1="2372.71" y1="2154.34" x2="2351.95" y2="2186.82" style="fill:none; stroke:#6cd3d3; stroke-linecap:round; stroke-miterlimit:10; stroke-width:10px;"/><line x1="2269.22" y1="1854.41" x2="2299.51" y2="1878.26" style="fill:none; stroke:#6cd3d3; stroke-linecap:round; stroke-miterlimit:10; stroke-width:10px;"/><line x1="2279.09" y1="1912.76" x2="2309.38" y2="1936.62" style="fill:none; stroke:#6cd3d3; stroke-linecap:round; stroke-miterlimit:10; stroke-width:10px;"/><line x1="2291.01" y1="1983.21" x2="2321.3" y2="2007.06" style="fill:none; stroke:#6cd3d3; stroke-linecap:round; stroke-miterlimit:10; stroke-width:10px;"/><line x1="2302.92" y1="2053.66" x2="2333.21" y2="2077.51" style="fill:none; stroke:#6cd3d3; stroke-linecap:round; stroke-miterlimit:10; stroke-width:10px;"/><line x1="2314.5" y1="2128.49" x2="2344.79" y2="2152.34" style="fill:none; stroke:#6cd3d3; stroke-linecap:round; stroke-miterlimit:10; stroke-width:10px;"/></g><g><polygon points="2231.51 2233.71 2265.13 2460.63 2547.52 2460.63 2572.73 2233.71 2231.51 2233.71" style="fill:#b77e56;"/><g style="clip-path:url(#u);"><path d="M2313.03,2202.61s-82.36,194.98,141.19,216.83c223.56,21.85,94.13,60.51,94.13,60.51h-292.47l-89.09-171.45,28.58-105.9h117.66Z" style="fill:#91552c;"/></g></g><g><rect x="2194.53" y="2156.39" width="415.18" height="117.66" rx="21.87" ry="21.87" style="fill:#c18e63;"/><g style="clip-path:url(#v);"><path d="M2212.18,2128.65s-15.13,114.3,10.09,127.75c25.21,13.45,426.94,3.36,426.94,3.36l-63.87,52.11-413.5,8.4-62.19-189.94,102.53-1.68Z" style="fill:#91552c;"/></g></g><path d="M2368.78,2194.68h-96.88c-5.58,0-10.15-4.57-10.15-10.15h0c0-5.58,4.57-10.15,10.15-10.15h96.88c5.58,0,10.15,4.57,10.15,10.15h0c0,5.58-4.57,10.15-10.15,10.15Z" style="fill:#91552c;"/><rect x="2455.51" y="2214.98" width="116.26" height="21.22" rx="10.61" ry="10.61" style="fill:#91552c;"/><path d="M2548.24,2184.53h-61.82c-2.79,0-5.07-2.28-5.07-5.07h0c0-2.79,2.28-5.07,5.07-5.07h61.82c2.79,0,5.07,2.28,5.07,5.07h0c0,2.79-2.28,5.07-5.07,5.07Z" style="fill:#91552c;"/><path d="M2411.68,2225.13h-41.52c-2.79,0-5.07-2.28-5.07-5.07h0c0-2.79,2.28-5.07,5.07-5.07h41.52c2.79,0,5.07,2.28,5.07,5.07h0c0,2.79-2.28,5.07-5.07,5.07Z" style="fill:#91552c;"/><path d="M2291.27,2225.13h-47.06c-1.52,0-2.77-1.25-2.77-2.77h0c0-1.52,1.25-2.77,2.77-2.77h47.06c1.52,0,2.77,1.25,2.77,2.77h0c0,1.52-1.25,2.77-2.77,2.77Z" style="fill:#91552c;"/></g><g><g><rect x="1108.25" y="2045.5" width="31.84" height="424.29" rx="15.92" ry="15.92" style="fill:#afa0a1;"/><g style="clip-path:url(#w);"><path d="M1140.89,2484.92h0c-9.19,0-16.72-7.52-16.72-16.72v-466.49c0-9.19,7.52-16.72,16.72-16.72h0c9.19,0,16.72,7.52,16.72,16.72v466.49c0,9.19-7.52,16.72-16.72,16.72Z" style="fill:#776f70;"/></g></g><path d="M1126.56,2457.06s101.89-23.88,127.37,50.95c0,19.11-14.33,12.74-14.33,12.74,0,0-39.8-49.36-113.04-33.43-11.14-17.51,0-30.25,0-30.25Z" style="fill:#877b7c;"/><g><path d="M1121.61,2457.06s-101.89-23.88-127.37,50.95c0,19.11,14.33,12.74,14.33,12.74,0,0,39.8-49.36,113.04-33.43,11.14-17.51,0-30.25,0-30.25Z" style="fill:#877b7c;"/><g style="clip-path:url(#x);"><path d="M990.44,2526.31s28.66-65.28,120.2-56.52c97.91-8.76,145.68,37.41,142.49,51.74-3.18,14.33-119.41,71.64-119.41,71.64l-143.29-66.87Z" style="fill:#605859;"/><path d="M1126.56,2457.06s101.89-23.88,127.37,50.95c0,19.11-14.33,12.74-14.33,12.74,0,0-39.8-49.36-113.04-33.43-11.14-17.51,0-30.25,0-30.25Z" style="fill:#877b7c;"/></g></g><g style="clip-path:url(#y);"><path d="M1114.66,2469.46s108.23-13.21,135.29,39.33c27.07,52.54-33.43,27.07-33.43,27.07l-108.26-35.03,6.41-31.37Z" style="fill:#605859;"/></g><rect x="874.21" y="1989.77" width="509.47" height="84.38" rx="20.72" ry="20.72" style="fill:#350c0e;"/><rect x="1110.64" y="2442.73" width="27.07" height="84.38" rx="13.53" ry="13.53" style="fill:#877b7c;"/></g><g><g><g><path d="M1152.23,1197.45l-9.61,82.6s87.94-4.84,97.8,19.74c9.85,24.59,10.57-90.86,10.57-90.86,0,0-58.25-31.89-98.76-11.48Z" style="fill:#ff886e;"/><g style="clip-path:url(#a`);"><path d="M1125.45,1241.6s75.26-30.99,142.77,30.99c67.51,61.98,43.16-123.96,43.16-123.96l-168.23-77.47-84.11,54.23,66.41,116.21Z" style="fill:#db5f4b;"/></g></g><path d="M1473.37,1029.44s70.55,78.62-9.46,83.61c-7.15-34.19,9.46-83.61,9.46-83.61Z" style="fill:#c65c4b;"/><ellipse cx="1461.9" cy="1024.67" rx="43.72" ry="87.99" style="fill:none; stroke:#000; stroke-miterlimit:10; stroke-width:4px;"/><g><path d="M1427.34,867.31s142.14,321.57-53.62,365.53c-195.76,43.96-188.95-96.64-188.95-96.64,0,0,45.39-322.01,242.57-268.89Z" style="fill:#ff886e;"/><g style="clip-path:url(#aa);"><path d="M1461.9,886.33s2.46,3.11,5.9,8.14c13.54,19.87,50.81,58.34,2.96,66.01-59.98,9.61-98.5-37.63-98.5-37.63,0,0,37.63,19.92,2.21,37.63-35.42,17.71-89.65-54.23-89.65-54.23,0,0,14.39,68.62-5.53,109.57-19.92,40.95-47.59,69.73-47.59,69.73h-88.54l12.17-199.22,175.98-105.14,130.6,46.48" style="fill:#db5f4b;"/></g></g><path d="M1402.27,986.67s-13.39-21.04-38.32-20.79c-24.94,.25-15.02,27.68-15.02,27.68,0,0,51.64,11.48,53.34-6.89Z" style="fill:#620c0d;"/><circle cx="1392.68" cy="1051.06" r="18.5" transform="translate(-231.59 1688.25) rotate(-58.46)" style="fill:#620c0d;"/><path d="M1196.83,761.82s122.85-115.1,229.1,0c106.25,115.1,85.22,123.96,50.91,119.53,32.1,39.84-27.67,70.83-54.23,45.38,9.96,38.74-91.86,26.56-91.86-13.28-11.07,52.02-47.59,21.03-47.59,21.03,0,0-5.53,45.38-44.27,98.5-38.74,53.12-33.2,61.98-22.14,96.29,11.07,34.31-32.1,80.79-32.1,80.79,0,0-102.93,4.43-129.49-97.4-27.67,11.07-83.01-61.98-59.77-101.82-29.88-50.91,1.11-297.72,201.43-249.02Z" style="fill:#620c0d;"/><line x1="1238.98" y1="1064.82" x2="1505.62" y2="1024.12" style="fill:none; stroke:#000; stroke-miterlimit:10; stroke-width:4px;"/><g><path d="M1373.92,1637.27s81.9,208.07,174.87,112.89c57.55-78.58,53.12-149.41,53.12-149.41l-66.41-13.28s7.75,23.24-26.56,59.77c-21.03-46.48-43.16-95.18-43.16-95.18l-91.86,85.22Z" style="fill:#ff886e;"/><g style="clip-path:url(#ab);"><path d="M1500.64,1582.48s-58.66,136.13-116.21,136.13-54.23-122.85-54.23-122.85l97.4-88.54,73.05,75.26Z" style="fill:#dd6a57;"/></g></g><g style="clip-path:url(#ac);"><path d="M1449.73,1775.06s45.71-45.38,88.71-15.49c43,29.88-44.44,52.02-44.44,52.02l-44.27-36.52Z" style="fill:#dd6a57;"/><path d="M1444.2,1555.92s53.12,129.49,81.9,92.97c19.08-24.22,6.64-66.41,6.64-66.41l-15.49-12.17-2.21,39.84-35.42-66.41-35.42,12.17Z" style="fill:#dd6a57;"/></g><g><path d="M1450.28,2337.85s-25.46,47.59,17.71,59.77c43.16,12.17,161.59-68.62,119.53-84.11-42.06-15.49-137.24,24.35-137.24,24.35Z" style="fill:#fff;"/><g style="clip-path:url(#ad);"><path d="M1419.85,2361.65s87.43,48.7,177.08-42.06c89.65-90.75,99.61,67.51,99.61,67.51l-208.07,138.35-96.29-90.75,27.67-73.05Z" style="fill:#c1d0ea;"/></g></g><g><path d="M1323.01,2325.68s-25.46,47.59,17.71,59.77c43.16,12.17,161.59-68.62,119.53-84.11-42.06-15.49-137.24,24.35-137.24,24.35Z" style="fill:#fff;"/><g style="clip-path:url(#ae);"><path d="M1295.89,2353.9s21.03,55.34,96.29,4.43c75.26-50.91,92.97-66.41,92.97-66.41l-7.75,83.01-106.25,61.98-91.86-27.67,16.6-55.34Z" style="fill:#c1d0ea;"/></g></g><g><polygon points="1749.85 1507.07 1708.99 1490.75 1710.23 1524.53 1749.85 1507.07" style="fill:#f3c285;"/><g><path d="M1705.64,1525.2l-173.33,.67c-9.3,.04-17.14-7.5-17.43-16.74l-.04-1.4c-.28-9.24,7.09-16.84,16.4-16.87l173.33-.67c2.33,0,4.56,.46,6.61,1.3,6.14,2.54,10.61,8.51,10.82,15.44l.04,1.4c.28,9.24-7.09,16.84-16.4,16.87Z" style="fill:#f53b51;"/><g style="clip-path:url(#af);"><line x1="1726.51" y1="1513.09" x2="1511.49" y2="1514.31" style="fill:none; stroke:#fbed21; stroke-miterlimit:10; stroke-width:4px;"/><line x1="1726.41" y1="1503.1" x2="1512.66" y2="1499.8" style="fill:none; stroke:#fbed21; stroke-miterlimit:10; stroke-width:4px;"/></g></g><path d="M1515.18,1508c-.13-8.71,4.66-15.72,10.69-15.65,6.03,.07,11.02,7.2,11.15,15.91,.13,8.71-4.66,15.72-10.69,15.65-6.03-.07-11.02-7.2-11.15-15.91Z" style="fill:#542e0c;"/></g><ellipse cx="1238.98" cy="1104.95" rx="35.51" ry="45.77" transform="translate(-421.04 1122.41) rotate(-42.33)" style="fill:#ff886e;"/><g><path d="M1279.84,1813.24l-338.67-28.78s-118.42,206.97,90.75,236.85c209.18,29.88,299.93-49.8,325.39-15.49,25.46,34.31,84.11,345.31,84.11,345.31,0,0,59.8,32.81,64.19-15.49,3.32-36.52,81.9-693.94-225.78-522.39Z" style="fill:#414959;"/><g style="clip-path:url(#ag);"><path d="M876.43,1841.47s-16.6,136.13,169.33,127.28c185.94-8.85,369.66-77.47,397.33,0,27.67,77.47,71.94,408.4,26.56,430.53-45.38,22.14-387.37-214.71-387.37-214.71l-254.56-187.04,48.7-156.05Z" style="fill:#1d2533;"/></g></g><path d="M1212.33,1977.05l109.57,374.09s54.23,15.49,70.83-11.07c0-81.9-59.77-378.51-59.77-378.51l-120.64,15.49Z" style="fill:#1d2533;"/><g><path d="M1101.3,1271.76l-2.03,17.5s-35.82,2.93-46.69,35.37c-10.87,32.44-152.14,454.15-123.69,484.07,28.45,29.92,196.63,93.82,384.92,30.57,13.43-115.51-13.72-248.16-13.72-248.16,0,0,65.61,106.96,84.13,100.25,18.52-6.72,136.11-133.18,123.41-161.26-12.7-28.08-89.43-124.14-209.94-192.93,8.83-14.94,2.04-17.5,2.04-17.5,0,0-42.61-75.91-198.42-47.91Z" style="fill:#fdb856;"/><g style="clip-path:url(#ah);"><path d="M1041.33,1300.26s120.64-52.02,277.8,49.8c157.16,101.82-3.32-79.69-3.32-79.69l-262.3-28.78-12.17,58.66Z" style="fill:#e29c49;"/><path d="M1458.58,1637.82c-56.45,0-160.48-128.38-185.94-55.34-25.46,73.05,95.18,221.35-66.41,292.19-161.59,70.83,177.08-24.35,177.08-24.35l-1.11-105.14,76.37-19.92v-87.43Z" style="fill:#e29c49;"/></g></g><g><path d="M1538.74,1620.18c4.37,6.44,48.78,27.05,64.27,11.56,61.98-49.8,34.31-81.9,22.14-107.36,6.74-9.44,7.28-19.61,2.5-27.54-6.99-11.6-25.35-18.43-52.3-11.19-45.38,12.17-43.16,61.98-43.16,61.98l3.32,39.84-1.66,23.8c-.22,2.93,2.05,9.66,4.9,8.92h0Z" style="fill:#ff886e;"/><g style="clip-path:url(#ai);"><path d="M1642.31,1513.86s-36.52,0-28.78,21.03c7.75,21.03,26.56,49.8,4.43,69.73-22.14,19.92-30.99,36.52,0,33.2,30.99-3.32,77.47-71.94,77.47-71.94l-53.12-52.02Z" style="fill:#dd6b58;"/></g></g><path d="M1256.05,1098.83s-12.17-14.39-16.6,2.21c-4.43,16.6,19.92,24.35,19.92,24.35,0,0-15.49,0-24.35-7.75-8.2-7.18-8.85-30.99,4.43-29.88,13.28,1.11,16.6,11.07,16.6,11.07Z" style="fill:#db5f4b;"/></g><circle cx="1340.75" cy="1102.82" r="37.71" transform="translate(-302.24 1663.54) rotate(-58.28)" style="fill:#e54833;"/></g></svg>