<svg width="60" height="67" viewBox="0 0 60 67" fill="none" xmlns="http://www.w3.org/2000/svg">
<path d="M24.0262 65.1068C23.866 65.1068 23.6964 65.0691 23.5551 64.9843L0.471102 51.6521C0.179019 51.4825 0 51.1716 0 50.8324V24.1868C0 23.8476 0.179019 23.5367 0.471102 23.3671L23.5551 10.0349C23.8472 9.86532 24.2052 9.86532 24.4973 10.0349L47.5813 23.3577C47.8734 23.5273 48.0524 23.8382 48.0524 24.1774V28.5115C48.0524 29.0298 47.6285 29.4538 47.1102 29.4538C46.592 29.4538 46.168 29.0298 46.168 28.5115V24.7239L24.0262 11.9382L1.88441 24.7239V50.2859L24.0262 63.0716L41.5135 52.9712C41.9658 52.7074 42.5405 52.8675 42.8044 53.3198C43.0682 53.7721 42.908 54.3468 42.4557 54.6106L24.4973 64.9749C24.356 65.0597 24.1864 65.0974 24.0262 65.0974V65.1068Z" fill="#2D2D2D"/>
<path d="M24.0273 64.1927C23.509 64.1927 23.0851 63.7688 23.0851 63.2505L23.1322 38.1031L1.25416 25.4493C0.801907 25.1855 0.651154 24.6107 0.914971 24.1585C1.16937 23.7062 1.74411 23.5555 2.20579 23.8193L24.5549 36.7463C24.847 36.9159 25.026 37.2268 25.026 37.566L24.9695 63.26C24.9695 63.7782 24.5455 64.2022 24.0273 64.2022V64.1927Z" fill="#2D2D2D"/>
<path d="M24.0784 38.5082C23.7581 38.5082 23.4377 38.3386 23.2587 38.0371C22.9949 37.5849 23.1457 37.0101 23.5979 36.7463L45.8434 23.8193C46.2862 23.5555 46.8704 23.7062 47.1342 24.1585C47.398 24.6107 47.2473 25.1855 46.795 25.4493L24.5495 38.3763C24.3988 38.4611 24.2386 38.5082 24.0784 38.5082Z" fill="#2D2D2D"/>
<path d="M35.2042 32.0443C35.0346 32.0443 34.8651 31.9972 34.7049 31.903L12.4123 18.0714C11.9695 17.7982 11.8376 17.214 12.1108 16.7712C12.384 16.3284 12.9682 16.1964 13.411 16.4697L35.713 30.2918C36.1559 30.5651 36.2878 31.1492 36.0145 31.5921C35.8355 31.8747 35.5246 32.0349 35.2137 32.0349L35.2042 32.0443Z" fill="#2D2D2D"/>
<path d="M54.8058 67.0006H49.2656C47.7016 67.0006 46.3825 65.7851 46.2506 64.2305L44.3379 41.0711C44.2908 40.4681 44.4133 39.8745 44.7148 39.3469L46.26 36.5768C46.3542 36.4072 46.4013 36.2187 46.4013 36.0209V33.7125C46.4013 32.0448 47.7581 30.688 49.4258 30.688H54.6362C56.3039 30.688 57.6607 32.0448 57.6607 33.7125V35.8324C57.6607 36.0209 57.7078 36.2093 57.7926 36.3695L59.3661 39.2903C59.6487 39.8085 59.7712 40.3927 59.7241 40.9769L57.8114 64.2305C57.6795 65.7851 56.3604 67.0006 54.7964 67.0006H54.8058ZM49.4352 32.5724C48.8134 32.5724 48.2952 33.0812 48.2952 33.7125V36.0209C48.2952 36.5391 48.1633 37.0479 47.9089 37.4907L46.3637 40.2608C46.2506 40.4587 46.2035 40.6848 46.2223 40.9109L48.135 64.0703C48.1821 64.6545 48.6815 65.1162 49.2656 65.1162H54.8058C55.39 65.1162 55.8893 64.6545 55.9365 64.0703L57.8491 40.8167C57.868 40.6 57.8209 40.3739 57.7172 40.1854L56.1437 37.2646C55.9082 36.8312 55.7763 36.3318 55.7763 35.8324V33.7125C55.7763 33.0906 55.2675 32.5724 54.6362 32.5724H49.4258H49.4352Z" fill="#2D2D2D"/>
<path d="M52.0399 61.5922C51.5216 61.5922 51.0977 61.1682 51.0977 60.65V40.157C51.0977 39.6388 51.5216 39.2148 52.0399 39.2148C52.5581 39.2148 52.9821 39.6388 52.9821 40.157V60.65C52.9821 61.1682 52.5581 61.5922 52.0399 61.5922Z" fill="#2D2D2D"/>
<path d="M52.0399 32.572C51.5216 32.572 51.0977 32.148 51.0977 31.6298V0.942205C51.0977 0.423992 51.5216 0 52.0399 0C52.5581 0 52.9821 0.423992 52.9821 0.942205V31.6298C52.9821 32.148 52.5581 32.572 52.0399 32.572Z" fill="#2D2D2D"/>
</svg>
