<svg width="63" height="62" viewBox="0 0 63 62" fill="none" xmlns="http://www.w3.org/2000/svg">
<path d="M31.8197 46.1901C31.6722 46.1901 31.5161 46.1553 31.3859 46.077L19.3791 39.1309C19.1101 38.9745 18.9453 38.6876 18.9453 38.3746V24.4824C18.9453 24.1694 19.1101 23.8825 19.3791 23.7261L31.3859 16.78C31.6549 16.6235 31.9846 16.6235 32.2535 16.78L44.2603 23.7261C44.5293 23.8825 44.6941 24.1694 44.6941 24.4824V38.3746C44.6941 38.6876 44.5293 38.9745 44.2603 39.1309L32.2535 46.077C32.1234 46.1553 31.9672 46.1901 31.8197 46.1901ZM20.6804 37.8704L31.8197 44.321L42.959 37.8704V24.9779L31.8197 18.536L20.6804 24.9779V37.8704Z" fill="#2D2D2D"/>
<path d="M31.8202 45.7122C31.343 45.7122 30.9526 45.321 30.9526 44.8428L30.9787 31.9504L19.7873 25.465C19.3709 25.2216 19.2321 24.6913 19.475 24.274C19.7092 23.8567 20.2471 23.7089 20.6635 23.961L32.2887 30.6985C32.5576 30.855 32.7224 31.1419 32.7224 31.4548L32.6964 44.8515C32.6964 45.3297 32.306 45.7209 31.8289 45.7209L31.8202 45.7122Z" fill="#2D2D2D"/>
<path d="M31.8587 32.3247C31.5637 32.3247 31.2687 32.1682 31.1039 31.89C30.861 31.4728 30.9998 30.9425 31.4162 30.699L42.9893 23.9616C43.4057 23.7182 43.9349 23.8573 44.1778 24.2745C44.4208 24.6918 44.282 25.2221 43.8655 25.4656L32.2924 32.203C32.1536 32.2813 32.0062 32.3247 31.8587 32.3247Z" fill="#2D2D2D"/>
<path d="M37.6314 28.9512C37.4752 28.9512 37.3191 28.9077 37.1716 28.8208L25.5725 21.6138C25.1647 21.3617 25.0433 20.8227 25.2949 20.4141C25.5464 20.0055 26.0843 19.8838 26.4921 20.136L38.0912 27.3429C38.4989 27.595 38.6204 28.134 38.3688 28.5426C38.204 28.8034 37.9177 28.9512 37.6314 28.9512Z" fill="#2D2D2D"/>
<path d="M31.8457 61.0213C24.5756 61.0213 17.3056 58.4567 11.5537 53.3102C-0.175525 42.7997 -1.92797 24.726 7.57167 12.1639C7.85796 11.7813 8.40452 11.7031 8.78624 11.9987C9.16796 12.2856 9.24604 12.8333 8.95107 13.2158C-0.00201488 25.0563 1.64632 42.1043 12.7076 52.0149C23.7688 61.9254 40.8508 61.6733 51.5997 51.4411C51.9467 51.1107 52.4933 51.1281 52.8229 51.4759C53.1526 51.8236 53.1353 52.3713 52.7882 52.7016C46.9757 58.2394 39.402 61.0213 31.8283 61.0213H31.8457Z" fill="#2D2D2D"/>
<path d="M54.5259 50.4587C54.3264 50.4587 54.1355 50.3891 53.9707 50.2587C53.6063 49.9458 53.5543 49.3981 53.8666 49.0329C63.8781 37.062 62.6202 19.5272 51.0037 9.11239C39.3786 -1.29372 21.8454 -0.598243 11.0878 10.7033C10.7582 11.051 10.2116 11.0684 9.86459 10.7294C9.51757 10.399 9.5089 9.85134 9.83857 9.5036C21.2381 -2.48473 39.8297 -3.22368 52.1489 7.81706C64.4767 18.8578 65.8127 37.4532 55.1853 50.1457C55.0118 50.3543 54.7688 50.4587 54.5173 50.4587H54.5259Z" fill="#2D2D2D"/>
<path d="M10.8883 20.9619C10.5326 20.9619 10.1942 20.7359 10.0728 20.3794L7.70438 13.6941L1.05029 15.1025C0.573144 15.1981 0.122019 14.9025 0.0179132 14.4331C-0.077517 13.9636 0.217449 13.5029 0.685925 13.3986L8.07743 11.8337C8.49385 11.7381 8.92763 11.9815 9.07511 12.3901L11.6951 19.7883C11.8513 20.2403 11.617 20.7359 11.1659 20.9011C11.0705 20.9358 10.975 20.9532 10.8796 20.9532L10.8883 20.9619Z" fill="#2D2D2D"/>
<path d="M54.6401 50.5637C54.2757 50.5637 53.946 50.3377 53.8246 49.9813L51.2046 42.5831C51.0484 42.131 51.2827 41.6355 51.7338 41.4703C52.1849 41.3051 52.6794 41.5486 52.8443 42.0006L55.2127 48.6859L61.8667 47.2776C62.3439 47.1733 62.795 47.4775 62.8991 47.947C62.9946 48.4164 62.6996 48.8772 62.2311 48.9815L54.8309 50.5463C54.7702 50.555 54.7095 50.5637 54.6488 50.5637H54.6401Z" fill="#2D2D2D"/>
</svg>
