<?xml version="1.0" encoding="UTF-8"?><svg xmlns="http://www.w3.org/2000/svg" viewBox="0 0 1039 738"><g id="a"/><g id="b"><g style="opacity:.4;"><path d="M479.96,608.12c-28.19,.08-56.39,.76-84.53,3.89-10.61,1.18-21,3.78-31.64,4.82-21.24,2.09-42.11,5.99-63.43,7.79-17.17,1.45-34.41,2.3-51.53,4.14-16.05,1.72-33.82,1.33-49.74-1.52-11.79-2.11-23.63-3.3-35.23-6.68-12.97-3.79-27.05-6.5-40.57-6.4-19.27,.14-38.03,.16-56.47,6.85-6.47,2.35-14.4,6.21-19.31,11.14-11.25,11.28-12.77,39.43-1.54,51.13,18.92,19.69,59.3,27.42,85.83,27.79,29.06,.4,57.3-1.76,86.4-3.03,27.05-1.18,54.02-2.86,81.11-2.8,55.33,.12,110.66,0,165.89-3.7,51.89-3.47,103.91-2.28,155.91-2.28s106.29,.42,159.23,7.51c23.07,3.09,46.57,4.17,69.75,6.33,20.76,1.94,40.71-.04,61.39-1.83,17.36-1.5,34.62-5.96,50.39-13.5,12.49-5.97,34.75-24.51,38.58-38.75,10.74-39.93-151.3-38.97-176.18-38.88-27.83,.1-55.88,1.02-83.69-.05-11.7-.45-23.22-2.73-34.64-5.24-11.37-2.5-22.83-1.86-34.36-2.91-48.09-4.37-96.29-3.73-144.54-3.73-15.7,0-31.41-.14-47.12-.09Z" style="fill:#f1f2f2;"/></g></g><g id="c"><g><path d="M742.42,199.75c.26,.17,.52,.34,.71,.57,1.79,2.1,1.47,4.27,2.61,6.77,.51,1.12,3.63,1.57,2.26,3.73-.51,.8-2.03,2.58-3.13,4.27-1.6,2.47-2.15,6.56-1.98,9.89,.66,13.08,4.87,25.62,9.42,37.9,.26,.7,.54,1.43,1.09,1.93,.99,.9,2.5,.8,3.83,.68,6.17-.56,12.39-.55,18.56,.03,5.5,.52,11.11,1.55,15.85,4.4,4.74,2.84,8.51,7.81,8.65,13.34,.1,4.14-1.93,8.27-5.27,10.72-8.28,6.07-21.15-1.64-29.41-4.66-7.82-2.86-15.44-6.26-22.78-10.19-.91-.48-1.83-1-2.48-1.8-.69-.85-.98-1.95-1.25-3.01-3.52-13.66-5.81-27.56-7.84-41.57-.56-3.85,.98-7.51,.44-11.06-.35-2.27-2.25-3.8-3.06-5.87-.79-2.05-1.32-4.94-1.3-7.13,.03-4.33,3.65-6.94,6.59-9.54,.73-.65,1.22-1.09,2.11-1.3,1.45-.35,2.77,.23,4.1,.76,.79,.31,1.56,.69,2.27,1.15Z" style="fill:#e2bd9c;"/><path d="M769.41,288.1c.33-8.3,.67-16.59,1-24.89-.02,.53,37.74-.78,39.99-.79,8.59,0,17.49,.05,25.29,3.64,16.67,7.65,15.71,31.77-2.62,36.67-19.9,5.31-43.5,3.48-62.51-4.3-.41-.17-.84-.35-1.12-.71-.38-.48-.37-1.15-.35-1.77,.11-2.62,.21-5.24,.32-7.86Z" style="fill:#fff;"/></g><g><g><g><path d="M755.47,643.7c-2.83-.32-5.44-1.35-8.16-2.01,2.59-27.59,9.39-55.91,14.55-83.26,6.98,1.41,13.96,2.81,20.94,4.22-7.06,13.98-12.78,28.64-17.08,43.7-.68,2.39-9.85,37.38-10.25,37.34Z" style="fill:#e2bd9c;"/><path d="M747.23,636.25c-1.69-.56-2.83,.06-4.14,.95-.76,.52-1.35,1.32-2.22,1.64-.88,.32-1.68,.29-2.66,.25-5.15-.23-16.81-2.16-11.83,7.24,4.53,8.54,20,7.67,28.98,6.85,.59-.05,1.21-.05,1.69-.43s.86-.97,1.13-1.59c1.52-3.48,3.54-7.81-.7-9.98-1.81-.93-3.74,.08-5.65-.92-1.57-.81-2.91-3.43-4.6-3.99Z" style="fill:#3b455a;"/></g><path d="M747.1,579.25c14.39,1.83,28.77,3.65,43.16,5.48,19.71-53.54,49.77-97.19,55.08-162.03,.36-4.41,2.64-8.62,2.01-13-1.19-8.28-9.03-14.06-16.94-16.77-12.3-4.22-36.01-4.34-44.43,7.86-8.89,12.89-11.38,37.87-15.3,52.98-10.68,41.23-18.57,83.18-23.59,125.48Z" style="fill:#474ebb;"/></g><g><g><path d="M872.51,647.35c-2.78,.58-5.58,.42-8.38,.65-6.17-27.02-8.56-56.04-12.22-83.63,7.07-.85,14.14-1.69,21.21-2.54-2.33,15.49-3.18,31.2-2.55,46.85,.1,2.48,2.34,38.59,1.94,38.67Z" style="fill:#e2bd9c;"/><path d="M862.37,642.86c-1.78,0-2.67,.94-3.64,2.19-.56,.73-.87,1.67-1.6,2.25-.73,.58-1.51,.8-2.45,1.07-4.96,1.39-16.64,3.2-8.97,10.57,6.97,6.69,21.39,1.03,29.67-2.55,.54-.24,1.13-.43,1.47-.94s.51-1.19,.58-1.87c.36-3.78,.92-8.53-3.78-9.27-2.01-.32-3.53,1.24-5.66,.9-1.74-.28-3.84-2.35-5.62-2.35Z" style="fill:#3b455a;"/></g><path d="M839.08,583.55c14.24-2.76,28.47-5.53,42.71-8.29,1.98-57.02,2.53-114.08,1.64-171.13-.07-4.42-.18-9.01-2.15-12.98-3.72-7.49-12.97-10.53-21.33-10.63-13-.16-35.56,7.14-39.74,21.36-4.42,15.02,1.03,39.53,2.04,55.11,2.75,42.5,8.37,84.82,16.84,126.56Z" style="fill:#474ebb;"/></g><path d="M857.54,273.23c11.62,11.06,20.33,25.27,25.57,39.99,9.29,26.07,9.47,53.9,9.55,81.17,.03,9.08,.06,18.15,.09,27.23,.03,8.93-.76,10.85-10.47,9.68-17.99-2.18-36.68-5.89-52.98-13.88-7.76-3.8-15-8.61-23.13-11.6-11.83-4.36-23.95-2.38-35.65-5.22,2.97-8.97,7.41-17.17,9.47-26.58,2.07-9.42,3.04-19.05,3.69-28.67,1.14-16.81,3.23-33.53,4.49-50.28,.9-12-.68-21.82,12.08-29.69,6.95-4.28,19.59-11.62,29.39-9.63,10.4,2.1,21.41,11.3,27.9,17.48Z" style="fill:#fff;"/><g><path d="M815.78,232.02c2.39,5.23,6.3,9.58,9.49,14.36,3.1,4.65,4.22,8.86,5.04,14.25,.59,3.89,1.99,6.94,6.68,7.6,8.85,1.26,6.32-6.05,8.33-11.37,2.3-6.08,7.2-10.88,10.62-16.31,9.89-15.68,7.07-46.66-13.49-53.27-22.48-7.23-33.91,28.88-26.66,44.74Z" style="fill:#e2bd9c;"/><path d="M851.61,216.85c2.55,.1,5.36,.31,7.25,2.02,1.89,1.71,1.69,5.45-.81,5.86-2.27,.37-5.2-2-6.58-.27-.81,1.01-.1,2.48,.51,3.66,2.35,4.53,3.06,9.77,1.96,14.59,.93,.86,2.39-.03,3.2-.93,4.06-4.46,7.24-9.68,9.32-15.3,.82,1.36,2.01,2.52,3.43,3.32-.85-2.11-.31-4.43,.21-6.59,1.92-7.93,3.23-17.22-2.31-23.7-2.96-3.47-7.47-5.46-12-6.3-4.53-.84-9.15-.63-13.72-.43-1.95,.09-4.36,.51-4.83,2.32,4.28,1.72,8.72,5.06,10.86,9.12,.66,1.25,3.24,12.63,3.5,12.64Z" style="fill:#2b3444;"/><path d="M842.56,197.8c.16,.11,.31,.23,.46,.34,1.94,1.48,3.76,3.28,6.11,3.93,3.39,.94,7.03-.69,10.36,.47,3.73,1.29,6.18,5.75,8.9,8.39,4.46,4.33,10,7.51,15.94,9.32,3.03,.92,6.18,1.49,9.34,1.67,1.44,.08,3.36,.35,4.76-.02,1.88-.51,1.81-1.36-.19-2-6.28-2.01-8.24-10.83-7.77-16.67,.37-4.61,1.97-9.43,.21-13.71-1.34-3.27-4.23-4.96-7.02-6.83-3.08-2.06-6.41-1.51-9.9-2.5-3.64-1.03-6.61-3.9-10.33-4.64-3.93-.77-7.85,.97-11.78,1.73-3.25,.63-6.62,.59-9.85-.12-2.89-.64-5.72-1.81-8.68-1.78-4.37,.04-8.39,2.77-10.93,6.31-3.61,5.02-5.94,13.6-4.67,20.21-.2-1.03,3.25-4.74,3.96-5.54,1.5-1.69,3.31-3.27,5.59-3.54,5.18-.62,11.31,1.96,15.48,4.98Z" style="fill:#3b455a;"/></g></g><g><path d="M492.16,208.4c-5.07,.07-10.15,.14-15.22,.21-.32,3-1.14,5.95-2.42,8.68,9.33,4.96,18.42,10.38,27.23,16.22,2.41-.7,4.87-1.21,7.36-1.51-1.57-2.97-15.13-23.63-16.95-23.61Z" style="fill:#e2bd9c;"/><path d="M543.01,258.93c-1.87-1.91-3.81-4.18-6.11-6.71-9.77-10.78-20.4-21-30.62-31.36-.62-.63-1.27-1.28-2.12-1.53-1.01-.3-2.1,.03-3.1,.35-4.22,1.37-8.44,2.74-12.66,4.11,1.05-.34,19.59,34.77,21.49,38.08,3.6,6.25,7.94,12.41,11.12,18.86,2.7,5.47,3.82,10.58,9.67,13.79,4.94,2.72,10.73,3.35,16.35,3.8,18.22,1.45,36.54,1.49,54.77,.11,1.89-.14,3.83-.31,5.53-1.17,1.78-.9,3.13-2.47,4.29-4.1,4.66-6.52,7-14.62,6.82-22.61-.12-5.5-.71-17.15-7.29-18.7-3.21-.76-6.55,.28-9.7,1.28-12.25,3.9-24.62,7.37-37.01,10.83-11.09,3.1-15.93,.58-21.43-5.05Z" style="fill:#d34e4e;"/></g><g><g><g><path d="M570.07,636.84c-3.02,.37-5.86-.54-8.82-.7-.45-10.39,.11-20.42,1.77-30.8,4.86,4.82,8.54,1.65,8.93,11.2,.12,3.09-2.74,15.64-1.88,20.31Z" style="fill:#e2bd9c;"/><path d="M560.3,631.01c-3.52-1.04-3.83,7.24-3.75,9.18,.05,1.17,.25,2.34,.02,3.49-.26,1.26-1.01,2.35-1.76,3.39-1.55,2.19-3.1,4.39-4.65,6.58-.7,.99-1.41,2-1.75,3.16-.84,2.87,1,6.12,3.74,7.32,9.53,4.15,17.34-7.65,18.93-15.24,.24-1.16,.4-2.34,.56-3.52,.33-2.44,1.85-7.8,.76-10.1-1.27-2.68-4.54-.5-6.82-1.41-2.11-.84-3.87-2.43-5.3-2.85Z" style="fill:#3b455a;"/></g><path d="M616.77,462.49c-7.3,23.99-15.97,47.55-20.25,72.47-5.3,30.79-14.94,61.07-19.02,91.86-3.75,.33-7.52,.39-11.27,.16-4.3-.26-11.15-1.03-12.96-5.61-.92-2.34-.31-6.27-.33-8.75-.06-7.96,.05-15.92,.19-23.88,.38-22.52,.23-45.28,3.1-67.62,3.02-23.5,5.86-47.07,8.36-70.54,1.29-12.13,3.05-24.21,5.37-36.18,.6-3.09,6.84-34.89,8.43-34.73,18.85,1.92,36.69,7.12,53.51,15.85,1.63,.85,3.22,1.88,3.87,3.52,.64,1.64,.23,3.11-.2,4.65-4.05,14.73-9.76,28.65-14.13,43.34-1.52,5.11-3.07,10.22-4.67,15.47Z" style="fill:#aeb3b7;"/></g><g><g><path d="M623.11,637.01c2.9,.93,5.86,.57,8.79,.97,2.39-10.13,3.72-20.08,4.04-30.59-5.68,3.82-8.7,.01-10.87,9.32-.7,3.01-.24,15.88-1.97,20.3Z" style="fill:#e2bd9c;"/><path d="M634.7,634.81c.33,5.63,5.1,11.45,7.84,16.37,.32,.58,.65,1.18,.7,1.84,.07,.98-.48,1.89-1.01,2.72-.74,1.15-1.54,2.36-2.78,2.93-1.22,.56-2.64,.39-3.97,.18-2.22-.36-4.42-.82-6.6-1.37-.54-.14-1.1-.29-1.55-.62-.54-.39-.88-.98-1.21-1.56-1.68-2.96-3.09-5.05-3.2-8.44-.11-3.51,.12-7.16-.71-10.6-.41-1.67-.95-3.8,.44-4.8,1.08-.78,3.17,.09,4.4,.22,2.16,.23,4.14-.02,6.17,1,.41,.21,.82,.46,1.09,.84,.27,.38,.37,.83,.4,1.3Z" style="fill:#3b455a;"/></g><path d="M609.99,457c2.67,24.94,6.75,49.7,6.28,74.99-.58,31.24,3.2,62.79,1.43,93.8,3.62,1.03,7.31,1.79,11.04,2.27,4.28,.55,11.15,1.08,13.78-3.08,1.35-2.13,1.48-6.1,1.97-8.54,1.56-7.81,2.94-15.65,4.3-23.49,3.85-22.19,8.28-44.52,9.65-67,1.44-23.65,3.09-47.33,5.04-70.85,1.01-12.16,1.55-24.35,1.52-36.55,0-3.14-.17-35.56-1.76-35.7-18.88-1.66-37.37,.1-55.53,5.51-1.76,.53-3.52,1.24-4.46,2.73-.94,1.49-.81,3.01-.68,4.6,1.21,15.23,4.21,29.97,5.74,45.22,.53,5.31,1.09,10.62,1.68,16.07Z" style="fill:#bcbec0;"/></g><path d="M588.12,256.91c-.3,.12-.6,.25-.89,.38-4.92,2.19-9,5.87-12.99,9.48-6,5.43-8.96,7.83-10.97,15.48-1.87,7.14-2.86,14.62-3.84,21.92-5.02,37.48-4.3,74.49-7.29,112.14-.81,10.25-1.21,22.26,6.7,28.82,12.76-11.14,29.5-12.69,45.68-13.62,11.37-.65,22.27-4.96,33.74-4.34,10.96,.6,20.31-2.66,31.41-2.57,2.67,.02,6.07-.2,6.98-2.71-4.47-11.25-5.1-23.58-6.65-35.58-4-31.05-16.02-60.38-21.94-91.11-2.01-10.45-3.76-27.87-12.36-35.38-9.35-8.16-29.56-7.19-40.85-4.85-2.29,.47-4.56,1.07-6.72,1.94Z" style="fill:#d34e4e;"/><path d="M598.01,261.87c.2,.34,.46,.66,.79,.96,1.33,1.17,3.13,1.78,4.88,1.93,2.31,.2,4.62-.31,6.86-.88,3.04-.76,2.83-2.55,3.11-5.36,.16-1.54,.22-3.08,.25-4.62,.02-.85-.48-3.85,.02-4.47,.34-.42,1.83-.37,2.46-.75,1-.6,1.81-1.64,2.37-2.63,.91-1.61,1.36-3.43,1.8-5.23,.76-3.13,1.52-6.25,2.29-9.38,.78-3.19,1.56-6.41,1.68-9.7,.18-4.95-1-11.86-4.93-15.25-3.58-3.09-8.59-3.96-13.16-4.29-6.05-.43-12.22,1.02-17.23,4.51-2.02,1.41-3.91,3.19-5.02,5.56-1.71,3.65-1.31,8.06-.87,12.18,.41,3.8,.81,7.61,1.22,11.41,.47,4.37,1.3,9.4,4.72,11.59,1.82,1.16,4.11,1.31,5.7,2.84,1.99,1.92,2.04,4.97,2.26,7.54,.13,1.47,.1,2.87,.79,4.04Z" style="fill:#e2bd9c;"/><path d="M624.19,228.79c-.13,.87-.24,1.77-.3,2.69-.52,7.83,.69,15.37-.88,23.23,7.06-3.44,13.39-8.88,18.31-15.74,.85-1.18,1.67-2.43,2.09-3.9,.4-1.4,.41-2.92,.4-4.42-.11-9.53-1.26-19.06-3.42-28.29-.86-3.66-1.89-7.33-3.66-10.52-5.34-9.62-16.05-12.84-25.7-12.94-5.58-.06-11.43,.77-15.95,4.53-4.87,4.07-6.19,11.09-5.96,17.09,.06,1.47,.17,3.01,.91,4.28,1.54,2.64,5.08,3.15,8.13,3.31,4.29,.21,8.62,.28,12.81,1.2,4.2,.92,8.32,2.78,11.15,6.01,3.97,4.54,2.77,8.69,2.06,13.48Z" style="fill:#3b455a;"/><path d="M574.28,192.98c-1.32,2.63-2.35,5.45-3.15,8.39-2.84,10.4-5.51,20.25-3.98,31.28,.21,1.53,.49,3.08,1.06,4.49,.77,1.9,2.02,3.46,3.3,4.94,5.09,5.91,10.79,11.08,16.94,15.35-2.59-13.29-5.14-27.53-1-40.08,3.22-9.75,9.95-16.67,17.33-21.98,4.12-2.97,15.21-8.98,12.36-15.61-3.92-9.13-25.38-3.32-31.32,.36-5.25,3.25-8.95,7.69-11.54,12.87Z" style="fill:#3b455a;"/></g><g><path d="M437.43,311.88c1.94-1.73,3.63-3.75,5.52-5.54,.96-.91,2.1-2.24,3.33-2.79,.56-.26,1.68-.26,2.17,.18,.66,.6,.29,1.16,.54,1.87-1.31,1.01-2.64,2-3.89,3.1-.08,.07-.17,.16-.19,.27-.02,.11,.04,.22,.1,.32,1.13,1.85,2.02,1.5,3.85,.54,3.23-1.68,6.47-3.36,9.7-5.04,.62-.32,1.26-.65,1.95-.72,.54-.06,1.08,.05,1.61,.15,1.48,.28,2.97,.57,4.45,.85,.36,.07,.75,.15,1.01,.41,.28,.27,.36,.69,.43,1.07,.27,1.5,.54,2.99,.8,4.49,.09,.49,.18,1.01,.02,1.49-.14,.44-.47,.79-.79,1.12-1.23,1.24-2.56,2.36-3.87,3.52-.95,.84-1.9,1.7-2.99,2.35-.79,.47-1.65,.81-2.51,1.14-10.53,4.08-21.56,6.87-32.76,8.3-.33,.04-.67,.08-.98-.04-.67-.26-.86-1.11-.94-1.82-.18-1.41-1.21-4.62-.65-5.92,.51-1.19,3.35-1.92,4.46-2.52,3.37-1.83,6.88-4.05,9.61-6.77Z" style="fill:#e2bd9c;"/><path d="M382.38,323.76c12.6-2.44,25.13-5.26,37.57-8.45,4.45-1.14,10.4-4.43,13.85-1.43,2.93,2.56,8.29,16.39,6.08,19.86-2.1,3.3-12.88,4.61-16.59,5.99-16.5,6.15-33.09,12.03-49.79,17.63-2.11,.71-4.26,1.42-6.48,1.42-2.93,.01-5.73-1.19-8.29-2.61-11.26-6.22-20.08-21.74-25.81-32.98-8.8-17.24-7.46-33.64,7.62-46.34,4.34-3.66,9.9-6.36,15.61-6.79,8.53-.64,9.53,3.6,12.66,10.64,6.12,13.77,10.68,28.25,13.56,43.04Z" style="fill:#b5d6ca;"/></g><g><g><path d="M317.31,230.71c4.31,4.31,9.19,8.04,14.48,11.07-4.93-9.49-8.55-19.66-10.73-30.13-.17-.8-.38-1.69-1.08-2.12-.65-.4-1.48-.26-2.22-.07-13.19,3.36-7.97,13.74-.46,21.25Z" style="fill:#3b455a;"/><path d="M355.39,243.93c.79-.91,1.48-1.87,2.06-2.83,7.96-13.28,7.6-63.08-28-56.53-32.32,5.95-11.47,44.1,2.12,57.57,2.58,2.55,5.83,5.13,9.67,6.25,1.03,.3,.72,10.31,1.63,11.82,1.82,3.02,6.13,3.91,9.21,2.5,2.67-1.22,5.26-4.91,5.85-7.7,.43-2.02-3.29-10.21-2.54-11.07Z" style="fill:#e2bd9c;"/><g><path d="M355.77,229.55c3.25,1.73,7.07-1.07,9.28-4.02,9.07-12.11,8.89-30.3-.41-42.24-7.78-9.99-25.93-11.34-21.91,3.83,1.43,5.38,7.77,10.66,9.79,16.41,2.88,8.22,2.96,17.41,3.24,26.02Z" style="fill:#3b455a;"/><path d="M294.18,185.22c-9.83,15.04-7.09,35.26-14.77,51.5,14.19-.8,27.94-7.65,37.14-18.48,9.02-10.63,34.69-27.75,22.76-41.73-12.15-14.23-36.52-4.47-45.13,8.71Z" style="fill:#3b455a;"/></g></g><g><path d="M365.1,653.42l-2.72,3.15-1.24,3.43,7.54,12.16,7.37,3.08,8.37-.48s3.62-1.21,1.55-4.13c-2.06-2.92-7.75-4.52-7.75-4.52l1.11-9.61-14.24-3.07Z" style="fill:#12243a;"/><polygon points="333.95 652.88 332.71 658.81 326.57 668.78 329.1 672.08 338.91 671.53 345.12 663.23 345.6 646.53 334.35 647.28 333.95 652.88" style="fill:#12243a;"/><g><polygon points="319.21 418.13 313.37 450.11 329.84 654.44 347.07 650.83 375.66 424.97 319.21 418.13" style="fill:#3b455a;"/><polygon points="409.34 413.93 412.67 545.64 379.21 659.33 359.72 652.08 376.14 550.69 361.06 412.81 409.34 413.93" style="fill:#3b455a;"/></g></g><path d="M309.27,281.48c-3.12,6.79-3.7,14.3-4.73,22.49-1.79,14.19-2.67,28.45-2.87,42.71-.23,16.58,.47,33.14,1.77,49.66,.65,8.26,1.46,16.5,2.38,24.74,.48,4.26-1.4,15.22,3.21,17.46,2.56,1.25,5.67,.97,8.57,.67,25.58-2.69,51.17-5.37,76.75-8.06,4.1-.43,8.35-.91,11.9-2.87,6.36-3.53,5.26-10.45,6.26-16.29,1.33-7.73,1.63-15.58,1.47-23.38-.32-16.05-2.79-31.93-3.94-47.92-1.24-17.19-4-40.24-10.52-56.58-2.93-6.9-7.06-13.31-12.71-18.58-7.05-6.58-13.53-8.24-23.02-9.96-.4-.07-.81-.15-1.12-.4-.33-.26-.47-.68-.6-1.06-.61-1.85-1.21-3.7-1.82-5.55-.23-.7-.51-1.46-1.2-1.81-.66-.34-1.48-.18-2.21-.01-6.36,1.45-12.71,2.89-19.07,4.34,.35,1.45,.7,2.94,.48,4.42s-1.14,2.97-2.64,3.5c-6.5,2.31-13.3,7.43-18.55,12.09-3.67,3.25-6.11,6.72-7.8,10.4Z" style="fill:#ebb044;"/></g><g><rect x="372.92" y="293.14" width="247.02" height="333.92" transform="translate(9.29 -9.83) rotate(1.14)" style="fill:#474ebb;"/><rect x="366.71" y="285.71" width="247.02" height="333.92" transform="translate(9.14 -9.7) rotate(1.14)" style="fill:#bcbec0;"/><rect x="360.3" y="283.32" width="247.02" height="333.92" style="fill:#f2f2f2;"/><g><path d="M436.15,347.01h-10.34l-17.29-26.23v26.23h-10.34v-42.74h10.34l17.29,26.48v-26.48h10.34v42.74Z" style="fill:#474ebb;"/><path d="M453.62,312.5v8.95h14.45v7.8h-14.45v9.49h16.26v8.28h-26.6v-42.74h26.6v8.22h-16.26Z" style="fill:#474ebb;"/><path d="M533.83,304.28l-10.22,42.74h-12.81l-6.83-28.59-6.89,28.59h-12.81l-10.22-42.74h11.24l5.5,30.95,7.5-30.95h11.3l7.5,30.95,5.56-30.95h11.18Z" style="fill:#474ebb;"/><path d="M568.26,341.21c-1.15,1.89-2.84,3.41-5.08,4.53-2.24,1.13-4.95,1.69-8.13,1.69-4.8,0-8.74-1.17-11.85-3.51-3.1-2.34-4.8-5.6-5.08-9.79h11c.16,1.61,.73,2.88,1.72,3.81,.99,.93,2.25,1.39,3.78,1.39,1.33,0,2.38-.36,3.14-1.09,.77-.73,1.15-1.69,1.15-2.9,0-1.09-.35-1.99-1.06-2.72-.71-.73-1.58-1.32-2.63-1.78-1.05-.46-2.5-1.02-4.35-1.66-2.7-.93-4.91-1.82-6.62-2.69-1.71-.87-3.18-2.16-4.41-3.87-1.23-1.71-1.84-3.94-1.84-6.68,0-2.54,.64-4.73,1.93-6.59,1.29-1.85,3.07-3.27,5.35-4.26,2.28-.99,4.89-1.48,7.83-1.48,4.75,0,8.53,1.13,11.33,3.38,2.8,2.26,4.38,5.36,4.75,9.31h-11.18c-.2-1.41-.72-2.53-1.54-3.35-.83-.83-1.94-1.24-3.35-1.24-1.21,0-2.19,.32-2.93,.97-.75,.64-1.12,1.59-1.12,2.84,0,1.01,.33,1.86,1,2.57,.66,.71,1.5,1.28,2.51,1.72,1.01,.44,2.46,1.01,4.35,1.69,2.74,.93,4.98,1.84,6.71,2.75,1.73,.91,3.22,2.23,4.47,3.96,1.25,1.73,1.87,3.99,1.87,6.77,0,2.26-.57,4.33-1.72,6.23Z" style="fill:#474ebb;"/></g><g style="opacity:.1;"><rect x="376.24" y="363.66" width="215.15" height="41.06" style="fill:#000100;"/></g><g style="opacity:.1;"><rect x="376.24" y="432.12" width="101.01" height="72.2" style="fill:#000100;"/></g><g style="opacity:.1;"><rect x="490.22" y="520.82" width="101.01" height="72.2" style="fill:#000100;"/></g><g style="opacity:.1;"><rect x="490.22" y="429" width="100.36" height="6.25" style="fill:#000100;"/></g><g style="opacity:.1;"><rect x="490.22" y="442.86" width="100.36" height="6.25" style="fill:#000100;"/></g><g style="opacity:.1;"><rect x="490.22" y="456.71" width="100.36" height="6.25" style="fill:#000100;"/></g><g style="opacity:.1;"><rect x="490.22" y="470.57" width="100.36" height="6.25" style="fill:#000100;"/></g><g style="opacity:.1;"><rect x="490.22" y="483.22" width="100.36" height="6.25" style="fill:#000100;"/></g><g style="opacity:.1;"><rect x="490.22" y="497.08" width="100.36" height="6.25" style="fill:#000100;"/></g><g style="opacity:.1;"><rect x="376.57" y="517.69" width="100.36" height="6.25" style="fill:#000100;"/></g><g style="opacity:.1;"><rect x="376.57" y="531.55" width="100.36" height="6.25" style="fill:#000100;"/></g><g style="opacity:.1;"><rect x="376.57" y="545.41" width="100.36" height="6.25" style="fill:#000100;"/></g><g style="opacity:.1;"><rect x="376.57" y="559.26" width="100.36" height="6.25" style="fill:#000100;"/></g><g style="opacity:.1;"><rect x="376.57" y="571.92" width="100.36" height="6.25" style="fill:#000100;"/></g><g style="opacity:.1;"><rect x="376.57" y="585.77" width="100.36" height="6.25" style="fill:#000100;"/></g></g><g><path d="M388.59,368.46c1.25-.87,3.12-3.63,4.94-3.33,.54,.09,1.57,1.15,1.87,1.59,.83,1.18,.47,.66,.14,1.98-.3,1.2-.6,2.47,.12,3.61,2.87,4.53,9.56-4.81,13.15-4.83,8.82-.04-1.21,13.11-3.08,15.5-.93,1.19-1.98,2.38-3.38,2.94-.9,.35-1.89,.42-2.86,.48-3.54,.21-7.07,.43-10.61,.64-8.04,.49-30.51,4.31-22.97-10.38,.23-.46,.54-.93,1.04-1.07,.31-.09,.63-.03,.95,.03,1.88,.36,4.09,1.27,5.99,1.2,2.28-.08,5.08-1.25,7.13-2.19,3.4-1.56,4.56-4.05,7.57-6.15Z" style="fill:#e2bd9c;"/><path d="M298.02,367.28c.82,4.16,3.66,6.9,7.5,10.15,9.64,8.15,17.73,13.9,30.82,14.79,15.15,1.04,30.41,.47,45.44-1.68-.42,.06-3.61-14.53-4.16-15.87-1.73-4.2-1.73-4.71-6.02-6.32-9.3-3.48-23.39-2.3-33.26-2.73,2.78-22.53,5.56-45.06,8.34-67.59,.92-7.48,.93-16.86-5.73-20.41-3.57-1.9-8.05-1.29-11.64,.58-7.25,3.77-11.19,11.7-14.29,19.26-8.52,20.78-14.28,42.68-17.1,64.96-.23,1.83-.19,3.42,.1,4.84Z" style="fill:#ebb044;"/></g><g><polygon points="234.27 275.71 238.01 268.02 235.51 260.87 236.73 259.57 238.37 261.03 237.97 254.5 241.04 250.22 247.99 250.29 253.62 254.85 252.83 261.85 247.92 268.58 243.24 279.34 234.27 275.71" style="fill:#ad7b59;"/><path d="M230.69,271.28c-9.26,20.82-44.36,66.67-29.98,90.24,12,19.66,34.33,4.29,37.71-12.35,4.87-23.95,6.88-49.39,11.77-73.74l-19.5-4.14Z" style="fill:#474ebb;"/></g><g><g><polygon points="193.04 662.98 192.93 670.18 211.25 679.69 220.62 670.6 211.53 661.23 210.34 661.22 210.01 663.24 193.04 662.98" style="fill:#3b455a;"/><polygon points="147.63 660.26 146.35 660.24 136.98 669.33 146.07 678.7 164.67 669.75 164.78 662.55 147.81 662.29 147.63 660.26" style="fill:#3b455a;"/><g><path d="M152.01,389.18c2.62-12.25,4.69-23.57,4.96-29.72,.8-18.5,4.06-79.58,4.06-79.58l11.65-23.2,2.08,.05c-.15-.02-.3-.04-.45-.06,.49,.07-.17-4.52-.34-4.93-9.82-.48-22.55,4.86-28.87,12.49-4.67,5.64-7.5,12.58-10.26,19.4-7.77,19.2-11.43,37.04-15.47,57.29-2.58,12.91-4.97,25.77-6.89,38.59-2.13,14.21-3.7,28.38-4.3,42.49-.07,1.56-.44,5.92-.7,11.13-.53,10.91-.52,25.52,3.99,26.13,.84,.12,1.67-.25,2.42-.61,5.86-2.78,10.5-6.46,15.67-9.66l1.14-56.94,21.3-2.86Z" style="fill:#474ebb;"/><path d="M255,449.28c-.97-12.14-1.99-24.27-3.27-36.37-2.56-24.15-6.17-48.25-12.55-71.69-2.44-8.95-5.27-17.79-8.1-26.62-3.45-10.75-6.9-21.51-10.35-32.26-4.29-13.37-11.72-22.85-24.92-27.7-2.36-.87-4.84-1.55-7.41-2.05-.07,.27-.13,.55-.17,.84-.17,1.27-.55,2.69-1.36,3.6l8.71,.22s23.24,87.7,23.92,102.76c.26,5.73,1.21,18.23,2.28,31.41l13.31,2.2-.19,50.33c.74,.23,1.48,.45,2.22,.66,4.22,1.21,7.61,4.4,11.09,6.91,5.14,3.71,7.4,5.19,6.8-2.25Z" style="fill:#474ebb;"/><path d="M221.77,391.42c1.69,20.85,3.68,43.38,3.68,43.38,0,0-10.79,.09-26.42,1.04,1.15,0,2.31-.02,3.46-.02,10.86,.07,22.04,4.93,32.39,8.13l.19-50.33-13.31-2.2Z" style="fill:#3ababa;"/><path d="M148.16,441.41c-7.45,.28-8.35-1.13-8.35-1.13,0,0,7.13-27.32,12.21-51.1l-21.3,2.86-1.14,56.94c1.82-1.12,3.71-2.19,5.74-3.14,4.07-1.89,8.4-3.32,12.85-4.43Z" style="fill:#474ebb;"/><path d="M234.89,443.96c-10.35-3.2-21.53-8.06-32.39-8.13-1.15,0-2.31,0-3.46,.02-.97,.06-1.95,.12-2.95,.19-7.28,.47-15.47,1.13-24.01,2.04-.42,.04-.84,.09-1.26,.13-10.95,2.21-18.05,3.03-22.65,3.2-4.44,1.11-8.78,2.54-12.85,4.43-2.03,.95-3.92,2.01-5.74,3.14l-.24,11.86,17.74,201.72,17.06,.26-.03,2.05h.1l20.81-134.81,.09-.76,8.21,136.01h.1l.03-2.05,17.14,.26,24.05-150.95,.26-68.61Z" style="fill:#3b455a;"/><path d="M221.77,391.42c-1.07-13.18-2.02-25.68-2.28-31.41-.67-15.06-23.92-102.77-23.92-102.77l-8.71-.22c-.1,.11-.2,.22-.31,.31-.27,.23-.59,.42-.95,.53-.71,.23-1.49,.13-2.23,.03-2.87-.39-5.75-.78-8.62-1.17l-2.08-.05-11.65,23.2s-3.26,61.08-4.06,79.58c-.27,6.15-2.34,17.47-4.96,29.72-5.08,23.78-12.21,51.1-12.21,51.1,0,0,.9,1.42,8.35,1.13,4.6-.17,11.7-.99,22.65-3.2,.42-.05,.84-.09,1.26-.13,8.55-.91,16.73-1.56,24.01-2.04,1-.07,1.99-.13,2.95-.19,15.62-.95,26.41-1.04,26.41-1.04,0,0-1.99-22.53-3.68-43.38Z" style="fill:#fff;"/></g></g><g><path d="M204.41,197.86c2.29,4.79,3.18,10.19,3.06,15.52-.03,1.42-.04,3.05,1.02,3.96,1.14,.97-.04,2.86,.95,1.73,.99-1.13,4.37-5.07,4.61-6.57,.56-3.51,.79-7.07,.69-10.62-.09-3.09-.5-6.34-2.32-8.81-1.08-1.47-2.58-2.55-4.05-3.6-2.14-1.52-4.35-3.06-6.88-3.72-4.36-1.14-7.18,.29-3.49,3.69,2.64,2.43,4.84,5.13,6.4,8.41Z" style="fill:#3b455a;"/><path d="M172.99,256.27c6.04,.99,12.08,1.98,18.12,2.97,1.28-5.28,2.18-10.66,2.69-16.09,5.35-.57,11.69-1.88,13.87-7.4,.69-1.74,.83-3.67,.97-5.56,.57-7.81,1.14-15.61,1.71-23.42,.2-2.7,.39-5.48-.36-8.05-1.31-4.51-5.19-7.4-9.06-9.32-9.87-4.9-21.71-5.53-31.48-.18-2.6,1.43-5.09,3.32-6.71,6-2.5,4.14-2.57,9.46-2.55,14.43,.02,4.59,.03,9.18,.05,13.77,.02,5.28,.4,11.38,4.23,14.43,2.03,1.62,4.77,2.07,6.48,4.11,3.02,3.58,1.14,9.47,2.03,14.3Z" style="fill:#ad7b59;"/><path d="M210.71,227.21c0-1.45-.33-5.74-2.65-3.22-.61,.66-.81,1.64-.9,2.56-.1,.93-.12,1.89-.46,2.74-.79,1.96-3.04,2.73-4.98,2.56-.77-.07-1.55-.25-2.21-.69-.64-.43-1.13-1.08-1.6-1.71-1.15-1.54-2.31-3.08-3.46-4.63-1.98-2.65-6.31-1.86-9.23-1.67-3.36,.22-6.76,1.01-9.64,3.06-.29,.21-.57,.43-.86,.64-.69,.53-1.39,1.06-2.18,1.38-2.66,1.1-5.76-.45-7.41-2.95-.76-1.15-1.43-2.61-2.71-2.88-1-.21-2.02,.46-2.6,1.38-.58,.92-.79,2.05-.94,3.16-.52,4.02-.25,8.21,1.24,11.91,3.22,8.01,10.36,9.45,17.62,9.77,2.87,.12,5.74,.25,8.61,.37,5.24,.23,10.79,.38,15.41-2.41,4.07-2.47,6.69-6.95,7.96-11.75,.65-2.48,.97-5.06,.99-7.63Zm-19.88,9.7c-2.88,1.7-5.93,1.59-8.94,.45-1.28-.49-.58-2.68,.7-2.19,2.5,.95,4.9,1.09,7.3-.32,1.21-.71,2.14,1.36,.94,2.07Z" style="fill:#3b455a;"/><path d="M214.59,184.96c.63-1.86,1.13-3.76,1.5-5.69-1.81,.51-3.75,.55-5.59,.11,.07-1.12,.14-2.25,.21-3.37,.05-.93-12.33-2.43-13.33-2.58-9.4-1.43-18-2.76-26.88,1.82-7.59,3.91-12.71,10.18-14.39,18.67-1.61,8.11,.32,18.98,4.52,26.09,.12-2.18-.78-7.4-.14-9.44,.45-2.05,1.28-4.01,2.38-5.79,2.18-3.56,5.4-6.46,9.02-8.44,5.77-3.16,12.34-4.59,18.83-5.06,5.95-.44,13.18-.72,18.9,1.26,2.75,.95,3.17,1.7,5.05-1.06,.33-.49,3.09-6.24,2.86-6.26-.98-.08-1.96-.16-2.94-.24Z" style="fill:#3b455a;"/></g></g><g><g><g><path d="M147.82,357.41h194.96c2.69,0,4.87,2.18,4.87,4.87v131.79H142.95v-131.79c0-2.69,2.18-4.87,4.87-4.87Z" style="fill:#3b455a;"/><rect x="151.12" y="366.88" width="188.43" height="119.65" style="fill:#fff;"/></g><g><g><path d="M347.64,511.73l-204.7-.61c-4.98-.01-9.6-2.62-12.18-6.88h0l229.1,.68h0c-2.61,4.25-7.24,6.83-12.22,6.81Z" style="fill:#babcbc;"/><rect x="130.46" y="493.74" width="229.7" height="12.32" rx="1.77" ry="1.77" style="fill:#c6cac9;"/></g><g style="opacity:.14;"><rect x="226.36" y="497.36" width="37.89" height="4.36" rx="1.99" ry="1.99" style="fill:#000100;"/></g></g></g><polygon points="231.22 393.77 231.22 444.04 268.09 418.47 231.22 393.77" style="fill:#474ebb;"/><g><g style="opacity:.69;"><rect x="158.75" y="470.91" width="173.11" height="5.37" style="fill:#8ec3cb;"/></g><rect x="158.75" y="470.91" width="2.6" height="5.37" style="fill:#b5d6ca;"/><rect x="161.36" y="470.91" width="41.16" height="5.37" style="fill:#ebb044;"/></g></g><path d="M573.84,82.24c-4.89-11.55-11.88-21.92-20.78-30.83-8.91-8.91-19.28-15.9-30.83-20.78-11.96-5.06-24.66-7.62-37.76-7.62s-25.79,2.57-37.76,7.62c-11.55,4.89-21.92,11.88-30.83,20.78-8.91,8.91-15.9,19.28-20.78,30.83-5.06,11.96-7.62,24.66-7.62,37.75s2.57,25.79,7.62,37.76c4.89,11.55,11.88,21.92,20.78,30.83,8.91,8.91,19.28,15.9,30.83,20.79,11.96,5.06,24.66,7.62,37.76,7.62s25.79-2.57,37.76-7.62c11.55-4.89,21.92-11.88,30.83-20.79,8.91-8.91,15.9-19.28,20.78-30.83,5.06-11.96,7.62-24.66,7.62-37.76s-2.57-25.79-7.62-37.75Zm-136.51,34.76c0-7.59,.87-15.03,2.58-22.24h39.68v46.13h-39.37c-1.92-7.85-2.89-15.84-2.89-23.9Zm71.5-63.77c7.01,8.19,12.58,17.11,16.58,26.52,.74,1.73,1.41,3.49,2.04,5.26h-38.09V35.25c4.57,3.28,12.02,9.27,19.48,17.99Zm-29.24-17.03v48.8h-36.8c.6-1.7,1.25-3.39,1.96-5.06,3.96-9.37,9.48-18.27,16.43-26.45,6.84-8.04,13.74-13.82,18.41-17.3Zm0,114.46v52.37c-4.64-4.03-11.34-10.46-18.04-19.09-7.05-9.08-12.67-18.73-16.69-28.67-.62-1.53-1.2-3.07-1.74-4.61h36.47Zm9.76,53.47v-53.47h37.76c-.52,1.48-1.08,2.96-1.67,4.43-3.99,9.91-9.56,19.54-16.57,28.6-7.38,9.55-14.84,16.49-19.53,20.44Zm0-63.23v-46.13h40.98c1.71,7.21,2.58,14.64,2.58,22.24,0,8.05-.97,16.05-2.89,23.9h-40.66Zm50.98-46.13h27.68c2.43,8.08,3.69,16.56,3.69,25.23,0,7.14-.86,14.15-2.52,20.91h-29.15c1.75-7.86,2.63-15.85,2.63-23.9,0-7.57-.79-15-2.33-22.24Zm5.82-36.45c7.82,7.82,13.94,16.86,18.25,26.69h-26.66c-.98-3.07-2.09-6.09-3.36-9.07-4.38-10.32-10.49-20.09-18.14-29.04-3.95-4.62-7.89-8.53-11.49-11.75,15.55,3.69,29.82,11.59,41.4,23.17Zm-123.36,0c12.01-12.01,26.9-20.06,43.12-23.56-3.71,3.29-7.81,7.33-11.92,12.13-7.65,8.95-13.76,18.72-18.14,29.04-1.26,2.98-2.38,6-3.36,9.07h-27.95c4.31-9.83,10.43-18.88,18.25-26.69Zm-21.86,36.45h28.97c-1.55,7.24-2.33,14.67-2.33,22.24,0,8.05,.88,16.04,2.63,23.9h-30.44c-1.66-6.76-2.52-13.77-2.52-20.91,0-8.67,1.26-17.15,3.69-25.23Zm21.86,86.91c-8.95-8.95-15.69-19.51-20.01-31.01h30.05c.88,2.78,1.87,5.54,2.98,8.27,4.36,10.78,10.42,21.21,18.03,31,4.96,6.39,9.91,11.65,14.16,15.74-17.03-3.24-32.69-11.47-45.21-23.99Zm123.36,0c-12.12,12.12-27.18,20.22-43.58,23.66,4.17-4.04,8.98-9.19,13.81-15.4,7.61-9.79,13.67-20.22,18.03-31,1.11-2.73,2.09-5.49,2.98-8.27h28.76c-4.31,11.51-11.06,22.07-20.01,31.01Z" style="fill:#8ec3cb;"/><g><g><polygon points="738.15 190.88 751.62 211.74 746.94 179.81 637.59 130.16 738.15 190.88" style="fill:#3540a0;"/><polygon points="751.62 211.74 738.51 191.17 637.86 130.45 751.62 211.74" style="fill:#273589;"/><polygon points="637.86 130.45 638.89 130.93 738.46 191.04 738.57 191.09 714.07 223.22 637.86 130.45" style="fill:#474ebb;"/><polygon points="637.59 130.16 768.01 152.48 747.1 179.9 638.89 130.93 637.59 130.16" style="fill:#474ebb;"/></g><path d="M637.59,135.13h0v0Zm0-4.95v-.03h0v.03Z" style="fill:#a4a6a9;"/></g><g><path d="M603.37,328.1c-.97-.73-2.37-2.98-3.83-2.8-.44,.05-1.29,.87-1.54,1.21-.69,.92-.4,.51-.17,1.57,.28,1.3,.11,3.25-1.8,2.99-.89-.12-1.62-.73-2.38-1.2-.76-.47-1.75-.81-2.54-.38-.31,.17-.55,.45-.77,.74-1.31,1.69-2.15,3.84-1.92,5.97,.75,6.91,9.19,6.17,14.15,6.67,6.38,.63,24.14,4.37,18.6-7.55-.17-.37-.4-.76-.79-.89-.24-.08-.5-.04-.75,0-1.51,.23-3.29,.88-4.8,.77-1.81-.14-4-1.15-5.6-1.97-2.66-1.35-3.51-3.36-5.83-5.13Z" style="fill:#e2bd9c;"/><path d="M651.67,276.38c4,8.2,5.09,17.49,5.84,26.58,1.47,17.96,1.81,36.02,1.01,54.02-16.6-.62-33.13-2.74-49.35-6.32-1.54-9.68-2.25-19.49-2.12-29.29,7.48-.04,14.96,.48,22.36,1.55-1.96-7.79-3.92-15.59-5.88-23.38-1.74-6.93-3.5-14.07-2.47-21.14,3.21-21.98,22.48-18.7,30.62-2.02Z" style="fill:#d34e4e;"/></g><g><polygon points="206.31 363.95 214 367.57 220.95 364.85 222.27 366.06 220.89 367.76 227.3 367.19 231.62 370.2 231.78 377.27 227.49 383.09 220.57 382.47 213.79 377.64 203.05 373.15 206.31 363.95" style="fill:#ad7b59;"/><polygon points="212.14 362.47 170.92 341.11 153.02 267.95 130.64 302.31 135.16 350.83 145.73 367.33 210.71 380.07 212.14 362.47" style="fill:#474ebb;"/></g><g><g><g><path d="M816.5,542.63l-156.63-.56c-1.49,0-2.69-1.22-2.68-2.7l.76-213.05c0-1.49,1.22-2.69,2.7-2.68l156.63,.56c1.49,0,2.69,1.22,2.68,2.7l-.76,213.05c0,1.49-1.22,2.69-2.7,2.68Z" style="fill:#3b455a;"/><rect x="666.1" y="333.45" width="144.98" height="189.09" transform="translate(1.54 -2.64) rotate(.21)" style="fill:#f2f2f2;"/><path d="M743.23,532.34c-.01,2.92-2.26,5.28-5.03,5.27-2.77,0-5-2.38-4.99-5.3,.01-2.92,2.26-5.28,5.03-5.27,2.77,0,5,2.39,4.99,5.3Z" style="fill:#fff;"/></g><g><rect x="695.51" y="424.16" width="37.59" height="37.59" style="fill:#7fc5a3;"/><rect x="674.61" y="467.41" width="58.48" height="17.09" style="fill:#e6e6e6;"/><rect x="674.61" y="489" width="58.48" height="17.09" style="fill:#e6e6e6;"/></g><g><rect x="743.74" y="423.58" width="58.48" height="17.09" style="fill:#e6e6e6;"/><rect x="744.01" y="445.98" width="58.48" height="17.09" style="fill:#e6e6e6;"/><rect x="743.74" y="467.41" width="58.48" height="17.09" style="fill:#e6e6e6;"/><rect x="744.01" y="489.59" width="58.48" height="17.09" style="fill:#e6e6e6;"/></g><rect x="674.04" y="348.03" width="129.06" height="64.99" style="fill:#ebb044;"/></g><g><path d="M714.38,390.35h-5.14l-8.6-13.04v13.04h-5.14v-21.25h5.14l8.6,13.16v-13.16h5.14v21.25Z" style="fill:#fff;"/><path d="M723.07,373.19v4.45h7.18v3.88h-7.18v4.72h8.09v4.12h-13.22v-21.25h13.22v4.09h-8.09Z" style="fill:#fff;"/><path d="M762.95,369.1l-5.08,21.25h-6.37l-3.4-14.22-3.43,14.22h-6.37l-5.08-21.25h5.59l2.74,15.39,3.73-15.39h5.62l3.73,15.39,2.77-15.39h5.56Z" style="fill:#fff;"/><path d="M780.07,387.47c-.57,.94-1.41,1.69-2.52,2.25-1.11,.56-2.46,.84-4.04,.84-2.38,0-4.35-.58-5.89-1.74-1.54-1.16-2.38-2.78-2.52-4.87h5.47c.08,.8,.37,1.43,.86,1.89,.49,.46,1.12,.69,1.88,.69,.66,0,1.18-.18,1.56-.54,.38-.36,.57-.84,.57-1.44,0-.54-.18-.99-.53-1.35-.35-.36-.79-.66-1.31-.89-.52-.23-1.24-.51-2.16-.83-1.34-.46-2.44-.91-3.29-1.34-.85-.43-1.58-1.07-2.19-1.92-.61-.85-.92-1.96-.92-3.32,0-1.26,.32-2.35,.96-3.28,.64-.92,1.53-1.63,2.66-2.12,1.13-.49,2.43-.74,3.89-.74,2.36,0,4.24,.56,5.64,1.68,1.39,1.12,2.18,2.67,2.36,4.63h-5.56c-.1-.7-.36-1.26-.77-1.67-.41-.41-.97-.62-1.67-.62-.6,0-1.09,.16-1.46,.48-.37,.32-.56,.79-.56,1.41,0,.5,.17,.93,.5,1.28,.33,.35,.75,.64,1.25,.86,.5,.22,1.22,.5,2.16,.84,1.36,.46,2.47,.92,3.34,1.37,.86,.45,1.6,1.11,2.22,1.97,.62,.86,.93,1.98,.93,3.37,0,1.12-.29,2.15-.86,3.1Z" style="fill:#fff;"/></g><rect x="674.64" y="423.58" width="17.19" height="38.17" style="fill:#e6e6e6;"/></g><g><path d="M763.75,348.39c.24-.22,.48-.45,.76-.58,2.6-1.3,4.73-.42,7.57-.95,1.27-.24,2.52-3.31,4.38-1.36,.69,.72,2.12,2.72,3.56,4.27,2.11,2.26,6.15,3.85,9.59,4.52,4.62,.9,9.54,1.75,14.21,1.94,9.81,.42,20.78-.2,30.5-1.66-1.7-16.16,6.45-32.97,20.19-41.65,1.44-.91,2.99-1.75,4.68-1.87,1.43-.1,2.85,.33,4.17,.91,13.91,6.1,7.54,19.02,2.84,29.64-2.93,6.63-6.33,13.18-10.21,19.31-5.44,8.58-13.92,10.74-23.82,11.04-10.49,.32-21.12,.45-31.48-1.48-5.03-.94-9.53-2.75-14.35-4.32-4.77-1.55-5.19,.66-9.71,.37-2.52-.16-5.12,.15-7.58-.48-4.41-1.13-6.16-5.49-8.07-9.14-.48-.91-.8-1.52-.79-2.49,0-1.57,.94-2.77,1.81-3.99,.52-.73,1.1-1.41,1.75-2.02Z" style="fill:#e2bd9c;"/><path d="M852.84,352.86c-1.9-.89-4-1.63-6.64-2.33-1.54-.41-18.65-5.39-18.53-5.65,1.98-4.13,1.47-10.13,2.58-14.7,1.33-5.45,3.34-10.73,5.97-15.69,4.34-8.17,6.77-17.63,9.85-26.37,3.89-11.02,14.69-12.05,20.85-2.12,5.26,8.48,5.67,19.66,6.54,29.31,.7,7.8,1.22,15.73-.27,23.42-1.49,7.69-5.21,15.23-11.55,19.83-3.33-2.55-5.83-4.31-8.82-5.71Z" style="fill:#fff;"/></g></g></svg>