<?xml version="1.0" encoding="UTF-8"?><svg xmlns="http://www.w3.org/2000/svg" viewBox="0 0 2113.33 1716.67"><g style="isolation:isolate;"><g id="a"><g><path d="M1107.22,1580c-73.56-27.55-123.32,137.93-306.55,59.82-162.73-69.36-522.66,72.62-706.04-418.33C-163.91,529.29,575.7-59.09,1405.97,196.46c169.48,52.16,678.51,366.07,608.57,935.48-36.12,294.09-65.71,427.81-348.06,511.39-128.34,37.99-405.02-5.58-559.26-63.33Z" style="fill:#eff9f8;"/><g><path d="M244.88,905.25c.47-24.51,11.13-35.85,3.72-57.09-2.65-7.59-7.09-14.98-4.75-17.03,3.14-2.75,15.46,6.77,19.13,9.36,31.07,21.88,91.52,3.36,104.22,.05,76.73-19.97,191.79,51.94,247.75,100.7,25.93,22.59,129.13,112.52,120.18,227.16-.33,4.25,4.85,85.27-50.31,101.7-34.98,10.42-56.44-28.42-94.12-12.36-24.71,10.53-32.83,30.04-56.5,35.82-31.49,7.68-65.19-27.21-72.93-35.74-27.93-30.78-18.03-49.1-48.04-107.06-14.06-27.14-25.86-49.93-49.72-73.55-21.91-21.69-38.74-28.98-50.09-40.25,19.39,3.17,42.4-1.45,66.75-13.7,16.64-8.37,29.94-22.83,27.84-24.61-1.76-1.5-19.59,14.03-45.42,15.99-34.96,2.66-53.32-5.69-64.52-12.8-2.28-21.61,3.74-40.67-4.38-43.97-6.61-2.68-12.32,9.22-22.13,7.72-14.73-2.25-27.22-32.9-26.69-60.34Z" style="fill:#7fcbc1;"/><path d="M610.15,1237.47c4.37,26.62,6.58,53.58,6.72,80.55,.1,13.48-.35,26.97-1.18,40.44-.42,6.74-.95,13.47-1.52,20.27-.58,6.8-1.05,13.74-1.46,20.61-1.57,27.57-1.39,55.22,.19,82.77,.56,9.46,1.31,18.9,2.2,28.33h18c-1.19-9.83-2.21-19.67-3.03-29.54-2.17-26.9-2.99-53.91-2.09-80.88,.25-6.76,.54-13.44,.96-20.25,.41-6.82,.79-13.7,1.06-20.59,.53-13.78,.66-27.6,.23-41.41-.8-27.61-3.71-55.17-8.82-82.3-5.15-27.13-12.55-53.82-22.28-79.63l-3.75-9.64-3.98-9.54c-2.69-6.29-5.44-12.57-8.29-18.83-5.71-12.5-11.87-24.81-18.54-36.84-13.34-24.05-28.74-47-46.47-68.04-17.7-21.04-37.73-40.15-59.92-56.34-11.09-8.09-22.7-15.46-34.76-21.99l-9.14-4.71c-3.05-1.56-6.18-2.96-9.27-4.44-6.26-2.79-12.54-5.5-18.95-7.91-25.56-9.81-52.33-16.29-79.42-19.59,27.01,3.92,53.54,11.01,78.72,21.35,6.31,2.54,12.5,5.38,18.64,8.29,3.03,1.55,6.1,3,9.09,4.62l8.95,4.87c11.79,6.74,23.1,14.3,33.87,22.54,21.55,16.49,40.85,35.79,57.8,56.91,16.98,21.12,31.61,44.05,44.19,68.03,6.29,11.99,12.06,24.25,17.41,36.7,2.67,6.23,5.25,12.5,7.78,18.83l3.68,9.44,3.45,9.52c8.92,25.5,15.54,51.76,19.95,78.38Z" style="fill:#42b2a3;"/><path d="M751.06,821.25c-31.54,42.98-77.39,50.11-78.11,48.66-.89-1.78,41.19-14.81,66.45-58.18-18.64-13.74-40.98-23.48-67.47-27.25-50.56-7.2-31.24-17.84-72.26-34.47-53.81-21.81-76.17-24.55-88.43-21.44-19.81,5.03-19.47-11.58-22.78-8.71-2.16,1.87-21.08,40.3,3.73,69.08,13.09,15.19,30.31,10.18,48.03,32.4,9.45,11.85,8.13,19.31,14.59,34.22,13.94,32.2,51.9,29.59,55.49,57.21,21.28,163.84,78.39,177.39,130.41,181.3,28.66,2.15,25.62-22.87,43.35-18.35,46.44,11.85,58.07-172.31-33-254.48Z" style="fill:#a7d8d1;"/><path d="M603.04,795.15c4.4,5.08,9.79,9.16,15.11,13.18,5.34,4.01,10.64,8.06,15.41,12.69,4.77,4.61,9.01,9.76,12.6,15.32,3.58,5.57,6.56,11.52,9.05,17.66,1.27,3.06,2.36,6.2,3.42,9.34,.97,3.16,1.96,6.33,3.03,9.55,1.99,6.43,4.74,12.7,8.34,18.5,3.58,5.83,8.35,10.88,13.39,15.35,5.04,4.48,10.17,8.68,14.9,13.31,2.43,2.24,4.63,4.7,6.92,7.08,2.18,2.47,4.33,4.98,6.41,7.53,1.98,2.65,4.06,5.21,5.95,7.92l5.58,8.2,5.2,8.47c1.75,2.81,3.25,5.76,4.89,8.63,12.53,23.34,21.5,48.49,28.79,74,3.56,12.8,6.67,25.72,9.45,38.71,2.76,13,5.08,26.1,7.22,39.23,4.11,26.28,7.19,52.73,9.34,79.27,2.2,26.53,3.59,53.13,4.31,79.75,.74,26.62,.89,53.26,.5,79.9-.8,50.63-3.32,101.22-7.28,151.7h15.65c2.95-50.49,4.46-101.06,4.26-151.64-.13-26.8-.81-53.6-2.08-80.38-1.26-26.78-3.18-53.53-5.92-80.21-2.69-26.68-6.32-53.28-10.99-79.71-2.42-13.2-5.02-26.37-8.07-39.45-3.07-13.07-6.46-26.07-10.32-38.95-7.88-25.67-17.47-50.99-30.7-74.52-1.73-2.9-3.32-5.87-5.16-8.7l-5.45-8.51-5.85-8.25c-1.99-2.72-4.17-5.31-6.25-7.97-2.19-2.57-4.44-5.11-6.72-7.59-2.39-2.4-4.7-4.87-7.23-7.11-4.92-4.63-10.23-8.8-15.25-13.09-5.03-4.29-9.62-8.97-13.15-14.47-3.55-5.47-6.34-11.48-8.42-17.76-1.1-3.1-2.16-6.29-3.21-9.49-1.14-3.16-2.31-6.32-3.66-9.4-2.66-6.18-5.8-12.17-9.56-17.77-3.77-5.58-8.18-10.74-13.11-15.31-4.92-4.59-10.34-8.57-15.75-12.47-5.4-3.91-10.82-7.86-15.29-12.81-2.24-2.46-4.23-5.15-5.91-8.03-1.65-2.9-2.99-5.97-4.11-9.11,1.06,3.17,2.33,6.27,3.93,9.21,1.64,2.92,3.59,5.66,5.79,8.19Z" style="fill:#42b2a3;"/><path d="M360.48,1295.78c1.97-9.57,.47-11.58-2.9-19.52-7.13-16.84-43.45-19.45-66.34-51.13-14.56-20.14-52.06-7.35-77.99-25.01-18.45-12.57,.31-22.92-43.8-41.17-67.07-27.75-63.73-68.23-61.33-69.61,3.83-2.19,4.89,9.66,10.47,14.93,26.14,24.7,164.27-47.27,299.51,16.86,58.86,27.91,103.34,71.89,122.36,132.42,13.93,44.35,2.36,69.52-14.4,67.66-19.81-2.2-3.89,8.48-13.33,27.27-39.21,78.07-159.62-16.94-152.25-52.69Z" style="fill:#a7d8d1;"/><path d="M641.61,1510.44h11.95c-9.25-16.28-18.89-32.34-28.98-48.12-27.71-43.32-58.79-84.6-93.89-122.23-35.14-37.56-74.39-71.4-117.53-99.4-43.09-28.03-90.06-50.09-139.22-64.81-6.17-1.75-12.33-3.56-18.5-5.25l-18.54-4.96c-12.34-3.36-24.63-6.9-36.72-11.04-12.08-4.15-23.98-8.89-35.35-14.75-11.35-5.84-22.16-12.91-31.43-21.76,9.13,8.99,19.86,16.25,31.15,22.29,11.31,6.05,23.17,11,35.23,15.35,12.06,4.34,24.33,8.08,36.63,11.63l18.47,5.25c6.14,1.79,12.23,3.68,18.35,5.52,48.71,15.42,95.01,38.08,137.29,66.53,42.34,28.43,80.67,62.54,114.88,100.27,34.17,37.8,64.29,79.14,91.06,122.47,8.73,14.14,17.1,28.49,25.15,43.02Z" style="fill:#42b2a3;"/><path d="M250.53,1576.22c9.55,.29,21.06-20.29,23.32-25.68,7.53-17.91,9.82-41.53,10.85-67.99,18.71-9.54,32.35-7.35,49.35-12.21,33.56-9.59,25.5-21.41,24.75-22.28-11.79-13.63-54.45-3.34-73.36,8.74,.33-14.55,.65-29.63,1.52-44.86,.2-3.56,.7-7.17,1.41-10.8,1.36-.85,2.8-1.68,4.4-2.46,44.34-21.71,64.44-9.93,95.2-11.93,47.46-3.08,40.14-21.15,39.39-22.52-12.08-22.15-74.84-20.09-102.5-8.68-4.72,1.95-14.04,5.83-23.76,12.41,41.87-74.61,164.06-137.96,203.88-43.57,9.14,21.66,25.23-.89,56.58,13.03,26.61,11.82,32.96,46.2,35.43,57.01,12.44,54.57-12.91,121.77-61.4,161.45-46.28,37.87-111.05,48.57-158.65,37.2-16.56-3.95-67.69-28.41-84.31-20.54-20.13,9.53-33.33,10.81-41.22,10.33-6.53-.4-7.66-6.86-.9-6.66Zm55.36-75.12c.4,.63,1.28,1.09,4.65,1.03,2.83-.05,20.44-.69,28.46-14.1,1.38-2.31,2.84-4.76,1.89-6.42-1.94-3.38-12.76-1.76-20.69,2.51-8.93,4.81-16.14,14.02-14.3,16.97Z" style="fill:#7fcbc1;"/><path d="M1034.58,1460.28c-7.03,.21-15.51-14.94-17.18-18.92-5.55-13.19-7.23-30.59-7.99-50.09-13.79-7.03-23.83-5.41-36.35-8.99-24.72-7.07-18.79-15.78-18.23-16.42,8.69-10.04,40.11-2.46,54.05,6.44-.24-10.72-.48-21.83-1.12-33.05-.15-2.63-.52-5.28-1.04-7.96-1-.62-2.06-1.23-3.24-1.81-32.67-16-47.47-7.32-70.14-8.79-34.97-2.27-29.57-15.58-29.02-16.59,8.9-16.32,55.14-14.8,75.51-6.39,3.48,1.44,10.35,4.29,17.51,9.14-30.85-54.97-120.87-101.64-150.21-32.1-6.73,15.96-18.59-.66-41.69,9.6-19.6,8.71-24.28,34.03-26.1,42-9.17,40.21,9.51,89.71,45.23,118.95,34.1,27.9,81.82,35.78,116.88,27.41,12.2-2.91,49.87-20.93,62.11-15.13,14.83,7.02,24.56,7.96,30.37,7.61,4.81-.29,5.64-5.06,.66-4.91Zm-40.78-55.34c-.29,.47-.94,.8-3.42,.76-2.08-.04-15.06-.5-20.97-10.39-1.02-1.7-2.1-3.5-1.39-4.73,1.43-2.49,9.4-1.3,15.24,1.85,6.58,3.54,11.89,10.33,10.54,12.51Z" style="fill:#a7d8d1;"/><path d="M545.68,1211.68c16.95-41.85,51.17-71.02,86.6-82.18,9.31-2.93,25.33-7.74,37.29,.1,18.74,12.28,13.35,46.34,20.8,47.34,9.31,1.25,12.07-49.66,41.08-62.29,21.45-9.35,51.52,.26,68.16,16.75,42.27,41.88,32.84,122.93,9.56,173.72-13.62,29.72-54.57,98.38-106.68,110.68-10.43,2.46-47.07,8.75-56.47,32.59-2.02,5.12-1.77,8.49-4.57,9.99-12.03,6.44-53.06-35.9-76.19-78.4-10.47-19.25-50.3-92.45-19.58-168.29Zm32.4-.04c1.07,1.04,18.97-11.7,54.74-37.22,5.63-4.02,11.52-8.28,10.62-10.57-1.29-3.27-16.14-1.72-27.33,2.72-26.56,10.53-42.08,41.11-38.03,45.07Z" style="fill:#a7d8d1;"/></g><g><path d="M1940,1240.35c-5.74,2.47-17.68-7.28-20.35-10.02-8.88-9.09-15.94-22.9-22.93-38.76-13.67-1.31-21.44,3.3-32.95,4.42-22.72,2.22-20.65-6.9-20.41-7.61,3.9-11.13,32.32-15.11,46.73-12.3-3.69-8.78-7.51-17.87-11.7-26.92-.98-2.12-2.15-4.19-3.45-6.23-1.03-.19-2.1-.35-3.27-.44-32.19-2.56-41.59,9.43-60.78,15.6-29.61,9.52-29.5-3.23-29.37-4.24,2.03-16.37,40.7-30.19,60.27-29.89,3.34,.05,9.94,.17,17.44,1.84-43.38-35.33-132.93-44.53-134.49,22.45-.36,15.37-15.56,5.51-31.29,21.51-13.35,13.58-8.96,36.02-7.86,43.19,5.53,36.19,37.09,70.98,76.12,83.47,37.25,11.93,79.22,2.88,105.45-15.46,9.12-6.38,34.36-33.54,46.36-32.74,14.54,.96,22.87-1.43,27.55-3.61,3.88-1.81,3.01-6.01-1.05-4.27Zm-51.71-32.4c-.09,.48-.52,.97-2.58,1.74-1.73,.65-12.6,4.49-20.7-1.74-1.4-1.08-2.87-2.21-2.69-3.45,.37-2.52,7.34-4.13,13.19-3.44,6.58,.78,13.19,4.65,12.78,6.89Z" style="fill:#bce2dc;"/><path d="M1020.58,1279.91c9.37,5.21,31.44-9.38,36.48-13.59,16.73-13.98,31.18-36.35,45.84-62.2,23.57,.13,36.04,9.34,55.49,13.25,38.4,7.72,36.45-8.22,36.15-9.47-4.73-19.67-52.57-31.37-77.65-29.07,7.82-14.34,15.91-29.21,24.62-43.94,2.04-3.45,4.39-6.79,6.97-10.04,1.79-.14,3.65-.23,5.66-.19,55.39,1.19,69.37,23.29,101.06,37.14,48.91,21.38,50.92-.41,50.88-2.17-.64-28.31-64.27-58.58-97.73-61.44-5.71-.49-17-1.42-30.09,.14,80.17-52.82,234.64-53.05,225.73,61.57-2.04,26.3,25.62,12.1,49.71,42.13,20.44,25.49,9.07,63.04,5.96,75.09-15.7,60.82-75.59,114.76-144.37,129.35-65.65,13.93-135.74-8.77-177.35-44.62-14.47-12.47-52.86-63.19-73.48-63.91-24.98-.87-38.8-6.39-46.42-10.93-6.3-3.76-4.1-10.79,2.53-7.1Zm93.89-46.38c.07,.83,.71,1.75,4.1,3.42,2.84,1.41,20.73,9.84,35.64,.6,2.57-1.59,5.29-3.28,5.19-5.43-.19-4.37-11.81-8.33-21.93-8.15-11.38,.2-23.32,5.67-23,9.56Z" style="fill:#bce2dc;"/><path d="M1437.62,653.66c5.48,6.08-1.6,25.02-3.87,29.49-7.54,14.85-21.73,29.44-38.47,44.79,4.13,17.53,13.12,25.24,19.37,39.05,12.33,27.27,.12,28.55-.86,28.54-15.45-.16-32.36-33.77-34.95-52.84-9.34,8.28-19.02,16.85-28.5,25.86-2.22,2.11-4.3,4.43-6.28,6.91,.2,1.36,.45,2.76,.83,4.24,10.37,41.04,29.22,47.66,44.97,68.89,24.29,32.76,8.41,37.98,7.1,38.26-21.19,4.37-54.63-37.83-62.49-62.25-1.34-4.17-3.97-12.42-5.05-22.43-25.6,68.75,.68,183.8,84.51,157.54,19.24-6.03,13.4,17,39.89,29.8,22.48,10.86,48.49-4.04,56.93-8.42,42.6-22.11,72.51-75.94,71.59-129.66-.87-51.27-29.78-99.58-63.6-124.42-11.76-8.64-56.11-28.54-60.17-43.77-4.93-18.46-11.41-27.8-16.09-32.69-3.88-4.05-8.74-1.2-4.85,3.1Z" style="fill:#a7d8d1;"/><path d="M1495.69,1081.7c-12.33-9.62-29.95,10.63-55.18,.12-24.35-10.14-47.36-43.32-39.33-66.88,13.7-40.21,7.5-77.52,18.38-101.66,17.53-38.9,61.96-67.09,172.25-101.47,12.13-3.78,22.98-7.15,32.76-10.06-5.43,7.78-10.62,16.56-15,26.29-2.45,5.44-12.23,28.05-10.03,56.67,.76,9.92,2.26,29.39,14.32,34.84,.93,.42,5.29,1.43,10.07-.77,9.05-4.17,9.33-20.1,9.37-47.94,.06-45.34,2.23-63.25,5.13-73.08,27.65-7.65,45.89-10.43,61.6-6.69,23.14,5.51,54.95,19.51,71.85,6.44,9.76-7.55,5.28-18.55,9.59-18.5,8.87,.11,9.12,50.49,23.12,106.47,21.55,86.14,19.39,79.47,18.41,102.57-.17,4.01-.49,7.94-.95,11.81-89.97,44.31-150.34,22.3-171.79,27.22-3.87,.89-18.13,4.16-18.56,9.85-.63,8.16,27.54,16.52,33.57,18.31,36.51,10.83,103.06,17.23,144.55-9.89-14.78,34.91-39.53,63.87-62.3,90.48-38.22,44.67-73.2,85.56-129.62,91.79-34.26,3.78-80.33-9.06-103-34.73-33.09-37.47,10.55-87.94-19.21-111.16Z" style="fill:#7fcbc1;"/><path d="M1508.16,1508.56c9.5-68.11,40.36-116.63,42.12-127.94,.13-.86,1.29-8.86-2.66-11.35-3.92-2.48-11.06,1.38-13.42,3.71-54.94,54.07-27.17,141.78-41.1,190.22-.9-1.24-1.84-2.52-2.85-3.86-19.88-26.24-89.06-102.94-79.96-202.49,1.24-13.6,8.51-52.8,36.8-67.46,37.43-19.4,58.63-16.74,103.2,1.82,18.39,7.66,.7-33.19,15.75-67.34,1.43-3.25,19.38-42.43,59.61-57.36,63.92-23.72,126.16,35.27,128.74,37.79,16.12,15.73,24.73,32.23,36.51,54.79,9.91,18.98,21.65,41.94,25.98,73.11,4.24,30.56-4.35,27.85,.91,56.03,5.45,29.21,16.99,44.42,9.79,66.78-.86,2.68-1.77,4.78-2.54,6.72-12.37-11.03-28.78-22.63-46.89-30.36-7.83-3.34-29.34-12.53-36.41-4.75-2.32,2.55-2.71,6.52-2.01,9.54,2.6,11.2,21.6,15.34,32.26,18.25,24.15,6.6,41.96,16.9,54.28,25.13,6,9.08,19.49,12.08,25.96,24.57,14.69,28.37-22.05,76.42-26.24,81.79-9.94,12.75-12.96,11.77-18.92,22.58-10.45,18.94-8.53,35.2-22.83,44.68-3.25,2.16-10.19,6.64-8.85,3.64,1.7-3.82,1.89-27.31-14.46-40.38-14.73-11.77-105.83,21.42-189.58-3.32-3.97-24.19-10.3-65.19-.39-116.93,3.46-18.1,11.23-49.61-3.65-61.73-4.02-3.27-10.25-5.59-15.77-3.99-16.85,4.88-18.89,43.85-19.63,58.04-2.31,44.06,8.08,88.66,19.26,117.39-17.14-7.28-33.67-17.44-48.81-31.45-1.52-1.41-2.89-2.94-4.23-4.6,2.75-12.9,6-32.31,10.05-61.3Z" style="fill:#7fcbc1;"/><path d="M1734.65,1490.02c-19-41.06-42.17-80.41-70.4-116.12-14.13-17.82-29.54-34.73-46.53-50.07-16.96-15.34-35.52-29.16-56.03-40.03-10.27-5.38-21.03-10.03-32.34-13.35-11.28-3.35-23.15-5.4-35.28-5.23-3.03,.04-6.07,.22-9.11,.56-3.04,.33-6.1,.86-8.96,1.43-5.81,1.17-11.56,2.72-17.2,4.63-11.29,3.81-22.12,9.2-32.01,15.96-19.89,13.5-35.52,32.35-47.17,52.76-11.7,20.49-19.79,42.57-25.77,64.95-5.95,22.41-9.83,45.2-12.38,68.02-1.11,9.81-1.95,19.64-2.6,29.47h21.99c.36-9.16,.89-18.3,1.66-27.41,1.83-22.08,4.94-44.01,9.98-65.39,5.05-21.35,12.08-42.2,22.25-61.25,10.14-19,23.53-38.42,40.75-50.84,8.57-6.22,18.12-8.99,28.11-12.68,4.99-1.84,10.12-3.39,15.34-4.6,2.66-.61,5.15-1.11,7.71-1.46,2.56-.36,5.15-.59,7.76-.7,10.45-.45,21.14,1.03,31.55,3.81,10.44,2.74,20.63,6.79,30.48,11.59,19.69,9.73,38.01,22.53,54.92,36.97,16.94,14.44,32.52,30.57,46.91,47.71,28.77,34.34,52.85,72.65,72.9,112.93,20.06,40.3,36.13,82.63,48.65,125.99-11.28-43.7-26.17-86.56-45.18-127.65Z" style="fill:#a7d8d1;"/><path d="M1748.56,842.7c-7.35,9.22-15.14,18.08-23.11,26.76-15.99,17.33-32.75,33.93-49.82,50.2-34.18,32.51-69.61,63.67-105.42,94.38-17.92,15.34-35.96,30.54-54.05,45.7l-27.14,22.76c-4.52,3.81-9.03,7.63-13.53,11.56-2.25,1.95-4.49,4.1-6.71,6.18-2.15,2.19-4.34,4.33-6.35,6.66-4.11,4.56-7.93,9.43-11.32,14.57-3.43,5.11-6.51,10.45-9.21,15.93-5.51,10.94-9.6,22.35-13.28,33.77-1.81,5.74-3.49,11.4-5.08,17.25-1.58,6-2.74,11.96-3.77,17.89-1.99,11.86-3.46,23.66-4.83,35.43-2.71,23.54-5.06,46.99-7.89,70.34-2.81,23.35-6,46.62-9.92,69.72-7.01,41.12-16.21,81.84-29.14,121.21h19.89c11.55-38.94,19.59-78.72,25.58-118.61,3.5-23.52,6.27-47.1,8.63-70.67,2.38-23.56,4.28-47.14,6.5-70.55,1.12-11.7,2.34-23.36,4.03-34.82,.87-5.71,1.87-11.38,3.19-16.81,1.38-5.57,2.92-11.27,4.53-16.82,3.3-11.11,6.95-22.09,11.84-32.36,2.38-5.17,5.11-10.14,8.14-14.9,3-4.79,6.38-9.32,10.07-13.61,1.8-2.18,3.78-4.21,5.72-6.29,2.04-2,4.01-3.99,6.17-5.96,4.29-3.94,8.69-7.86,13.1-11.77l26.55-23.41c17.72-15.61,35.4-31.28,52.95-47.09,35.09-31.64,69.8-63.74,103.23-97.16,16.7-16.72,33.07-33.78,48.67-51.54,7.77-8.9,15.36-17.97,22.49-27.4,7.09-9.44,13.9-19.17,19.18-29.75-5.53,10.44-12.57,19.97-19.87,29.21Z" style="fill:#a7d8d1;"/></g><rect x="93.4" y="1480.5" width="1888.74" height="42.2" rx="21.1" ry="21.1" style="fill:#1e1735;"/><path d="M695.11,1184.79c-4.9-11.43-6.13-27.77-3.68-49.03,2.45-42.48,13.06-80.07,31.87-112.76,18.79-32.67,41.25-61.69,67.41-87.02,26.14-25.32,54.12-47.8,83.96-67.41,29.82-19.61,56.57-37.17,80.28-52.7,61.28-36.77,102.95-71.49,125.02-104.18,22.06-32.67,31.45-60.86,28.19-84.57-2.45-16.34-9.4-27.98-20.84-34.93-11.45-6.93-23.71-10.42-36.77-10.42-18.81,0-37.38,4.1-55.77,12.26-18.38,8.18-36.77,18.59-55.15,31.25-18.39,12.68-37.19,26.97-56.38,42.9-19.21,15.93-38.61,31.68-58.22,47.19-28.61,23.71-64.35,36.98-107.25,39.83-42.9,2.87-84.78-4.29-125.63-21.45-10.63-4.08-19.4-9.19-26.35-15.32-6.93-6.13-11.43-13.67-13.48-22.68-2.03-8.98-.61-20.22,4.29-33.71,4.9-13.48,13.9-30.03,26.96-49.64,40.85-62.09,88.44-113.16,142.79-153.21,54.33-40.03,113.37-65.76,177.11-77.22,38.4-7.35,75.17-8.98,110.31-4.9,35.12,4.1,67.6,12.26,97.44,24.51,29.82,12.26,56.38,27.58,79.67,45.96,23.29,18.39,42.69,37.8,58.22,58.22,32.67,40.04,54.54,78.44,65.57,115.21,11.03,36.77,14.71,71.3,11.03,103.57-3.68,32.29-13.08,61.9-28.19,88.86-15.13,26.96-31.68,50.25-49.64,69.86-17.98,19.61-38.21,36.98-60.67,52.09-22.48,15.13-45.77,29.84-69.86,44.12-24.11,14.31-48.01,28.8-71.7,43.51-23.71,14.71-45.56,31.46-65.57,50.25-20.03,18.8-37.19,40.66-51.48,65.57-14.31,24.94-23.9,54.54-28.8,88.86,.8,15.53-4.29,25.13-15.32,28.8-11.03,3.68-25.13,3.89-42.29,.61-17.16-3.25-35.97-8.98-56.38-17.16-20.43-8.16-39.22-15.93-56.38-23.29-17.98-9.8-29.42-20.42-34.32-31.87Zm-52.09,156.27c8.58-13.48,20.62-24.51,36.16-33.09,15.51-8.58,34.11-13.67,55.77-15.32,21.64-1.63,45.54,1.23,71.7,8.58,19.61,5.73,35.74,12.47,48.41,20.22,12.66,7.78,22.67,16.15,30.03,25.13,7.35,9,12.45,18.19,15.32,27.58,2.85,9.4,4.29,19,4.29,28.8v18.38c0,7.35-.82,12.26-2.45,14.71-6.55,22.88-22.48,41.67-47.8,56.38-25.34,14.71-58.43,19.19-99.28,13.48-17.98-2.45-34.93-6.55-50.86-12.26-15.93-5.73-29.84-13.69-41.67-23.9-11.85-10.21-20.84-22.26-26.96-36.16-6.13-13.88-8.39-30.22-6.74-49.03,.81-15.51,5.52-30.03,14.1-43.51Z" style="fill:#e30613; mix-blend-mode:multiply;"/><path d="M1064.26,1342.23c7.61-14.78,18.58-27.16,32.97-37.16,14.38-9.98,31.77-16.37,52.15-19.18,20.38-2.79,43.34-.6,68.93,6.59,21.58,5.6,39.15,13.79,52.75,24.58,13.58,10.79,23.56,22.59,29.97,35.36,6.39,12.79,9.77,25.59,10.19,38.36,.4,12.79-1.01,23.98-4.2,33.56-2.4,7.19-7,15.79-13.79,25.77-6.8,10-15.19,19.18-25.17,27.57-10,8.39-21.99,15.58-35.96,21.58-13.99,5.99-29.78,8.99-47.35,8.99-37.57,.78-69.53-9.2-95.9-29.97-26.37-20.77-38.75-50.35-37.16-88.71,.81-16.78,5-32.55,12.59-47.35Zm477.11-866.72c5.19,14.8,4.2,32.97-3,54.54-20.79,59.94-41.36,120.68-61.74,182.21-20.38,61.55-39.97,122.28-58.74,182.21-18.79,59.94-35.96,117.69-51.55,173.22-15.59,55.56-29.37,107.29-41.36,155.24-4.01,16.78-10.19,27.18-18.58,31.17-8.39,4.01-21.78,3.6-40.16-1.2-22.38-3.99-42.97-8.99-61.74-14.98-18.79-5.99-36.98-13.37-54.54-22.18-18.39-9.59-30.57-20.17-36.56-31.77-5.99-11.58-7.01-28.96-3-52.15,6.39-46.34,15.38-100.89,26.97-163.63,11.57-62.73,24.57-127.26,38.96-193.6,14.39-66.32,29.16-131.86,44.35-196.6,15.17-64.74,29.56-122.67,43.16-173.82,6.39-24.76,15.77-39.95,28.17-45.55,12.38-5.58,31.35-3.99,56.94,4.79,23.97,6.41,50.14,15.58,78.52,27.57,28.36,11.99,52.93,25.17,73.72,39.56,21.58,15.19,34.96,30.18,40.16,44.96Z" style="fill:#312553; mix-blend-mode:multiply;"/><g><g><path d="M1062.07,689.09c1.79,4.81,1.67,8.09,1.79,18.75,.1,9.1,.25,11.7,.89,15.18,.6,3.24,1.42,6.18,3.57,8.93,1.84,2.36,3.57,3.18,5.36,4.46,5.1,3.67,5.47,7.4,10.71,16.07,3.86,6.38,20.76,19.83,29.46,22.32,4.05,1.16,13.41,3.54,25.89,3.57,15.52,.04,20.39-3.6,22.32-5.36,2.85-2.59,3.45-4.85,3.57-5.36,1.2-4.98-2.53-9.72-6.25-14.28-8.59-10.54-12.89-15.8-16.07-18.75,0,0-14.27-13.2-27.67-31.24-15.53-20.9-13.83-29.38-23.21-32.14-12.84-3.77-31.59,7.57-31.24,15.18,.04,.82,.27,1.01,.89,2.68Z" style="fill:#f79556;"/><path d="M923.53,387.26c5.85-6.81,17.56-1.52,41.72-2.14,9.52-.24,20.25-2.3,41.72-6.42,17.81-3.42,20.22-4.67,53.48-11.77,9.12-1.95,23.22-4.88,41.72-5.35,14.07-.35,20.14,.99,25.67,4.28,11.25,6.69,15.09,18.35,16.05,21.39,.98,3.12,4.1,13.1,0,23.53-3.04,7.74-8.63,12.06-13.91,16.05-25.78,19.45-38.67,29.18-52.41,35.3-10.26,4.57-21.44,9.55-35.3,11.77-46.78,7.49-100.03-20.33-116.59-58.83-1.9-4.4-8.69-20.19-2.14-27.81Z" style="fill:#1e1735;"/><path d="M791.85,403.96c-2.63,12.96,1.89,24.08,4.93,31.57,1.59,3.92,6.24,15.05,15.78,23.68,9.58,8.66,19.62,10.76,49.33,14.8,34.63,4.71,51.94,7.06,72.02,7.89,16.43,.68,32.91,.98,49.33,0,1.24-.07,5.23-.34,6.91,1.97,2.02,2.77,0,8.88-1.17,13.35-2.78,10.59-.15,21.59,4.13,38.94,5.6,22.71,2.55,16.68,11.84,44.39,11.75,35.06,18.74,63.14,18.74,63.14,7.63,30.65,7.97,40.98,17.76,46.37,8.66,4.77,18.93,2.19,39.46-2.96,11.94-3,21.3-8.17,22.69-12.82,1.03-3.46-.47-6.73-.99-7.89-8.85-19.8-37.35-188.46-42.42-211.12-3.84-17.13-8.33-22.83-9.87-24.66-7.88-9.39-17.57-11.72-36.5-17.76-14.27-4.55-28.02-10.68-42.42-14.8-24.5-7-32.59-7.66-70.04-20.31-17.73-5.99-27.92-9.2-42.42-9.87-10.17-.46-20.61-.83-32.56,3.95-3.93,1.57-29.63,8-34.53,32.15Z" style="fill:#312553;"/><path d="M1019.29,427.02c3.87-5.31,8.46-10.09,13.49-14.36,5.03-4.28,10.51-8.06,16.32-11.23,5.8-3.18,11.93-5.78,18.25-7.71,6.32-1.92,12.83-3.18,19.4-3.5-6.27,1.94-12.4,3.99-18.37,6.4-5.96,2.41-11.75,5.2-17.38,8.26-5.62,3.08-11.07,6.47-16.33,10.19-5.26,3.72-10.32,7.75-15.37,11.94Z" style="fill:#312553;"/><g><path d="M1061.91,697.95c-2.71,.23-10.82,24.78-5.87,33.82,1.73,3.16,25.96,23.3,37.43,32.01,2.15,1.63,8.16,6.06,16.37,10.06,3.85,1.88,14.32,8.04,33.12,8.67,6.68,.22,17.36-2.31,24.17-5.93,4.3-2.29,5.63-4.32,6.21-5.19,3.13-4.67-.71-13.38-1.55-15.02-3.67-7.24-8.78-9.13-18.72-16.01-16.2-11.22-24.81-23.43-34.07-37.45-2.57-3.89-.94-6.09-3.36-7.74-4.01-2.74-16.11,4.48-27.1,13.65-3.11,2.59-7.41,5.31-13.46,2.84-9.34-3.8-9.96-14-13.17-13.72Z" style="fill:#fff;"/><path d="M1057.42,720.4c4.33,3.36,8.79,6.51,13.26,9.67l13.4,9.46,13.4,9.45c4.46,3.15,8.91,6.34,13.4,9.42,1.11,.77,2.24,1.57,3.33,2.28,.56,.38,1.06,.69,1.63,.99,.56,.31,1.15,.6,1.74,.89,2.38,1.14,4.88,2.08,7.4,2.92,5.06,1.68,10.33,2.67,15.64,3,5.31,.27,10.69-.21,15.85-1.69,.65-.16,1.29-.38,1.93-.58,.65-.2,1.27-.42,1.89-.67,1.25-.5,2.47-1.08,3.69-1.67,1.22-.6,2.42-1.24,3.6-1.93,1.17-.69,2.36-1.37,3.39-2.28-1.87,2.03-4.18,3.59-6.48,5.1-1.16,.75-2.36,1.45-3.6,2.09-.62,.32-1.27,.62-1.91,.89-.64,.27-1.28,.56-1.94,.79-5.24,1.95-10.88,2.88-16.5,2.85-5.63,0-11.22-.97-16.61-2.54-2.69-.81-5.33-1.8-7.9-2.99-.64-.3-1.28-.61-1.92-.95-.64-.33-1.31-.74-1.89-1.12-1.21-.77-2.32-1.54-3.46-2.32-4.49-3.17-8.94-6.37-13.34-9.63-4.37-3.3-8.77-6.57-13.07-9.98-4.32-3.38-8.58-6.83-12.78-10.35-4.16-3.57-8.35-7.13-12.14-11.11Z" style="fill:#312553;"/><path d="M1103.52,722.01c1.82-1.08,3.6-1.9,5.35-2.71l5.18-2.36c1.71-.78,3.41-1.56,5.1-2.39,1.7-.85,3.37-1.65,5.09-2.84-.19,1.06-.72,2.02-1.32,2.9-.62,.86-1.33,1.66-2.11,2.35-1.56,1.4-3.34,2.52-5.22,3.37-1.88,.85-3.86,1.46-5.89,1.77-2.03,.3-4.11,.35-6.18-.09Z" style="fill:#312553;"/><path d="M1109.05,728.62c1.82-1.08,3.6-1.9,5.35-2.71l5.18-2.36c1.71-.78,3.41-1.56,5.1-2.39,1.7-.85,3.37-1.65,5.09-2.84-.19,1.06-.72,2.02-1.32,2.9-.62,.86-1.33,1.66-2.11,2.35-1.56,1.4-3.34,2.52-5.22,3.37-1.88,.85-3.86,1.46-5.89,1.77-2.03,.3-4.11,.35-6.18-.09Z" style="fill:#312553;"/><path d="M1114.58,735.23c1.82-1.08,3.6-1.9,5.35-2.71l5.18-2.36c1.71-.78,3.41-1.56,5.1-2.39,1.7-.85,3.37-1.65,5.09-2.84-.19,1.06-.72,2.02-1.32,2.9-.62,.86-1.33,1.66-2.11,2.35-1.56,1.4-3.34,2.52-5.22,3.37-1.88,.85-3.86,1.46-5.89,1.77-2.03,.3-4.11,.35-6.18-.09Z" style="fill:#312553;"/><path d="M1097.99,715.4c1.82-1.08,3.6-1.9,5.35-2.71l5.18-2.36c1.71-.78,3.41-1.56,5.1-2.39,1.7-.85,3.37-1.65,5.09-2.84-.19,1.06-.72,2.02-1.32,2.9-.62,.86-1.33,1.66-2.11,2.35-1.56,1.4-3.34,2.52-5.22,3.37-1.88,.85-3.86,1.46-5.89,1.77-2.03,.3-4.11,.35-6.18-.09Z" style="fill:#312553;"/></g><g><path d="M950.29,474.36c-5.21-.12-9.29-.22-14.54-1.49-6.67-1.62-16.28-5.58-23.85,1.51-9.48,8.88-5.65,23.68-2.37,29.9,.97,1.84,2.81,4.4,6.33,6.88,3.95,2.78,6.85,2.76,12.65,4.15,8.54,2.05,27.85,13.48,33.68,16.23,3.53,1.67,13.45,6.21,26.46,5.53,5.26-.27,15.99-.83,25.68-8.61,3.24-2.6,11.77-9.46,12.8-20.92,.93-10.25-4.72-17.8-6.5-20.19-7.57-10.12-18.77-12.84-22.97-13.85-8.31-2.01-16.38-1.28-32.51,.19-3.43,.31-8.18,.83-14.87,.67Z" style="fill:#fff;"/><path d="M949.91,481.68c-3.81-.58-9.35-2.04-14.09-4.37-13.04-6.43-21.31-.58-22.19,.29-5.76,5.68-6.44,14.81-4.04,21.53,.7,1.96,3.29,8.26,9.38,11.03,3.11,1.42,14.31,2.93,28.69,10.3,9.98,5.12,14.9,7.81,20.03,8.97,2.81,.64,10.75,2.17,20.64,.21,7.33-1.45,15.87-3.15,21.57-10.72,.92-1.23,6.92-9.46,4.43-19.25-2.21-8.7-9.69-13-13.88-15.41-11.53-6.63-24.06-5.55-28.74-5.14-10.74,.93-12.42,4-21.8,2.56Z" style="fill:#bc7e55;"/><g><path d="M1000.44,484.26c-2.33-1.51-4.88-2.7-7.51-3.66-2.64-.93-5.38-1.59-8.16-1.98-2.78-.41-5.59-.53-8.4-.49-2.81,.08-5.58,.29-8.38,.69-2.78,.43-5.52,1.19-8.17,1.86-1.33,.33-2.65,.59-3.99,.69-1.34,.09-2.7,.08-4.06-.02-2.72-.23-5.43-.75-8.1-1.43-2.68-.65-5.31-1.54-7.87-2.61,2.42,1.37,5.03,2.4,7.67,3.3,2.66,.85,5.38,1.54,8.19,1.87,1.4,.17,2.83,.24,4.26,.17,1.43-.07,2.85-.31,4.22-.62,1.37-.31,2.71-.67,4.05-.98,1.34-.32,2.68-.56,4.03-.78,5.42-.78,10.96-1.08,16.41-.52,5.45,.57,10.84,2,15.81,4.51Z" style="fill:#7764a6;"/><path d="M909.59,499.13c.73,2.24,1.81,4.38,3.22,6.28,1.42,1.9,3.2,3.58,5.33,4.73,.52,.3,1.09,.56,1.66,.74,.57,.2,1.14,.37,1.7,.54l3.4,.96c2.26,.64,4.5,1.32,6.72,2.07,4.43,1.5,8.79,3.23,13,5.25,4.19,2.05,8.33,4.34,12.56,6.43,2.12,1.03,4.28,2.03,6.54,2.84,2.25,.83,4.62,1.36,6.97,1.71,2.36,.35,4.74,.53,7.12,.55,2.38,.03,4.76-.13,7.12-.47,2.37-.33,4.67-.86,6.97-1.38,2.3-.54,4.6-1.16,6.81-2.03,4.41-1.73,8.51-4.52,11.19-8.43-1.48,1.83-3.23,3.42-5.17,4.72-1.94,1.29-4.07,2.28-6.27,3.04-2.19,.78-4.47,1.33-6.76,1.8-2.3,.45-4.6,.92-6.91,1.17-4.62,.5-9.31,.45-13.9-.28-2.3-.37-4.54-.89-6.7-1.71-2.16-.81-4.27-1.81-6.37-2.84-4.23-2.04-8.35-4.27-12.63-6.31-4.29-1.99-8.7-3.77-13.23-5.12-2.26-.69-4.54-1.31-6.82-1.89l-3.42-.86c-1.14-.31-2.24-.58-3.25-1.13-2.07-.99-3.87-2.54-5.35-4.33-1.46-1.81-2.65-3.86-3.53-6.05Z" style="fill:#7764a6;"/></g></g></g><g><path d="M1054.08,333.76c-.52-7.26-34.39-19.59-49.33-19.59-7.98,0-9.43-74-23.96-112.93-7.4-19.82-17.93-36.46-37.04-23.56-17.35,11.71-11.73,46.13-7.44,69.65,5.32,29.12,14.74,74.99,25.63,88.61,5.8,7.25,21.39,15.08,48.61,18.86,26.12,3.63,44.25-10.88,43.53-21.04Z" style="fill:#fccc44;"/><path d="M889.14,159.79c-5.56,.51-18.52,1.91-32.54,8.13-54.91,24.4-53.61,69.92-54.91,84.4-2.38,26.5-4.1,51.86-3.05,65.08,.21,2.58,.67,8.03,0,15.25-.97,10.47-3.52,16.19-5.08,22.37-2.53,9.99-7.16,41.74,1.02,47.79,9.85,7.29,17.35-13.21,49.83-17.29,19.14-2.4,26.28,2.47,64.12,8.13,32.01,4.8,38.91-46.12,40.61-66.7,1.6-19.28,6.66-37.76,7.12-59.39,1.02-47.79,13.61-60.04,10.17-66.09-1.89-3.32-26.6-15.58-38.64-26.44-2.42-2.19-15.89-17.35-38.64-15.25Z" style="fill:#fccc44;"/><path d="M954.22,282.83c-.48-5.07-.62-10.16-.39-15.25,.04-2.55,.31-5.08,.5-7.62,.28-2.53,.59-5.06,.99-7.58,.2-1.26,.43-2.51,.69-3.76,.25-1.25,.48-2.51,.79-3.75,.3-1.24,.6-2.48,.94-3.71l.5-1.85,.57-1.83c1.48-4.89,3.48-9.57,5.48-14.23-.35,2.53-.97,5-1.51,7.47-.58,2.46-1.14,4.92-1.67,7.37-.51,2.46-1.06,4.9-1.49,7.37-.24,1.23-.47,2.46-.69,3.69-.23,1.23-.43,2.47-.61,3.71-.84,4.94-1.5,9.92-2.14,14.91-.67,4.99-1.19,10.01-1.97,15.05Z" style="fill:#ea9a26;"/><path d="M881.01,165.89c-.04-7.71,4.58-9.66,11.19-26.44,9.01-22.86,11.19-43.72,11.19-56.94,0-1.91,4.65-.39,11.19,5.08,6.56,5.5,18.37,17.11,22.37,36.61,5.22,25.43-3.27,61.21-22.37,64.06-13.95,2.08-33.5-10.29-33.56-22.37Z" style="fill:#ec7d40;"/><path d="M915.95,134.37s-3.31,3.17-6.03,1.02c-4.61-3.65-4.91-12.39-4.99-14.24-.11-2.45-.2-9.35,3.99-12.2,5.99-4.07,6.96,3.12,7.98,3.05,1.04-.07,2.13-2.17,2-4.07-.19-2.78-2.92-4.11-4.99-6.1-4.92-4.73-5.68-12.76-4.99-17.29,1.29-8.47,8.95-13.33,11.98-15.25,14.59-9.26,31.87-3.41,35.93-2.03,4.62,1.56,15.56,5.27,22.95,16.27,5.67,8.43,8.4,16.85,9.02,24.4,.63,7.65-.57,17.68-5.03,23.39-.71,.91-4.65,8.47-4.99,11.19,0,0,.18,5.48-2,12.2-4.77,14.74-13.76,24.17-14.97,25.42-5.83,6.03-9.04,6.88-10.98,7.12-.98,.12-4.09,.38-8.98-2.03-4.48-2.2-25.45-15.76-26.94-34.57-.49-6.13,1.04-16.27,1.04-16.27Z" style="fill:#f79556;"/><path d="M990.81,85.85c-8.2-12.51-19.52-19.96-22.35-21.64-18.03-10.68-39.69-12.84-43.72-7.12-.48,.69-1.6,2.75-4.07,4.07-2.84,1.52-5.23,.84-7.12,1.02-6.75,.65-13.49,12.87-13.22,24.4,.34,14.61,9.08,23.54,17.27,27.86,2.89,1.52,4.13,5,2.94,8.04-1.87,4.78-4.86,11.07-10.04,19.01-8.22,12.61,8.5,39.24,12.2,43.72,2.47,3,8.88,9.45,18.3,13.22,5.08,2.03,9.13,3.02,12.2,1.02,10.93-7.13,13.93-23.48,13.8-25.67,0-.16,.03-.3,.13-.43,1.15-1.52,2.35-3.24,3.52-5.11,.13-.2,.15-.46,.06-.68-1.05-2.43-2.69-4.34-5.3-5.73-6.78-3.59-15.43-1.71-20.89,2.12-3.01,2.11-7.42,1.65-9.85-1.11-6.01-6.82-10.03-16.96-8.91-31.51,1.53-19.83,11.69-31.01,18.3-32.54,1-.23,1.28,.67,3.05,2.03,4.44,3.4,8.7,4.71,13.22,6.1,1.53,.47,20.71,4.8,28.47-1.02,4.07-3.05,5.43,2.36,6.1,2.03,.99-.49,3.05-11.19-4.08-22.08Zm-46.29,83.61c2.98-.61,7.16,.31,11.73-.52,4.44-.81,4.56-2.29,6.1-1.02,.48,.4,1.53,2.54,3.05,4.07,.35,.35,.72,.6,.98,.9,.29,.33,.21,.79-.15,1.03-1.89,1.24-8.46,3.66-18.12-.91-.71-.34-2.54-1.48-3.81-2.26-.54-.33-.4-1.16,.21-1.29Z" style="fill:#1e1735;"/><path d="M969.41,135.58c-1.28,.2-2.58,.05-3.83-.41-1.26-.44-2.42-1.31-3.28-2.04-.44-.41-.77-.58-1.1-.89-.16-.15-.36-.26-.54-.39-.18-.13-.34-.3-.55-.41-.75-.54-1.66-1-2.65-1.29-1-.28-2.05-.49-3.15-.61-1.09-.16-2.22-.23-3.35-.31l-3.46-.23c-1.16-.09-2.34-.2-3.49-.53l.06-.4c2.26-.04,4.49-.52,6.8-.87,2.31-.32,4.7-.56,7.22-.24,1.25,.17,2.56,.39,3.85,.9,.64,.25,1.26,.62,1.83,1.02,.53,.45,1.11,.97,1.44,1.42,.72,.93,1.22,1.67,1.9,2.46,.68,.77,1.51,1.53,2.41,2.43l-.12,.39Z" style="fill:#1e1735;"/><path d="M963.37,138.44c-1.51-.6-2.75-.62-4.08-.52-1.32,.09-2.76,.3-4.33,.25-1.56-.04-3.26-.39-4.7-1.24-1.44-.85-2.55-2.11-3.16-3.57,1.51,.56,2.79,1.07,4.07,1.35,1.27,.29,2.52,.37,3.89,.42,1.36,.05,2.87,.04,4.47,.42,.4,.09,.79,.21,1.19,.39,.39,.14,.76,.38,1.11,.61,.35,.23,.64,.57,.92,.85,.25,.33,.45,.69,.61,1.05Z" style="fill:#1e1735;"/><g><path d="M913.7,343.72c3.36-3.21,8.11-2.96,11-2.54,17.83,2.56,21.7,2.51,27.25,.44,2.85-1.06,11.83-4.99,16.76-4.62,10.66,.79,52.07,19.44,52.48,24.49,0,0,.32,4.01-1.37,4.72-.64,.27-.64,.26-.68,.29-.96,.74,1,2.37-.49,4.12-.61,.71-1.57,.9-3.18,1.07-3.26,.33-5.85-.58-8.17-.17-1.69,.3-1.93,.99-3.92,1.94,0,0-2.02,1.6-6.42,1.32-1.25-.08-2.65,.07-11.79-4.78-9.36-4.97-25.08-7.81-25.01-7,.06,.81,17.53,5.14,21.84,8.07,.43,.29,1.15,1.31,1,2.37-.22,1.53-1.51,1.65-3.11,1.92-4.63,.76-15.72-2.3-27.26-4.42-3.65-.67-9.93-1.82-18.02-1.03-7.53,.74-9.75,.6-14.59,1.15-11.72,1.33-21.78-12.55-6.32-27.32Z" style="fill:#ec7d40;"/><path d="M1006.45,371.14c.35-.03,.68-.21,.89-.52,.37-.54,.23-1.28-.32-1.65-4.21-2.86-6.73-4.32-11.25-6.55-7.31-3.6-17.84-7.15-25.38-9.5-.63-.2-1.29,.15-1.49,.78-.19,.63,.15,1.29,.78,1.49,7.46,2.32,17.86,5.83,25.03,9.36,4.4,2.17,6.86,3.6,10.97,6.38,.23,.16,.5,.22,.76,.2Z" style="fill:#d66730;"/><path d="M1015.17,367.73c.32-.02,.62-.17,.83-.44,.41-.51,.33-1.26-.18-1.67-3.97-3.18-6.37-4.84-10.7-7.42-7.01-4.17-17.21-8.54-24.54-11.48-.61-.24-1.3,.05-1.54,.66-.24,.61,.05,1.3,.66,1.54,7.25,2.91,17.34,7.23,24.21,11.32,4.22,2.51,6.56,4.13,10.43,7.23,.25,.2,.55,.28,.84,.26Z" style="fill:#d66730;"/></g><path d="M931.11,337.14c-17.78-1.2-29.22-6.93-48.2-13.8-2.77-1-9.35-2.87-15.81-3.67-.28-1.06-.36-2.83-.08-5.81,.58-6.25,2.29-19.45,2-32.46-.06-5.02,2.43-27.32,4.39-35.45,.73-3.01,1.47-17.38-1.85-30.53-1.09-4.31-5.25-20.89-20.62-23.39-21.1-3.43-30.38,11.42-33.7,16.77-7.28,11.74-8.95,23.02-10.42,39.37,0,0-4.77,33.59,8.31,88.31,3.86,16.13,10.94,27.52,14.47,29.81,.11,.07,.21,.13,.32,.19,.02-.07,.05-.13,.08-.2,8.25,5.74,33.31,2.15,70.89,5.02,14.67,1.12,27.17,4.8,26.07-1.2-3.48-18.93,3.78-31.26,8.73-29.76,.82,.25,.46,.67,.85,.67,.73,0,.71-.19,.73-.73,.04-1.98-1.61-2.84-6.16-3.15Z" style="fill:#fccc44;"/><g><path d="M931.84,337.14c-2.78-.04-5.57-.12-8.35-.46-1.39-.12-2.77-.36-4.16-.54-1.37-.26-2.76-.48-4.13-.79-5.5-1.13-10.84-2.86-16.13-4.61-5.27-1.81-10.48-3.69-15.72-5.46-2.5-.87-5.16-1.54-7.8-2.13-2.65-.58-5.33-1.03-7.99-1.34l-1.48-.17-.35-1.43c-.36-1.49-.34-2.67-.33-3.86,.03-1.17,.12-2.33,.22-3.42l.63-6.53c.4-4.33,.77-8.65,1.02-12.97,.11-2.16,.21-4.32,.26-6.47,.03-1.08,.03-2.15,.05-3.23v-3.34c.12-2.31,.35-4.47,.58-6.67,.23-2.19,.5-4.37,.77-6.55,.54-4.36,1.24-8.7,2-13.03,.4-2.17,.78-4.34,1.3-6.5,.12-.54,.27-1.09,.41-1.63l.1-.4,.08-.34c.06-.21,.1-.48,.14-.73,.17-1.01,.29-2.08,.39-3.15,.36-4.28,.46-8.63,.28-12.96-.15-4.34-.61-8.68-1.35-12.99,1.34,4.17,2.25,8.5,2.84,12.87,.55,4.37,.89,8.78,.78,13.24-.03,1.12-.07,2.23-.19,3.38-.03,.29-.05,.57-.11,.89l-.15,.86c-.09,.53-.2,1.04-.28,1.57-.35,2.11-.65,4.27-.93,6.41-.55,4.31-.96,8.64-1.41,12.97-.21,2.16-.41,4.33-.57,6.49-.16,2.15-.32,4.34-.35,6.41v1.55l.04,1.66c0,1.11,.02,2.22,0,3.33,0,2.22-.1,4.43-.2,6.63-.12,2.21-.26,4.41-.43,6.6-.19,2.19-.4,4.38-.63,6.57l-.7,6.51c-.11,1.08-.2,2.1-.24,3.11-.03,.98,0,2.02,.16,2.65l-1.82-1.6c2.85,.4,5.63,.97,8.39,1.65,2.75,.7,5.47,1.46,8.18,2.49,5.2,2.02,10.33,4.16,15.46,6.24,5.12,2.11,10.25,4.1,15.52,5.71,5.26,1.62,10.68,2.75,16.19,3.52Z" style="fill:#ea9a26;"/><path d="M807.55,248.16c-.11,5.14,.02,10.26,.27,15.36,.2,5.1,.62,10.19,1.05,15.26,.51,5.07,.97,10.14,1.67,15.19,.62,5.05,1.34,10.1,2.17,15.12l1.25,7.54,1.38,7.52,.33,1.88,.38,1.87,.76,3.75c.51,2.5,.99,5.01,1.55,7.45,.6,2.44,1.26,4.88,2.03,7.28,.76,2.41,1.59,4.8,2.57,7.13,.94,2.35,2,4.65,3.21,6.88,.3,.56,.61,1.11,.94,1.65,.32,.55,.67,1.07,1.03,1.6,.72,1.04,1.49,2.05,2.53,2.82h-.03l.09-.18-.06,.2v.02h-.03c-1.18-.57-2.14-1.5-3.06-2.42-.44-.48-.88-.96-1.29-1.47-.42-.5-.82-1.01-1.2-1.54-1.55-2.1-2.89-4.33-4.16-6.61-1.24-2.29-2.32-4.66-3.34-7.07-1.02-2.4-1.84-4.88-2.64-7.37-.37-1.25-.76-2.51-1.08-3.76l-.93-3.75-.93-3.75-.46-1.88-.41-1.89-1.58-7.57-1.31-7.63c-.75-5.11-1.47-10.22-1.95-15.36-.27-2.57-.41-5.15-.6-7.72-.22-2.57-.24-5.16-.34-7.74-.06-1.29-.04-2.58-.05-3.87,0-1.29-.04-2.58,0-3.87,.08-2.58,.13-5.16,.3-7.74,.36-5.15,.83-10.3,1.93-15.34Z" style="fill:#ea9a26;"/></g></g><path d="M907.91,379.78h181.95v-8.57h-177.87c-1.24,0-5.58,5.74-5.58,5.74-.96,1.11-.14,2.8,1.47,2.82h.04Z" style="fill:#e30613;"/><path d="M1015.28,378.79h144.14c6.08,0,11.43-4.05,13.07-9.9l34.03-120.98c1.13-4.02-1.89-8.01-6.07-8.01h-145.77c-6.14,0-11.52,4.08-13.18,9.99l-33.54,119.24c-1.37,4.85,2.28,9.67,7.32,9.67Z" style="fill:#fff;"/><path d="M1015.33,379.78h144.62c6.02,0,11.3-4,12.93-9.79l33.82-120.24c.8-2.84-1.34-5.66-4.29-5.66h-144.62c-6.02,0-11.3,4-12.93,9.79l-33.82,120.24c-.8,2.84,1.34,5.66,4.29,5.66Z" style="fill:#e30613;"/></g><g><path d="M1553.96,1425.01s3.32,8.22,3.84,16.76c.52,8.55,4.38,24.14-.13,29.06-9.92,10.85-32.03,3.73-48.11,12.43-13.54,7.33-18.16,8.31-31.03,9.84-15.3,1.82-31.76,.7-37.47-1.32-5.34-1.88-6.5-4.19-6.88-6.02-.35-1.67-.98-4.93,1.82-6.86,3.64-2.5,35.74-16.07,39.06-18.43,7.07-5.05,31.07-26.78,34.9-34.89,3.83-8.11,42.09-6.17,43.99-.59Z" style="fill:#fff;"/><path d="M1604.09,1425.02s2.22,22.43,.65,31.11c-1.75,9.72-2.63,20.51-1.7,26.41,.66,4.19,5.77,14.29,13.6,17.29,6.57,2.52,16.25,1.34,21.74-1.29,6.94-3.32,10.02-7.68,12.79-12.32,1.27-2.13,3.99-11.65-.83-20.43-4.81-8.78-8.92-15.27-10.92-24.77-2-9.5-.83-19.2-.83-19.2l-34.51,3.21Z" style="fill:#fff;"/><path d="M1604.05,1418.87s.77,22.29,.65,31.11c-.12,9.03-2.63,20.51-1.7,26.41,.66,4.19,5.95,13.14,13.6,16.57,6.28,2.82,14.26,1.85,21.74-1.18,5.64-2.28,10.67-7.32,12.8-11.7,2.24-4.63,1.51-11.64-3.31-20.42-4.81-8.78-6.44-15.29-8.44-24.79-2-9.5-.83-19.2-.83-19.2l-34.51,3.21Z" style="fill:#312553;"/><path d="M1553.93,1420.01s3.32,8.22,3.84,16.76c.52,8.55,4.37,22.28-.14,27.2-9.92,10.85-32.62,3.32-48.11,13.05-15.48,9.74-15.17,9.89-30.39,12.32s-32.48,.98-38.09-1.31c-5.61-2.3-6.27-3.01-6.87-4.78-.24-.72-1.6-6.52,1.81-9.34,3.4-2.82,35.74-16.07,39.06-18.43,7.07-5.05,31.07-26.78,34.9-34.89,3.83-8.11,42.09-6.17,43.99-.59Z" style="fill:#312553;"/><path d="M1662.67,1022.31c.04,6.93,11.12,60.87,10.16,91.48-.96,30.62-11.93,84.97-16.92,118.5-4.99,33.53,.61,95.87-2.06,130.54s-8.78,73.38-8.78,73.38c0,0-6.34,2.14-21.94,1.66-15.6-.48-22.54-2.04-22.54-2.04,0,0-.3-47.82,.64-80.75,.95-32.93-.43-67.57-1.71-88.35-1.29-20.78-13.24-83.66-19.16-106.72-5.92-23.06-6.72-57.71-4.8-119.52,1.92-61.81,87.09-18.18,87.09-18.18Z" style="fill:#fccc44;"/><path d="M1519.64,1014.08c-1.22,1.13-18.1,49.58-19.37,99.04-1.27,49.47,2.19,96.28,.71,112.6-1.48,16.32-1.94,26.32,1.31,41.03,3.25,14.71,5.99,115.2,5.56,130.98-.43,15.79-8.45,20.37-4.02,30.54,1.29,2.97,17.17,11.07,36.38,11.83,8.19,.33,15.73-1.18,18.67-1.87,.74-.17,1.24-.88,1.14-1.64-.82-6.66-4.31-33.4-2.27-51.25,1.89-16.61,15.48-48.02,12.09-84.83-3.39-36.81-5.58-49.95-5.62-56.27-.04-6.31,13.61-94.8,28.21-115.94,14.6-21.14,12.48-105.84,6.14-110.54-6.34-4.7-60.12-21.19-78.95-3.71Z" style="fill:#fccc44;"/><path d="M1609.2,669.06c-.09-.62-28.09-15.27-28.09-15.27,0,0-28.15,2.3-29.96,3-1.81,.7-16.88,23.11-16.92,25.01-.43,19.66,3.62,20.23,3.62,20.23,27.48-1.32,46.83-18.39,53.69-28.76,4.16,17.14,19.37,28.51,22.96,23.52,.33-.45-5.3-27.73-5.3-27.73Z" style="fill:#1e1735;"/><path d="M1514.91,874.29s-25.52,22.31-43.62,28.2c-12.85,4.18-27.14,4.26-35.75-3.19-8.72-7.54,1.79-42.31,17.85-56.37,16.06-14.06,68.8-28.36,75.45-15.53,6.65,12.82,1.83,30.37-13.94,46.9Z" style="fill:#1e1735;"/><path d="M1516.29,1024.8c-2.42-1.39-3.31-26.62-.69-52.52,2.62-25.9,7.75-33.7,2.84-53.98-4.91-20.28-30.59-99.14-12.32-116.94,9.16-8.92,25.35-11.32,40.15-17.03,15.93-6.14,26.27-11.15,36.13-12.18,18.11-1.89,27.7,1.56,44.29,7.06,43.23,14.33,46.72,14.62,52.35,22.95,5.63,8.33,1.81,40.05-4.02,63.58-5.83,23.53-18.68,69.8-19.01,80.96-.33,11.15,4.9,49.46,8.39,66.46,2.27,11.1-17.23,18.69-31.32,21.3-14.12,2.62-75.63,13.97-116.8-9.66Z" style="fill:#312553;"/><path d="M1615.64,700.22c1.61-31.44-7.52-41.08-14.69-43.51-2.91-.98-3.14,.04-5.8-.56-4.12-.94-5.4-6.91-19.02-7.16-50.92-.95-51.11,50.32-39.15,70.36,13.85,23.18,29.83,31.25,47.07,28.86,15.84-2.2,29.66-10.33,31.59-47.98Z" style="fill:#1e1735;"/><path d="M1606.91,733.4c-.16,.76,2.39,36.31,1.05,46.13-.96,7.05-7.41,16.02-24.49,16.03-11.72,0-21.18-6.18-23.39-13.29-1.48-4.77-2.35-42.98-2.35-42.98l49.17-5.9Z" style="fill:#ec7d40;"/><path d="M1610.47,683.11c2.79,13.26,.65,18.14,.95,23.17,.3,5.02,1.37,8.19,.38,19.57-.99,11.38-.95,17.46-6.45,25.96-5.5,8.5-10.48,15.14-15.76,16.76s-8.53,1.99-13.57-.1c-5.04-2.08-16.58-5.9-24.37-19.23-6.33-10.83-12.71-31.39-13.08-48.32-.37-16.92,2.57-26.03,9.67-32.95,7.1-6.92,25.81-17.01,44.64-7.33,7.72,3.97,14.71,8.73,17.6,22.47Z" style="fill:#f79556;"/><path d="M1572.72,750.16c-.27-.34-.09-.85,.34-.94,1.85-.38,6.35-1.21,11.57-1.42,3.58-.15,7.01,.29,8.44,.51,.38,.06,.59,.45,.45,.8-.73,1.83-3.26,6.68-9.64,6.87-5.74,.18-9.75-4.07-11.16-5.82Z" style="fill:#d65b5b;"/><path d="M1671.62,799.98c.55-1.8,2.46-2.78,4.25-2.2,3.13,1.01,7.83,3.89,13.31,13.6,8.1,14.36,37.56,101.33,36.63,123.22-.93,21.89-18.9,35.26-31.39,27.26-7.59-4.86-31.57-59.98-34.17-83.05-4.05-35.98,8.4-69.1,11.37-78.84Z" style="fill:#312553;"/><path d="M1589.81,706.16c2.16,.03,3.81-.23,5.38-.59,.78-.19,1.49-.46,2.18-.84,.69-.37,1.4-.77,2.16-.99,.38-.14,.76-.21,1.14-.32,.38-.08,.77-.16,1.16-.22,.78-.14,1.56-.21,2.34-.17,.79,.02,1.57,.15,2.37,.38,.8,.23,1.59,.6,2.46,.93l.26-.42c-.31-.3-.61-.62-.93-.95-.33-.32-.68-.63-1.05-.92-.76-.58-1.63-1.06-2.56-1.43-.94-.34-1.92-.57-2.91-.7-.49-.05-.98-.08-1.48-.1-.49,0-.99-.02-1.48,.02-.99,.05-1.99,.09-2.98,.22-.99,.14-1.93,.47-2.76,1-.83,.52-1.58,1.16-2.22,1.94-.63,.78-1.19,1.65-1.44,2.79l.34,.37Z" style="fill:#1e1735;"/><path d="M1573.03,706.17c-.62-1.3-1.63-2.23-2.68-3.01-1.07-.78-2.25-1.36-3.48-1.78-1.23-.44-2.53-.59-3.82-.55l-.97,.05-.96,.09c-.64,.05-1.27,.14-1.9,.2-.63,.08-1.25,.18-1.87,.28l-.94,.19c-.31,.07-.62,.15-.93,.23-1.23,.35-2.42,.8-3.55,1.33-2.26,1.09-4.3,2.53-5.98,4.27l.29,.38c2.09-1.11,4.27-1.94,6.48-2.41,1.1-.24,2.21-.4,3.31-.46l.82-.05h.82c.55,0,1.12,.02,1.67,.05,1.11,.08,2.21,.28,3.27,.56,1.06,.27,2.11,.45,3.19,.56,1.08,.11,2.17,.19,3.31,.26,1.14,.08,2.31,.13,3.63,.2l.29-.39Z" style="fill:#1e1735;"/><path d="M1556.95,715.64c.07,.56,1.97,2,6.97,1.33,2.22-.3,4.37-1.15,4.22-2.27-.14-1.06-1.83-2.82-3.78-2.89-3.41-.11-7.56,2.71-7.41,3.82Z" style="fill:#e6e6e6;"/><path d="M1594.14,714.47c.05,.48,1.63,1.75,5.91,1.31,1.9-.2,3.76-.87,3.66-1.82-.09-.91-1.49-2.46-3.15-2.56-2.9-.18-6.51,2.12-6.41,3.07Z" style="fill:#e6e6e6;"/><path d="M1560.13,713.76c.79-3.47,6.8-3.23,6.31,1.38-.49,4.61-7.57,4.19-6.31-1.38Z" style="fill:#1e1735;"/><path d="M1568.94,715.41c-.1-.4-.19-.77-.33-1.16-.15-.38-.34-.78-.61-1.15-.54-.74-1.39-1.35-2.3-1.66-.45-.16-.85-.21-1.28-.28-.43-.07-.86,0-1.28,.01-.85,.11-1.66,.33-2.45,.55-.39,.11-.77,.26-1.15,.39-.37,.15-.73,.32-1.1,.48-.7,.38-1.37,.78-2,1.23-1.25,.92-2.38,1.94-3.29,3.19l.24,.21c1.19-.81,2.51-1.48,3.82-1.99,.65-.27,1.33-.47,1.99-.64,.34-.07,.66-.16,1-.22,.33-.04,.66-.11,.99-.13,.66-.06,1.32,0,1.94,.11l.46,.08c.15,.02,.31,.03,.46,.06,.29,.05,.63,.06,.89,.08,.52,.03,1.02,.09,1.61,.29,.3,.1,.63,.22,.97,.38,.36,.14,.74,.35,1.21,.42l.2-.25Z" style="fill:#1e1735;"/><path d="M1596.31,713.02c.64-2.94,5.73-2.77,5.34,1.12-.39,3.9-6.38,3.6-5.34-1.12Z" style="fill:#1e1735;"/><path d="M1604.64,714.21c-.06-.75-.16-1.41-.53-2.12-1.25-2.16-3.35-2.27-4.09-2.27-.8,.06-1.55,.28-2.24,.5-.69,.23-1.34,.52-1.94,.86-.59,.35-1.14,.74-1.66,1.16-1.01,.87-1.91,1.79-2.62,2.92l.27,.22c1.02-.65,2.14-1.21,3.24-1.63,.55-.22,1.11-.39,1.66-.52,.54-.14,1.08-.23,1.61-.26,2.11-.1,3.57,.59,4.09,.76,.53,.14,1.15,.51,1.96,.63l.24-.25Z" style="fill:#1e1735;"/><path d="M1545.95,694.63c1.29-3.68,3.56-8.42,11.02-11.22,7.46-2.8,41.22-2.23,45.85-.58,4.2,1.5,6.18,8.49,7.82,17.93,1.63,9.44,1.93,18.98,2.54,10.97,.61-8.01,1.52-21.68,.29-27.68-2.12-10.29-12.29-22.9-16.09-22.48-3.8,.42-.81-3.14-7.76-3.36-6.96-.22-23.01-9.43-39.19,5.1s-15.11,18.99-13.87,28.69c1.24,9.7,3.2,31.45,4.5,29.21,0,0,3.71-23.22,4.89-26.58Z" style="fill:#1e1735;"/><path d="M1542.4,710.95c4.82,11.07,16.86,39.57,20.83,48.96,.83,1.96,.84,4.16,.05,6.13l-6.2,15.39c-.54,1.34-5.3,1.83-6.08,.04l-18.76-44.79c-.64-1.52-.79-3.2-.44-4.81l4.45-20.59c.41-2.01,5.53-1.76,6.15-.33Z" style="fill:#fff;"/><path d="M1527.7,800.89c.61,.19,5.97,2.12,10.41-4.32,4.79-6.95,3.2-11.85,5-14.35,6.68-9.33,7.26-17.27,6.38-23.01-.86-5.56-5.69-3.58-6.1-.46s-.68,8.54-2.69,11.43c-2.18,3.13-4.29,5.49-6.43,3.66-2.14-1.83-2.92-2.82-2.74-7.43,.18-4.61-.6-5.6-2.58-4.31-1.98,1.29-13.6,34.82-1.24,38.78Z" style="fill:#ec7d40;"/><path d="M1539.06,710.97c4.82,11.07,16.86,39.57,20.83,48.96,.83,1.96,.84,4.16,.05,6.13l-6.2,15.39c-.54,1.34-2.42,1.35-2.98,.02l-18.76-44.79c-.64-1.52-.79-3.2-.44-4.81l4.45-20.59c.33-1.53,2.43-1.74,3.05-.31Z" style="fill:#e30613;"/><path d="M1493.44,808s13.91-10.36,17.46-19.25c3.55-8.88,2.6-29.71,4.55-32.02,1.95-2.31,5.72-3.97,6.69-5.13s7.65-10.13,11.24-12.45c3.59-2.32,14.83-.59,16.32,.55,1.48,1.14,7.31,8.39,7.81,10.19,.5,1.8-2.64,3.3-5.94,1.02-3.3-2.28-5.14-4.53-6.33-3.73-1.04,.69,3.63,2.93,4.81,8.17,1.18,5.24,.12,18.54-2.5,19.05-2.62,.51-1.31,.83-3.27,1.99-1.96,1.16-4.58,2-5.91-.45-1.33-2.45,2.16-9.98,1.83-10.64-.33-.65-2.31-2.61-2.49-4.25-.17-1.64-.81,2.41-4.5,3.27-1.6,.37-1.29,7.49-.1,10.17,2.38,5.35,4.8,6.29,5.81,10.3,1.64,6.54-1.23,10.76-4.33,14.96-3.44,4.65-11.87,14.34-17.14,18.42-5.16,3.99-12.24,10.74-24.02-10.18Z" style="fill:#f79556;"/><path d="M1543.36,775.06c.71-1.56,1.46-3.09,2.15-4.65,.35-.77,.7-1.55,.98-2.32,.13-.38,.28-.79,.32-1.09,.03-.17,.02-.32,.01-.51-.02-.2-.02-.39-.05-.59-.19-1.63-.48-3.3-.83-4.94-.34-1.64-.71-3.29-1.24-4.81l-.21-.54c-.07-.18-.15-.31-.22-.47-.04-.07-.06-.08-.09-.13l-.03-.06s0,0,0,0c-.05-.03-.2-.11-.36-.16-.68-.23-1.52-.36-2.32-.49-1.64-.27-3.33-.39-5.01-.53-1.68-.12-3.38-.22-5.07-.27-1.7-.06-3.39-.08-5.1,.07,1.63-.56,3.36-.78,5.06-.98,1.71-.17,3.43-.27,5.15-.27,1.72-.02,3.45,.06,5.19,.24,.88,.1,1.73,.23,2.68,.52,.24,.08,.49,.17,.8,.37,.09,.06,.17,.13,.25,.2,.06,.06,.11,.13,.16,.19,.1,.13,.21,.27,.28,.39,.11,.22,.25,.46,.34,.68l.26,.65c.56,1.71,.92,3.4,1.22,5.11,.26,1.71,.52,3.41,.55,5.19,.01,.22,0,.46,0,.68-.01,.23-.03,.51-.09,.76-.13,.53-.32,.91-.52,1.32-.4,.79-.84,1.53-1.29,2.27-.92,1.45-1.89,2.87-2.95,4.22Z" style="fill:#eb7331;"/><path d="M1544.1,746.49c-1.25-.17-2.48-.25-3.63-.12-.59,.08-1.11,.2-1.66,.43l-1.72,.66c-1.15,.44-2.33,.85-3.51,1.22-1.19,.37-2.39,.71-3.64,.94,1.05-.71,2.16-1.3,3.28-1.84,1.12-.54,2.26-1.04,3.43-1.48,.59-.22,1.17-.43,1.78-.61,.62-.19,1.33-.32,1.99-.28,1.33,.04,2.59,.42,3.68,1.08Z" style="fill:#eb7331;"/><path d="M1500.7,800.1c-.14-.83-1.36-.9-1.91-.27-4.79,5.58-25.11,24.83-38.51,34.27-15.52,10.93-21.3,15.23-25.73,25.53-7.72,17.94-4.31,28.3-2.41,36.48,1.9,8.18,24.17,8.57,33.12,3.23s22.19-29.2,30.58-39.56c8.39-10.36,24.17-33.44,25.73-37.42,1.56-3.97,.02,.07-8.2-4.63-6.76-3.87-11.62-11.41-12.67-17.62Z" style="fill:#312553;"/><path d="M1497.03,1436.02c-.55-.25-.45-1.07,.15-1.14,.27-.03,.53-.05,.8-.06,.45-.02,.89,.03,1.33,.07,.44,.06,.87,.15,1.31,.25,1.73,.44,3.3,1.31,4.68,2.36,1.4,1.04,2.53,2.34,3.51,3.72,0,.01,.02,.03,.03,.04,.44,.71,.86,1.43,1.23,2.18,0,.02,.02,.03,.02,.05,.32,.78,.62,1.58,.82,2.42-.76-.46-1.42-.97-2.05-1.49-.66-.5-1.28-1-1.87-1.52-1.24-.98-2.39-2-3.6-2.9-1.2-.92-2.4-1.81-3.69-2.58l-.99-.56c-.34-.16-.68-.37-1.03-.53-.21-.11-.43-.21-.65-.31Z" style="fill:#fff;"/><path d="M1615.4,1445.55c.37-.75,.98-1.36,1.64-1.86,.33-.26,.69-.47,1.06-.68,.37-.2,.75-.36,1.14-.53,1.56-.61,3.24-.81,4.88-.76,1.64,.03,3.23,.41,4.75,.92h0c.74,.3,1.48,.63,2.18,1.01,.69,.43,1.36,.87,1.98,1.41-.84,.06-1.62,.03-2.39-.02-.77-.02-1.53-.06-2.27-.14-1.49-.07-2.92-.22-4.34-.24-1.42-.05-2.82-.07-4.24,.06l-1.06,.11c-.35,.06-.72,.09-1.08,.16-.73,.12-1.46,.28-2.24,.54Z" style="fill:#fff;"/><path d="M1614.9,1451.66c.39-.8,1.05-1.44,1.75-1.98,.35-.28,.74-.49,1.12-.72,.39-.21,.8-.38,1.21-.56,1.66-.65,3.45-.86,5.18-.81,1.75,.03,3.44,.43,5.05,.98h0c.79,.32,1.57,.67,2.31,1.08,.73,.45,1.44,.92,2.1,1.5-.89,.07-1.72,.04-2.54-.02-.82-.02-1.62-.07-2.41-.14-1.58-.07-3.11-.23-4.61-.25-1.51-.05-3-.07-4.5,.06l-1.13,.12c-.37,.06-.77,.09-1.14,.17-.78,.13-1.55,.3-2.38,.58Z" style="fill:#fff;"/><path d="M1614.94,1457.74c.39-.8,1.05-1.44,1.75-1.98,.35-.28,.74-.49,1.12-.72,.39-.21,.8-.38,1.21-.56,1.66-.65,3.45-.86,5.18-.81,1.75,.03,3.44,.43,5.05,.98h0c.79,.32,1.57,.67,2.31,1.08,.73,.45,1.44,.92,2.1,1.5-.89,.07-1.72,.04-2.54-.02-.82-.02-1.62-.07-2.41-.14-1.58-.07-3.11-.23-4.61-.25-1.51-.05-3-.07-4.5,.06l-1.13,.12c-.37,.06-.77,.09-1.14,.17-.78,.13-1.55,.3-2.38,.58Z" style="fill:#fff;"/><path d="M1614.7,1463.83c.4-.82,1.08-1.49,1.8-2.04,.36-.29,.76-.51,1.16-.75,.4-.22,.82-.4,1.25-.58,1.71-.67,3.55-.89,5.34-.83,1.8,.03,3.54,.45,5.2,1.01h0c.81,.33,1.62,.69,2.38,1.11,.75,.47,1.49,.95,2.16,1.54-.91,.07-1.77,.04-2.61-.02-.85-.02-1.67-.07-2.48-.15-1.63-.07-3.2-.24-4.75-.26-1.55-.05-3.09-.07-4.64,.06l-1.17,.12c-.38,.07-.79,.09-1.18,.18-.8,.13-1.6,.31-2.46,.59Z" style="fill:#fff;"/><path d="M1491.7,1441.58c-.54-.26-.42-1.06,.18-1.14,.24-.03,.49-.05,.73-.07,.83-.04,1.66,.08,2.47,.26,1.61,.4,3.09,1.2,4.37,2.18,1.31,.97,2.36,2.19,3.26,3.49,.41,.68,.8,1.37,1.13,2.08,.29,.74,.56,1.49,.72,2.29-.73-.41-1.35-.88-1.94-1.34-.62-.45-1.2-.91-1.75-1.38-1.16-.89-2.22-1.82-3.33-2.65-1.1-.85-2.2-1.67-3.38-2.39-.59-.35-1.2-.72-1.84-1.04-.2-.1-.4-.2-.61-.3Z" style="fill:#fff;"/><path d="M1486.32,1446.97c-.63-.32-.44-1.24,.26-1.31,.12-.01,.25-.02,.37-.03,.82-.05,1.63,.07,2.43,.25,1.59,.39,3.04,1.17,4.29,2.14,1.28,.95,2.31,2.16,3.2,3.43,.41,.67,.79,1.34,1.11,2.05,.28,.73,.54,1.47,.7,2.26-.72-.4-1.33-.85-1.92-1.31-.61-.44-1.18-.89-1.73-1.35-1.14-.87-2.18-1.78-3.27-2.59-1.08-.83-2.15-1.64-3.31-2.35-.58-.35-1.17-.71-1.8-1.03-.11-.06-.22-.12-.33-.17Z" style="fill:#fff;"/><path d="M1479.83,1452.57c-.54-.26-.42-1.05,.18-1.14,.24-.03,.48-.06,.72-.07,.82-.05,1.63,.08,2.43,.25,1.59,.39,3.04,1.17,4.29,2.14,1.28,.95,2.31,2.16,3.2,3.43,.41,.67,.79,1.34,1.11,2.05,.28,.73,.54,1.47,.7,2.26-.72-.4-1.33-.85-1.92-1.31-.61-.44-1.18-.89-1.73-1.35-1.14-.87-2.18-1.78-3.27-2.59-1.08-.83-2.15-1.64-3.31-2.35-.58-.35-1.17-.71-1.8-1.03-.2-.1-.39-.2-.6-.3Z" style="fill:#fff;"/><path d="M1679.53,844.31c-.63,8.65-2.1,17.27-4.03,25.72-.9,4.24-1.95,8.44-2.93,12.65l-3.15,12.58c-2.15,8.37-4.43,16.71-6.7,25.04-1.12,4.17-2.29,8.33-3.38,12.5l-.84,3.13c-.26,1.05-.5,2.09-.78,3.14-.51,2.1-.97,4.2-1.31,6.35v-2.45l.03-.81c.09-1.08,.13-2.18,.26-3.26,.11-1.08,.25-2.16,.38-3.24l.47-3.23c.33-2.15,.73-4.28,1.09-6.42,.4-2.13,.82-4.26,1.26-6.38,1.76-8.49,3.76-16.92,5.93-25.29,1.11-4.18,2.21-8.37,3.35-12.54,1.18-4.16,2.3-8.33,3.53-12.48,1.18-4.16,2.43-8.28,3.53-12.45,1.15-4.16,2.19-8.36,3.3-12.56Z" style="fill:#1e1735;"/><path d="M1465.26,899.33c.79-.62,1.54-1.27,2.22-1.99,.7-.7,1.35-1.44,1.98-2.2,1.26-1.52,2.45-3.1,3.58-4.72,1.15-1.61,2.26-3.25,3.35-4.91,1.08-1.66,2.18-3.31,3.24-4.99,4.29-6.7,8.45-13.47,13.27-20,.6-.8,1.27-1.63,1.88-2.39,.61-.77,1.23-1.53,1.84-2.32,1.23-1.55,2.43-3.13,3.64-4.7,1.22-1.57,2.41-3.15,3.61-4.74,1.18-1.6,2.39-3.18,3.59-4.76l7.16-9.55c1.21-1.59,2.39-3.19,3.57-4.79,.6-.8,1.18-1.61,1.75-2.42,.58-.81,1.14-1.63,1.64-2.5-.65,1.9-1.59,3.69-2.52,5.47-.93,1.78-1.93,3.51-2.92,5.25-2.03,3.45-4.12,6.86-6.3,10.21-2.15,3.38-4.45,6.65-6.74,9.93-1.16,1.63-2.35,3.24-3.56,4.85-.6,.8-1.24,1.59-1.86,2.38-.63,.8-1.21,1.53-1.8,2.32-2.38,3.1-4.61,6.39-6.89,9.65-2.31,3.24-4.55,6.55-6.97,9.75-2.38,3.22-4.87,6.38-7.55,9.39-1.36,1.48-2.75,2.95-4.26,4.3-1.5,1.34-3.13,2.6-4.94,3.48Z" style="fill:#1e1735;"/><path d="M1669.14,1015.83c.64-.38,23.42,13.14,19.76,18.43-4.8,6.92-7.3,21.06-13.07,31.05-6.14,10.63-15.63,18.79-15.63,18.79l-10.11-48.6s10.3-14.51,19.05-19.66Z" style="fill:#f79556;"/><path d="M1589.65,1198.99c-2.37-7.58-4.38-15.22-6.32-22.86-1.96-7.64-3.77-15.31-5.58-22.96l-1.36-5.73-1.39-5.73c-.46-1.96-.88-3.92-1.22-5.89-.18-.98-.34-1.97-.49-2.96-.13-.99-.28-1.98-.39-2.97-1-7.92-1.3-15.87-.95-23.8,1.45,7.81,2.69,15.59,4.29,23.24,.83,3.82,1.7,7.62,2.75,11.35,.53,1.87,1.06,3.82,1.56,5.73,.49,1.92,.96,3.85,1.43,5.77,1.81,7.71,3.37,15.46,4.66,23.27,1.31,7.8,2.41,15.64,3.02,23.56Z" style="fill:#ea9a26;"/><path d="M1655.08,1050.34c-.46-1.93-.94-3.85-1.43-5.77-.5-1.91-1.04-3.86-1.56-5.73-.86-3.05-1.6-6.16-2.29-9.28-1.11,.5-2.25,.96-3.41,1.4v.06c.16,.99,.32,1.97,.5,2.96,.34,1.97,.76,3.93,1.22,5.89l1.39,5.73,1.36,5.73c1.81,7.65,3.62,15.32,5.58,22.96,1.93,7.65,3.94,15.28,6.32,22.86-.61-7.92-1.7-15.76-3.02-23.56-1.29-7.8-2.85-15.56-4.66-23.27Z" style="fill:#ea9a26;"/><path d="M1725.64,927.27c2.84,20.35,.54,51.72-8.54,74.98-8.85,22.69-20.44,37.85-24.36,42.61-.7,.85-2,.86-2.71,.02l-23.46-27.79c-.12-.15-.12-.36,.01-.49,.57-.59,2.18-2.58,5.02-8.63,6.9-14.68,12.1-49.34,13.89-58.38,4.71-23.81,37.79-39.22,40.15-22.32Z" style="fill:#312553;"/></g><g><path d="M460.51,1042.89c-23.54-1.79-41.84,14.72-74.04,44.63-14.28,13.26-24.59,19.08-30.94,29.41-5.98,9.73-17.73,34.82-12.17,61.87,5.84,28.44,31.39,54.39,59.34,56.8,47.96,4.13,83.89-63.2,90.27-78.1,12.17-28.42,17.24-72.02-7.61-105.49-7.39-9.95-20.94-8.83-24.85-9.13Z" style="fill:#1e1735;"/><path d="M523.6,1303.04c1.26-1.43,9.23-10.48,20.49-9.82,1.81,.11,7.98,.47,12.56,5.29,1.24,1.3,4,6.64,4.85,24.04,1.36,27.85,8.96,26.27,12.95,34.27,5.19,10.4,5.39,17.94-3.05,20.76-9.38,3.14-45.69-15.67-46.34-16.21-14.85-12.46-14.51-43.54-1.47-58.34Z" style="fill:#d66730;"/><path d="M500.63,1164.01c4.45-1.69,20.91,2.88,31.51,23.98,10.38,20.65,7.73,33.39,11.07,48.76,3.89,17.91,7.35,46.91,11.91,54.81,1.3,2.24,5.73,8.33,7.06,14.67,.48,2.29,2.45,18.16-4.79,15.4-19.91-7.59-26.09,14.77-37.44,7.62-13.77-8.66-4.74-46.91-9.26-109.39-2.24-31.08-17.32-53.09-10.06-55.86Z" style="fill:#fff;"/><path d="M516.61,1428.45c-58.11,.64-112.42-1.26-118.88-25.49-5.94-22.3,7.29-52.68,20.14-67.06,6.02-6.74,89.95-9.56,95.7-6.73,2.69,1.32,6.95,3.46,11.72,7.46,15.01,12.59,13.22,25.39,23.14,34.95,4.31,4.15,9.07,6.01,39.01,8.79,44.86,4.16,59.43,2.33,60.89,7.3,1.82,6.21-78.38,40.19-131.72,40.78Z" style="fill:#ea9a26;"/><path d="M585.22,1406.74c9.75-4.47,19.57-8.78,29.34-13.21,14.81-6.71,15.56-7.11,18.33-7.91,5.06-1.48,20.57-5.79,38.24-.33,5.76,1.78,11.18,3.46,16.26,8.44,9.15,9,9.53,21.25,9.64,24.73,.62,20.25-14.42,33.05-16,34.35-6.91,5.69-14.06,7.29-18.34,8.82-36.62,13.1-85.36,13.9-147.77,18.68-47.34,3.63-62.87,.89-68.16-8.32-4.53-7.89,1.06-18.79,2.14-20.91,7.63-14.9,22.93-11.47,72.32-26.21,31.55-9.41,47.64-10.64,64.01-18.14Z" style="fill:#ea9a26;"/><path d="M521.21,1424.88c9.21-3.72,18.71-6.73,28.27-9.35,9.54-2.7,19.18-4.89,28.26-8.19,1.14-.4,2.25-.86,3.38-1.29l3.33-1.43,6.81-2.97c4.55-1.95,9.1-3.9,13.7-5.75,4.58-1.89,9.19-3.7,13.8-5.51,2.32-.87,4.63-1.77,6.97-2.62,2.33-.82,4.69-1.74,7.15-2.16-1.16,.46-2.27,.98-3.36,1.57l-3.27,1.75-6.56,3.5c-4.4,2.29-8.81,4.53-13.26,6.7-4.43,2.21-8.9,4.33-13.37,6.44l-6.73,3.13-3.48,1.53c-1.18,.46-2.35,.95-3.54,1.38-4.76,1.73-9.61,3.06-14.46,4.22-4.85,1.15-9.69,2.17-14.54,3.14-9.69,1.97-19.34,3.99-29.1,5.91Z" style="fill:#fccc44;"/><path d="M341.69,1197.26c4.77-11.17,18.52-17.29,28.52-19.59,31.52-7.26,37.66-17.37,51.31-21.07,12.31-3.34,23.7-.75,24.59-.53,7.14,1.7,19.44,8.95,34.49,6.9,11.5-1.56,14.16-2.23,25.49,1.13,3.2,.95,19.03,5.01,17.84,23.2-1.41,21.65,6.92,38.53,8.42,44.74,1.85,7.64,2.65,7.31,3.45,12.8,1.48,10.19-.86,14.08-3.19,30-3.01,20.62-6.23,20.39,1.07,49.18,1.36,5.37,4.36,12.81-5.71,16.3-2.06,.72-36.76-7.39-93.06,13.15-10.08,3.68-15.04,1.14-20.92-1.23-2.2-.88-26.02-24.98-32.51-76.97-2.62-20.98-6.66-31.01-10.38-35.67-11.78-14.76-37.9-22.43-29.4-42.33Z" style="fill:#fff;"/><path d="M522.45,1188.24c.17,5.8,1.12,11.47,2.84,16.91,1.64,5.46,3.92,10.73,5.95,16.18,2.1,5.43,3.84,11.11,4.89,16.97,.53,2.93,.82,5.89,.95,8.89,.11,3,.02,5.96-.17,8.9-.94,11.72-3.05,23.04-4.19,34.45-1.15,11.39-1.41,22.88,.6,34.32-1.94-5.47-3.09-11.24-3.72-17.05-.61-5.82-.69-11.69-.43-17.52,.21-5.84,.85-11.63,1.44-17.38,.65-5.75,1.38-11.46,1.76-17.13,.22-2.83,.34-5.65,.27-8.43-.07-2.78-.36-5.58-.75-8.35-.76-5.57-2.31-11.02-3.99-16.51-1.71-5.47-3.59-11.03-4.76-16.79-1.16-5.75-1.52-11.71-.69-17.45Z" style="fill:#a7d8d1;"/><path d="M391.2,1435.66c-10.64-1.75-56.25,13.73-56.25,13.73-8.99,1.33-17.28,1.83-34.73,1.99-18.85,.18-20.2-.29-22.86,1.65-8.34,6.08-10.9,22.3-4.15,29.88,3.25,3.65,9.99,4.02,23.47,4.76,15.61,.86,23.41,1.29,31.09-2.17,4.11-1.85,7.84-4.45,14.85-5.67,5.45-.95,9.71-.51,10.95-.39,18.47,1.75,37.09-.76,55.64-1,44.39-.57,20.87-36.37-18.02-42.78Z" style="fill:#ec7d40;"/><path d="M308.5,1449.96c.18-1.53-1.91-2.96-6.11-5.76-4.1-2.74-6.38-4.23-9.79-5.02-2.63-.61-4.32-.43-7.27-.35-1.17,.03-12.41,.3-23.6-2.03-5.34-1.11-4.72-1.58-9.01-2.25-3.11-.49-9.65-1.52-16.41,.13-9.09,2.22-28.01,14.16-29.22,39.62-.14,3.01,.66,7.53,4.03,11.13,3.83,4.09,9.4,4.77,12.51,5.15,3.96,.48,14.18-.73,29.18-.44,10.02,.2,46.46,.39,51.96-.26,.53-.06,.75-.67,.95-.87,4.25-4.16,6.13-10.14,6.15-14.29,.04-10.34-11.4-15.87-9.05-20.48,1.3-2.54,5.42-2.13,5.67-4.29Z" style="fill:#e30613;"/><g><path d="M293.34,1442.97c-8.99,.13-18-.34-26.94-1.31-2.23-.23-4.46-.47-6.67-.54-2.21-.07-4.41,.07-6.59,.43-2.2,.35-4.37,.78-6.47,1.43-2.1,.65-4.12,1.49-6.03,2.56-3.8,2.15-7.15,5.06-9.73,8.57-2.63,3.48-4.5,7.44-6.02,11.6-1.53,4.08-2.43,8.44-1.97,12.75,.26,2.14,.78,4.3,1.94,6.08,1.13,1.79,3.13,2.98,5.28,3.53l-.04,.22c-2.25-.23-4.53-1.27-6.06-3.14-1.49-1.88-2.24-4.17-2.67-6.45-.83-4.63-.04-9.37,1.42-13.72,.73-2.15,1.58-4.3,2.63-6.36,1.05-2.06,2.31-4.01,3.74-5.84,2.88-3.64,6.55-6.64,10.63-8.79,2.04-1.08,4.21-1.91,6.42-2.54,2.22-.63,4.47-1.01,6.71-1.31,2.26-.32,4.57-.4,6.85-.27,2.28,.13,4.52,.43,6.74,.72,8.89,1.26,17.83,2.03,26.81,2.2v.22Z" style="fill:#fff;"/><path d="M261.74,1455.93c1.05,2.46,1.57,5.11,1.84,7.74,.27,2.65,.23,5.3,0,7.93-.23,2.63-.67,5.24-1.33,7.8-.34,1.28-.71,2.54-1.18,3.79-.48,1.23-.97,2.48-1.71,3.61l.6-7.79,.67-7.67c.22-2.55,.46-5.09,.63-7.64,.18-2.56,.32-5.11,.48-7.78Z" style="fill:#fff;"/><path d="M269.01,1456.28c1.05,2.46,1.57,5.1,1.84,7.74,.27,2.65,.23,5.3,0,7.94-.23,2.63-.67,5.24-1.33,7.8-.34,1.28-.71,2.54-1.18,3.79-.48,1.23-.97,2.48-1.71,3.61l.6-7.79,.67-7.67c.22-2.55,.46-5.09,.63-7.64,.18-2.56,.32-5.11,.48-7.78Z" style="fill:#fff;"/><path d="M276.29,1456.63c1.05,2.46,1.57,5.11,1.84,7.74,.27,2.65,.23,5.3,0,7.94-.23,2.63-.67,5.24-1.33,7.8-.34,1.28-.71,2.54-1.18,3.79-.48,1.23-.97,2.48-1.71,3.61l.6-7.79,.67-7.67c.22-2.55,.46-5.09,.63-7.64,.18-2.56,.32-5.11,.48-7.78Z" style="fill:#fff;"/><path d="M283.56,1456.97c1.05,2.46,1.57,5.11,1.84,7.74,.27,2.65,.23,5.3,0,7.94-.23,2.63-.67,5.24-1.33,7.8-.34,1.28-.71,2.54-1.18,3.79-.48,1.23-.97,2.48-1.71,3.61l.6-7.79,.67-7.67c.22-2.55,.46-5.09,.63-7.64,.18-2.56,.32-5.11,.48-7.78Z" style="fill:#fff;"/><path d="M290.83,1457.32c1.05,2.46,1.57,5.11,1.84,7.74,.27,2.65,.23,5.3,0,7.94-.23,2.63-.67,5.24-1.33,7.8-.34,1.28-.71,2.54-1.18,3.79-.48,1.23-.97,2.48-1.71,3.61l.6-7.79,.67-7.67c.22-2.55,.46-5.09,.63-7.64,.18-2.56,.32-5.11,.48-7.78Z" style="fill:#fff;"/></g><path d="M415.04,1461.5c-10.35-3.53-14.79-8.5-16.23-10.26-7.12-8.68-14.69-21.62-4.59-57.43,10.54-37.36,119.39-8.19,146.53,3.15,5.78,2.41,13.01,4.52,18.95,11.21,4.66,5.26,13.18,16.24,10.55,24.74-4.31,13.91-31.04,7.18-83.18,21.49-23.8,6.53-51.15,14.23-72.03,7.09Z" style="fill:#fccc44;"/><path d="M376.04,1332.53c3.43-.52,5,.08,6.37,.1,2.73,.04,5.05-3.11,1.94-9.93-4.56-9.99-.15-33.95,.84-52.85,1.04-20.03-8.33-40.57-11.14-45.69-9.3-16.98-21.43-35.32-28.65-31.39-1.72,.94-4.27,5.14-5.61,9.93-3.77,13.46-8.95,46.81-9.88,50.83-5.39,23.29-1.33,39.56-.86,56.43,.1,3.66-.07,6.56-.11,7.28-.28,4.52-2.78,16.07-3.01,18.16-.7,6.29,1.09,11.47,2.49,15.52,2.53,7.31,9.94,17.42,13.4,16.59,1.5-.36,1.29-2.49,2.81-5.42,7.5-14.45,20.46-27.91,31.41-29.56Z" style="fill:#fff;"/><path d="M383,1295.66c-.22-8.81,.35-17.62,.44-26.28,0-8.52-1.59-16.99-3.94-25.24-1.18-4.12-2.59-8.19-4.17-12.19-.79-1.99-1.64-3.98-2.54-5.89-.44-.93-.96-1.91-1.45-2.88l-1.49-2.91c-2.03-3.85-4.08-7.7-6.28-11.46-2.17-3.78-4.47-7.48-7.09-11.02,3.38,2.86,6.23,6.3,8.95,9.78,2.67,3.53,5.17,7.18,7.5,10.94,1.18,1.89,2.32,3.71,3.43,5.71,1.1,1.99,2.04,4.01,2.95,6.05,1.79,4.1,3.31,8.3,4.56,12.6,1.23,4.3,2.18,8.7,2.74,13.16,.54,4.46,.78,8.99,.36,13.5-.77,8.85-2.32,17.47-3.97,26.12Z" style="fill:#a7d8d1;"/><path d="M499.19,1407.07c-24.19,4.82-18.11,1.95-44.08,7.02-39.9,7.79-34.46,10.71-62.7,15.25-15.86,2.55-23.9,4.33-24.94,7.02-4.76,12.3,1.35,48.37,11.22,51.57,2.05,.67,3.51,.02,6.41-.61,12.33-2.65,19.52-1.3,32.86-1.17,21.7,.21,27.92-3.1,69.5-4.9,9.81-.42,29.09-1.09,51.35-6.67,4.32-1.08,10.42-2.77,16.76-7.41,2.59-1.9,15.15-11.08,16.8-27.45,.27-2.7,1.07-11.97-4.46-21.17-6.29-10.46-16.73-14.12-21.13-15.59-13.38-4.46-22.66-.85-47.59,4.12Z" style="fill:#fccc44;"/><path d="M499.39,1407.91c-5.42,1.69-10.92,3.09-16.53,4.19-2.81,.54-5.62,.95-8.37,1.42-2.76,.47-5.5,1.01-8.25,1.57-10.98,2.32-22.01,4.73-32.83,7.48-5.42,1.38-10.7,3.01-16.16,4.64-5.47,1.64-11.16,2.91-16.79,3.75-5.66,.88-11.28,1.41-16.86,2.1-2.8,.32-5.58,.7-8.34,1.17-1.38,.24-2.75,.51-4.08,.91-.67,.19-1.32,.42-1.94,.72-.59,.33-1.22,.68-1.56,1.32,.2-.7,.78-1.23,1.34-1.68,.59-.43,1.22-.8,1.86-1.13,1.3-.65,2.65-1.14,4-1.61,2.71-.93,5.48-1.64,8.23-2.34,5.53-1.38,11.1-2.42,16.54-3.68,2.73-.61,5.42-1.3,8.1-2.03,2.67-.77,5.31-1.55,7.96-2.45,2.66-.88,5.35-1.78,8.08-2.63,2.73-.84,5.49-1.61,8.25-2.35,11.08-2.82,22.22-4.86,33.5-6.42,2.82-.37,5.67-.69,8.52-.9,2.85-.22,5.67-.33,8.46-.52,5.6-.35,11.21-1.04,16.87-1.55Z" style="fill:#ea9a26;"/><g><path d="M341.87,1364.78c1.47,4.81,6.44,7.07,7.17,7.39,2.91,1.28,27.21,6.79,56.36,5.41,18.6-.88,56.28-7.11,64.74-6.3,6.5,.63,6.82,2.41,15.42,3.88,10.67,1.81,9.25-.81,20.01,1.22,8.98,1.69,15.42,3.88,19.97,3.95,1.73,.03,4.56-.84,5.49-1.74,.72-.7,1.57-.01,1.82,.03,1.74,.29,2.7,1.24,3.61,1.88,2.48,1.72,6.65,2.51,9.09,1.05,1.18-.71,1.49-1.67,2.76-1.78,1.01-.09,1.31,.48,2.72,.95,1.45,.49,2.79,.35,5.46,.08,2.05-.21,3.09-.32,3.65-.85,1.4-1.31,1.08-3.76,.98-4.54-.02-.14-.2-1.5-.87-2.74-3.42-6.39-16.16-14.81-16.16-14.81-12.69-8.39-18.04-11.2-22.57-12.18-1.83-.4-12.76,.72-19.17,3.35-8.23,2.61-29.76-.49-37.3-1.48-16.6-2.18-71.78-13.65-78.98-14.86-3.96-.67-7.78-1.31-11.82-1.09-18.22,.98-28.98,20.57-29.46,21.4-1.96,3.36-4.25,7.42-2.91,11.79Z" style="fill:#ec7d40;"/><path d="M522.33,1352.06c3.51,.76,6.88,2.13,10.1,3.73,3.23,1.59,6.3,3.48,9.27,5.49,2.95,2.04,5.81,4.21,8.53,6.55,2.72,2.33,5.33,4.8,7.71,7.48l-8.59-6.37c-2.87-2.09-5.74-4.18-8.67-6.16-2.91-2.01-5.89-3.93-8.92-5.75-3.04-1.81-6.15-3.49-9.42-4.97Z" style="fill:#d66730;"/><path d="M516.32,1357.89c3.11,.63,6.1,1.82,8.95,3.21,2.86,1.39,5.57,3.05,8.2,4.83,2.61,1.8,5.13,3.72,7.51,5.8,2.39,2.07,4.68,4.26,6.75,6.67l-7.63-5.55c-2.54-1.83-5.07-3.66-7.66-5.41-2.57-1.78-5.18-3.47-7.85-5.09-2.67-1.6-5.4-3.11-8.27-4.45Z" style="fill:#d66730;"/><path d="M508.49,1363.69c2.07,.28,4.07,.9,6,1.66,1.94,.75,3.79,1.7,5.59,2.71,1.78,1.05,3.52,2.17,5.16,3.43,1.65,1.24,3.22,2.58,4.66,4.09-1.88-.9-3.67-1.9-5.44-2.91l-5.29-3.04c-1.75-1.03-3.51-2.01-5.28-3.01l-5.39-2.94Z" style="fill:#d66730;"/></g><g><path d="M450.7,1386.43h170.9v-7.93h-164.73c-1.15,0-5.17,5.32-5.17,5.32-.89,1.03-.13,2.59,1.36,2.61,.01,0-2.37,0-2.36,0Z" style="fill:#1e1735;"/><g><path d="M551.76,1386.43h130.07c5.49,0,10.31-3.65,11.8-8.94l30.71-109.17c1.02-3.63-1.71-7.23-5.48-7.23h-131.54c-5.54,0-10.4,3.68-11.9,9.01l-30.27,107.6c-1.23,4.38,2.06,8.73,6.61,8.73Z" style="fill:#fff;"/><path d="M551.8,1386.43h130.5c5.43,0,10.19-3.61,11.66-8.84l30.52-108.5c.72-2.56-1.21-5.11-3.87-5.11h-130.5c-5.43,0-10.19,3.61-11.66,8.84l-30.52,108.5c-.72,2.56,1.21,5.11,3.87,5.11Z" style="fill:#1e1735;"/></g></g><path d="M460.56,1137.33c1.42,4.75-4.19,32.57-4.83,35.15-3.21,12.92-13.5,16.4-23.48,16.11-13.87-.41-20.09-11.44-19.73-21.49,.49-13.55,1.74-25.1-.47-51.98-.59-7.22,45.78,13.03,48.51,22.21Z" style="fill:#ec7d40;"/><path d="M441.52,1122.19c-5.15-1.88-5.27-4.48-12.06-1.95-4.8,1.79-8.48,6.43-11.14,12.42,1.72,7.91,6.36,16.78,11.51,22.86,3.42,4.04,8.72,10.3,17.73,11.36,2.73,.32,5.8,.16,8.75-.52,2.12-9.17,5.31-25.5,4.26-29.03-2.74-9.18-14.14-13.34-19.04-15.13Z" style="fill:#d66730;"/><path d="M400.25,1079c-.25-12.42,5.83-21.77,8.04-25.07,10.54-15.74,21.88-19.84,26.1-20.81,14.63-3.4,27.16-3.13,38.79,5.68,21.23,16.08,17.87,51.5,16.32,62.44-1.5,10.54-8.16,42.3-25.78,55.82-3.04,2.33-6.84,4.94-13.17,4.73-8.86-.29-17.07-6.76-20.02-9.93-10.24-11-12.69-19.07-16.48-39.26-3.87-20.62-13.54-21.16-13.8-33.59Z" style="fill:#f79556;"/><path d="M444.32,1142.83c-.23-.38,.03-.87,.47-.9,1.91-.12,6.54-.3,11.81,.23,3.61,.36,6.99,1.3,8.4,1.72,.37,.11,.53,.54,.34,.87-.99,1.73-4.23,6.23-10.66,5.52-5.78-.64-9.2-5.48-10.37-7.44Z" style="fill:#d65b5b;"/><path d="M471.76,1097.23c.51-1.32,1.35-2.41,2.31-3.36,.96-.96,2.08-1.75,3.29-2.38,2.45-1.29,5.38-1.3,8.06-1.03,.68,.08,1.35,.13,2.01,.29l.99,.2c.34,.09,.7,.21,1.05,.31,1.36,.51,2.53,1.3,3.54,2.16,2,1.77-3.37,.97-4.37,.83l-.75-.08-.84-.02c-.55-.04-1.11,.02-1.66,.05-.55,.03-1.09,.16-1.63,.25-.53,.16-1.06,.27-1.57,.47-1.03,.33-2.04,.67-3.12,.92l-3.31,.85c-1.15,.3-2.33,.62-3.68,.89l-.3-.35Z" style="fill:#312553;"/><path d="M425.36,1090.19c2.2-1.64,4.76-2.81,7.47-3.65,2.72-.8,5.66-1.07,8.61-.74,.74,.06,1.47,.22,2.22,.3,.74,.14,1.47,.31,2.22,.48,1.46,.41,2.84,1.12,4.01,2.08,2.32,1.93,4.12,4.52,4.53,7.59l-.43,.31c-2.74-1.25-4.86-2.43-7.02-3.44-1.06-.51-2.06-1.05-3.08-1.65-.52-.28-1.03-.57-1.57-.84-.55-.22-1.1-.48-1.68-.64-1.16-.33-2.35-.6-3.59-.7-1.23-.16-2.49-.19-3.76-.12-2.56,.08-5.14,.64-7.67,1.49l-.25-.47Z" style="fill:#312553;"/><path d="M434.77,1103.94c.03,.7,2.23,2.73,8.58,2.46,2.82-.12,5.61-.94,5.55-2.35-.06-1.35-1.97-3.75-4.41-4.05-4.26-.53-9.78,2.53-9.72,3.94Z" style="fill:#e6e6e6;"/><path d="M439.6,1102.15c1.45-3.73,8.09-2.47,6.79,2.57-1.31,5.05-9.12,3.41-6.79-2.57Z" style="fill:#312553;"/><path d="M449.57,1105.09c-.75-.73-1.47-1.32-2.22-1.66-.74-.35-1.47-.49-2.24-.53-1.53-.07-3.22,.25-5,.56-1.78,.32-3.66,.69-5.68,.77-1.01,.03-2.07,0-3.15-.27-.53-.13-1.08-.35-1.55-.67-.48-.33-.85-.79-1-1.29,.49,.21,.93,.29,1.35,.28,.44-.04,.84-.09,1.27-.21,.83-.21,1.68-.51,2.54-.82,1.73-.6,3.55-1.22,5.54-1.58,1.97-.34,4.17-.51,6.38,.29,1.09,.4,2.13,1.12,2.8,2.06,.67,.94,.98,2.02,.96,3.05Z" style="fill:#312553;"/><path d="M473.64,1107.12c.06,.68,2.21,2.56,8.16,2.06,2.64-.22,3.83-1.48,3.71-2.85-.11-1.3-.61-3.21-2.91-3.41-4.02-.35-9.08,2.83-8.96,4.2Z" style="fill:#e6e6e6;"/><path d="M478.41,1105.46c1.18-3.45,7.27-2.56,6.27,2.08-1,4.64-8.16,3.46-6.27-2.08Z" style="fill:#312553;"/><path d="M487.06,1106.83c-.79-.4-1.48-.81-2.16-1.07-.68-.26-1.3-.4-1.88-.42-1.14-.05-2.26,.31-3.6,.8-1.33,.49-2.79,1.12-4.52,1.46-.86,.16-1.81,.26-2.78,.05-.96-.2-1.86-.78-2.25-1.58,.89,.15,1.59,.01,2.2-.24,.62-.24,1.21-.6,1.83-.97,1.24-.74,2.59-1.6,4.23-2.2,.82-.29,1.72-.54,2.7-.6,.97-.07,2.03,.07,2.97,.49,.94,.41,1.71,1.08,2.25,1.82,.53,.76,.85,1.59,1,2.45Z" style="fill:#312553;"/><path d="M418.58,1123.05c-.61,1.02-2.07,4.7-4.89,4.61-3.01-.09-6.41-2.93-9.68-10.3-3.1-7-2.94-11.07-2.56-12.75,.24-1.07,.95-4.24,3.59-5.63,3.35-1.77,7.46,.58,8.19,1.02,6.81,4.09,9.65,15.86,5.35,23.05Z" style="fill:#f79556;"/><path d="M376.13,1111.07c11.33-5.57,23-10.21,33.04-12.97,42.17-11.6,57.52-40.05,57.52-40.05,0,0,39.89,44.73,28.38,79.78-4.14,12.6-9.31,18.66-9.52,21.67,1.3-.01,2.63-.09,4.02-.25,.24-.03,.48-.05,.72-.07,4.09-6.17,10.1-21.36,10.1-21.36,5.03-14.49,3.04-27.03-.96-52.09-4.65-29.19-10.58-35.93-12.4-38.62-11.2-16.57-21.89-17.83-28.43-14.91-.33-.1-.69-.16-1.01-.29-24.99-10.03-50.84,1.82-64.22,32.41-9.89,22.6-30.91,35.78-38.86,51.2-9.71,18.82-9.46,31.4-8.97,33.37,.26,1.03,6.35-25.91,30.59-37.83Z" style="fill:#1e1735;"/><path d="M452.56,1032.17c-7.51-1.66-15.24-1.89-22.55-.34-1.82,.4-3.63,.87-5.38,1.48-1.75,.61-3.47,1.31-5.13,2.11-3.34,1.58-6.44,3.61-9.26,5.97-5.68,4.68-10.14,10.69-13.53,17.25-.42,.83-.81,1.67-1.21,2.5-.43,.87-.85,1.79-1.31,2.67-.89,1.77-1.9,3.49-2.93,5.18-2.09,3.36-4.43,6.55-6.92,9.58-4.99,6.06-10.56,11.47-15.97,16.85-2.7,2.7-5.38,5.38-7.79,8.24-2.42,2.83-4.51,5.95-6.35,9.22-1.83,3.27-3.37,6.71-4.55,10.28-1.21,3.56-2.07,7.25-2.58,11-1.03,7.51-.71,15.22,.53,22.8-1.95-7.43-2.86-15.21-2.28-22.98,.3-3.88,.96-7.75,1.99-11.53,1.05-3.78,2.49-7.45,4.24-10.97,.88-1.76,1.83-3.48,2.86-5.15,.52-.83,1.04-1.67,1.6-2.5,.56-.82,1.14-1.62,1.73-2.41,2.38-3.14,4.95-6.08,7.56-8.92,5.23-5.68,10.56-11.11,15.25-16.99,1.17-1.47,2.31-2.95,3.4-4.47,1.08-1.52,2.12-3.07,3.11-4.64,.97-1.58,1.92-3.18,2.77-4.83,.44-.82,.82-1.65,1.25-2.49,.45-.89,.89-1.78,1.35-2.66,1.87-3.51,4.07-6.86,6.62-9.95,2.54-3.09,5.42-5.91,8.63-8.31,3.21-2.39,6.71-4.41,10.4-5.91,3.68-1.54,7.58-2.47,11.49-3,1.96-.23,3.93-.37,5.89-.34,1.96,.02,3.92,.13,5.85,.39,1.94,.24,3.85,.64,5.72,1.1l1.4,.38c.46,.14,.92,.29,1.38,.43,.93,.27,1.82,.64,2.72,.97Z" style="fill:#1e1735;"/></g></g><rect x="-468.33" y="-88" width="3000" height="2000" style="fill:none;"/></g></g></svg>