<?xml version="1.0" encoding="UTF-8"?><svg id="a" xmlns="http://www.w3.org/2000/svg" viewBox="0 0 2530.97 1691"><path d="M2148.13,1511.37S2795.8-38.4,1607.25,66.5c-509.06,44.93-414.03,317.52-638.86,572.56-145.73,165.32-426.02,30.08-531.06,174.54-105.04,144.46,18.4,556.37,61.7,697.77h1649.1Z" style="fill:#e5f0f8;"/><g><path d="M516.83,1500.03s-44.88-179.03-156.76-234.29c-111.88-55.25-231.29,20.39-200.97,99.94,26.15,68.59,133.66-15.75,217.31,17.42,83.65,33.17,96.84,116.93,96.84,116.93h43.59Z" style="fill:#40a87b;"/><path d="M180.72,1317.98s120.08-68.43,209.17-5.16c89.09,63.27,117.28,187.22,117.28,187.22" style="fill:none; stroke:#6adb6a; stroke-miterlimit:10; stroke-width:5.04px;"/><line x1="200.09" y1="1285.98" x2="228.02" y2="1298.16" style="fill:none; stroke:#6adb6a; stroke-miterlimit:10; stroke-width:5.04px;"/><line x1="240.43" y1="1259.88" x2="296.08" y2="1285.98" style="fill:none; stroke:#6adb6a; stroke-miterlimit:10; stroke-width:5.04px;"/><line x1="324.04" y1="1259.88" x2="352.99" y2="1294.07" style="fill:none; stroke:#6adb6a; stroke-miterlimit:10; stroke-width:5.04px;"/><line x1="378.91" y1="1282.8" x2="391.92" y2="1314.29" style="fill:none; stroke:#6adb6a; stroke-miterlimit:10; stroke-width:5.04px;"/><line x1="214.05" y1="1361.56" x2="256.94" y2="1290.6" style="fill:none; stroke:#6adb6a; stroke-miterlimit:10; stroke-width:5.04px;"/><line x1="289.82" y1="1351.39" x2="329.16" y2="1288.22" style="fill:none; stroke:#6adb6a; stroke-miterlimit:10; stroke-width:5.04px;"/><line x1="356.64" y1="1341.7" x2="415.77" y2="1334.36" style="fill:none; stroke:#6adb6a; stroke-miterlimit:10; stroke-width:5.04px;"/><line x1="425.48" y1="1377.53" x2="459.38" y2="1388.66" style="fill:none; stroke:#6adb6a; stroke-miterlimit:10; stroke-width:5.04px;"/></g><g><path d="M571.3,1500.03s31.67-600.12-254.97-522.78c-286.64,77.33,223.59,400.77,223.16,522.78h31.81Z" style="fill:#6adb6a;"/><path d="M559.72,1500.03s-10.01-313.54-214.33-468.58" style="fill:none; stroke:#40a87b; stroke-miterlimit:10; stroke-width:5.04px;"/><line x1="435" y1="1122.37" x2="429.9" y2="1014.25" style="fill:none; stroke:#40a87b; stroke-miterlimit:10; stroke-width:5.04px;"/><line x1="274.7" y1="1077.57" x2="412.8" y2="1095.57" style="fill:none; stroke:#40a87b; stroke-miterlimit:10; stroke-width:5.04px;"/><line x1="328.4" y1="1169.85" x2="474.42" y2="1186.86" style="fill:none; stroke:#40a87b; stroke-miterlimit:10; stroke-width:5.04px;"/><line x1="401.41" y1="1261.29" x2="514.2" y2="1277.23" style="fill:none; stroke:#40a87b; stroke-miterlimit:10; stroke-width:5.04px;"/><line x1="525.02" y1="1175.85" x2="499.17" y2="1238.65" style="fill:none; stroke:#40a87b; stroke-miterlimit:10; stroke-width:5.04px;"/><line x1="482.54" y1="1073.91" x2="460.5" y2="1162.34" style="fill:none; stroke:#40a87b; stroke-miterlimit:10; stroke-width:5.04px;"/><line x1="549.15" y1="1280.7" x2="528.56" y2="1321.75" style="fill:none; stroke:#40a87b; stroke-miterlimit:10; stroke-width:5.04px;"/><line x1="460.5" y1="1346.06" x2="541.32" y2="1371.54" style="fill:none; stroke:#40a87b; stroke-miterlimit:10; stroke-width:5.04px;"/></g><path d="M477.26,79.22h-151.69c-9.04,0-16.37,7.33-16.37,16.37v87.33c0,9.04,7.33,16.37,16.37,16.37h60.98v19.7h-40.13c-.79,0-1.42,.64-1.42,1.42v5.04c0,.79,.64,1.42,1.42,1.42h109.99c.79,0,1.42-.64,1.42-1.42v-5.04c0-.79-.64-1.42-1.42-1.42h-40.13v-19.7h60.98c9.04,0,16.37-7.33,16.37-16.37V95.58c0-9.04-7.33-16.37-16.37-16.37Z" style="fill:#e5f0f8;"/><rect x="425.51" y="1495.74" width="1951.15" height="38.17" rx="19.08" ry="19.08" style="fill:#0775ef;"/><g><path d="M924.87,173.46h279.88c4.11,0,7.54-3.19,7.76-7.3,.85-15.47-.88-50.14-33.48-50.16-36.1-.02-47.82,15.4-47.82,15.4,0,0,3.16-62.78-58.65-62.69-56.9,.08-77.6,58.34-77.6,58.34,0,0-54.47-25.64-77.36,35.84-1.9,5.11,1.82,10.56,7.27,10.56Z" style="fill:#e5f0f8;"/><polygon points="1064.87 91.68 1043.67 120.87 1053.92 120.87 1053.92 150.49 1075.83 150.49 1075.83 120.87 1086.08 120.87 1064.87 91.68" style="fill:#fff;"/></g><path d="M322.54,911.73h0l28.14,11,2.26-5.78-8.24-3.22,2.05-5.24,8.24,3.22,3.24-8.3-11.07-4.33,2.05-5.24,11.07,4.33,3.03-7.74-15.46-6.05h0l-3.45-1.35-12.16-4.75-1.52-.59h0l35.91-91.85h.01l18.19,7.11c11.26,4.39,24.04-1.23,28.41-12.42l8.21-20.96c4.36-11.22-1.22-24.02-12.44-28.4l-.25-.1-4.68-1.83-.15-.05-37.52-14.65-2.5-.99-7.79-3.05c-4.75-1.87-9.77-1.93-14.33-.51h-.03c-.23,.08-.48,.15-.71,.24-4.04,1.39-7.66,3.91-10.31,7.35-1.21,1.6-2.25,3.39-3.02,5.35l-.22,.57v.02l-3.47,8.9-.57,1.46-3.91,9.97c-.94,2.38-1.41,4.85-1.49,7.29-.04,1.45,.06,2.87,.3,4.25,.85,5.05,3.44,9.71,7.37,13.08,1.81,1.59,3.91,2.88,6.28,3.8l15.19,5.93,1.92,.74,.63,.24h0l-49.85,127.5c-.74,1.89,.2,4.02,2.09,4.76l5.02,1.96h0l5.04,1.97c1.88,.73,4.01-.19,4.75-2.08l1.3-3.32,3.25,1.27,1.2,.47Zm16.71-178.74l1.87-4.8s.02-.03,.02-.05c.17-.43,.38-.82,.62-1.2,.07-.11,.15-.2,.22-.31,.2-.28,.41-.55,.65-.8,.08-.09,.17-.17,.26-.26,.26-.25,.54-.49,.84-.7,.07-.05,.14-.11,.21-.15,1.16-.77,2.52-1.23,3.92-1.3,.09,0,.19,0,.28,0,.37,0,.75,.02,1.12,.07,.09,.01,.19,.03,.28,.04,.45,.08,.89,.19,1.33,.36l20.49,8.01,.22,.09,7.06,2.76,14,5.47,2.73,1.06,2.91,1.14,5.48,2.14c.74,.29,1.39,.72,1.97,1.21,2.42,2.03,3.48,5.5,2.29,8.55l-8.17,20.93c-.48,1.22-1.28,2.22-2.25,3.01-2.07,1.67-4.95,2.28-7.54,1.26l-29.05-11.36-2.06-.8-17.43-6.82-4.31-1.69c-1.6-.62-2.84-1.78-3.67-3.17-1.16-1.95-1.49-4.38-.64-6.6l4.45-11.35,.75-1.9,1.13-2.86Z" style="fill:#e5f0f8;"/><path d="M1475.5,182.25h-17.33v-23.95c0-12.75-10.37-23.12-23.12-23.12s-23.12,10.37-23.12,23.12v23.95h-17.33c-1.15,0-2.08,.93-2.08,2.07v63.57c0,1.15,.93,2.07,2.08,2.07h80.9c1.15,0,2.08-.92,2.08-2.07v-63.57c0-1.14-.93-2.07-2.08-2.07Zm-56.24-23.95c0-8.71,7.08-15.79,15.79-15.79s15.79,7.08,15.79,15.79v23.95h-31.59v-23.95Z" style="fill:#fff;"/><g><rect x="1154.37" y="1125.02" width="247.04" height="333.94" style="fill:#586773;"/><rect x="511.64" y="268.89" width="1532.51" height="997.69" rx="136" ry="136" style="fill:#586773;"/><rect x="830.04" y="52.47" width="895.71" height="1430.53" rx="85.01" ry="85.01" transform="translate(2045.63 -510.16) rotate(90)" style="fill:#e5f0f8;"/><path d="M1942.16,404.9v46.87H613.61v-46.87c0-18.76,15.28-34.04,34.04-34.04H1908.12c18.76,0,34.04,15.28,34.04,34.04Z" style="fill:#bbdbf3;"/><path d="M1942.17,453.7v678.78c0,18.76-15.28,34.04-34.04,34.04H647.65c-18.76,0-34.04-15.28-34.04-34.04V453.7H1942.17Z" style="fill:#fff;"/><circle cx="686.18" cy="413.89" r="13.05" style="fill:#40a87b;"/><circle cx="722.91" cy="413.89" r="13.05" style="fill:#fff;"/><circle cx="759.63" cy="413.89" r="13.05" style="fill:#f74242;"/><rect x="809.06" y="1430.29" width="937.66" height="65.51" rx="11.82" ry="11.82" style="fill:#586773;"/><rect x="645.5" y="486.3" width="113.63" height="17.67" style="fill:#bbdbf3;"/><polygon points="1059.32 531.17 904.4 531.17 613.61 531.17 613.61 591.31 1942.16 591.31 1942.16 531.17 1059.32 531.17" style="fill:#bbdbf3;"/><rect x="785.27" y="486.3" width="113.63" height="17.67" style="fill:#bbdbf3;"/><rect x="925.05" y="486.3" width="113.63" height="17.67" style="fill:#bbdbf3;"/><rect x="1064.82" y="486.3" width="113.63" height="17.67" style="fill:#bbdbf3;"/><rect x="645.5" y="555.04" width="144.06" height="11.94" style="fill:#fff;"/><rect x="822.71" y="555.04" width="144.06" height="11.94" style="fill:#fff;"/><rect x="999.93" y="555.04" width="144.06" height="11.94" style="fill:#fff;"/><rect x="1177.14" y="555.04" width="144.06" height="11.94" style="fill:#fff;"/><rect x="1204.6" y="486.3" width="113.63" height="17.67" style="fill:#bbdbf3;"/><rect x="1344.37" y="486.3" width="113.63" height="17.67" style="fill:#bbdbf3;"/><rect x="1548.73" y="465.76" width="165.15" height="54.06" style="fill:none; stroke:#bbdbf3; stroke-miterlimit:10; stroke-width:5.34px;"/><rect x="1736.8" y="465.76" width="165.15" height="54.06" style="fill:#bbdbf3;"/><g><path d="M1878.29,775.3c-23.33-94.08-108.3-163.82-209.6-163.82-51.2,0-98.2,17.85-135.21,47.62l135.21,168.36,209.6-52.15Z" style="fill:#6adb6a;"/><path d="M1858.68,959.39c26.99-36.05,42.98-80.81,42.98-129.31,0-17.99-2.24-35.45-6.38-52.15l-209.6,52.15,173,129.31Z" style="fill:#f74242;"/><path d="M1675.2,1043.26c68.11-2.02,128.31-35.51,166.49-86.5l-173-129.31,6.51,215.81Z" style="fill:#f9ecb8;"/><path d="M1667.3,1063.4l-6.51-215.81-152.15,153.26c39.04,38.76,92.79,62.71,152.15,62.71,2.18,0,4.34-.1,6.51-.16Z" style="fill:#f9e181;"/><path d="M1463.23,894.04c10.72,33.11,29.19,62.73,53.32,86.68l152.15-153.26-205.47,66.58Z" style="fill:#2ec6fc;"/><path d="M1533.48,659.1c-49.23,39.59-80.76,100.27-80.76,168.36,0,23.24,3.71,45.6,10.51,66.58l205.47-66.58-135.21-168.36Z" style="fill:#088cfc;"/></g><g><rect x="645.34" y="613.05" width="782.47" height="52.29" style="fill:#bbdbf3;"/><rect x="645.34" y="665.34" width="782.47" height="186.6" style="fill:#e5f0f8;"/><rect x="673.27" y="633.28" width="253.86" height="11.64" style="fill:#fff;"/><rect x="942.6" y="633.28" width="171.9" height="11.64" style="fill:#fff;"/><rect x="673.4" y="683.94" width="726.36" height="149.39" style="fill:none; stroke:#bbdbf3; stroke-miterlimit:10; stroke-width:3.28px;"/><rect x="673.4" y="683.94" width="63.03" height="149.39" style="fill:none; stroke:#bbdbf3; stroke-miterlimit:10; stroke-width:3.28px;"/><rect x="736.42" y="683.94" width="364.31" height="149.39" style="fill:none; stroke:#bbdbf3; stroke-miterlimit:10; stroke-width:3.28px;"/><rect x="1342.27" y="683.94" width="57.49" height="149.39" style="fill:none; stroke:#bbdbf3; stroke-miterlimit:10; stroke-width:3.28px;"/><rect x="1284.78" y="683.94" width="57.49" height="149.39" style="fill:none; stroke:#bbdbf3; stroke-miterlimit:10; stroke-width:3.28px;"/><rect x="1212.95" y="683.94" width="71.83" height="149.39" style="fill:none; stroke:#bbdbf3; stroke-miterlimit:10; stroke-width:3.28px;"/><rect x="1100.73" y="683.94" width="112.21" height="149.39" style="fill:none; stroke:#bbdbf3; stroke-miterlimit:10; stroke-width:3.28px;"/><rect x="673.4" y="728.5" width="726.36" height="34.95" style="fill:none; stroke:#bbdbf3; stroke-miterlimit:10; stroke-width:3.28px;"/><rect x="673.4" y="763.45" width="726.36" height="34.95" style="fill:none; stroke:#bbdbf3; stroke-miterlimit:10; stroke-width:3.28px;"/><rect x="673.4" y="798.39" width="726.36" height="34.95" style="fill:none; stroke:#bbdbf3; stroke-miterlimit:10; stroke-width:3.28px;"/></g><g><rect x="682.46" y="951.42" width="17.84" height="193.25" style="fill:#bbdbf3;"/><rect x="703.74" y="1043.69" width="17.84" height="100.99" style="fill:#f9ecb8;"/><rect x="746.9" y="977.58" width="17.84" height="167.1" style="fill:#bbdbf3;"/><rect x="768.18" y="923.05" width="17.84" height="221.63" style="fill:#f9ecb8;"/><rect x="811.33" y="1041.75" width="17.84" height="102.92" style="fill:#bbdbf3;"/><rect x="832.62" y="971.14" width="17.84" height="173.53" style="fill:#f9ecb8;"/><rect x="875.77" y="939.43" width="17.84" height="205.24" style="fill:#bbdbf3;"/><rect x="897.05" y="967.05" width="17.84" height="177.63" style="fill:#f9ecb8;"/><rect x="940.21" y="1086.09" width="17.84" height="58.58" style="fill:#bbdbf3;"/><rect x="1004.65" y="1039.55" width="17.84" height="105.13" style="fill:#bbdbf3;"/><rect x="961.49" y="992.4" width="17.84" height="152.27" style="fill:#f9ecb8;"/><rect x="1025.93" y="1101.56" width="17.84" height="43.11" style="fill:#f9ecb8;"/><rect x="1069.08" y="927.3" width="17.84" height="217.38" style="fill:#bbdbf3;"/><rect x="1090.37" y="959.39" width="17.84" height="185.28" style="fill:#f9ecb8;"/><polyline points="656.14 871.71 656.14 1144.67 1155.22 1144.67" style="fill:none; stroke:#bbdbf3; stroke-miterlimit:10; stroke-width:3.19px;"/></g><g><g><rect x="1362.91" y="1088.47" width="54.2" height="56.2" style="fill:#fff; stroke:#bbdbf3; stroke-miterlimit:10; stroke-width:4.32px;"/><rect x="1228.6" y="1088.47" width="134.3" height="56.2" style="fill:#fff; stroke:#bbdbf3; stroke-miterlimit:10; stroke-width:4.32px;"/><rect x="1179.79" y="1088.47" width="48.81" height="56.2" style="fill:#fff; stroke:#bbdbf3; stroke-miterlimit:10; stroke-width:4.32px;"/><rect x="1417.11" y="1088.47" width="44.19" height="56.2" style="fill:#fff; stroke:#bbdbf3; stroke-miterlimit:10; stroke-width:4.32px;"/><rect x="1461.3" y="1088.47" width="47.65" height="56.2" style="fill:#fff; stroke:#bbdbf3; stroke-miterlimit:10; stroke-width:4.32px;"/></g><rect x="1362.91" y="1032.27" width="54.2" height="56.2" style="fill:#fff; stroke:#bbdbf3; stroke-miterlimit:10; stroke-width:4.32px;"/><rect x="1228.6" y="1032.27" width="134.3" height="56.2" style="fill:#fff; stroke:#bbdbf3; stroke-miterlimit:10; stroke-width:4.32px;"/><rect x="1179.79" y="1032.27" width="48.81" height="56.2" style="fill:#fff; stroke:#bbdbf3; stroke-miterlimit:10; stroke-width:4.32px;"/><rect x="1417.11" y="1032.27" width="44.19" height="56.2" style="fill:#fff; stroke:#bbdbf3; stroke-miterlimit:10; stroke-width:4.32px;"/><rect x="1461.3" y="1032.27" width="47.65" height="56.2" style="fill:#fff; stroke:#bbdbf3; stroke-miterlimit:10; stroke-width:4.32px;"/><rect x="1244.11" y="1055.01" width="103.3" height="10.72" style="fill:#e5f0f8;"/><rect x="1244.11" y="1111.21" width="103.3" height="10.72" style="fill:#e5f0f8;"/></g></g><path d="M344.64,496.67c-.37,22.04-17.36,40-38.8,42,4.18,20.09,11.65,39.58,22.53,57.68,17.12-13.19,41.72-11.76,57.13,4.24,4.05,4.14,7.05,8.99,9.09,14.07,5.57,14.24,3.18,30.89-6.92,43.13,11.44,7.45,23.5,13.49,35.97,18.23,5.66,2.11,11.43,3.98,17.23,5.53,1.14,.36,2.34,.63,3.46,.92,2.86-21.43,21.35-37.7,43.39-37.32,11.15,.24,21.17,4.6,28.61,11.68,7.42,6.93,12.32,16.49,13.39,27.12,20.01-4.16,39.51-11.64,57.54-22.51-13.05-17.15-11.52-41.68,4.33-57.07,15.94-15.32,40.53-15.89,57.2-2.17,11.48-17.63,19.7-36.9,24.59-56.72-21.36-2.87-37.61-21.29-37.16-43.34,.37-22.04,17.36-40,38.8-42-4.17-20.01-11.65-39.58-22.52-57.61-15.26,11.82-36.7,11.81-52.05,.12-1.73-1.19-3.43-2.7-5.01-4.38-15.41-16-15.98-40.59-2.17-57.2-10.75-7.02-22.09-12.86-33.85-17.48-5.66-2.11-11.36-4.07-17.17-5.69-1.94-.54-3.87-1.09-5.8-1.55-2.79,21.42-21.27,37.69-43.33,37.24-4.02-.06-7.9-.68-11.53-1.73-16.52-4.95-28.76-19.45-30.45-37-20.01,4.16-39.51,11.64-57.53,22.51,13.04,17.15,11.52,41.68-4.33,57.07-15.94,15.32-40.53,15.89-57.2,2.17-11.48,17.63-19.7,36.9-24.67,56.73,21.42,2.79,37.61,21.29,37.24,43.33Zm82.38-63c10.1-9.77,21.89-16.72,34.42-20.86,16.19-5.41,33.58-6.15,50.1-2.21,5.84,1.31,11.63,3.33,17.14,5.93,10.06,4.58,19.42,11.12,27.54,19.56,10.15,10.51,17.27,22.88,21.33,35.89,10.06,31.96,2,68.33-23.77,93.15-3.08,2.96-6.35,5.71-9.75,8.1-21.29,15.63-47.71,20.73-72.37,15.52-5.9-1.23-11.67-3.09-17.3-5.52-10.83-4.61-20.93-11.43-29.61-20.47-3.42-3.55-6.48-7.31-9.26-11.26-25.22-36.13-21.19-86.28,11.54-117.83Z" style="fill:#93acbf;"/><path d="M781.25,271.34l3.6-13.57-7.58-8.27-3.57,13.56,7.55,8.28Zm-191.49-18.3c4.5,12.85,10.77,25.17,19.03,36.63,9.47-8.36,22.16-9.5,28.67-2.34,6.47,7.03,4.31,19.64-4.82,28.33,10.6,9.21,22.34,16.55,34.71,22.15,4.04-11.95,14.58-19.2,23.69-16.33,9.14,2.86,13.59,14.93,10.01,26.96,4.22,.77,8.46,1.38,12.71,1.75,9.43,.92,18.96,.92,28.44,.08-2.48-12.4,2.96-23.94,12.35-26,1.04-.23,2.08-.32,3.09-.29,3.11,.02,6.21,1.11,8.92,3.07,4.69,3.23,8.45,8.8,10.08,15.6,2.07-.71,4.13-1.49,6.2-2.34,10.6-4.24,20.8-9.74,30.37-16.67-8.31-9.41-9.39-22.15-2.24-28.7,7.04-6.44,19.65-4.27,28.34,4.85,9.16-10.66,16.54-22.37,22.1-34.73-11.9-3.98-19.22-14.54-16.29-23.67,2.86-9.14,14.83-13.6,26.9-9.99,2.53-13.58,3.14-27.48,1.85-41.19-12.31,2.56-23.83-2.96-25.98-12.28-2.03-9.39,6.12-19.22,18.4-22.13-4.49-12.81-10.77-25.17-19.02-36.6-2.3,2.03-4.82,3.65-7.37,4.79-7.02,3.19-14.51,2.95-19.51-.87-.64-.49-1.23-1.03-1.79-1.62-6.52-7.08-4.27-19.65,4.83-28.3-1.33-1.14-2.67-2.29-4.04-3.35-9.53-7.74-19.88-13.99-30.69-18.9-.77,2.26-1.73,4.32-2.9,6.2-4.99,8.2-13.31,12.55-20.75,10.16-9.15-2.89-13.57-14.87-9.99-26.9-13.58-2.53-27.48-3.14-41.19-1.85,2.48,12.4-3.02,23.88-12.28,25.98-9.38,2.06-19.27-6.15-22.19-18.35-12.78,4.48-25.17,10.77-36.57,19.02,8.38,9.4,9.39,22.15,2.33,28.63-7.09,6.49-19.71,4.32-28.35-4.78-9.18,10.59-16.59,22.35-22.2,34.65,11.95,4.04,19.23,14.57,16.4,23.71-2.93,9.16-14.91,13.55-26.97,9.98-2.54,13.54-3.15,27.45-1.81,41.22,12.28-2.51,23.85,2.92,25.91,12.3,2.08,9.34-6.11,19.15-18.36,22.12Zm174.49,45.72c-12.42,4.84-25.62,7.05-38.7,6.69-24.7-.57-49.15-10.19-68.02-28.54l57.47-52.61c7.26,4.73,16.6,5.18,24.2,1.07l5.81,6.36,28.68,31.32,7.55,8.28,10.52,11.48c-5.19,4.22-10.69,7.86-16.39,10.92-3.61,1.91-7.33,3.6-11.12,5.03Zm41.58-157.52l.62-.57c2.49,3.02,4.76,6.17,6.81,9.42,5.63,8.77,9.78,18.22,12.36,27.95,9.02,33.49,.42,70.59-25.13,96.84l-.32-.37-15.34-16.74-7.58-8.27-28.69-31.35-.69-.76c.67-1.01,1.23-2.03,1.73-3.11,1.16-2.51,1.88-5.18,2.08-7.92,.37-4.46-.54-9.04-2.73-13.15l8.19-7.49,48.68-44.48Zm-30.09-25.99c8.15,4.36,15.8,9.9,22.72,16.62l-35.76,32.76-21.72,19.92c-7.25-4.8-16.56-5.19-24.18-1.11l-52.56-57.41c32.21-26.37,76.37-29.63,111.5-10.78Zm-120.24,18.72l52.64,57.46c-4.75,7.2-5.2,16.53-1.09,24.14l-57.46,52.64c-32.39-39.76-29.85-97.52,5.9-134.24Z" style="fill:#93acbf;"/><g><path d="M1635.63-4.54h363.63V516.79h-363.63c-6.18,0-11.19-5.01-11.19-11.19V6.65c0-6.18,5.01-11.19,11.19-11.19Z" transform="translate(2067.98 -1555.73) rotate(90)" style="fill:#088cfc;"/><rect x="1558.63" y="102.73" width="506.45" height="331.91" style="fill:#fff;"/><path d="M1574.65,86.19c0,3.88-3.15,7.03-7.03,7.03s-7.03-3.15-7.03-7.03,3.15-7.03,7.03-7.03,7.03,3.15,7.03,7.03Z" style="fill:#6adb6a;"/><path d="M1594.44,86.19c0,3.88-3.15,7.03-7.03,7.03s-7.03-3.15-7.03-7.03,3.15-7.03,7.03-7.03,7.03,3.15,7.03,7.03Z" style="fill:#fff;"/><path d="M1614.23,86.19c0,3.88-3.15,7.03-7.03,7.03s-7.03-3.15-7.03-7.03,3.15-7.03,7.03-7.03,7.03,3.15,7.03,7.03Z" style="fill:#f74242;"/><g><path d="M1691.18,408.8c-13.05,0-25.2-7.03-31.71-18.35-6.5-11.32-6.46-25.35,.11-36.63l120.68-207.09c6.53-11.2,18.64-18.16,31.6-18.16s25.07,6.96,31.6,18.16l120.68,207.08c6.57,11.28,6.61,25.32,.11,36.64-6.5,11.32-18.65,18.35-31.71,18.35h-241.36Z" style="fill:#f74242;"/><path d="M1804,160.57l-120.68,207.08c-3.53,6.06,.84,13.66,7.85,13.66h241.36c7.01,0,11.38-7.6,7.85-13.66l-120.68-207.08c-3.5-6.01-12.19-6.01-15.7,0Z" style="fill:#fff;"/><path d="M1797.53,351.06c0-3.9,1.41-7.27,4.24-10.08,2.81-2.83,6.18-4.24,10.08-4.24s7.27,1.41,10.08,4.24c2.83,2.82,4.24,6.18,4.24,10.08s-1.41,7.27-4.24,10.09c-2.81,2.83-6.18,4.23-10.08,4.23s-7.27-1.4-10.08-4.23c-2.83-2.82-4.24-6.18-4.24-10.09Zm24.3-31.25h-20.82v-109.35h20.82v109.35Z" style="fill:#f74242;"/></g></g><g><rect x="1867.74" y="572.22" width="403.17" height="924.22" rx="9.43" ry="9.43" style="fill:#bbdbf3;"/><rect x="1807.29" y="572.22" width="403.17" height="924.22" rx="9.43" ry="9.43" style="fill:#fff;"/><g><rect x="1837.12" y="601.54" width="343.52" height="116.09" style="fill:#586773;"/><path d="M2151.7,652.9h-285.64c-10.65,0-19.36-8.71-19.36-19.36h0c0-10.65,8.71-19.36,19.36-19.36h285.64c10.65,0,19.36,8.71,19.36,19.36h0c0,10.65-8.71,19.36-19.36,19.36Z" style="fill:#93acbf;"/><rect x="1864.86" y="626.89" width="119.97" height="13.3" style="fill:#98eb98;"/><g><path d="M2067.23,623.13c0,2.08-1.69,3.77-3.77,3.77s-3.77-1.69-3.77-3.77,1.69-3.77,3.77-3.77,3.77,1.69,3.77,3.77Z" style="fill:#586773;"/><path d="M2067.23,633.54c0,2.08-1.69,3.77-3.77,3.77s-3.77-1.69-3.77-3.77,1.69-3.77,3.77-3.77,3.77,1.69,3.77,3.77Z" style="fill:#586773;"/><path d="M2067.23,643.96c0,2.08-1.69,3.77-3.77,3.77s-3.77-1.69-3.77-3.77,1.69-3.77,3.77-3.77,3.77,1.69,3.77,3.77Z" style="fill:#586773;"/></g><g><path d="M2079.95,623.13c0,2.08-1.69,3.77-3.77,3.77s-3.77-1.69-3.77-3.77,1.69-3.77,3.77-3.77,3.77,1.69,3.77,3.77Z" style="fill:#586773;"/><path d="M2079.95,633.54c0,2.08-1.69,3.77-3.77,3.77s-3.77-1.69-3.77-3.77,1.69-3.77,3.77-3.77,3.77,1.69,3.77,3.77Z" style="fill:#586773;"/><path d="M2079.95,643.96c0,2.08-1.69,3.77-3.77,3.77s-3.77-1.69-3.77-3.77,1.69-3.77,3.77-3.77,3.77,1.69,3.77,3.77Z" style="fill:#586773;"/></g><g><path d="M2092.67,623.13c0,2.08-1.69,3.77-3.77,3.77s-3.77-1.69-3.77-3.77,1.69-3.77,3.77-3.77,3.77,1.69,3.77,3.77Z" style="fill:#586773;"/><path d="M2092.67,633.54c0,2.08-1.69,3.77-3.77,3.77s-3.77-1.69-3.77-3.77,1.69-3.77,3.77-3.77,3.77,1.69,3.77,3.77Z" style="fill:#586773;"/><path d="M2092.67,643.96c0,2.08-1.69,3.77-3.77,3.77s-3.77-1.69-3.77-3.77,1.69-3.77,3.77-3.77,3.77,1.69,3.77,3.77Z" style="fill:#586773;"/></g><g><path d="M2105.39,623.13c0,2.08-1.69,3.77-3.77,3.77s-3.77-1.69-3.77-3.77,1.69-3.77,3.77-3.77,3.77,1.69,3.77,3.77Z" style="fill:#586773;"/><path d="M2105.39,633.54c0,2.08-1.69,3.77-3.77,3.77s-3.77-1.69-3.77-3.77,1.69-3.77,3.77-3.77,3.77,1.69,3.77,3.77Z" style="fill:#586773;"/><path d="M2105.39,643.96c0,2.08-1.69,3.77-3.77,3.77s-3.77-1.69-3.77-3.77,1.69-3.77,3.77-3.77,3.77,1.69,3.77,3.77Z" style="fill:#586773;"/></g><path d="M2041.78,633.54c0,3.67-8.02,6.65-17.92,6.65s-17.92-2.98-17.92-6.65,8.02-6.65,17.92-6.65,17.92,2.98,17.92,6.65Z" style="fill:#586773;"/><rect x="2114.92" y="625.01" width="38.45" height="17.07" style="fill:#bbdbf3;"/><rect x="1846.7" y="665.08" width="324.36" height="38.72" rx="19.36" ry="19.36" style="fill:#93acbf;"/><rect x="1864.86" y="677.78" width="119.97" height="13.3" style="fill:#98eb98;"/><g><path d="M2067.23,674.02c0,2.08-1.69,3.77-3.77,3.77s-3.77-1.69-3.77-3.77,1.69-3.77,3.77-3.77,3.77,1.69,3.77,3.77Z" style="fill:#586773;"/><path d="M2067.23,684.43c0,2.08-1.69,3.77-3.77,3.77s-3.77-1.69-3.77-3.77,1.69-3.77,3.77-3.77,3.77,1.69,3.77,3.77Z" style="fill:#586773;"/><path d="M2067.23,694.85c0,2.08-1.69,3.77-3.77,3.77s-3.77-1.69-3.77-3.77,1.69-3.77,3.77-3.77,3.77,1.69,3.77,3.77Z" style="fill:#586773;"/></g><g><path d="M2079.95,674.02c0,2.08-1.69,3.77-3.77,3.77s-3.77-1.69-3.77-3.77,1.69-3.77,3.77-3.77,3.77,1.69,3.77,3.77Z" style="fill:#586773;"/><path d="M2079.95,684.43c0,2.08-1.69,3.77-3.77,3.77s-3.77-1.69-3.77-3.77,1.69-3.77,3.77-3.77,3.77,1.69,3.77,3.77Z" style="fill:#586773;"/><path d="M2079.95,694.85c0,2.08-1.69,3.77-3.77,3.77s-3.77-1.69-3.77-3.77,1.69-3.77,3.77-3.77,3.77,1.69,3.77,3.77Z" style="fill:#586773;"/></g><g><path d="M2092.67,674.02c0,2.08-1.69,3.77-3.77,3.77s-3.77-1.69-3.77-3.77,1.69-3.77,3.77-3.77,3.77,1.69,3.77,3.77Z" style="fill:#586773;"/><path d="M2092.67,684.43c0,2.08-1.69,3.77-3.77,3.77s-3.77-1.69-3.77-3.77,1.69-3.77,3.77-3.77,3.77,1.69,3.77,3.77Z" style="fill:#586773;"/><path d="M2092.67,694.85c0,2.08-1.69,3.77-3.77,3.77s-3.77-1.69-3.77-3.77,1.69-3.77,3.77-3.77,3.77,1.69,3.77,3.77Z" style="fill:#586773;"/></g><g><path d="M2105.39,674.02c0,2.08-1.69,3.77-3.77,3.77s-3.77-1.69-3.77-3.77,1.69-3.77,3.77-3.77,3.77,1.69,3.77,3.77Z" style="fill:#586773;"/><path d="M2105.39,684.43c0,2.08-1.69,3.77-3.77,3.77s-3.77-1.69-3.77-3.77,1.69-3.77,3.77-3.77,3.77,1.69,3.77,3.77Z" style="fill:#586773;"/><path d="M2105.39,694.85c0,2.08-1.69,3.77-3.77,3.77s-3.77-1.69-3.77-3.77,1.69-3.77,3.77-3.77,3.77,1.69,3.77,3.77Z" style="fill:#586773;"/></g><path d="M2041.78,684.43c0,3.67-8.02,6.65-17.92,6.65s-17.92-2.98-17.92-6.65,8.02-6.65,17.92-6.65,17.92,2.98,17.92,6.65Z" style="fill:#586773;"/><rect x="2114.92" y="675.9" width="38.45" height="17.07" style="fill:#bbdbf3;"/></g><g><rect x="1837.12" y="717.63" width="343.52" height="116.09" style="fill:#586773;"/><rect x="1846.7" y="730.27" width="324.36" height="38.72" rx="19.36" ry="19.36" style="fill:#93acbf;"/><rect x="1864.86" y="742.98" width="119.97" height="13.3" style="fill:#98eb98;"/><g><path d="M2067.23,739.21c0,2.08-1.69,3.77-3.77,3.77s-3.77-1.69-3.77-3.77,1.69-3.77,3.77-3.77,3.77,1.69,3.77,3.77Z" style="fill:#586773;"/><path d="M2067.23,749.63c0,2.08-1.69,3.77-3.77,3.77s-3.77-1.69-3.77-3.77,1.69-3.77,3.77-3.77,3.77,1.69,3.77,3.77Z" style="fill:#586773;"/><path d="M2067.23,760.05c0,2.08-1.69,3.77-3.77,3.77s-3.77-1.69-3.77-3.77,1.69-3.77,3.77-3.77,3.77,1.69,3.77,3.77Z" style="fill:#586773;"/></g><g><path d="M2079.95,739.21c0,2.08-1.69,3.77-3.77,3.77s-3.77-1.69-3.77-3.77,1.69-3.77,3.77-3.77,3.77,1.69,3.77,3.77Z" style="fill:#586773;"/><path d="M2079.95,749.63c0,2.08-1.69,3.77-3.77,3.77s-3.77-1.69-3.77-3.77,1.69-3.77,3.77-3.77,3.77,1.69,3.77,3.77Z" style="fill:#586773;"/><path d="M2079.95,760.05c0,2.08-1.69,3.77-3.77,3.77s-3.77-1.69-3.77-3.77,1.69-3.77,3.77-3.77,3.77,1.69,3.77,3.77Z" style="fill:#586773;"/></g><g><path d="M2092.67,739.21c0,2.08-1.69,3.77-3.77,3.77s-3.77-1.69-3.77-3.77,1.69-3.77,3.77-3.77,3.77,1.69,3.77,3.77Z" style="fill:#586773;"/><path d="M2092.67,749.63c0,2.08-1.69,3.77-3.77,3.77s-3.77-1.69-3.77-3.77,1.69-3.77,3.77-3.77,3.77,1.69,3.77,3.77Z" style="fill:#586773;"/><path d="M2092.67,760.05c0,2.08-1.69,3.77-3.77,3.77s-3.77-1.69-3.77-3.77,1.69-3.77,3.77-3.77,3.77,1.69,3.77,3.77Z" style="fill:#586773;"/></g><g><path d="M2105.39,739.21c0,2.08-1.69,3.77-3.77,3.77s-3.77-1.69-3.77-3.77,1.69-3.77,3.77-3.77,3.77,1.69,3.77,3.77Z" style="fill:#586773;"/><path d="M2105.39,749.63c0,2.08-1.69,3.77-3.77,3.77s-3.77-1.69-3.77-3.77,1.69-3.77,3.77-3.77,3.77,1.69,3.77,3.77Z" style="fill:#586773;"/><path d="M2105.39,760.05c0,2.08-1.69,3.77-3.77,3.77s-3.77-1.69-3.77-3.77,1.69-3.77,3.77-3.77,3.77,1.69,3.77,3.77Z" style="fill:#586773;"/></g><path d="M2041.78,749.63c0,3.67-8.02,6.65-17.92,6.65s-17.92-2.98-17.92-6.65,8.02-6.65,17.92-6.65,17.92,2.98,17.92,6.65Z" style="fill:#586773;"/><rect x="2114.92" y="741.1" width="38.45" height="17.07" style="fill:#bbdbf3;"/><path d="M2151.7,819.88h-285.64c-10.65,0-19.36-8.71-19.36-19.36h0c0-10.65,8.71-19.36,19.36-19.36h285.64c10.65,0,19.36,8.71,19.36,19.36h0c0,10.65-8.71,19.36-19.36,19.36Z" style="fill:#93acbf;"/><rect x="1864.86" y="793.87" width="119.97" height="13.3" style="fill:#98eb98;"/><g><path d="M2067.23,790.1c0,2.08-1.69,3.77-3.77,3.77s-3.77-1.69-3.77-3.77,1.69-3.77,3.77-3.77,3.77,1.69,3.77,3.77Z" style="fill:#586773;"/><path d="M2067.23,800.52c0,2.08-1.69,3.77-3.77,3.77s-3.77-1.69-3.77-3.77,1.69-3.77,3.77-3.77,3.77,1.69,3.77,3.77Z" style="fill:#586773;"/><path d="M2067.23,810.94c0,2.08-1.69,3.77-3.77,3.77s-3.77-1.69-3.77-3.77,1.69-3.77,3.77-3.77,3.77,1.69,3.77,3.77Z" style="fill:#586773;"/></g><g><path d="M2079.95,790.1c0,2.08-1.69,3.77-3.77,3.77s-3.77-1.69-3.77-3.77,1.69-3.77,3.77-3.77,3.77,1.69,3.77,3.77Z" style="fill:#586773;"/><path d="M2079.95,800.52c0,2.08-1.69,3.77-3.77,3.77s-3.77-1.69-3.77-3.77,1.69-3.77,3.77-3.77,3.77,1.69,3.77,3.77Z" style="fill:#586773;"/><path d="M2079.95,810.94c0,2.08-1.69,3.77-3.77,3.77s-3.77-1.69-3.77-3.77,1.69-3.77,3.77-3.77,3.77,1.69,3.77,3.77Z" style="fill:#586773;"/></g><g><path d="M2092.67,790.1c0,2.08-1.69,3.77-3.77,3.77s-3.77-1.69-3.77-3.77,1.69-3.77,3.77-3.77,3.77,1.69,3.77,3.77Z" style="fill:#586773;"/><path d="M2092.67,800.52c0,2.08-1.69,3.77-3.77,3.77s-3.77-1.69-3.77-3.77,1.69-3.77,3.77-3.77,3.77,1.69,3.77,3.77Z" style="fill:#586773;"/><path d="M2092.67,810.94c0,2.08-1.69,3.77-3.77,3.77s-3.77-1.69-3.77-3.77,1.69-3.77,3.77-3.77,3.77,1.69,3.77,3.77Z" style="fill:#586773;"/></g><g><path d="M2105.39,790.1c0,2.08-1.69,3.77-3.77,3.77s-3.77-1.69-3.77-3.77,1.69-3.77,3.77-3.77,3.77,1.69,3.77,3.77Z" style="fill:#586773;"/><path d="M2105.39,800.52c0,2.08-1.69,3.77-3.77,3.77s-3.77-1.69-3.77-3.77,1.69-3.77,3.77-3.77,3.77,1.69,3.77,3.77Z" style="fill:#586773;"/><path d="M2105.39,810.94c0,2.08-1.69,3.77-3.77,3.77s-3.77-1.69-3.77-3.77,1.69-3.77,3.77-3.77,3.77,1.69,3.77,3.77Z" style="fill:#586773;"/></g><path d="M2041.78,800.52c0,3.67-8.02,6.65-17.92,6.65s-17.92-2.98-17.92-6.65,8.02-6.65,17.92-6.65,17.92,2.98,17.92,6.65Z" style="fill:#586773;"/><rect x="2114.92" y="791.99" width="38.45" height="17.07" style="fill:#bbdbf3;"/></g><g><rect x="1837.12" y="1167.95" width="343.52" height="116.09" style="fill:#586773;"/><path d="M2151.7,1219.31h-285.64c-10.65,0-19.36-8.71-19.36-19.36h0c0-10.65,8.71-19.36,19.36-19.36h285.64c10.65,0,19.36,8.71,19.36,19.36h0c0,10.65-8.71,19.36-19.36,19.36Z" style="fill:#93acbf;"/><rect x="1864.86" y="1193.31" width="119.97" height="13.3" style="fill:#98eb98;"/><g><path d="M2067.23,1189.54c0,2.08-1.69,3.77-3.77,3.77s-3.77-1.69-3.77-3.77,1.69-3.77,3.77-3.77,3.77,1.69,3.77,3.77Z" style="fill:#586773;"/><path d="M2067.23,1199.95c0,2.08-1.69,3.77-3.77,3.77s-3.77-1.69-3.77-3.77,1.69-3.77,3.77-3.77,3.77,1.69,3.77,3.77Z" style="fill:#586773;"/><path d="M2067.23,1210.37c0,2.08-1.69,3.77-3.77,3.77s-3.77-1.69-3.77-3.77,1.69-3.77,3.77-3.77,3.77,1.69,3.77,3.77Z" style="fill:#586773;"/></g><g><path d="M2079.95,1189.54c0,2.08-1.69,3.77-3.77,3.77s-3.77-1.69-3.77-3.77,1.69-3.77,3.77-3.77,3.77,1.69,3.77,3.77Z" style="fill:#586773;"/><path d="M2079.95,1199.95c0,2.08-1.69,3.77-3.77,3.77s-3.77-1.69-3.77-3.77,1.69-3.77,3.77-3.77,3.77,1.69,3.77,3.77Z" style="fill:#586773;"/><path d="M2079.95,1210.37c0,2.08-1.69,3.77-3.77,3.77s-3.77-1.69-3.77-3.77,1.69-3.77,3.77-3.77,3.77,1.69,3.77,3.77Z" style="fill:#586773;"/></g><g><path d="M2092.67,1189.54c0,2.08-1.69,3.77-3.77,3.77s-3.77-1.69-3.77-3.77,1.69-3.77,3.77-3.77,3.77,1.69,3.77,3.77Z" style="fill:#586773;"/><path d="M2092.67,1199.95c0,2.08-1.69,3.77-3.77,3.77s-3.77-1.69-3.77-3.77,1.69-3.77,3.77-3.77,3.77,1.69,3.77,3.77Z" style="fill:#586773;"/><path d="M2092.67,1210.37c0,2.08-1.69,3.77-3.77,3.77s-3.77-1.69-3.77-3.77,1.69-3.77,3.77-3.77,3.77,1.69,3.77,3.77Z" style="fill:#586773;"/></g><g><path d="M2105.39,1189.54c0,2.08-1.69,3.77-3.77,3.77s-3.77-1.69-3.77-3.77,1.69-3.77,3.77-3.77,3.77,1.69,3.77,3.77Z" style="fill:#586773;"/><path d="M2105.39,1199.95c0,2.08-1.69,3.77-3.77,3.77s-3.77-1.69-3.77-3.77,1.69-3.77,3.77-3.77,3.77,1.69,3.77,3.77Z" style="fill:#586773;"/><path d="M2105.39,1210.37c0,2.08-1.69,3.77-3.77,3.77s-3.77-1.69-3.77-3.77,1.69-3.77,3.77-3.77,3.77,1.69,3.77,3.77Z" style="fill:#586773;"/></g><ellipse cx="2023.86" cy="1199.95" rx="17.92" ry="6.65" style="fill:#586773;"/><rect x="2114.92" y="1191.42" width="38.45" height="17.07" style="fill:#bbdbf3;"/><path d="M2151.7,1270.2h-285.64c-10.65,0-19.36-8.71-19.36-19.36h0c0-10.65,8.71-19.36,19.36-19.36h285.64c10.65,0,19.36,8.71,19.36,19.36h0c0,10.65-8.71,19.36-19.36,19.36Z" style="fill:#93acbf;"/><rect x="1864.86" y="1244.2" width="119.97" height="13.3" style="fill:#98eb98;"/><g><path d="M2067.23,1240.43c0,2.08-1.69,3.77-3.77,3.77s-3.77-1.69-3.77-3.77,1.69-3.77,3.77-3.77,3.77,1.69,3.77,3.77Z" style="fill:#586773;"/><path d="M2067.23,1250.85c0,2.08-1.69,3.77-3.77,3.77s-3.77-1.69-3.77-3.77,1.69-3.77,3.77-3.77,3.77,1.69,3.77,3.77Z" style="fill:#586773;"/><path d="M2067.23,1261.26c0,2.08-1.69,3.77-3.77,3.77s-3.77-1.69-3.77-3.77,1.69-3.77,3.77-3.77,3.77,1.69,3.77,3.77Z" style="fill:#586773;"/></g><g><path d="M2079.95,1240.43c0,2.08-1.69,3.77-3.77,3.77s-3.77-1.69-3.77-3.77,1.69-3.77,3.77-3.77,3.77,1.69,3.77,3.77Z" style="fill:#586773;"/><path d="M2079.95,1250.85c0,2.08-1.69,3.77-3.77,3.77s-3.77-1.69-3.77-3.77,1.69-3.77,3.77-3.77,3.77,1.69,3.77,3.77Z" style="fill:#586773;"/><path d="M2079.95,1261.26c0,2.08-1.69,3.77-3.77,3.77s-3.77-1.69-3.77-3.77,1.69-3.77,3.77-3.77,3.77,1.69,3.77,3.77Z" style="fill:#586773;"/></g><g><path d="M2092.67,1240.43c0,2.08-1.69,3.77-3.77,3.77s-3.77-1.69-3.77-3.77,1.69-3.77,3.77-3.77,3.77,1.69,3.77,3.77Z" style="fill:#586773;"/><path d="M2092.67,1250.85c0,2.08-1.69,3.77-3.77,3.77s-3.77-1.69-3.77-3.77,1.69-3.77,3.77-3.77,3.77,1.69,3.77,3.77Z" style="fill:#586773;"/><path d="M2092.67,1261.26c0,2.08-1.69,3.77-3.77,3.77s-3.77-1.69-3.77-3.77,1.69-3.77,3.77-3.77,3.77,1.69,3.77,3.77Z" style="fill:#586773;"/></g><g><path d="M2105.39,1240.43c0,2.08-1.69,3.77-3.77,3.77s-3.77-1.69-3.77-3.77,1.69-3.77,3.77-3.77,3.77,1.69,3.77,3.77Z" style="fill:#586773;"/><path d="M2105.39,1250.85c0,2.08-1.69,3.77-3.77,3.77s-3.77-1.69-3.77-3.77,1.69-3.77,3.77-3.77,3.77,1.69,3.77,3.77Z" style="fill:#586773;"/><path d="M2105.39,1261.26c0,2.08-1.69,3.77-3.77,3.77s-3.77-1.69-3.77-3.77,1.69-3.77,3.77-3.77,3.77,1.69,3.77,3.77Z" style="fill:#586773;"/></g><ellipse cx="2023.86" cy="1250.85" rx="17.92" ry="6.65" style="fill:#586773;"/><rect x="2114.92" y="1242.31" width="38.45" height="17.07" style="fill:#bbdbf3;"/></g><g><rect x="1837.12" y="1284.04" width="343.52" height="116.09" style="fill:#586773;"/><rect x="1846.7" y="1296.68" width="324.36" height="38.72" rx="19.36" ry="19.36" style="fill:#93acbf;"/><rect x="1864.86" y="1309.39" width="119.97" height="13.3" style="fill:#98eb98;"/><g><path d="M2067.23,1305.62c0,2.08-1.69,3.77-3.77,3.77s-3.77-1.69-3.77-3.77,1.69-3.77,3.77-3.77,3.77,1.69,3.77,3.77Z" style="fill:#586773;"/><path d="M2067.23,1316.04c0,2.08-1.69,3.77-3.77,3.77s-3.77-1.69-3.77-3.77,1.69-3.77,3.77-3.77,3.77,1.69,3.77,3.77Z" style="fill:#586773;"/><path d="M2067.23,1326.46c0,2.08-1.69,3.77-3.77,3.77s-3.77-1.69-3.77-3.77,1.69-3.77,3.77-3.77,3.77,1.69,3.77,3.77Z" style="fill:#586773;"/></g><g><path d="M2079.95,1305.62c0,2.08-1.69,3.77-3.77,3.77s-3.77-1.69-3.77-3.77,1.69-3.77,3.77-3.77,3.77,1.69,3.77,3.77Z" style="fill:#586773;"/><path d="M2079.95,1316.04c0,2.08-1.69,3.77-3.77,3.77s-3.77-1.69-3.77-3.77,1.69-3.77,3.77-3.77,3.77,1.69,3.77,3.77Z" style="fill:#586773;"/><path d="M2079.95,1326.46c0,2.08-1.69,3.77-3.77,3.77s-3.77-1.69-3.77-3.77,1.69-3.77,3.77-3.77,3.77,1.69,3.77,3.77Z" style="fill:#586773;"/></g><g><path d="M2092.67,1305.62c0,2.08-1.69,3.77-3.77,3.77s-3.77-1.69-3.77-3.77,1.69-3.77,3.77-3.77,3.77,1.69,3.77,3.77Z" style="fill:#586773;"/><path d="M2092.67,1316.04c0,2.08-1.69,3.77-3.77,3.77s-3.77-1.69-3.77-3.77,1.69-3.77,3.77-3.77,3.77,1.69,3.77,3.77Z" style="fill:#586773;"/><path d="M2092.67,1326.46c0,2.08-1.69,3.77-3.77,3.77s-3.77-1.69-3.77-3.77,1.69-3.77,3.77-3.77,3.77,1.69,3.77,3.77Z" style="fill:#586773;"/></g><g><path d="M2105.39,1305.62c0,2.08-1.69,3.77-3.77,3.77s-3.77-1.69-3.77-3.77,1.69-3.77,3.77-3.77,3.77,1.69,3.77,3.77Z" style="fill:#586773;"/><path d="M2105.39,1316.04c0,2.08-1.69,3.77-3.77,3.77s-3.77-1.69-3.77-3.77,1.69-3.77,3.77-3.77,3.77,1.69,3.77,3.77Z" style="fill:#586773;"/><path d="M2105.39,1326.46c0,2.08-1.69,3.77-3.77,3.77s-3.77-1.69-3.77-3.77,1.69-3.77,3.77-3.77,3.77,1.69,3.77,3.77Z" style="fill:#586773;"/></g><path d="M2041.78,1316.04c0,3.67-8.02,6.65-17.92,6.65s-17.92-2.98-17.92-6.65,8.02-6.65,17.92-6.65,17.92,2.98,17.92,6.65Z" style="fill:#586773;"/><rect x="2114.92" y="1307.51" width="38.45" height="17.07" style="fill:#bbdbf3;"/><rect x="1846.7" y="1347.57" width="324.36" height="38.72" rx="19.36" ry="19.36" style="fill:#93acbf;"/><rect x="1864.86" y="1360.28" width="119.97" height="13.3" style="fill:#98eb98;"/><g><path d="M2067.23,1356.51c0,2.08-1.69,3.77-3.77,3.77s-3.77-1.69-3.77-3.77,1.69-3.77,3.77-3.77,3.77,1.69,3.77,3.77Z" style="fill:#586773;"/><path d="M2067.23,1366.93c0,2.08-1.69,3.77-3.77,3.77s-3.77-1.69-3.77-3.77,1.69-3.77,3.77-3.77,3.77,1.69,3.77,3.77Z" style="fill:#586773;"/><path d="M2067.23,1377.35c0,2.08-1.69,3.77-3.77,3.77s-3.77-1.69-3.77-3.77,1.69-3.77,3.77-3.77,3.77,1.69,3.77,3.77Z" style="fill:#586773;"/></g><g><path d="M2079.95,1356.51c0,2.08-1.69,3.77-3.77,3.77s-3.77-1.69-3.77-3.77,1.69-3.77,3.77-3.77,3.77,1.69,3.77,3.77Z" style="fill:#586773;"/><path d="M2079.95,1366.93c0,2.08-1.69,3.77-3.77,3.77s-3.77-1.69-3.77-3.77,1.69-3.77,3.77-3.77,3.77,1.69,3.77,3.77Z" style="fill:#586773;"/><path d="M2079.95,1377.35c0,2.08-1.69,3.77-3.77,3.77s-3.77-1.69-3.77-3.77,1.69-3.77,3.77-3.77,3.77,1.69,3.77,3.77Z" style="fill:#586773;"/></g><g><path d="M2092.67,1356.51c0,2.08-1.69,3.77-3.77,3.77s-3.77-1.69-3.77-3.77,1.69-3.77,3.77-3.77,3.77,1.69,3.77,3.77Z" style="fill:#586773;"/><path d="M2092.67,1366.93c0,2.08-1.69,3.77-3.77,3.77s-3.77-1.69-3.77-3.77,1.69-3.77,3.77-3.77,3.77,1.69,3.77,3.77Z" style="fill:#586773;"/><path d="M2092.67,1377.35c0,2.08-1.69,3.77-3.77,3.77s-3.77-1.69-3.77-3.77,1.69-3.77,3.77-3.77,3.77,1.69,3.77,3.77Z" style="fill:#586773;"/></g><g><path d="M2105.39,1356.51c0,2.08-1.69,3.77-3.77,3.77s-3.77-1.69-3.77-3.77,1.69-3.77,3.77-3.77,3.77,1.69,3.77,3.77Z" style="fill:#586773;"/><path d="M2105.39,1366.93c0,2.08-1.69,3.77-3.77,3.77s-3.77-1.69-3.77-3.77,1.69-3.77,3.77-3.77,3.77,1.69,3.77,3.77Z" style="fill:#586773;"/><path d="M2105.39,1377.35c0,2.08-1.69,3.77-3.77,3.77s-3.77-1.69-3.77-3.77,1.69-3.77,3.77-3.77,3.77,1.69,3.77,3.77Z" style="fill:#586773;"/></g><path d="M2041.78,1366.93c0,3.67-8.02,6.65-17.92,6.65s-17.92-2.98-17.92-6.65,8.02-6.65,17.92-6.65,17.92,2.98,17.92,6.65Z" style="fill:#586773;"/><rect x="2114.92" y="1358.4" width="38.45" height="17.07" style="fill:#bbdbf3;"/></g><g><rect x="1837.12" y="833.71" width="343.52" height="110.15" style="fill:#93acbf;"/><rect x="1846.21" y="856.11" width="59.41" height="62.39" rx="7.08" ry="7.08" style="fill:#bbdbf3;"/><rect x="1854.35" y="865.74" width="13.43" height="7.73" style="fill:#93acbf;"/><rect x="1854.35" y="877.54" width="13.43" height="7.73" style="fill:#93acbf;"/><rect x="1854.35" y="889.34" width="13.43" height="7.73" style="fill:#93acbf;"/><rect x="1854.35" y="901.14" width="13.43" height="7.73" style="fill:#93acbf;"/><rect x="1873.07" y="869.61" width="26.18" height="11.8" style="fill:#2ec6fc;"/><rect x="1873.07" y="893.21" width="26.18" height="11.8" style="fill:#2ec6fc;"/><path d="M1854.89,929.04c0,2.4-1.94,4.34-4.34,4.34s-4.34-1.94-4.34-4.34,1.94-4.34,4.34-4.34,4.34,1.94,4.34,4.34Z" style="fill:#f74242;"/><path d="M1871.8,929.04c0,2.4-1.94,4.34-4.34,4.34s-4.34-1.94-4.34-4.34,1.94-4.34,4.34-4.34,4.34,1.94,4.34,4.34Z" style="fill:#f9e181;"/><path d="M1888.71,929.04c0,2.4-1.94,4.34-4.34,4.34s-4.34-1.94-4.34-4.34,1.94-4.34,4.34-4.34,4.34,1.94,4.34,4.34Z" style="fill:#6adb6a;"/><path d="M1905.62,929.04c0,2.4-1.94,4.34-4.34,4.34s-4.34-1.94-4.34-4.34,1.94-4.34,4.34-4.34,4.34,1.94,4.34,4.34Z" style="fill:#bbdbf3;"/><circle cx="1850.55" cy="848.07" r="4.34" style="fill:#f74242;"/><path d="M1871.8,848.07c0,2.4-1.94,4.34-4.34,4.34s-4.34-1.94-4.34-4.34,1.94-4.34,4.34-4.34,4.34,1.94,4.34,4.34Z" style="fill:#f9e181;"/><path d="M1888.71,848.07c0,2.4-1.94,4.34-4.34,4.34s-4.34-1.94-4.34-4.34,1.94-4.34,4.34-4.34,4.34,1.94,4.34,4.34Z" style="fill:#6adb6a;"/><circle cx="1901.28" cy="848.07" r="4.34" style="fill:#bbdbf3;"/><rect x="1934.85" y="856.11" width="59.41" height="62.39" rx="7.08" ry="7.08" style="fill:#bbdbf3;"/><rect x="1942.99" y="865.74" width="13.43" height="7.73" style="fill:#93acbf;"/><rect x="1942.99" y="877.54" width="13.43" height="7.73" style="fill:#93acbf;"/><rect x="1942.99" y="889.34" width="13.43" height="7.73" style="fill:#93acbf;"/><rect x="1942.99" y="901.14" width="13.43" height="7.73" style="fill:#93acbf;"/><rect x="1961.71" y="869.61" width="26.18" height="11.8" style="fill:#2ec6fc;"/><rect x="1961.71" y="893.21" width="26.18" height="11.8" style="fill:#2ec6fc;"/><path d="M1943.53,929.04c0,2.4-1.94,4.34-4.34,4.34s-4.34-1.94-4.34-4.34,1.94-4.34,4.34-4.34,4.34,1.94,4.34,4.34Z" style="fill:#f74242;"/><path d="M1960.44,929.04c0,2.4-1.94,4.34-4.34,4.34s-4.34-1.94-4.34-4.34,1.94-4.34,4.34-4.34,4.34,1.94,4.34,4.34Z" style="fill:#f9e181;"/><path d="M1977.35,929.04c0,2.4-1.94,4.34-4.34,4.34s-4.34-1.94-4.34-4.34,1.94-4.34,4.34-4.34,4.34,1.94,4.34,4.34Z" style="fill:#6adb6a;"/><path d="M1994.26,929.04c0,2.4-1.94,4.34-4.34,4.34s-4.34-1.94-4.34-4.34,1.94-4.34,4.34-4.34,4.34,1.94,4.34,4.34Z" style="fill:#bbdbf3;"/><path d="M1943.53,848.07c0,2.4-1.94,4.34-4.34,4.34s-4.34-1.94-4.34-4.34,1.94-4.34,4.34-4.34,4.34,1.94,4.34,4.34Z" style="fill:#f74242;"/><circle cx="1956.1" cy="848.07" r="4.34" style="fill:#f9e181;"/><circle cx="1973.01" cy="848.07" r="4.34" style="fill:#6adb6a;"/><path d="M1994.26,848.07c0,2.4-1.94,4.34-4.34,4.34s-4.34-1.94-4.34-4.34,1.94-4.34,4.34-4.34,4.34,1.94,4.34,4.34Z" style="fill:#bbdbf3;"/><rect x="2023.49" y="856.11" width="59.41" height="62.39" rx="7.08" ry="7.08" style="fill:#bbdbf3;"/><rect x="2031.63" y="865.74" width="13.43" height="7.73" style="fill:#93acbf;"/><rect x="2031.63" y="877.54" width="13.43" height="7.73" style="fill:#93acbf;"/><rect x="2031.63" y="889.34" width="13.43" height="7.73" style="fill:#93acbf;"/><rect x="2031.63" y="901.14" width="13.43" height="7.73" style="fill:#93acbf;"/><rect x="2050.35" y="869.61" width="26.18" height="11.8" style="fill:#2ec6fc;"/><rect x="2050.35" y="893.21" width="26.18" height="11.8" style="fill:#2ec6fc;"/><path d="M2032.17,929.04c0,2.4-1.94,4.34-4.34,4.34s-4.34-1.94-4.34-4.34,1.94-4.34,4.34-4.34,4.34,1.94,4.34,4.34Z" style="fill:#f74242;"/><path d="M2049.08,929.04c0,2.4-1.94,4.34-4.34,4.34s-4.34-1.94-4.34-4.34,1.94-4.34,4.34-4.34,4.34,1.94,4.34,4.34Z" style="fill:#f9e181;"/><path d="M2065.99,929.04c0,2.4-1.94,4.34-4.34,4.34s-4.34-1.94-4.34-4.34,1.94-4.34,4.34-4.34,4.34,1.94,4.34,4.34Z" style="fill:#6adb6a;"/><path d="M2082.9,929.04c0,2.4-1.94,4.34-4.34,4.34s-4.34-1.94-4.34-4.34,1.94-4.34,4.34-4.34,4.34,1.94,4.34,4.34Z" style="fill:#bbdbf3;"/><circle cx="2027.83" cy="848.07" r="4.34" style="fill:#f74242;"/><path d="M2049.08,848.07c0,2.4-1.94,4.34-4.34,4.34s-4.34-1.94-4.34-4.34,1.94-4.34,4.34-4.34,4.34,1.94,4.34,4.34Z" style="fill:#f9e181;"/><circle cx="2061.65" cy="848.07" r="4.34" style="fill:#6adb6a;"/><circle cx="2078.56" cy="848.07" r="4.34" style="fill:#bbdbf3;"/><rect x="2112.14" y="856.11" width="59.41" height="62.39" rx="7.08" ry="7.08" style="fill:#bbdbf3;"/><rect x="2120.27" y="865.74" width="13.43" height="7.73" style="fill:#93acbf;"/><rect x="2120.27" y="877.54" width="13.43" height="7.73" style="fill:#93acbf;"/><rect x="2120.27" y="889.34" width="13.43" height="7.73" style="fill:#93acbf;"/><rect x="2120.27" y="901.14" width="13.43" height="7.73" style="fill:#93acbf;"/><rect x="2138.99" y="869.61" width="26.18" height="11.8" style="fill:#2ec6fc;"/><rect x="2138.99" y="893.21" width="26.18" height="11.8" style="fill:#2ec6fc;"/><path d="M2120.82,929.04c0,2.4-1.94,4.34-4.34,4.34s-4.34-1.94-4.34-4.34,1.94-4.34,4.34-4.34,4.34,1.94,4.34,4.34Z" style="fill:#f74242;"/><path d="M2137.73,929.04c0,2.4-1.94,4.34-4.34,4.34s-4.34-1.94-4.34-4.34,1.94-4.34,4.34-4.34,4.34,1.94,4.34,4.34Z" style="fill:#f9e181;"/><path d="M2154.63,929.04c0,2.4-1.94,4.34-4.34,4.34s-4.34-1.94-4.34-4.34,1.94-4.34,4.34-4.34,4.34,1.94,4.34,4.34Z" style="fill:#6adb6a;"/><path d="M2171.54,929.04c0,2.4-1.94,4.34-4.34,4.34s-4.34-1.94-4.34-4.34,1.94-4.34,4.34-4.34,4.34,1.94,4.34,4.34Z" style="fill:#bbdbf3;"/><circle cx="2116.48" cy="848.07" r="4.34" style="fill:#f74242;"/><circle cx="2133.39" cy="848.07" r="4.34" style="fill:#f9e181;"/><path d="M2154.63,848.07c0,2.4-1.94,4.34-4.34,4.34s-4.34-1.94-4.34-4.34,1.94-4.34,4.34-4.34,4.34,1.94,4.34,4.34Z" style="fill:#6adb6a;"/><circle cx="2167.2" cy="848.07" r="4.34" style="fill:#bbdbf3;"/></g><g><rect x="1837.12" y="1057.8" width="343.52" height="110.15" style="fill:#93acbf;"/><rect x="1846.21" y="1080.2" width="59.41" height="62.39" rx="7.08" ry="7.08" style="fill:#bbdbf3;"/><rect x="1854.35" y="1089.83" width="13.43" height="7.73" style="fill:#93acbf;"/><rect x="1854.35" y="1101.63" width="13.43" height="7.73" style="fill:#93acbf;"/><rect x="1854.35" y="1113.43" width="13.43" height="7.73" style="fill:#93acbf;"/><rect x="1854.35" y="1125.23" width="13.43" height="7.73" style="fill:#93acbf;"/><rect x="1873.07" y="1093.69" width="26.18" height="11.8" style="fill:#2ec6fc;"/><rect x="1873.07" y="1117.29" width="26.18" height="11.8" style="fill:#2ec6fc;"/><circle cx="1850.55" cy="1153.12" r="4.34" style="fill:#f74242;"/><path d="M1871.8,1153.12c0,2.4-1.94,4.34-4.34,4.34s-4.34-1.94-4.34-4.34,1.94-4.34,4.34-4.34,4.34,1.94,4.34,4.34Z" style="fill:#f9e181;"/><path d="M1888.71,1153.12c0,2.4-1.94,4.34-4.34,4.34s-4.34-1.94-4.34-4.34,1.94-4.34,4.34-4.34,4.34,1.94,4.34,4.34Z" style="fill:#6adb6a;"/><circle cx="1901.28" cy="1153.12" r="4.34" style="fill:#bbdbf3;"/><circle cx="1850.55" cy="1072.15" r="4.34" style="fill:#f74242;"/><path d="M1871.8,1072.15c0,2.4-1.94,4.34-4.34,4.34s-4.34-1.94-4.34-4.34,1.94-4.34,4.34-4.34,4.34,1.94,4.34,4.34Z" style="fill:#f9e181;"/><path d="M1888.71,1072.15c0,2.4-1.94,4.34-4.34,4.34s-4.34-1.94-4.34-4.34,1.94-4.34,4.34-4.34,4.34,1.94,4.34,4.34Z" style="fill:#6adb6a;"/><circle cx="1901.28" cy="1072.15" r="4.34" style="fill:#bbdbf3;"/><rect x="1934.85" y="1080.2" width="59.41" height="62.39" rx="7.08" ry="7.08" style="fill:#bbdbf3;"/><rect x="1942.99" y="1089.83" width="13.43" height="7.73" style="fill:#93acbf;"/><rect x="1942.99" y="1101.63" width="13.43" height="7.73" style="fill:#93acbf;"/><rect x="1942.99" y="1113.43" width="13.43" height="7.73" style="fill:#93acbf;"/><rect x="1942.99" y="1125.23" width="13.43" height="7.73" style="fill:#93acbf;"/><rect x="1961.71" y="1093.69" width="26.18" height="11.8" style="fill:#2ec6fc;"/><rect x="1961.71" y="1117.29" width="26.18" height="11.8" style="fill:#2ec6fc;"/><path d="M1943.53,1153.12c0,2.4-1.94,4.34-4.34,4.34s-4.34-1.94-4.34-4.34,1.94-4.34,4.34-4.34,4.34,1.94,4.34,4.34Z" style="fill:#f74242;"/><circle cx="1956.1" cy="1153.12" r="4.34" style="fill:#f9e181;"/><circle cx="1973.01" cy="1153.12" r="4.34" style="fill:#6adb6a;"/><path d="M1994.26,1153.12c0,2.4-1.94,4.34-4.34,4.34s-4.34-1.94-4.34-4.34,1.94-4.34,4.34-4.34,4.34,1.94,4.34,4.34Z" style="fill:#bbdbf3;"/><path d="M1943.53,1072.15c0,2.4-1.94,4.34-4.34,4.34s-4.34-1.94-4.34-4.34,1.94-4.34,4.34-4.34,4.34,1.94,4.34,4.34Z" style="fill:#f74242;"/><circle cx="1956.1" cy="1072.15" r="4.34" style="fill:#f9e181;"/><circle cx="1973.01" cy="1072.15" r="4.34" style="fill:#6adb6a;"/><path d="M1994.26,1072.15c0,2.4-1.94,4.34-4.34,4.34s-4.34-1.94-4.34-4.34,1.94-4.34,4.34-4.34,4.34,1.94,4.34,4.34Z" style="fill:#bbdbf3;"/><rect x="2023.49" y="1080.2" width="59.41" height="62.39" rx="7.08" ry="7.08" style="fill:#bbdbf3;"/><rect x="2031.63" y="1089.83" width="13.43" height="7.73" style="fill:#93acbf;"/><rect x="2031.63" y="1101.63" width="13.43" height="7.73" style="fill:#93acbf;"/><rect x="2031.63" y="1113.43" width="13.43" height="7.73" style="fill:#93acbf;"/><rect x="2031.63" y="1125.23" width="13.43" height="7.73" style="fill:#93acbf;"/><rect x="2050.35" y="1093.69" width="26.18" height="11.8" style="fill:#2ec6fc;"/><rect x="2050.35" y="1117.29" width="26.18" height="11.8" style="fill:#2ec6fc;"/><circle cx="2027.83" cy="1153.12" r="4.34" style="fill:#f74242;"/><path d="M2049.08,1153.12c0,2.4-1.94,4.34-4.34,4.34s-4.34-1.94-4.34-4.34,1.94-4.34,4.34-4.34,4.34,1.94,4.34,4.34Z" style="fill:#f9e181;"/><circle cx="2061.65" cy="1153.12" r="4.34" style="fill:#6adb6a;"/><circle cx="2078.56" cy="1153.12" r="4.34" style="fill:#bbdbf3;"/><circle cx="2027.83" cy="1072.15" r="4.34" style="fill:#f74242;"/><path d="M2049.08,1072.15c0,2.4-1.94,4.34-4.34,4.34s-4.34-1.94-4.34-4.34,1.94-4.34,4.34-4.34,4.34,1.94,4.34,4.34Z" style="fill:#f9e181;"/><circle cx="2061.65" cy="1072.15" r="4.34" style="fill:#6adb6a;"/><circle cx="2078.56" cy="1072.15" r="4.34" style="fill:#bbdbf3;"/><rect x="2112.14" y="1080.2" width="59.41" height="62.39" rx="7.08" ry="7.08" style="fill:#bbdbf3;"/><rect x="2120.27" y="1089.83" width="13.43" height="7.73" style="fill:#93acbf;"/><rect x="2120.27" y="1101.63" width="13.43" height="7.73" style="fill:#93acbf;"/><rect x="2120.27" y="1113.43" width="13.43" height="7.73" style="fill:#93acbf;"/><rect x="2120.27" y="1125.23" width="13.43" height="7.73" style="fill:#93acbf;"/><rect x="2138.99" y="1093.69" width="26.18" height="11.8" style="fill:#2ec6fc;"/><rect x="2138.99" y="1117.29" width="26.18" height="11.8" style="fill:#2ec6fc;"/><circle cx="2116.48" cy="1153.12" r="4.34" style="fill:#f74242;"/><circle cx="2133.39" cy="1153.12" r="4.34" style="fill:#f9e181;"/><path d="M2154.63,1153.12c0,2.4-1.94,4.34-4.34,4.34s-4.34-1.94-4.34-4.34,1.94-4.34,4.34-4.34,4.34,1.94,4.34,4.34Z" style="fill:#6adb6a;"/><circle cx="2167.2" cy="1153.12" r="4.34" style="fill:#bbdbf3;"/><circle cx="2116.48" cy="1072.15" r="4.34" style="fill:#f74242;"/><circle cx="2133.39" cy="1072.15" r="4.34" style="fill:#f9e181;"/><path d="M2154.63,1072.15c0,2.4-1.94,4.34-4.34,4.34s-4.34-1.94-4.34-4.34,1.94-4.34,4.34-4.34,4.34,1.94,4.34,4.34Z" style="fill:#6adb6a;"/><circle cx="2167.2" cy="1072.15" r="4.34" style="fill:#bbdbf3;"/></g><g><rect x="1837.12" y="943.39" width="343.52" height="114.41" style="fill:#586773;"/><g><rect x="1846.21" y="955.7" width="97.32" height="9.77" style="fill:#f74242;"/><rect x="1846.21" y="971.7" width="97.32" height="9.77" style="fill:#f9e181;"/><rect x="1846.21" y="987.71" width="97.32" height="9.77" style="fill:#f9ecb8;"/><rect x="1846.21" y="1003.71" width="97.32" height="9.77" style="fill:#6adb6a;"/><rect x="1846.21" y="1019.72" width="97.32" height="9.77" style="fill:#40a87b;"/><rect x="1846.21" y="1035.72" width="97.32" height="9.77" style="fill:#2ec6fc;"/></g><path d="M1970.09,960.04c0,2.4-1.94,4.34-4.34,4.34s-4.34-1.94-4.34-4.34,1.94-4.34,4.34-4.34,4.34,1.94,4.34,4.34Z" style="fill:#f74242;"/><path d="M1987,960.04c0,2.4-1.94,4.34-4.34,4.34s-4.34-1.94-4.34-4.34,1.94-4.34,4.34-4.34,4.34,1.94,4.34,4.34Z" style="fill:#f74242;"/><path d="M2003.91,960.04c0,2.4-1.94,4.34-4.34,4.34s-4.34-1.94-4.34-4.34,1.94-4.34,4.34-4.34,4.34,1.94,4.34,4.34Z" style="fill:#f74242;"/><path d="M2020.82,960.04c0,2.4-1.94,4.34-4.34,4.34s-4.34-1.94-4.34-4.34,1.94-4.34,4.34-4.34,4.34,1.94,4.34,4.34Z" style="fill:#f9e181;"/><path d="M2037.49,960.04c0,2.4-1.94,4.34-4.34,4.34s-4.34-1.94-4.34-4.34,1.94-4.34,4.34-4.34,4.34,1.94,4.34,4.34Z" style="fill:#f9e181;"/><path d="M2054.4,960.04c0,2.4-1.94,4.34-4.34,4.34s-4.34-1.94-4.34-4.34,1.94-4.34,4.34-4.34,4.34,1.94,4.34,4.34Z" style="fill:#f9e181;"/><path d="M2071.31,960.04c0,2.4-1.94,4.34-4.34,4.34s-4.34-1.94-4.34-4.34,1.94-4.34,4.34-4.34,4.34,1.94,4.34,4.34Z" style="fill:#6adb6a;"/><path d="M2088.21,960.04c0,2.4-1.94,4.34-4.34,4.34s-4.34-1.94-4.34-4.34,1.94-4.34,4.34-4.34,4.34,1.94,4.34,4.34Z" style="fill:#6adb6a;"/><circle cx="1965.75" cy="973.98" r="4.34" style="fill:#f74242;"/><circle cx="1982.66" cy="973.98" r="4.34" style="fill:#f74242;"/><path d="M2003.91,973.98c0,2.4-1.94,4.34-4.34,4.34s-4.34-1.94-4.34-4.34,1.94-4.34,4.34-4.34,4.34,1.94,4.34,4.34Z" style="fill:#f74242;"/><circle cx="2016.48" cy="973.98" r="4.34" style="fill:#f9e181;"/><path d="M2037.49,973.98c0,2.4-1.94,4.34-4.34,4.34s-4.34-1.94-4.34-4.34,1.94-4.34,4.34-4.34,4.34,1.94,4.34,4.34Z" style="fill:#f9e181;"/><path d="M2054.4,973.98c0,2.4-1.94,4.34-4.34,4.34s-4.34-1.94-4.34-4.34,1.94-4.34,4.34-4.34,4.34,1.94,4.34,4.34Z" style="fill:#f9e181;"/><circle cx="2066.97" cy="973.98" r="4.34" style="fill:#6adb6a;"/><path d="M2088.21,973.98c0,2.4-1.94,4.34-4.34,4.34s-4.34-1.94-4.34-4.34,1.94-4.34,4.34-4.34,4.34,1.94,4.34,4.34Z" style="fill:#6adb6a;"/><circle cx="1965.75" cy="993.62" r="4.34" style="fill:#f74242;"/><circle cx="1982.66" cy="993.62" r="4.34" style="fill:#f74242;"/><path d="M2003.91,993.62c0,2.4-1.94,4.34-4.34,4.34s-4.34-1.94-4.34-4.34,1.94-4.34,4.34-4.34,4.34,1.94,4.34,4.34Z" style="fill:#f9e181;"/><circle cx="2016.48" cy="993.62" r="4.34" style="fill:#f9e181;"/><path d="M2037.49,993.62c0,2.4-1.94,4.34-4.34,4.34s-4.34-1.94-4.34-4.34,1.94-4.34,4.34-4.34,4.34,1.94,4.34,4.34Z" style="fill:#6adb6a;"/><path d="M2054.4,993.62c0,2.4-1.94,4.34-4.34,4.34s-4.34-1.94-4.34-4.34,1.94-4.34,4.34-4.34,4.34,1.94,4.34,4.34Z" style="fill:#6adb6a;"/><circle cx="2066.97" cy="993.62" r="4.34" style="fill:#6adb6a;"/><path d="M2088.21,993.62c0,2.4-1.94,4.34-4.34,4.34s-4.34-1.94-4.34-4.34,1.94-4.34,4.34-4.34,4.34,1.94,4.34,4.34Z" style="fill:#6adb6a;"/><circle cx="1965.75" cy="1007.56" r="4.34" style="fill:#f74242;"/><circle cx="1982.66" cy="1007.56" r="4.34" style="fill:#f9e181;"/><path d="M2003.91,1007.56c0,2.4-1.94,4.34-4.34,4.34s-4.34-1.94-4.34-4.34,1.94-4.34,4.34-4.34,4.34,1.94,4.34,4.34Z" style="fill:#f9e181;"/><circle cx="2016.48" cy="1007.56" r="4.34" style="fill:#f9e181;"/><path d="M2037.49,1007.56c0,2.4-1.94,4.34-4.34,4.34s-4.34-1.94-4.34-4.34,1.94-4.34,4.34-4.34,4.34,1.94,4.34,4.34Z" style="fill:#f9e181;"/><path d="M2054.4,1007.56c0,2.4-1.94,4.34-4.34,4.34s-4.34-1.94-4.34-4.34,1.94-4.34,4.34-4.34,4.34,1.94,4.34,4.34Z" style="fill:#f9e181;"/><circle cx="2066.97" cy="1007.56" r="4.34" style="fill:#6adb6a;"/><path d="M2088.21,1007.56c0,2.4-1.94,4.34-4.34,4.34s-4.34-1.94-4.34-4.34,1.94-4.34,4.34-4.34,4.34,1.94,4.34,4.34Z" style="fill:#6adb6a;"/><circle cx="1965.75" cy="1027.21" r="4.34" style="fill:#6adb6a;"/><circle cx="1982.66" cy="1027.21" r="4.34" style="fill:#6adb6a;"/><path d="M2003.91,1027.21c0,2.4-1.94,4.34-4.34,4.34s-4.34-1.94-4.34-4.34,1.94-4.34,4.34-4.34,4.34,1.94,4.34,4.34Z" style="fill:#f9e181;"/><circle cx="2016.48" cy="1027.21" r="4.34" style="fill:#f9e181;"/><path d="M2037.49,1027.21c0,2.4-1.94,4.34-4.34,4.34s-4.34-1.94-4.34-4.34,1.94-4.34,4.34-4.34,4.34,1.94,4.34,4.34Z" style="fill:#f9e181;"/><path d="M2054.4,1027.21c0,2.4-1.94,4.34-4.34,4.34s-4.34-1.94-4.34-4.34,1.94-4.34,4.34-4.34,4.34,1.94,4.34,4.34Z" style="fill:#bbdbf3;"/><circle cx="2066.97" cy="1027.21" r="4.34" style="fill:#bbdbf3;"/><path d="M2088.21,1027.21c0,2.4-1.94,4.34-4.34,4.34s-4.34-1.94-4.34-4.34,1.94-4.34,4.34-4.34,4.34,1.94,4.34,4.34Z" style="fill:#bbdbf3;"/><circle cx="1965.75" cy="1041.15" r="4.34" style="fill:#6adb6a;"/><circle cx="1982.66" cy="1041.15" r="4.34" style="fill:#6adb6a;"/><path d="M2003.91,1041.15c0,2.4-1.94,4.34-4.34,4.34s-4.34-1.94-4.34-4.34,1.94-4.34,4.34-4.34,4.34,1.94,4.34,4.34Z" style="fill:#f9e181;"/><circle cx="2016.48" cy="1041.15" r="4.34" style="fill:#f9e181;"/><path d="M2037.49,1041.15c0,2.4-1.94,4.34-4.34,4.34s-4.34-1.94-4.34-4.34,1.94-4.34,4.34-4.34,4.34,1.94,4.34,4.34Z" style="fill:#bbdbf3;"/><path d="M2054.4,1041.15c0,2.4-1.94,4.34-4.34,4.34s-4.34-1.94-4.34-4.34,1.94-4.34,4.34-4.34,4.34,1.94,4.34,4.34Z" style="fill:#bbdbf3;"/><circle cx="2066.97" cy="1041.15" r="4.34" style="fill:#bbdbf3;"/><path d="M2088.21,1041.15c0,2.4-1.94,4.34-4.34,4.34s-4.34-1.94-4.34-4.34,1.94-4.34,4.34-4.34,4.34,1.94,4.34,4.34Z" style="fill:#bbdbf3;"/><rect x="2112.14" y="967.94" width="59.41" height="62.39" rx="7.08" ry="7.08" style="fill:#bbdbf3;"/><rect x="2120.27" y="977.57" width="13.43" height="7.73" style="fill:#89a5c7;"/><rect x="2120.27" y="989.37" width="13.43" height="7.73" style="fill:#89a5c7;"/><rect x="2120.27" y="1001.17" width="13.43" height="7.73" style="fill:#89a5c7;"/><rect x="2120.27" y="1012.97" width="13.43" height="7.73" style="fill:#89a5c7;"/><rect x="2138.99" y="981.44" width="26.18" height="11.8" style="fill:#2ec6fc;"/><rect x="2138.99" y="1005.04" width="26.18" height="11.8" style="fill:#2ec6fc;"/><circle cx="2116.48" cy="1040.87" r="4.34" style="fill:#f74242;"/><circle cx="2133.39" cy="1040.87" r="4.34" style="fill:#f9e181;"/><path d="M2154.63,1040.87c0,2.4-1.94,4.34-4.34,4.34s-4.34-1.94-4.34-4.34,1.94-4.34,4.34-4.34,4.34,1.94,4.34,4.34Z" style="fill:#6adb6a;"/><circle cx="2167.2" cy="1040.87" r="4.34" style="fill:#bbdbf3;"/><circle cx="2116.48" cy="959.9" r="4.34" style="fill:#f74242;"/><circle cx="2133.39" cy="959.9" r="4.34" style="fill:#f9e181;"/><path d="M2154.63,959.9c0,2.4-1.94,4.34-4.34,4.34s-4.34-1.94-4.34-4.34,1.94-4.34,4.34-4.34,4.34,1.94,4.34,4.34Z" style="fill:#6adb6a;"/><circle cx="2167.2" cy="959.9" r="4.34" style="fill:#bbdbf3;"/></g><path d="M1841.91,1479.08h0c-2.63,0-4.79-2.16-4.79-4.79v-54.98c0-2.63,2.16-4.79,4.79-4.79h0c2.63,0,4.79,2.16,4.79,4.79v54.98c0,2.63-2.16,4.79-4.79,4.79Z" style="fill:#586773;"/><path d="M1864.17,1479.08h0c-2.63,0-4.79-2.16-4.79-4.79v-54.98c0-2.63,2.16-4.79,4.79-4.79h0c2.63,0,4.79,2.16,4.79,4.79v54.98c0,2.63-2.16,4.79-4.79,4.79Z" style="fill:#586773;"/><path d="M1886.43,1479.08h0c-2.63,0-4.79-2.16-4.79-4.79v-54.98c0-2.63,2.16-4.79,4.79-4.79h0c2.63,0,4.79,2.16,4.79,4.79v54.98c0,2.63-2.16,4.79-4.79,4.79Z" style="fill:#586773;"/><path d="M1908.7,1479.08h0c-2.63,0-4.79-2.16-4.79-4.79v-54.98c0-2.63,2.16-4.79,4.79-4.79h0c2.63,0,4.79,2.16,4.79,4.79v54.98c0,2.63-2.16,4.79-4.79,4.79Z" style="fill:#586773;"/><path d="M1930.96,1479.08h0c-2.63,0-4.79-2.16-4.79-4.79v-54.98c0-2.63,2.16-4.79,4.79-4.79h0c2.63,0,4.79,2.16,4.79,4.79v54.98c0,2.63-2.16,4.79-4.79,4.79Z" style="fill:#586773;"/><rect x="1948.43" y="1414.52" width="9.58" height="64.56" rx="4.79" ry="4.79" style="fill:#586773;"/><path d="M1975.48,1479.08h0c-2.63,0-4.79-2.16-4.79-4.79v-54.98c0-2.63,2.16-4.79,4.79-4.79h0c2.63,0,4.79,2.16,4.79,4.79v54.98c0,2.63-2.16,4.79-4.79,4.79Z" style="fill:#586773;"/><path d="M1997.75,1479.08h0c-2.63,0-4.79-2.16-4.79-4.79v-54.98c0-2.63,2.16-4.79,4.79-4.79h0c2.63,0,4.79,2.16,4.79,4.79v54.98c0,2.63-2.16,4.79-4.79,4.79Z" style="fill:#586773;"/><path d="M2020.01,1479.08h0c-2.63,0-4.79-2.16-4.79-4.79v-54.98c0-2.63,2.16-4.79,4.79-4.79h0c2.63,0,4.79,2.16,4.79,4.79v54.98c0,2.63-2.16,4.79-4.79,4.79Z" style="fill:#586773;"/><path d="M2042.27,1479.08h0c-2.63,0-4.79-2.16-4.79-4.79v-54.98c0-2.63,2.16-4.79,4.79-4.79h0c2.63,0,4.79,2.16,4.79,4.79v54.98c0,2.63-2.16,4.79-4.79,4.79Z" style="fill:#586773;"/><path d="M2064.53,1479.08h0c-2.63,0-4.79-2.16-4.79-4.79v-54.98c0-2.63,2.16-4.79,4.79-4.79h0c2.63,0,4.79,2.16,4.79,4.79v54.98c0,2.63-2.16,4.79-4.79,4.79Z" style="fill:#586773;"/><path d="M2086.8,1479.08h0c-2.63,0-4.79-2.16-4.79-4.79v-54.98c0-2.63,2.16-4.79,4.79-4.79h0c2.63,0,4.79,2.16,4.79,4.79v54.98c0,2.63-2.16,4.79-4.79,4.79Z" style="fill:#586773;"/><rect x="2104.27" y="1414.52" width="9.58" height="64.56" rx="4.79" ry="4.79" style="fill:#586773;"/><path d="M2131.32,1479.08h0c-2.63,0-4.79-2.16-4.79-4.79v-54.98c0-2.63,2.16-4.79,4.79-4.79h0c2.63,0,4.79,2.16,4.79,4.79v54.98c0,2.63-2.16,4.79-4.79,4.79Z" style="fill:#586773;"/><path d="M2153.58,1479.08h0c-2.63,0-4.79-2.16-4.79-4.79v-54.98c0-2.63,2.16-4.79,4.79-4.79h0c2.63,0,4.79,2.16,4.79,4.79v54.98c0,2.63-2.16,4.79-4.79,4.79Z" style="fill:#586773;"/><path d="M2175.85,1479.08h0c-2.63,0-4.79-2.16-4.79-4.79v-54.98c0-2.63,2.16-4.79,4.79-4.79h0c2.63,0,4.79,2.16,4.79,4.79v54.98c0,2.63-2.16,4.79-4.79,4.79Z" style="fill:#586773;"/><g style="opacity:.5;"><polygon points="2023.8 601.54 1837.11 972.68 1837.11 864.32 1969.31 601.54 2023.8 601.54" style="fill:#deecff;"/></g><g style="opacity:.5;"><polygon points="2084.65 601.54 1837.11 1093.66 1837.11 1026.98 2051.12 601.54 2084.65 601.54" style="fill:#deecff;"/></g><g style="opacity:.5;"><polygon points="2180.64 601.54 2180.64 706.27 1837.11 1389.24 1837.11 1280.88 2178.81 601.54 2180.64 601.54" style="fill:#deecff;"/></g><g style="opacity:.5;"><polygon points="2180.64 760.62 2180.64 827.27 1892.4 1400.31 1858.85 1400.31 2180.64 760.62" style="fill:#deecff;"/></g><g style="opacity:.5;"><polygon points="2180.64 1082.03 2180.64 1190.35 2075.02 1400.31 2020.55 1400.31 2180.64 1082.03" style="fill:#deecff;"/></g><g style="opacity:.5;"><polygon points="2180.64 1244.7 2180.64 1311.35 2135.9 1400.31 2102.37 1400.31 2180.64 1244.7" style="fill:#deecff;"/></g></g><g><polygon points="2129.04 538.12 2129.25 507.11 2092.87 512.48 2129.04 538.12" style="fill:#2d628c;"/><path d="M1932.18,391.03l-3.28-9.62s-5.91-9.2-7.68-12.76c-.99-2.01-4.23-7.13-5.07-7.77-.66-.5-2.59-.31-2.76,.48-.22,1.03,1.41,6.76,2,9.02,.57,2.14,2.26,8.58,2.26,8.58,0,0-12.43-11.29-16.37-15.31-2.22-2.26-8.43-9.14-10.1-7.7-1.28,1.1,4.29,8.85,6.17,11.52,1.73,2.45,6.84,9.86,6.84,9.86,0,0-8.67-9.02-11.56-12.02-2.1-2.19-7.55-9.49-9.47-7.93-1.9,1.55,3.99,8.35,5.7,10.85,2.42,3.52,9.66,14.07,9.66,14.07,0,0-9.28-9.23-12.38-12.3-1.71-1.7-6.16-7.44-7.85-5.85-1.73,1.61,3.5,6.81,5.01,8.75,2.58,3.33,10.33,13.32,10.33,13.32,0,0-6.89-6.49-9.19-8.65-.98-.92-3.99-3.59-4.87-2.6-1.19,1.35,2.6,5.25,3.73,6.69l9.33,11.94c.75,.97,1.62,1.84,2.57,2.59l15.8,15.87,21.17-21.02Z" style="fill:#fdae97;"/><path d="M2054.84,502.01l-123.14,77.98c-3.53,1.48-6.89,3.54-9.88,6.26-14.1,12.81-15.15,34.63-2.33,48.73,12.81,14.1,34.63,15.15,48.73,2.33l141.95-74.41-55.32-60.89Z" style="fill:#b86b76;"/><path d="M1910.67,616.59c-.22-1.59-.38-3.2-.38-4.86,0-19.05,15.44-34.5,34.5-34.5s34.5,15.44,34.5,34.5l-2.04,154.04h-57.4l-9.17-149.18Z" style="fill:#b86b76;"/><path d="M2120.11,562.24l-77.12,92.25c-13.61,16.28-38.08,18.47-54.36,4.86h0c-16.28-13.61-18.47-38.08-4.86-54.36l77.12-92.25c13.61-16.28,38.08-18.47,54.36-4.86h0c16.28,13.61,18.47,38.08,4.86,54.36Z" style="fill:#e7888b;"/><polygon points="2057 353.98 2020.52 370.4 2025.55 518.59 2129.25 520.2 2144.97 367.76 2094.32 351.27 2057 353.98" style="fill:#e5f0f8;"/><path d="M2057.01,332.57v23.14s1.38,5,13.15,5.05c11.74,.02,24.16-7.76,24.16-7.76l-3.64-50.6-33.67,30.18Z" style="fill:#fdae97;"/><polygon points="2057 352.54 2081.03 327.59 2057 327.27 2057 352.54" style="fill:#e89780;"/><path d="M2047.16,286.02v32.58c0,6.57,1.84,16.33,9.24,18.58,7.37,2.26,17.54-.82,24.62-8.51,7.08-7.71,22.8-42.45,.95-55.29-21.88-12.83-34.3,9.24-34.81,12.64Z" style="fill:#fdae97;"/><path d="M1997.68,488.84c-7.71,6.32-18.82,6.03-26.22-.2h0l-64.87-75.07,8.91-9.39,16.39-17.32,1.89-2.02,66.8,75.22c7.13,8.71,5.81,21.65-2.9,28.78Z" style="fill:#f9e181;"/><path d="M1974.64,626.33c0-19.05,15.44-34.5,34.5-34.5s29.51,7.94,33.66,26.94c9.65,44.11,29.89,161.59,29.89,161.59h-59.77l-37.89-149.18c-.22-1.59-.38-3.2-.38-4.86Z" style="fill:#e7888b;"/><path d="M1973.69,489.78h0c11.41,6.47,26.04,2.43,32.52-8.98l43.03-75.86c6.47-11.41,2.43-26.04-8.98-32.51h0c-11.41-6.47-26.04-2.43-32.51,8.98l-43.03,75.86c-6.47,11.41-2.43,26.04,8.98,32.52Z" style="fill:#f9e181;"/><path d="M2079.7,272.18s-26.45-12.2-32.55-4.19,4.06,10.81,4.06,10.81c0,0-12.61-1.49-12.12,7.01,.49,8.5,32.05-3.11,32.05-3.11,0,0-10.47,4.74-4.42,8.5,6.05,3.76,12.97-1.14,12.97-1.14,0,0,6,3.43,5.02,19.19-.98,15.76,8.42,19.24,8.42,19.24,0,0-1.13-23.88,3.48-30.26,4.61-6.38-2.16-30.06-16.93-26.07Z" style="fill:#322a28;"/><g><path d="M2083.24,312.91c-2.57,4.02-3.25,6.85-.1,8.86,3.16,2.02,8.4,1.38,10.97-2.64,2.57-4.02,2.09-8.91-1.07-10.93s-7.24,.68-9.81,4.7Z" style="fill:#fdae97;"/><path d="M2091.48,312.61s-3.24-.48-5.46,3.67c0,0,2.05-.47,4.54,0" style="fill:none; stroke:#e89780; stroke-miterlimit:10; stroke-width:.58px;"/></g><path d="M2066.81,304.48c0,1.52-.8,2.76-1.79,2.76s-1.79-1.24-1.79-2.76,.8-2.76,1.79-2.76,1.79,1.24,1.79,2.76Z" style="fill:#2c3447;"/><path d="M2065.67,321.8s-2.65,5.17-9.36,3.95" style="fill:none; stroke:#2c3447; stroke-miterlimit:10; stroke-width:.73px;"/><path d="M2059.23,305.54l-3.37,9.74c-.34,.99,.03,2.08,.91,2.65l2.74,1.78" style="fill:none; stroke:#2c3447; stroke-miterlimit:10; stroke-width:.73px;"/><path d="M2069.63,299.9s-3.76-2.63-7.35-.96" style="fill:none; stroke:#2c3447; stroke-miterlimit:10; stroke-width:.73px;"/><path d="M2048.37,304.48c0,1.52,.8,2.76,1.79,2.76s1.79-1.24,1.79-2.76-.8-2.76-1.79-2.76-1.79,1.24-1.79,2.76Z" style="fill:#2c3447;"/><path d="M2046.71,299.75s2.61-2.48,6.19-.81" style="fill:none; stroke:#2c3447; stroke-miterlimit:10; stroke-width:.73px;"/><path d="M2167.46,498.48h0c12.7-3.29,20.39-16.38,17.1-29.08l-21.89-84.42c-3.29-12.7-16.38-20.39-29.08-17.1h0c-12.7,3.29-20.39,16.38-17.1,29.08l21.89,84.42c3.29,12.7,16.38,20.39,29.08,17.1Z" style="fill:#f9e181;"/><path d="M2063.97,314.55c.47,1.4,3.11,1.78,5.89,.85s4.66-2.82,4.19-4.23c-.47-1.4-3.11-1.78-5.89-.85-2.79,.93-4.66,2.82-4.19,4.23Z" style="fill:#e89780;"/><path d="M2047.16,310.28v5.41c2.28,.27,4.15-.36,4.46-1.55,.34-1.41-1.65-3.13-4.46-3.86Z" style="fill:#e89780;"/><polygon points="1970.35 788.87 1971.54 765.77 1924.92 765.77 1924.18 788.87 1970.35 788.87" style="fill:#fdae97;"/><polygon points="1924.49 779.2 1971.54 765.77 1924.92 765.77 1924.49 779.2" style="fill:#e89780;"/><polygon points="2072.98 803.47 2069.17 780.37 2023.66 780.37 2029.45 803.47 2072.98 803.47" style="fill:#fdae97;"/><polygon points="2063.72 364.88 2072.17 364.88 2072.91 366.48 2069.02 369.37 2065.7 369.37 2062.92 365.98 2063.72 364.88" style="fill:#f74242;"/><polygon points="2026.45 791.47 2069.17 780.37 2023.66 780.37 2026.45 791.47" style="fill:#e89780;"/><polygon points="2094.18 351 2067.64 360.76 2072.48 371.84 2095.35 353.44 2094.18 351" style="fill:#fff;"/><polygon points="2057.01 353.69 2055.74 356.29 2062.62 370.79 2067.64 360.76 2057.01 353.69" style="fill:#fff;"/><polygon points="2065.7 369.37 2053.12 466.96 2062.92 479.59 2075.66 468.13 2069.02 369.37 2065.7 369.37" style="fill:#f74242;"/><line x1="2121.36" y1="417.48" x2="2135.32" y2="475.16" style="fill:none; stroke:#2c3447; stroke-miterlimit:10; stroke-width:.73px;"/><line x1="2023.25" y1="452.5" x2="2022.06" y2="417.48" style="fill:none; stroke:#2c3447; stroke-miterlimit:10; stroke-width:.73px;"/><path d="M2072.98,803.47l4.09,16.84h-61.06c-1.98-8.62,4.57-16.84,13.41-16.84h43.56Z" style="fill:#403534;"/><path d="M1970.35,788.87v18.33h-63.96l.08-1.51c.49-9.43,8.27-16.82,17.71-16.82h46.17Z" style="fill:#403534;"/><path d="M1923.27,792.52s-1.39-6.09-4.83-4.44c-3.44,1.65,4.61,4.66,4.61,4.66l-4.79,3.31" style="fill:none; stroke:#fff; stroke-linecap:round; stroke-linejoin:round; stroke-width:.39px;"/><path d="M1923.27,792.52s1.39-6.09,4.83-4.44c3.44,1.65-4.61,4.66-4.61,4.66l4.79,3.31" style="fill:none; stroke:#fff; stroke-linecap:round; stroke-linejoin:round; stroke-width:.39px;"/><path d="M2029.89,807.8s-1.39-6.09-4.83-4.44c-3.44,1.65,4.61,4.66,4.61,4.66l-4.79,3.31" style="fill:none; stroke:#fff; stroke-linecap:round; stroke-linejoin:round; stroke-width:.39px;"/><path d="M2029.89,807.8s1.39-6.09,4.83-4.44-4.61,4.66-4.61,4.66l4.79,3.31" style="fill:none; stroke:#fff; stroke-linecap:round; stroke-linejoin:round; stroke-width:.39px;"/><path d="M2053.16,355.75s-2.5,26.1-6.54,65.51c-4.04,39.41-3.78,100.92-16.5,112.73,0,0-13.11,.98-39.66,8.8,0,0,7.42-24.96,16.52-39.08,9.09-14.13,13.55-133.3,13.55-133.3l32.64-14.65Z" style="fill:#f9e181;"/><polygon points="2051 377.8 2047.92 408.52 2057.72 400.17 2057.01 378.4 2051 377.8" style="fill:#e5f0f8;"/><path d="M2103.35,354.21s-9.8,42.26-14.6,81.45c-4.8,39.19-3.17,77.09-15.52,100.1,0,0,49.53,8.91,49.42,28.89,0,0,13.96-15.4,14.08-36.49,.12-21.09,8.24-160.4,8.24-160.4l-41.62-13.55Z" style="fill:#f9e181;"/><g><polygon points="1940.68 576.57 2052.92 576.57 2023.63 492.52 1911.38 492.52 1940.68 576.57" style="fill:#a5bbd6;"/><g><polygon points="2051.7 572.49 2088.4 540.03 1979.84 540.03 1939.45 572.49 2051.7 572.49" style="fill:#89a5c7;"/><polygon points="1942.8 574.71 2055.04 574.71 2025.75 490.66 1913.5 490.66 1942.8 574.71" style="fill:#a5bbd6;"/><polygon points="1913.5 490.66 1911.38 492.52 2023.63 492.52 2052.92 576.57 2055.04 574.71 2025.75 490.66 1913.5 490.66" style="fill:#89a5c7;"/><polygon points="2088.4 540.03 2089.63 544.11 2052.92 576.57 2051.5 572.49 2088.4 540.03" style="fill:#586773;"/></g><ellipse cx="1977.42" cy="535.5" rx="12.44" ry="5.51" style="fill:#89a5c7;"/></g><path d="M2065.7,514.45l16.62,28.55-.09,.06c-7.62,4.02-23.61,19.36-29.39,25.02-1.33,1.26-3.24,1.58-4.89,.8l-15.69-7.28c-2.47-1.13-4.31-3.26-5.1-5.83l-3.44-11.13c-.32-1.14,.7-2.2,1.82-1.91l8.92,2.5c1.28,.32,2.64-.26,3.18-1.46l5.07-10.53-14.46,8.53c-.83,.47-1.9,.28-2.48-.52l-.8-1.14c-.58-.8-.46-1.91,.3-2.56l22.87-18.55,16.77-3.99s.26-.2,.77-.56Z" style="fill:#fdae97;"/><path d="M2180.83,466.01c7.02,10.58,5.09,24.36-4.28,30.54l-93.01,53.32-23.06-39.65,86.22-53.35c9.37-6.18,27.14-1.49,34.14,9.13Z" style="fill:#f9e181;"/><polyline points="2083.36 496.06 2134.05 464.69 2123.05 424.48" style="fill:none; stroke:#322a28; stroke-miterlimit:10; stroke-width:1px;"/></g><g><g><path d="M1061.5,1126.7l-142.32-55.42c-11.48,8.15-24.9,13.96-39.68,16.61h0c-14.78,2.65-29.38,1.87-42.98-1.78l-114.16,101.46s29.35,263.77,230.46,308.8h0c172.89-112.17,108.67-369.68,108.67-369.68Z" style="fill:#f9e181;"/><path d="M1039.56,1148.49l-119.33-46.45c-10.92,6.77-22.91,11.37-35.74,13.68h0c-12.83,2.3-25.67,2.17-38.26-.4l-95.71,85.06c2.48,16.4,11.39,65.61,35.02,117.46,16.73,36.73,37.48,67.59,61.66,91.73,28.68,28.63,62.41,47.88,100.31,57.25h0c32.28-21.97,57.21-51.74,74.14-88.58,14.28-31.03,22.99-67.19,25.9-107.45,4.13-56.84-4.64-106.08-8-122.3Z" style="fill:#f9ecb8;"/><path d="M975.91,1230.57l-29.38,5.27-7.29-40.6c-3.88-21.61-24.62-36.04-46.23-32.16-21.61,3.88-36.04,24.62-32.16,46.23l7.29,40.6-29.38,5.27c-1.95,.35-3.24,2.21-2.9,4.15l19.35,107.78c.35,1.95,2.21,3.23,4.16,2.88l68.58-12.31,68.57-12.31c1.95-.35,3.25-2.2,2.9-4.15l-19.35-107.78c-.35-1.94-2.21-3.23-4.16-2.88Zm-102.64-23.48c-2.65-14.76,7.2-28.93,21.97-31.58,14.76-2.65,28.93,7.21,31.58,21.97l7.29,40.6-26.77,4.81-26.78,4.81-7.29-40.6Z" style="fill:#f9e181;"/></g><g><path d="M865.21,1085.74s8.88,3.46,8.8,6.19c-.08,2.73-1.87,1.59-1.87,1.59,0,0,4.63,3.92,3.98,6.23-.65,2.31-4.03,.62-4.03,.62,0,0,1.84,3.44-.1,5.25-1.94,1.81-11.19-1.5-15.65-2.32s-14.98-1.92-16.12-.84c-1.14,1.08,12.14,5.68,11.78,8.55-.36,2.87-20.29,.2-27.41-1.62-3.06-.78-6.82-1.27-10.11-1.58l-.73-24.6c4.06-.69,23.41-3.93,31.6-4.38,9.18-.51,21.35,2.75,21.57,4.83,.22,2.08-1.69,2.07-1.69,2.07Z" style="fill:#fdae97;"/><path d="M718.34,1119.83c-11.14-.09-20.17-10.49-20.07-23.12,.1-12.62,9.31-22.88,20.45-22.78l96.51,4.67,.83,32.26-97.72,8.98Z" style="fill:#f74242;"/><rect x="601.18" y="1212.24" width="84.35" height="124.73" transform="translate(1286.72 2549.21) rotate(180)" style="fill:#e5f0f8;"/><path d="M732.32,1117.53h0c-11.4,6.47-26.02,2.43-32.48-8.97l-42.99-75.78c-6.47-11.4-2.43-26.02,8.97-32.48h0c11.4-6.47,26.02-2.43,32.48,8.97l42.99,75.78c6.47,11.4,2.43,26.02-8.97,32.48Z" style="fill:#f74242;"/><path d="M685.53,1144.19l25.07,143.44c1.28,3.6,2.01,7.47,2.01,11.51,0,19.03-15.43,34.46-34.46,34.46s-34.46-15.43-34.46-34.46l-40.34-154.95h82.19Z" style="fill:#0775ef;"/><polygon points="571.7 1142.86 651.3 1130.25 644.99 1244.72 635.26 1268.34 631.32 1302.27 562.5 1300.62 571.7 1142.86" style="fill:#088cff;"/><path d="M712.23,1303.99c.22-1.59,.38-3.2,.38-4.85,0-19.03-15.43-34.46-34.46-34.46s-34.46,15.43-34.46,34.46l2.04,162.83,58.1-.03,8.41-157.94Z" style="fill:#0775ef;"/><path d="M630.94,1297.42c-2.98-18.8-20.63-31.63-39.43-28.65-18.8,2.98-27.87,12.45-29.01,31.85-2.63,45.03-6.37,160.63-6.37,160.63l60.29-.16,14.91-158.83c-.03-1.6-.12-3.22-.38-4.85Z" style="fill:#088cff;"/><polygon points="649.09 981.86 685.53 998.27 685.53 1146.24 571.51 1146.24 562.45 999.64 611.81 979.15 649.09 981.86" style="fill:#fff;"/><path d="M649.08,958.74v23.12s-1.38,4.99-13.14,5.04c-11.73,.02-24.14-7.76-24.14-7.76l3.64-50.55,33.64,30.15Z" style="fill:#fdae97;"/><polygon points="649.09 978.69 625.07 953.76 649.09 953.44 649.09 978.69" style="fill:#e89780;"/><path d="M645.05,906.44s4.46,13.46,7.62,23.01l2.61,7.89c2.06,6.23,3.38,16.06-2.93,20.53-6.29,4.46-16.89,4.72-26.03-.34-9.14-5.09-34.96-33.1-18.26-52.14,16.72-19.04,35.43-2,36.98,1.06Z" style="fill:#fdae97;"/><path d="M609.84,903.52s21.25-19.88,29.55-14.19c8.3,5.69-.46,11.53-.46,11.53,0,0,11.5-5.37,13.7,2.85,2.2,8.22-31.38,7.12-31.38,7.12,0,0,11.42,1.21,6.86,6.68s-12.66,2.99-12.66,2.99c0,0-4.61,5.14,1.27,19.78,5.88,14.64-3.58,20.25-3.58,20.25,0,0-4.8-22.36-11.17-26.96-6.37-4.6-7.39-29.18,7.87-30.04Z" style="fill:#322a28;"/><g><path d="M619.27,943.27c3.7,3.01,5.23,5.47,2.87,8.38-2.36,2.9-7.54,3.95-11.23,.94s-4.78-7.8-2.42-10.7,7.08-1.62,10.78,1.38Z" style="fill:#fdae97;"/><path d="M611.36,945.56s2.92-1.48,6.33,1.77c0,0-2.09,.2-4.3,1.42" style="fill:none; stroke:#e89780; stroke-miterlimit:10; stroke-width:.58px;"/></g><path d="M633.06,929.96c.48,1.45,1.63,2.37,2.56,2.06,.94-.31,1.31-1.73,.83-3.18-.48-1.45-1.63-2.37-2.56-2.06-.94,.31-1.31,1.73-.83,3.18Z" style="fill:#322a28;"/><path d="M638.73,946.18s4.14,4.07,10.12,.81" style="fill:none; stroke:#332b27; stroke-miterlimit:10; stroke-width:.73px;"/><path d="M639.73,928.73l6.25,8.18c.63,.83,.62,1.98-.03,2.8l-2.04,2.55" style="fill:none; stroke:#332b27; stroke-miterlimit:10; stroke-width:.73px;"/><path d="M628.1,926.65s2.74-3.68,6.67-3.22" style="fill:none; stroke:#332b27; stroke-miterlimit:10; stroke-width:.73px;"/><path d="M650.55,924.17c.48,1.45,.11,2.87-.83,3.18-.94,.31-2.08-.61-2.56-2.06-.48-1.45-.11-2.87,.83-3.18,.94-.31,2.08,.61,2.56,2.06Z" style="fill:#322a28;"/><path d="M649.78,919.31s-3.25-1.53-6.13,1.17" style="fill:none; stroke:#332b27; stroke-miterlimit:10; stroke-width:.73px;"/><path d="M543.64,1128.96h0c-12.69-3.28-20.39-16.34-17.11-29.03l21.79-84.36c3.28-12.69,16.34-20.39,29.03-17.11h0c12.69,3.28,20.39,16.34,17.11,29.03l-21.79,84.36c-3.28,12.69-16.34,20.39-29.03,17.11Z" style="fill:#f74242;"/><path d="M606.9,981.19s21.85,47.73,23.54,92.74c1.69,45.01,0,126.76,0,126.76h-67.99v-201.05l44.45-18.45Z" style="fill:#f74242;"/><ellipse cx="632.74" cy="938.76" rx="2.67" ry="5.31" transform="translate(-308.21 1568.23) rotate(-89.8)" style="fill:#e89780;"/><path d="M651.9,983.12s9.9,87.34,9.47,114.12c-.42,26.78,2.12,96.71,2.12,96.71h32.9s1.24-41.56,0-67.6c-1.24-26.04-10.86-128.08-10.86-128.08l-33.64-15.15Z" style="fill:#f74242;"/><path d="M652.66,929.44l1.7,5.13c-2.08,.97-4.05,.96-4.72-.07-.76-1.23,.58-3.49,3.02-5.06Z" style="fill:#e89780;"/><polygon points="650.27 1476.1 650.83 1461.96 697.99 1461.94 697.6 1476.1 650.27 1476.1" style="fill:#fdae97;"/><polygon points="697.66 1471.84 650.83 1461.96 697.99 1461.94 697.66 1471.84" style="fill:#e89780;"/><polygon points="560.68 1476.1 560.68 1461.25 605.68 1461.25 604.16 1476.1 560.68 1476.1" style="fill:#fdae97;"/><polygon points="604.74 1470.39 560.68 1461.25 605.68 1461.25 604.74 1470.39" style="fill:#e89780;"/><line x1="690.33" y1="1044.68" x2="696.39" y2="1103.18" style="fill:none; stroke:#332b27; stroke-miterlimit:10; stroke-width:1px;"/><path d="M597.86,1252.79l-8.05-4.57c-1.15-.65-1.66-2.03-1.22-3.28l3.87-11,4.17,16.23c.24,.94,1.16,1.54,2.11,1.39l1.38-.22c.98-.16,1.67-1.05,1.57-2.05l-3.02-29.24-9.03-14.69-32.03,7.58c2.54,8.24,3,30.38,3.08,38.45,.02,1.81,1.16,3.41,2.86,4.04l16.23,5.94c2.54,.93,5.35,.74,7.74-.52l10.29-5.43c1.04-.55,1.06-2.03,.04-2.61Z" style="fill:#fdae97;"/><path d="M571.27,1101.17c-2.24-10.99-14.26-17.91-26.71-15.38-12.45,2.54-20.81,13.61-18.57,24.6l28.69,104.89,39.56-9.27c.07-.01-22.97-104.84-22.97-104.84Z" style="fill:#f74242;"/><path d="M638.73,928.46c1.24,2.73,.46,5.75-1.73,6.75-2.2,1-4.98-.41-6.22-3.14-1.24-2.73-.46-5.75,1.73-6.75,2.2-1,4.98,.41,6.22,3.14Z" style="fill:none; stroke:#f7e7dc; stroke-miterlimit:10; stroke-width:.82px;"/><path d="M651.79,924.18c1.17,2.58,.54,5.38-1.4,6.26-1.94,.88-4.47-.49-5.64-3.07-1.17-2.58-.54-5.38,1.4-6.26,1.94-.88,4.47,.49,5.64,3.07Z" style="fill:none; stroke:#f7e7dc; stroke-miterlimit:10; stroke-width:.82px;"/><line x1="638.48" y1="927.97" x2="644.25" y2="925.78" style="fill:none; stroke:#f7e7dc; stroke-miterlimit:10; stroke-width:.82px;"/><path d="M648.78,1495.81h66.05l-.08-2.95c0-.43-.04-.85-.08-1.28-.85-8.72-8.18-15.47-17.09-15.47h-47.33l-1.16,15.47-.31,4.23Z" style="fill:#332b27;"/><path d="M648.78,1495.81h66.05l-.08-2.95c0-.43-.04-.85-.08-1.28h-65.58l-.31,4.23Z" style="fill:#fff;"/><path d="M695.89,1480.99s1.44-6.3,4.99-4.59c3.55,1.71-4.77,4.81-4.77,4.81l4.95,3.42" style="fill:none; stroke:#fff; stroke-linecap:round; stroke-linejoin:round; stroke-width:.4px;"/><path d="M695.89,1480.99s-1.44-6.3-4.99-4.59c-3.55,1.71,4.77,4.81,4.77,4.81l-4.95,3.42" style="fill:none; stroke:#fff; stroke-linecap:round; stroke-linejoin:round; stroke-width:.4px;"/><path d="M541.92,1495.81h60.89l.31-4.23,1.05-15.47h-43.49c-9.15,0-16.86,6.63-18.33,15.47-.16,.62-.23,1.28-.27,1.94l-.16,2.29Z" style="fill:#332b27;"/><path d="M541.92,1495.81h60.89l.31-4.23h-60.78c-.16,.62-.23,1.28-.27,1.94l-.16,2.29Z" style="fill:#fff;"/><path d="M557.2,1480.99s1.44-6.3,4.99-4.59c3.55,1.71-4.77,4.81-4.77,4.81l4.95,3.42" style="fill:none; stroke:#fff; stroke-linecap:round; stroke-linejoin:round; stroke-width:.4px;"/><path d="M557.2,1480.99s-1.44-6.3-4.99-4.59c-3.55,1.71,4.77,4.81,4.77,4.81l-4.95,3.42" style="fill:none; stroke:#fff; stroke-linecap:round; stroke-linejoin:round; stroke-width:.4px;"/><polyline points="594.24 1206.01 572.67 1111.85 587.18 1055.68" style="fill:none; stroke:#332b27; stroke-miterlimit:10; stroke-width:1px;"/></g></g><g><path d="M1307.81,1003.41c-.95,1.69,6.72,10.6,14.07,15.03,6.23,3.76,21.51,10.89,26.04,12.96l12.48-19.49c-2.24-1.87-4.64-4.02-6.47-6.12-4.54-5.13-18.48-17.67-20.28-15.63-1.8,2,6.03,12.54,4.58,12.77-1.45,.23-8.99-6.15-11.97-9.12-3.02-2.97-8.41-10.38-10.84-10-2.47,.37-2.83,4-2.83,4,0,0-1.74-3.07-3.46-1.64-1.72,1.44-.21,6.89-.21,6.89,0,0-.76-1.8-2.26,.24-1.5,2.08,3.52,9.41,3.52,9.41,0,0-1.45-1.01-2.37,.71Z" style="fill:#fdae97;"/><path d="M1503.76,887.82c16.2,1.41,30.26,15.17,30.46,34.83,.2,19.66,3.76,29.77,15.65,27.49,0,0-33.29,19.31-77.16,2.27,0,0,5.5-6.52,6.27-21.28,.77-14.76,24.78-43.31,24.78-43.31Z" style="fill:#322a28;"/><path d="M1418.58,1088.68h0c10.32,5.55,23.31,1.66,28.86-8.66l41.75-77.57c5.55-10.32,1.66-23.31-8.67-28.86h0c-10.32-5.55-23.31-1.66-28.86,8.66l-41.75,77.57c-5.55,10.32-1.66,23.31,8.67,28.86Z" style="fill:#f74242;"/><path d="M1513.47,1114.49c13.95,18.27,19.21,56.14,10.31,96.93-8.9,40.8-11.9,67.61-11.9,67.61-2.32,18.88-19.51,32.31-38.39,30-18.88-2.32-32.31-19.51-29.99-38.39l14.18-156.15h55.79Z" style="fill:#0775ef;"/><path d="M1516.54,964.74l37.29,16.89s-8.29,96-9.15,106.5c-.86,10.5,2.36,26.36,2.36,26.36h-89.37s1.07-51.43-4.93-65.79c-4.07-9.73-6.86-15.64-4.5-26.79,2.36-11.14,19.61-30.84,16.82-50.13l19.45-6.23,32.02-.8Z" style="fill:#f74242;"/><path d="M1554.44,1111.52h0c11.71-.56,20.82-10.6,20.26-22.31l-4.23-87.99c-.56-11.71-10.6-20.82-22.31-20.26h0c-11.71,.56-20.82,10.6-20.26,22.31l4.23,87.99c.56,11.71,10.6,20.82,22.31,20.26Z" style="fill:#f74242;"/><path d="M1480.02,909.11s-5.07-12.48,7.12-16.26l-7.12,16.26Z" style="fill:#332b27;"/><path d="M1484.53,922.16v43.38s.87,9.52,12.17,10.36c9.75,.74,15.97-5.68,18.6-9.11l1.38-2.02,.03-.03-4.61-42.57h-27.57Z" style="fill:#fdae97;"/><polygon points="1484.53 960.6 1503.76 939.69 1484.52 946.92 1484.53 960.6" style="fill:#e89780;"/><path d="M1503.6,944.32c-8.99,5.3-19.59,5.29-25.99,.99-6.4-4.28-5.35-14.14-3.44-20.4v-.05c.41-1.29,.97-3.11,1.6-5.18,2.45-8.09,6.06-20.06,6.06-20.06,1.58-6.33,19.71-20.56,36.86-2,17.15,18.59-6.11,41.39-15.1,46.69Z" style="fill:#fdae97;"/><path d="M1482.41,897.08s.24,7.58,10.86,12.65c10.62,5.07,20.7,12.81,19.43,24.01-1.27,11.2,2.57,17.52,2.57,17.52,0,0,1.58-13.96,8.62-25.77,2.73-4.58,5.12-14.26,.59-22.59-7.15-13.16-25.62-23.15-42.07-5.81Z" style="fill:#322a28;"/><path d="M1510.88,931.33c-2.28,3.38-2.93,5.78-.28,7.57,2.65,1.79,7.15,1.37,9.43-2.01,2.28-3.38,1.99-7.57-.66-9.36-2.65-1.79-6.2,.42-8.49,3.8Z" style="fill:#fdae97;"/><path d="M1516.86,933.85c-2.22-1.08-4.16-.11-4.16-.11,1.54-3.85,6.16-2.29,6.16-2.29" style="fill:none; stroke:#e89780; stroke-linecap:round; stroke-linejoin:round; stroke-width:.51px;"/><path d="M1494.19,921.33c-.42,1.52-1.56,2.53-2.54,2.25-.98-.27-1.44-1.72-1.01-3.24,.42-1.52,1.56-2.53,2.54-2.25,.98,.27,1.44,1.72,1.01,3.24Z" style="fill:#2c3447;"/><path d="M1481.86,916.6c-.39,1.4-1.44,2.33-2.35,2.08-.91-.25-1.33-1.59-.94-2.99,.39-1.4,1.44-2.33,2.35-2.08,.91,.25,1.33,1.59,.94,2.99Z" style="fill:#2c3447;"/><path d="M1431.13,1456.71h60.53l20.78-177.92,.27-4.07c0-19.34-15.94-34.93-35.41-34.35-17.56,.51-32.27,14.79-33.31,32.35l-12.85,183.99Z" style="fill:#0775ef;"/><path d="M1499.39,918.93s-1.99-4.63-5.93-4.25" style="fill:none; stroke:#2c3447; stroke-miterlimit:10; stroke-width:.75px;"/><path d="M1483.56,911.2s-2.1-1.03-5.12,.71" style="fill:none; stroke:#2c3447; stroke-miterlimit:10; stroke-width:.75px;"/><path d="M1541.67,1456.71h57.76l-18.33-183.77-.05-.64c-1.22-17.85-16.12-31.96-34.3-31.96s-34.38,15.38-34.38,34.38c0,1.06,.05,2.1,.16,3.11l29.13,178.88Z" style="fill:#088cff;"/><path d="M1342.06,1040.56l70.69,44.73,4.18,3.47c8.53,5.91,21.02,2.83,27.73-6.85,6.71-9.68,5.19-22.44-3.33-28.34l-79.18-44.38-1.75,2.71-12.48,19.49-5.86,9.17Z" style="fill:#f74242;"/><path d="M1486.97,917.73s-2.26,7.47-6.93,7.16c0,0,1.05,1.67,2.66,2.68" style="fill:none; stroke:#2c3447; stroke-miterlimit:10; stroke-width:.75px;"/><path d="M1485.7,1114.51l.81,5.01,25.93,158.42c1.98,18.93,18.93,32.65,37.86,30.67,18.9-1.98,32.65-18.93,30.67-37.86,0,0-3.13-26.8-3.63-68.57-.4-32.35-7.73-58.44-19.27-75.33-3.36-4.91-7.06-9.05-11.03-12.34h-61.34Z" style="fill:#088cff;"/><path d="M1480.21,933.63s4.33,3.43,9.36-1" style="fill:none; stroke:#2c3447; stroke-miterlimit:10; stroke-width:.75px;"/><path d="M1501.53,927.96c.05,1.64-2.53,3.04-5.74,3.13s-5.86-1.17-5.91-2.81,2.53-3.04,5.74-3.13c3.22-.09,5.86,1.17,5.91,2.81Z" style="fill:#e89780;"/><path d="M1477.58,924.09c-.52,.87-1.83,1.12-3.4,.78,.4-1.29,.96-3.11,1.59-5.18,1.69,1.54,2.49,3.31,1.81,4.4Z" style="fill:#e89780;"/><path d="M1509.35,938.9c-.37,1.4,.46,2.83,1.86,3.21,1.4,.37,2.83-.46,3.21-1.85,.37-1.4-.46-2.83-1.86-3.21-1.4-.37-2.83,.46-3.21,1.85Z" style="fill:none; stroke:#fff; stroke-miterlimit:10; stroke-width:.67px;"/><polygon points="1611.06 1495.74 1566.47 1495.74 1560.68 1486.93 1560.81 1495.74 1550.99 1495.74 1551.87 1470.29 1549.72 1456.7 1586.04 1456.7 1586.17 1470.29 1611.06 1495.74" style="fill:#fdae97;"/><path d="M1483.15,965.36l2.25,45.61,29.89-44.19c-2.62,3.43-8.84,9.85-18.6,9.11-11.3-.84-13.55-10.53-13.55-10.53Z" style="fill:#f9ecb8;"/><polygon points="1516.43 962.27 1494.14 975.53 1498.85 983.78 1519.58 966.12 1516.43 962.27" style="fill:#fff;"/><polygon points="1484.53 964.17 1494.14 975.53 1488.34 982.53 1482.29 966.26 1484.53 964.17" style="fill:#fff;"/><g><polygon points="1312.3 926.54 1326.68 917.72 1181.97 681.67 1165.44 670.83 1167.59 690.48 1312.3 926.54" style="fill:#93acbf;"/><path d="M1480.23,1236.76l46.72-28.64c6.39-3.92,8.39-12.27,4.48-18.66l-149.32-243.58-69.86,42.83,149.32,243.58c3.92,6.39,12.27,8.39,18.66,4.48Z" style="fill:#6adb6a;"/><path d="M1278.52,911.42h81.94v18.71c0,1.5-1.21,2.71-2.71,2.71h-76.52c-1.5,0-2.71-1.21-2.71-2.71v-18.71h0Z" transform="translate(2926.37 1018.66) rotate(148.49)" style="fill:#6adb6a;"/><path d="M1309.71,966.13c-6.89-10.22-19.56-13.45-19.56-13.45l34.93-21.41,34.93-21.41s-2.86,12.75,3.12,23.53c5.98,10.78,18.97,12.49,18.97,12.49l-34.93,21.41-34.93,21.41s4.37-12.35-2.53-22.57Z" style="fill:#40a87b;"/><path d="M1491.92,1203.4h0c2.64-1.62,3.47-5.1,1.86-7.73l-126.8-206.84c-1.62-2.64-5.1-3.47-7.73-1.86h0c-2.64,1.62-3.47,5.1-1.86,7.73l126.8,206.84c1.62,2.64,5.1,3.47,7.73,1.86Z" style="fill:#40a87b;"/><path d="M1472.75,1215.16h0c2.64-1.62,3.47-5.1,1.86-7.73l-126.8-206.84c-1.62-2.64-5.1-3.47-7.73-1.86h0c-2.64,1.62-3.47,5.1-1.86,7.73l126.8,206.84c1.62,2.64,5.1,3.47,7.73,1.86Z" style="fill:#40a87b;"/><path d="M1511.1,1191.65h0c-2.64,1.62-6.12,.78-7.73-1.86l-126.8-206.84c-1.62-2.64-.78-6.12,1.86-7.73h0c2.64-1.62,6.12-.78,7.73,1.86l126.8,206.84c1.62,2.64,.78,6.12-1.86,7.73Z" style="fill:#40a87b;"/><polygon points="1181.97 681.67 1165.44 670.83 1184.66 697.59 1181.97 681.67" style="fill:#586773;"/><polygon points="1167.59 690.48 1165.44 670.83 1180.56 700.11 1167.59 690.48" style="fill:#586773;"/></g><polygon points="1450.66 1495.74 1461.32 1487.81 1460.41 1495.74 1470.33 1495.74 1475.21 1470.29 1477.83 1456.7 1439.36 1456.7 1437.88 1470.29 1407.01 1495.74 1450.66 1495.74" style="fill:#fdae97;"/><polygon points="1586.17 1470.29 1611.06 1495.74 1566.47 1495.74 1560.68 1486.93 1560.81 1495.74 1550.99 1495.74 1551.87 1470.29 1586.17 1470.29" style="fill:#322a28;"/><polygon points="1450.66 1495.74 1461.32 1487.81 1460.41 1495.74 1470.33 1495.74 1475.21 1470.29 1437.88 1470.29 1407.01 1495.74 1450.66 1495.74" style="fill:#322a28;"/><path d="M1418.92,1047.08c-2.19,1.17-1.34,4.71-1.34,4.71,0,0-2.67-2.33-3.78-.41-1.06,1.78,1.65,5.96,2,6.51-.29-.28-1.34-1.06-1.97,1.05-.7,2.32,5.77,7.18,6.39,7.63-.27-.04-1.68-.26-1.96,1.49-.3,1.95,9.88,7.8,18.27,9.55,7.09,1.46,23.8,3.04,28.81,3.51l5.63-22.38c-2.83-1.03-5.95-2.34-8.4-3.74-6-3.35-23.32-10.51-24.35-7.99-1.03,2.49,9.86,9.82,8.57,10.51-1.29,.69-10.51-2.81-14.32-4.6-3.84-1.82-11.4-7.02-13.55-5.85Z" style="fill:#fdae97;"/><path d="M1472.67,1051.97l-1.69,6.77-5.63,22.38-1.5,5.94,85.71,25.24c10,2.75,20.75-4.28,23.89-15.64,3.1-11.38-2.55-22.9-12.59-25.65l-6.77-.92h-.03l-81.39-18.13Z" style="fill:#f74242;"/><polyline points="1489.09 1055.63 1530.86 1064.93 1529.64 1039.47" style="fill:none; stroke:#2c3447; stroke-miterlimit:10; stroke-width:.75px;"/><path d="M1489.18,920.33c-1.32,2.67-.75,5.64,1.28,6.65,2.03,1.01,4.75-.34,6.07-3,1.32-2.67,.75-5.64-1.28-6.65-2.03-1.01-4.75,.34-6.07,3Z" style="fill:none; stroke:#fff; stroke-miterlimit:10; stroke-width:.98px;"/><path d="M1476.99,915.67c-1.32,2.67-.75,5.64,1.28,6.65,2.03,1.01,4.75-.34,6.07-3s.75-5.64-1.28-6.65c-2.03-1.01-4.75,.34-6.07,3Z" style="fill:none; stroke:#fff; stroke-miterlimit:10; stroke-width:.98px;"/><line x1="1489.89" y1="919.19" x2="1484.96" y2="917.49" style="fill:none; stroke:#fff; stroke-miterlimit:10; stroke-width:.98px;"/><line x1="1536.3" y1="1108.4" x2="1477.82" y2="1091.18" style="fill:none; stroke:#2c3447; stroke-miterlimit:10; stroke-width:.75px;"/></g></svg>