<svg id="Illustration" xmlns="http://www.w3.org/2000/svg" xmlns:xlink="http://www.w3.org/1999/xlink" viewBox="0 0 2800 2000"><defs><style>.cls-1,.cls-19{fill:#fff;}.cls-2{fill:#d5f0ff;}.cls-11,.cls-12,.cls-13,.cls-14,.cls-15,.cls-16,.cls-17,.cls-18,.cls-19,.cls-2,.cls-20,.cls-21,.cls-22,.cls-24,.cls-25,.cls-3,.cls-5{fill-rule:evenodd;}.cls-3{fill:#0ebaa0;}.cls-4{fill:#16888c;}.cls-5{fill:#24d1b3;}.cls-6{fill:#dfe6ff;}.cls-11,.cls-7{fill:#2c7efe;}.cls-8{fill:#62cbec;}.cls-13,.cls-9{fill:#0643a3;}.cls-10,.cls-17{fill:#ff9866;}.cls-12,.cls-23{fill:#84b2fe;}.cls-14{fill:#060352;}.cls-15{fill:#ffaa81;}.cls-16{fill:#153663;}.cls-18{fill:#ff4d8a;}.cls-20{fill:#db3a55;}.cls-21{fill:#be96f8;}.cls-22{fill:#ea718b;}.cls-24{fill:url(#linear-gradient);}.cls-25{fill:url(#linear-gradient-2);}</style><linearGradient id="linear-gradient" x1="1170.48" y1="-54.6" x2="1260.59" y2="-54.6" gradientTransform="matrix(-0.86, 0.65, 0.73, 0.76, 2557.02, -460.38)" gradientUnits="userSpaceOnUse"><stop offset="0" stop-color="#be96f8"/><stop offset="1" stop-color="#dfcffd"/></linearGradient><linearGradient id="linear-gradient-2" x1="1106.11" y1="1.46" x2="1200.68" y2="1.46" xlink:href="#linear-gradient"/></defs><rect class="cls-1" width="2800" height="2000"/><path class="cls-2" d="M2336.79,431.89C2151.55,163.16,1677.57,13,1150,82.77,503.31,169.14,21.79,554.09,74.17,942.71c25.56,189.72,173.5,345.44,393.94,444.67,185.23,269.19,659.21,419.4,1186.83,349.12,646.64-85.91,1128.17-470.86,1075.78-859.48-25.56-189.72-173.5-345.44-393.93-445.13Z"/><path class="cls-3" d="M705.93,952.75c52.93-69.16,93.29-246.1,52.45-372.14C746.12,541.87,703.3,408.5,626.53,435.34,601.1,477,638.86,579,550.31,559.93c-40-22.17,63.62-95.14,44.27-135.1-33.47-50.4-136.14-101.21-197.09-67.19-14.09,27.13,58.58,184.13,22,200-38.13,6.28-26.93-106-40.3-158.83-19.21-51.87-108.15-35-163.26-30.2,50.66,49.61,82.26,99.68,61.86,114.14-52.94,28.71-28.35-95-61.86-114.14-80,6.91-103.55-23.12-138.72,7.1-13,54.52-17.69,80.07-1.42,130.86,38.21,109.31,214.3,61,207.39,99.77-20.88,28.63-143.17-29.39-157-12.82-34.23,29.33-7.64,118.36,29.79,131,55.41,18.83,203.09-28.46,212.45,2.12,12.1,38.42-181.73,18.77-209.49,82.35-17.85,54.41,23.4,126,59,168.9,36.63,67.56,210.55-142.95,231.78-125.23,22.37,69-229.1,159.44-138.5,230.67,52,34,113.92,27.23,174,17.11,92.55-15.87,184.37-97.38,220.73-147.69ZM279.68,800.08c5.44-8,17.09-9.49,25.9-3.38s11.55,17.63,6,25.56-17.21,9.45-26,3.34-11.43-17.59-5.86-25.52ZM461.62,659.51c6.69,28.67,31.52-6.56,31.18-22.69,3.46-19.77,3.44-49.19-16.1-60.32-23.13,10.7-22.37,46.79-15.08,83Zm108.12,60.43c-35.24-24.83,12.77-99.12,36.42-98.35,20.65,7.28-7.36,108.86-36.42,98.35ZM500,913.46c-9.58,13.08,14.12,10.84,20.62,4.91,9.55-5.6,21.89-16.22,19.46-28.29-12.68-5.91-27.56,7.31-40.08,23.38ZM254.6,637.6c13.67-11.9,38.23-8.22,54.23-2,2.41,13.38-17.58,15.51-30.05,17.94-13.44,3.43-30.26-4.72-24.18-15.9Z"/><path class="cls-4" d="M871.49,1177.94a7.28,7.28,0,0,1-3.74-2.77c-200.12-286.58-434.48-520.79-716.49-716a7.28,7.28,0,1,1,8.29-12,2843,2843,0,0,1,412.24,347.3c110.73,113.06,214.32,238.33,307.9,372.35a7.28,7.28,0,0,1-8.2,11.1Z"/><path class="cls-4" d="M356,614.22a7.28,7.28,0,0,1-4.83-8.7c16.63-66.6,2.23-127.3-42.79-180.42a7.28,7.28,0,0,1,11.11-9.42c23,27.12,38.69,56.62,46.67,87.68,8.59,33.44,8.3,69-.87,105.69a7.27,7.27,0,0,1-8.82,5.3Z"/><path class="cls-4" d="M594.66,837.89a7.38,7.38,0,0,1-2.82-1.68,7.29,7.29,0,0,1-.2-10.3c84-87.41,107.27-198,67.41-319.7a7.28,7.28,0,1,1,13.84-4.53C714.53,628.86,690.07,744.47,602.14,836A7.3,7.3,0,0,1,594.66,837.89Z"/><path class="cls-4" d="M239,879.37a7.28,7.28,0,0,1,1.87-14.2C342.92,860.19,414,818.63,486,721.73a7.28,7.28,0,0,1,11.68,8.69C461.58,779,427.35,812.51,390,835.89c-42.66,26.7-91.2,41-148.4,43.82A7.36,7.36,0,0,1,239,879.37Z"/><path class="cls-4" d="M370,1050.63a7.28,7.28,0,0,1,1.81-14.2c175.27-9.91,241-82.29,278.63-144.25a7.28,7.28,0,1,1,12.44,7.57c-39.51,65-108.2,140.92-290.25,151.21A7,7,0,0,1,370,1050.63Z"/><path class="cls-5" d="M896.05,898.85c85.42-16.58,233-122.2,286-243.76,16.47-37,72.88-165.32-2.32-196.15-46.62,14.33-86,115.8-139.67,42.78-15.31-43.13,110.68-29,122.73-71.85,8.3-59.84-34.84-166-103-180.9-28.58,10.92-78.33,176.57-116.27,164.26-32.66-20.59,50.2-97.09,75.24-145.65,19.94-51.51-57.77-97.85-102.19-130.89,5,70.69-4.56,129.2-29.43,126.48-58.67-13.58,41.86-89.92,29.43-126.48C852.23,88.85,854.45,50.83,808.09,50c-46.06,32.23-66.4,48.15-87.88,97.07-43.87,107.27,119.91,187.79,89.11,212.18-34.64,7.67-87.76-116.93-109.16-113.68C655.23,244.81,616,329,635.69,363.43c29,50.8,170.87,113.27,157.56,142.48-16.36,36.65-148.46-106.6-211.44-77.3-49.46,28.91-65.95,109.76-67.82,165.5-17.34,74.93,252.46,32.55,256.53,60C741.56,720.58,493.38,621.51,514,735c16.37,59.88,67.19,95.88,118.84,128.09,79.84,49.52,202.54,49.36,263.25,35.75ZM678.17,502c9.39-2.24,19.11,4.29,21.68,14.7s-3.13,20.8-12.52,23-19.1-4.3-21.67-14.71,3.09-20.67,12.51-23Zm229.41,15.57c-14.06,25.82,28,15.94,38.36,3.64,15.72-12.55,35.24-34.52,28-55.75-24.4-7.44-47.78,20-66.36,52.11Zm40.78,116.83c-9.8-41.89,75.34-65.78,92.57-49.48,10.65,19.17-77.64,76.6-92.57,49.48ZM767.92,733c-15.82,3.46,3.32,17.48,12.14,17.42,10.9,2.05,27.11,2.27,33.4-8.32-5.6-12.83-25.45-12.76-45.54-9.1Zm-.75-369.25c18.2.19,34,19.19,41.87,34.45-7,11.54-23.49-.06-34.32-6.42-12.25-6.43-19.48-23.59-7.55-28Z"/><path class="cls-4" d="M874.6,1180.51a7.3,7.3,0,0,1-5-7.77c40.21-347.25,20.13-678-61.41-1011.15a7.28,7.28,0,1,1,14.14-3.46A2846.59,2846.59,0,0,1,900.5,691.49c7.9,158.07,2.37,320.55-16.43,482.93a7.29,7.29,0,0,1-8.07,6.39A7.11,7.11,0,0,1,874.6,1180.51Z"/><path class="cls-4" d="M862.54,416.82a7.28,7.28,0,0,1-1.89-12.93C917.27,365,946.78,310,948.36,240.33a7.28,7.28,0,1,1,14.56.32c-1.69,74.61-33.33,133.56-94,175.24A7.27,7.27,0,0,1,862.54,416.82Z"/><path class="cls-4" d="M892.82,742.36a7.28,7.28,0,0,1,1.64-14.19c120.86-9.77,211.66-77,262.58-194.52a7.28,7.28,0,0,1,13.36,5.79c-53.19,122.74-148.2,193-274.77,203.25A7.29,7.29,0,0,1,892.82,742.36Z"/><path class="cls-4" d="M698.47,592.61c-35.19-11.3-68.7-29.89-101.57-56.28A7.28,7.28,0,0,1,606,525c79.67,64,160.38,80,278.59,55.22a7.28,7.28,0,0,1,3,14.26c-59.24,12.4-107.08,14.79-150.54,7.51A273.84,273.84,0,0,1,698.47,592.61Z"/><path class="cls-4" d="M723.55,831.51c-42.16-13.53-89.3-38.3-142.06-80a7.28,7.28,0,1,1,9-11.42c137.63,108.83,234.82,98.15,304.11,76.68a7.28,7.28,0,0,1,4.31,13.91C853.07,844.87,795.61,854.63,723.55,831.51Z"/><ellipse class="cls-6" cx="1402.45" cy="1897.73" rx="1265.58" ry="56"/><path class="cls-7" d="M318,760.23H1731.78c19.23,0,38.14,16.39,41.92,35.93,15.12,84.46,29.94,168.6,45.06,252.75,15.13,84.46,30.26,168.61,45.39,253.07,15.44,84.77,30.57,169.24,45.69,254,15.13,85.09,30.57,170.18,45.7,255.28,3.78,19.85-9.77,35.92-29,35.92H502.06c-19.23,0-36.88-15.76-40.34-35.29q-21.29-127.65-43.18-255.28c-14.18-84.77-28.68-169.87-42.86-254.64-14.5-84.46-28.68-169.24-43.18-253.7L290,795.84c-3.15-19.54,9.14-35.61,28.05-35.61Z"/><path class="cls-8" d="M382.3,816.64h978.55c108.73.32,217.77,0,326.5,0,17.64,0,35,14.82,38.13,32.15q20.32,113,40.65,226.59c13.56,75.64,27.11,151,40.66,226.6l40.65,227.85c13.55,76,27.11,151.91,41,228.49,3.15,17.33-9.14,31.83-26.78,31.83h-657.1c-109.67,0-219.34.31-329,.31H547.44c-17.65,0-34.35-14.18-37.19-31.83q-19.38-114.39-38.76-228.17Q452.11,1416.07,432.72,1302c-12.92-75.64-25.84-151.59-38.45-227.23q-19.38-113.44-38.44-226.28c-2.84-17.65,8.82-31.83,26.47-31.83Z"/><path class="cls-7" d="M500.17,1763.05H1750.06a31,31,0,0,0,30.26,24.89h201.06a31,31,0,0,0,30.26-24.89h475.88c21.11,0,38.76,17.33,38.76,38.45v60.19a39.15,39.15,0,0,1-38.76,38.76H500.17c-21.12,0-38.45-17.65-38.45-38.76V1801.5a38.6,38.6,0,0,1,38.45-38.45Z"/><path class="cls-9" d="M500.17,1763.05h886.52a38.67,38.67,0,0,1,38.76,38.45v60.19a38.94,38.94,0,0,1-38.76,38.76H500.17c-21.12,0-38.45-17.65-38.45-38.76V1801.5a38.6,38.6,0,0,1,38.45-38.45Z"/><path class="cls-7" d="M992.43,1814.73h115a9.29,9.29,0,0,1,9.46,9.46V1839a9.55,9.55,0,0,1-9.46,9.77h-115A9.55,9.55,0,0,1,983,1839v-14.81a9.29,9.29,0,0,1,9.45-9.46Z"/><path class="cls-7" d="M1168.6,1814.73h115a9.29,9.29,0,0,1,9.46,9.46V1839a9.55,9.55,0,0,1-9.46,9.77h-115a9.55,9.55,0,0,1-9.45-9.77v-14.81a9.29,9.29,0,0,1,9.45-9.46Z"/><polygon class="cls-10" points="1294.98 1757.69 1290.25 1763.05 1298.76 1763.05 1294.98 1757.69"/><path class="cls-11" d="M1233.52,1058.35l-344.89,53.07c-61.91,188.65,20.63,474.59,238.77,594.47,118.89,71.72,335.06-3.93,258.42-69.77C1204,1440.58,1056.65,1304,1233.52,1058.35Z"/><path class="cls-11" d="M725.51,1131.07l43.24,137.56c2,6.88-2,14.74-8.84,16.71l-46.19,14.73c-6.87,2-14.74-2-16.7-8.84l-43.24-137.56c-2-6.88,2-14.74,8.85-16.71l46.18-14.74c6.88-2,14.74,2,16.7,8.85Z"/><path class="cls-12" d="M1982.26,892.3l-30.47-72.72-16.7-76.64-13.75,4.91L1746.43,333.2C1493.91,550.35,1252.19,764.56,765.8,937.5L758.92,1193l-2,1,2,2v3.93l2-1,152.3,204.38c497.19-137.57,818.5-100.23,1149.64-66.82l-94.33-440.2Z"/><path class="cls-13" d="M2008.79,801.9c87.45,278.07,114,516.84,59.93,533.55-54,17.68-169-193.57-256.45-471.65-87.45-277.09-115-515.86-60.93-533.55,54.05-16.7,169,194.55,257.45,471.65Z"/><path class="cls-13" d="M1216.81,1350.19l-191.6,60.92C896.49,1451.39,752,1363,704.88,1213.6h0C657.72,1063.27,724.53,908,854.24,867.73l191.6-60.92Z"/><path class="cls-11" d="M1946.88,821.55h0c25.55,78.61-8.84,163.11-77.62,204.38-19.66-50.11-39.31-105.14-57-162.13s-33.41-112-46.19-164.09c79.59-6.88,156.24,43.23,180.8,121.84Z"/><path class="cls-7" d="M2611.19,745.49a5.09,5.09,0,0,1,3.8-6.11L2711.62,718a5.14,5.14,0,0,1,2.22,10l-96.63,21.35A5.08,5.08,0,0,1,2611.19,745.49Z"/><path class="cls-7" d="M2338.92,805.67a5.09,5.09,0,0,1,3.81-6.11L2580.53,747a5.14,5.14,0,0,1,2.22,10L2344.94,809.6A5.08,5.08,0,0,1,2338.92,805.67Z"/><path class="cls-7" d="M2144,848.75a5.08,5.08,0,0,1,3.81-6.1L2305,807.9a5.14,5.14,0,0,1,2.22,10L2150,852.69A5.08,5.08,0,0,1,2144,848.75Z"/><path class="cls-7" d="M2333,1080.37a5.22,5.22,0,0,1,.07-2.54,5,5,0,0,1,6.22-3.47L2416,1097.3a5.19,5.19,0,0,1,3.46,6.38,5,5,0,0,1-6.22,3.47l-76.74-22.94A5.16,5.16,0,0,1,2333,1080.37Z"/><path class="cls-7" d="M2116.73,1015.76a5.18,5.18,0,0,1,.08-2.53,5,5,0,0,1,6.22-3.48l188.84,56.44a5.19,5.19,0,0,1,3.47,6.37,5,5,0,0,1-6.23,3.48l-188.84-56.44A5.16,5.16,0,0,1,2116.73,1015.76Z"/><path class="cls-7" d="M2232.47,555.58a5.16,5.16,0,0,1,1.59-5l167.85-148.83a5,5,0,0,1,7.11.53,5.19,5.19,0,0,1-.46,7.24L2240.71,558.38a5,5,0,0,1-7.11-.53A5.23,5.23,0,0,1,2232.47,555.58Z"/><path class="cls-7" d="M2171.56,609.6a5.14,5.14,0,0,1,1.59-5l32.57-28.89a5,5,0,0,1,7.11.53,5.2,5.2,0,0,1-.46,7.25L2179.8,612.4a5,5,0,0,1-7.11-.53A5.23,5.23,0,0,1,2171.56,609.6Z"/><path class="cls-7" d="M2050.66,716.81a5.16,5.16,0,0,1,1.59-5l97.5-86.47a5,5,0,0,1,7.11.53,5.19,5.19,0,0,1-.46,7.24l-97.5,86.48a5,5,0,0,1-7.11-.53A5.34,5.34,0,0,1,2050.66,716.81Z"/><path class="cls-14" d="M521.68,1167.88c9.35-26,20.25-58.14-9.34-58.14-12.46,0-18.17-23.88-45.68-20.76-6.23.52-17.13,6.74-23.36,17.13-3.64,5.71-21.29,1.55-24.4,20.76-1,8.31-5.71,6.75,2.07,34.26,5.71,19.73-13,50.88-14,64.38-1.56,22.32-10.9,20.76-10.9,40,3.63,9.86,27,13,52.43,4.67,8.82-3.11,20.24-4.67,29.07-1.56,5.19,2.08,22.84,1.56,22.84-10.9,0-10.38,25.44,13.5,20.76-28.55-1.55-11.42-10.38,5.71-10.38-29.07,0-11.94,2.6-5.19,10.9-32.19Z"/><path class="cls-15" d="M381.52,1789.28,358.68,1781,340,1814.71l5.19,2.6-7.79,9.86v16.09l58.15,58.15c-16.1-27-36.86-56.59-33.23-78.91Z"/><path class="cls-16" d="M340,1814.71c4.15-4.67,4.67-3.63,8.31,4.68-7.79,47.75,79.42,89.28,58.14,99.15l-52.95-31.15c-17.13-15.57-16.1-31.67-17.13-41l-14,23.88c-2.6-1.56-4.67-2.6-6.75-3.63,8.31-17.66,10.9-36.86,24.4-51.92Z"/><path class="cls-15" d="M526.88,1814.19l-24.4,4.16v38.41h6.23l-2.08,11.94,7.27,14,79.42,22.84c-27-16.09-59.7-31.67-67.48-52.43Z"/><path class="cls-16" d="M502.48,1856.76c1.55-5.71,2.59-5.19,9.86,0C529,1901.93,625,1895.7,611.49,1914.9l-61.25-1c-22.85-5.2-29.59-20.25-35.3-27.52l-1,27.52h-7.27c-1.56-19.21-8.31-36.86-4.15-57.11Z"/><polygon class="cls-16" points="478.08 1437.83 542.97 1484.55 556.98 1652.75 530.51 1845.34 496.77 1845.86 500.92 1654.3 483.27 1563.46 476 1649.11 375.29 1817.31 341.03 1798.62 416.82 1642.88 404.36 1486.11 478.08 1437.83"/><path class="cls-17" d="M585.54,1483c2.07,7.27-12.46,22.32-6.75,24.4,6.23,2.08,10.38-11.94,13-11.42,9.34,1.56,9.34,27.51,17.13,27.51,19.72,0,18.69-32.18-7.79-53l-14,3.64c-1.55,1-3.63-.52-1.55,8.82Z"/><path class="cls-18" d="M476.52,1222.91h0c23.88,8.31,68,19.21,75.27,34.78l61.78,216c-9.35,9.86-22.84,8.82-32.19,5.19l-49.31-157.3,14,177.54-141.72-10.9,9.86-178.06c-2.59-20.24-5.19-41-7.78-61.77,19.72-12.46,46.2-18.17,70.08-25.44Z"/><path class="cls-17" d="M493.65,1204.22,463,1202.66l-.52,26.48c13,12.46,25.44,13,32.71,6.23Z"/><path class="cls-15" d="M447.45,1148.68c20.76-3.64,41.53-7.27,62.29-11.42,7.79,11.93,11.94,64.37,1.56,78.38-12.46,17.13-38.93,8.31-47.24-6.23-8.3-13-19.73-47.24-16.61-60.73Z"/><path class="cls-15" d="M456.27,1189.69c11.94-6.23,10.39-11.42,1-18.69-3.11-3.64-8.82-5.71-11.42-.52-1.56,5.19,6.23,15,10.38,19.21Z"/><path class="cls-14" d="M509.74,1129.47c-1,4.67,10.39,17.13-9.34,17.13-11.94,0-2.6-5.71-17.13,4.67-8.83,6.75-21.8-7.79-25.44,11.94-1.56,6.75-1,14.54-4.15,20.77-2.08,3.11-8.31,21.28-13.5,6.74-5.19-15.57-9.34-13-6.23-34.78.52-4.67,8.83-18.17,13.5-21.28,9.86-6.23,17.65-7.27,29.07-7.79,4.67,0,32.7-3.11,33.74,1a5.24,5.24,0,0,0-.52,1.56Z"/><path class="cls-19" d="M625,1288.84c-37.38-4.67-66.45-34.78-99.67-51.91-35.3,45.68-34.26,111.09-70.08,155.22,33.74,34.26,73.71,24.91,103.3,51.91,32.71-46.72,34.26-97.6,66.45-155.22Z"/><path class="cls-17" d="M521.68,1349.58c7.79-.52,16.62-19.21,20.77-14.54,3.63,4.67-7.79,14-6.23,15.58,4.67,8.3,29.07-.52,31.67,6.22,7.26,18.17-23.36,29.08-51.92,11.94l-2.07-14.53c.52-1.56-1.56-3.12,7.78-4.67Z"/><path class="cls-18" d="M431.88,1265.48c-8.83-5.71-17.14-10.9-26-16.61-4.67,2.59-32.19,57.1-48.28,85.65-2.6,15.06,7.27,21.29,16.09,22.84l141.21,15.06,4.15-27L415.26,1325.7Z"/><polygon class="cls-20" points="420.45 1298.18 428.24 1329.33 415.26 1325.7 420.45 1298.18"/><path class="cls-17" d="M1875.09,1689.64c1.19,5.32,14.42,9.52,11.62,12.67s-9.94-3.85-11.06-2.66c-5.18,3.64,2.87,19.46-1.75,21.91-11.55,6.09-21.35-13.51-12.18-34.23l9.73-2.31c1.12-.07,2-1.47,3.64,4.62Z"/><path class="cls-17" d="M2008.93,1529.7c-1.19-5.32-14.42-9.52-11.62-12.74,2.94-3,9.94,3.92,11.06,2.73,5.18-3.64-2.94-19.53,1.75-21.91,11.55-6.09,21.35,13.51,12.18,34.23l-9.73,2.31c-1.12,0-2,1.47-3.64-4.62Z"/><path class="cls-21" d="M1975.82,1905.24l9,3.36c11.13,6.79,38.29,4.34,33.39,20.3l-52.5-1.33c.07-6.37-.28-13.37,3.29-19.46Z"/><path class="cls-17" d="M1969,1899.22l16,.49-.07,8.89a26.42,26.42,0,0,1-15.82-.49Z"/><path class="cls-21" d="M1886.71,1901.25l8.61,4.2c10.43,7.84,37.66,8,31.29,23.45l-52.15-6.37c.77-6.37,1-13.37,5.18-19.11Z"/><path class="cls-17" d="M1880.41,1894.6l15.89,2.1-1,8.75a25.92,25.92,0,0,1-15.68-2Z"/><polygon class="cls-21" points="1927.73 1649.46 1894.83 1679.56 1895.95 1790.09 1876 1894.95 1900.71 1897.68 1932.91 1793.24 1937.04 1739.55 1954.26 1798.21 1966.58 1903.84 1987.37 1903.35 1988.35 1800.1 1966.16 1677.6 1953.28 1661.78 1932.14 1670.74 1927.73 1649.46"/><path class="cls-22" d="M1895.18,1549c-23.8,14.56-37,62-37,62-2.24,8.82-4.55,30-2.66,32.54l3.5,45.29,19.53-.56-1.33-61,11.41-24.77,6.16,77.13c25.06,19.32,47-3.29,71.33-2l4.55-91.41,42,16.94c4.62,2.31,19.67.35,19.81-6.93l-7-64.33-17.22,1.54.7,41.65-47.32-27.3c-21.35-5.25-48.37-8.61-66.5,1.19Z"/><path class="cls-17" d="M1943.48,1526.55l-24.5,1.19.14,22.19c10.85,6.51,20.86,1.68,26.88-2.8Z"/><path class="cls-15" d="M1898.82,1481.75c15.54-3.92,31.15-7.91,46.69-11.83,6.51,8.61,12.11,48.16,5.18,59.08-8.54,13.79-29.19,8.54-36.26-2-7.07-9.66-17.29-35.07-15.61-45.22Z"/><path class="cls-14" d="M1931.93,1480.28c4.83-4.41,12.39,1.82,16.94-2.8,6-13.23,5.6-25.2-13.72-28.56a4.64,4.64,0,0,1-1.54,5.18c-3-1-5.88-3.36-10.5-1.89,3.64,2.45,4.34,4.27,3.15,7.14-5.88,3.43-16.45-.77-24.92,4.41-7.49,5.74-9.52,11.2-10.71,18.2-1.89,18.2,10.5,27.51,16.24,32.69,2.17,1.12,3.08,1.47,7.42-5.39-6.16-3.71-10.15-9.45-5.74-14.28,6.23-7.14,6.16,4.9,12.11,5.18-.7-5,7.49-17.08,11.27-19.88Z"/><rect class="cls-9" x="2176.37" y="1545.38" width="14.84" height="378.55"/><polygon class="cls-13" points="2161.81 1547.34 2176.44 1551.47 2134.86 1923.93 2119.74 1923.93 2161.81 1547.34"/><polygon class="cls-13" points="2205.76 1547.34 2191.14 1551.47 2232.78 1923.93 2247.83 1923.93 2205.76 1547.34"/><path class="cls-13" d="M1997.22,1481.13l-24.85,7.07a10.77,10.77,0,0,0-7.42,13.37h0a10.87,10.87,0,0,0,13.37,7.49l24.85-7.07a10.87,10.87,0,0,0,7.49-13.37h0a11,11,0,0,0-13.44-7.49Z"/><polygon class="cls-11" points="2053.1 1453.26 1972.95 1484.48 1980.3 1510.38 2064.93 1494.77 2053.1 1453.26"/><polygon class="cls-13" points="2155.3 1404.54 2037.21 1453.68 2050.79 1501.63 2177.14 1481.4 2155.3 1404.54"/><polygon class="cls-11" points="2364.03 1306.89 2130.52 1407.2 2156.7 1491.69 2406.03 1442.27 2364.03 1306.89"/><path class="cls-13" d="M2364.38,1299.4h0a11.58,11.58,0,0,1,14.21,8l36.33,127.75a11.49,11.49,0,0,1-7.91,14.21h0a11.56,11.56,0,0,1-14.28-7.91l-36.26-127.75a11.59,11.59,0,0,1,7.91-14.28Z"/><path class="cls-12" d="M2183.79,1432.05h0c15.54,0,28.28,7.7,28.28,17.08v33.25c0,9.45-12.74,17.15-28.28,17.15h0c-15.54,0-28.28-7.7-28.28-17.15v-33.25c0-9.38,12.74-17.08,28.28-17.08Zm0,13.79h0c8.05,0,14.56,4,14.56,8.82v22.19c0,4.83-6.51,8.82-14.56,8.82h0c-8,0-14.56-4-14.56-8.82v-22.19c0-4.83,6.58-8.82,14.56-8.82Z"/><rect class="cls-23" x="2155.51" y="1479.02" width="56.56" height="58.52"/><path class="cls-11" d="M2156.7,1534.25H2211a8.81,8.81,0,0,1,8.74,8.82h0a8.81,8.81,0,0,1-8.74,8.82H2156.7a8.87,8.87,0,0,1-8.82-8.82h0a8.87,8.87,0,0,1,8.82-8.82Z"/><path class="cls-23" d="M793,532.78C638.87,538.88,517,629.46,521.1,734.36c2.13,54,37,101.29,91.17,133.91L555.38,995.68l182.41-85.25a374,374,0,0,0,70.32,3.4c154.17-6.1,275.7-96.27,271.53-201.56C1075.49,607.36,947.21,526.68,793,532.78Z"/><path class="cls-1" d="M771.73,533.62c-154.16,6.1-276.09,96.68-271.94,201.58,2.14,54,37,101.29,91.17,133.92l-56.89,127.4,182.42-85.24a375.66,375.66,0,0,0,70.32,3.4c154.17-6.1,275.69-96.28,271.53-201.57C1054.19,608.2,925.9,527.52,771.73,533.62Z"/><path class="cls-13" d="M1383.77,511.5C1288.6,511.5,1211,407,1211,278.86s77.6-232.59,172.77-232.59,172.73,104.5,172.73,232.59S1478.89,511.5,1383.77,511.5Z"/><path class="cls-11" d="M1404.09,511.5c-89.92,0-163.26-104.5-163.26-232.64s73.34-232.59,163.26-232.59,163.22,104.5,163.22,232.59S1494,511.5,1404.09,511.5Z"/><path class="cls-19" d="M1404.09,463.47c-71.38,0-129.55-82.9-129.55-184.61s58.17-184.61,129.55-184.61S1533.6,177.2,1533.6,278.86s-58.17,184.61-129.51,184.61Z"/><path class="cls-11" d="M1404.09,411.67c-51.37,0-93.21-59.67-93.21-132.81S1352.72,146,1404.09,146s93.17,59.68,93.17,132.82-41.84,132.81-93.17,132.81Z"/><path class="cls-19" d="M1404.09,360c-31.36,0-56.93-36.44-56.93-81.12s25.57-81.12,56.93-81.12S1461,234.18,1461,278.86,1435.41,360,1404.09,360Z"/><path class="cls-22" d="M1404.09,315.66c-14.23,0-25.83-16.52-25.83-36.8s11.6-36.8,25.83-36.8,25.82,16.52,25.82,36.8-11.63,36.8-25.82,36.8Z"/><path class="cls-13" d="M1778.74,288.39l-.23,5.67-.45,12.78c33.12,31.4,67.84,52.85,100.6,51.92,35.07-4.14,40.21-26.44,51.27-48.23-15.65-3.8-32.59-7.39-51.09-10.76l.14-4.3.11-2.77.14-4.29c18.72-2.31,35.94-4.93,51.81-7.86-9.49-22.36-13-44.92-47.69-51-32.65-2.79-68.78,16.6-104.17,46.08Z"/><path class="cls-24" d="M1399.05,280.4c28.49-3.55,74.61-5.08,126.82-3.73,9.8.56,9.28,15-.54,14.67-52.19-1.62-98.11-5.81-126.28-10.94Z"/><path class="cls-11" d="M1881.74,289.78c-87.57-13.43-215-24.06-357.67-28.46-30.26-.07-31.86,44.35-1.64,45.26,142.67,3.69,270.64.36,359-8.05,5.77-.18,5.42-8.61.33-8.75Z"/><path class="cls-25" d="M1613,265c-28.78-1.49-58.51-2.71-88.88-3.64-30.26-.07-31.86,44.35-1.64,45.26,30.38.8,60.11,1.27,88.94,1.41Z"/></svg>