<?xml version="1.0" encoding="UTF-8"?><svg id="a" xmlns="http://www.w3.org/2000/svg" viewBox="0 0 2800 1768.73"><g id="b"/><g><polyline points="2800 -231.27 2800 1768.73 0 1768.73 0 -231.27" style="fill:#fff; fill-rule:evenodd;"/><g><path d="M2336.79,404.72C2151.55,135.99,1677.57-14.22,1149.95,55.6,503.31,141.96,21.79,526.91,74.17,915.54c25.56,189.72,173.5,345.44,393.94,444.67,185.23,269.19,659.21,419.4,1186.84,349.12,646.64-85.9,1128.16-470.85,1075.78-859.48-25.56-189.72-173.5-345.44-393.94-445.13h0Z" style="fill:#d5f0ff; fill-rule:evenodd;"/><g><path d="M370,819.36c-2.79-.89-4.87-3.43-5.05-6.52-.23-4.01,2.84-7.45,6.86-7.68,175.28-9.91,240.97-82.29,278.63-144.24,2.09-3.44,6.57-4.53,10-2.44,3.44,2.09,4.53,6.57,2.44,10-39.5,65-108.2,140.93-290.25,151.22-.92,.05-1.81-.07-2.63-.33Z" style="fill:#16888c;"/><path d="M723.55,600.24c-42.15-13.53-89.29-38.3-142.06-80.02-3.15-2.49-3.69-7.07-1.2-10.23,2.49-3.15,7.08-3.69,10.23-1.2,137.63,108.83,234.82,98.15,304.11,76.68,3.84-1.19,7.92,.96,9.11,4.8,1.19,3.84-.96,7.92-4.8,9.11-45.87,14.21-103.33,23.97-175.39,.84Z" style="fill:#16888c;"/></g><ellipse cx="1402.45" cy="1666.47" rx="1265.58" ry="56" style="fill:#dfe6ff;"/><g><path d="M318.01,528.96H1731.78c19.22,0,38.13,16.39,41.92,35.93,15.13,84.46,29.94,168.61,45.07,252.75,15.13,84.46,30.25,168.61,45.38,253.07,15.44,84.78,30.57,169.24,45.7,254.01,15.13,85.09,30.57,170.18,45.7,255.27,3.78,19.85-9.77,35.93-28.99,35.93H502.06c-19.22,0-36.87-15.76-40.34-35.3-14.18-85.09-28.68-170.18-43.18-255.27-14.18-84.78-28.68-169.87-42.86-254.64-14.5-84.46-28.68-169.24-43.18-253.7-14.18-84.15-28.36-168.29-42.55-252.44-3.15-19.54,9.14-35.61,28.05-35.61h0Z" style="fill:#2c7efe;"/><path d="M382.3,585.38h978.55c108.73,.32,217.77,0,326.5,0,17.65,0,34.98,14.81,38.13,32.15,13.55,75.32,27.1,150.96,40.65,226.59,13.55,75.64,27.1,150.96,40.65,226.59,13.55,75.95,27.1,151.9,40.65,227.86,13.55,75.95,27.1,151.9,40.97,228.49,3.15,17.33-9.14,31.83-26.79,31.83h-657.09c-109.67,0-219.35,.32-329.02,.32h-328.07c-17.65,0-34.35-14.18-37.19-31.83-12.92-76.27-25.84-152.22-38.76-228.17-12.92-76.27-25.84-152.53-38.76-228.49-12.92-75.64-25.84-151.59-38.45-227.23-12.92-75.64-25.84-150.96-38.45-226.28-2.84-17.65,8.82-31.83,26.47-31.83h0Z" style="fill:#62cbec;"/><path d="M500.17,1531.78H1750.06c2.84,14.18,15.44,24.9,30.25,24.9h201.07c14.81,0,27.42-10.72,30.25-24.9h475.88c21.12,0,38.76,17.33,38.76,38.45v60.19c0,21.12-17.65,38.76-38.76,38.76H500.17c-21.12,0-38.45-17.65-38.45-38.76v-60.19c0-21.12,17.33-38.45,38.45-38.45h0Z" style="fill:#2c7efe;"/><path d="M500.17,1531.78h886.52c21.43,0,38.76,17.33,38.76,38.45v60.19c0,21.12-17.33,38.76-38.76,38.76H500.17c-21.12,0-38.45-17.65-38.45-38.76v-60.19c0-21.12,17.33-38.45,38.45-38.45h0Z" style="fill:#0643a3;"/><path d="M992.43,1583.46h115.03c5.36,0,9.45,4.1,9.45,9.45v14.81c0,5.36-4.1,9.77-9.45,9.77h-115.03c-5.36,0-9.45-4.41-9.45-9.77v-14.81c0-5.36,4.1-9.45,9.45-9.45h0Z" style="fill:#2c7efe;"/><path d="M1168.6,1583.46h115.03c5.36,0,9.45,4.1,9.45,9.45v14.81c0,5.36-4.1,9.77-9.45,9.77h-115.03c-5.36,0-9.45-4.41-9.45-9.77v-14.81c0-5.36,4.1-9.45,9.45-9.45h0Z" style="fill:#2c7efe;"/><polygon points="1294.98 1526.42 1290.25 1531.78 1298.76 1531.78 1294.98 1526.42" style="fill:#ff9866;"/></g><g><path d="M1233.52,827.09l-344.89,53.06c-61.91,188.66,20.63,474.59,238.77,594.47,118.9,71.73,335.06-3.93,258.42-69.76-181.78-195.54-329.17-332.12-152.3-577.77h0Z" style="fill:#2c7efe; fill-rule:evenodd;"/><path d="M725.51,899.8l43.23,137.56c1.97,6.88-1.96,14.74-8.84,16.7l-46.18,14.74c-6.88,1.97-14.74-1.96-16.7-8.84l-43.23-137.56c-1.97-6.88,1.97-14.74,8.84-16.7l46.18-14.74c6.88-1.97,14.74,1.97,16.7,8.84h0Z" style="fill:#2c7efe; fill-rule:evenodd;"/><path d="M1982.26,661.03l-30.46-72.71-16.7-76.64-13.76,4.91-174.9-414.66c-252.53,217.16-494.24,431.36-980.63,604.3l-6.88,255.47-1.97,.98,1.97,1.97v3.93l1.97-.98,152.3,204.38c497.19-137.56,818.5-100.23,1149.64-66.82l-94.33-440.2,13.76-3.93Z" style="fill:#84b2fe; fill-rule:evenodd;"/><path d="M2008.79,570.63c87.45,278.07,113.98,516.85,59.94,533.55-54.04,17.69-169.01-193.57-256.46-471.65-87.45-277.09-114.96-515.86-60.92-533.55,54.05-16.7,169.01,194.55,257.44,471.65h0Z" style="fill:#0643a3; fill-rule:evenodd;"/><path d="M1216.81,1118.92l-191.61,60.92c-128.72,40.28-273.16-48.15-320.33-197.5h0c-47.16-150.34,19.65-305.59,149.36-345.87l191.61-60.92,170.97,543.38Z" style="fill:#0643a3; fill-rule:evenodd;"/><path d="M1946.88,590.28h0c25.55,78.61-8.84,163.11-77.62,204.38-19.65-50.11-39.31-105.14-56.99-162.13-17.69-56.99-33.41-112.02-46.18-164.1,79.59-6.88,156.23,43.24,180.8,121.84h0Z" style="fill:#2c7efe; fill-rule:evenodd;"/></g><g><path d="M2611.19,514.22c-.61-2.77,1.09-5.51,3.81-6.11l96.63-21.36c2.71-.6,5.41,1.16,6.02,3.93,.61,2.77-1.09,5.51-3.81,6.11l-96.63,21.36c-2.71,.6-5.41-1.16-6.02-3.93Z" style="fill:#2c7efe;"/><path d="M2338.92,574.4c-.61-2.77,1.09-5.51,3.81-6.11l237.81-52.56c2.71-.6,5.41,1.16,6.02,3.93,.61,2.77-1.09,5.51-3.81,6.11l-237.81,52.56c-2.71,.6-5.41-1.16-6.02-3.93Z" style="fill:#2c7efe;"/><path d="M2143.97,617.49c-.61-2.77,1.09-5.51,3.81-6.11l157.21-34.75c2.71-.6,5.41,1.16,6.02,3.93,.61,2.77-1.09,5.51-3.81,6.11l-157.21,34.75c-2.71,.6-5.41-1.16-6.02-3.93Z" style="fill:#2c7efe;"/><path d="M2332.95,849.1c-.18-.81-.17-1.68,.07-2.53,.76-2.72,3.55-4.28,6.23-3.48l76.73,22.94c2.68,.8,4.23,3.65,3.47,6.38-.76,2.72-3.55,4.28-6.23,3.48l-76.73-22.94c-1.84-.55-3.15-2.07-3.54-3.84Z" style="fill:#2c7efe;"/><path d="M2116.73,784.49c-.18-.81-.17-1.68,.07-2.53,.76-2.72,3.55-4.28,6.23-3.48l188.84,56.43c2.68,.8,4.23,3.66,3.47,6.38-.76,2.72-3.55,4.28-6.23,3.48l-188.84-56.43c-1.84-.55-3.15-2.07-3.54-3.84Z" style="fill:#2c7efe;"/><path d="M2232.47,324.31c-.39-1.78,.15-3.71,1.59-4.98l167.85-148.83c2.09-1.85,5.27-1.62,7.11,.53,1.84,2.15,1.63,5.39-.46,7.24l-167.85,148.83c-2.09,1.85-5.27,1.62-7.11-.53-.58-.67-.95-1.45-1.13-2.27Z" style="fill:#2c7efe;"/><path d="M2171.56,378.34c-.39-1.78,.15-3.7,1.59-4.98l32.57-28.88c2.09-1.85,5.27-1.62,7.11,.53,1.84,2.15,1.63,5.39-.46,7.24l-32.57,28.88c-2.09,1.85-5.27,1.62-7.11-.53-.58-.67-.95-1.45-1.13-2.27Z" style="fill:#2c7efe;"/><path d="M2050.66,485.54c-.39-1.78,.15-3.71,1.59-4.98l97.5-86.47c2.09-1.85,5.27-1.62,7.11,.53,1.84,2.15,1.63,5.39-.46,7.24l-97.5,86.47c-2.09,1.85-5.27,1.62-7.11-.53-.58-.67-.95-1.45-1.13-2.27Z" style="fill:#2c7efe;"/></g><g><path d="M521.68,936.62c9.34-25.96,20.25-58.14-9.34-58.14-12.46,0-18.17-23.88-45.68-20.76-6.23,.52-17.13,6.75-23.36,17.13-3.63,5.71-21.28,1.56-24.4,20.77-1.04,8.31-5.71,6.75,2.08,34.26,5.71,19.73-12.98,50.87-14.02,64.37-1.56,22.32-10.9,20.76-10.9,39.97,3.63,9.86,26.99,12.98,52.43,4.67,8.83-3.11,20.25-4.67,29.07-1.56,5.19,2.08,22.84,1.56,22.84-10.9,0-10.38,25.44,13.5,20.77-28.55-1.56-11.42-10.38,5.71-10.38-29.07,0-11.94,2.6-5.19,10.9-32.19h0Z" style="fill:#060352; fill-rule:evenodd;"/><path d="M381.52,1558.01l-22.84-8.31-18.69,33.74,5.19,2.6-7.79,9.86v16.09l58.14,58.14c-16.09-26.99-36.86-56.58-33.22-78.91l19.21-33.22Z" style="fill:#ffaa81; fill-rule:evenodd;"/><path d="M339.99,1583.45c4.15-4.67,4.67-3.63,8.31,4.67-7.79,47.76,79.43,89.29,58.14,99.15l-52.95-31.15c-17.13-15.57-16.09-31.67-17.13-41.01l-14.02,23.88c-2.6-1.56-4.67-2.6-6.75-3.63,8.31-17.65,10.9-36.86,24.4-51.91h0Z" style="fill:#153663; fill-rule:evenodd;"/><path d="M526.88,1582.93l-24.4,4.15v38.42h6.23l-2.08,11.94,7.27,14.02,79.43,22.84c-26.99-16.09-59.7-31.67-67.49-52.43l1.04-38.93Z" style="fill:#ffaa81; fill-rule:evenodd;"/><path d="M502.48,1625.5c1.56-5.71,2.6-5.19,9.86,0,16.61,45.16,112.65,38.93,99.15,58.14l-61.26-1.04c-22.84-5.19-29.59-20.25-35.3-27.51l-1.04,27.51h-7.27c-1.56-19.21-8.31-36.86-4.15-57.1h0Z" style="fill:#153663; fill-rule:evenodd;"/><polygon points="478.08 1206.56 542.97 1253.28 556.98 1421.48 530.51 1614.07 496.77 1614.59 500.92 1423.04 483.27 1332.19 476 1417.84 375.29 1586.04 341.03 1567.35 416.82 1411.62 404.36 1254.84 478.08 1206.56" style="fill:#153663; fill-rule:evenodd;"/><path d="M585.54,1251.73c2.08,7.27-12.46,22.32-6.75,24.4,6.23,2.08,10.38-11.94,12.98-11.42,9.34,1.56,9.34,27.51,17.13,27.51,19.73,0,18.69-32.19-7.79-52.95l-14.02,3.63c-1.56,1.04-3.63-.52-1.56,8.82h0Z" style="fill:#ff9866; fill-rule:evenodd;"/><path d="M476.52,991.64h0c23.88,8.31,68.01,19.21,75.27,34.78l61.78,215.96c-9.34,9.86-22.84,8.83-32.19,5.19l-49.32-157.29c4.67,59.18,9.34,118.36,14.02,177.54l-141.72-10.9,9.86-178.06c-2.6-20.25-5.19-41.01-7.79-61.78,19.73-12.46,46.2-18.17,70.08-25.44h0Z" style="fill:#ff4d8a; fill-rule:evenodd;"/><path d="M493.65,972.95l-30.63-1.56-.52,26.48c12.98,12.46,25.44,12.98,32.7,6.23l-1.56-31.15Z" style="fill:#ff9866; fill-rule:evenodd;"/><path d="M447.45,917.41c20.77-3.63,41.53-7.27,62.3-11.42,7.79,11.94,11.94,64.37,1.56,78.39-12.46,17.13-38.93,8.31-47.24-6.23-8.31-12.98-19.73-47.24-16.61-60.74h0Z" style="fill:#ffaa81; fill-rule:evenodd;"/><path d="M456.27,958.42c11.94-6.23,10.38-11.42,1.04-18.69-3.11-3.63-8.83-5.71-11.42-.52-1.56,5.19,6.23,15.05,10.38,19.21h0Z" style="fill:#ffaa81; fill-rule:evenodd;"/><path d="M509.74,898.2c-1.04,4.67,10.38,17.13-9.34,17.13-11.94,0-2.6-5.71-17.13,4.67-8.83,6.75-21.8-7.79-25.44,11.94-1.56,6.75-1.04,14.54-4.15,20.76-2.08,3.11-8.31,21.28-13.5,6.75-5.19-15.57-9.34-12.98-6.23-34.78,.52-4.67,8.83-18.17,13.5-21.28,9.86-6.23,17.65-7.27,29.07-7.79,4.67,0,32.7-3.11,33.74,1.04,0,0-.52,1.04-.52,1.56h0Z" style="fill:#060352; fill-rule:evenodd;"/><path d="M624.99,1057.57c-37.38-4.67-66.45-34.78-99.67-51.91-35.3,45.68-34.26,111.09-70.08,155.22,33.74,34.26,73.72,24.92,103.31,51.91,32.71-46.72,34.26-97.6,66.45-155.22h0Z" style="fill:#fff; fill-rule:evenodd;"/><path d="M521.68,1118.31c7.79-.52,16.61-19.21,20.76-14.54,3.63,4.67-7.79,14.02-6.23,15.57,4.67,8.31,29.07-.52,31.67,6.23,7.27,18.17-23.36,29.07-51.91,11.94l-2.08-14.54c.52-1.56-1.56-3.11,7.79-4.67h0Z" style="fill:#ff9866; fill-rule:evenodd;"/><path d="M431.88,1034.21c-8.83-5.71-17.13-10.9-25.96-16.61-4.67,2.6-32.19,57.1-48.28,85.66-2.6,15.05,7.27,21.28,16.09,22.84l141.2,15.05,4.15-26.99-103.82-19.73,16.61-60.22Z" style="fill:#ff4d8a; fill-rule:evenodd;"/><polygon points="420.45 1066.92 428.24 1098.06 415.26 1094.43 420.45 1066.92" style="fill:#db3a55; fill-rule:evenodd;"/></g><g><g><path d="M1875.09,1458.38c1.19,5.32,14.42,9.52,11.62,12.67-2.94,3.01-9.94-3.85-11.06-2.66-5.18,3.64,2.87,19.46-1.75,21.91-11.55,6.09-21.35-13.51-12.18-34.23l9.73-2.31c1.12-.07,1.96-1.47,3.64,4.62h0Z" style="fill:#ff9866; fill-rule:evenodd;"/><path d="M2008.93,1298.43c-1.19-5.32-14.42-9.52-11.62-12.74,2.94-3.01,9.94,3.92,11.06,2.73,5.18-3.64-2.94-19.53,1.75-21.91,11.55-6.09,21.35,13.51,12.18,34.23l-9.73,2.31c-1.12,0-1.96,1.47-3.64-4.62h0Z" style="fill:#ff9866; fill-rule:evenodd;"/><path d="M1975.82,1673.97l9.03,3.36c11.13,6.79,38.29,4.34,33.39,20.3l-52.5-1.33c.07-6.37-.28-13.37,3.29-19.46l6.79-2.87Z" style="fill:#be96f8; fill-rule:evenodd;"/><path d="M1968.96,1667.95l15.96,.49-.07,8.89c-5.39,1.54-10.92,1.19-15.82-.49l-.07-8.89Z" style="fill:#ff9866; fill-rule:evenodd;"/><path d="M1886.71,1669.98l8.61,4.2c10.43,7.84,37.66,7.98,31.29,23.45l-52.15-6.37c.77-6.37,1.05-13.37,5.18-19.11l7.07-2.17Z" style="fill:#be96f8; fill-rule:evenodd;"/><path d="M1880.41,1663.33l15.89,2.1-.98,8.75c-5.46,1.05-10.99,.14-15.68-2.03l.77-8.82Z" style="fill:#ff9866; fill-rule:evenodd;"/><polygon points="1927.73 1418.2 1894.83 1448.3 1895.95 1558.82 1876 1663.68 1900.71 1666.41 1932.91 1561.97 1937.04 1508.29 1954.26 1566.94 1966.58 1672.57 1987.37 1672.08 1988.35 1568.83 1966.16 1446.34 1953.28 1430.52 1932.14 1439.48 1927.73 1418.2" style="fill:#be96f8; fill-rule:evenodd;"/><path d="M1895.18,1317.68c-23.8,14.56-36.96,62.02-36.96,62.02-2.24,8.82-4.55,30.03-2.66,32.55l3.5,45.29,19.53-.56-1.33-61.04,11.41-24.78,6.16,77.14c25.06,19.32,47.04-3.29,71.33-1.96l4.55-91.42,42,16.94c4.62,2.31,19.67,.35,19.81-6.93l-7-64.33-17.22,1.54,.7,41.65-47.32-27.3c-21.35-5.25-48.37-8.61-66.5,1.19h0Z" style="fill:#ea718b; fill-rule:evenodd;"/><path d="M1943.48,1295.28l-24.5,1.19,.14,22.19c10.85,6.51,20.86,1.68,26.88-2.8l-2.52-20.58Z" style="fill:#ff9866; fill-rule:evenodd;"/><path d="M1898.82,1250.48c15.54-3.92,31.15-7.91,46.69-11.83,6.51,8.61,12.11,48.16,5.18,59.08-8.54,13.79-29.19,8.54-36.26-2.03-7.07-9.66-17.29-35.07-15.61-45.22h0Z" style="fill:#ffaa81; fill-rule:evenodd;"/><path d="M1931.93,1249.01c4.83-4.41,12.39,1.82,16.94-2.8,5.95-13.23,5.6-25.2-13.72-28.56,.77,2.73-.56,4.41-1.54,5.18-3.01-.98-5.88-3.36-10.5-1.89,3.64,2.45,4.34,4.27,3.15,7.14-5.88,3.43-16.45-.77-24.92,4.41-7.49,5.74-9.52,11.2-10.71,18.2-1.89,18.2,10.5,27.51,16.24,32.69,2.17,1.12,3.08,1.47,7.42-5.39-6.16-3.71-10.15-9.45-5.74-14.28,6.23-7.14,6.16,4.9,12.11,5.18-.7-4.97,7.49-17.08,11.27-19.88h0Z" style="fill:#060352; fill-rule:evenodd;"/></g><g><rect x="2176.37" y="1314.11" width="14.84" height="378.55" style="fill:#0643a3;"/><polygon points="2161.81 1316.07 2176.44 1320.2 2134.86 1692.66 2119.74 1692.66 2161.81 1316.07" style="fill:#0643a3; fill-rule:evenodd;"/><polygon points="2205.77 1316.07 2191.14 1320.2 2232.78 1692.66 2247.83 1692.66 2205.77 1316.07" style="fill:#0643a3; fill-rule:evenodd;"/><path d="M1997.22,1249.86l-24.85,7.07c-5.74,1.61-9.1,7.63-7.42,13.37h0c1.61,5.74,7.63,9.1,13.37,7.49l24.85-7.07c5.74-1.61,9.1-7.63,7.49-13.37h0c-1.68-5.74-7.7-9.1-13.44-7.49h0Z" style="fill:#0643a3; fill-rule:evenodd;"/><polygon points="2053.1 1221.99 1972.95 1253.21 1980.3 1279.11 2064.93 1263.5 2053.1 1221.99" style="fill:#2c7efe; fill-rule:evenodd;"/><polygon points="2155.3 1173.27 2037.21 1222.41 2050.79 1270.36 2177.14 1250.13 2155.3 1173.27" style="fill:#0643a3; fill-rule:evenodd;"/><polygon points="2364.03 1075.63 2130.52 1175.93 2156.7 1260.42 2406.03 1211 2364.03 1075.63" style="fill:#2c7efe; fill-rule:evenodd;"/><path d="M2364.38,1068.14h0c6.09-1.68,12.53,1.89,14.21,7.98l36.33,127.75c1.75,6.09-1.82,12.53-7.91,14.21h0c-6.16,1.75-12.53-1.82-14.28-7.91l-36.26-127.75c-1.75-6.09,1.82-12.53,7.91-14.28h0Z" style="fill:#0643a3; fill-rule:evenodd;"/><path d="M2183.79,1200.78h0c15.54,0,28.28,7.7,28.28,17.08v33.25c0,9.45-12.74,17.15-28.28,17.15h0c-15.54,0-28.28-7.7-28.28-17.15v-33.25c0-9.38,12.74-17.08,28.28-17.08h0Zm0,13.79h0c8.05,0,14.56,3.99,14.56,8.82v22.19c0,4.83-6.51,8.82-14.56,8.82h0c-7.98,0-14.56-3.99-14.56-8.82v-22.19c0-4.83,6.58-8.82,14.56-8.82h0Z" style="fill:#84b2fe; fill-rule:evenodd;"/><rect x="2155.51" y="1247.75" width="56.56" height="58.52" style="fill:#84b2fe;"/><path d="M2156.7,1302.98h54.25c4.83,0,8.75,3.99,8.75,8.82h0c0,4.83-3.92,8.82-8.75,8.82h-54.25c-4.83,0-8.82-3.99-8.82-8.82h0c0-4.83,3.99-8.82,8.82-8.82h0Z" style="fill:#2c7efe; fill-rule:evenodd;"/></g></g><g><path d="M793.04,301.51c-154.17,6.1-276.09,96.68-271.94,201.58,2.14,54,37.04,101.29,91.17,133.91l-56.89,127.41,182.41-85.25c22.43,3.36,46,4.36,70.32,3.4,154.17-6.1,275.7-96.28,271.53-201.57-4.15-104.91-132.44-185.59-286.6-179.49h0Z" style="fill:#84b2fe;"/><path d="M771.73,302.35c-154.17,6.1-276.09,96.68-271.94,201.58,2.14,54,37.04,101.29,91.17,133.91l-56.89,127.41,182.41-85.25c22.43,3.36,46,4.36,70.32,3.4,154.17-6.1,275.7-96.28,271.53-201.57-4.15-104.91-132.44-185.59-286.61-179.49h0Z" style="fill:#fff;"/></g></g></g></svg>