<svg width="62" height="61" viewBox="0 0 62 61" fill="none" xmlns="http://www.w3.org/2000/svg">
<path d="M30.4957 61.0005C13.6823 61.0005 0 47.3182 0 30.4962C0 13.6742 13.6823 0.000488281 30.4957 0.000488281C47.3091 0.000488281 60.9914 13.6828 60.9914 30.4962C60.9914 47.3096 47.3091 60.9919 30.4957 60.9919V61.0005ZM30.4957 1.71614C14.6259 1.71614 1.71565 14.6264 1.71565 30.4962C1.71565 46.366 14.6259 59.2763 30.4957 59.2763C46.3655 59.2763 59.2758 46.366 59.2758 30.4962C59.2758 14.6264 46.3655 1.71614 30.4957 1.71614Z" fill="#2D2D2D"/>
<path d="M30.4934 31.3538C30.3733 31.3538 30.2618 31.3281 30.1417 31.2766L17.4544 25.6321C17.0255 25.4434 16.8282 24.9287 17.0169 24.4998C17.2057 24.0709 17.7204 23.865 18.1493 24.0623L30.0473 29.3637L37.7163 12.1385C37.905 11.7096 38.4111 11.5123 38.8486 11.701C39.2775 11.8898 39.4748 12.4044 39.2861 12.8334L31.2654 30.8477C31.1196 31.1651 30.8108 31.3538 30.4848 31.3538H30.4934Z" fill="#2D2D2D"/>
<path d="M30.4906 5.3619C30.0188 5.3619 29.6328 4.97588 29.6328 4.50408V0.858315C29.6328 0.38651 30.0188 0.000488281 30.4906 0.000488281C30.9624 0.000488281 31.3485 0.38651 31.3485 0.858315V4.50408C31.3485 4.97588 30.9624 5.3619 30.4906 5.3619Z" fill="#2D2D2D"/>
<path d="M4.50359 31.3543H0.857826C0.386022 31.3543 0 30.9683 0 30.4965C0 30.0247 0.386022 29.6387 0.857826 29.6387H4.50359C4.97539 29.6387 5.36141 30.0247 5.36141 30.4965C5.36141 30.9683 4.97539 31.3543 4.50359 31.3543Z" fill="#2D2D2D"/>
<path d="M30.4906 61.0006C30.0188 61.0006 29.6328 60.6146 29.6328 60.1427V56.497C29.6328 56.0252 30.0188 55.6392 30.4906 55.6392C30.9624 55.6392 31.3485 56.0252 31.3485 56.497V60.1427C31.3485 60.6146 30.9624 61.0006 30.4906 61.0006Z" fill="#2D2D2D"/>
<path d="M60.1442 31.9456H56.4985C56.0266 31.9456 55.6406 31.5596 55.6406 31.0878C55.6406 30.616 56.0266 30.23 56.4985 30.23H60.1442C60.616 30.23 61.002 30.616 61.002 31.0878C61.002 31.5596 60.616 31.9456 60.1442 31.9456Z" fill="#2D2D2D"/>
</svg>
