<svg width="61" height="57" viewBox="0 0 61 57" fill="none" xmlns="http://www.w3.org/2000/svg">
<g clip-path="url(#clip0_10967_18510)">
<path d="M30.4743 56.9997C30.3346 56.9997 30.1867 56.9664 30.0634 56.8916L9.75469 45.0325C9.49991 44.8828 9.34375 44.6084 9.34375 44.309V24.5162C9.34375 24.0588 9.7136 23.6846 10.1656 23.6846C10.6177 23.6846 10.9875 24.0588 10.9875 24.5162V43.8184L30.4743 55.2034L49.9611 43.8184V24.5162C49.9611 24.0588 50.331 23.6846 50.783 23.6846C51.235 23.6846 51.6049 24.0588 51.6049 24.5162V44.3007C51.6049 44.6001 51.4487 44.8745 51.1939 45.0242L30.8853 56.8833C30.762 56.9581 30.614 56.9914 30.4743 56.9914V56.9997Z" fill="#2D2D2D"/>
<path d="M13.2576 23.7266C12.9781 23.7266 12.6987 23.5769 12.5507 23.3191C12.3206 22.9199 12.4521 22.4126 12.8466 22.1797L30.065 11.9423C30.3198 11.7927 30.6403 11.7927 30.8951 11.9423L48.2943 22.1049C48.6888 22.3377 48.8203 22.845 48.5984 23.2442C48.3765 23.6434 47.867 23.7765 47.4725 23.5519L30.4924 13.6306L13.6849 23.6268C13.5534 23.7016 13.4137 23.7432 13.2658 23.7432L13.2576 23.7266Z" fill="#2D2D2D"/>
<path d="M30.4764 56.9998C30.0244 56.9998 29.6545 56.6256 29.6545 56.1682L29.7038 36.9159L9.75677 25.2398C9.36227 25.007 9.23077 24.4997 9.46089 24.1005C9.6828 23.7013 10.1841 23.5682 10.5869 23.8011L30.9366 35.7101C31.1914 35.8598 31.3476 36.1342 31.3476 36.4336L31.2983 56.1682C31.2983 56.6256 30.9284 56.9998 30.4764 56.9998Z" fill="#2D2D2D"/>
<path d="M30.5251 37.2654C30.2786 37.2654 30.0402 37.1573 29.8759 36.9494C29.6211 36.6251 29.6457 36.1593 29.9252 35.86L37.4536 27.9262C37.5111 27.868 37.5687 27.8181 37.6426 27.7765L59.7677 14.9777C60.1375 14.7698 60.5978 14.8696 60.8443 15.2106C61.0909 15.5515 61.0416 16.0339 60.7293 16.3166L50.6448 25.5394C50.6037 25.581 50.5544 25.6143 50.5051 25.6392L30.9361 37.149C30.8046 37.2238 30.6649 37.2654 30.5251 37.2654ZM38.5631 29.1653L35.1688 32.7413L49.6092 24.2504L53.9981 20.2419L38.5631 29.1653Z" fill="#2D2D2D"/>
<path d="M30.4758 37.2654C30.336 37.2654 30.1963 37.2321 30.0648 37.149L10.4958 25.6475C10.4465 25.6226 10.3972 25.581 10.3561 25.5477L0.271631 16.3249C-0.040684 16.0422 -0.0899969 15.5598 0.156567 15.2189C0.403132 14.8779 0.863385 14.7781 1.23323 14.986L23.3583 27.7848C23.424 27.8264 23.4898 27.8763 23.5473 27.9345L31.0757 35.8683C31.3552 36.1677 31.3798 36.6334 31.125 36.9577C30.9607 37.1656 30.7223 37.2737 30.4758 37.2737V37.2654ZM11.3917 24.2504L25.8321 32.7413L22.4378 29.1653L7.01105 20.2419L11.3999 24.2504H11.3917Z" fill="#2D2D2D"/>
<path d="M54.2121 19.9842C54.0559 19.9842 53.908 19.9426 53.7683 19.8511C53.3902 19.6016 53.2752 19.086 53.5217 18.7035L56.7106 13.722L36.6074 1.99599L31.2159 13.0234C31.0104 13.4309 30.5255 13.6056 30.1146 13.3977C29.7036 13.1898 29.5392 12.6991 29.7447 12.2833L35.5225 0.465792C35.6212 0.257885 35.802 0.108191 36.0239 0.0416605C36.2376 -0.02487 36.4759 7.89003e-05 36.6732 0.116507L58.2886 12.7157C58.4859 12.8321 58.6256 13.0234 58.6749 13.2396C58.7242 13.4642 58.6914 13.697 58.5681 13.8883L54.9107 19.6099C54.7545 19.8594 54.4915 19.9925 54.2203 19.9925L54.2121 19.9842Z" fill="#2D2D2D"/>
<path d="M6.78878 19.9842C6.51756 19.9842 6.25456 19.8511 6.0984 19.6016L2.44103 13.88C2.31775 13.6887 2.27666 13.4559 2.33419 13.2313C2.3835 13.0068 2.53144 12.8155 2.72047 12.7074L24.3359 0.108206C24.5332 -0.00822189 24.7715 -0.0331708 24.9852 0.0333597C25.1989 0.0998902 25.3797 0.2579 25.4866 0.457492L31.2644 12.2833C31.4699 12.6991 31.2973 13.1898 30.8945 13.3977C30.4836 13.5973 29.9987 13.4309 29.7932 13.0234L24.3935 1.99601L4.29026 13.722L7.47916 18.7035C7.72573 19.086 7.61888 19.6016 7.2326 19.8511C7.09288 19.9426 6.93672 19.9842 6.78878 19.9842Z" fill="#2D2D2D"/>
</g>
<defs>
<clipPath id="clip0_10967_18510">
<rect width="61" height="57" fill="white"/>
</clipPath>
</defs>
</svg>
