<svg width="109" height="28" fill="none" xmlns="http://www.w3.org/2000/svg"><path d="M54.524 16.27c-2.249 0-4.029 1.687-4.029 4.029a3.999 3.999 0 004.029 4.028c2.248 0 4.028-1.686 4.028-4.028-.093-2.342-1.873-4.028-4.028-4.028zm0 6.371c-1.218 0-2.249-1.03-2.249-2.436 0-1.405 1.031-2.435 2.249-2.435 1.218 0 2.248.936 2.248 2.435 0 1.5-1.03 2.436-2.248 2.436zm-8.806-6.37c-2.249 0-4.029 1.686-4.029 4.028a3.999 3.999 0 004.029 4.028c2.248 0 4.028-1.686 4.028-4.028 0-2.342-1.78-4.028-4.028-4.028zm0 6.37c-1.218 0-2.249-1.03-2.249-2.436 0-1.405 1.03-2.435 2.249-2.435 1.217 0 2.248.936 2.248 2.435.094 1.5-1.03 2.436-2.248 2.436zM35.412 17.49v1.686h4.029c-.094.937-.469 1.686-.937 2.154-.562.563-1.499 1.218-3.092 1.218-2.53 0-4.403-1.967-4.403-4.496 0-2.53 1.968-4.497 4.403-4.497 1.312 0 2.343.562 3.092 1.218l1.218-1.218c-1.03-.937-2.342-1.687-4.216-1.687-3.373 0-6.277 2.81-6.277 6.184 0 3.372 2.904 6.183 6.277 6.183 1.874 0 3.185-.562 4.31-1.78 1.124-1.125 1.498-2.717 1.498-3.935 0-.375 0-.75-.093-1.03h-5.809zm42.44 1.311c-.376-.937-1.313-2.53-3.374-2.53-2.06 0-3.747 1.593-3.747 4.029 0 2.248 1.686 4.028 3.935 4.028 1.78 0 2.904-1.124 3.279-1.78l-1.312-.937c-.468.656-1.03 1.125-1.967 1.125s-1.5-.375-1.968-1.218l5.34-2.249-.187-.468zm-5.434 1.312c0-1.5 1.217-2.342 2.06-2.342.656 0 1.312.374 1.5.843l-3.56 1.499zm-4.31 3.84h1.78v-11.71h-1.78v11.71zm-2.904-6.838c-.469-.469-1.218-.937-2.155-.937-1.967 0-3.841 1.78-3.841 4.028 0 2.249 1.78 3.935 3.841 3.935.937 0 1.686-.468 2.061-.937h.094v.562c0 1.5-.843 2.342-2.155 2.342-1.03 0-1.78-.75-1.967-1.405l-1.5.656c.47 1.03 1.593 2.342 3.56 2.342 2.062 0 3.748-1.218 3.748-4.122v-7.12h-1.686v.656zm-1.968 5.527c-1.217 0-2.248-1.03-2.248-2.436 0-1.405 1.03-2.435 2.248-2.435 1.218 0 2.155 1.03 2.155 2.435-.094 1.405-1.03 2.436-2.155 2.436zm22.766-10.399h-4.216v11.71h1.78V19.55h2.436c1.967 0 3.84-1.405 3.84-3.653 0-2.249-1.873-3.654-3.84-3.654zm.093 5.715h-2.53v-4.029h2.53c1.312 0 2.061 1.125 2.061 1.968 0 .937-.75 2.06-2.06 2.06zM96.87 16.27c-1.312 0-2.623.562-3.092 1.78l1.593.655c.375-.655.937-.843 1.593-.843.936 0 1.78.562 1.873 1.5v.093c-.28-.188-1.03-.469-1.78-.469-1.686 0-3.372.937-3.372 2.623 0 1.593 1.405 2.624 2.904 2.624 1.218 0 1.78-.562 2.248-1.125h.094v.937h1.686V19.55c-.187-2.154-1.686-3.278-3.747-3.278zm-.188 6.37c-.562 0-1.405-.281-1.405-1.03 0-.937 1.03-1.218 1.874-1.218.75 0 1.124.187 1.593.374-.094 1.125-1.03 1.874-2.061 1.874zm9.931-6.183l-1.967 5.059h-.094l-2.061-5.06h-1.874l3.092 7.12-1.78 3.936h1.78l4.778-11.055h-1.874zm-15.739 7.495h1.78v-11.71h-1.78v11.71z" fill="#fff"></path><path d="M.468 2.967C.188 3.248 0 3.717 0 4.28v20.704c0 .562.187 1.03.468 1.312l.094.093L12.18 14.772v-.188L.469 2.967z" fill="url(#paint0_linear)"></path><path d="M16.02 18.613l-3.84-3.841v-.188l3.84-3.84.094.093 4.59 2.623c1.312.75 1.312 1.967 0 2.717l-4.684 2.436z" fill="url(#paint1_linear)"></path><path d="M16.02 18.613l-3.935-3.935L.468 26.294c.469.469 1.124.469 1.968.094l13.584-7.776z" fill="url(#paint2_linear)"></path><path d="M16.02 10.65L2.342 2.873c-.75-.469-1.499-.375-1.874.093l11.71 11.71 3.842-4.027z" fill="url(#paint3_linear)"></path><path opacity=".2" d="M16.02 18.519L2.342 26.2c-.75.468-1.405.375-1.874 0l-.093.094.093.093c.469.375 1.125.469 1.874 0l13.678-7.87z" fill="#000"></path><path opacity=".12" d="M.468 26.2C.188 25.92 0 25.452 0 24.89v.093c0 .562.187 1.03.468 1.311v-.093zM20.61 15.802l-4.684 2.623.094.094 4.59-2.623c.656-.375.937-.843.937-1.312 0 .469-.28.937-.937 1.218z" fill="#000"></path><path opacity=".25" d="M2.342 3.061L20.61 13.367c.563.374.937.749.937 1.217 0-.468-.28-.936-.937-1.311L2.342 2.873C1.031 2.125 0 2.78 0 4.28v.094c0-1.5 1.03-2.061 2.342-1.312z" fill="#fff"></path><path d="M29.416 8.026v-5.62h1.687c.843 0 1.592.28 2.06.749.563.562.75 1.311.75 2.06 0 .844-.28 1.5-.75 2.062-.561.562-1.217.75-2.06.75h-1.687zm.656-.655h1.03c.657 0 1.125-.188 1.5-.563.375-.374.562-.936.562-1.592s-.188-1.218-.562-1.593c-.375-.375-.937-.562-1.5-.562h-1.03v4.31zM34.944 8.026v-5.62h.75v5.62h-.75zM38.598 8.214c-.375 0-.843-.094-1.218-.375s-.656-.656-.75-1.124l.656-.281c.094.28.282.562.469.75.187.187.468.28.843.28.281 0 .562 0 .75-.187.187-.188.374-.375.374-.656s-.093-.562-.375-.75c-.187-.187-.562-.374-1.03-.468a6.24 6.24 0 01-1.124-.562c-.281-.281-.375-.562-.375-.937s.187-.75.468-1.03c.282-.281.75-.469 1.218-.469.469 0 .843.094 1.125.375.28.281.468.468.562.75l-.563.187c-.093-.188-.187-.375-.374-.469-.188-.187-.469-.187-.75-.187-.28 0-.468.094-.75.187-.186.188-.28.375-.28.563 0 .187.094.374.28.562.188.187.47.28.844.374.281.094.468.188.656.281.187.094.375.188.562.375a.96.96 0 01.468.562c.094.188.188.469.188.75 0 .28-.094.374-.188.562a1.13 1.13 0 01-.468.468l-.562.281c-.188.094-.469.188-.656.188zM42.158 8.026h-.75v-5.62h1.874c.469 0 .843.187 1.218.468.375.28.562.75.562 1.218 0 .468-.187.843-.562 1.217-.375.282-.75.469-1.218.469h-1.124v2.248zm0-2.904h1.218c.28 0 .562-.094.75-.28.187-.188.28-.47.28-.657 0-.187-.093-.468-.28-.656-.188-.187-.47-.28-.75-.28h-1.218v1.873zM50.683 7.37c-.562.563-1.218.844-2.061.844s-1.499-.281-2.061-.843c-.562-.563-.843-1.218-.843-2.062 0-.843.28-1.498.843-2.06.562-.563 1.218-.844 2.061-.844s1.499.281 2.061.843c.562.469.843 1.218.843 1.968 0 .843-.28 1.592-.843 2.155zm-3.654-.468c.375.375.937.656 1.5.656.561 0 1.123-.187 1.498-.656a2.26 2.26 0 00.656-1.593c0-.655-.187-1.217-.656-1.592-.374-.375-.937-.656-1.499-.656s-1.124.187-1.499.656a2.26 2.26 0 00-.655 1.592c0 .656.28 1.125.655 1.593zM52.463 8.026v-5.62h.937l2.717 4.402V2.405h.75v5.621h-.75l-2.904-4.59v4.59h-.75zM58.084 8.026v-5.62h.749v5.62h-.75zm.749-5.995h-.656L58.552 1h.75l-.469 1.03zM61.55 8.026l-1.967-5.62h.843l1.405 4.59 1.593-4.59h.843l-2.061 5.62h-.656zM68.389 3.155h-2.53v1.78h2.343v.656H65.86v1.78h2.529v.655H65.11v-5.62h3.279v.749zM69.513 8.026v-5.62h.75V7.37h2.436v.655h-3.186zM75.509 8.026v-5.62h.843l2.717 4.402V2.405h.75v5.621h-.75l-2.904-4.59v4.59h-.656zM85.72 7.37c-.562.563-1.218.844-2.06.844-.844 0-1.5-.281-2.062-.843-.562-.563-.843-1.218-.843-2.062 0-.843.281-1.498.843-2.06.562-.563 1.218-.844 2.061-.844s1.5.281 2.061.843c.563.563.844 1.218.844 2.061 0 .75-.281 1.5-.844 2.062zm-3.56-.468c.375.375.937.656 1.5.656.561 0 1.124-.187 1.498-.656a2.26 2.26 0 00.656-1.593c0-.655-.187-1.217-.656-1.592-.374-.375-.937-.656-1.499-.656s-1.124.187-1.499.656a2.26 2.26 0 00-.655 1.592c0 .656.187 1.125.655 1.593z" fill="#fff" stroke="#fff" stroke-width=".2" stroke-miterlimit="10"></path><defs><linearGradient id="paint0_linear" x1="11.08" y1="4.046" x2="-4.642" y2="19.769" gradientUnits="userSpaceOnUse"><stop stop-color="#00A0FF"></stop><stop offset=".007" stop-color="#00A1FF"></stop><stop offset=".26" stop-color="#00BEFF"></stop><stop offset=".512" stop-color="#00D2FF"></stop><stop offset=".76" stop-color="#00DFFF"></stop><stop offset="1" stop-color="#00E3FF"></stop></linearGradient><linearGradient id="paint1_linear" x1="22.355" y1="14.625" x2="-.314" y2="14.625" gradientUnits="userSpaceOnUse"><stop stop-color="#FFE000"></stop><stop offset=".409" stop-color="#FFBD00"></stop><stop offset=".775" stop-color="orange"></stop><stop offset="1" stop-color="#FF9C00"></stop></linearGradient><linearGradient id="paint2_linear" x1="13.916" y1="16.774" x2="-7.405" y2="38.095" gradientUnits="userSpaceOnUse"><stop stop-color="#FF3A44"></stop><stop offset="1" stop-color="#C31162"></stop></linearGradient><linearGradient id="paint3_linear" x1="-2.506" y1="-3.948" x2="7.014" y2="5.573" gradientUnits="userSpaceOnUse"><stop stop-color="#32A071"></stop><stop offset=".069" stop-color="#2DA771"></stop><stop offset=".476" stop-color="#15CF74"></stop><stop offset=".801" stop-color="#06E775"></stop><stop offset="1" stop-color="#00F076"></stop></linearGradient></defs></svg>