<svg width="108" height="80" viewBox="0 0 108 80" fill="none" xmlns="http://www.w3.org/2000/svg">
<g clip-path="url(#clip0_3314_7341)">
<g opacity="0.21">
<path d="M16.1272 26.1574C16.1272 26.1574 13.8632 26.5639 15.3254 31.5609C16.764 36.5579 17.9431 39.1162 17.9431 39.1162C17.9431 39.1162 18.1554 40.2638 17.2356 40.2399C16.3159 40.2399 14.4528 39.5466 13.8632 40.5746C13.25 41.6266 13.8632 42.846 15.3254 44.1132C16.7875 45.3565 19.9242 48.2256 20.2072 48.4886C20.4902 48.7516 20.7024 49.3015 20.0892 49.3971C19.4761 49.4928 15.0188 49.1341 14.9716 51.262C14.9244 53.3899 19.594 56.2112 20.0892 56.522C20.5845 56.8329 20.6788 57.0959 20.5845 57.3828C20.4902 57.6697 19.0044 57.4067 17.7309 57.3589C16.4574 57.311 14.9952 57.4784 15.0659 58.7217C15.1367 59.965 17.6366 63.0253 24.7116 65.1054L28.0369 65.8466L30.3953 63.3122C35.112 57.598 35.5129 53.6529 34.8997 52.577C34.2865 51.5011 32.9659 52.1945 31.9282 52.9596C30.9141 53.7247 29.8293 54.7767 29.5698 54.5854C29.334 54.3941 29.2632 54.1311 29.4991 53.5812C29.7349 53.0313 32.0697 48.0821 30.8669 46.3128C29.6406 44.5436 26.1502 47.3648 25.5842 47.6278C25.0182 47.8908 24.9003 47.317 24.9946 46.9345C25.089 46.5519 26.1031 42.4157 26.6455 40.5507C27.1879 38.6858 27.0228 37.323 25.938 36.797C24.8767 36.2949 23.6975 37.9207 22.9429 38.4228C22.1882 38.9488 21.7401 37.8729 21.7401 37.8729C21.7401 37.8729 21.3156 35.0755 19.7591 30.1024C18.2497 25.2011 16.08 26.1813 16.08 26.1813" fill="#EBEBEB"/>
<path d="M28.0605 66.7071C26.9521 63.049 25.0654 56.5218 23.4382 50.9032C21.7873 45.3084 20.3015 40.2397 19.2167 36.5816C18.6743 34.7645 18.2262 33.2821 17.9196 32.254C17.7781 31.7519 17.6366 31.3455 17.5659 31.0825C17.5187 30.939 17.4951 30.8434 17.4715 30.7717C17.4479 30.6999 17.4479 30.676 17.4479 30.676C17.4479 30.676 17.4715 30.6999 17.4951 30.7717C17.5187 30.8434 17.5423 30.939 17.5894 31.0825C17.6838 31.3455 17.8017 31.7519 17.9668 32.254C18.2969 33.2821 18.745 34.7406 19.311 36.5816C20.4195 40.2397 21.9288 45.3084 23.5561 50.9032C25.2069 56.4979 27.07 63.049 28.1549 66.7071" fill="#E0E0E0"/>
<path d="M16.4578 41.6517C16.4578 41.6517 16.5285 41.6756 16.67 41.7712C16.8115 41.8429 17.0002 41.9625 17.2596 42.1059C17.7549 42.3929 18.4152 42.8232 19.1463 43.3014C19.8538 43.7796 20.4905 44.2099 20.9858 44.5447C21.1981 44.6881 21.3867 44.8077 21.5518 44.9272C21.6933 45.0229 21.7641 45.0707 21.7641 45.0707C21.7641 45.0707 21.6697 45.0468 21.5518 44.9511C21.4103 44.8794 21.2216 44.7599 20.9622 44.6164C20.467 44.3056 19.8302 43.8752 19.0991 43.397C18.3916 42.9189 17.7313 42.4885 17.236 42.1777C17.0238 42.0342 16.8351 41.9147 16.67 41.819C16.5285 41.7234 16.4578 41.6756 16.4578 41.6517Z" fill="#E0E0E0"/>
<path d="M22.0233 44.9022C21.9997 44.8783 22.8016 43.4676 23.8157 41.7223C24.8297 39.9769 25.6788 38.5901 25.7023 38.5901C25.7259 38.6141 24.9241 40.0247 23.91 41.7701C22.8959 43.5154 22.0469 44.9022 22.0233 44.9022Z" fill="#E0E0E0"/>
<path d="M24.1453 53.6037C24.1453 53.6037 24.1924 53.532 24.3103 53.4125C24.4518 53.2929 24.6169 53.1256 24.8056 52.9343C25.2301 52.5278 25.7961 51.9779 26.4329 51.3324C27.046 50.6868 27.5885 50.0891 27.9894 49.6587C28.1781 49.4436 28.3196 49.2762 28.4611 49.1327C28.579 49.0132 28.6261 48.9415 28.6497 48.9415C28.6497 48.9415 28.6026 49.0132 28.5082 49.1567C28.4139 49.2762 28.2724 49.4675 28.0837 49.7066C27.7064 50.1608 27.1875 50.7586 26.5508 51.4041C25.9376 52.0497 25.348 52.5996 24.8999 52.9821C24.6877 53.1734 24.499 53.3407 24.3811 53.4364C24.216 53.5559 24.1453 53.6277 24.1453 53.6037Z" fill="#E0E0E0"/>
<path d="M18.4837 51.8121C18.4837 51.8121 18.578 51.8121 18.7195 51.8599C18.8846 51.9077 19.0968 51.9555 19.3327 52.0273C19.8515 52.1707 20.559 52.3859 21.3373 52.625C22.1155 52.8641 22.823 53.0793 23.3419 53.2466C23.5777 53.3183 23.79 53.3901 23.9551 53.4379C24.0966 53.4857 24.1673 53.5096 24.1673 53.5335C24.1673 53.5335 24.073 53.5335 23.9315 53.4857C23.7664 53.4379 23.5541 53.3901 23.3183 53.3183C22.7995 53.1749 22.092 52.9597 21.3137 52.7206C20.5354 52.4815 19.8279 52.2663 19.3091 52.099C19.0733 52.0273 18.861 51.9555 18.6959 51.9077C18.5544 51.836 18.4837 51.8121 18.4837 51.8121Z" fill="#E0E0E0"/>
<path d="M19.4038 59.7493C19.4038 59.7493 19.4981 59.7732 19.6868 59.8211C19.8991 59.8689 20.1585 59.9406 20.4651 60.0362C21.1254 60.2275 22.0452 60.4905 23.0357 60.7774C24.0498 61.0643 24.9459 61.3512 25.6063 61.5425C25.9129 61.6381 26.1723 61.7338 26.3845 61.7816C26.5732 61.8533 26.6675 61.8772 26.6675 61.8772C26.6675 61.8772 26.5732 61.8533 26.3845 61.8055C26.1723 61.7577 25.9129 61.686 25.6063 61.5903C24.9459 61.3991 24.0262 61.1361 23.0357 60.8491C22.0216 60.5622 21.1254 60.2753 20.4651 60.0841C20.1585 59.9884 19.8991 59.8928 19.6868 59.845C19.4981 59.7971 19.4038 59.7493 19.4038 59.7493Z" fill="#E0E0E0"/>
<path d="M26.5291 61.7825C26.5291 61.7825 26.5999 61.6869 26.7414 61.5434C26.9065 61.3761 27.0951 61.1609 27.3546 60.9218C27.8734 60.3958 28.5809 59.6546 29.3356 58.8178C30.0903 57.981 30.7742 57.2159 31.2459 56.6421C31.4817 56.3791 31.6704 56.14 31.8119 55.9726C31.9534 55.8052 32.0241 55.7335 32.0241 55.7335C32.0241 55.7335 31.9534 55.8292 31.8354 55.9965C31.7175 56.1639 31.5289 56.403 31.293 56.6899C30.8213 57.2637 30.161 58.0527 29.4063 58.8895C28.6517 59.7263 27.9206 60.4436 27.4017 60.9696C27.1423 61.2326 26.9301 61.4239 26.765 61.5674C26.6235 61.7108 26.5291 61.7825 26.5291 61.7825Z" fill="#E0E0E0"/>
</g>
<path d="M33.8632 63.8617C31.2926 63.5987 23.0855 63.4074 20.5385 63.8856C18.015 64.3399 15.0907 66.683 14.0058 68.787C12.7795 71.1301 12.9917 75.625 14.9256 77.5377C16.8594 79.4504 20.3262 78.8766 23.1798 79.2831C26.0334 79.6895 28.9578 79.5461 31.8586 79.4743C50.0415 78.9962 68.3659 81.3632 86.3601 78.8527C88.6477 78.5419 91.1004 78.0637 92.7041 76.5813C94.4964 74.9316 94.8502 72.469 95.1096 70.1976C95.3219 68.4044 95.4634 66.42 94.2842 64.9615C93.5059 64.0051 92.256 63.4313 90.9589 63.1922C93.0579 60.5861 94.0955 58.6734 94.2134 56.4498C94.4021 52.5288 93.388 49.6118 93.1522 45.7386C92.9163 41.8653 92.9164 37.8964 94.0248 34.1665C94.7087 31.8952 95.7228 29.1934 94.1899 27.4002C93.3173 26.3721 91.8787 26.0613 90.5344 25.8461C74.6155 23.2161 58.3665 23.1683 42.2825 24.3399C40.3722 24.4833 38.2261 24.7463 36.9998 26.2287C35.9857 27.4241 35.8442 29.1217 36.0093 30.6758C36.1979 32.2299 36.6932 33.7362 36.8111 35.3142C37.4714 42.7021 27.0947 55.3739 33.8632 63.8617Z" fill="#FFB3C7"/>
<path d="M33.8632 63.8617C31.2926 63.5987 23.0855 63.4074 20.5385 63.8856C18.015 64.3399 15.0907 66.683 14.0058 68.787C12.7795 71.1301 12.9917 75.625 14.9256 77.5377C16.8594 79.4504 20.3262 78.8766 23.1798 79.2831C26.0334 79.6895 28.9578 79.5461 31.8586 79.4743C50.0415 78.9962 68.3659 81.3632 86.3601 78.8527C88.6477 78.5419 91.1004 78.0637 92.7041 76.5813C94.4964 74.9316 94.8502 72.469 95.1096 70.1976C95.3219 68.4044 95.4634 66.42 94.2842 64.9615C93.5059 64.0051 92.256 63.4313 90.9589 63.1922C93.0579 60.5861 94.0955 58.6734 94.2134 56.4498C94.4021 52.5288 93.388 49.6118 93.1522 45.7386C92.9163 41.8653 92.9164 37.8964 94.0248 34.1665C94.7087 31.8952 95.7228 29.1934 94.1899 27.4002C93.3173 26.3721 91.8787 26.0613 90.5344 25.8461C74.6155 23.2161 58.3665 23.1683 42.2825 24.3399C40.3722 24.4833 38.2261 24.7463 36.9998 26.2287C35.9857 27.4241 35.8442 29.1217 36.0093 30.6758C36.1979 32.2299 36.6932 33.7362 36.8111 35.3142C37.4714 42.7021 27.0947 55.3739 33.8632 63.8617Z" fill="#FFB3C7"/>
<path d="M37.1429 26.062C37.1429 26.062 37.4259 25.8946 37.9683 25.6556C38.5108 25.4165 39.3362 25.0817 40.4682 24.8905C41.6002 24.6992 42.9916 24.6514 44.5953 24.5557C46.199 24.484 48.0385 24.3884 50.0667 24.3166C54.1231 24.1732 58.9577 24.1015 64.3112 24.1493C69.6646 24.1971 75.5605 24.3884 81.7394 24.7709C82.5176 24.8187 83.2723 24.8665 84.0506 24.9144C84.8053 24.9622 85.5835 25.01 86.3146 25.1535C87.0457 25.2969 87.8004 25.536 88.4135 25.9903C88.7201 26.2055 88.9795 26.4924 89.2154 26.8032C89.4276 27.114 89.5927 27.4487 89.7106 27.8074C89.9465 28.5247 89.9936 29.2658 89.9465 30.007C89.8757 30.7482 89.7106 31.4416 89.522 32.1349C89.3333 32.8283 89.0975 33.4978 88.9324 34.1672C88.7437 34.8367 88.6022 35.5061 88.4607 36.1756C87.9419 38.8295 87.8004 41.4356 87.9654 43.8504C88.0362 45.0459 88.2013 46.2174 88.3899 47.3172C88.6022 48.4171 88.8616 49.4691 89.0975 50.4493C89.6163 52.4338 90.0408 54.2509 90.1823 55.8767C90.3238 57.5025 90.1823 58.9371 89.8993 60.0369C89.7578 60.5868 89.5691 61.065 89.404 61.4715C89.2154 61.8779 89.0267 62.1887 88.8616 62.4517C88.7673 62.5713 88.6965 62.6908 88.6494 62.7865C88.5786 62.8821 88.5314 62.9538 88.4607 63.0017C88.3664 63.1212 88.3192 63.1929 88.3192 63.1929C88.3192 63.1929 88.3664 63.1212 88.4607 63.0017C88.5079 62.9299 88.555 62.8582 88.6258 62.7626C88.6965 62.6669 88.7673 62.5474 88.838 62.4278C89.0031 62.1648 89.1682 61.854 89.3569 61.4476C89.522 61.0411 89.7106 60.5629 89.8521 60.013C90.1351 58.9132 90.2766 57.4786 90.1115 55.8528C89.97 54.227 89.522 52.4099 89.0031 50.4254C88.7437 49.4213 88.4843 48.3932 88.272 47.2933C88.0598 46.1935 87.9183 45.022 87.8239 43.8265C87.6589 41.4117 87.7768 38.8056 88.3192 36.1278C88.4607 35.4583 88.6022 34.7888 88.7909 34.1194C88.9559 33.4499 89.1918 32.7805 89.3805 32.0871C89.5691 31.3937 89.7342 30.7004 89.7814 29.9831C89.8285 29.2658 89.7814 28.5247 89.5455 27.8313C89.4276 27.4966 89.2625 27.1618 89.0739 26.851C88.8616 26.5641 88.6022 26.3011 88.3192 26.062C87.7296 25.6316 86.9985 25.3926 86.2674 25.2491C85.5363 25.1056 84.7817 25.0578 84.0034 25.01C83.2487 24.9622 82.4705 24.9144 81.6922 24.8665C75.5133 24.484 69.6175 24.2927 64.264 24.2449C58.9105 24.1971 54.0759 24.2688 50.0195 24.3884C47.9913 24.4601 46.1518 24.5318 44.5481 24.6035C42.9445 24.6753 41.553 24.7231 40.4446 24.9144C39.3362 25.1056 38.4872 25.4165 37.9448 25.6556C37.6618 25.7751 37.4731 25.8707 37.3316 25.9425C37.2137 26.0142 37.1429 26.062 37.1429 26.062Z" fill="#263238"/>
<path d="M95.2512 71.6568C95.2512 71.6568 95.1805 71.6807 95.039 71.7046C94.8975 71.7524 94.6852 71.8003 94.4258 71.872C93.8834 72.0154 93.1051 72.2067 92.091 72.4697C91.5722 72.5893 91.0062 72.7327 90.393 72.9001C89.7798 73.0435 89.0959 73.187 88.3648 73.3543C86.9026 73.6652 85.2518 74.0716 83.4123 74.3824C82.4925 74.5498 81.5256 74.7411 80.5115 74.9084C80.0162 75.0041 79.4974 75.0758 78.955 75.1475C78.4361 75.2192 77.8937 75.3149 77.3513 75.3866C76.8089 75.4583 76.2429 75.554 75.7005 75.6496C75.4174 75.6974 75.1345 75.7452 74.8514 75.7692C74.5684 75.7931 74.2854 75.8409 73.9789 75.8648C72.8233 76.0082 71.6205 76.1517 70.3706 76.2952C65.4416 76.7973 59.9938 77.1559 54.2866 77.2276C48.5558 77.2515 43.108 76.9885 38.179 76.5582C36.9527 76.4386 35.7499 76.3191 34.5707 76.1756C34.2877 76.1517 33.9812 76.1039 33.6982 76.08C33.4151 76.0561 33.1321 76.0083 32.8491 75.9604C32.2831 75.8887 31.7407 75.817 31.1747 75.7452C30.6323 75.6735 30.0899 75.6018 29.571 75.5301C29.0522 75.4583 28.5334 75.3866 28.0145 75.3149C27.0004 75.1475 26.0335 74.9802 25.1137 74.8367C23.2506 74.5498 21.5998 74.1673 20.1376 73.8803C19.4065 73.7369 18.7226 73.5934 18.1094 73.4739C17.4963 73.3304 16.9302 73.187 16.4114 73.0674C15.3973 72.8283 14.5955 72.6371 14.0531 72.5175C13.7936 72.4458 13.5814 72.398 13.4399 72.3741C13.2984 72.3502 13.2276 72.3263 13.2276 72.3263C13.2276 72.3263 13.2984 72.3502 13.4399 72.3741C13.5814 72.398 13.7936 72.4458 14.0531 72.5175C14.5955 72.6371 15.3973 72.8283 16.4114 73.0435C16.9302 73.1631 17.4963 73.2826 18.1094 73.4261C18.7226 73.5695 19.4065 73.6891 20.1376 73.8325C21.5998 74.1194 23.2506 74.4781 25.1137 74.765C26.0335 74.9084 27.0004 75.0758 28.0145 75.2432C28.5098 75.3388 29.0286 75.3866 29.571 75.4583C30.0899 75.5301 30.6323 75.6018 31.1747 75.6735C31.7171 75.7453 32.2831 75.817 32.8491 75.8887C33.1321 75.9365 33.4151 75.9604 33.6982 76.0082C33.9812 76.0322 34.2642 76.0561 34.5707 76.1039C35.7499 76.2234 36.9291 76.343 38.179 76.4625C43.108 76.8929 48.5558 77.1559 54.2866 77.1081C59.9938 77.0363 65.4416 76.6777 70.3706 76.1756C71.5969 76.0322 72.7997 75.8887 73.9553 75.7452C74.2383 75.7213 74.5449 75.6735 74.8279 75.6496C75.1109 75.6018 75.3939 75.554 75.6769 75.5301C76.2429 75.4344 76.7853 75.3627 77.3277 75.291C77.8701 75.2192 78.4126 75.1236 78.9314 75.0519C79.4502 74.9802 79.9691 74.9084 80.4879 74.8128C81.502 74.6215 82.4689 74.4542 83.3887 74.2868C85.2282 73.976 86.8791 73.5934 88.3412 73.2826C89.0723 73.1153 89.7562 72.9957 90.3694 72.8523C90.9826 72.7088 91.5486 72.5653 92.0674 72.4219C93.0815 72.1828 93.8834 71.9676 94.4022 71.8481C94.6616 71.7763 94.8739 71.7285 95.0154 71.7046C95.1805 71.6568 95.2512 71.6568 95.2512 71.6568Z" fill="#263238"/>
<path d="M33.8616 63.8618C33.8616 63.8618 33.9088 63.8618 34.0031 63.8618C34.0975 63.8618 34.239 63.8857 34.4276 63.8857C34.805 63.9096 35.371 63.9574 36.0785 64.0052C36.786 64.0531 37.6586 64.1248 38.6963 64.1726C39.7104 64.2204 40.8659 64.3161 42.163 64.3639C43.4366 64.4117 44.8516 64.4834 46.3609 64.5312C47.1156 64.5551 47.8938 64.5791 48.6957 64.603C49.4975 64.6269 50.3229 64.6269 51.172 64.6508C54.568 64.6986 58.2942 64.6747 62.2091 64.579C70.0388 64.3878 77.1139 63.9813 82.2315 63.6944C84.7785 63.551 86.8539 63.4314 88.2925 63.3358C89 63.288 89.566 63.2641 89.9433 63.2402C90.132 63.2402 90.2735 63.2162 90.3678 63.2162C90.4621 63.2162 90.5093 63.2162 90.5093 63.2162C90.5093 63.2162 90.4621 63.2162 90.3678 63.2402C90.2735 63.2402 90.132 63.2641 89.9433 63.2641C89.566 63.288 89 63.3358 88.2925 63.3836C86.8539 63.4792 84.7785 63.5988 82.2315 63.7662C77.1139 64.077 70.0388 64.5073 62.2091 64.6986C58.2942 64.7942 54.568 64.7942 51.172 64.7464C50.3229 64.7225 49.4975 64.7225 48.6957 64.6986C47.8938 64.6747 47.1156 64.6508 46.3609 64.6269C44.8516 64.579 43.4601 64.5073 42.163 64.4595C40.8895 64.4117 39.7339 64.3161 38.6963 64.2443C37.6822 64.1965 36.8096 64.1009 36.0785 64.0531C35.371 64.0052 34.805 63.9574 34.4276 63.9096C34.239 63.8857 34.0975 63.8857 34.0031 63.8618C33.9088 63.8857 33.8616 63.8618 33.8616 63.8618Z" fill="#263238"/>
<path d="M79.5915 78.1357C79.5444 78.1357 79.4972 77.4184 79.2378 76.5816C79.0019 75.7448 78.6718 75.0992 78.6953 75.0992C78.7189 75.0992 78.8133 75.2427 78.9312 75.5057C79.0491 75.7687 79.2142 76.1273 79.3321 76.5577C79.45 76.9881 79.5208 77.3706 79.5444 77.6575C79.6151 77.9444 79.6151 78.1118 79.5915 78.1357Z" fill="#263238"/>
<path d="M81.6924 77.1291C81.6452 77.1291 81.6452 76.5313 81.3858 75.838C81.1499 75.1446 80.7726 74.6903 80.7962 74.6664C80.8197 74.6425 81.2443 75.0968 81.5037 75.8141C81.7631 76.5074 81.7159 77.153 81.6924 77.1291Z" fill="#263238"/>
<path d="M86.9023 52.3371C86.9023 52.2893 87.4918 52.4806 88.1758 52.2893C88.8597 52.122 89.2842 51.6677 89.3078 51.7155C89.3078 51.7155 89.237 51.8589 89.0484 52.0024C88.8597 52.1459 88.5767 52.3371 88.2229 52.4328C87.8692 52.5284 87.539 52.5284 87.3032 52.4806C87.0438 52.4089 86.9023 52.3371 86.9023 52.3371Z" fill="#263238"/>
<path d="M86.7628 49.4688C86.7864 49.4449 87.1873 49.6601 87.7533 49.7796C88.2957 49.9231 88.7674 49.9231 88.7674 49.9709C88.7674 49.9948 88.2957 50.0426 87.7061 49.8992C87.1401 49.7557 86.7392 49.4927 86.7628 49.4688Z" fill="#263238"/>
<path d="M71.8631 14.3165C72.1932 13.6709 72.7356 13.0971 73.4196 12.8341C74.1035 12.5711 74.9289 12.6667 75.4713 13.1449C76.0138 13.6231 76.2024 14.5317 75.7779 15.1533C76.7213 14.962 77.7353 15.488 78.1363 16.3727C78.5372 17.2573 78.2778 18.381 77.5467 19.0027C76.8156 19.6004 75.66 19.6243 74.8817 19.0505C74.7638 19.6004 74.3865 20.0547 73.8677 20.2698C73.3488 20.4611 72.7592 20.3655 72.3111 20.0308C71.2263 19.17 71.4857 17.1617 70.2594 16.4922" fill="#263238"/>
<path d="M71.0152 17.542C71.9114 16.6095 72.3595 15.2228 72.1472 13.9078C72.1237 13.7404 72.0765 13.5491 72.1472 13.3818C72.2888 13.0949 72.7133 13.0949 72.9727 13.2861C73.2085 13.5013 73.2793 13.836 73.3264 14.1469C73.4208 14.9837 73.35 15.8683 73.0906 16.6812C72.9727 16.9921 72.8548 17.3268 72.6189 17.5898C72.4067 17.8528 72.0765 18.0201 71.7463 18.0441C71.4162 18.0441 71.1096 17.8767 71.0152 17.542Z" fill="#D37BA9"/>
<path d="M70.3067 4.99082C69.8586 3.72364 67.7125 2.64773 66.5569 2.00218C64.8117 1.04581 63.208 1.30881 62.2647 2.24127C60.4488 0.782813 58.0432 -0.580008 55.8264 0.0894481C53.6095 0.758904 51.8644 3.14982 52.336 5.4451C52.619 6.80792 53.586 8.00338 53.586 9.3662C53.586 10.3226 53.1143 11.1833 52.7605 12.044C52.4068 12.9047 52.1238 13.9328 52.5011 14.7936C52.8549 15.6065 53.6803 16.0847 54.152 16.8258C54.5293 17.4236 54.6472 18.1648 54.883 18.8342C55.8028 21.3208 58.7743 22.6119 61.3449 22.0859C63.9155 21.5599 65.9909 19.5276 67.1229 17.1367C68.2549 14.7458 68.5851 12.044 68.6322 9.39011" fill="#263238"/>
<path d="M60.6835 4.48854C58.3015 4.15381 56.1318 5.89918 55.896 8.33791C55.613 11.2309 55.3772 14.8651 55.6602 17.0887C56.2026 21.3923 59.4335 22.0378 59.4335 22.0378C59.4335 22.0378 59.4099 23.6398 59.3628 25.5047C59.3156 27.9912 61.2259 30.0952 63.6786 30.2387C66.3199 30.406 68.5368 28.2542 68.5368 25.5764L68.4424 6.87945" fill="#B55B52"/>
<path d="M59.41 22.0389C59.41 22.0389 62.2636 22.2541 65.1408 20.6282C65.1408 20.6282 63.6079 23.6169 59.3864 23.0909L59.41 22.0389Z" fill="#7C3835"/>
<path d="M62.0528 8.76764C62.0999 8.935 62.6895 8.86327 63.3735 8.98282C64.0574 9.07846 64.5998 9.29364 64.6941 9.15018C64.7413 9.07846 64.647 8.935 64.4347 8.76764C64.2225 8.60027 63.8687 8.45682 63.4678 8.38509C63.0669 8.33727 62.6895 8.38509 62.4301 8.48073C62.1707 8.55246 62.0292 8.69591 62.0528 8.76764Z" fill="#263238"/>
<path d="M56.6754 9.08096C56.7697 9.22441 57.1706 9.08096 57.6659 9.10487C58.1612 9.10487 58.5621 9.22441 58.6564 9.08096C58.7036 9.00923 58.6328 8.86578 58.4677 8.74623C58.3027 8.60278 57.9961 8.50714 57.6659 8.50714C57.3357 8.50714 57.0527 8.62669 56.8641 8.74623C56.699 8.88969 56.6282 9.03314 56.6754 9.08096Z" fill="#263238"/>
<path d="M61.9124 13.5965C61.9124 13.6921 61.9831 13.74 62.0775 13.74C62.1718 13.74 62.219 13.6682 62.219 13.5726C62.219 13.477 62.1482 13.4291 62.0539 13.4291C61.9596 13.4291 61.9124 13.5009 61.9124 13.5965Z" fill="#D79870"/>
<path d="M57.4992 12.9742C57.4992 13.0699 57.5699 13.1177 57.6643 13.1177C57.7586 13.1177 57.8058 13.046 57.8058 12.9503C57.8058 12.8547 57.735 12.8069 57.6407 12.8069C57.5699 12.8069 57.4992 12.8786 57.4992 12.9742Z" fill="#D79870"/>
<path d="M56.6758 13.4056C56.6758 13.5013 56.7466 13.5491 56.8409 13.5491C56.9352 13.5491 56.9824 13.4774 56.9824 13.3817C56.9824 13.2861 56.9116 13.2383 56.8173 13.2383C56.723 13.2622 56.6758 13.3339 56.6758 13.4056Z" fill="#D79870"/>
<path d="M56.3925 12.7613C56.3925 12.8569 56.4632 12.9048 56.5575 12.9048C56.6519 12.9048 56.6991 12.833 56.6991 12.7374C56.6991 12.6418 56.6283 12.5939 56.534 12.5939C56.4396 12.6178 56.3925 12.6896 56.3925 12.7613Z" fill="#D79870"/>
<path d="M62.6426 14.2679C62.6426 14.3635 62.7133 14.4113 62.8077 14.4113C62.902 14.4113 62.9492 14.3396 62.9492 14.244C62.9492 14.1483 62.8784 14.1005 62.7841 14.1005C62.6897 14.1005 62.6426 14.1723 62.6426 14.2679Z" fill="#D79870"/>
<path d="M63.1825 13.6219C63.1825 13.7175 63.2533 13.7653 63.3476 13.7653C63.4419 13.7653 63.4891 13.6936 63.4891 13.598C63.4891 13.5023 63.4184 13.4545 63.324 13.4545C63.2533 13.4545 63.1825 13.5263 63.1825 13.6219Z" fill="#D79870"/>
<path d="M60.8745 3.82012C61.3697 7.21521 63.9639 10.2039 67.2185 11.1363C66.2279 12.6904 66.9826 15.5595 67.0298 17.9743C67.0769 20.2218 67.1005 20.8673 68.5627 21.9672C69.7655 22.2063 70.3315 18.9068 71.1805 17.9504C72.0295 16.9941 72.8313 15.8464 72.737 14.5553C72.6898 13.9576 72.4304 13.3838 72.3832 12.786C72.3361 12.1166 72.5247 11.471 72.6191 10.8016C73.0436 7.88467 71.4635 4.8243 68.9165 3.38975C66.3694 1.9552 63.0677 2.17038 60.6386 3.79621" fill="#263238"/>
<path d="M72.2882 12.4514C72.2882 12.4514 72.3354 12.4035 72.3825 12.3318C72.4533 12.2362 72.524 12.1166 72.5712 11.9015C72.6655 11.5189 72.5948 10.8973 72.2646 10.2517C72.0995 9.91699 71.8637 9.60617 71.5571 9.31926C71.2505 9.03235 70.9204 8.74544 70.5194 8.48244C70.1185 8.21944 69.6704 8.00426 69.1752 7.8608C68.6799 7.71735 68.1611 7.5978 67.6422 7.47826C67.1234 7.35871 66.6046 7.23917 66.1093 7.09571C65.6376 6.95226 65.166 6.76098 64.7651 6.5458C63.9396 6.13935 63.2321 5.63725 62.7133 5.18298C62.1709 4.72871 61.7935 4.29834 61.5341 3.98752C61.4162 3.84407 61.3219 3.72452 61.2511 3.62888C61.1804 3.55716 61.1568 3.50934 61.1568 3.50934C61.1568 3.50934 61.1804 3.55716 61.2511 3.65279C61.3219 3.74843 61.3926 3.86798 61.5341 4.01143C61.7699 4.32225 62.1473 4.75261 62.6897 5.2308C63.2321 5.70898 63.916 6.21107 64.7651 6.61753C65.1896 6.83271 65.6376 7.02398 66.1329 7.16744C66.6282 7.3348 67.147 7.43044 67.6658 7.54999C68.1847 7.66953 68.7035 7.76517 69.1988 7.93253C69.6704 8.07599 70.1185 8.29117 70.5194 8.53026C70.9204 8.76935 71.2505 9.05626 71.5571 9.34317C71.8637 9.63008 72.0995 9.9409 72.2646 10.2517C72.5948 10.8734 72.6655 11.4711 72.5948 11.8536C72.4533 12.284 72.2646 12.4514 72.2882 12.4514Z" fill="#4D5A64"/>
<path d="M61.1568 3.50934C61.1568 3.50934 61.1804 3.55716 61.2511 3.60497C61.3219 3.6767 61.4162 3.77234 61.5341 3.89188C61.7699 4.13098 62.1473 4.4657 62.6425 4.84825C63.1378 5.20689 63.751 5.63725 64.5292 5.92416C64.9066 6.06762 65.3311 6.13934 65.7791 6.21107C66.2272 6.2828 66.6753 6.33062 67.1234 6.40234C68.0432 6.49798 68.9393 6.61753 69.7176 6.85662C70.4959 7.09571 71.1326 7.45435 71.6043 7.83689C72.076 8.21944 72.3825 8.62589 72.5476 8.93671C72.6184 9.08017 72.6891 9.19971 72.7127 9.29535C72.7363 9.39099 72.7599 9.4149 72.7599 9.4149C72.7599 9.4149 72.7599 9.36708 72.7127 9.27144C72.6891 9.1758 72.642 9.05626 72.5712 8.88889C72.4297 8.57807 72.1231 8.14771 71.6514 7.76516C71.1798 7.35871 70.5194 7.00007 69.7412 6.76098C68.9629 6.52189 68.0668 6.40234 67.147 6.2828C66.6753 6.23498 66.2272 6.16325 65.8027 6.11543C65.3782 6.04371 64.9537 5.97198 64.5764 5.82852C63.8217 5.56552 63.2085 5.15907 62.7133 4.80043C62.218 4.44179 61.8407 4.10707 61.5813 3.86798C61.4634 3.74843 61.369 3.6767 61.2983 3.60497C61.2039 3.53325 61.1568 3.50934 61.1568 3.50934Z" fill="#4D5A64"/>
<path d="M56.322 -0.0530944C56.322 -0.0291853 56.6757 -0.0291853 57.2653 0.0903605C57.4068 0.11427 57.5719 0.162088 57.7134 0.233815C57.8785 0.281634 58.0436 0.353361 58.2322 0.425088C58.586 0.592453 58.9633 0.807635 59.3171 1.07064C59.6708 1.33364 59.9774 1.64445 60.2368 1.93136C60.3547 2.07482 60.4727 2.21827 60.567 2.36173C60.6613 2.50518 60.7557 2.64864 60.8264 2.76818C61.1094 3.27028 61.2273 3.62891 61.2509 3.62891C61.2509 3.62891 61.2273 3.53328 61.1802 3.38982C61.1566 3.3181 61.1094 3.22246 61.0623 3.10291C61.0151 3.00728 60.9679 2.86382 60.8972 2.74428C60.8264 2.62473 60.7557 2.48128 60.6377 2.33782C60.5434 2.19437 60.4255 2.05091 60.3076 1.88355C60.0482 1.57273 59.7416 1.28582 59.3878 0.998908C59.0341 0.735907 58.6567 0.520725 58.2794 0.353361C58.0907 0.281634 57.9256 0.209906 57.7606 0.162088C57.5955 0.11427 57.4304 0.0664513 57.2889 0.0425422C57.1474 -0.00527612 57.0059 -0.00527612 56.888 -0.0291853C56.77 -0.0530944 56.6757 -0.0530944 56.5814 -0.0530944C56.4163 -0.0770036 56.322 -0.0530944 56.322 -0.0530944Z" fill="#4D5A64"/>
<path d="M53.8439 16.3229C53.8439 16.3229 53.8439 16.299 53.8203 16.2751C53.7968 16.2512 53.7732 16.2034 53.726 16.1794C53.6553 16.0838 53.5138 15.9643 53.3958 15.773C53.2543 15.5817 53.0892 15.3665 52.9949 15.0557C52.9477 14.9123 52.9242 14.721 52.9477 14.5536C52.9713 14.3623 53.0185 14.195 53.1128 14.0037C53.3015 13.6451 53.6317 13.3343 53.9147 12.9278C54.1977 12.5453 54.4571 12.091 54.6693 11.565C54.8816 11.0629 55.0231 10.4891 55.0703 9.89134C55.141 9.29361 55.0938 8.67197 55.0467 8.05033C55.0231 7.4287 55.0231 6.80706 55.141 6.23324C55.2825 5.65942 55.5655 5.15733 55.8957 4.75087C56.2494 4.34442 56.6504 4.0336 57.0749 3.81842C57.4994 3.60324 57.9475 3.5076 58.3484 3.48369C59.1502 3.43587 59.8106 3.65105 60.2115 3.84233C60.4237 3.93796 60.5652 4.0336 60.6596 4.10533C60.7067 4.12924 60.7539 4.15315 60.7775 4.17705C60.8011 4.20096 60.8246 4.20096 60.8246 4.20096C60.8246 4.20096 60.636 4.00969 60.2351 3.81842C59.8341 3.60324 59.1738 3.38805 58.3484 3.43587C57.9475 3.45978 57.4994 3.55542 57.0513 3.7706C56.6032 3.98578 56.1787 4.2966 55.8249 4.72696C55.4712 5.13342 55.1882 5.65942 55.0467 6.25715C54.9052 6.85488 54.9052 7.47652 54.9288 8.09815C54.9523 8.71979 54.9995 9.34143 54.9523 9.91525C54.9052 10.513 54.7637 11.0629 54.5514 11.565C54.3628 12.0671 54.1033 12.5213 53.8203 12.9039C53.5373 13.2864 53.2072 13.6212 53.0185 13.9798C52.9242 14.1711 52.8534 14.3623 52.8534 14.5536C52.8298 14.7449 52.877 14.9123 52.9242 15.0796C53.0185 15.3904 53.2072 15.6295 53.3487 15.7969C53.4902 15.9643 53.6317 16.1077 53.7024 16.1794C53.7496 16.2273 53.7732 16.2512 53.7968 16.2751C53.8439 16.3229 53.8439 16.3229 53.8439 16.3229Z" fill="#4D5A64"/>
<path d="M72.0758 12.7155C72.0758 12.7155 72.0994 12.7155 72.123 12.6916C72.1465 12.6677 72.1937 12.6438 72.2409 12.6199C72.3588 12.5481 72.5003 12.4525 72.689 12.2851C73.0427 11.9743 73.538 11.4005 73.821 10.5637C74.104 9.72685 74.104 8.57922 73.5616 7.52721C73.3021 7.00121 72.8776 6.52303 72.3588 6.14048C71.84 5.75794 71.2268 5.49494 70.59 5.32757C69.9533 5.16021 69.2929 5.06457 68.6562 5.04066C68.0194 4.99284 67.4298 4.99284 66.8402 4.96893C66.2742 4.94502 65.7318 4.92112 65.213 4.84939C64.7177 4.77766 64.2461 4.65812 63.8451 4.51466C63.0197 4.22775 62.4301 3.8213 62.0764 3.46266C61.9113 3.29529 61.7698 3.15184 61.699 3.03229C61.6519 2.98447 61.6283 2.93666 61.6047 2.91275C61.5811 2.88884 61.5811 2.86493 61.5811 2.86493C61.5811 2.86493 61.699 3.10402 62.0528 3.46266C62.4065 3.8213 62.9961 4.25166 63.8216 4.53857C64.2225 4.68202 64.6941 4.80157 65.213 4.8733C65.7318 4.94503 66.2742 4.99284 66.8402 5.01675C67.9958 5.06457 69.2694 5.04066 70.5429 5.37539C71.1796 5.54275 71.7928 5.80575 72.288 6.16439C72.8069 6.52303 73.1842 7.00121 73.4672 7.5033C74.0096 8.5314 74.0096 9.65513 73.7502 10.468C73.4908 11.3049 72.9956 11.8548 72.6418 12.1895C72.4531 12.3569 72.3116 12.4764 72.1937 12.5481C72.1465 12.572 72.0994 12.6199 72.0758 12.6199C72.0994 12.6916 72.0758 12.7155 72.0758 12.7155Z" fill="#263238"/>
<path d="M56.6746 11.7353C56.7453 11.807 57.1463 11.5201 57.7358 11.5201C58.3254 11.5201 58.7499 11.8309 58.7971 11.7592C58.8207 11.7353 58.7735 11.5918 58.5848 11.4483C58.3962 11.3049 58.0896 11.1614 57.7358 11.1614C57.3821 11.1614 57.0755 11.281 56.8868 11.4244C56.6982 11.5679 56.651 11.6874 56.6746 11.7353Z" fill="#263238"/>
<path d="M62.6184 11.8294C62.6892 11.9011 63.0901 11.6142 63.6797 11.6142C64.2693 11.6142 64.6938 11.925 64.7409 11.8533C64.7645 11.8294 64.7173 11.6859 64.5287 11.5425C64.34 11.399 64.0334 11.2556 63.6797 11.2556C63.3259 11.2556 63.0193 11.3751 62.8307 11.5186C62.642 11.662 62.5948 11.7816 62.6184 11.8294Z" fill="#263238"/>
<path d="M60.6358 16.8022C60.848 16.5153 61.2254 16.3718 61.5791 16.4196C61.8386 16.4436 62.0744 16.587 62.2395 16.8022C62.381 17.0174 62.4046 17.3043 62.2631 17.4956C62.098 17.7107 61.7678 17.7586 61.4848 17.6868C61.2018 17.5912 60.966 17.3999 60.7537 17.2326C60.683 17.1847 60.6358 17.1369 60.5886 17.0652C60.5415 16.9935 60.5415 16.8978 60.5886 16.85" fill="#D79870"/>
<path d="M62.1236 15.824C62.0292 15.824 62.0057 16.4457 61.4632 16.8999C60.9208 17.3542 60.2369 17.2586 60.2369 17.3542C60.2369 17.402 60.3784 17.4738 60.6614 17.4977C60.9444 17.5216 61.3453 17.4259 61.6755 17.1629C62.0057 16.8999 62.1708 16.5174 62.1943 16.2544C62.2415 15.9914 62.1707 15.824 62.1236 15.824Z" fill="#263238"/>
<path d="M57.2191 55.8458L50.7572 58.0694L50.2384 59.6952C50.2384 59.6952 32.2206 53.1202 30.9471 52.4268C29.6736 51.7335 23.0938 50.2033 20.9241 55.6785C19.0845 60.2929 22.7164 64.9074 28.518 67.5135C34.3195 70.0957 45.5453 71.2194 45.5453 71.2194L52.9505 72.5105L69.3175 72.7257C74.1521 72.7974 78.7745 70.6695 81.9111 66.9397C84.4817 63.9032 87.1466 60.4364 87.6655 58.6432C88.656 55.1525 87.7598 50.6097 82.6186 50.1794C77.4774 49.749 69.1288 55.7024 69.1288 55.7024L65.9686 54.8177L57.2191 55.8458Z" fill="#263238"/>
<path d="M56.6985 66.4844C56.6985 66.4844 56.6985 66.4365 56.7221 66.3648C56.7457 66.2931 56.7457 66.1735 56.6749 66.0301C56.557 65.7671 56.1325 65.5041 55.5901 65.3606C54.4817 64.9064 52.8072 64.1891 50.8262 63.2088C48.8452 62.2285 46.5576 60.9614 44.1049 59.6224C42.3361 58.6661 40.6381 57.7336 39.058 56.9685C37.4779 56.2034 36.0629 55.534 34.8366 55.0558C34.53 54.9363 34.247 54.8167 33.964 54.6972C33.681 54.6015 33.4216 54.5059 33.1857 54.4103C32.9499 54.3146 32.714 54.2429 32.5018 54.1473C32.2895 54.0755 32.1009 54.0038 31.9122 53.956C31.5585 53.8364 31.299 53.7408 31.1104 53.693C31.016 53.6691 30.9453 53.6452 30.8981 53.6213C30.8509 53.5974 30.8274 53.5974 30.8274 53.5974C30.8274 53.5974 30.8509 53.5974 30.8981 53.6213C30.9453 53.6452 31.016 53.6452 31.1104 53.693C31.299 53.7408 31.582 53.8364 31.9358 53.9321C32.1245 53.9799 32.3131 54.0516 32.5254 54.1234C32.7376 54.1951 32.9735 54.2907 33.2093 54.3624C33.4687 54.4581 33.7281 54.5537 34.0111 54.6493C34.2941 54.745 34.5771 54.8645 34.8837 55.008C36.1101 55.4862 37.5487 56.1317 39.1288 56.9207C40.7089 57.6858 42.4069 58.5944 44.1756 59.5746C46.6283 60.9135 48.9159 62.1807 50.897 63.1849C52.878 64.1891 54.5288 64.9064 55.6372 65.3845C56.2033 65.528 56.6042 65.791 56.7221 66.1018C56.7928 66.2453 56.7693 66.3648 56.7457 66.4365C56.7221 66.4365 56.6985 66.4844 56.6985 66.4844Z" fill="#4D5A64"/>
<path d="M80.8007 51.3504C80.8007 51.3504 80.7772 51.3504 80.73 51.3743C80.6828 51.3743 80.6121 51.3982 80.5177 51.3982C80.3291 51.4221 80.0461 51.446 79.6923 51.5417C78.9848 51.6851 77.9943 52.0437 76.8859 52.7371C76.3199 53.0718 75.7539 53.4783 75.1643 53.9565C74.5747 54.4347 73.9851 54.9846 73.3955 55.6062C72.2399 56.8734 70.9192 58.2362 69.4335 59.5512C68.7024 60.2207 67.9477 60.8423 67.193 61.3922C66.4384 61.9421 65.6837 62.4442 64.8583 62.7311C64.0328 62.9941 63.231 63.0898 62.4763 63.2093C61.7216 63.3289 61.0377 63.4484 60.4246 63.6636C59.8114 63.8788 59.2925 64.1179 58.868 64.4048C58.4435 64.6917 58.1605 65.0503 57.9954 65.3611C57.8304 65.672 57.7832 65.9589 57.7596 66.1501C57.7596 66.2458 57.7596 66.3175 57.7596 66.3653C57.7596 66.4131 57.7596 66.437 57.7596 66.437C57.7596 66.437 57.7596 66.4131 57.7596 66.3653C57.7596 66.3175 57.7596 66.2458 57.7596 66.1501C57.7832 65.9589 57.8068 65.6719 57.9719 65.3372C58.1369 65.0025 58.42 64.6439 58.8445 64.3569C59.269 64.0461 59.8114 63.7831 60.4246 63.5679C61.0377 63.3528 61.7452 63.2332 62.4999 63.1137C63.2546 62.9941 64.0564 62.8985 64.8583 62.6116C65.6601 62.3247 66.4148 61.8226 67.1459 61.2727C67.9005 60.7228 68.6316 60.1011 69.3627 59.4317C70.8249 58.1167 72.1692 56.7778 73.3248 55.4867C73.9143 54.865 74.5275 54.3151 75.1171 53.8369C75.7067 53.3588 76.2963 52.9523 76.8623 52.6176C77.9707 51.9481 78.9848 51.5895 79.6923 51.4699C80.0461 51.3743 80.3291 51.3743 80.5177 51.3504C80.6121 51.3504 80.6828 51.3504 80.73 51.3265C80.7772 51.3504 80.8007 51.3504 80.8007 51.3504Z" fill="#4D5A64"/>
<path d="M58.4221 64.5253C58.4221 64.5253 58.3749 64.4296 58.3041 64.2145C58.257 64.1188 58.257 63.9993 58.2098 63.8319C58.1862 63.6884 58.1626 63.5211 58.1391 63.3298C58.0919 62.9473 58.0919 62.5169 58.0919 62.0148C58.1155 61.5127 58.1391 60.9867 58.2334 60.4129C58.3749 59.2892 58.6579 58.285 58.9409 57.5916C59.0116 57.4242 59.0824 57.2569 59.1531 57.1373C59.2239 57.0178 59.2947 56.8982 59.3418 56.8026C59.4597 56.6352 59.5305 56.5396 59.5541 56.5396C59.5541 56.5396 59.5069 56.6352 59.389 56.8265C59.3418 56.9222 59.2947 57.0417 59.2239 57.1612C59.1532 57.2808 59.106 57.4482 59.0352 57.6155C58.7758 58.3089 58.5164 59.3131 58.3749 60.4368C58.3041 60.9867 58.257 61.5366 58.2334 62.0387C58.2334 62.5408 58.2334 62.9712 58.257 63.3298C58.3041 64.071 58.4456 64.5014 58.4221 64.5253Z" fill="#4D5A64"/>
<path d="M56.6999 66.4845C56.6999 66.4845 68.8926 69.5927 69.3879 69.7601C70.119 69.9991 70.0718 72.7248 68.9162 72.7009C68.3738 72.7009 59.6243 73.2508 58.5159 73.203C57.4074 73.1551 54.3887 72.0314 54.3887 72.0314L56.2283 67.6082L56.6999 66.4845Z" fill="#E0E0E0"/>
<path d="M61.8648 71.0522C61.9355 71.0522 61.9827 70.4066 62.36 69.7133C62.7374 69.0199 63.2326 68.6134 63.1854 68.5656C63.1619 68.5178 62.5723 68.8764 62.1713 69.6176C61.7704 70.3588 61.794 71.0522 61.8648 71.0522Z" fill="#263238"/>
<path d="M60.5932 70.5031C60.6639 70.5031 60.7583 69.9293 61.0649 69.2838C61.3715 68.6382 61.7488 68.1839 61.7016 68.1361C61.678 68.0883 61.2064 68.5187 60.8762 69.1881C60.546 69.8815 60.5224 70.5031 60.5932 70.5031Z" fill="#263238"/>
<path d="M59.3882 70.2167C59.459 70.2167 59.3882 69.5951 59.6477 68.9017C59.8835 68.2084 60.3316 67.778 60.2844 67.7302C60.2608 67.6824 59.7184 68.0649 59.459 68.83C59.176 69.5712 59.3411 70.2167 59.3882 70.2167Z" fill="#263238"/>
<path d="M59.5771 68.6136C59.6007 68.6136 59.695 68.2789 59.695 67.7051C59.695 67.4182 59.6478 67.0834 59.5535 66.7009C59.5063 66.5096 59.4356 66.3184 59.3648 66.1271C59.3177 66.0314 59.2705 65.9119 59.1526 65.8402C59.0347 65.7445 58.8224 65.7684 58.7281 65.8641C58.6102 65.9597 58.5866 66.1032 58.563 66.2227C58.563 66.3423 58.5394 66.4379 58.563 66.5574C58.563 66.7726 58.6102 66.9639 58.6573 67.1552C58.7517 67.5377 58.9168 67.8485 59.0583 68.0876C59.3413 68.5897 59.6007 68.8288 59.6243 68.8049C59.6478 68.781 59.4356 68.4941 59.1998 68.0159C59.0818 67.7768 58.9403 67.466 58.8696 67.1074C58.8224 66.94 58.7988 66.7487 58.7988 66.5574C58.7988 66.3662 58.7988 66.1271 58.8932 66.0314C58.9403 65.9836 59.0111 65.9836 59.0583 66.0075C59.1054 66.0554 59.1526 66.1271 59.1998 66.2227C59.2705 66.414 59.3413 66.5814 59.3884 66.7487C59.4828 67.1074 59.5535 67.4182 59.5771 67.7051C59.5771 68.255 59.5299 68.6136 59.5771 68.6136Z" fill="#263238"/>
<path d="M59.5548 68.4933C59.5548 68.4694 59.2717 68.3738 58.7765 68.3738C58.5407 68.3738 58.2341 68.4216 57.9275 68.4933C57.7624 68.5411 57.5973 68.589 57.4322 68.6846C57.2671 68.7802 57.102 69.0193 57.1728 69.2584C57.22 69.4975 57.4322 69.641 57.6209 69.6888C57.8096 69.7366 57.9982 69.7127 58.1633 69.6649C58.4935 69.5692 58.7529 69.4019 58.9416 69.2584C59.3189 68.9476 59.5076 68.7085 59.484 68.6846C59.4604 68.6607 59.2482 68.8759 58.8472 69.1389C58.6586 69.2823 58.3991 69.4258 58.1161 69.4736C57.9746 69.4975 57.8096 69.5214 57.6681 69.4736C57.5266 69.4258 57.4086 69.3302 57.3615 69.1867C57.3143 69.0432 57.4086 68.9237 57.5266 68.8281C57.6445 68.7324 57.8096 68.6846 57.9511 68.6368C58.2576 68.5411 58.5171 68.4933 58.7529 68.4694C59.2482 68.4694 59.5548 68.5172 59.5548 68.4933Z" fill="#263238"/>
<path d="M63.728 71.1458C63.7988 71.1458 63.728 70.6198 63.9403 70.0221C64.1525 69.4483 64.5534 69.0897 64.5063 69.0418C64.4827 68.994 63.9874 69.3048 63.7516 69.9504C63.4922 70.5959 63.6808 71.1697 63.728 71.1458Z" fill="#263238"/>
<path d="M55.2867 71.8869C55.2867 71.9108 55.4518 71.9825 55.7584 72.1021C56.065 72.2216 56.5366 72.3651 57.1262 72.4846C58.2818 72.7476 59.9563 72.8911 61.7486 72.8194C63.5645 72.7476 65.1918 72.6281 66.371 72.5564C66.937 72.5085 67.4087 72.4846 67.7624 72.4368C68.0926 72.4129 68.2813 72.389 68.2813 72.3651C68.2813 72.3412 68.0926 72.3412 67.7624 72.3412C67.3851 72.3412 66.9134 72.3651 66.3474 72.389C65.1211 72.4368 63.4938 72.5085 61.725 72.5803C59.9091 72.652 58.2818 72.5324 57.1262 72.3173C55.9706 72.1499 55.2867 71.863 55.2867 71.8869Z" fill="#263238"/>
<path d="M54.9303 72.1763C54.9538 72.2002 55.284 72.0089 55.8264 71.7459C56.3689 71.4829 57.1943 71.196 58.114 71.3155C59.0338 71.4351 59.6941 72.0328 60.1186 72.4632C60.5431 72.8935 60.8026 73.1805 60.8261 73.1805C60.8497 73.1565 60.6375 72.8457 60.213 72.3675C60.0007 72.1284 59.7413 71.8654 59.3875 71.6263C59.0574 71.3873 58.6093 71.1721 58.114 71.1243C57.1235 71.0047 56.2745 71.3394 55.7321 71.6263C55.2133 71.9133 54.9067 72.1763 54.9303 72.1763Z" fill="#263238"/>
<path d="M67.1 72.4391C67.1235 72.4152 67.0056 72.2718 66.9113 71.9848C66.817 71.6979 66.7226 71.2915 66.7934 70.8372C66.8641 70.3829 67.0764 70.0243 67.265 69.7852C67.4537 69.5461 67.5952 69.4266 67.5952 69.4027C67.5952 69.3788 67.4065 69.4744 67.1943 69.7135C66.982 69.9287 66.7226 70.3351 66.6519 70.8133C66.5811 71.2915 66.6754 71.7458 66.8169 72.0327C66.9349 72.3196 67.0764 72.4391 67.1 72.4391Z" fill="#263238"/>
<path d="M85.3779 61.4891C85.3779 61.4891 85.3543 61.537 85.26 61.6565C85.1892 61.776 85.0713 61.9195 84.9298 62.1108C84.7883 62.302 84.6232 62.565 84.411 62.828C84.1987 63.091 83.9393 63.4019 83.6563 63.7605C83.3733 64.0952 83.0431 64.4539 82.6894 64.8364C82.3356 65.219 81.9347 65.5776 81.5102 65.984C80.6376 66.7491 79.6471 67.586 78.5387 68.3032C77.4067 69.0444 76.2982 69.6661 75.237 70.1442C74.1757 70.6224 73.1852 70.9811 72.3598 71.2202C71.9353 71.3397 71.558 71.4353 71.2042 71.5071C70.8504 71.5788 70.5674 71.6266 70.3316 71.6505C70.0958 71.6744 69.9071 71.6983 69.7656 71.7222C69.6477 71.7462 69.5769 71.7462 69.5769 71.7462C69.5769 71.7462 69.6477 71.7222 69.7656 71.6983C69.9071 71.6744 70.0958 71.6505 70.3316 71.6266C70.5674 71.5788 70.874 71.5071 71.2042 71.4592C71.5344 71.3636 71.9353 71.2919 72.3362 71.1484C73.1852 70.9093 74.1521 70.5268 75.1898 70.0486C76.2275 69.5704 77.3595 68.9488 78.4679 68.2076C79.5764 67.4664 80.5669 66.6535 81.4395 65.9123C81.864 65.5059 82.2649 65.1472 82.6186 64.7647C82.9724 64.3821 83.3026 64.0474 83.5856 63.7127C83.8686 63.378 84.128 63.0671 84.3402 62.8041C84.5525 62.5411 84.7412 62.2781 84.8827 62.0869C85.0242 61.8956 85.1421 61.7521 85.2364 61.6326C85.3307 61.537 85.3779 61.4652 85.3779 61.4891Z" fill="#4D5A64"/>
<path d="M54.2716 64.957C54.248 64.957 54.0593 64.6701 53.7292 64.1919C53.399 63.7138 52.8802 63.0921 52.267 62.4466C51.6302 61.8249 51.0171 61.2989 50.5454 60.9642C50.0737 60.6295 49.7671 60.4143 49.7907 60.4143C49.7907 60.4143 49.8851 60.4382 50.0266 60.5339C50.1681 60.6056 50.3803 60.749 50.6162 60.9164C51.1114 61.2511 51.7482 61.7532 52.3613 62.3988C52.9981 63.0443 53.4933 63.6899 53.8235 64.168C53.9886 64.4071 54.1065 64.6223 54.2008 64.7658C54.2244 64.8853 54.2716 64.957 54.2716 64.957Z" fill="#4D5A64"/>
<path d="M68.9871 58.1167C68.9871 58.1406 68.7277 58.308 68.3032 58.6427C67.8787 58.9774 67.3363 59.4556 66.7938 60.0772C66.275 60.6989 65.8741 61.3205 65.6147 61.7748C65.3552 62.2291 65.2137 62.5399 65.1902 62.5399C65.1902 62.5399 65.2137 62.4681 65.2609 62.3247C65.3081 62.1812 65.4024 61.99 65.5203 61.7509C65.7562 61.2727 66.1571 60.6272 66.6995 60.0055C67.2419 59.3839 67.8079 58.9057 68.2324 58.5949C68.4447 58.4275 68.6334 58.3319 68.7513 58.2602C68.9164 58.1645 68.9871 58.1167 68.9871 58.1167Z" fill="#4D5A64"/>
<path d="M72.0767 54.3377C75.3548 51.6599 81.5573 50.3927 81.5573 50.3927C81.5573 50.3927 81.2035 38.223 80.2838 32.6282C80.2602 32.4848 80.2366 32.3652 80.213 32.2218C79.364 27.9181 75.5907 25.312 71.2985 24.7143L68.3977 24.3079L59.8133 24.6187L54.5777 26.2206C54.5777 26.2206 48.3752 27.6312 47.4319 36.4537C46.4886 45.1088 45.3801 52.2576 45.5452 54.8159C45.6631 56.6091 47.314 57.9002 48.2102 58.1154C49.0356 58.3067 50.0733 58.474 50.9694 57.948C50.6628 58.5218 50.4506 59.0957 50.4034 59.6217H55.639L59.7425 55.9636L63.4923 58.6892L68.5156 56.5374L71.9824 54.1465L72.0767 54.3377ZM54.1532 53.9791V53.9552C54.7428 51.0144 54.8135 50.1536 54.8135 50.1536C54.8135 50.1536 51.7241 49.7472 52.2194 45.587L52.691 41.9767L55.7805 52.4728C55.7805 52.4967 55.0494 53.0706 54.1532 53.9791Z" fill="#EBEBEB"/>
<g opacity="0.2">
<g opacity="0.2">
<path opacity="0.2" d="M65.0481 49.9378L66.015 47.4751C64.9538 47.0208 64.5764 46.9969 63.4208 46.8535C60.355 46.4709 57.1712 47.3317 54.6713 49.1727L55.3081 51.0137H55.3317C55.7326 51.1571 56.3929 51.1332 56.7703 51.0376C57.1712 50.9419 57.5957 50.8224 57.9966 50.9419C58.5154 51.0854 58.8928 51.5397 59.3645 51.8027C60.3078 52.3526 61.6756 51.9461 62.1945 50.9898C62.4067 50.5833 62.619 50.0095 63.0671 50.0334C63.3029 50.0334 63.468 50.2008 63.6567 50.3442C64.1991 50.8224 64.7415 51.3006 65.2839 51.8027C65.9443 52.3765 66.581 52.9742 67.2885 53.5002C68.114 54.1219 69.0573 54.6718 70.0714 54.624C71.0855 54.6 71.1326 53.5959 71.1326 53.5959L65.0481 49.9378Z" fill="black"/>
</g>
</g>
<path d="M59.3653 24.3568L59.2238 26.8673C59.1766 27.728 59.2945 28.6127 59.6011 29.4017L62.6198 37.3873C62.6198 37.3873 62.1481 32.725 64.1056 31.0036C66.0394 29.2821 68.4921 29.4495 68.5157 26.7956C68.5157 26.3413 68.5157 23.4483 68.5157 23.4483L64.3414 22.6354L59.3653 24.3568Z" fill="#B55B52"/>
<path d="M74.8361 25.6476C74.8361 25.6476 74.7889 25.6716 74.671 25.7433C74.5531 25.7911 74.4116 25.8867 74.2229 26.0063C73.8456 26.2454 73.3739 26.6996 72.9494 27.393C72.5249 28.0864 72.1712 28.9949 72.124 30.0708C72.1004 30.5968 72.1476 31.1707 72.1948 31.7445C72.2419 32.3183 72.3127 32.9399 72.3598 33.5377C72.5957 36.0003 72.8787 38.2478 73.0909 39.8497C73.1853 40.6626 73.2796 41.3081 73.3504 41.7624C73.3739 41.9776 73.3975 42.145 73.4211 42.2884C73.4447 42.408 73.4447 42.4797 73.4447 42.4797C73.4447 42.4797 73.4211 42.408 73.3975 42.3123C73.3739 42.1928 73.3503 42.0254 73.3032 41.7863C73.2324 41.3321 73.1145 40.6865 72.9966 39.8736C72.7608 38.2717 72.4778 36.0242 72.2419 33.5616C72.1712 32.9399 72.124 32.3422 72.0768 31.7684C72.0297 31.1946 71.9825 30.6207 72.0061 30.0708C72.0768 28.9949 72.4542 28.0386 72.8787 27.3691C73.3268 26.6757 73.822 26.2454 74.1994 26.0063C74.388 25.8867 74.5531 25.815 74.671 25.7672C74.7654 25.6716 74.8361 25.6476 74.8361 25.6476Z" fill="#263238"/>
<path d="M73.7293 54.9604C73.7293 54.9604 73.7057 54.9604 73.6821 54.9365C73.635 54.9126 73.6114 54.9126 73.5406 54.8887C73.4227 54.8409 73.2576 54.7691 73.0218 54.6496C72.5737 54.4344 71.937 54.0997 71.1587 53.6454C69.6022 52.7608 67.4325 51.4936 65.0034 50.0112L64.9562 49.9873L64.9798 49.9395C65.2628 49.2461 65.5458 48.5289 65.8524 47.8116C66.159 47.0704 66.442 46.3531 66.7014 45.6598C66.8429 45.3011 66.9608 44.9664 67.0788 44.6317C67.1495 44.4643 67.1967 44.2969 67.2438 44.1296C67.2674 44.0578 67.291 43.9622 67.3146 43.8905C67.3146 43.8427 67.3382 43.8188 67.3382 43.7709C67.3382 43.747 67.3382 43.7231 67.3382 43.7231V43.6992C67.3382 43.6992 67.3382 43.7231 67.3618 43.7231L67.4089 43.6036C68.4702 44.0818 69.3899 44.5839 70.2389 45.062C71.0644 45.5402 71.7955 45.9467 72.4086 46.2814C73.0218 46.6161 73.517 46.8552 73.8472 47.0226C74.0123 47.0943 74.1302 47.166 74.2246 47.2139C74.3189 47.2617 74.3661 47.2856 74.3661 47.2856C74.3661 47.2856 74.3189 47.2617 74.2246 47.2378C74.1302 47.1899 73.9887 47.1421 73.8236 47.0704C73.4699 46.903 72.9746 46.6639 72.3615 46.3531C71.7483 46.0423 71.0172 45.6119 70.1682 45.1577C69.3428 44.7034 68.3994 44.2013 67.3382 43.7231L67.3853 43.6036C67.4089 43.6036 67.4325 43.6275 67.4325 43.6514V43.6753C67.4325 43.6992 67.4325 43.6992 67.4325 43.7231C67.4325 43.747 67.4325 43.7709 67.4325 43.7949C67.4325 43.8427 67.4089 43.8905 67.4089 43.9383C67.3853 44.0339 67.3618 44.1057 67.3382 44.2013C67.291 44.3687 67.2203 44.536 67.1731 44.7034C67.0552 45.0381 66.9373 45.3968 66.7958 45.7315C66.5363 46.4249 66.2533 47.1421 65.9467 47.8833C65.6402 48.6006 65.3572 49.3179 65.0742 50.0112L65.0506 49.9395C67.4797 51.4458 69.6258 52.7129 71.1823 53.6215C71.9605 54.0758 72.5737 54.4105 73.0218 54.6496C73.234 54.7691 73.3991 54.8409 73.517 54.9126C73.5642 54.9365 73.6114 54.9604 73.635 54.9843C73.7057 54.9365 73.7293 54.9604 73.7293 54.9604Z" fill="#263238"/>
<path d="M52.5951 41.9774C52.5951 41.9774 52.548 41.8579 52.5008 41.6427C52.4536 41.4275 52.4065 41.0928 52.3357 40.6863C52.2178 39.8734 52.0999 38.7497 52.0527 37.5064C52.0291 36.2631 52.0763 35.1394 52.147 34.3265C52.1942 33.92 52.2178 33.5853 52.265 33.3701C52.2885 33.1549 52.3121 33.0115 52.3357 33.0115C52.3357 33.0115 52.3357 33.131 52.3121 33.3701C52.2885 33.5853 52.265 33.92 52.2414 34.3265C52.1942 35.1394 52.147 36.2631 52.1706 37.5064C52.2178 38.7497 52.3121 39.8734 52.4065 40.6624C52.4536 41.0689 52.5008 41.4036 52.5244 41.6188C52.5951 41.8579 52.5951 41.9774 52.5951 41.9774Z" fill="#263238"/>
<path d="M52.0779 43.9877C52.0779 43.9877 52.0071 44.1073 51.8656 44.2986C51.7005 44.5137 51.4883 44.7767 51.2289 45.0875C50.6865 45.7809 49.9318 46.6895 49.1299 47.6936C48.3281 48.6978 47.5734 49.6303 47.031 50.2997C46.7716 50.6106 46.5593 50.8736 46.3943 51.0887C46.2528 51.28 46.1584 51.3757 46.1584 51.3757C46.1584 51.3757 46.2292 51.2561 46.3707 51.0648C46.5122 50.8736 46.7244 50.5867 46.9838 50.2519C47.5027 49.5586 48.2338 48.6261 49.0592 47.6219C49.8846 46.5938 50.6393 45.6853 51.2053 45.0397C51.4883 44.705 51.7005 44.442 51.8656 44.2746C51.9836 44.0834 52.0779 43.9877 52.0779 43.9877Z" fill="#263238"/>
<path d="M54.4599 51.7332C54.4599 51.7332 54.4599 51.8528 54.4599 52.044C54.4599 52.1397 54.4363 52.2592 54.4127 52.4027C54.3892 52.5461 54.3656 52.6896 54.3184 52.8569C54.2477 53.1917 54.1297 53.5981 53.9647 54.0285C53.7996 54.4589 53.5637 54.9131 53.2807 55.3674C52.9977 55.8217 52.6911 56.2042 52.361 56.5389C52.0544 56.8737 51.7478 57.1367 51.4648 57.3519C51.3233 57.4714 51.2054 57.5431 51.0875 57.6149C50.9695 57.6866 50.8752 57.7583 50.7809 57.8061C50.6158 57.9018 50.5215 57.9496 50.5215 57.9496C50.4979 57.9257 50.8752 57.7105 51.4176 57.2801C51.6771 57.0649 51.9836 56.778 52.2902 56.4672C52.5968 56.1325 52.9034 55.7499 53.1864 55.2957C53.4694 54.8414 53.6817 54.411 53.8467 53.9807C54.0118 53.5503 54.1297 53.1678 54.2241 52.833C54.3892 52.1397 54.4363 51.7332 54.4599 51.7332Z" fill="#263238"/>
<path d="M69.0111 24.0462C69.0111 24.0462 69.0346 24.094 69.1054 24.2136C69.1526 24.3331 69.2469 24.4766 69.3412 24.6917C69.5063 25.1221 69.7421 25.7677 69.8837 26.5806C70.0252 27.3935 70.0723 28.3977 69.9072 29.4975C69.7657 30.5973 69.3884 31.7689 68.7516 32.8687C68.6337 33.0599 68.5158 33.2273 68.3979 33.4186C68.28 33.5859 68.1385 33.7533 68.0206 33.9207L67.997 33.9685L67.9498 33.9446C67.0065 33.3708 65.898 33.3469 65.0255 33.6816C64.5774 33.8489 64.2236 34.1119 63.917 34.3749C63.6104 34.6379 63.351 34.9488 63.1859 35.2357C62.8322 35.8334 62.7379 36.4072 62.6907 36.7898C62.6435 37.1723 62.6671 37.3875 62.6435 37.3875C62.6435 37.3875 62.6435 37.3397 62.6435 37.2201C62.6435 37.1245 62.6435 36.9571 62.6435 36.7659C62.6671 36.3833 62.7614 35.7856 63.1152 35.1639C63.3039 34.8531 63.5397 34.5423 63.8463 34.2554C64.1529 33.9685 64.5302 33.7055 64.9783 33.5381C65.8509 33.2034 67.03 33.2034 67.997 33.8011L67.9262 33.825C68.0441 33.6577 68.1621 33.4903 68.3036 33.3229C68.4215 33.1556 68.5394 32.9643 68.6337 32.7969C69.2705 31.721 69.6478 30.5495 69.7893 29.4736C69.9544 28.3977 69.9308 27.3935 69.7893 26.5806C69.6714 25.7677 69.4591 25.1221 69.2941 24.6917C69.2233 24.4766 69.129 24.3092 69.0818 24.1897C69.0346 24.094 69.0111 24.0462 69.0111 24.0462Z" fill="#263238"/>
<path d="M62.1487 36.3108C62.1487 36.3108 62.1251 36.263 62.078 36.1674C62.0308 36.0717 61.96 35.9283 61.8893 35.7609C61.7242 35.4023 61.4884 34.9002 61.1818 34.3024C60.8516 33.7047 60.4507 32.9874 59.8611 32.318C59.5545 32.0072 59.2008 31.6724 58.7527 31.4573C58.3282 31.2421 57.8329 31.0986 57.3141 31.0747C57.1018 31.0747 56.9132 31.0747 56.7245 31.0986H56.6537V31.0269C56.7952 30.0466 57.0547 29.1381 57.3141 28.3491C57.5735 27.5362 57.8565 26.8428 58.1159 26.269C58.3753 25.6952 58.6348 25.2409 58.7999 24.954C58.8942 24.8105 58.9649 24.691 59.0357 24.6192C59.0829 24.5475 59.13 24.4997 59.13 24.4997C59.13 24.4997 59.0357 24.6671 58.847 24.954C58.6819 25.2648 58.4461 25.6952 58.1867 26.2929C57.9273 26.8667 57.6678 27.584 57.4084 28.373C57.149 29.162 56.9132 30.0705 56.7717 31.0269L56.7009 30.9552C56.8896 30.9552 57.1018 30.9313 57.3141 30.9313C57.8329 30.9552 58.3518 31.0986 58.7999 31.3377C59.2479 31.5768 59.6017 31.8876 59.9319 32.2223C60.545 32.9157 60.946 33.633 61.2525 34.2546C61.5591 34.8763 61.7714 35.3784 61.9365 35.737C62.0072 35.9044 62.0544 36.0478 62.1015 36.1434C62.1251 36.263 62.1487 36.3108 62.1487 36.3108Z" fill="#263238"/>
<g opacity="0.2">
<g opacity="0.2">
<path opacity="0.2" d="M62.6185 37.219C62.8779 36.3822 63.208 36.0714 63.6561 35.641C64.1042 35.2107 64.7174 34.8759 65.3306 34.9238C65.8494 34.9477 66.3446 35.2346 66.8635 35.2346C67.4766 35.2585 68.0426 34.8998 68.4907 34.4934C70.401 32.8198 71.0142 29.8311 69.9293 27.5358C70.0237 29.8072 69.2926 32.1025 67.8776 33.8718C66.7691 33.2262 65.3306 33.274 64.2693 33.9674C63.2316 34.6608 62.5477 35.9758 62.6185 37.219Z" fill="black"/>
</g>
</g>
<path d="M73.3976 42.2176C73.3976 42.2176 73.4212 42.3371 73.4684 42.5523C73.492 42.7914 73.5391 43.1022 73.5863 43.4609C73.6806 44.226 73.8221 45.3019 73.9636 46.4734C73.9872 46.6886 74.0108 46.9038 74.0344 47.119L73.9872 47.0711C75.0013 47.2863 75.8031 47.7167 76.3456 48.0992C76.605 48.2905 76.8172 48.4579 76.9587 48.5774C77.1002 48.697 77.1474 48.7687 77.1474 48.7687C77.1238 48.7926 76.8408 48.5057 76.2984 48.171C75.756 47.8123 74.9541 47.4059 73.9636 47.2146H73.9165V47.1668C73.8929 46.9516 73.8693 46.7364 73.8457 46.5212C73.7042 45.3497 73.5863 44.2738 73.5155 43.5087C73.4684 43.15 73.4448 42.8392 73.4212 42.6001C73.3976 42.3371 73.374 42.2176 73.3976 42.2176Z" fill="#263238"/>
<path d="M65.9926 53.0466C65.9926 53.0466 65.9454 53.0705 65.8747 53.0944C65.7803 53.1183 65.6624 53.1422 65.5209 53.19C65.2143 53.2617 64.7662 53.3574 64.2002 53.4291C63.0682 53.5726 61.4881 53.6443 59.7429 53.4052C58.8704 53.2857 58.0685 53.0944 57.3374 52.8792C56.9837 52.7596 56.6299 52.664 56.3233 52.5206C56.0167 52.3771 55.7573 52.1619 55.5922 51.9228C55.4272 51.6837 55.3328 51.4207 55.2857 51.2056C55.2149 50.9904 55.1913 50.7752 55.1677 50.6317C55.1442 50.4644 55.1442 50.3448 55.1206 50.2492C55.1206 50.1535 55.1206 50.1296 55.1206 50.1296C55.1206 50.1296 55.1442 50.297 55.2149 50.6317C55.2385 50.7991 55.2857 50.9904 55.3564 51.2056C55.4272 51.4207 55.5215 51.6598 55.6866 51.8989C55.8517 52.138 56.0875 52.3293 56.3941 52.4488C56.7007 52.5684 57.0544 52.664 57.4082 52.7836C58.1393 52.9987 58.9411 53.1661 59.7901 53.2857C61.5117 53.5247 63.0918 53.4769 64.2238 53.3574C64.7898 53.2857 65.2379 53.2139 65.5445 53.1661C65.686 53.1422 65.8039 53.1183 65.8983 53.0944C65.9454 53.0466 65.9926 53.0466 65.9926 53.0466Z" fill="#263238"/>
<path d="M61.0633 53.4291C61.0633 53.453 60.8982 53.5008 60.6624 53.6443C60.4265 53.7877 60.1199 54.0268 59.9077 54.3854C59.6718 54.7441 59.5775 55.1266 59.5539 55.3896C59.5303 55.6765 59.5539 55.8439 59.5303 55.8439C59.5303 55.8439 59.4596 55.6765 59.4596 55.3896C59.4596 55.1027 59.5539 54.6963 59.7898 54.3137C60.0256 53.9312 60.3558 53.6921 60.6152 53.5486C60.8746 53.4291 61.0633 53.4291 61.0633 53.4291Z" fill="#263238"/>
<path d="M62.2185 37.1714C62.2185 37.1714 62.2421 37.2192 62.2421 37.3387C62.2657 37.4583 62.2656 37.6257 62.2892 37.8169C62.3364 38.2234 62.3836 38.845 62.4307 39.5862C62.5251 41.0686 62.6194 43.1487 62.5487 45.4439C62.5251 46.5916 62.4779 47.6675 62.3836 48.6717C62.3128 49.6519 62.1949 50.5605 62.0062 51.2778C61.8176 51.995 61.511 52.5449 61.2751 52.9036C61.1572 53.0709 61.0629 53.1905 60.9685 53.2861C60.8978 53.3579 60.8506 53.4057 60.8506 53.4057C60.8506 53.4057 60.9921 53.2383 61.228 52.8797C61.4402 52.521 61.7232 51.995 61.9119 51.2778C62.1006 50.5605 62.2185 49.6759 62.2657 48.6956C62.3364 47.7153 62.3836 46.6155 62.4072 45.4918C62.4543 43.2204 62.4072 41.1403 62.3128 39.6579C62.2657 38.9168 62.2185 38.319 62.1949 37.8887C62.1713 37.6974 62.1713 37.53 62.1713 37.4105C62.2185 37.2431 62.2185 37.1714 62.2185 37.1714Z" fill="#263238"/>
<path d="M51.5359 35.8827C51.5359 35.9067 50.6633 36.0262 49.5548 36.0979C48.47 36.1936 47.5738 36.2175 47.5738 36.1936C47.5738 36.1696 48.4464 36.0501 49.5548 35.9784C50.6633 35.9067 51.5359 35.8588 51.5359 35.8827Z" fill="white"/>
<path d="M62.1469 40.1144C62.1469 40.1144 62.0054 40.1384 61.7696 40.1862C61.5102 40.234 61.1564 40.2818 60.7083 40.3057C60.2603 40.3535 59.7178 40.3535 59.1282 40.3535C58.5387 40.3296 57.8783 40.2818 57.1944 40.1862C56.5105 40.0905 55.8737 39.9471 55.2841 39.8036C54.7181 39.6363 54.1993 39.4928 53.7748 39.3254C53.3503 39.1581 53.0201 39.0146 52.7843 38.919C52.5484 38.7994 52.4305 38.7516 52.4305 38.7277C52.4305 38.7277 52.572 38.7755 52.8078 38.8712C53.0437 38.9668 53.3739 39.0864 53.7984 39.2537C54.2229 39.3972 54.7417 39.5645 55.3077 39.708C55.8737 39.8514 56.5341 39.9949 57.1944 40.0905C57.8783 40.1862 58.5151 40.234 59.1282 40.2579C59.7178 40.2818 60.2603 40.2818 60.7083 40.2579C61.1564 40.234 61.5102 40.2101 61.7696 40.1862C62.0054 40.1384 62.1469 40.1144 62.1469 40.1144Z" fill="white"/>
<path d="M72.0754 36.5266C72.0754 36.5266 71.9574 36.6222 71.7452 36.7418C71.5329 36.8852 71.2028 37.0526 70.7783 37.2678C70.3773 37.483 69.8585 37.6982 69.2925 37.9133C68.7265 38.1285 68.0897 38.3437 67.4058 38.5111C66.7219 38.6784 66.0615 38.798 65.472 38.8936C64.8588 38.9653 64.3164 39.0132 63.8683 39.0371C63.4202 39.061 63.0428 39.061 62.7834 39.0371C62.524 39.0371 62.3825 39.0132 62.3825 39.0132C62.3825 39.0132 62.524 38.9893 62.7834 38.9893C63.0428 38.9893 63.4202 38.9653 63.8683 38.9414C64.3164 38.9175 64.8588 38.8697 65.472 38.7741C66.0615 38.6784 66.7219 38.5589 67.4058 38.3915C68.0897 38.2242 68.7265 38.009 69.2925 37.8177C69.8585 37.6025 70.3538 37.3873 70.7783 37.1961C71.2028 37.0048 71.5329 36.8374 71.7452 36.7179C71.9339 36.5983 72.0754 36.5266 72.0754 36.5266Z" fill="white"/>
<path d="M79.9519 31.5794C79.9519 31.5794 79.8339 31.6033 79.6453 31.6272C79.433 31.6512 79.15 31.6751 78.7963 31.699C78.0888 31.7707 77.0983 31.9381 76.037 32.2489C74.9757 32.5597 74.056 32.9422 73.3956 33.2531C73.0655 33.3965 72.8061 33.54 72.6174 33.6356C72.4287 33.7312 72.3344 33.7791 72.3344 33.7791C72.3344 33.7791 72.4287 33.7073 72.5938 33.6117C72.7589 33.4922 73.0183 33.3487 73.3485 33.2052C73.9852 32.8705 74.9286 32.4641 75.9898 32.1772C77.0511 31.8663 78.0652 31.7229 78.7727 31.6751C79.1264 31.6512 79.433 31.6272 79.6217 31.6272C79.834 31.5555 79.9519 31.5555 79.9519 31.5794Z" fill="white"/>
<path d="M81.0393 41.5941C81.0393 41.5941 80.9214 41.5941 80.7327 41.5702C80.544 41.5462 80.2374 41.5223 79.9073 41.4984C79.1998 41.4506 78.2092 41.4267 77.148 41.4984C76.0631 41.5702 75.0962 41.7375 74.4123 41.881C74.0585 41.9527 73.7755 42.0244 73.5869 42.0723C73.3982 42.1201 73.2803 42.144 73.2803 42.1201C73.2803 42.1201 73.3746 42.0723 73.5633 42.0244C73.7519 41.9527 74.0349 41.881 74.3887 41.8092C75.0726 41.6419 76.0631 41.4745 77.148 41.3789C78.2328 41.3072 79.2233 41.3311 79.9308 41.4028C80.2846 41.4267 80.5676 41.4745 80.7563 41.4984C80.9214 41.5702 81.0393 41.5941 81.0393 41.5941Z" fill="white"/>
<path d="M73.5878 53.4545C73.5643 53.4545 73.6822 53.0959 73.8001 52.546C73.918 51.9722 74.0359 51.1832 74.0359 50.2985C74.0359 49.4139 73.8944 48.6249 73.7765 48.0511C73.635 47.4772 73.5171 47.1425 73.5407 47.1425C73.5407 47.1425 73.5878 47.2142 73.635 47.3816C73.7058 47.5251 73.7765 47.7642 73.8473 48.0511C74.0123 48.6249 74.1538 49.4139 74.1538 50.3224C74.1538 51.2071 74.0359 52.02 73.8944 52.5938C73.8237 52.8807 73.7529 53.0959 73.7058 53.2633C73.635 53.3589 73.5878 53.4545 73.5878 53.4545Z" fill="white"/>
<path d="M50.875 45.1335C50.875 45.1574 50.6156 45.1574 50.1911 45.1813C49.7666 45.2052 49.2006 45.277 48.5638 45.3726C47.9271 45.4921 47.3611 45.6356 46.9601 45.7551C46.5592 45.8747 46.2998 45.9703 46.2998 45.9464C46.2998 45.9225 46.5356 45.8269 46.9366 45.6834C47.3375 45.54 47.9035 45.3726 48.5402 45.2531C49.177 45.1335 49.7666 45.0857 50.1911 45.0857C50.6156 45.0857 50.875 45.1096 50.875 45.1335Z" fill="white"/>
<path d="M52.5509 55.176C52.5509 55.176 52.5274 55.176 52.4566 55.176C52.4094 55.176 52.3151 55.176 52.1972 55.176C51.9849 55.1521 51.6548 55.1043 51.2774 54.9847C50.5228 54.7695 49.4851 54.1718 48.7776 53.1437C48.0701 52.1156 47.905 50.9202 47.9757 50.1312C47.9993 49.7247 48.0701 49.39 48.1408 49.1748C48.1644 49.0552 48.2116 48.9835 48.2352 48.9357C48.2587 48.8879 48.2587 48.8401 48.2823 48.864C48.3059 48.864 48.1172 49.3422 48.0937 50.1551C48.0465 50.9441 48.2352 52.0917 48.9191 53.0959C49.603 54.1001 50.5935 54.6739 51.3482 54.913C52.0321 55.1521 52.5509 55.1282 52.5509 55.176Z" fill="white"/>
<path d="M57.9045 56.7308C57.9045 56.7547 56.8904 56.5395 55.664 56.2287C54.4377 55.9179 53.4472 55.6309 53.4472 55.607C53.4472 55.5831 54.4613 55.7983 55.6876 56.1091C56.914 56.42 57.9045 56.7069 57.9045 56.7308Z" fill="white"/>
<path d="M70.4965 54.3869C70.4965 54.3869 70.4022 54.4586 70.1899 54.5543C70.0012 54.6499 69.6947 54.7934 69.3409 54.9607C68.6098 55.2954 67.5957 55.7019 66.4165 56.0366C65.261 56.3953 64.1761 56.6104 63.3743 56.7539C62.9734 56.8256 62.6668 56.8735 62.4309 56.8974C62.2187 56.9213 62.0772 56.9213 62.0772 56.9213C62.0772 56.9213 62.1951 56.8974 62.4073 56.8495C62.6196 56.8017 62.9498 56.7539 63.3271 56.6822C64.1054 56.5387 65.1666 56.2757 66.3458 55.941C67.5014 55.5824 68.5391 55.1998 69.2701 54.889C69.6475 54.7455 69.9305 54.6021 70.1427 54.5304C70.3786 54.4108 70.4965 54.363 70.4965 54.3869Z" fill="white"/>
<path d="M62.1224 47.5744C62.1224 47.5744 62.028 47.6222 61.8394 47.67C61.6507 47.7178 61.3913 47.7895 61.0847 47.8373C60.4479 47.9569 59.5282 48.0764 58.5141 48.0525C57.5 48.0525 56.6038 47.933 55.9671 47.7895C55.6369 47.7178 55.3775 47.67 55.2124 47.5983C55.0237 47.5504 54.9294 47.5265 54.9294 47.5026C54.9294 47.5026 55.0237 47.5026 55.2124 47.5504C55.4011 47.5983 55.6605 47.6461 55.9671 47.6939C56.6038 47.8134 57.5 47.9091 58.5141 47.9091C59.5046 47.9091 60.4008 47.8134 61.0611 47.7178C61.3913 47.67 61.6507 47.6222 61.8158 47.5983C62.028 47.5744 62.1224 47.5504 62.1224 47.5744Z" fill="white"/>
<path d="M65.8271 47.5957C65.8271 47.6196 65.6621 47.6913 65.4026 47.7869C65.1196 47.8826 64.7423 47.9782 64.2942 48.0021C63.8461 48.026 63.4452 48.0021 63.1622 47.9543C62.8792 47.9065 62.7141 47.8587 62.7141 47.8348C62.7141 47.7869 63.4216 47.9543 64.2942 47.8826C65.1432 47.8109 65.8271 47.5718 65.8271 47.5957Z" fill="white"/>
<path d="M57.6438 27.0587C57.6438 27.0826 57.3137 27.1065 56.7712 27.2022C56.2288 27.2978 55.4977 27.4413 54.6959 27.7043C53.894 27.9673 53.1865 28.2542 52.6913 28.4933C52.196 28.7323 51.8894 28.8997 51.8894 28.8758C51.8894 28.8758 51.9602 28.828 52.0781 28.7323C52.2196 28.6606 52.4083 28.5411 52.6441 28.4215C53.1394 28.1585 53.8469 27.8477 54.6487 27.6086C55.4506 27.3456 56.2052 27.2022 56.7476 27.1304C57.0306 27.1065 57.2429 27.0826 57.408 27.0587C57.5731 27.0348 57.6438 27.0348 57.6438 27.0587Z" fill="white"/>
<path d="M59.2474 28.0146C59.271 28.0146 59.1295 28.6602 58.8465 29.4253C58.5635 30.1904 58.2569 30.7642 58.2097 30.7642C58.1861 30.7403 58.4456 30.1426 58.7286 29.4014C59.0116 28.6124 59.2002 27.9907 59.2474 28.0146Z" fill="white"/>
<path d="M66.6511 29.7593C66.6982 29.7593 66.5331 30.5722 66.4152 31.5525C66.2973 32.5566 66.2973 33.3695 66.2501 33.3695C66.2266 33.3695 66.2266 33.1544 66.2266 32.8435C66.2266 32.5088 66.2501 32.0546 66.2973 31.5525C66.3445 31.0504 66.4388 30.5961 66.5096 30.2853C66.5803 29.9505 66.6275 29.7593 66.6511 29.7593Z" fill="white"/>
<path d="M69.4603 29.831C69.4131 29.831 69.2952 29.4245 69.0122 28.9702C68.7527 28.516 68.4461 28.2051 68.4697 28.1573C68.4933 28.1334 68.8471 28.4203 69.1301 28.8985C69.4131 29.3767 69.5074 29.831 69.4603 29.831Z" fill="white"/>
<path d="M52.8096 45.3736C52.9511 44.5846 52.9275 43.7956 52.786 43.0066C52.6917 42.5523 52.6209 42.0502 52.6681 41.5959C52.7388 41.1177 53.1398 40.6156 53.6114 40.6396L54.4604 44.0346L52.8096 45.3736Z" fill="#B55B52"/>
<path d="M52.8107 37.3396L55.8059 49.342L61.6546 48.6965L59.4141 36.7897C59.3434 36.4789 59.084 36.2637 58.7538 36.2637L53.4003 36.5028C52.9758 36.5506 52.6928 36.9332 52.8107 37.3396Z" fill="#263238"/>
<path d="M59.5322 40.1856C59.5322 40.1856 59.4851 40.066 59.4379 39.8269C59.3671 39.5639 59.2964 39.2531 59.2021 38.8467C59.1077 38.4402 58.9898 37.9381 58.8719 37.4121C58.8483 37.3404 58.8483 37.2687 58.8247 37.2209C58.8011 37.173 58.754 37.1013 58.7068 37.0774C58.6596 37.0296 58.5889 37.0057 58.5417 37.0057C58.4946 36.9818 58.4002 37.0057 58.3295 37.0057C58.0229 37.0296 57.7163 37.0296 57.4097 37.0535C56.1362 37.1013 54.9806 37.1491 54.1552 37.1491C53.7543 37.1491 53.4241 37.173 53.1647 37.173C52.9288 37.173 52.8109 37.173 52.8109 37.173C52.8109 37.173 52.9288 37.1491 53.1647 37.1252C53.4241 37.1013 53.7543 37.1013 54.1552 37.0774C54.9806 37.0296 56.1362 36.9818 57.4097 36.934C57.7163 36.934 58.0465 36.91 58.3295 36.91C58.4002 36.91 58.471 36.8861 58.5653 36.91C58.6361 36.9339 58.7304 36.9579 58.7776 37.0057C58.8483 37.0535 58.8955 37.1252 58.9191 37.1969C58.9426 37.2687 58.9662 37.3404 58.9662 37.4121C59.0841 37.962 59.1785 38.4402 59.2728 38.8706C59.3436 39.277 59.4143 39.5879 59.4851 39.8509C59.5322 40.0421 59.5322 40.1856 59.5322 40.1856Z" fill="#4D5A64"/>
<path d="M56.2761 37.6728C56.2054 37.5772 56.0875 37.4337 55.9224 37.5055C55.8517 37.5055 55.7337 37.625 55.7337 37.7446C55.7337 37.8641 55.8045 37.9837 55.8988 38.0315C56.0167 38.0793 56.1346 38.0793 56.229 37.9837C56.3233 37.9358 56.3469 37.7924 56.2761 37.6728Z" fill="#FAFAFA"/>
<path d="M56.2776 41.3327C56.1361 41.3805 53.1174 43.1259 53.1174 43.1259L51.5609 44.9191C51.5609 44.9191 51.0185 45.9472 51.5609 47.5013C52.1033 49.0554 52.9052 49.5575 54.6975 49.94L58.0464 49.2467L60.4047 47.7643L59.6972 45.0626L57.386 46.9514L56.0654 47.1905L55.8531 46.7601L57.7398 45.6603L60.7113 43.1259L59.7916 42.0978L57.0559 43.891L54.7211 45.0626L55.0513 44.0823L57.7634 41.8587C57.7634 41.8587 57.9285 40.8306 56.2776 41.3327Z" fill="#B55B52"/>
<path d="M56.5118 39.6588C56.5118 39.6588 57.1486 39.2524 58.2334 39.6588C59.3182 40.0653 60.7333 40.6869 60.7333 40.6869L62.8086 41.189L62.5492 40.6869C62.5492 40.6869 60.521 40.9738 60.5682 39.4915H61.7945L62.8322 38.8937L64.9783 40.8543L65.9452 43.3169L67.2659 44.345L65.6386 48.5291L62.219 47.9553L59.2947 48.2661L57.7617 47.1185L57.5259 45.5883L56.0165 44.1538C56.0165 44.1538 55.8043 43.4126 56.4646 43.3169C57.125 43.2213 58.7994 44.7515 58.7994 44.7515L60.4031 44.7276C60.4031 44.7276 60.6625 44.4646 60.4267 44.3211C60.1908 44.1777 55.3562 42.0258 55.1204 41.4998C54.8845 40.9738 54.6487 40.6391 55.1204 40.4717C55.592 40.3044 56.3703 40.5435 56.3703 40.5435C56.3703 40.5435 56.158 39.8023 56.5118 39.6588Z" fill="#B55B52"/>
<path d="M60.5445 42.4575C60.5209 42.4814 59.554 42.0749 58.3984 41.5489C57.2192 41.0229 56.2759 40.5687 56.2995 40.5208C56.3231 40.4969 57.29 40.9034 58.4456 41.4294C59.6248 41.9554 60.5681 42.4097 60.5445 42.4575Z" fill="#7C3835"/>
<path d="M61.6781 46.2342C61.6781 46.2342 61.6073 46.282 61.4422 46.3298C61.2771 46.3776 61.0649 46.4493 60.7819 46.5211C60.4989 46.5928 60.1451 46.6406 59.7678 46.6406C59.3669 46.6406 58.9424 46.545 58.5414 46.3537C57.716 45.9712 57.15 45.3495 56.7727 44.8953C56.584 44.6801 56.4425 44.4888 56.3482 44.3454C56.2538 44.2019 56.2067 44.1302 56.2067 44.1302C56.2302 44.1063 56.4661 44.3932 56.8434 44.8235C57.2443 45.2539 57.8104 45.8516 58.6122 46.2342C59.0131 46.4254 59.414 46.5211 59.7914 46.5211C60.1687 46.5211 60.5225 46.4733 60.8055 46.4254C61.3243 46.3298 61.6781 46.2342 61.6781 46.2342Z" fill="#7C3835"/>
<path d="M67.2424 44.3227C67.2424 44.3227 67.2188 44.2988 67.148 44.251C67.0773 44.2031 67.0065 44.1314 66.8886 44.0597C66.6528 43.8923 66.3226 43.6293 65.8981 43.2946C65.6387 42.6491 65.3085 41.8361 64.9312 40.832V40.8559C64.2944 40.282 63.5633 39.6365 62.7615 38.9192H62.8087C62.4785 39.1105 62.1483 39.3018 61.771 39.517H61.7474C61.3701 39.517 60.9456 39.517 60.5211 39.517L60.5682 39.4691C60.5918 39.6843 60.5918 39.8995 60.7097 40.0669C60.8276 40.2342 60.9927 40.3777 61.1814 40.4733C61.5823 40.6407 62.054 40.6646 62.5021 40.6168H62.5492L62.5728 40.6407C62.6436 40.7841 62.7379 40.9754 62.8322 41.1428L62.8794 41.2623L62.7615 41.2384C62.1012 41.0711 61.3937 40.9037 60.6861 40.7363C60.0494 40.4494 59.3655 40.1625 58.6815 39.8995C58.3278 39.756 57.974 39.6126 57.6203 39.5648C57.2665 39.517 56.8656 39.5409 56.5354 39.7082C56.4175 39.756 56.3939 39.8995 56.3939 40.043C56.3939 40.1864 56.4411 40.3538 56.4883 40.4972L56.5119 40.6168L56.3939 40.5929C56.1581 40.5211 55.9223 40.4972 55.6864 40.4733C55.4506 40.4733 55.1912 40.4733 55.0261 40.6168C54.9318 40.6885 54.9318 40.7841 54.9553 40.9037C54.9789 41.0232 55.0497 41.1428 55.0968 41.2384C55.1676 41.358 55.1912 41.4775 55.2619 41.5492C55.3563 41.621 55.4506 41.7166 55.5685 41.7644C56.4411 42.3143 57.3609 42.7447 58.257 43.199C58.7051 43.4141 59.1532 43.6293 59.6013 43.8445C59.8136 43.9401 60.0494 44.0597 60.2616 44.1553L60.4267 44.2271C60.4739 44.251 60.5446 44.2988 60.5918 44.3705C60.639 44.4422 60.6154 44.5379 60.5918 44.5857C60.5682 44.6574 60.5211 44.7052 60.4739 44.7531L60.4503 44.777H60.4267C59.8843 44.777 59.3419 44.8009 58.823 44.8009H58.7995L58.7759 44.777C58.2806 44.3227 57.7618 43.8923 57.1958 43.5815C56.9128 43.4381 56.6062 43.2707 56.3468 43.3902C56.2053 43.4381 56.1109 43.5576 56.0874 43.7011C56.0402 43.8445 56.0638 43.988 56.0874 44.1314L56.0638 44.1075C56.5826 44.6096 57.1014 45.0878 57.5731 45.5421L57.5967 45.566V45.5899C57.6675 46.1159 57.7618 46.618 57.8325 47.1201L57.809 47.0962C58.3514 47.5026 58.8466 47.8852 59.3419 48.2438H59.3183C60.4503 48.1243 61.4172 48.0286 62.2427 47.9569C63.3275 48.1482 64.2001 48.2916 64.7897 48.3873C65.0727 48.4351 65.2849 48.4829 65.45 48.5068C65.5208 48.5307 65.5679 48.5307 65.6151 48.5307C65.6623 48.5307 65.6623 48.5546 65.6623 48.5546C65.6623 48.5546 65.6387 48.5546 65.6151 48.5546C65.5679 48.5546 65.5208 48.5307 65.45 48.5307C65.2849 48.5068 65.0727 48.4829 64.7897 48.4351C64.2001 48.3394 63.3511 48.196 62.2427 48.0286C61.4172 48.1243 60.4503 48.2199 59.3183 48.3394H59.2947H59.2711C58.7995 47.9808 58.2806 47.5982 57.7382 47.1918H57.7146V47.1679C57.6439 46.6658 57.5731 46.1637 57.4788 45.6377L57.5024 45.6616C57.0307 45.2073 56.5119 44.7292 55.993 44.2271V44.2031C55.9459 44.0358 55.9459 43.8684 55.993 43.7011C56.0166 43.6293 56.0638 43.5337 56.1109 43.462C56.1817 43.3902 56.2524 43.3424 56.3232 43.3185C56.4883 43.2468 56.6769 43.2707 56.8184 43.3185C56.9835 43.3663 57.125 43.4381 57.2665 43.5337C57.8325 43.8684 58.3514 44.2749 58.8702 44.7531L58.823 44.7291C59.3419 44.7291 59.8843 44.7052 60.4267 44.7052L60.3796 44.7291C60.4503 44.6574 60.5211 44.5379 60.4739 44.4662C60.4503 44.3944 60.3088 44.3705 60.1909 44.2988C59.9786 44.2032 59.7428 44.0836 59.5306 43.988C59.0825 43.7728 58.6344 43.5576 58.1863 43.3424C57.2901 42.9121 56.3704 42.4578 55.4742 41.9079C55.3563 41.8361 55.2619 41.7644 55.1676 41.6688C55.1204 41.621 55.0733 41.5492 55.0497 41.5014L54.9789 41.3341C54.9318 41.2145 54.861 41.095 54.8374 40.9754C54.8138 40.9037 54.8138 40.832 54.8138 40.7602C54.8138 40.6885 54.8846 40.6168 54.9318 40.569C55.1676 40.4016 55.4506 40.4016 55.6864 40.4016C55.9459 40.4255 56.1817 40.4733 56.4175 40.5211L56.3468 40.5929C56.2996 40.4255 56.2524 40.2581 56.2524 40.0908C56.2524 39.9951 56.2524 39.9234 56.2996 39.8278C56.3232 39.7321 56.3939 39.6604 56.4883 39.6365C56.8656 39.4452 57.2665 39.4213 57.6439 39.4691C58.0448 39.517 58.3985 39.6843 58.7287 39.8039C59.4362 40.0669 60.0966 40.3538 60.7569 40.6407C61.488 40.8081 62.1955 40.9993 62.8322 41.1428L62.7615 41.2145C62.6672 41.0471 62.5728 40.8559 62.5021 40.7124L62.5492 40.7363C62.0776 40.7841 61.6059 40.7602 61.1814 40.569C60.9691 40.4733 60.7805 40.3299 60.6626 40.1147C60.5211 39.9234 60.5211 39.6843 60.4975 39.4691V39.4213H60.5446C60.9691 39.4213 61.3937 39.4213 61.771 39.4213H61.7474C62.1012 39.2061 62.4549 39.0149 62.7851 38.8236L62.8087 38.7997L62.8322 38.8236C63.6341 39.5409 64.3416 40.2103 64.9784 40.7841C65.3557 41.7644 65.6859 42.6012 65.9217 43.2468C66.3462 43.5815 66.6764 43.8445 66.9122 44.0119C67.0301 44.1075 67.1009 44.1553 67.1716 44.2031C67.2188 44.2988 67.2424 44.3227 67.2424 44.3227Z" fill="#7C3835"/>
<path d="M60.2124 12.7129C60.2124 12.7129 59.3634 14.2909 58.538 14.9843C58.9861 15.5342 59.8587 15.4146 59.8587 15.4146L60.2124 12.7129Z" fill="#A02724"/>
</g>
<defs>
<clipPath id="clip0_3314_7341">
<rect width="106.58" height="79.4391" fill="white" transform="translate(0.459991)"/>
</clipPath>
</defs>
</svg>
