<svg width="108" height="80" viewBox="0 0 108 80" fill="none" xmlns="http://www.w3.org/2000/svg">
<g clip-path="url(#clip0_3314_6877)">
<path d="M28.9617 2.75983H56.7896C58.8394 2.75983 60.5014 4.46408 60.5014 6.56605V73.9495C60.5014 76.0515 58.8394 77.7557 56.7896 77.7557H28.9617C26.9119 77.7557 25.25 76.0515 25.25 73.9495V6.56605C25.25 4.46408 26.9119 2.75983 28.9617 2.75983Z" fill="#C9CBD1"/>
<path d="M30.0408 4.13416H55.902C57.8076 4.13416 59.3518 5.59304 59.3518 7.39263V65.0737C59.3518 66.8733 57.8076 68.3322 55.902 68.3322H30.0408C28.1352 68.3322 26.591 66.8733 26.591 65.0737V7.39263C26.591 5.59304 28.1352 4.13416 30.0408 4.13416Z" fill="white"/>
<path d="M42.8869 74.7657C44.1386 74.7657 45.1533 73.7259 45.1533 72.4432C45.1533 71.1605 44.1386 70.1207 42.8869 70.1207C41.6352 70.1207 40.6205 71.1605 40.6205 72.4432C40.6205 73.7259 41.6352 74.7657 42.8869 74.7657Z" fill="#E4E4E4"/>
<path d="M77.6623 71.2025L79.5532 75.8809L82.1396 79.1693C82.3101 79.3814 82.2794 79.6935 82.0725 79.8683C82.0553 79.882 82.038 79.8957 82.0189 79.9075C81.8771 79.9998 81.7009 80.0194 81.5438 79.9586C80.5341 79.5659 76.8289 78.1288 76.7101 77.7794C76.5722 77.3749 74.3843 72.9714 74.3843 72.9714L77.6623 71.2025Z" fill="#405B65"/>
<g opacity="0.6">
<path opacity="0.6" d="M82.0093 79.9076L76.5664 77.4673L76.6507 77.6636C76.7254 77.8344 76.8576 77.9738 77.0224 78.0563C77.4707 78.282 78.7179 78.8749 81.5188 79.9645C81.6836 80.0273 81.8656 80.0057 82.0093 79.9076Z" fill="white"/>
</g>
<g opacity="0.6">
<path opacity="0.6" d="M76.8845 75.5807C77.0377 75.6141 77.1431 75.7613 77.1259 75.9223C77.0914 76.0813 76.9419 76.1854 76.7848 76.1579C76.622 76.1206 76.5128 75.9635 76.532 75.7927C76.5894 75.6337 76.7561 75.5473 76.9151 75.5964" fill="white"/>
</g>
<path d="M80.0628 78.3193C80.1146 78.1269 80.2008 77.9483 80.3196 77.7912C80.4652 77.6538 80.6318 77.5438 80.8158 77.4692C80.8158 77.4574 80.7391 77.4457 80.6242 77.4692C80.4766 77.5105 80.3425 77.5949 80.241 77.7127C80.1375 77.8265 80.0705 77.9699 80.0494 78.125C80.0322 78.2486 80.0494 78.3213 80.0628 78.3193Z" fill="#263238"/>
<path d="M80.6644 78.8042C80.6951 78.8159 80.7813 78.6078 80.994 78.4351C81.1338 78.3467 81.2775 78.2643 81.4269 78.1916C81.243 78.1602 81.0572 78.2191 80.9231 78.3507C80.6817 78.5431 80.6357 78.8022 80.6644 78.8042Z" fill="#263238"/>
<path d="M79.0973 77.7696C79.2371 77.5556 79.3942 77.3554 79.5667 77.1669C79.764 77.004 79.9747 76.8547 80.1932 76.7232C79.9249 76.7566 79.674 76.8842 79.4881 77.0864C79.1586 77.4064 79.0743 77.7696 79.0973 77.7696Z" fill="#263238"/>
<path d="M78.4018 76.3952C78.4267 76.4188 78.6393 76.1989 78.9765 76.0556C79.3137 75.9123 79.6126 75.8789 79.6088 75.8455C79.3769 75.8024 79.1375 75.8416 78.9286 75.9555C78.5665 76.1243 78.3769 76.3952 78.4018 76.3952Z" fill="#263238"/>
<path d="M77.8117 75.0425C77.986 74.8913 78.1795 74.7677 78.3864 74.6734C78.6106 74.6106 78.8424 74.5753 79.0761 74.5733C79.0761 74.5615 79.0033 74.5242 78.8692 74.5066C78.6929 74.4869 78.5129 74.5085 78.3462 74.5694C78.1814 74.6302 78.0339 74.7284 77.9132 74.858C77.8308 74.9581 77.8002 75.0347 77.8117 75.0425Z" fill="#263238"/>
<path d="M78.2753 74.4183C78.2657 74.3535 78.2428 74.2926 78.2064 74.2396C78.1182 74.0884 78.0033 73.9549 77.8673 73.8469C77.7715 73.7566 77.6508 73.6997 77.5205 73.686C77.4362 73.686 77.3615 73.737 77.3289 73.8155C77.304 73.8941 77.3097 73.9804 77.3442 74.0551C77.5147 74.3692 77.8692 74.5243 78.2083 74.434C78.534 74.3436 78.7715 74.0551 78.8079 73.7115C78.8137 73.6251 78.783 73.5426 78.7236 73.4818C78.6547 73.4249 78.5589 73.417 78.4822 73.4641C78.3788 73.5348 78.2945 73.633 78.2408 73.7488C78.1585 73.9 78.101 74.0649 78.0761 74.2376C78.0608 74.3024 78.0608 74.3692 78.0761 74.434C78.1221 74.2101 78.2006 73.9942 78.3117 73.7939C78.3634 73.6958 78.4363 73.6114 78.5282 73.5505C78.5704 73.523 78.624 73.5269 78.6604 73.5603C78.6968 73.6015 78.7121 73.6585 78.7064 73.7135C78.6662 74.0099 78.4592 74.2533 78.1795 74.3338C77.8941 74.4124 77.5914 74.2848 77.4419 74.0236C77.417 73.9726 77.4094 73.9137 77.4228 73.8568C77.44 73.8097 77.4841 73.7802 77.532 73.7822C77.6412 73.7959 77.7427 73.8411 77.827 73.9137C78.0052 74.0531 78.1565 74.2239 78.2753 74.4183Z" fill="#263238"/>
<path d="M71.7423 72.8614L70.7249 76.4423C70.7249 76.4423 74.093 78.6628 73.9704 79.3401L66.8224 77.6517L68.175 72.0093L71.7423 72.8614Z" fill="#405B65"/>
<g opacity="0.6">
<path opacity="0.6" d="M68.5889 75.6102C68.4394 75.6161 68.3187 75.7378 68.3073 75.8909C68.313 76.044 68.4356 76.1657 68.585 76.1657C68.7441 76.1599 68.8724 76.0322 68.8839 75.8693C68.859 75.7103 68.7172 75.5984 68.5601 75.6141" fill="white"/>
</g>
<g opacity="0.6">
<path opacity="0.6" d="M66.8224 77.6537L66.9584 77.0844L73.7749 78.92C73.7749 78.92 74.0604 79.1301 73.9665 79.3421L66.8224 77.6537Z" fill="white"/>
</g>
<path d="M70.8496 76.4365C70.84 76.4699 70.658 76.4365 70.4664 76.513C70.2748 76.5896 70.1407 76.7094 70.112 76.6838C70.0832 76.6583 70.1829 76.4777 70.4262 76.3972C70.6695 76.3167 70.8649 76.407 70.8496 76.4365Z" fill="#263238"/>
<path d="M71.524 76.9177C71.524 76.953 71.3592 76.9746 71.204 77.0924C71.0488 77.2102 70.9779 77.3535 70.9434 77.3437C70.909 77.3339 70.9434 77.1356 71.135 76.9942C71.3266 76.8529 71.5316 76.8843 71.524 76.9177Z" fill="#263238"/>
<path d="M71.7347 77.8992C71.7002 77.8992 71.6944 77.7146 71.8305 77.5497C71.9665 77.3848 72.1466 77.3534 72.1542 77.3789C72.1619 77.4044 72.0374 77.4869 71.9282 77.6263C71.819 77.7657 71.7692 77.9031 71.7347 77.8992Z" fill="#263238"/>
<path d="M70.9895 75.5943C70.9665 75.6218 70.817 75.5374 70.6178 75.504C70.4186 75.4706 70.2481 75.504 70.2347 75.4608C70.2212 75.4176 70.4013 75.3411 70.637 75.3842C70.8726 75.4274 71.0125 75.5727 70.9895 75.5943Z" fill="#263238"/>
<g opacity="0.3">
<path opacity="0.3" d="M71.5392 73.5722L71.3591 74.2102L67.8531 73.3503L68.0294 72.6063L71.5392 73.5722Z" fill="black"/>
</g>
<path d="M71.181 74.8679C71.0564 74.8738 70.9319 74.8424 70.8227 74.7816C70.7001 74.7305 70.5832 74.6657 70.4759 74.5852C70.4127 74.5381 70.3533 74.4851 70.2958 74.4301C70.2614 74.3987 70.2326 74.3614 70.2096 74.3222C70.1732 74.2613 70.1866 74.1828 70.2384 74.1356C70.2863 74.0964 70.3495 74.0807 70.4089 74.0924C70.4549 74.1023 70.4989 74.1199 70.5392 74.1435C70.612 74.1788 70.679 74.222 70.7442 74.2711C70.8514 74.3536 70.9453 74.4498 71.022 74.5617C71.1503 74.758 71.1752 74.8915 71.1618 74.8954C71.1484 74.8994 71.089 74.7776 70.9511 74.6127C70.8706 74.5185 70.7767 74.4341 70.6752 74.3614C70.6158 74.3182 70.5507 74.2809 70.4836 74.2515C70.4108 74.2122 70.3476 74.1965 70.3208 74.226C70.2939 74.2554 70.3073 74.2417 70.3208 74.2672C70.338 74.2966 70.3591 74.3222 70.384 74.3457C70.4357 74.3987 70.4913 74.4498 70.5487 74.4969C70.6464 74.5774 70.7518 74.6481 70.8629 74.7089C70.9721 74.7541 71.0794 74.8071 71.181 74.8679Z" fill="#263238"/>
<path d="M71.1235 74.9072C71.0795 74.7913 71.0756 74.6637 71.112 74.5459C71.1369 74.4144 71.1868 74.2868 71.2557 74.1729C71.296 74.1022 71.3439 74.0374 71.3975 73.9766C71.4626 73.8922 71.5642 73.845 71.6695 73.8529C71.7328 73.8686 71.7826 73.9216 71.796 73.9864C71.8017 74.0316 71.8017 74.0787 71.796 74.1238C71.7883 74.2063 71.7692 74.2868 71.7366 74.3614C71.6849 74.489 71.6006 74.6009 71.4952 74.6873C71.4052 74.7776 71.2826 74.8306 71.1561 74.8306C71.1561 74.811 71.2864 74.7737 71.4358 74.6245C71.5201 74.5381 71.5852 74.434 71.6274 74.3202C71.6523 74.2573 71.6657 74.1906 71.6715 74.1238C71.6715 74.0473 71.6715 73.9805 71.6351 73.9805C71.5738 73.9864 71.5182 74.0178 71.4799 74.0669C71.3458 74.2082 71.2461 74.381 71.1906 74.5695C71.1369 74.7697 71.1427 74.9072 71.1235 74.9072Z" fill="#263238"/>
<path d="M74.6985 33.6378C74.6985 33.6378 76.9802 37.9039 76.9419 42.5293C76.9036 47.1547 72.3975 75.6905 72.3975 75.6905L66.9853 74.1768C66.8512 75.0956 69.0468 64.82 69.8725 59.8648C70.6848 54.9861 68.1731 37.1736 68.1731 37.1736L74.2846 33.6221" fill="#233239"/>
<path d="M62.0962 36.6456C62.0962 36.6456 61.3202 41.5851 62.6901 44.9678C64.0599 48.3504 74.9016 76.3247 74.9016 76.3247L79.8502 74.0866L69.3131 36.942L62.0962 36.6456Z" fill="#233239"/>
<path d="M76.6162 63.2651C76.5856 63.2651 75.2349 58.5102 73.6026 52.6244C71.9703 46.7386 70.6695 41.96 70.7001 41.9502C70.7308 41.9404 72.0814 46.7052 73.7156 52.591C75.3499 58.4768 76.6469 63.2553 76.6162 63.2651Z" fill="#263238"/>
<path d="M74.9015 76.3245C74.8708 76.3363 72.7021 70.8274 70.0583 64.0189C67.4144 57.2104 65.2936 51.6839 65.3242 51.6721C65.3549 51.6603 67.5217 57.1692 70.1675 63.9796C72.8132 70.7901 74.9302 76.3147 74.9015 76.3245Z" fill="#263238"/>
<path d="M72.6538 7.46585C72.625 7.33235 72.5522 7.21259 72.4469 7.12817C72.2016 6.93185 71.8817 6.91614 71.5771 6.90633C71.3951 6.53724 71.2744 6.1387 71.2207 5.72838C71.3663 5.73035 71.5081 5.68912 71.6307 5.60862C71.6537 5.6047 71.6767 5.59685 71.6978 5.58703C71.9909 5.4496 72.0196 4.99806 71.8357 4.73302C71.625 4.48172 71.3453 4.29718 71.0349 4.20491C71.2552 4.21865 71.443 4.36982 71.6556 4.43657C71.8683 4.50332 72.1614 4.43657 72.1863 4.20491C72.1882 4.13816 72.1767 4.07141 72.1537 4.00858C72.1135 3.87704 72.0714 3.74354 72.0311 3.61593C72.0101 3.50403 71.9488 3.40587 71.8587 3.33912C71.7859 3.31163 71.7112 3.29396 71.6346 3.28415C71.3874 3.21543 71.261 2.90917 71.0138 2.83849C70.8337 2.78548 70.6479 2.87775 70.464 2.92095C70.2801 2.96414 70.0387 2.92095 69.9812 2.74622C70.2303 2.61861 70.4448 2.4321 70.6096 2.2024C70.7763 1.95896 70.7514 1.63109 70.5502 1.4171C70.3663 1.29538 70.146 1.25023 69.9295 1.28556C69.6881 1.29734 69.3892 1.35428 69.326 1.59183C68.9907 1.50741 68.6497 1.71551 68.5673 2.06104C68.5654 2.07282 68.5616 2.0846 68.5596 2.09638L67.9389 2.0316C68.1133 1.83527 68.3585 1.72337 68.5137 1.5133C68.6688 1.30323 68.6363 0.924327 68.3872 0.867393C68.2953 0.867393 68.2033 0.857577 68.1113 0.841871C68.0481 0.816349 67.9964 0.759415 67.9293 0.757451C67.8795 0.761378 67.8335 0.779047 67.7952 0.810459L66.4848 1.68607C66.6036 1.40532 66.7204 1.12458 66.8392 0.841871C66.958 0.559164 67.0308 0.225413 66.8067 0.0565739C66.5825 -0.112265 66.2664 0.125288 66.2204 0.394252C65.9905 0.341244 65.7625 0.490451 65.7108 0.72604C65.705 0.749599 65.7031 0.773158 65.7012 0.796716C65.5211 0.72604 65.318 0.782974 65.1974 0.936107C65.0843 1.09709 65.0843 1.31109 65.1974 1.47207C64.977 1.47796 64.7605 1.54667 64.5747 1.6684C64.5479 1.45244 64.3544 1.30127 64.1456 1.33072C64.0804 1.33857 64.021 1.36409 63.9674 1.40336C63.9731 1.26789 63.9386 1.13439 63.8697 1.02053C63.7988 0.916474 63.657 0.888989 63.5555 0.963593C63.5478 0.969482 63.5402 0.975371 63.5325 0.981261C63.5842 0.737819 63.4329 0.498304 63.1972 0.44726C63.065 0.417811 62.9252 0.453149 62.8217 0.541495L62.6052 0.274494C62.3792 0.250935 62.1608 0.366766 62.0477 0.56898C61.9577 0.777084 62.109 1.0755 62.3313 1.05586C62.1761 1.05586 62.2106 1.30716 62.3006 1.43673L62.6838 1.97663C62.519 1.8176 62.27 1.79404 62.0822 1.92165C61.9328 1.76852 61.6895 1.76852 61.54 1.92165C61.4461 1.77834 61.2565 1.73907 61.1166 1.83527C61.0553 1.87846 61.0093 1.94129 60.9921 2.01589C60.9538 1.91184 60.8139 1.90399 60.7066 1.91773C60.5495 1.91576 60.3963 1.97074 60.2737 2.0689C60.1625 2.1808 60.1625 2.41443 60.3101 2.46155C60.1759 2.38498 60.0054 2.53615 60.0035 2.69125C60.0188 2.84831 60.0974 2.98966 60.2219 3.08389C60.3445 3.17617 60.4499 3.29003 60.5342 3.42157C60.4039 3.33715 60.2487 3.30378 60.0955 3.32734C59.8215 3.31359 59.5495 3.36856 59.3023 3.48832C59.2563 3.37838 59.1107 3.37445 58.992 3.39801C58.6337 3.47458 58.3042 3.65716 58.0455 3.92416C57.9248 4.04981 57.8176 4.23828 57.8999 4.39338C57.944 4.46013 58.0034 4.5151 58.0743 4.5524L58.9153 5.0864C58.4555 5.23365 58.0551 5.52617 57.7658 5.92078C57.5972 6.02091 57.3827 6.03268 57.2332 6.15637C57.0838 6.28005 57.0914 6.60988 57.2869 6.60988C57.1643 6.71197 57.1202 6.88473 57.1834 7.03394C57.2121 7.0948 57.2562 7.14584 57.3137 7.18118C57.3405 7.22045 57.3712 7.25775 57.4056 7.28916C57.4727 7.34413 57.5493 7.38536 57.6317 7.41088C57.7218 7.5326 57.8654 7.59739 58.0149 7.58757C57.8539 7.72304 57.7198 7.88795 57.6145 8.07249C57.4746 8.31397 57.4746 8.61631 57.6145 8.85779C57.6241 8.86957 57.6336 8.88135 57.6451 8.89117C57.6643 8.99129 57.7218 9.07767 57.8061 9.13068C57.7716 9.19547 57.762 9.27007 57.7754 9.34075C57.3501 9.50173 57.1317 9.98666 57.2888 10.4225C57.3463 10.5815 57.4478 10.7189 57.5838 10.8171C57.7754 10.9565 58.1356 10.931 58.1586 10.6875C58.2505 10.8839 58.4325 11.0213 58.6433 11.0507C58.49 11.3649 58.6145 11.7477 58.923 11.9028C58.9383 11.9106 58.9517 11.9165 58.9671 11.9244C58.7065 12.1855 58.7046 12.6135 58.9594 12.8785C59.0207 12.9433 59.0954 12.9943 59.1759 13.0297C59.0839 13.3006 59.2238 13.5971 59.4882 13.6913C59.7525 13.7855 60.0418 13.6422 60.1338 13.3713C60.2143 13.5676 60.3465 13.7345 60.517 13.8562C60.6913 13.9681 60.9212 13.9131 61.0285 13.7345C61.0323 13.7286 61.0362 13.7207 61.04 13.7149C61.1798 14.082 61.5841 14.2606 61.9423 14.1173C61.9845 14.0996 62.0247 14.08 62.0611 14.0545C62.0458 14.3078 62.2355 14.5257 62.4826 14.5394C62.7202 14.5532 62.9271 14.3765 62.9539 14.135L64.113 14.1232C64.3697 14.1291 64.6264 14.1095 64.8793 14.0663C65.2012 14.0015 65.5039 13.8582 65.7625 13.6481C65.8392 13.5735 65.9311 13.5146 66.0307 13.4812C66.1514 13.4694 66.274 13.4891 66.3852 13.5382C67.0116 13.7207 67.686 13.5578 68.1669 13.1062C68.234 13.0277 68.3144 12.961 68.4025 12.9099C68.5117 12.8687 68.6286 12.853 68.7436 12.8608C69.029 12.8569 69.3126 12.8137 69.5865 12.7372C69.8279 12.6959 70.0425 12.5526 70.1804 12.3445C70.2916 12.1227 70.1613 11.7771 69.918 11.7811C69.8911 11.6181 69.939 11.4512 70.0463 11.3295C70.1632 11.2098 70.349 11.2039 70.4755 11.3118C70.5598 11.408 70.5502 11.5553 70.4563 11.6417C70.4314 11.6652 70.4027 11.6809 70.3701 11.6908C70.6326 11.8871 71.0406 11.6161 71.0464 11.2981C71.0196 10.9644 70.7456 10.7072 70.418 10.7091C70.4812 10.4755 70.4889 10.2281 70.4372 9.99058C70.6134 10.2026 70.9199 10.238 71.1384 10.0711C71.2648 10.287 71.4717 10.4402 71.7131 10.4951C71.9602 10.5423 72.2055 10.4048 72.3013 10.1673C72.3626 9.95917 72.2476 9.74125 72.0465 9.67843C72.012 9.66665 71.9756 9.66272 71.9373 9.66076C72.0503 9.4291 71.9583 9.14639 71.7323 9.03056C71.669 8.99914 71.6001 8.98147 71.5311 8.98147C71.579 8.64772 71.3989 8.32575 71.0962 8.19618C71.284 8.29434 71.5158 8.21777 71.6116 8.02538C71.6173 8.0136 71.6231 7.99985 71.6288 7.98611C71.7763 8.22366 72.1365 8.16477 72.3741 8.02341C72.5293 7.91151 72.7074 7.75248 72.6538 7.46585Z" fill="#23263B"/>
<path d="M72.7328 7.50995C72.7405 7.54136 72.7443 7.57473 72.7463 7.60811C72.7482 7.70627 72.7175 7.80247 72.6581 7.881C72.5547 8.00468 72.4225 8.09696 72.275 8.15193C72.1792 8.18923 72.0776 8.2069 71.9742 8.20494C71.8535 8.20297 71.7404 8.14211 71.6696 8.04002H71.6945C71.6312 8.24616 71.4148 8.36003 71.2136 8.29524C71.1868 8.28739 71.1619 8.27561 71.1389 8.26187L71.1542 8.23046C71.4588 8.35807 71.6427 8.68004 71.6025 9.01576L71.5814 8.9922C71.7424 8.98434 71.8956 9.06876 71.9799 9.21012C72.0815 9.3554 72.093 9.54583 72.0087 9.70289L71.9876 9.66755C72.1677 9.66166 72.3286 9.78731 72.3708 9.96793C72.4244 10.1584 72.3458 10.3606 72.1792 10.4607C72.0125 10.5687 71.8056 10.5883 71.6217 10.5137C71.4339 10.4332 71.2768 10.2958 71.1676 10.1211H71.2078C70.9779 10.2978 70.6522 10.2605 70.4664 10.0366L70.5162 10.0111C70.5699 10.2546 70.5641 10.5059 70.499 10.7454L70.4702 10.7061C70.6293 10.71 70.7806 10.767 70.9032 10.871C71.0335 10.9751 71.1159 11.1282 71.1293 11.297C71.135 11.4757 71.0488 11.6426 70.9013 11.7388C70.7557 11.8507 70.5584 11.8625 70.4032 11.7663L70.3304 11.7133L70.4185 11.7034C70.5105 11.672 70.566 11.5758 70.5469 11.4796C70.5296 11.3736 70.4319 11.301 70.3285 11.3167C70.2174 11.3186 70.1177 11.3815 70.0641 11.4816C70.0085 11.5856 69.9875 11.7054 70.0047 11.8232L69.9683 11.7918C70.0583 11.7918 70.1426 11.831 70.2001 11.9017C70.2557 11.9685 70.2921 12.0509 70.3036 12.1373C70.317 12.2237 70.3055 12.314 70.271 12.3945C70.2327 12.4711 70.181 12.5378 70.1158 12.5908C69.9836 12.6968 69.8323 12.7714 69.6694 12.8127C69.5085 12.8598 69.3457 12.8951 69.1809 12.9167C68.8533 12.9874 68.4759 12.85 68.2613 13.1621C67.8628 13.543 67.3264 13.7334 66.7823 13.6883C66.6022 13.6667 66.4221 13.6254 66.2497 13.5685C66.1692 13.545 66.0849 13.5548 66.0121 13.596C65.9355 13.6451 65.8646 13.7001 65.7956 13.759C65.6443 13.8748 65.4776 13.971 65.3013 14.0417C64.9373 14.1732 64.5541 14.2301 64.1691 14.2105L63.0062 14.2223L63.0502 14.183C63.0234 14.4598 62.782 14.664 62.5119 14.6365C62.2456 14.609 62.0482 14.3695 62.0693 14.0947L62.1402 14.1339C61.7953 14.3597 61.3375 14.2576 61.1152 13.9042C61.0884 13.863 61.0673 13.8178 61.0501 13.7727H61.1363C61.0941 13.8826 61.0022 13.9612 60.8892 13.9847C60.778 14.0102 60.6631 13.9965 60.5615 13.9455C60.3776 13.8218 60.2339 13.6431 60.1516 13.435H60.2359C60.1362 13.7295 59.8201 13.8866 59.5327 13.7845C59.2454 13.6824 59.0921 13.3584 59.1917 13.064L59.2224 13.1268C59.004 13.0443 58.843 12.848 58.8009 12.6124C58.7396 12.369 58.8124 12.1098 58.9925 11.9371L59.0078 12.0215C58.6649 11.8821 58.4963 11.4836 58.6342 11.1321C58.6419 11.1145 58.6495 11.0948 58.6572 11.0772L58.6936 11.1498C58.4656 11.1164 58.2702 10.9692 58.1706 10.7572L58.2625 10.7395C58.2587 10.8023 58.2319 10.8612 58.1878 10.9044C58.1438 10.9437 58.092 10.9731 58.0346 10.9849C57.9273 11.0104 57.8142 11.0006 57.7127 10.9574C57.5154 10.8573 57.3659 10.6786 57.297 10.4646C57.2203 10.2467 57.2337 10.0092 57.3314 9.80105C57.4272 9.59099 57.5997 9.42607 57.8104 9.34165L57.7798 9.39859C57.7644 9.31613 57.7759 9.23171 57.8142 9.15711L57.8334 9.2219C57.7357 9.163 57.6667 9.06484 57.6418 8.95097L57.6533 8.97256C57.4905 8.75857 57.4541 8.47194 57.5594 8.22261C57.661 7.9772 57.8219 7.75928 58.025 7.5924L58.0633 7.68075C57.9005 7.69057 57.7434 7.61793 57.6437 7.48443L57.6686 7.5021C57.5288 7.46479 57.4062 7.37645 57.3238 7.25473L57.3372 7.26847C57.2299 7.20368 57.1609 7.08589 57.1552 6.95828C57.1494 6.82478 57.205 6.69716 57.3065 6.61275L57.3372 6.70502C57.274 6.70502 57.2165 6.67557 57.1801 6.62256C57.1475 6.57544 57.1303 6.51851 57.1303 6.46158C57.1226 6.34574 57.1686 6.2358 57.2529 6.15924C57.4253 6.02377 57.6361 6.01592 57.7912 5.92168L57.7759 5.93543C58.0729 5.53296 58.4867 5.23651 58.958 5.08927L58.9465 5.18154L58.5748 4.93221L58.2817 4.74766C58.1802 4.68877 58.0825 4.62398 57.9886 4.55134C57.9388 4.50226 57.9043 4.43944 57.8947 4.36876C57.889 4.30201 57.8985 4.23329 57.9254 4.17243C57.9771 4.06053 58.0518 3.9604 58.1438 3.87991C58.3162 3.71696 58.5154 3.58739 58.7319 3.49904C58.8392 3.45585 58.9522 3.42051 59.0653 3.39695C59.1285 3.38517 59.1936 3.38517 59.2569 3.39695C59.3297 3.40677 59.3929 3.45389 59.4255 3.5226L59.3546 3.49904C59.5519 3.39499 59.7703 3.33806 59.9925 3.33806C60.0998 3.33806 60.2033 3.32628 60.3144 3.32824C60.4313 3.32824 60.5462 3.36554 60.642 3.43622L60.5673 3.49904C60.4734 3.30272 60.2435 3.20652 60.1075 2.99252C60.0289 2.88258 60.0136 2.73927 60.0634 2.61362C60.0941 2.55276 60.1439 2.50171 60.2033 2.4703C60.2684 2.433 60.3451 2.433 60.4102 2.4703L60.37 2.56061C60.3067 2.53705 60.2569 2.48208 60.2378 2.41533C60.2014 2.29165 60.2359 2.15815 60.3259 2.06784C60.37 2.02857 60.4198 1.99716 60.4753 1.97557C60.5769 1.93826 60.6842 1.91667 60.7934 1.90881C60.8508 1.90096 60.9083 1.90096 60.9639 1.90881C61.0309 1.92256 61.0884 1.96968 61.1152 2.03446L61.0213 2.04624C61.0654 1.85188 61.2551 1.73212 61.4447 1.77728C61.5329 1.79887 61.6114 1.85581 61.6612 1.93434L61.5789 1.92452C61.7398 1.74979 62.0061 1.74194 62.1766 1.90489C62.1823 1.91078 62.19 1.91667 62.1958 1.92452H62.1306C62.3375 1.78709 62.6115 1.81262 62.7897 1.98734L62.7169 2.05213L62.395 1.59273C62.3318 1.51617 62.2858 1.42586 62.2609 1.32966C62.2475 1.27665 62.2475 1.21972 62.2609 1.16671C62.2686 1.13333 62.2877 1.10389 62.3126 1.08229C62.3394 1.06069 62.372 1.05088 62.4065 1.05284V1.151C62.2743 1.15689 62.1517 1.07836 62.0961 0.954679C62.0348 0.840811 62.0291 0.703384 62.0808 0.585589C62.2034 0.371596 62.4371 0.249875 62.6785 0.271471H62.6996L62.713 0.289139L62.9295 0.55614H62.8625C63.0694 0.379448 63.3759 0.406934 63.5483 0.618964C63.6441 0.736759 63.6824 0.893818 63.6499 1.04499L63.5675 1.00376C63.623 0.93701 63.7093 0.909524 63.7916 0.929157C63.8683 0.942899 63.9372 0.986091 63.9832 1.04891C64.0541 1.17064 64.0905 1.31199 64.0848 1.45334L64.0062 1.42193C64.1863 1.27076 64.4526 1.30021 64.5982 1.48475C64.6519 1.5515 64.6844 1.63592 64.6921 1.72231L64.6212 1.68108C64.8166 1.55739 65.0389 1.48868 65.2688 1.48475L65.2323 1.55936C65.0753 1.3434 65.1174 1.03714 65.3281 0.874186C65.4622 0.772097 65.6385 0.748538 65.7937 0.813325L65.7324 0.856517C65.7439 0.591479 65.9623 0.387302 66.219 0.399081C66.2477 0.401044 66.2784 0.404971 66.3071 0.410861L66.2516 0.446199C66.2746 0.326441 66.3378 0.220426 66.4278 0.141896C66.516 0.0594397 66.6328 0.0162489 66.7516 0.0221387C66.8704 0.0358814 66.9719 0.110484 67.0237 0.220426C67.0639 0.328404 67.0735 0.448162 67.0505 0.56203C67.0026 0.772097 66.9298 0.976275 66.8359 1.16867C66.7535 1.365 66.6731 1.56132 66.5926 1.7439L66.5313 1.6909L67.3398 1.14904L67.7363 0.885965C67.8034 0.834921 67.8743 0.793693 67.9509 0.760318C67.9988 0.748538 68.0505 0.756391 68.0927 0.783876C68.1291 0.803509 68.1597 0.827068 68.1885 0.840811C68.2594 0.860443 68.3303 0.866333 68.4031 0.85848C68.4912 0.860443 68.5755 0.901672 68.631 0.972348C68.7249 1.11567 68.7422 1.29825 68.6789 1.45727C68.6119 1.60255 68.5065 1.72623 68.3782 1.81654C68.2594 1.90096 68.1463 1.9952 68.0429 2.09925L68.018 2.0325L68.6387 2.09729L68.5966 2.13066C68.6655 1.75961 69.0142 1.51617 69.3744 1.58488C69.3878 1.58684 69.4012 1.59077 69.4146 1.5947L69.3686 1.62218C69.4165 1.47494 69.5372 1.365 69.6867 1.33359C69.8169 1.29825 69.9511 1.28058 70.0871 1.28058C70.2193 1.27272 70.3534 1.28647 70.4817 1.32573C70.612 1.36892 70.7193 1.46709 70.7768 1.5947C70.8726 1.84992 70.8228 2.13655 70.6484 2.34269C70.4837 2.52724 70.2902 2.68037 70.0737 2.7962L70.089 2.75694C70.1254 2.84921 70.2097 2.91203 70.3055 2.91989C70.4032 2.93559 70.5047 2.92577 70.5986 2.89436C70.6963 2.86099 70.7979 2.83547 70.8994 2.8178C71.0048 2.80013 71.114 2.82172 71.2059 2.87866C71.386 2.99056 71.4914 3.17314 71.6542 3.25167C71.7309 3.29683 71.8267 3.28308 71.9244 3.32235C72.0182 3.3675 72.0872 3.45192 72.1159 3.55401L72.2788 4.0782C72.3133 4.17047 72.3056 4.27256 72.2577 4.35698C72.2041 4.43551 72.1236 4.48852 72.0336 4.50619C71.9493 4.52582 71.8611 4.52582 71.7768 4.50619C71.6964 4.48459 71.6197 4.45514 71.545 4.41784C71.4128 4.33931 71.2672 4.2863 71.1159 4.26274L71.1274 4.21562C71.3036 4.28041 71.4741 4.36483 71.6351 4.46496C71.7883 4.55919 71.911 4.69466 71.9933 4.85761C72.0604 5.01074 72.0719 5.1835 72.0278 5.34645C71.9876 5.50155 71.8707 5.62131 71.7194 5.66254C71.5948 5.74695 71.4473 5.78818 71.2979 5.78426L71.317 5.76462C71.3707 6.17494 71.4895 6.57152 71.6676 6.94257H71.6561C71.8496 6.94061 72.0431 6.96417 72.2309 7.01521C72.3631 7.05251 72.4838 7.12515 72.5815 7.22528C72.6371 7.28417 72.6811 7.35681 72.706 7.43534C72.7156 7.46087 72.7214 7.48639 72.7252 7.51387C72.6984 7.40982 72.6466 7.31362 72.5738 7.23509C72.4742 7.14086 72.3554 7.07411 72.2251 7.03877C72.0374 6.99165 71.8439 6.97006 71.6504 6.97398C71.4665 6.60489 71.3439 6.20635 71.2883 5.79604V5.7764H71.3094C71.4512 5.77837 71.591 5.73714 71.7098 5.65861C71.8477 5.62327 71.9569 5.51137 71.9895 5.36805C72.0316 5.21492 72.0202 5.05197 71.955 4.90865C71.8765 4.75552 71.7577 4.62791 71.6121 4.53956C71.4531 4.44336 71.2864 4.36091 71.112 4.29612L70.9684 4.23918L71.1216 4.249C71.2787 4.27256 71.432 4.32557 71.5699 4.4041C71.6389 4.4414 71.7136 4.46888 71.7903 4.48852C71.8669 4.50619 71.9474 4.50619 72.024 4.48852C72.1006 4.47281 72.1696 4.42766 72.2156 4.36287C72.2539 4.29023 72.2596 4.20581 72.229 4.12924L72.0661 3.61095C72.0431 3.52653 71.9876 3.45585 71.9129 3.41462C71.8209 3.39695 71.7289 3.37143 71.6408 3.34198C71.4492 3.24971 71.3496 3.06517 71.1868 2.96897C71.0239 2.87277 70.8208 2.93363 70.6273 2.99252C70.5239 3.02786 70.4128 3.03768 70.3055 3.02001C70.1886 3.01019 70.0852 2.93559 70.0373 2.82369V2.79816L70.0603 2.78442C70.2672 2.67055 70.453 2.52331 70.6101 2.34465C70.7672 2.15815 70.8132 1.899 70.7289 1.6693C70.6848 1.53973 70.5814 1.43764 70.453 1.39837C70.3323 1.36303 70.2078 1.34929 70.0832 1.35911C69.9549 1.35911 69.8246 1.37481 69.7001 1.40819C69.5794 1.43371 69.4778 1.52009 69.4357 1.63985L69.4242 1.67715L69.3878 1.66734C69.0736 1.58684 68.7537 1.78317 68.6751 2.10514C68.6732 2.11692 68.6694 2.12673 68.6674 2.13851V2.17582H68.631L68.0103 2.11103H67.9318L67.9854 2.05213C68.0927 1.94612 68.2076 1.84795 68.3283 1.75961C68.4471 1.67912 68.5429 1.56721 68.6042 1.43567C68.6579 1.30414 68.6445 1.15297 68.5678 1.03321C68.5276 0.980201 68.4644 0.950753 68.3992 0.950753C68.3168 0.956642 68.2345 0.948789 68.1559 0.92523C68.0755 0.884002 68.0237 0.830994 67.9643 0.850627C67.8973 0.880075 67.8321 0.919341 67.7727 0.964495L67.3877 1.21579L66.5792 1.75765L66.4604 1.83617L66.5179 1.70464L66.7574 1.12744C66.8493 0.938973 66.9183 0.742648 66.9662 0.538471C66.9873 0.442272 66.9796 0.340184 66.9451 0.247911C66.9106 0.161528 66.8321 0.100668 66.7401 0.0908519C66.5409 0.0947784 66.3723 0.240058 66.3359 0.440309L66.3263 0.491354L66.2784 0.477611C66.0715 0.43442 65.8684 0.569883 65.8263 0.781913C65.8224 0.799583 65.8205 0.817252 65.8186 0.834921V0.903634L65.7554 0.878112C65.5619 0.789766 65.3358 0.880075 65.2496 1.07836C65.1921 1.21186 65.2113 1.36892 65.3013 1.48279L65.355 1.55543H65.2668C65.0542 1.55936 64.8454 1.62415 64.6653 1.73998L64.5925 1.78709V1.69875C64.5714 1.51224 64.4066 1.37874 64.2246 1.40034C64.1652 1.40819 64.1097 1.42978 64.0637 1.46708L63.989 1.54365V1.43567C63.9947 1.31199 63.966 1.19027 63.9066 1.08425C63.8472 0.99787 63.6958 0.964495 63.6384 1.04302L63.51 1.22168L63.556 1.00572C63.6154 0.797619 63.4985 0.579699 63.2954 0.518839C63.1633 0.479574 63.0196 0.514912 62.9219 0.613074L62.8855 0.644486L62.8548 0.607185C62.782 0.518839 62.7111 0.430493 62.6383 0.33822L62.6728 0.355889C62.4678 0.334294 62.2705 0.434419 62.1613 0.613074C62.077 0.77995 62.2072 1.0548 62.3912 1.03713V1.1353C62.3605 1.1353 62.349 1.1353 62.3394 1.17849C62.3318 1.21579 62.3318 1.25505 62.3394 1.29236C62.3605 1.37678 62.4007 1.45531 62.4582 1.52009L62.7897 1.98734L62.7169 2.0541C62.5713 1.91078 62.3471 1.89115 62.1785 2.00305L62.1421 2.03054L62.1115 1.9952C61.9888 1.85973 61.78 1.85188 61.6478 1.97949C61.6459 1.98145 61.6421 1.98538 61.6402 1.98734L61.5903 2.04821L61.5597 1.97753C61.4773 1.85973 61.3164 1.83225 61.2014 1.91863C61.1555 1.95201 61.1229 2.00109 61.1056 2.05606L61.0827 2.30735L61.0098 2.06784C60.9907 2.00305 60.8815 1.98931 60.7876 2.00109C60.688 2.00698 60.5903 2.02661 60.4964 2.05998C60.4102 2.08551 60.3412 2.15618 60.3163 2.24453C60.2933 2.33091 60.3163 2.44085 60.391 2.45656L60.3489 2.54883C60.2818 2.50564 60.1784 2.56454 60.1381 2.65092C60.1017 2.74319 60.1171 2.84921 60.1784 2.92774C60.2876 3.11228 60.5194 3.21044 60.642 3.44211L60.7589 3.66199L60.5673 3.50493C60.4236 3.38517 60.1841 3.42444 59.9925 3.42836C59.7856 3.43033 59.5826 3.48137 59.3986 3.57757L59.3488 3.60702L59.3277 3.55401C59.3009 3.48137 59.1802 3.46959 59.0825 3.48923C58.9752 3.51082 58.8699 3.5442 58.7683 3.58542C58.5633 3.66984 58.3737 3.79156 58.2127 3.94666C58.1323 4.01734 58.0652 4.10568 58.0212 4.20385C57.9752 4.29219 57.9905 4.40017 58.0614 4.46888C58.1495 4.53956 58.2434 4.60631 58.3392 4.66521L58.6304 4.84975L59.0136 5.09516L59.1074 5.15406L59.0021 5.18743C58.5538 5.33271 58.1591 5.61738 57.8775 6.00414C57.6859 6.11015 57.4943 6.12193 57.3506 6.23384C57.2912 6.28881 57.2586 6.3693 57.2644 6.45176C57.2644 6.53422 57.3085 6.60097 57.3736 6.59704H57.5307L57.4043 6.69716C57.3276 6.75999 57.2855 6.85815 57.2912 6.95828C57.295 7.05251 57.3468 7.1389 57.4272 7.18601H57.4368C57.5058 7.2881 57.6092 7.3627 57.728 7.39412H57.7434L57.7529 7.40786C57.8296 7.51387 57.956 7.57277 58.0844 7.56492L58.2338 7.55118L58.1227 7.65326C57.9311 7.81032 57.7798 8.01254 57.682 8.24224C57.5901 8.45623 57.6188 8.7036 57.7568 8.89011V8.90385C57.774 8.98827 57.8238 9.06287 57.8947 9.10999L57.9349 9.13355L57.9139 9.17674C57.8851 9.23171 57.8755 9.29257 57.887 9.35343L57.8966 9.39466L57.8564 9.41037C57.6686 9.48693 57.5173 9.63221 57.4311 9.81872C57.3449 10.0033 57.3334 10.2153 57.4004 10.4077C57.4598 10.5962 57.5901 10.7513 57.7606 10.8416C57.843 10.8769 57.9349 10.8848 58.0231 10.8651C58.1035 10.8553 58.1668 10.7925 58.1763 10.71L58.1878 10.5137L58.2683 10.6904C58.3545 10.871 58.5231 10.9947 58.7166 11.0242H58.7875L58.753 11.087C58.6131 11.3795 58.7319 11.7329 59.0174 11.8742C59.0289 11.8801 59.0385 11.8841 59.05 11.8899L59.1342 11.9174L59.0653 11.9744C58.9063 12.1236 58.843 12.3513 58.9005 12.5633C58.935 12.7656 59.0691 12.9324 59.2569 13.0051L59.3028 13.0208L59.2875 13.0679C59.2051 13.3133 59.3316 13.5803 59.5691 13.6647C59.8086 13.7491 60.0692 13.6196 60.1535 13.3761L60.188 13.2701L60.2378 13.3683C60.3125 13.5607 60.4428 13.7256 60.6094 13.8414C60.7646 13.9337 60.9639 13.8807 61.0558 13.7216V13.7197L61.0999 13.5862L61.142 13.7216C61.211 13.914 61.3681 14.0613 61.5616 14.1143C61.7398 14.1752 61.9371 14.1477 62.0923 14.0397L62.167 13.9847V14.077C62.1555 14.3047 62.326 14.5011 62.5483 14.5128C62.759 14.5246 62.9448 14.3676 62.9717 14.1516V14.1123H63.01L64.1729 14.1025C64.5465 14.1241 64.9201 14.0691 65.2745 13.9435C65.4431 13.8748 65.604 13.7845 65.7496 13.6726C65.8224 13.6097 65.8971 13.5528 65.9776 13.5018C66.0677 13.4527 66.173 13.4389 66.2707 13.4664C66.4412 13.5234 66.6156 13.5626 66.7938 13.5862C67.3129 13.6294 67.8283 13.4468 68.2115 13.0856C68.2709 13.0188 68.3398 12.9599 68.4165 12.9128C68.4988 12.8716 68.587 12.85 68.6789 12.85C68.8456 12.85 69.0104 12.8402 69.1751 12.8205C69.3361 12.7989 69.4951 12.7655 69.6522 12.7204C69.8035 12.6851 69.9472 12.6183 70.0718 12.5241C70.1905 12.4338 70.2538 12.2826 70.2365 12.1314C70.2288 11.9842 70.1177 11.8644 69.974 11.8487H69.9415V11.8173C69.9223 11.6818 69.9472 11.5444 70.0104 11.4247C70.0775 11.3049 70.2001 11.2303 70.3342 11.2283C70.4722 11.2165 70.5967 11.3127 70.6216 11.4521C70.6484 11.5896 70.5641 11.725 70.43 11.7545L70.4434 11.6917C70.5775 11.7721 70.7442 11.7604 70.8668 11.6661C70.9971 11.5817 71.0737 11.4325 71.068 11.2735C71.0277 10.9692 70.7729 10.7414 70.4722 10.7414H70.4319L70.4434 10.7022C70.4971 10.4843 70.5009 10.2565 70.453 10.0366L70.4243 9.90903L70.5047 10.0111C70.6714 10.2114 70.9588 10.2447 71.1657 10.0896L71.1887 10.07L71.2059 10.0955C71.3055 10.2624 71.455 10.3959 71.6312 10.4725C71.7998 10.5432 71.9914 10.5255 72.1447 10.4273C72.2922 10.339 72.365 10.1603 72.3229 9.99149C72.2845 9.83246 72.1447 9.72056 71.9838 9.72449H71.9397L71.9627 9.68522C72.07 9.46337 71.9799 9.19245 71.7634 9.08251C71.706 9.05306 71.6447 9.03735 71.5795 9.03735H71.5527V9.00986C71.5948 8.68986 71.4224 8.37966 71.1312 8.25402L71.1465 8.22457C71.3228 8.32273 71.5412 8.25598 71.637 8.07536C71.6446 8.05966 71.6523 8.04395 71.6581 8.02824V7.99487L71.6753 8.02432C71.7404 8.12052 71.8458 8.17745 71.9588 8.17941C72.0585 8.18334 72.1581 8.16567 72.252 8.1323C72.3995 8.07929 72.5317 7.99094 72.6351 7.87118C72.6945 7.79658 72.7271 7.70431 72.7271 7.60811C72.7386 7.54332 72.729 7.50995 72.7328 7.50995Z" fill="#455A64"/>
<path d="M62.0379 8.44377C61.9268 6.35488 63.4901 4.57029 65.5286 4.45838C65.5726 4.45642 65.6186 4.45446 65.6627 4.45249C67.6628 4.41716 69.3468 5.97401 69.5173 8.01578C69.6706 9.7827 69.7836 11.5496 69.7357 12.1975C69.5882 14.1254 68.4196 14.8027 67.9502 14.999C67.7835 15.0481 67.6111 15.0795 67.4367 15.0913C67.4367 15.0913 67.4253 15.0913 67.4253 15.1051L67.7126 17.351C67.8142 18.8156 66.9271 20.0564 65.473 20.1722C64.0189 20.288 62.9537 19.0983 62.8253 17.6317L62.0379 8.44377Z" fill="#A76C58"/>
<path d="M68.9319 9.57432C68.9453 9.74119 68.8265 9.8904 68.6636 9.90807C68.5027 9.93359 68.3514 9.82169 68.3264 9.65677C68.3111 9.4899 68.4318 9.34069 68.5947 9.32302C68.7556 9.2975 68.9069 9.4094 68.9319 9.57432Z" fill="#263238"/>
<path d="M69.1215 8.5554C69.087 8.59859 68.8418 8.44546 68.5142 8.47098C68.1866 8.4965 67.9605 8.68301 67.9222 8.64571C67.8839 8.60841 67.9356 8.55344 68.0333 8.46902C68.1674 8.35515 68.3322 8.28644 68.5046 8.2727C68.6751 8.25895 68.8456 8.29822 68.9912 8.38853C69.0985 8.46706 69.1387 8.53577 69.1215 8.5554Z" fill="#263238"/>
<path d="M65.8186 9.75698C65.8339 9.92385 65.7133 10.0731 65.5504 10.0907C65.3914 10.1182 65.242 10.0063 65.2151 9.84532C65.2151 9.84336 65.2151 9.8414 65.2151 9.83943C65.2017 9.67256 65.3205 9.52335 65.4834 9.50568C65.6424 9.4782 65.7918 9.5901 65.8186 9.75109C65.8186 9.75305 65.8186 9.75501 65.8186 9.75698Z" fill="#263238"/>
<path d="M65.9047 8.87346C65.8703 8.91665 65.625 8.76352 65.2974 8.791C64.9698 8.81849 64.7438 9.00107 64.7054 8.96377C64.6671 8.92647 64.7189 8.87149 64.8166 8.78707C64.9507 8.67321 65.1154 8.60449 65.2879 8.59075C65.4584 8.57701 65.6289 8.61627 65.7745 8.70658C65.8818 8.78511 65.922 8.85972 65.9047 8.87346Z" fill="#263238"/>
<path d="M67.2919 11.2256C67.4605 11.1588 67.6367 11.1117 67.8168 11.0862C67.9011 11.0705 67.9777 11.0489 67.9873 10.99C67.9873 10.9016 67.9605 10.8152 67.9107 10.7446C67.8168 10.5482 67.7191 10.3401 67.6118 10.1222C67.1942 9.23679 66.8838 8.50646 66.9202 8.48879C66.9566 8.47112 67.3225 9.17789 67.7402 10.0594L68.0295 10.6857C68.0908 10.7819 68.1157 10.8997 68.1003 11.0135C68.0793 11.0763 68.0333 11.1254 67.972 11.147C67.9279 11.1647 67.88 11.1745 67.8321 11.1784C67.6559 11.2177 67.4739 11.2334 67.2919 11.2256Z" fill="#263238"/>
<path d="M67.5026 15.1422C67.5026 15.1422 66.2458 15.3385 64.5867 14.5159C64.6864 14.567 65.1615 16.4615 67.5812 15.7469L67.5026 15.1422Z" fill="#7F4B3A"/>
<path d="M67.2191 12.0324C67.0773 11.8812 66.8723 11.8144 66.6712 11.8537C66.5275 11.8773 66.3972 11.9597 66.3148 12.0834C66.2343 12.2012 66.2343 12.3583 66.3148 12.476C66.4336 12.588 66.606 12.6174 66.7535 12.5507C66.903 12.4839 67.039 12.3877 67.152 12.266C67.1865 12.2365 67.2153 12.2012 67.2382 12.16C67.2593 12.1207 67.2555 12.0716 67.2268 12.0382" fill="#7E4A2F"/>
<path d="M66.3473 11.5317C66.399 11.5317 66.4297 11.8811 66.7554 12.1108C67.081 12.3405 67.4546 12.2718 67.4623 12.3209C67.47 12.37 67.3837 12.3975 67.2228 12.4151C67.0159 12.4348 66.8071 12.3798 66.6347 12.26C66.4699 12.1462 66.3549 11.9714 66.3147 11.7712C66.2898 11.622 66.3224 11.5317 66.3473 11.5317Z" fill="#263238"/>
<path d="M65.8952 7.80542C65.8683 7.89769 65.5388 7.88199 65.1576 7.95855C64.7763 8.03512 64.4755 8.16665 64.4161 8.09009C64.3912 8.05475 64.4391 7.96444 64.556 7.86824C64.715 7.74652 64.8989 7.66603 65.0943 7.62873C65.2898 7.58946 65.4909 7.59732 65.6825 7.65229C65.8281 7.69744 65.9047 7.76223 65.8952 7.80542Z" fill="#263238"/>
<path d="M68.9548 7.6817C68.903 7.76023 68.6693 7.70134 68.3992 7.719C68.129 7.73667 67.901 7.80931 67.8417 7.73471C67.8148 7.69937 67.8417 7.62084 67.9394 7.53839C68.2037 7.34206 68.5563 7.32439 68.836 7.4952C68.9394 7.57569 68.9758 7.65029 68.9548 7.6817Z" fill="#263238"/>
<path d="M70.0986 5.73221C70.0909 5.62423 70.0756 5.51822 70.0526 5.4122C69.9932 5.25907 69.8974 5.12361 69.7748 5.01955C69.3763 4.62691 68.9567 4.20677 68.4567 4.07327C68.1502 3.99278 67.8321 4.02223 67.5256 3.94566C67.3359 3.88676 67.1501 3.81609 66.9681 3.73756C66.2056 3.48037 65.3914 3.43718 64.6059 3.60798C64.1614 3.66884 63.7323 3.81216 63.3376 4.03008C62.9008 4.31475 62.5176 4.67206 62.1996 5.09023C61.6612 5.70669 61.2321 6.41346 60.9313 7.18108C60.6842 7.80736 60.6209 8.49449 60.7493 9.15807C60.8987 9.81576 61.3528 10.4067 61.9103 10.497L62.1019 10.2261L62.4103 9.83343C62.3586 9.99441 62.4103 9.98263 62.5406 10.0572C62.6709 10.1259 62.8318 10.0729 62.8989 9.93944C62.9027 9.93355 62.9046 9.9257 62.9084 9.91784C63.0196 10.0474 63.2399 9.88643 63.192 9.70974C63.3223 9.76864 63.4717 9.58409 63.4181 9.42703C63.5675 9.47219 63.6345 9.23071 63.6959 9.05991C63.7342 8.97156 63.7763 8.88518 63.8242 8.80272C63.9622 8.52198 64.0196 8.2059 63.989 7.89374C64.1595 7.65815 64.1806 7.31655 64.1901 6.9985L64.2131 6.40953C64.2457 6.36241 64.2763 6.31333 64.3089 6.26425C64.3166 6.39971 64.4105 6.51555 64.5388 6.55088C64.6595 6.56855 64.784 6.55285 64.8971 6.50377L65.2343 6.4056L65.4527 6.45076C65.4278 6.64708 65.4661 6.84733 65.5619 7.01814C65.6002 7.14182 65.6787 7.24784 65.786 7.31851C65.8703 7.34796 65.9642 7.30084 65.9929 7.21446C66.0025 7.18501 66.0044 7.1536 65.9968 7.12219C66.0753 7.18501 66.1884 7.17127 66.2497 7.09078C66.2573 7.079 66.265 7.06722 66.2707 7.05544C66.3244 6.93961 66.3397 6.812 66.3186 6.68635C66.2861 6.38205 66.1673 6.09541 65.9757 5.85982L66.6156 6.38008C66.6577 6.42327 66.7114 6.45076 66.7688 6.45861C66.7669 6.54892 66.8359 6.62352 66.924 6.62549C66.9336 6.62549 66.9413 6.62549 66.9509 6.62352C67.0371 6.59211 67.1099 6.53125 67.1578 6.45272C67.29 6.28388 67.4221 6.0051 67.2804 5.84019C67.3436 5.80681 67.3666 5.72632 67.334 5.6635C67.3302 5.65761 67.3264 5.64976 67.3225 5.64387L68.039 6.11308C67.9682 6.07774 67.9011 6.19161 67.9241 6.27996C67.9509 6.36241 68.0065 6.43309 68.0812 6.47628C68.0295 6.58033 68.0122 6.69813 68.0295 6.812C67.8992 6.70991 67.7325 6.93175 67.7862 7.10845C67.8455 7.27139 68.0007 7.37545 68.1693 7.36367C68.3073 7.37545 68.4318 7.27532 68.4548 7.13593C68.6061 7.15556 68.7307 6.93961 68.6655 6.7688C68.7786 6.83359 68.8571 6.62745 68.8571 6.47824C68.8475 6.21517 68.7901 5.95799 68.6885 5.71651C68.7038 5.73614 68.7268 5.74399 68.7441 5.72829C68.7517 5.72043 68.7556 5.71062 68.7556 5.69884L69.1828 6.55677C69.3188 6.79433 69.4127 7.0574 69.4548 7.33029C69.4663 7.44416 69.4912 7.59729 69.5851 7.60122C69.61 7.59926 69.6349 7.58944 69.656 7.5757C69.9242 7.38723 70.1196 7.11041 70.2078 6.7904C70.248 6.68046 70.2691 6.56463 70.2729 6.4488C70.2614 6.20143 70.135 5.97565 70.0986 5.73221Z" fill="#23263B"/>
<path d="M62.4793 9.61559C62.4467 9.60381 61.165 9.30737 61.2857 10.6227C61.4064 11.9381 62.6709 11.5396 62.669 11.5023C62.6671 11.465 62.4793 9.61559 62.4793 9.61559Z" fill="#FFBE9D"/>
<path d="M62.4793 9.61559C62.4467 9.60381 61.165 9.30737 61.2857 10.6227C61.4064 11.9381 62.6709 11.5396 62.669 11.5023C62.6671 11.465 62.4793 9.61559 62.4793 9.61559Z" fill="#A76C58"/>
<path d="M62.2321 11.0429C62.2321 11.0429 62.211 11.0606 62.1746 11.0821C62.1229 11.1096 62.0635 11.1175 62.008 11.1018C61.8298 11.0075 61.7129 10.823 61.7053 10.6188C61.6918 10.5069 61.7014 10.393 61.7378 10.2851C61.7532 10.1967 61.8087 10.1241 61.8892 10.0887C61.9409 10.0691 61.9984 10.0907 62.0271 10.1378C62.0463 10.1732 62.0405 10.2007 62.0482 10.2026C62.0559 10.2046 62.0731 10.1771 62.0578 10.1241C62.0482 10.0927 62.0271 10.0652 62.0003 10.0475C61.962 10.024 61.9179 10.0161 61.8739 10.0259C61.7685 10.0573 61.688 10.1437 61.6593 10.2517C61.6152 10.3715 61.5999 10.4991 61.6152 10.6247C61.6229 10.8682 61.7742 11.0802 61.9984 11.1607C62.0674 11.1725 62.1363 11.1509 62.19 11.1057C62.2321 11.0743 62.2359 11.0448 62.2321 11.0429Z" fill="#7F4B3A"/>
<path d="M67.127 5.43389C67.1692 5.38481 67.1941 5.32199 67.1998 5.2572C67.2075 5.1826 67.1788 5.10996 67.1251 5.06088C67.0562 4.99805 66.9584 4.98038 66.8742 5.01769L66.8224 5.03928L66.8416 4.98431C66.8722 4.8783 66.8358 4.76443 66.7496 4.69964C66.6481 4.63093 66.514 4.6486 66.4316 4.7389L66.3856 4.7016C66.3933 4.69179 66.3971 4.68001 66.4009 4.66823C66.4086 4.62504 66.3971 4.57988 66.3703 4.54651C66.3415 4.51313 66.3032 4.49154 66.2592 4.48761C66.217 4.48172 66.173 4.48957 66.1327 4.50528C66.0887 4.5308 66.0408 4.54454 65.9909 4.55043C65.9277 4.55043 65.8971 4.49939 65.8645 4.48172C65.8319 4.46012 65.7955 4.44049 65.7591 4.42675C65.6921 4.40319 65.6212 4.39337 65.5503 4.3973C65.4449 4.40123 65.3434 4.43656 65.2572 4.49742C65.1959 4.54062 65.1691 4.57399 65.1652 4.57007C65.1844 4.53473 65.2112 4.50332 65.2438 4.47779C65.33 4.40712 65.4354 4.36392 65.5465 4.35411C65.6231 4.34822 65.7017 4.35607 65.7745 4.37963C65.8166 4.39337 65.8568 4.41301 65.8932 4.43853C65.9316 4.46209 65.9622 4.49546 65.9948 4.49546C66.035 4.48761 66.0752 4.47387 66.1116 4.45227C66.1615 4.43067 66.2132 4.42282 66.2668 4.42871C66.3243 4.4346 66.378 4.46405 66.4144 4.5092C66.4546 4.55632 66.4718 4.62111 66.4584 4.68197C66.4527 4.7016 66.445 4.71927 66.4335 4.73694L66.3875 4.69964C66.4948 4.57399 66.6807 4.56025 66.8033 4.66823C66.8971 4.75068 66.9297 4.88418 66.8876 5.00198L66.855 4.97057C66.9565 4.92934 67.0734 4.9529 67.1539 5.02947C67.2113 5.08836 67.2401 5.17278 67.2286 5.25524C67.2228 5.30825 67.2018 5.35733 67.1692 5.39659C67.1462 5.42604 67.129 5.43586 67.127 5.43389Z" fill="#455A64"/>
<path d="M68.5927 5.68902C68.6386 5.63994 68.6712 5.57908 68.6885 5.5143C68.7057 5.43969 68.6942 5.3592 68.6559 5.29245C68.6042 5.20607 68.516 5.1511 68.4164 5.14521H68.3762L68.4011 5.10987C68.4758 5.0176 68.5007 4.89588 68.472 4.78004C68.4509 4.72115 68.403 4.67599 68.3455 4.65636C68.2861 4.6328 68.221 4.64851 68.1769 4.69562L68.0294 4.89195L68.1309 4.66814C68.1673 4.58568 68.1673 4.49341 68.1309 4.41095C68.0907 4.32457 68.0102 4.26567 67.9183 4.2539C67.8512 4.24408 67.7842 4.25782 67.7267 4.2912L67.6635 4.33046L67.6846 4.25586C67.7152 4.15181 67.6041 4.04383 67.5045 4.03794C67.3934 4.03794 67.2842 4.0772 67.196 4.14788L67.1443 4.18322L67.1558 4.12039C67.1635 4.04383 67.1309 3.96923 67.0696 3.92407C67.0102 3.88088 66.9374 3.85536 66.8646 3.85143C66.7401 3.84161 66.6155 3.85536 66.4967 3.89266C66.3914 3.928 66.2918 3.97512 66.1979 4.03401C66.217 4.01045 66.24 3.99082 66.2649 3.97511C66.3339 3.928 66.4086 3.88873 66.4872 3.86125C66.6098 3.81806 66.7401 3.80039 66.8703 3.80628C66.9527 3.80824 67.0332 3.83572 67.1002 3.88481C67.1807 3.94174 67.2228 4.0399 67.2094 4.13806L67.1692 4.11058C67.2631 4.03598 67.3799 3.99278 67.5006 3.99278C67.5677 3.99867 67.6309 4.03009 67.6769 4.08113C67.7267 4.13217 67.7478 4.20678 67.7325 4.27745L67.6903 4.24408C67.7593 4.20285 67.8397 4.18715 67.9183 4.19892C68.0313 4.21463 68.1271 4.28923 68.175 4.39525C68.2191 4.49341 68.2191 4.60532 68.175 4.70348L68.1271 4.67207C68.1846 4.60728 68.2766 4.58568 68.357 4.61906C68.4317 4.64262 68.4892 4.70151 68.5141 4.77612C68.5486 4.90765 68.516 5.04901 68.4298 5.1511L68.4126 5.1138C68.5256 5.12361 68.6252 5.1884 68.6808 5.29049C68.721 5.36509 68.7306 5.45344 68.7076 5.53589C68.6923 5.58694 68.6655 5.63405 68.6291 5.67136C68.6195 5.67921 68.6061 5.6851 68.5927 5.68902Z" fill="#455A64"/>
<path d="M71.706 5.69099C71.6984 5.62816 71.6677 5.57319 71.6179 5.53589C71.5623 5.49466 71.4953 5.47503 71.4263 5.48092C71.3324 5.49663 71.2424 5.52608 71.1581 5.57123L71.1274 5.58694V5.5516C71.1159 5.42988 71.0221 5.33368 70.9033 5.3219C70.7615 5.31405 70.6217 5.34938 70.501 5.42399L70.3266 5.50841L70.4722 5.37883C70.5412 5.28656 70.5239 5.15306 70.4339 5.08238C70.432 5.08042 70.432 5.08042 70.4301 5.07846C70.3209 5.00974 70.1887 4.99011 70.0641 5.02349H70.0469L69.9358 5.04508L70.0239 4.97244C70.1082 4.88213 70.1044 4.73881 70.0162 4.65243C70.0028 4.63869 69.9875 4.62691 69.9703 4.61906C69.8457 4.56212 69.7001 4.58961 69.6043 4.68777L69.4932 4.79379L69.5622 4.6544C69.6388 4.48556 69.6216 4.28923 69.5162 4.13806C69.4338 4.0183 69.2997 3.94566 69.1579 3.94174C69.066 3.93781 68.9721 3.95744 68.8897 4.00064C68.8323 4.03205 68.8054 4.05757 68.8035 4.05364C68.8016 4.04972 68.8035 4.05364 68.8208 4.03401C68.838 4.01438 68.8591 3.99867 68.8821 3.98689C68.9644 3.93388 69.0602 3.9064 69.1579 3.90836C69.3131 3.9064 69.4587 3.97904 69.5526 4.10469C69.6733 4.2696 69.6944 4.48752 69.6101 4.67403L69.5679 4.64262C69.681 4.52678 69.8515 4.49341 69.9971 4.56016C70.0699 4.60139 70.1216 4.67206 70.1389 4.75648C70.1599 4.84679 70.1293 4.94103 70.0603 5.00189L70.0373 4.95085H70.0546C70.1944 4.91354 70.3458 4.9371 70.4665 5.01956C70.522 5.06668 70.5584 5.13343 70.5699 5.20607C70.5814 5.27871 70.5584 5.35135 70.5086 5.40239L70.478 5.35527C70.6102 5.27871 70.7615 5.24141 70.9129 5.25319C71.0527 5.27282 71.16 5.39061 71.1677 5.53589L71.1389 5.51626C71.2271 5.46914 71.3228 5.43969 71.4225 5.42988C71.4991 5.42399 71.5757 5.44951 71.637 5.49859C71.6754 5.53 71.7022 5.57319 71.7118 5.62228C71.7194 5.64387 71.7175 5.66939 71.706 5.69099Z" fill="#455A64"/>
<path d="M69.8341 2.81885C69.8111 2.83652 69.7862 2.8483 69.7594 2.85419C69.6866 2.87186 69.6119 2.88363 69.5372 2.8856C69.4261 2.88363 69.315 2.90916 69.2172 2.96413C69.1617 2.9975 69.1253 3.05247 69.1176 3.11726C69.1023 3.18401 69.1329 3.25272 69.1904 3.2861L69.154 3.31751C69.1349 3.24291 69.0391 3.20168 68.9529 3.16045C68.8647 3.11333 68.7689 3.08192 68.6712 3.06425C68.5754 3.04658 68.4777 3.07211 68.3992 3.131C68.3264 3.18205 68.2881 3.27039 68.2996 3.3607L68.3149 3.43334L68.2574 3.38819C68.1463 3.30573 68.0122 3.26254 67.8742 3.26254C67.7631 3.26254 67.6539 3.29003 67.5543 3.33911C67.4662 3.38622 67.3876 3.44905 67.3206 3.52365C67.3301 3.49813 67.3455 3.47457 67.3646 3.45494C67.4125 3.39604 67.4719 3.345 67.539 3.30966C67.6405 3.25076 67.7555 3.21935 67.8723 3.21542C68.0237 3.20953 68.1731 3.25469 68.2976 3.345L68.2536 3.37248C68.2363 3.26254 68.2823 3.15064 68.3724 3.08585C68.4624 3.01517 68.5754 2.98572 68.6866 3.00536C68.79 3.02302 68.8896 3.0564 68.9835 3.10548C69.0295 3.12708 69.0736 3.15064 69.1176 3.17812C69.1636 3.20561 69.1981 3.25076 69.2134 3.30377L69.2268 3.35874L69.177 3.33714C69.0965 3.29395 69.0544 3.19972 69.0736 3.10941C69.087 3.03088 69.1329 2.96216 69.2 2.9229C69.3073 2.86989 69.4241 2.84437 69.5429 2.85026C69.6176 2.85222 69.6904 2.8483 69.7633 2.83455C69.7882 2.8267 69.8111 2.82277 69.8341 2.81885Z" fill="#455A64"/>
<path d="M66.8723 1.93346C66.8205 1.93935 66.7707 1.95113 66.7209 1.9688C66.6692 1.99235 66.6213 2.02966 66.5849 2.07481C66.537 2.13371 66.5102 2.20635 66.5102 2.28291V2.31433H66.4795C66.3876 2.30647 66.3033 2.36537 66.2784 2.45568C66.2534 2.56366 66.2592 2.67753 66.2937 2.78354L66.3205 2.89741L66.242 2.80906L66.2305 2.79532C66.1768 2.74231 66.1002 2.71679 66.0255 2.72857C65.9546 2.73642 65.8894 2.77176 65.8435 2.8287C65.7649 2.93078 65.7323 3.06232 65.7553 3.18993C65.7707 3.27631 65.8013 3.36073 65.8415 3.43926C65.8588 3.46871 65.8741 3.49816 65.8856 3.52957C65.8856 3.52957 65.8588 3.50601 65.8224 3.45104C65.7707 3.37448 65.7343 3.28809 65.7151 3.19582C65.6864 3.0584 65.717 2.91508 65.8013 2.80317C65.9124 2.65986 66.1155 2.6363 66.2554 2.75017C66.2611 2.75409 66.2669 2.75998 66.2726 2.76391L66.2879 2.78158L66.2381 2.8071C66.1998 2.69127 66.1941 2.56562 66.2247 2.44586C66.2611 2.33003 66.3741 2.25739 66.491 2.27506L66.4604 2.30058C66.4623 2.21224 66.4968 2.12978 66.5542 2.06499C66.5964 2.01591 66.65 1.98057 66.7113 1.95898C66.7496 1.94524 66.7899 1.93935 66.8301 1.94131C66.8589 1.92757 66.8723 1.93149 66.8723 1.93346Z" fill="#455A64"/>
<path d="M64.4947 3.95162C64.4947 3.95162 64.466 3.95162 64.4181 3.93984C64.3472 3.92021 64.2801 3.8829 64.2265 3.8299C64.146 3.75333 64.0905 3.65321 64.0694 3.54326C64.0579 3.4824 64.056 3.42154 64.0177 3.3862C63.9793 3.35087 63.9085 3.32731 63.8587 3.26252C63.7648 3.13687 63.7839 2.95822 63.9008 2.85416V2.89932C63.7878 2.8149 63.6958 2.70496 63.6307 2.57735C63.6 2.53023 63.5828 2.47722 63.577 2.42029C63.577 2.42029 63.6058 2.47526 63.6594 2.56164C63.7322 2.67944 63.828 2.77956 63.9391 2.85809L63.9698 2.87969L63.941 2.90128C63.8529 2.98767 63.8395 3.12706 63.9123 3.22914C63.9468 3.27626 64.0119 3.29393 64.0656 3.3489C64.1096 3.40387 64.1326 3.47455 64.1307 3.54523C64.1479 3.64535 64.1939 3.73762 64.2629 3.81026C64.3319 3.87112 64.4104 3.92021 64.4947 3.95162Z" fill="#455A64"/>
<path d="M63.7936 4.54056C63.7783 4.54841 63.7629 4.55234 63.7457 4.55234C63.6997 4.55822 63.6537 4.55822 63.6077 4.55234C63.4391 4.53467 63.2821 4.46006 63.1594 4.3403H63.1978C63.1211 4.45417 63.0043 4.53074 62.8721 4.5543C62.7993 4.57 62.7265 4.57 62.6537 4.5543C62.5751 4.53663 62.5081 4.48755 62.4621 4.4208C62.4506 4.39331 62.4391 4.36583 62.4314 4.33834C62.4238 4.31871 62.4084 4.30104 62.3912 4.2873C62.349 4.26178 62.3011 4.24411 62.2513 4.23822C62.1977 4.23036 62.146 4.21466 62.0981 4.18914C62.0444 4.16361 62.008 4.11061 62.0023 4.04975L62.0425 4.07134C61.9333 4.12828 61.8088 4.14202 61.69 4.11257C61.598 4.09097 61.5137 4.04582 61.4448 3.983C61.4007 3.94177 61.3624 3.89465 61.3356 3.83968C61.326 3.82005 61.3202 3.79845 61.3164 3.77686C61.3566 3.84557 61.4065 3.90643 61.4658 3.95747C61.5329 4.01441 61.6134 4.05171 61.6996 4.06741C61.8069 4.09097 61.9199 4.07527 62.0176 4.02422L62.054 4.00459V4.04778C62.0598 4.08901 62.0866 4.12239 62.123 4.13809C62.1651 4.15969 62.213 4.17539 62.2609 4.17932C62.3184 4.18717 62.372 4.2068 62.4218 4.23822C62.4487 4.25785 62.4697 4.28337 62.4831 4.31478C62.4946 4.34619 62.5004 4.37368 62.51 4.39331C62.5502 4.44632 62.6077 4.48166 62.6709 4.4954C62.7341 4.50914 62.7993 4.50914 62.8625 4.4954C62.9813 4.47184 63.0866 4.40117 63.1556 4.29908L63.1729 4.27355L63.1939 4.29515C63.3089 4.40902 63.4545 4.48558 63.6116 4.51307C63.7265 4.54056 63.7936 4.54056 63.7936 4.54056Z" fill="#455A64"/>
<path d="M59.3755 6.77084C59.3755 6.77084 59.3756 6.77084 59.366 6.74925C59.3602 6.72962 59.3545 6.70998 59.3526 6.68839C59.3372 6.60986 59.3372 6.52937 59.3526 6.45084C59.3794 6.32912 59.4234 6.21328 59.479 6.10334C59.5116 6.03463 59.5499 5.96984 59.592 5.90702C59.6189 5.87168 59.6514 5.84223 59.6878 5.81867C59.73 5.78922 59.7836 5.7853 59.8296 5.80689L59.7951 5.83438C59.7568 5.62038 59.8928 5.41621 60.1017 5.37694C60.2032 5.35731 60.3086 5.38087 60.3929 5.44173L60.3488 5.47118C60.3411 5.38283 60.3737 5.29645 60.4388 5.23755C60.5059 5.17865 60.5979 5.15902 60.6822 5.18651C60.7281 5.20025 60.7703 5.22577 60.8029 5.26307L60.753 5.28859C60.7454 5.23559 60.7645 5.18062 60.8029 5.14331C60.8373 5.10798 60.8814 5.08442 60.9293 5.07656C61.0155 5.06871 61.1036 5.08245 61.1822 5.11976L61.1477 5.1335C61.1994 5.04123 61.2837 4.97055 61.3834 4.93717C61.4753 4.90576 61.5711 4.89791 61.6669 4.91361C61.8278 4.94895 61.983 5.00981 62.1229 5.09816L62.0941 5.12761C62.0769 5.0962 62.0769 5.05497 62.0941 5.02356C62.1095 4.99803 62.1325 4.97644 62.1593 4.96073C62.2072 4.93521 62.2589 4.92147 62.3125 4.92343C62.4447 4.93128 62.5731 4.97251 62.6861 5.04123C62.7149 5.06086 62.7302 5.07264 62.7283 5.0746C62.6651 5.04515 62.6018 5.01963 62.5367 4.99607C62.462 4.97447 62.3834 4.96073 62.3049 4.95681C62.2589 4.95877 62.2129 4.97055 62.1727 4.99411C62.1305 5.01767 62.0961 5.06478 62.121 5.10601L62.1593 5.16884L62.0941 5.13546C61.9562 5.05497 61.8048 4.99803 61.6497 4.96466C61.5635 4.95092 61.4734 4.96073 61.391 4.99018C61.3048 5.02159 61.232 5.08245 61.1879 5.16491L61.1765 5.18847H61.1535C61.0826 5.15509 61.004 5.14135 60.9274 5.14724C60.8603 5.15902 60.7894 5.22577 60.8009 5.29252L60.8182 5.39657L60.7511 5.31608C60.7262 5.28663 60.6937 5.267 60.6573 5.25718C60.5921 5.23362 60.5174 5.24933 60.4657 5.29645C60.4139 5.3416 60.389 5.40835 60.3948 5.47707V5.54185L60.3411 5.50455C60.2262 5.42406 60.0729 5.42406 59.958 5.50455C59.8564 5.58308 59.8047 5.71266 59.8239 5.84223V5.89131L59.7817 5.86972C59.7166 5.8383 59.6457 5.89524 59.6016 5.95413C59.5576 6.01499 59.5192 6.08174 59.4886 6.15046C59.4292 6.25647 59.3851 6.36838 59.3526 6.48421C59.3449 6.58041 59.3526 6.67661 59.3755 6.77084Z" fill="#455A64"/>
<path d="M59.845 8.48097C59.8335 8.47115 59.822 8.45937 59.8124 8.44563C59.7837 8.41029 59.7569 8.37102 59.7339 8.33176C59.6936 8.26697 59.6726 8.19433 59.6707 8.11777C59.6707 8.06869 59.6822 8.02157 59.7032 7.97838C59.7281 7.92733 59.7703 7.88807 59.822 7.86843L59.8124 7.89985C59.7473 7.81739 59.7339 7.70352 59.776 7.60732C59.8297 7.49542 59.9465 7.4326 60.0653 7.45026L60.0423 7.49542C59.981 7.41885 59.9772 7.31284 60.0289 7.23038C60.0826 7.14989 60.1707 7.09688 60.2665 7.08903C60.3086 7.08903 60.3527 7.0851 60.3948 7.07725C60.4312 7.07725 60.4523 7.04191 60.4696 7.00068C60.483 6.9516 60.506 6.90645 60.5328 6.86522C60.5654 6.82203 60.6113 6.79061 60.6631 6.77491C60.7646 6.75331 60.8681 6.74153 60.9715 6.74153C61.0616 6.7435 61.1497 6.71012 61.2148 6.64534C61.2397 6.60607 61.2646 6.56484 61.2857 6.52361C61.3125 6.48042 61.3508 6.44508 61.3949 6.42153C61.4811 6.37833 61.5807 6.37833 61.667 6.42153L61.6363 6.46275C61.5788 6.3803 61.5788 6.26839 61.6363 6.18594C61.6861 6.11722 61.7608 6.07011 61.8451 6.05636C61.9735 6.03673 62.1019 6.04262 62.2283 6.07207C62.3088 6.08777 62.3873 6.1133 62.462 6.14471C62.4908 6.15452 62.5157 6.16827 62.5406 6.18594C62.4371 6.15256 62.3298 6.12311 62.2226 6.10152C62.1019 6.07796 61.9754 6.07796 61.8547 6.10152C61.7838 6.1133 61.7187 6.15452 61.6765 6.21538C61.6306 6.28017 61.6306 6.36655 61.6765 6.43134L61.7455 6.51969L61.6459 6.47061C61.5731 6.43919 61.4888 6.44312 61.4198 6.48239C61.3834 6.50202 61.3528 6.53147 61.3317 6.56681C61.3106 6.61 61.2857 6.65122 61.2589 6.69245C61.2244 6.73368 61.1784 6.76509 61.1286 6.78276C61.0788 6.79847 61.0271 6.80828 60.9753 6.81221C60.8776 6.81221 60.778 6.82203 60.6822 6.84362C60.6401 6.8554 60.6037 6.87896 60.5788 6.9143C60.5539 6.9516 60.5347 6.99086 60.5232 7.03406C60.506 7.08706 60.4638 7.13026 60.4102 7.14596C60.3642 7.15381 60.3182 7.15774 60.2722 7.15971C60.1956 7.16756 60.1247 7.20682 60.0806 7.27161C60.0385 7.33051 60.0385 7.40904 60.0806 7.46793L60.1305 7.52487L60.0577 7.51309C59.9599 7.49738 59.8622 7.54843 59.8182 7.63874C59.7818 7.71923 59.7914 7.81346 59.8431 7.88414L59.8622 7.9077L59.8335 7.91752C59.753 7.95482 59.7013 8.03924 59.7032 8.12955C59.7032 8.19826 59.7205 8.26697 59.755 8.32587C59.8086 8.42403 59.8488 8.47704 59.845 8.48097Z" fill="#455A64"/>
<path d="M59.6649 11.7064C59.6439 11.7064 59.6247 11.7025 59.6055 11.6927C59.5538 11.6711 59.5059 11.6377 59.4657 11.5965C59.4005 11.5317 59.3584 11.4453 59.3469 11.353C59.3297 11.2313 59.3622 11.1076 59.4369 11.0114V11.0448C59.3603 10.9643 59.3009 10.8681 59.2626 10.7621C59.2434 10.6973 59.2434 10.6306 59.2626 10.5658C59.2798 10.4971 59.3258 10.4382 59.3891 10.4068V10.4598C59.2856 10.3989 59.2205 10.287 59.2185 10.1633C59.2166 10.0946 59.232 10.0279 59.2626 9.967C59.2933 9.9081 59.3431 9.85902 59.4025 9.82957C59.4484 9.81191 59.4791 9.76479 59.4753 9.71374C59.4714 9.65288 59.481 9.59398 59.5002 9.53705C59.5385 9.43496 59.6055 9.34465 59.6918 9.27987L59.8967 9.10121C59.9964 9.01287 60.1113 8.94612 60.2359 8.90489C60.2703 8.89507 60.3048 8.88722 60.3412 8.88525C60.3661 8.88525 60.3795 8.88525 60.3795 8.88525C60.3336 8.89507 60.2876 8.90685 60.2435 8.92256C60.1247 8.97164 60.0155 9.04231 59.9236 9.13459L59.732 9.31717C59.6534 9.37803 59.5902 9.46048 59.5538 9.55472C59.5385 9.60576 59.5308 9.66074 59.5347 9.71374C59.5366 9.74908 59.5289 9.78442 59.5098 9.81583C59.4906 9.84332 59.4638 9.86491 59.435 9.88062C59.2894 9.96307 59.2377 10.1515 59.3182 10.2988C59.3431 10.3439 59.3776 10.3832 59.4197 10.4107L59.4714 10.4382L59.4178 10.4637C59.3258 10.5226 59.2856 10.6404 59.3239 10.7444C59.3584 10.8426 59.414 10.9329 59.4848 11.0095L59.4983 11.0252L59.4848 11.0409C59.4159 11.1273 59.3852 11.2372 59.3948 11.3472C59.4044 11.4316 59.4389 11.5121 59.4944 11.5749C59.5442 11.6279 59.6017 11.6731 59.6649 11.7064Z" fill="#455A64"/>
<path d="M64.5254 6.46274C64.464 6.45882 64.4027 6.43919 64.3491 6.40777C64.284 6.37832 64.2265 6.33513 64.1805 6.28213C64.1211 6.21341 64.0924 6.12114 64.1039 6.03083C64.1058 6.00924 64.1115 5.98568 64.1211 5.96604L64.1364 6.00531C64.0598 5.97193 64.0023 5.90518 63.9774 5.82273C63.9602 5.75598 63.9678 5.68726 63.9985 5.6264C64.0541 5.52628 64.1288 5.51057 64.1288 5.51646C64.1288 5.52235 64.0732 5.5518 64.0349 5.64407C64.0157 5.69708 64.0157 5.75401 64.0349 5.80702C64.056 5.87181 64.1058 5.92482 64.1671 5.95034L64.1939 5.96212L64.1824 5.9896C64.1767 6.00531 64.1709 6.02101 64.169 6.03868C64.1613 6.11525 64.1824 6.18985 64.2303 6.24875C64.2705 6.29783 64.3204 6.33906 64.3759 6.37047C64.4296 6.39599 64.4794 6.42741 64.5254 6.46274Z" fill="#455A64"/>
<path d="M65.8205 5.70472C65.8512 5.636 65.8588 5.55747 65.8435 5.48287C65.8243 5.40238 65.7669 5.33759 65.6902 5.3101C65.5944 5.27673 65.4872 5.30225 65.4182 5.37882L65.3837 5.41612L65.3703 5.36704C65.355 5.30618 65.3281 5.24924 65.2898 5.1982C65.2553 5.14519 65.1979 5.10985 65.1366 5.10396C65.0427 5.10396 64.945 5.19624 64.9776 5.2728L64.9239 5.28851C64.899 5.17268 64.83 5.07059 64.7323 5.00776C64.6576 4.95476 64.5676 4.92727 64.4775 4.9312C64.3951 4.93905 64.3128 4.96065 64.238 4.99795C64.238 4.99795 64.2534 4.97635 64.2917 4.95279C64.3472 4.91942 64.4105 4.90175 64.4737 4.89586C64.5733 4.88604 64.6748 4.91157 64.7591 4.96654C64.8683 5.03525 64.945 5.14716 64.9718 5.27673L64.9182 5.2944C64.8971 5.23157 64.9143 5.1609 64.9622 5.11574C65.0063 5.06863 65.0676 5.0431 65.1308 5.04507C65.2074 5.05488 65.2783 5.09611 65.3224 5.1609C65.3645 5.2198 65.3933 5.28655 65.4105 5.35722H65.3626C65.4488 5.26691 65.5791 5.2355 65.6941 5.28066C65.7822 5.31599 65.8454 5.39452 65.8627 5.49072C65.8761 5.55158 65.8684 5.61441 65.8435 5.66938C65.8397 5.69097 65.8224 5.70668 65.8205 5.70472Z" fill="#455A64"/>
<path d="M62.8068 16.5437C62.8068 16.5437 60.2511 17.6255 59.5921 18.0613C58.933 18.4972 61.8604 27.8776 61.8604 27.8776C61.8604 27.8776 63.2571 31.7471 62.8183 33.4414C62.5674 34.3955 62.1286 35.4046 61.9256 36.2842C61.7148 37.1931 62.257 38.106 63.1421 38.3299C64.7169 38.7225 67.7574 39.2565 70.407 38.3416C71.9971 37.8155 73.5087 37.0695 74.9034 36.1271C75.6104 35.6343 75.8345 34.6704 75.4207 33.9027C75.2444 33.571 75.0299 33.2627 74.7789 32.9859C73.9302 32.0475 73.2731 28.4881 73.1064 27.5104C73.0796 27.3494 73.0738 27.1865 73.093 27.0255C73.1964 26.1047 73.5279 22.7319 73.0374 21.0749C72.6542 19.7497 71.7959 18.1634 71.3017 17.2976C71.0641 16.8952 70.6733 16.6125 70.223 16.5163L67.6041 15.9273C67.3761 15.9077 67.1462 15.9214 66.9201 15.9666L62.9869 16.5555L62.8068 16.5437Z" fill="#FF80A1"/>
<g opacity="0.3">
<path opacity="0.3" d="M62.9506 33.1L62.4065 34.702C62.4065 34.702 65.7496 33.689 66.8627 32.4463C67.9758 31.2035 69.0621 30.2867 69.5583 30.2494C70.0545 30.2121 72.1849 30.2945 72.547 30.6145C72.9091 30.9346 74.1391 31.8062 74.1391 31.8062L73.6237 30.0786L72.2539 28.8849L68.0544 28.2724L62.9506 33.1Z" fill="black"/>
</g>
<path d="M59.5921 18.0613C59.5921 18.0613 58.4924 18.8034 58.4196 20.7745C58.4196 20.7745 58.3871 21.4047 58.3679 22.3628C58.3124 25.0367 58.2434 30.2707 58.4177 31.5626C58.7319 33.8949 60.5462 34.2463 61.5003 34.2816C62.4544 34.317 67.7076 30.259 67.7076 30.259L66.2382 27.7912L62.4793 28.6393C62.4793 28.6393 62.464 24.9091 62.5099 23.6507C62.5559 22.3923 59.5921 18.0613 59.5921 18.0613Z" fill="#FF80A1"/>
<path d="M70.476 16.591C70.476 16.591 72.8267 17.2565 73.6945 19.4043C74.4609 21.289 79.3539 29.8095 76.6104 31.2427C74.6276 32.2754 72.2443 29.6269 72.2443 29.6269L70.476 16.591Z" fill="#FF80A1"/>
<path d="M72.9646 25.8987C73.0394 25.5885 73.0853 25.2744 73.1064 24.9564C73.1294 24.1887 72.9148 23.4329 72.4933 22.7968C72.3343 22.5632 72.1485 22.3492 71.9416 22.1587C71.7442 21.9879 71.5814 21.7779 71.4645 21.5423V21.5305V21.5187L71.6561 20.3408C71.6753 20.1896 71.7059 20.0424 71.7481 19.8971C71.7443 20.0483 71.7289 20.1994 71.7059 20.3486C71.6657 20.6549 71.6121 21.0574 71.5488 21.5266V21.503C71.7308 21.9271 72.2577 22.2157 72.5796 22.734C73.0125 23.3877 73.2233 24.1691 73.1773 24.9583C73.162 25.1959 73.1217 25.4295 73.0566 25.6572C73.0355 25.7397 73.0049 25.8222 72.9646 25.8987Z" fill="#263238"/>
<path d="M73.7347 27.1943C73.6025 26.8076 73.5412 26.3973 73.5546 25.9869C73.5738 25.7396 73.5546 25.4902 73.4933 25.2507C73.4224 25.0151 73.1734 24.7894 72.9377 24.8384L72.7864 26.6466L73.7347 27.1943Z" fill="#FFBE9D"/>
<path d="M73.0852 23.0717L72.5603 29.4738L69.5467 29.6544L69.7115 23.3721C69.7153 23.2071 69.8379 23.0697 69.9988 23.0501L72.7308 22.7183C72.9109 22.7026 73.068 22.8361 73.0852 23.0206C73.0872 23.0363 73.0872 23.054 73.0852 23.0717Z" fill="#263238"/>
<path d="M69.9108 25.1055C69.9242 25.0407 69.9318 24.9759 69.9338 24.9092C69.9453 24.7757 69.9587 24.6009 69.9759 24.3909C69.9931 24.1808 70.0104 23.9099 70.0296 23.6252C70.0296 23.5879 70.0296 23.5486 70.0296 23.5192C70.0372 23.4878 70.0525 23.4583 70.0736 23.4348C70.0947 23.4112 70.1215 23.3916 70.1522 23.3798C70.1866 23.37 70.223 23.3641 70.2594 23.3621L70.7307 23.3013C71.3783 23.2188 71.9645 23.1403 72.3879 23.0794L72.888 23.0048C72.9531 22.9989 73.0163 22.9872 73.0796 22.9695C73.0163 22.9675 72.9512 22.9714 72.888 22.9813L72.3841 23.0343C71.9588 23.0834 71.3726 23.154 70.725 23.2306L70.2537 23.2915C70.2135 23.2934 70.1732 23.3013 70.1349 23.3131C70.0947 23.3288 70.0583 23.3543 70.0296 23.3857C70.0027 23.4191 69.9836 23.4564 69.974 23.4976C69.9682 23.5369 69.9644 23.5742 69.9644 23.6134C69.9491 23.8981 69.9357 24.1592 69.9242 24.3811C69.9127 24.6029 69.9069 24.7737 69.9012 24.8994C69.8974 24.9681 69.9012 25.0368 69.9108 25.1055Z" fill="#455A64"/>
<path d="M71.3515 23.5489C71.3745 23.4684 71.4569 23.4213 71.5354 23.4429C71.5852 23.4566 71.6235 23.4978 71.6389 23.5489C71.6504 23.6117 71.6255 23.6745 71.5756 23.7138C71.5239 23.7491 71.4549 23.7491 71.4032 23.7138C71.3515 23.6765 71.3304 23.6097 71.3515 23.5489Z" fill="#FAFAFA"/>
<path d="M71.6542 25.4216C71.7251 25.4216 73.4053 26.0734 73.4053 26.0734L74.3364 26.8587C74.5739 27.2514 74.6506 27.7245 74.5471 28.1741C74.3996 29.0105 74.0375 29.3521 73.1543 29.6839L71.4013 29.6171L70.4434 28.9928C70.2557 28.8691 70.1599 28.6414 70.2001 28.4176V28.3783L70.0813 28.2212C70.0066 28.1231 69.997 27.9896 70.0564 27.8816C70.1388 27.7344 70.3208 27.6813 70.4664 27.7638L71.5335 28.3783H72.2175L72.2922 28.1388L71.2423 27.7344L69.8782 26.9059C69.702 26.7998 69.6445 26.5662 69.7499 26.3856C69.7537 26.3797 69.7556 26.3738 69.7595 26.3699C69.8591 26.2148 70.0526 26.1559 70.2193 26.2305L71.4684 26.79L72.752 27.1827L72.5029 26.7095L70.9415 25.7986C70.9415 25.7986 70.771 25.3019 71.6542 25.4216Z" fill="#A76C58"/>
<path d="M71.411 24.5834C71.411 24.5834 71.0584 24.4303 70.5373 24.7306C70.0162 25.031 69.3591 25.4669 69.3591 25.4669L68.3456 25.9047L68.4376 25.622C68.4376 25.622 69.4875 25.6023 69.3476 24.8367L68.725 24.9407L68.1502 24.7248L67.2172 25.9027L66.9317 27.2416L66.3436 27.8797L67.5065 29.8861L69.1943 29.2971L70.6983 29.2029L71.3784 28.4883L71.3688 27.6853L72.0164 26.8254C72.0164 26.8254 72.0643 26.4328 71.7194 26.4328C71.3746 26.4328 70.6542 27.3712 70.6542 27.3712L69.8361 27.491C69.8361 27.491 69.681 27.3771 69.7863 27.2946C69.8917 27.2122 72.1696 25.6907 72.2444 25.404C72.3191 25.1174 72.4091 24.925 72.1601 24.8799C71.9417 24.874 71.7232 24.9211 71.5278 25.0212C71.5278 25.0212 71.5911 24.6207 71.411 24.5834Z" fill="#A76C58"/>
<path d="M69.5812 26.3502C69.9318 26.1539 70.2709 25.9379 70.5985 25.7043C71.1503 25.3313 71.591 25.0172 71.5814 25.0034C71.2308 25.1997 70.8917 25.4157 70.5641 25.6493C70.225 25.8653 69.8974 26.0989 69.5812 26.3502Z" fill="#7E4A2F"/>
<path d="M69.3245 28.3901C69.3648 28.4039 69.4088 28.4137 69.451 28.4157C69.5353 28.4274 69.656 28.4431 69.8054 28.451C69.9816 28.4628 70.1598 28.4549 70.3342 28.4235C70.5507 28.3842 70.7556 28.2998 70.9357 28.1722C71.2557 27.9347 71.5201 27.6284 71.7116 27.275C71.7902 27.1435 71.8477 27.0355 71.886 26.9589C71.909 26.9197 71.9281 26.8804 71.9415 26.8372C71.8458 26.9707 71.7557 27.1081 71.6752 27.2515C71.4741 27.5891 71.2116 27.8836 70.8993 28.1172C70.7269 28.239 70.5315 28.3253 70.3246 28.3666C70.1541 28.398 69.9817 28.4117 69.8092 28.4058C69.5104 28.398 69.3245 28.3784 69.3245 28.3901Z" fill="#7E4A2F"/>
<path d="M66.3397 27.8835C66.355 27.8718 66.3685 27.858 66.38 27.8443L66.4949 27.7245L66.9375 27.2533C67.0141 26.9058 67.1118 26.4543 67.2306 25.9164L68.1655 24.7384H68.1406L68.7154 24.9563H68.7288L69.3514 24.8523L69.3227 24.8307C69.3418 24.9387 69.3342 25.0486 69.2978 25.1507C69.2556 25.2528 69.1847 25.3392 69.0928 25.3981C68.8935 25.5178 68.6694 25.5865 68.4376 25.5944H68.4184V25.614L68.3264 25.8948L68.3054 25.9556L68.3628 25.9301L69.3782 25.4943C69.6829 25.298 70.0009 25.0918 70.3362 24.8935C70.4971 24.7875 70.6676 24.6992 70.8477 24.6324C71.0297 24.5696 71.2251 24.5637 71.409 24.6147C71.4684 24.6265 71.501 24.6972 71.5106 24.7738C71.5221 24.8543 71.5221 24.9367 71.5106 25.0172L71.501 25.0761L71.5546 25.0525C71.6657 24.9995 71.7807 24.9583 71.8995 24.9308C72.0125 24.8916 72.137 24.8916 72.2501 24.9308C72.298 24.9544 72.3095 25.0094 72.3037 25.0702C72.2961 25.137 72.2826 25.2018 72.2635 25.2665C72.252 25.3274 72.2309 25.3863 72.2022 25.4413C72.1619 25.4923 72.1179 25.5394 72.07 25.5826C71.6715 25.9242 71.2558 26.2442 70.8228 26.5407L70.1963 26.9785L69.8783 27.1964L69.8016 27.2494C69.7691 27.269 69.7422 27.2985 69.7288 27.3358C69.7212 27.3751 69.7288 27.4163 69.7537 27.4497C69.7729 27.4791 69.7959 27.5046 69.8246 27.5243H69.8342H69.8476L70.6638 27.4025H70.6753V27.3927C70.8841 27.1218 71.1197 26.8705 71.3765 26.6467C71.5029 26.5485 71.6447 26.4386 71.7941 26.4739C71.865 26.4857 71.9263 26.5348 71.955 26.6035C71.9838 26.6742 71.9953 26.7507 71.9876 26.8254V26.8116L71.342 27.6735V27.6833C71.342 27.9601 71.342 28.2291 71.3516 28.4863V28.4686L70.6714 29.1871H70.6868L69.1828 29.2873L67.9356 29.729L67.6099 29.8468L67.5275 29.8762L67.5007 29.888H67.5295L67.6138 29.8605L67.9414 29.7506L69.1943 29.3246L70.6982 29.2362H70.7078L71.3899 28.5236C71.3899 28.2644 71.3899 27.9974 71.3899 27.7206V27.7363L72.0374 26.8784C72.047 26.792 72.0336 26.7056 72.001 26.6251C71.9819 26.5839 71.957 26.5466 71.9225 26.5171C71.8861 26.4896 71.8458 26.47 71.8018 26.4622C71.7156 26.4445 71.6255 26.4602 71.547 26.5034C71.4722 26.5446 71.4014 26.5917 71.3362 26.6467C71.0757 26.8725 70.8362 27.1257 70.6254 27.4006L70.6446 27.3888L69.8265 27.5105H69.8495C69.8074 27.4771 69.7652 27.4241 69.7767 27.3888C69.7882 27.3535 69.8553 27.3181 69.9013 27.2828L70.2116 27.0688L70.8381 26.631C71.273 26.3326 71.6926 26.0106 72.093 25.667C72.1447 25.6219 72.1907 25.5728 72.2328 25.5178C72.2558 25.4884 72.2712 25.455 72.2788 25.4177L72.3056 25.3215C72.3248 25.2567 72.3401 25.1919 72.3478 25.1252C72.3555 25.0879 72.3555 25.0506 72.3478 25.0133C72.3344 24.976 72.3056 24.9446 72.2711 24.9249C72.1447 24.8719 72.0068 24.866 71.8765 24.9073C71.7539 24.9367 71.6332 24.9779 71.5182 25.0329L71.5623 25.0683C71.5738 24.9819 71.5738 24.8916 71.5623 24.8052C71.5565 24.76 71.5431 24.7149 71.5201 24.6756C71.4972 24.6324 71.4569 24.601 71.409 24.5912C71.2117 24.5323 70.999 24.5382 70.8055 24.6089C70.6216 24.6776 70.4454 24.7659 70.2806 24.8759C69.9492 25.0722 69.633 25.2783 69.3227 25.4786L68.3092 25.9164L68.3456 25.9517L68.4395 25.671L68.4127 25.6906C68.6541 25.6847 68.8878 25.618 69.0966 25.4943C69.1982 25.4295 69.2767 25.3333 69.3227 25.2214C69.361 25.1095 69.3706 24.9897 69.3476 24.8739V24.8484H69.3227L68.7 24.9544H68.7288L68.154 24.7404H68.1387L68.1291 24.7541L67.1999 25.9321C67.0869 26.472 66.993 26.9235 66.9202 27.273L66.4872 27.7068L66.3761 27.8325C66.3512 27.8678 66.3397 27.8835 66.3397 27.8835Z" fill="#7E4A2F"/>
<path d="M62.9525 28.551C62.9525 28.5706 62.7992 28.551 62.5693 28.551C61.9486 28.5843 61.3757 28.8965 60.9983 29.403C60.9293 29.5149 60.8565 29.6249 60.7761 29.7289C60.7952 29.5934 60.8489 29.4639 60.9293 29.3539C61.2895 28.7885 61.9102 28.4528 62.5693 28.4646C62.7034 28.4607 62.8337 28.4901 62.9525 28.551Z" fill="#263238"/>
<path d="M62.6096 23.5527C62.6421 23.5527 62.646 24.6639 62.6096 26.0303C62.5732 27.3967 62.5291 28.5059 62.4965 28.5059C62.464 28.5059 62.462 27.3967 62.4965 26.0283C62.531 24.6599 62.577 23.5527 62.6096 23.5527Z" fill="#263238"/>
<path d="M58.3832 21.2989C58.387 21.3244 58.387 21.348 58.3832 21.3735C58.3832 21.4285 58.3832 21.5011 58.3832 21.5914C58.3832 21.7877 58.3736 22.0724 58.3679 22.4317C58.3564 23.1679 58.343 24.2222 58.3257 25.5199C58.3085 26.8176 58.3104 28.3764 58.3525 30.0981C58.3525 30.3141 58.366 30.532 58.3736 30.7519L58.3851 31.0837C58.3947 31.1936 58.4062 31.3036 58.4177 31.4155C58.4407 31.6393 58.4809 31.8592 58.5365 32.0771C58.6016 32.295 58.6859 32.507 58.7913 32.7073C59.0097 33.1196 59.3258 33.469 59.7128 33.7203C60.1132 33.9775 60.5634 34.1385 61.0328 34.1935H61.1152C61.4639 34.2308 61.8145 34.1758 62.1363 34.0344C62.4582 33.899 62.7705 33.74 63.0693 33.5574C63.6728 33.2079 64.2476 32.8447 64.7936 32.4737C65.7975 31.7885 66.7573 31.0346 67.6673 30.2218L67.6578 30.2847L66.1883 27.8031L66.2285 27.8208C65.194 28.0407 64.3759 28.239 63.8127 28.3607L63.167 28.502L63.0004 28.5354H62.9429C62.9601 28.5256 62.9774 28.5197 62.9965 28.5158L63.1728 28.4922L63.8146 28.3312C64.3759 28.1977 65.1902 27.9877 66.2247 27.756H66.2515L66.265 27.7796L67.7516 30.2493L67.7727 30.2866L67.7421 30.3141C66.834 31.1367 65.8741 31.8965 64.8683 32.5875C64.3242 32.9625 63.7495 33.3277 63.1441 33.6791C62.8375 33.8656 62.5176 34.0266 62.1861 34.164C61.8451 34.3132 61.4734 34.3721 61.1056 34.3309H61.0136C60.527 34.274 60.0576 34.1051 59.6438 33.8362C59.2415 33.5731 58.912 33.2099 58.6859 32.7799C58.5767 32.5718 58.4886 32.3519 58.4234 32.1262C58.366 31.9024 58.3238 31.6746 58.3008 31.4449C58.2912 31.3311 58.2797 31.2172 58.2702 31.1053L58.2587 30.7715C58.2587 30.5517 58.2453 30.3318 58.2395 30.1178C58.2031 28.3921 58.2184 26.8372 58.2395 25.5336C58.2606 24.23 58.2912 23.1777 58.32 22.4454C58.3353 22.0881 58.3487 21.8054 58.3564 21.6052C58.3564 21.5148 58.3679 21.4442 58.3717 21.3872C58.3736 21.3578 58.3775 21.3264 58.3832 21.2989Z" fill="#263238"/>
<path d="M75.7503 31.4744C75.7503 31.4842 75.6928 31.4882 75.5893 31.4901C75.4437 31.4921 75.2981 31.4803 75.1544 31.4568C74.9399 31.4253 74.7272 31.3723 74.5222 31.3017C74.2712 31.2113 74.0298 31.0975 73.798 30.962C73.3823 30.7107 72.9972 30.4123 72.6485 30.0727C72.4972 29.9411 72.3612 29.7919 72.2424 29.627C72.4052 29.7428 72.5604 29.8705 72.7041 30.0098C73.0623 30.3259 73.4474 30.6086 73.8536 30.856C74.0777 30.9875 74.3134 31.1014 74.5548 31.1956C74.754 31.2702 74.9571 31.3291 75.164 31.3723C75.5242 31.4469 75.7503 31.4548 75.7503 31.4744Z" fill="#263238"/>
<path d="M76.4668 27.4711C76.4457 27.5025 76.0319 27.1413 75.4092 26.9587C74.7866 26.7761 74.2501 26.8409 74.2463 26.8017C74.2425 26.7624 74.7885 26.6426 75.4418 26.8429C76.0951 27.0431 76.4917 27.4554 76.4668 27.4711Z" fill="#263238"/>
<path d="M75.5357 26.3955C75.5357 26.4309 75.2158 26.4152 74.8441 26.5074C74.4724 26.5997 74.1946 26.7587 74.1755 26.7273C74.3479 26.5467 74.574 26.4289 74.8173 26.3896C75.2119 26.2915 75.5434 26.3641 75.5357 26.3955Z" fill="#263238"/>
<g opacity="0.3">
<path opacity="0.3" d="M62.4601 28.443C61.8279 27.962 60.937 28.0877 60.4523 28.7238C60.3565 28.8396 60.299 28.9809 60.2837 29.1302C60.2703 29.2833 60.3527 29.4286 60.4887 29.4953C60.6803 29.5719 60.8968 29.4403 61.0443 29.299C61.439 28.8887 61.9486 28.6138 62.5023 28.5137" fill="black"/>
</g>
<g opacity="0.3">
<path opacity="0.3" d="M74.2425 26.8056C74.8498 26.7428 75.4322 27.0471 76.0357 27.1551C76.143 27.1865 76.2579 27.1747 76.3556 27.1197C76.4265 27.0648 76.4668 26.9764 76.461 26.8861C76.4553 26.7958 76.4208 26.7094 76.3652 26.6407C76.1717 26.4365 75.9035 26.3226 75.6257 26.3325C75.3441 26.3168 75.0624 26.3423 74.7885 26.4051C74.5547 26.4365 74.3421 26.5641 74.2003 26.7585" fill="black"/>
</g>
<path d="M62.7014 17.4726L62.5673 15.7842C63.4831 16.0944 64.4429 16.2416 65.4066 16.22C66.9393 16.1356 67.8167 15.688 67.8167 15.688L68.2957 18.0576L66.8741 20.2643L65.6231 20.8533L63.4256 20.5019L62.7014 17.4726Z" fill="#FF80A1"/>
<path d="M62.8721 21.4992C62.8567 21.4992 62.8069 21.2165 62.6805 20.7689C62.5406 20.1838 62.2839 19.6341 61.9295 19.1551C61.4237 18.4542 60.5673 18.1204 59.7358 18.2991C59.7952 18.2638 59.8604 18.2402 59.9274 18.2304C60.1056 18.1872 60.2895 18.1754 60.4715 18.197C61.075 18.2814 61.6249 18.6014 62.0042 19.0903C62.3701 19.5791 62.6249 20.1485 62.7475 20.7512C62.7993 20.9789 62.8299 21.1674 62.8472 21.297C62.8663 21.3618 62.874 21.4305 62.8721 21.4992Z" fill="#263238"/>
<path d="M67.8168 15.688C67.8436 15.7508 67.8627 15.8156 67.8723 15.8843C67.8896 15.9628 67.9011 16.0453 67.9049 16.1258C67.9145 16.2397 67.8857 16.3535 67.8225 16.4478C67.7555 16.5597 67.6731 16.6618 67.5792 16.7521C67.4643 16.8522 67.334 16.9327 67.196 16.9935C66.8876 17.127 66.5676 17.2272 66.2381 17.29C65.6423 17.4117 65.0312 17.4215 64.4334 17.3175C64.2533 17.288 64.0752 17.2448 63.9008 17.1879C63.8338 17.1722 63.7705 17.1467 63.7092 17.1133C63.7092 17.0956 63.987 17.1859 64.4411 17.2468C65.0311 17.3253 65.6308 17.3077 66.2151 17.1899C66.5351 17.129 66.8493 17.0348 67.152 16.9072C67.2823 16.8522 67.4029 16.7796 67.5122 16.6892C67.6041 16.6048 67.6846 16.5106 67.7555 16.4085C67.8129 16.328 67.8417 16.2298 67.8398 16.1297C67.8398 16.0512 67.834 15.9727 67.8244 15.8941C67.8149 15.8254 67.8129 15.7567 67.8168 15.688Z" fill="#263238"/>
<path d="M73.3593 34.692C73.3593 34.692 73.3344 34.7136 73.2827 34.743L73.0566 34.8745C72.9589 34.9315 72.8363 34.9982 72.6926 35.0709C72.5489 35.1435 72.3842 35.2279 72.1983 35.3084C71.7653 35.5028 71.3228 35.6755 70.8726 35.8247C69.769 36.1919 68.6253 36.4137 67.4681 36.4903C66.9968 36.5217 66.5236 36.5276 66.0504 36.5099C65.8473 36.5099 65.6672 36.4864 65.5063 36.4746C65.3454 36.4628 65.2094 36.4491 65.0982 36.4334L64.8396 36.3961C64.8089 36.3941 64.7802 36.3882 64.7515 36.3764H64.8415L65.1001 36.3941C65.2132 36.3941 65.3511 36.4137 65.5101 36.4176C65.6692 36.4216 65.8512 36.4373 66.0523 36.4373C66.4527 36.4471 66.9317 36.4373 67.4605 36.3961C68.0333 36.3489 68.6061 36.2724 69.1713 36.1664C69.7365 36.0525 70.2959 35.9092 70.8457 35.7344C71.3515 35.5715 71.8037 35.4027 72.1715 35.2417C72.3631 35.1671 72.5221 35.0866 72.6677 35.0198C72.8133 34.9531 72.9378 34.8942 73.0394 34.8431L73.2731 34.7293C73.3267 34.6998 73.3574 34.688 73.3593 34.692Z" fill="#263238"/>
<path d="M43.018 48.2471L42.3747 48.0205C39.0194 46.8351 34.6353 43.481 33.3158 37.9228C31.8831 31.8871 32.4021 28.4657 32.424 28.3234L32.6232 27.0686L33.8147 26.7091C33.8586 26.696 34.9277 26.3757 37.9083 25.5873C41.0827 24.7484 42.5647 24.4412 42.6251 24.4281L43.0143 24.3476L43.4036 24.4281C43.4657 24.4412 44.9478 24.7484 48.1203 25.5873C51.1028 26.3757 52.17 26.696 52.2139 26.7091L53.4054 27.0686L53.6046 28.3234C53.6265 28.4657 54.1455 31.8871 52.7128 37.9228C51.3952 43.481 47.0092 46.8369 43.6539 48.0205L43.018 48.2471ZM36.2599 30.2129C36.2581 31.5107 36.4006 33.801 37.1517 36.9659C38.0125 40.5933 40.7172 42.9136 43.018 43.938C45.3188 42.9136 48.0234 40.5933 48.8842 36.9659C49.6353 33.8029 49.7778 31.5126 49.7742 30.2129C49.1547 30.0425 48.2921 29.8084 47.1408 29.505C44.988 28.9357 43.6357 28.6192 43.018 28.4807C42.4021 28.6192 41.0479 28.9376 38.8952 29.505C37.742 29.8084 36.8813 30.0425 36.2599 30.2129Z" fill="#FF80A1"/>
<path d="M43.018 46.9979L42.7494 46.9043C39.67 45.8162 35.6441 42.7375 34.4343 37.6437C33.0564 31.8383 33.5388 28.6454 33.5608 28.5124L33.6448 27.9899L34.1419 27.8401C34.1858 27.827 35.2347 27.5124 38.1989 26.7296C41.344 25.9 42.7969 25.5966 42.8572 25.5853L43.0198 25.5516L43.1825 25.5853C43.2428 25.5985 44.6956 25.9 47.8407 26.7296C50.8049 27.5124 51.8539 27.827 51.8978 27.8401L52.3948 27.9899L52.4789 28.5124C52.5008 28.6454 52.9815 31.8383 51.6054 37.6437C50.3974 42.7394 46.3714 45.8181 43.2903 46.9043L43.018 46.9979ZM35.136 29.3027C35.0703 30.3795 35.0502 33.108 36.0315 37.2448C37.0494 41.5333 40.3663 44.1832 43.0162 45.2113C45.6642 44.1832 48.9829 41.5333 50.0008 37.2448C50.9822 33.1099 50.9639 30.3814 50.8963 29.3027C50.3151 29.1379 49.2205 28.8345 47.4259 28.3607C44.9131 27.6978 43.4749 27.3719 43.0162 27.2708C42.5575 27.3719 41.1192 27.6978 38.6064 28.3607C36.8119 28.8345 35.7172 29.1379 35.136 29.3027Z" fill="white"/>
<path d="M43.0229 27.3306C43.0229 27.3306 44.3565 27.6029 47.2533 28.3618C49.9893 29.0782 50.9477 29.364 50.9477 29.364C50.9477 29.364 51.3983 32.1717 50.1585 37.3565C49.1566 41.5424 45.8711 44.2309 43.0229 45.2281C40.1746 44.2309 36.8891 41.5424 35.8872 37.3565C34.6457 32.1717 35.0981 29.364 35.0981 29.364C35.0981 29.364 36.0564 29.0782 38.7924 28.3618C41.6876 27.6046 43.0229 27.3306 43.0229 27.3306Z" fill="#FF80A1"/>
</g>
<defs>
<clipPath id="clip0_3314_6877">
<rect width="106.58" height="79.4391" fill="white" transform="translate(0.459961)"/>
</clipPath>
</defs>
</svg>
