<svg width="163" height="121" viewBox="0 0 163 121" fill="none" xmlns="http://www.w3.org/2000/svg">
<path d="M1.37195 0.850681C1.69386 20.7467 9.35585 40.5593 24.4001 55.8855C55.5399 87.6089 106.516 88.098 138.259 56.978C154.011 41.5348 162.067 21.2097 162.38 0.774174L1.37195 0.850681Z" fill="#23263B"/>
<mask id="mask0_2758_7156" style="mask-type:alpha" maskUnits="userSpaceOnUse" x="82" y="40" width="81" height="81">
<circle cx="122.5" cy="80.5" r="40.5" fill="#C4C4C4"/>
</mask>
<g mask="url(#mask0_2758_7156)">
<circle cx="122.5" cy="80.5" r="40.5" fill="#FFE0B3"/>
<path d="M72.7428 120.245L173.899 16.8573L175.139 18.0712L73.9835 121.459L72.7428 120.245Z" fill="#FF80A1"/>
<path d="M95.3072 149.752L196.463 46.3645L197.704 47.5784L96.5479 150.966L95.3072 149.752Z" fill="#FF80A1"/>
<path d="M78.3515 122.04L179.507 18.652L180.748 19.8659L79.5922 123.254L78.3515 122.04Z" fill="#FF80A1"/>
<path d="M100.916 151.547L202.072 48.1591L203.312 49.373L102.156 152.761L100.916 151.547Z" fill="#FF80A1"/>
<path d="M83.9599 123.834L185.116 20.4467L186.356 21.6606L85.2006 125.048L83.9599 123.834Z" fill="#FF80A1"/>
<path d="M106.524 153.341L207.68 49.9537L208.921 51.1675L107.765 154.555L106.524 153.341Z" fill="#FF80A1"/>
<path d="M89.5684 125.629L190.724 22.2415L191.965 23.4553L90.809 126.843L89.5684 125.629Z" fill="#FF80A1"/>
<path d="M112.133 155.136L213.289 51.7485L214.529 52.9624L113.373 156.35L112.133 155.136Z" fill="#FF80A1"/>
<path d="M95.1768 127.424L196.333 24.0361L197.573 25.2499L96.4174 128.638L95.1768 127.424Z" fill="#FF80A1"/>
<path d="M117.741 156.931L218.897 53.543L220.138 54.7569L118.982 158.145L117.741 156.931Z" fill="#FF80A1"/>
<path d="M100.785 129.218L201.941 25.8307L203.182 27.0446L102.026 130.432L100.785 129.218Z" fill="#FF80A1"/>
<path d="M123.35 158.725L224.506 55.3376L225.746 56.5515L124.59 159.939L123.35 158.725Z" fill="#FF80A1"/>
<path d="M106.394 131.013L207.55 27.6252L208.79 28.8391L107.635 132.227L106.394 131.013Z" fill="#FF80A1"/>
<path d="M128.958 160.52L230.114 57.1322L231.355 58.346L130.199 161.734L128.958 160.52Z" fill="#FF80A1"/>
</g>
</svg>
