<svg width="25" height="24" viewBox="0 0 25 24" fill="none" xmlns="http://www.w3.org/2000/svg">
<path d="M11.2005 0.842852C11.4694 0.280951 11.9025 0 12.5 0C13.0975 0 13.5306 0.280951 13.7995 0.842852L16.7121 7.02377L23.2543 8.05392C23.8518 8.11635 24.2401 8.44413 24.4193 9.03725C24.5986 9.63037 24.4791 10.1454 24.0609 10.5825L19.3111 15.4055L20.4313 22.2419C20.5209 22.835 20.3267 23.3033 19.8488 23.6467C19.3708 24.0213 18.8779 24.0681 18.3701 23.7872L12.5 20.6031L6.62995 23.7872C6.12211 24.0993 5.6292 24.0681 5.15123 23.6935C4.67326 23.3189 4.47909 22.835 4.56871 22.2419L5.68895 15.4055L0.939134 10.5825C0.520911 10.1454 0.401419 9.63037 0.580657 9.03725C0.759895 8.44413 1.14825 8.11635 1.74571 8.05392L8.2879 7.02377L11.2005 0.842852Z" fill="#FF678E"/>
</svg>
