<svg width="40" height="49" viewBox="0 0 40 49" fill="none" xmlns="http://www.w3.org/2000/svg">
<path d="M18.7005 13.2819C18.9694 12.72 19.4025 12.4391 20 12.4391C20.5975 12.4391 21.0306 12.72 21.2995 13.2819L24.2121 19.4629L30.7543 20.493C31.3518 20.5554 31.7401 20.8832 31.9193 21.4763C32.0986 22.0695 31.9791 22.5845 31.5609 23.0216L26.8111 27.8446L27.9313 34.681C28.0209 35.2741 27.8267 35.7424 27.3488 36.0858C26.8708 36.4604 26.3779 36.5072 25.8701 36.2262L20 33.0421L14.1299 36.2262C13.6221 36.5384 13.1292 36.5072 12.6512 36.1326C12.1733 35.758 11.9791 35.2741 12.0687 34.681L13.1889 27.8446L8.43913 23.0216C8.02091 22.5845 7.90142 22.0695 8.08066 21.4763C8.2599 20.8832 8.64825 20.5554 9.24571 20.493L15.7879 19.4629L18.7005 13.2819Z" fill="#FF678E"/>
</svg>
