<svg xmlns="http://www.w3.org/2000/svg" width="32" height="32" viewBox="0 0 24 24" fill="#FFFFFF"><path d="M23.0506 23.0569C23.4628 22.6447 23.6948 22.0859 23.6956 21.5029L23.7017 2.19981C23.7009 1.61689 23.469 1.05807 23.0568 0.645885C22.6446 0.233696 22.0858 0.00177097 21.5029 0.000956059H2.19672C1.61409 0.00177217 1.05558 0.233796 0.643886 0.646073C0.232188 1.05835 0.000950336 1.61717 0.000950813 2.19981V21.5029C0.000950336 22.0856 0.232188 22.6444 0.643886 23.0567C1.05558 23.469 1.61409 23.701 2.19672 23.7018H21.4967C22.0796 23.701 22.6385 23.4691 23.0506 23.0569ZM2.97279 17.7703C1.95344 16.7479 2.02427 6.88382 2.97279 5.9353C3.9244 4.9837 19.7044 4.91594 20.7268 5.9353C21.7492 6.95465 21.6784 16.8187 20.7268 17.7703C19.7752 18.7219 3.99215 18.7927 2.97279 17.7703ZM10.6441 14.5367L14.2165 12.4764C14.3189 12.418 14.4041 12.3335 14.4633 12.2316C14.5225 12.1296 14.5537 12.0138 14.5537 11.8959C14.5537 11.778 14.5225 11.6622 14.4633 11.5602C14.4041 11.4583 14.3189 11.3738 14.2165 11.3154L10.6441 9.25513C10.543 9.19676 10.4283 9.16602 10.3116 9.16601C10.1948 9.166 10.0801 9.19673 9.97901 9.25509C9.8779 9.31345 9.79392 9.39739 9.73552 9.49849C9.67712 9.59959 9.64637 9.71427 9.64633 9.83102V13.9608C9.64637 14.0775 9.67712 14.1922 9.73552 14.2933C9.79392 14.3944 9.8779 14.4784 9.97901 14.5367C10.0801 14.5951 10.1948 14.6258 10.3116 14.6258C10.4283 14.6258 10.543 14.5951 10.6441 14.5367Z"></path></svg>