<svg xmlns="http://www.w3.org/2000/svg" width="32" height="32" viewBox="0 0 24 24" fill="#FFFFFF"><path d="M23.0467 23.0467C23.4589 22.6345 23.6904 22.0755 23.6904 21.4925V2.1979C23.6904 1.61499 23.4589 1.05594 23.0467 0.643753C22.6345 0.231569 22.0754 9.05991e-06 21.4925 9.05991e-06H2.19789C1.61497 9.05991e-06 1.05594 0.231569 0.643753 0.643753C0.231569 1.05594 9.29832e-06 1.61499 9.29832e-06 2.1979V21.4925C9.29832e-06 22.0755 0.231569 22.6345 0.643753 23.0467C1.05594 23.4589 1.61497 23.6904 2.19789 23.6904H21.4925C22.0754 23.6904 22.6345 23.4589 23.0467 23.0467ZM17.1491 4.80823C17.6183 4.9708 18.1163 5.0337 18.6113 4.99292C18.7313 4.98984 18.759 5.01754 18.7713 5.14991V7.89267C18.7713 7.99734 18.7375 8.0312 18.6451 8.04659C17.9921 8.16975 17.3219 8.16975 16.6689 8.04659C16.5396 8.02196 16.5211 8.0589 16.5211 8.17587V14.591C16.5254 15.8036 16.1492 16.987 15.4456 17.9746C14.742 18.9623 13.7463 19.7043 12.5989 20.0964C11.4514 20.4885 10.2098 20.5108 9.049 20.1602C7.88816 19.8096 6.8665 19.1038 6.12785 18.1421C5.38919 17.1804 4.97076 16.0113 4.93143 14.7993C4.89209 13.5874 5.23383 12.3936 5.90857 11.386C6.5833 10.3784 7.55706 9.60787 8.69271 9.18276C9.82837 8.75765 11.0687 8.69941 12.2392 9.01624C12.307 9.03471 12.3562 9.05011 12.3562 9.14246V12.3285C12.3128 12.3381 12.2865 12.3157 12.2623 12.2952L12.2623 12.2952L12.2622 12.2951C12.2555 12.2894 12.249 12.2839 12.2423 12.2792C11.7414 11.9563 11.1496 11.8035 10.5549 11.8436C9.96026 11.8836 9.39437 12.1144 8.94127 12.5016C8.48816 12.8889 8.17202 13.4119 8.03978 13.9931C7.90755 14.5743 7.96625 15.1826 8.2072 15.7277C8.44816 16.2729 8.85851 16.7258 9.3773 17.0192C9.8961 17.3127 10.4957 17.4309 11.0871 17.3565C11.6784 17.2821 12.23 17.019 12.66 16.6062C13.0899 16.1934 13.3752 15.6529 13.4736 15.0651C13.5013 14.9055 13.5137 14.7437 13.5106 14.5818V3.30602V3.17982H16.5119C16.5334 3.44147 16.5334 3.70312 16.5334 3.9617C16.5383 4.14852 16.5998 4.32947 16.7097 4.48061C16.8197 4.63176 16.9729 4.74599 17.1491 4.80823Z"></path></svg>