<svg xmlns="http://www.w3.org/2000/svg" width="32" height="32" viewBox="0 0 24 24" fill="#FFFFFF"><path d="M23.2,0.8c-0.4-0.4-1-0.6-1.6-0.6H2.4c-0.6,0-1.1,0.2-1.6,0.6c-0.4,0.4-0.6,1-0.6,1.6v19.3  c0,0.6,0.2,1.1,0.6,1.6c0.4,0.4,1,0.6,1.6,0.6h19.3c0.6,0,1.1-0.2,1.6-0.6c0.4-0.4,0.6-1,0.6-1.6V2.4C23.8,1.8,23.6,1.2,23.2,0.8z   M19.6,8c0,0.2,0,0.3,0,0.5c0,5.2-4,11.2-11.2,11.2c-2.2,0-4.3-0.6-6.1-1.8c0.3,0,0.6,0,1,0c1.8,0,3.5-0.6,4.9-1.7  c-1.7,0-3.2-1.2-3.7-2.7c0.2,0,0.5,0.1,0.7,0.1c0.4,0,0.7,0,1-0.1c-1.8-0.4-3.2-2-3.2-3.9v0c0.5,0.3,1.1,0.5,1.8,0.5  C3.8,9.4,3.1,8.2,3.1,6.9c0-0.7,0.2-1.4,0.5-2c1.9,2.4,4.9,4,8.1,4.1c-0.1-0.3-0.1-0.6-0.1-0.9c0-2.2,1.8-3.9,3.9-3.9  c1.1,0,2.2,0.5,2.9,1.2c0.9-0.2,1.7-0.5,2.5-1c-0.3,0.9-0.9,1.7-1.7,2.2c0.8-0.1,1.6-0.3,2.3-0.6C21,6.8,20.3,7.5,19.6,8z"></path></svg>