<?xml version="1.0" encoding="UTF-8"?>
<svg xmlns="http://www.w3.org/2000/svg" xmlns:xlink="http://www.w3.org/1999/xlink" width="24pt" height="24pt" viewBox="0 0 24 24" version="1.1">
<g id="surface1">
<path style=" stroke:none;fill-rule:evenodd;fill:rgb(0%,0%,0%);fill-opacity:1;" d="M 11.0625 0.046875 C 0.789062 0.921875 -3.703125 13.414062 3.679688 20.59375 C 10.265625 26.996094 21.335938 23.851562 23.617188 14.929688 C 25.628906 7.0625 19.132812 -0.640625 11.0625 0.046875 M 13.609375 2.058594 C 21.066406 3.316406 24.589844 12.019531 20.074219 18.011719 C 14.257812 25.730469 1.945312 21.648438 1.945312 12 C 1.945312 6.710938 5.710938 2.617188 11.183594 1.949219 C 11.59375 1.898438 13.054688 1.964844 13.609375 2.058594 M 9.339844 6.980469 C 8.097656 7.628906 6.761719 9.207031 6.824219 9.953125 C 6.867188 10.449219 7.140625 10.65625 7.753906 10.65625 C 8.28125 10.65625 8.398438 10.585938 8.726562 10.085938 C 8.875 9.859375 9.148438 9.519531 9.335938 9.335938 C 9.519531 9.148438 9.859375 8.875 10.085938 8.726562 C 10.585938 8.398438 10.65625 8.28125 10.65625 7.753906 C 10.65625 6.902344 10.105469 6.578125 9.339844 6.980469 M 13.738281 6.894531 C 13.460938 7.03125 13.371094 7.21875 13.351562 7.6875 C 13.328125 8.269531 13.390625 8.382812 13.914062 8.726562 C 14.441406 9.070312 14.929688 9.558594 15.273438 10.085938 C 15.851562 10.96875 17.097656 10.878906 17.175781 9.953125 C 17.269531 8.789062 14.644531 6.449219 13.738281 6.894531 M 7.210938 13.421875 C 6.496094 13.777344 6.816406 14.832031 7.992188 16.007812 C 9.441406 17.460938 10.65625 17.570312 10.65625 16.246094 C 10.65625 15.71875 10.585938 15.601562 10.085938 15.273438 C 9.558594 14.929688 9.070312 14.441406 8.726562 13.914062 C 8.355469 13.351562 7.753906 13.15625 7.210938 13.421875 M 15.703125 13.425781 C 15.59375 13.480469 15.453125 13.636719 15.269531 13.917969 C 14.929688 14.441406 14.441406 14.929688 13.914062 15.273438 C 13.03125 15.851562 13.121094 17.097656 14.046875 17.175781 C 15.015625 17.253906 17.253906 15.015625 17.175781 14.046875 C 17.125 13.445312 16.335938 13.113281 15.703125 13.425781 "/>
</g>
</svg>
