<?xml version="1.0" encoding="UTF-8"?>
<svg xmlns="http://www.w3.org/2000/svg" xmlns:xlink="http://www.w3.org/1999/xlink" width="24pt" height="24pt" viewBox="0 0 24 24" version="1.1">
<g id="surface1">
<path style=" stroke:none;fill-rule:evenodd;fill:rgb(0%,0%,0%);fill-opacity:1;" d="M 10.78125 3.101562 C 4.242188 3.945312 0.902344 11.726562 4.804688 17.019531 C 9.136719 22.898438 18.1875 21.410156 20.378906 14.457031 C 22.296875 8.371094 17.152344 2.28125 10.78125 3.101562 M 13.195312 4.554688 C 17.785156 5.570312 20.4375 10.023438 18.933594 14.183594 C 18.121094 16.429688 16.523438 18.027344 14.277344 18.839844 C 10.503906 20.203125 6.410156 18.15625 4.972656 14.183594 C 3.414062 9.875 6.300781 5.328125 11.144531 4.460938 C 11.894531 4.324219 12.230469 4.339844 13.195312 4.554688 M 10.875 9.261719 C 10.175781 9.609375 10.546875 10.171875 11.285156 9.890625 C 11.695312 9.734375 11.726562 9.699219 11.699219 9.429688 C 11.664062 9.074219 11.371094 9.015625 10.875 9.261719 M 12.25 9.15625 C 12.03125 9.375 12.199219 9.730469 12.589844 9.878906 C 13.199219 10.109375 13.5 10.035156 13.5 9.648438 C 13.5 9.378906 12.445312 8.960938 12.25 9.15625 M 9.503906 10.640625 C 9.195312 11.308594 9.230469 11.570312 9.625 11.605469 C 9.894531 11.632812 9.933594 11.601562 10.019531 11.324219 C 10.070312 11.15625 10.164062 10.882812 10.230469 10.71875 C 10.527344 9.976562 9.839844 9.902344 9.503906 10.640625 M 13.773438 10.300781 C 13.558594 10.472656 13.558594 10.484375 13.710938 10.839844 C 13.792969 11.039062 13.890625 11.300781 13.925781 11.417969 C 13.972656 11.597656 14.039062 11.628906 14.28125 11.605469 C 14.675781 11.570312 14.707031 11.308594 14.402344 10.640625 C 14.140625 10.074219 14.089844 10.042969 13.773438 10.300781 M 9.3125 12.238281 C 9.21875 12.484375 9.582031 13.261719 9.808594 13.292969 C 10.15625 13.34375 10.265625 13.089844 10.105469 12.585938 C 9.949219 12.097656 9.453125 11.878906 9.3125 12.238281 M 13.910156 12.257812 C 13.882812 12.347656 13.8125 12.539062 13.757812 12.6875 C 13.644531 12.988281 13.925781 13.382812 14.183594 13.285156 C 14.359375 13.21875 14.667969 12.429688 14.59375 12.238281 C 14.511719 12.03125 13.976562 12.046875 13.910156 12.257812 M 10.410156 13.636719 C 10.21875 13.867188 10.339844 14.085938 10.78125 14.3125 C 11.359375 14.609375 11.664062 14.574219 11.699219 14.199219 C 11.742188 13.78125 10.675781 13.316406 10.410156 13.636719 M 12.632812 13.710938 C 11.867188 14.050781 12.050781 14.699219 12.839844 14.4375 C 13.398438 14.253906 13.757812 13.925781 13.632812 13.71875 C 13.488281 13.480469 13.15625 13.480469 12.632812 13.710938 "/>
</g>
</svg>
