<?xml version="1.0" encoding="UTF-8"?>
<svg width="120px" height="120px" viewBox="0 0 120 120" version="1.1" xmlns="http://www.w3.org/2000/svg" xmlns:xlink="http://www.w3.org/1999/xlink">
    <!-- Generator: Sketch 56.3 (81716) - https://sketch.com -->
    <title>accounts</title>
    <desc>Created with Sketch.</desc>
    <g id="accounts" stroke="none" stroke-width="1" fill="none" fill-rule="evenodd">
        <path d="M115.000154,10 C117.762,10 120,12.2379862 120,15.0000169 L120,104.999925 C120,107.761771 117.762,109.999771 115.000154,109.999771 L4.99998462,109.999771 C2.238,109.999771 0,107.761771 0,104.999925 L0,15.0000169 C0,12.2379862 2.238,10 4.99998462,10 L115.000154,10 Z M9.99992308,100.00054 L109.999846,100.00054 L109.999846,20.00074 L9.99992308,20.00074 L9.99992308,100.00054 Z M27.9998769,42.5000015 C25.2378462,42.5000015 22.9998462,40.2620015 22.9998462,37.5000169 C22.9998462,34.7379862 25.2378462,32.4999862 27.9998769,32.4999862 L33.9998769,32.4999862 C36.7618615,32.4999862 38.9998615,34.7379862 38.9998615,37.5000169 C38.9998615,40.2620015 36.7618615,42.5000015 33.9998769,42.5000015 L27.9998769,42.5000015 Z M27.9998769,64.9997708 C25.2378462,64.9997708 22.9998462,62.7617708 22.9998462,59.9999246 C22.9998462,57.2380785 25.2378462,55.0000785 27.9998769,55.0000785 L33.9998769,55.0000785 C36.7618615,55.0000785 38.9998615,57.2380785 38.9998615,59.9999246 C38.9998615,62.7617708 36.7618615,64.9997708 33.9998769,64.9997708 L27.9998769,64.9997708 Z M27.9998769,87.5002323 C25.2378462,87.5002323 22.9998462,85.2622323 22.9998462,82.4999246 C22.9998462,79.7380785 25.2378462,77.5000785 27.9998769,77.5000785 L33.9998769,77.5000785 C36.7618615,77.5000785 38.9998615,79.7380785 38.9998615,82.4999246 C38.9998615,85.2622323 36.7618615,87.5002323 33.9998769,87.5002323 L27.9998769,87.5002323 Z M54,42.5000015 C51.2381538,42.5000015 49.0001538,40.2620015 49.0001538,37.5000169 C49.0001538,34.7379862 51.2381538,32.4999862 54,32.4999862 L91.9998462,32.4999862 C94.7621538,32.4999862 97.0001538,34.7379862 97.0001538,37.5000169 C97.0001538,40.2620015 94.7621538,42.5000015 91.9998462,42.5000015 L54,42.5000015 Z M54,64.9997708 C51.2381538,64.9997708 49.0001538,62.7617708 49.0001538,59.9999246 C49.0001538,57.2380785 51.2381538,55.0000785 54,55.0000785 L91.9998462,55.0000785 C94.7621538,55.0000785 97.0001538,57.2380785 97.0001538,59.9999246 C97.0001538,62.7617708 94.7621538,64.9997708 91.9998462,64.9997708 L54,64.9997708 Z M54,87.5002323 C51.2381538,87.5002323 49.0001538,85.2622323 49.0001538,82.4999246 C49.0001538,79.7380785 51.2381538,77.5000785 54,77.5000785 L91.9998462,77.5000785 C94.7621538,77.5000785 97.0001538,79.7380785 97.0001538,82.4999246 C97.0001538,85.2622323 94.7621538,87.5002323 91.9998462,87.5002323 L54,87.5002323 Z" id="Shape" fill="#222222"></path>
    </g>
</svg>