<svg xmlns="http://www.w3.org/2000/svg" height="18" viewBox="0 0 18 18" width="18">
  <defs>
    <style>
      .a {
        fill: #6E6E6E;
      }
    </style>
  </defs>
  <title>S LinkGlobe 18 N</title>
  <rect id="Canvas" fill="#ff13dc" opacity="0" width="18" height="18" /><path class="a" d="M7.374,14.0285a4.00441,4.00441,0,0,1-.411-.116c-.26.26-.75.7735-.8565.881a2.05061,2.05061,0,0,1-2.9-2.9L6.8,8.3a2.29247,2.29247,0,0,1,1.683-.646,1.96952,1.96952,0,0,1,1.339.556,3.29946,3.29946,0,0,1,.2195.255,6.13141,6.13141,0,0,1,1.2765-.6595,3.42347,3.42347,0,0,0-.4755-.6165,3.6555,3.6555,0,0,0-5.13.024l-3.593,3.593A3.58821,3.58821,0,0,0,7.194,15.8805c.071-.071.239-.2425.45-.457A6.12428,6.12428,0,0,1,7.374,14.0285Z" />
  <path class="a" d="M8.463,10.028a1.78952,1.78952,0,0,1-.297-.239,2.07953,2.07953,0,0,1-.6205-.8125,1.02024,1.02024,0,0,0-.214.159l-.818.856a3.58213,3.58213,0,0,0,.6135.8365,3.05776,3.05776,0,0,0,.65.485A6.13565,6.13565,0,0,1,8.463,10.028Z" />
  <path class="a" d="M11.861,3.2395a2.05061,2.05061,0,1,1,2.9,2.9L13.5,7.4a6.146,6.146,0,0,1,1.8795.295l.469-.4685A3.5891,3.5891,0,1,0,10.7735,2.15c-.1925.1925-2.132,2.111-2.6755,2.6545a4.15006,4.15006,0,0,1,1.871.3035C10.2295,4.85,11.7535,3.347,11.861,3.2395Z" />
  <path class="a" d="M10.49,12.323c-.291-1.0535.4605-1.5065.386-2.4065A4.47051,4.47051,0,0,0,9.059,13.5a4.71011,4.71011,0,0,0,3.7695,4.3755,1.91928,1.91928,0,0,0,.2905.046c.5565-1.4185-.493-3-1.1855-4.031C11.357,13.0325,10.833,13.563,10.49,12.323Z" />
  <path class="a" d="M17.62,13.7865c-.45-.1705-.832.4105-.866-1.158a1.603,1.603,0,0,1,.4635-1.1125.85914.85914,0,0,1,.2025-.097c-.053-.097-.1125-.19-.1725-.283-.0105.0055-.0195.0125-.0305.0175-.35.162-.396.21-.556,0a.43853.43853,0,0,1,.096-.647,4.446,4.446,0,0,0-3.241-1.45c.564.0075,1.2365.4255.8935,1.0925.05-.106-1.12-.359-1.2795-.359-.2145,0,.4385-.8035.3785-.734a4.473,4.473,0,0,0-1.84.3955c.304.1965.643.128.9855.2125.0735.0085.1.025,0,0-.5055-.0585.2445,1.3285.2165,1.144a.6405.6405,0,0,1,1.27-.041,1.041,1.041,0,0,1-.233.63c-.3925.5155-.472,1.4335-.6675,1.2-1.833-.75-1.631.242-1.0295.906.963,1.0625.4745.109,1.736.665,1.0145.4475,2.2355.553,1.9375.8905-.9,1.021-.712,1.6975-2.3065,2.8935.133-.0035.556-.046.6425-.06a4.526,4.526,0,0,0,3.72-4.0055A.66806.66806,0,0,1,17.62,13.7865Z" />
</svg>