<svg width="75.0607" height="15.6202" viewBox="0 0 75.0607 15.6202" fill="none" xmlns="http://www.w3.org/2000/svg">
<g id="Group">
<path id="Vector" d="M7.875 9.2687H3.1416L2.0049 12.6252H0L4.4834 0.207199H6.5664L11.0498 12.6252H9.0108L7.875 9.2687ZM3.6319 7.7198H7.3839L5.5343 2.2725H5.4825L3.6319 7.7198Z" fill="var(--fill-0, white)"/>
<path id="Vector_2" d="M20.7325 8.0987C20.7325 10.9122 19.2266 12.7198 16.9542 12.7198C15.7796 12.7812 14.6732 12.166 14.1056 11.1358H14.0626V15.6202H12.2042V3.5714H14.0031V5.0773H14.0373C14.6301 4.0535 15.7377 3.4386 16.9201 3.4767C19.2178 3.4767 20.7325 5.2931 20.7325 8.0987ZM18.8223 8.0987C18.8223 6.2657 17.875 5.0606 16.4297 5.0606C15.0098 5.0606 14.0547 6.2911 14.0547 8.0987C14.0547 9.9229 15.0098 11.1446 16.4297 11.1446C17.875 11.1446 18.8223 9.9483 18.8223 8.0987Z" fill="var(--fill-0, white)"/>
<path id="Vector_3" d="M30.6973 8.0987C30.6973 10.9122 29.1914 12.7198 26.919 12.7198C25.7444 12.7812 24.638 12.166 24.0704 11.1358H24.0274V15.6202H22.169V3.5714H23.9678V5.0773H24.002C24.5948 4.0535 25.7024 3.4386 26.8848 3.4767C29.1826 3.4767 30.6973 5.2931 30.6973 8.0987ZM28.7871 8.0987C28.7871 6.2657 27.8398 5.0606 26.3945 5.0606C24.9746 5.0606 24.0195 6.2911 24.0195 8.0987C24.0195 9.9229 24.9746 11.1446 26.3945 11.1446C27.8399 11.1446 28.7871 9.9483 28.7871 8.0987Z" fill="var(--fill-0, white)"/>
<path id="Vector_4" d="M37.2832 9.1651C37.4209 10.3965 38.6172 11.2051 40.252 11.2051C41.8184 11.2051 42.9454 10.3965 42.9454 9.2862C42.9454 8.3223 42.2657 7.7452 40.6563 7.3497L39.0469 6.962C36.7666 6.4112 35.708 5.3448 35.708 3.6143C35.708 1.4717 37.5752 0 40.2265 0C42.8505 0 44.6494 1.4717 44.7099 3.6143H42.8339C42.7216 2.375 41.6972 1.627 40.2001 1.627C38.703 1.627 37.6786 2.3838 37.6786 3.4854C37.6786 4.3633 38.3329 4.8799 39.9335 5.2754L41.3017 5.6113C43.8496 6.2138 44.9081 7.2373 44.9081 9.0537C44.9081 11.3769 43.0575 12.832 40.1142 12.832C37.3603 12.832 35.5009 11.4111 35.3808 9.165L37.2832 9.1651Z" fill="var(--fill-0, white)"/>
<path id="Vector_5" d="M48.919 1.4288V3.5714H50.6407V5.0431H48.919V10.0343C48.919 10.8097 49.2637 11.171 50.0206 11.171C50.225 11.1674 50.429 11.1531 50.6319 11.128V12.5909C50.2916 12.6545 49.9458 12.6833 49.5997 12.6768C47.7667 12.6768 47.0518 11.9883 47.0518 10.2325V5.0431H45.7354V3.5714H47.0518V1.4288H48.919V1.4288Z" fill="var(--fill-0, white)"/>
<path id="Vector_6" d="M51.6378 8.0987C51.6378 5.2501 53.3155 3.46 55.9317 3.46C58.5567 3.46 60.2266 5.25 60.2266 8.0987C60.2266 10.9551 58.5655 12.7374 55.9317 12.7374C53.2989 12.7374 51.6378 10.9552 51.6378 8.0987ZM58.3331 8.0987C58.3331 6.1446 57.4376 4.9913 55.9317 4.9913C54.4258 4.9913 53.5313 6.1534 53.5313 8.0987C53.5313 10.0606 54.4258 11.2051 55.9317 11.2051C57.4376 11.2051 58.333 10.0606 58.3331 8.0987Z" fill="var(--fill-0, white)"/>
<path id="Vector_7" d="M61.7588 3.5714H63.5313V5.1124H63.5743C63.8215 4.1204 64.7304 3.4377 65.752 3.4767C65.9662 3.476 66.1797 3.4992 66.3887 3.546V5.2843C66.1183 5.2017 65.8363 5.1637 65.5537 5.172C64.5203 5.1301 63.6486 5.9338 63.6067 6.9672C63.6028 7.0633 63.6063 7.1595 63.6172 7.255V12.6251H61.7588V3.5714Z" fill="var(--fill-0, white)"/>
<path id="Vector_8" d="M74.9571 9.9659C74.7071 11.6095 73.1065 12.7374 71.0587 12.7374C68.4249 12.7374 66.7902 10.9727 66.7902 8.1417C66.7902 5.3019 68.4337 3.4601 70.9806 3.4601C73.4855 3.4601 75.0607 5.1808 75.0607 7.9259V8.5626H68.6662V8.6749C68.5513 9.9721 69.5098 11.1168 70.807 11.2318C70.905 11.2405 71.0035 11.243 71.1018 11.2394C72.0036 11.3239 72.8539 10.806 73.1926 9.966L74.9571 9.9659ZM68.6748 7.2638H73.2012C73.2681 6.0632 72.349 5.0357 71.1483 4.9688C71.0924 4.9657 71.0364 4.9647 70.9805 4.9659C69.7147 4.9583 68.6824 5.9784 68.6749 7.2442C68.6748 7.2507 68.6748 7.2572 68.6748 7.2638Z" fill="var(--fill-0, white)"/>
</g>
</svg>
