<svg width="17.7165" height="21.776" viewBox="0 0 17.7165 21.776" fill="none" xmlns="http://www.w3.org/2000/svg">
<g id="_Group_3">
<path id="_Path_" d="M14.7973 11.5804C14.8192 9.8839 15.7085 8.3169 17.1539 7.4283C16.238 6.1202 14.7589 5.3206 13.1627 5.2706C11.4835 5.0943 9.85549 6.2754 8.99979 6.2754C8.12749 6.2754 6.80999 5.2881 5.39129 5.3173C3.52459 5.3776 1.82659 6.4132 0.91839 8.0452C-1.01561 11.3936 0.426991 16.3147 2.27959 19.0213C3.20649 20.3466 4.28979 21.8271 5.70719 21.7746C7.09429 21.7171 7.61229 20.8901 9.28659 20.8901C10.9454 20.8901 11.4314 21.7746 12.8776 21.7412C14.366 21.717 15.3037 20.41 16.1981 19.0721C16.8641 18.1277 17.3765 17.084 17.7165 15.9796C15.9488 15.2319 14.7994 13.4997 14.7973 11.5804Z" fill="var(--fill-0, white)"/>
<path id="_Path_2" d="M12.0657 3.4906C12.8772 2.5164 13.277 1.2642 13.1802 0C11.9404 0.1302 10.7951 0.7228 9.97259 1.6596C9.16039 2.5839 8.74899 3.7932 8.82889 5.021C10.0854 5.0339 11.2784 4.4699 12.0657 3.4906Z" fill="var(--fill-0, white)"/>
</g>
</svg>
