<svg width="69.144" height="6.35836" viewBox="0 0 69.144 6.35836" fill="none" xmlns="http://www.w3.org/2000/svg">
<g id="Group">
<path id="Vector" d="M2.1553 0.294C3.6094 0.1897 4.8728 1.2838 4.9771 2.7379C4.9896 2.9116 4.9848 3.0861 4.9629 3.2588C4.9629 5.165 3.9326 6.2608 2.1553 6.2608H0V0.294H2.1553ZM0.926697 5.417H2.0517C3.0859 5.4788 3.9743 4.6906 4.0362 3.6564C4.0439 3.5277 4.0383 3.3986 4.0195 3.271C4.1607 2.2418 3.4408 1.293 2.4116 1.1518C2.2924 1.1354 2.1719 1.1306 2.0517 1.1372H0.926697V5.417V5.417Z" fill="var(--fill-0, white)"/>
<path id="Vector_2" d="M6.00996 4.0072C5.89776 2.8344 6.75756 1.7927 7.93036 1.6805C9.10316 1.5683 10.1449 2.4281 10.2571 3.6009C10.27 3.736 10.27 3.8721 10.2571 4.0072C10.3713 5.18 9.51316 6.2233 8.34036 6.3375C7.16756 6.4517 6.12426 5.5936 6.01006 4.4208C5.99666 4.2833 5.99666 4.1448 6.00996 4.0072ZM9.34296 4.0072C9.34296 3.0311 8.90446 2.4603 8.13496 2.4603C7.36246 2.4603 6.92796 3.0311 6.92796 4.0072C6.92796 4.9911 7.36256 5.5575 8.13496 5.5575C8.90456 5.5575 9.34306 4.9872 9.34296 4.0072Z" fill="var(--fill-0, white)"/>
<path id="Vector_3" d="M15.9023 6.2608H14.9804L14.0497 2.9444H13.9794L13.0526 6.2608H12.1395L10.8983 1.7579H11.7997L12.6063 5.1939H12.6727L13.5985 1.7579H14.451L15.3768 5.1939H15.4471L16.2498 1.7579H17.1385L15.9023 6.2608Z" fill="var(--fill-0, white)"/>
<path id="Vector_4" d="M18.1826 1.7578H19.0381V2.4731H19.1045C19.3354 1.9464 19.8751 1.6243 20.4483 1.6709C21.2549 1.6103 21.9579 2.215 22.0185 3.0215C22.0266 3.1297 22.0227 3.2384 22.0069 3.3457V6.2607H21.1181V3.5689C21.1181 2.8453 20.8036 2.4854 20.1464 2.4854C19.5765 2.4589 19.0931 2.8993 19.0665 3.4692C19.0641 3.5217 19.0656 3.5743 19.0712 3.6265V6.2608H18.1825L18.1826 1.7578Z" fill="var(--fill-0, white)"/>
<path id="Vector_5" d="M23.4228 0H24.3115V6.2607H23.4228V0Z" fill="var(--fill-0, white)"/>
<path id="Vector_6" d="M25.5471 4.00728C25.435 2.83438 26.2949 1.79258 27.4679 1.68048C28.6408 1.56838 29.6826 2.42828 29.7947 3.60128C29.8076 3.73628 29.8076 3.87228 29.7947 4.00728C29.9088 5.18018 29.0504 6.22358 27.8775 6.33758C26.7046 6.45158 25.6612 5.59328 25.5472 4.42038C25.5337 4.28308 25.5337 4.14468 25.5471 4.00728ZM28.8801 4.00728C28.8801 3.03118 28.4416 2.46038 27.6721 2.46038C26.8996 2.46038 26.4651 3.03118 26.4651 4.00728C26.4651 4.99118 26.8997 5.55758 27.6721 5.55758C28.4416 5.55758 28.8801 4.98728 28.8801 4.00728Z" fill="var(--fill-0, white)"/>
<path id="Vector_7" d="M30.7305 4.9872C30.7305 4.1767 31.334 3.7094 32.4053 3.643L33.625 3.5727V3.184C33.625 2.7084 33.3105 2.4399 32.7031 2.4399C32.207 2.4399 31.8633 2.622 31.7646 2.9404H30.9042C30.995 2.167 31.7226 1.6709 32.744 1.6709C33.8729 1.6709 34.5096 2.2329 34.5096 3.1841V6.2608H33.6541V5.6279H33.5838C33.2932 6.09 32.7765 6.3601 32.2313 6.3349C31.4841 6.4126 30.8153 5.8699 30.7376 5.1227C30.7331 5.0776 30.7306 5.0324 30.7305 4.9872ZM33.625 4.6024V4.2259L32.5254 4.2962C31.9053 4.3377 31.624 4.5486 31.624 4.9456C31.624 5.3509 31.9756 5.5867 32.459 5.5867C33.0423 5.6457 33.563 5.2208 33.622 4.6375C33.6232 4.6259 33.6242 4.6142 33.625 4.6024Z" fill="var(--fill-0, white)"/>
<path id="Vector_8" d="M35.6768 4.0073C35.6768 2.5845 36.4082 1.6831 37.5459 1.6831C38.1204 1.6566 38.6584 1.9645 38.9268 2.4731H38.9932V0H39.8819V6.2607H39.0303V5.5493H38.96C38.6714 6.0537 38.1267 6.3563 37.5459 6.3349C36.4005 6.335 35.6768 5.4336 35.6768 4.0073ZM36.5948 4.0073C36.5948 4.9624 37.045 5.5371 37.7979 5.5371C38.5469 5.5371 39.0098 4.9541 39.0098 4.0112C39.0098 3.0727 38.542 2.4814 37.7979 2.4814C37.0499 2.4815 36.5948 3.0601 36.5948 4.0073Z" fill="var(--fill-0, white)"/>
<path id="Vector_9" d="M43.5591 4.0073C43.4469 2.8345 44.3067 1.7928 45.4795 1.6806C46.6523 1.5684 47.694 2.4282 47.8062 3.601C47.8191 3.7361 47.8191 3.8722 47.8062 4.0073C47.9204 5.1801 47.0623 6.2234 45.8895 6.3376C44.7167 6.4518 43.6734 5.5937 43.5592 4.4209C43.5457 4.2834 43.5457 4.1449 43.5591 4.0073ZM46.8921 4.0073C46.8921 3.0312 46.4536 2.4604 45.6841 2.4604C44.9116 2.4604 44.4771 3.0312 44.4771 4.0073C44.4771 4.9912 44.9117 5.5576 45.6841 5.5576C46.4536 5.5576 46.8921 4.9873 46.8921 4.0073Z" fill="var(--fill-0, white)"/>
<path id="Vector_10" d="M48.998 1.75786H49.8535V2.47316H49.9199C50.1508 1.94646 50.6905 1.62436 51.2637 1.67096C52.0703 1.61036 52.7733 2.21506 52.8339 3.02156C52.842 3.12976 52.8381 3.23846 52.8223 3.34576V6.26076H51.9336V3.56896C51.9336 2.84536 51.6191 2.48546 50.9619 2.48546C50.392 2.45896 49.9086 2.89936 49.882 3.46926C49.8796 3.52176 49.8811 3.57436 49.8867 3.62656V6.26086H48.998V1.75786Z" fill="var(--fill-0, white)"/>
<path id="Vector_11" d="M57.8446 0.636719V1.77832H58.8202V2.52682H57.8446V4.84222C57.8446 5.31392 58.039 5.52042 58.4813 5.52042C58.5946 5.52002 58.7077 5.51322 58.8202 5.49992V6.24012C58.6606 6.26872 58.4989 6.28382 58.3368 6.28552C57.3485 6.28552 56.955 5.93782 56.955 5.06972V2.52672H56.2402V1.77822H56.955V0.636719H57.8446Z" fill="var(--fill-0, white)"/>
<path id="Vector_12" d="M60.0342 0H60.9151V2.4815H60.9854C61.2274 1.9502 61.7765 1.6276 62.3584 1.6749C63.1765 1.6304 63.8757 2.2575 63.9202 3.0755C63.9253 3.1683 63.9216 3.2615 63.9092 3.3536V6.2608H63.0196V3.5728C63.0196 2.8536 62.6846 2.4893 62.0567 2.4893C61.4777 2.4418 60.9698 2.8727 60.9223 3.4517C60.9174 3.5113 60.9176 3.5713 60.9229 3.6309V6.2608H60.0342V0Z" fill="var(--fill-0, white)"/>
<path id="Vector_13" d="M69.0903 5.0449C68.8411 5.8943 68.0191 6.4431 67.1391 6.3476C66.0099 6.3774 65.0703 5.4862 65.0405 4.357C65.0376 4.2455 65.0438 4.1339 65.059 4.0234C64.9067 2.8865 65.7048 1.8415 66.8417 1.6892C66.939 1.6762 67.037 1.67 67.1352 1.6709C68.3881 1.6709 69.144 2.5269 69.144 3.9409V4.251H65.9643V4.3008C65.9091 4.9558 66.3954 5.5315 67.0504 5.5867C67.088 5.5899 67.1257 5.5912 67.1635 5.5908C67.5983 5.643 68.0215 5.4273 68.2348 5.0449H69.0903ZM65.9643 3.5938H68.2387C68.2831 2.9954 67.8339 2.4743 67.2355 2.43C67.2005 2.4274 67.1654 2.4265 67.1303 2.4273C66.4943 2.4193 65.9723 2.9284 65.9643 3.5644C65.9642 3.5741 65.9642 3.5839 65.9643 3.5938Z" fill="var(--fill-0, white)"/>
</g>
</svg>
