<svg width="135" height="40.0012" viewBox="0 0 135 40.0012" fill="none" xmlns="http://www.w3.org/2000/svg">
<path id="Vector" d="M134.992 8.4454C134.992 8.1388 134.992 7.8311 134.988 7.5245C134.976 6.8535 134.914 6.1843 134.803 5.5225C134.694 4.8603 134.485 4.2186 134.184 3.6192C133.566 2.4163 132.587 1.4371 131.385 0.8194C130.783 0.5167 130.14 0.3054 129.477 0.1924C128.815 0.0822 128.147 0.0231 127.477 0.0156C127.172 0.0107 126.859 0.0049 126.555 0.0029C126.195 0.000900004 125.83 0.0009 125.471 0.0009V0.001L9.5347 0C9.168 0 8.8057 3.95812e-09 8.44 0.002C8.1338 0.004 7.8301 0.0098 7.521 0.0147C6.8495 0.0226 6.1796 0.0817 5.5171 0.1914C4.8555 0.3035 4.2147 0.5149 3.6162 0.8184C3.0185 1.1244 2.4723 1.5221 1.9975 1.997C1.5203 2.4707 1.1224 3.018 0.8193 3.6182C0.5153 4.2171 0.3046 4.859 0.1943 5.5215C0.083 6.1832 0.0231 6.8526 0.0151 7.5235C0.0059 7.8301 0.0049 8.1377 0 8.4443V31.5586C0.0049 31.8691 0.0059 32.1699 0.0151 32.4805C0.023 33.1515 0.083 33.8208 0.1943 34.4825C0.3043 35.1454 0.5151 35.7876 0.8193 36.3868C1.1223 36.985 1.5202 37.5302 1.9975 38.0011C2.4705 38.4782 3.017 38.8761 3.6162 39.1798C4.2146 39.4841 4.8555 39.6968 5.5171 39.8106C6.1798 39.9195 6.8496 39.9786 7.521 39.9874C7.8301 39.9942 8.1338 39.9981 8.4399 39.9981C8.8056 40.0001 9.168 40.0001 9.5346 40.0001L125.471 40.0012C125.83 40.0012 126.195 40.0012 126.555 39.9992C126.859 39.9992 127.172 39.9953 127.477 39.9885C128.147 39.9801 128.815 39.921 129.477 39.8117C130.14 39.6971 130.783 39.4845 131.385 39.1809C131.983 38.877 132.529 38.4791 133.002 38.0022C133.478 37.5294 133.877 36.9847 134.184 36.3879C134.486 35.7883 134.694 35.1461 134.803 34.4836C134.914 33.8218 134.976 33.1527 134.988 32.4817C134.992 32.1711 134.992 31.8702 134.992 31.5598C135 31.1964 135 30.8351 135 30.4659V9.5372C135 9.171 135 8.8077 134.992 8.4454ZM134.127 30.4659C134.127 30.8292 134.127 31.1837 134.119 31.5411C134.119 31.8663 134.119 32.1642 134.115 32.4708C134.104 33.092 134.046 33.7115 133.944 34.3243C133.851 34.9054 133.669 35.4686 133.404 35.9943C133.141 36.5067 132.798 36.9743 132.389 37.38C131.98 37.7938 131.508 38.139 130.989 38.4025C130.464 38.6686 129.902 38.8539 129.321 38.9523C128.703 39.0533 128.079 39.1078 127.452 39.1154C127.159 39.1222 126.853 39.1261 126.555 39.1261L125.471 39.1281L8.4448 39.125C8.1401 39.125 7.8428 39.1211 7.5405 39.1143C6.9143 39.1061 6.2895 39.0516 5.6714 38.9512C5.095 38.852 4.5366 38.6673 4.0147 38.4033C3.4975 38.1415 3.0259 37.7983 2.6177 37.3867C2.2036 36.98 1.8589 36.5082 1.5972 35.9902C1.3326 35.4688 1.1494 34.9099 1.0542 34.333C0.9514 33.7131 0.8957 33.0863 0.8877 32.458C0.8814 32.2471 0.8731 31.5449 0.8731 31.5449V8.4443C0.8731 8.4443 0.882 7.7529 0.8878 7.5498C0.8954 6.9225 0.9508 6.2966 1.0533 5.6777C1.1488 5.0992 1.332 4.5387 1.5968 4.0156C1.8576 3.4979 2.2004 3.0259 2.6119 2.6177C3.023 2.2057 3.4962 1.8606 4.0142 1.5952C4.535 1.3321 5.0923 1.1487 5.6675 1.0513C6.2877 0.9498 6.9146 0.895 7.543 0.8872L8.4453 0.875L126.55 0.8761L127.463 0.8888C128.086 0.8962 128.707 0.9506 129.321 1.0514C129.902 1.1501 130.466 1.3347 130.992 1.5993C132.03 2.1342 132.874 2.9803 133.407 4.0192C133.668 4.5387 133.848 5.0946 133.942 5.6681C134.046 6.2921 134.104 6.9229 134.116 7.5553C134.119 7.8385 134.119 8.1427 134.119 8.4454C134.127 8.8204 134.127 9.1773 134.127 9.5372V30.4659Z" fill="var(--fill-0, white)"/>
</svg>
