<svg xmlns="http://www.w3.org/2000/svg" width="146" height="40" fill="none" viewBox="0 0 146 40">
  <g clip-path="url(#clip0_4704_45935)">
    <path fill="#082E6A" d="M31.428 28.467a15.767 15.767 0 1 1-7.634-18.875l.563-.496a16.459 16.459 0 1 0 7.824 19.334z"/>
    <path fill="#0098DA" d="M5.914 28.611a184.4 184.4 0 0 0 28.202-4.669l-.43 1.924a103.5 103.5 0 0 1-27.772 2.746"/>
    <path fill="#0098DA" d="M7.425 27.667A165 165 0 0 0 34.8 20.89l-.441 1.969c-10.38 3.267-19.238 4.718-26.934 4.81"/>
    <path fill="#51C2E1" d="M8.875 26.665a200 200 0 0 0 26.618-8.871l-.444 1.981c-9.528 3.743-18.349 6.206-26.174 6.89"/>
    <path fill="#9FD7E0" d="M10.321 25.475a131.6 131.6 0 0 0 26.028-11.519l-.544 2.431c-10.261 5.095-18.957 8.362-25.484 9.088"/>
    <path fill="#51C2E1" d="M12.196 24.223A182.6 182.6 0 0 0 37.358 9.46l-.6 2.678c-8.21 5.24-16.403 9.582-24.562 12.084"/>
    <path fill="#0098DA" d="M13.636 22.67A168 168 0 0 0 38.604 3.885l-.731 3.266A105.7 105.7 0 0 1 13.636 22.66M39.16 0l-2.75.072a120 120 0 0 1-10.275 11.036c-3.734 3.558-7.488 6.748-11.245 9.89C23.12 15.446 31.285 9.228 39.16.004m3.994 31.04h22.408v.591H43.154zm79.631 0h22.37v.591h-22.37z"/>
    <path fill="#082E6A" d="m48.827 14.346-2.646 5.272h5.275zm-3.15 6.33-1.356 2.645c-.301.62-1.406.181-1.104-.485l5.057-9.963a.59.59 0 0 1 .553-.319.59.59 0 0 1 .535.319l5.04 9.912c.435.72-.803 1.14-1.122.486l-1.307-2.595zm11.79 1.745h7.151a.6.6 0 0 1 0 1.2h-8.272c-.652 0-.854-.539-.485-1.008l7.501-8.912H56.58a.574.574 0 1 1 0-1.147h7.971c.686 0 .871.54.486 1.043zm10.686.05h6.614a.574.574 0 1 1 0 1.15h-7.05a.745.745 0 0 1-.77-.767v-9.551a.74.74 0 0 1 .77-.749h7.066a.557.557 0 1 1-.016 1.114h-6.614v3.915h6.295c.67 0 .704 1.114 0 1.114h-6.295zm10.717-3.893h3.383c2.193 0 3.148-1.047 3.114-2.334-.016-1.408-1.172-2.541-3.114-2.541H78.87zm0 1.08v3.33a.611.611 0 0 1-1.222.017v-9.85a.58.58 0 0 1 .62-.6h3.969c2.897 0 4.37 1.68 4.37 3.689a3.184 3.184 0 0 1-2.98 3.346l2.713 3.004a.59.59 0 1 1-.837.823l-3.382-3.758zm11.02 2.83h3.75c1.474 0 3.098-.4 3.098-2.156 0-1.375-1.139-1.966-2.596-1.966H89.89zm0-8.801v3.548h3.415c1.44 0 2.696-.4 2.696-1.67 0-1.495-1.707-1.878-2.745-1.878zm3.75 9.934h-4.355a.626.626 0 0 1-.62-.626V13.18a.627.627 0 0 1 .62-.626h3.969c1.557 0 3.968.54 3.968 3.011a2.13 2.13 0 0 1-1.29 2.07 2.72 2.72 0 0 1 2.06 2.698c.003 2.591-2.241 3.287-4.35 3.287zm10.887-9.275-2.646 5.275h5.274zm-3.148 6.33-1.357 2.645c-.302.62-1.406.181-1.105-.485l5.057-9.963a.59.59 0 0 1 .553-.319.59.59 0 0 1 .536.319l5.04 9.912c.434.72-.804 1.14-1.123.486l-1.306-2.595zm10.332-7.51a.627.627 0 1 1 1.256 0v9.882a.632.632 0 0 1-1.056.414.63.63 0 0 1-.2-.414zm9.528.515h-3.215a.567.567 0 1 1 0-1.127h3.767a.64.64 0 0 1 .604.564v6.539a4.19 4.19 0 0 1-4.321 3.978 3.86 3.86 0 0 1-3.969-3.586.62.62 0 0 1 .167-.454.623.623 0 0 1 .892-.013.62.62 0 0 1 .18.45 2.597 2.597 0 0 0 2.73 2.458 3.054 3.054 0 0 0 3.165-2.833zm7.822.665-2.646 5.275h5.274zm-3.149 6.33-1.357 2.645c-.301.62-1.406.181-1.105-.485l5.057-9.963a.59.59 0 0 1 .553-.319.59.59 0 0 1 .535.319l5.04 9.912c.435.72-.804 1.14-1.122.486l-1.306-2.595zm18.002-7.531c0-.71 1.271-.744 1.271 0v9.7c0 .845-1.156.93-1.508.338l-6.261-8.466.134 2.332v5.965a.635.635 0 0 1-1.27 0v-9.682a.713.713 0 0 1 1.012-.691.72.72 0 0 1 .345.336l6.442 8.702-.167-2.551zM73.138 28.009l-1.83 3.69h3.65zm-2.178 4.429-.939 1.85c-.209.434-.974.129-.764-.34l3.5-6.969a.41.41 0 0 1 .382-.222.41.41 0 0 1 .371.222l3.488 6.934c.302.504-.556.796-.776.34l-.907-1.815zm7.148-5.252a.435.435 0 1 1 .87 0v6.93a.435.435 0 0 1-.87 0zm3.474 3.783h2.34c1.519 0 2.179-.732 2.156-1.633a1.906 1.906 0 0 0-2.155-1.776h-2.34zm0 .756v2.329a.424.424 0 0 1-.845.011v-6.889a.4.4 0 0 1 .428-.42h2.746c2.004 0 3.024 1.18 3.024 2.58a2.22 2.22 0 0 1-2.062 2.341l1.877 2.1a.41.41 0 1 1-.58.577l-2.34-2.631zm7.207 2.77a.387.387 0 0 1-.44-.443v-6.88a.429.429 0 1 1 .858 0v6.533h4.334a.399.399 0 1 1 0 .791zm6.152-7.309a.435.435 0 1 1 .869 0v6.93a.436.436 0 0 1-.87 0zm7.855-.049c0-.498.88-.522.88 0v6.815c0 .593-.799.653-1.042.237l-4.333-5.948.09 1.638v4.191a.44.44 0 0 1-.88 0v-6.806a.494.494 0 0 1 .938-.248l4.461 6.114-.117-1.793zm3.614 6.555h4.577c.487 0 .557.804 0 .804h-4.878a.52.52 0 0 1-.533-.536v-6.69a.508.508 0 0 1 .328-.49.5.5 0 0 1 .205-.035h4.886a.392.392 0 0 1-.011.78h-4.577v2.743h4.355c.464 0 .487.78 0 .78h-4.355zm6.802-1.214c.301.967 1.587 1.18 2.514 1.18.985 0 2.514-.303 2.514-1.48 0-1.013-1.216-1.094-2.49-1.199-1.599-.128-3.314-.28-3.314-2.015 0-1.537 1.761-2.224 3.176-2.224 1.216 0 2.734.29 3.221 1.619.174.465-.614.675-.788.28-.347-.886-1.588-1.037-2.422-1.037-.775 0-2.283.314-2.283 1.374 0 1.013 1.159 1.119 2.503 1.223 1.588.14 3.291.22 3.291 1.968 0 1.782-1.981 2.33-3.406 2.33-1.18 0-2.99-.408-3.372-1.805-.139-.513.764-.688.857-.21"/>
  </g>
  <defs>
    <clipPath id="clip0_4704_45935">
      <path fill="#fff" d="M0 0h145.187v40H0z"/>
    </clipPath>
  </defs>
</svg>
