<?xml version="1.0" encoding="utf-8"?>
<!-- Generator: Adobe Illustrator 23.0.6, SVG Export Plug-In . SVG Version: 6.00 Build 0)  -->
<svg version="1.1" id="Layer_1" xmlns="http://www.w3.org/2000/svg" xmlns:xlink="http://www.w3.org/1999/xlink" x="0px" y="0px"
	 width="1024px" height="1024px" viewBox="0 0 1024 1024" style="enable-background:new 0 0 1024 1024;" xml:space="preserve">
<style type="text/css">
	.st0{fill:#FFFFFF;}
</style>
<title></title>
<g id="icomoon-ignore">
</g>
<path class="st0" d="M281.5,449.9l100.2-80.6c5.2-5.4,8-13.3,2.6-18.7L328.1,281v0c-4.2-4.2-10-6.7-14.9-2.4
	c-10,8.8-19.6,17.9-30,26.2l-247,198.7c-5.4,2.6-5.4,13.3,0,18.7l273.2,219.5c5.4,2.7,13.3,2.7,18.7-2.6l56.2-69.6
	c2.7-5.4,2.7-13.3-2.6-18.7L275.1,565h700c8.1,0,14.7-6.6,14.7-14.7v-85.6c0-8.1-6.6-14.7-14.7-14.7H281.5z"/>
</svg>
