<?xml version="1.0" encoding="utf-8"?>
<!-- Generator: Adobe Illustrator 23.0.6, SVG Export Plug-In . SVG Version: 6.00 Build 0)  -->
<svg version="1.1" id="Layer_1" xmlns="http://www.w3.org/2000/svg" xmlns:xlink="http://www.w3.org/1999/xlink" x="0px" y="0px"
	 width="1024px" height="1024px" viewBox="0 0 1024 1024" style="enable-background:new 0 0 1024 1024;" xml:space="preserve">
<style type="text/css">
	.st0{fill:#006AB3;}
</style>
<title></title>
<g id="icomoon-ignore">
</g>
<g>
	<path class="st0" d="M845.8,260.1c-2-4.1,0-12.3,2-16.4c18.4-32.8,14.3-65.5-12.3-90.1c-24.6-22.5-59.4-24.6-88.1-4.1
		c-6.1,4.1-12.3,4.1-18.4,0c-63.5-32.8-129-38.9-196.6-20.5c-69.6,18.4-127,57.3-180.2,100.4c-36.9,28.7-77.8,55.3-124.9,65.5
		c-30.7,6.1-57.3,20.5-84,36.9c-16.4,10.2-22.5,24.6-22.5,43c0,32.8,8.2,63.5,20.5,94.2c36.9,86,94.2,157.7,161.8,229.4l0,0
		c12.3,12.3,28.7,26.6,49.2,41c47.1,41,98.3,77.8,155.6,104.4c36.9,16.4,75.8,30.7,116.7,28.7c14.3,0,26.6-6.1,34.8-18.4
		c22.5-30.7,36.9-65.5,47.1-102.4c12.3-41,32.8-75.8,57.3-108.5c26.6-34.8,53.2-69.6,75.8-106.5
		C890.9,446.5,903.2,354.3,845.8,260.1z"/>
	<path class="st0" d="M438.3,856.1L438.3,856.1c-73.7-38.9-135.2-90.1-190.5-151.6c-4.1-4.1-12.3-4.1-14.3,2
		C208.9,766,219.1,837.6,258,870.4c49.2,41,116.7,43,180.2,0C444.4,868.4,444.4,860.2,438.3,856.1z"/>
</g>
</svg>
