<svg xmlns="http://www.w3.org/2000/svg" height="18" viewBox="0 0 18 18" width="18">
  <defs>
    <style>
      .a {
        fill: #6E6E6E;
      }
    </style>
  </defs>
  <title>S Compass 18 N</title>
  <rect id="Canvas" fill="#ff13dc" opacity="0" width="18" height="18" /><path class="a" d="M.75,9.75H1.5a.72923.72923,0,0,0,.0745-.015,7.412,7.412,0,0,0,.843,2.765L3.35,11.1185A6.0245,6.0245,0,0,1,11.091,3.342l1.3875-.9365a7.409,7.409,0,0,0-2.7435-.831A.72923.72923,0,0,0,9.75,1.5V.75a.75.75,0,0,0-1.5,0V1.5a.72923.72923,0,0,0,.015.0745A7.4635,7.4635,0,0,0,1.5745,8.265.72923.72923,0,0,0,1.5,8.25H.75a.75.75,0,0,0,0,1.5Z" />
  <path class="a" d="M17.25,8.25H16.5a.72923.72923,0,0,0-.0745.015,7.414,7.414,0,0,0-.831-2.744L14.658,6.9085A6.0245,6.0245,0,0,1,6.882,14.65L5.5,15.5825a7.41193,7.41193,0,0,0,2.767.843A.7279.7279,0,0,0,8.25,16.5v.75a.75.75,0,0,0,1.5,0V16.5a.72923.72923,0,0,0-.015-.0745A7.4635,7.4635,0,0,0,16.4255,9.735.72923.72923,0,0,0,16.5,9.75h.75a.75.75,0,0,0,0-1.5Z" />
  <path class="a" d="M7.3535,7.8725l-5.767,8.541,8.541-5.767a2.25778,2.25778,0,0,0,.6055-.6055L16.5,1.5,7.959,7.267A2.25778,2.25778,0,0,0,7.3535,7.8725ZM9.004,10.359a1.363,1.363,0,1,1,1.3625-1.363A1.36343,1.36343,0,0,1,9.004,10.359Z" />
</svg>