<?xml version="1.0" encoding="UTF-8"?>
<svg width="120px" height="120px" viewBox="0 0 120 120" version="1.1" xmlns="http://www.w3.org/2000/svg" xmlns:xlink="http://www.w3.org/1999/xlink">
    <!-- Generator: Sketch 56.3 (81716) - https://sketch.com -->
    <title>cards</title>
    <desc>Created with Sketch.</desc>
    <g id="cards" stroke="none" stroke-width="1" fill="none" fill-rule="evenodd">
        <path d="M115,32.4164 C117.762,32.4164 120,34.6544 120,37.4164 L120,103.4164 C120,106.1784 117.762,108.4164 115,108.4164 L23,108.4164 C20.238,108.4164 18,106.1784 18,103.4164 L18,85.4164 C18,85.1444 18.038,84.8804 18.08,84.6194 L8,84.6194 C3.582,84.6194 0,81.0374 0,76.6194 L0,20.0004 C0,15.5814 3.582,12.0004 8,12.0004 L92,12.0004 C96.418,12.0004 100,15.5814 100,20.0004 L100,32.4164 L115,32.4164 Z M110,98.4164 L110,42.4164 L100,42.4164 L100,76.6194 C100,81.0374 96.418,84.6194 92,84.6194 L27.92,84.6194 C27.962,84.8804 28,85.1444 28,85.4164 L28,98.4164 L110,98.4164 Z M10,74.6194 L90,74.6194 L90,42.4164 L10,42.4164 L10,74.6194 Z M10,32.4164 L90,32.4164 L90,22.0004 L10,22.0004 L10,32.4164 Z M19.991,64.7516 L36.658,64.7516 L36.658,54.7516 L19.991,54.7516 L19.991,64.7516 Z M44.991,64.7516 L53.325,64.7516 L53.325,54.7516 L44.991,54.7516 L44.991,64.7516 Z" fill="#000000"></path>
    </g>
</svg>