<?xml version="1.0" encoding="utf-8"?>
<!-- Generator: Adobe Illustrator 23.0.6, SVG Export Plug-In . SVG Version: 6.00 Build 0)  -->
<svg version="1.1" id="Layer_1" xmlns="http://www.w3.org/2000/svg" xmlns:xlink="http://www.w3.org/1999/xlink" x="0px" y="0px"
	 width="1024px" height="1024px" viewBox="0 0 1024 1024" style="enable-background:new 0 0 1024 1024;" xml:space="preserve">
<style type="text/css">
	.st0{fill:#006AB3;}
</style>
<title></title>
<g id="icomoon-ignore">
</g>
<g>
	<path class="st0" d="M393.2,788.5c-45.1,0-81.9,36.9-81.9,81.9s36.9,81.9,81.9,81.9c43,0,79.9-36.9,81.9-81.9
		C475.1,825.3,438.3,788.5,393.2,788.5z"/>
	<circle class="st0" cx="718.8" cy="870.4" r="81.9"/>
	<path class="st0" d="M897,172H258.5l-8.6-41c-4.8-19.3-19.8-32.3-38-35L86,57.3C63.5,49.2,38.9,63.5,30.7,86
		c-8.2,22.5,6.1,47.1,28.7,55.3L167,174.4l111.5,530.1c1.7,8.4,5.7,15.7,11.4,21.5c8.3,9.4,20.4,15.4,33.7,15.4h464.9h0
		c24.6,0,43-20.5,43-45.1s-20.5-45.1-45.1-45.1H359.3l-15.4-73.5l557.3-80.1c14.3-2,26.6-16.4,28.7-30.7V204.8
		C929.8,186.4,915.5,172,897,172z"/>
</g>
</svg>
