<?xml version="1.0" encoding="utf-8"?>
<!-- Generator: Adobe Illustrator 23.0.6, SVG Export Plug-In . SVG Version: 6.00 Build 0)  -->
<svg version="1.1" id="Layer_1" xmlns="http://www.w3.org/2000/svg" xmlns:xlink="http://www.w3.org/1999/xlink" x="0px" y="0px"
	 width="194.2px" height="194.2px" viewBox="0 0 194.2 194.2" style="enable-background:new 0 0 194.2 194.2;" xml:space="preserve"
	>
<style type="text/css">
	.st0{fill:#F8C28C;}
	.st1{fill:#FFFFFF;}
	.st2{fill:#F8B879;}
	.st3{fill:#F6AD65;}
	.st4{fill:#F6A453;}
	.st5{fill:#F4993F;}
</style>
<g>
	<polygon class="st0" points="33,60.4 68.8,110.4 68.8,10.4 	"/>
	<path class="st1" d="M70.8,116.6L30.5,60.4L70.8,4.2V116.6z M35.4,60.4l31.4,43.9V16.5L35.4,60.4z"/>
</g>
<g>
	<polygon class="st2" points="54.7,63.1 71,129.8 113.5,27.6 	"/>
	<path class="st1" d="M70.5,136.2l-18-74l65.2-39.4L70.5,136.2z M57,64.1l14.5,59.4l37.9-91.1L57,64.1z"/>
</g>
<g>
	<polygon class="st3" points="76.5,74.7 65.9,151.6 153.7,66.2 	"/>
	<path class="st1" d="M63.2,157l11.5-84.2l84.4-9.2L63.2,157z M78.2,76.5l-9.5,69.7l79.5-77.4L78.2,76.5z"/>
</g>
<g>
	<polygon class="st4" points="91.3,101.4 47.7,176.4 175.8,120.7 	"/>
	<path class="st1" d="M43,180.6l47.3-81.4l91.8,21L43,180.6z M92.3,103.7l-39.8,68.5l117-50.9L92.3,103.7z"/>
</g>
<g>
	<polygon class="st5" points="98.2,132.8 20.4,188.2 175.9,188.2 	"/>
	<path class="st1" d="M182,190.2H14.3l83.9-59.8L182,190.2z M26.6,186.3h143.1l-71.5-51L26.6,186.3z"/>
</g>
</svg>
