<svg width="129" height="93" viewBox="0 0 129 93" fill="none" xmlns="http://www.w3.org/2000/svg">
<path d="M71.94 85.97L10.26 61.14C9.13 60.83 8.37 59.81 8.37 58.62V43.18C8.37 42.63 8.89 42.2 9.42 42.31L70.4 64.98C72.82 65.49 74.51 67.59 74.51 70.09V83.98C74.51 85.31 73.21 86.33 71.94 85.98V85.97Z" fill="#CCCCCC"/>
<path d="M77.7099 85.3299L119.16 49.2299C119.72 48.8399 120.06 48.1999 120.06 47.5399L120.1 36.8499C120.1 36.1399 120.1 34.7699 119.45 35.0799L78.0799 65.0198C76.0299 65.9798 74.6899 68.0499 74.6899 70.2699V83.8299C74.6899 85.3899 76.4099 86.2399 77.7199 85.3199L77.7099 85.3299Z" fill="#7A7A7A"/>
<path d="M70.05 85.1C70.05 85.1 72.09 85.95 72.78 86.22C74.08 86.71 76.55 86.34 77.81 85.33C78.37 84.88 79.93 83.41 79.93 83.41V62.23L70.06 65.03V85.11L70.05 85.1Z" fill="#9B9B9B"/>
<path d="M9.20002 41.7099L62.44 27.7999C65.33 27.0099 68.33 26.8699 71.21 27.3799L119.28 34.6399C120.09 34.7799 120.18 35.89 119.42 36.24L79.88 64.5299C76.65 66.0299 73.07 66.4599 69.69 65.75L9.16002 43.72C8.11002 43.5 8.14002 41.9999 9.20002 41.7099Z" fill="#3D3D3D"/>
<path d="M17.43 56.33C17.13 57.97 15.85 58.83 14.57 58.25C13.29 57.66 12.5 55.86 12.8 54.21C13.1 52.56 14.38 51.71 15.66 52.29C16.94 52.88 17.73 54.68 17.43 56.33Z" fill="#3AB64B"/>
<path d="M25.23 59.1601C24.93 60.8001 23.65 61.6601 22.37 61.0801C21.09 60.4901 20.3 58.6901 20.6 57.0401C20.9 55.3901 22.18 54.5401 23.46 55.1201C24.74 55.7001 25.53 57.5101 25.23 59.1601Z" fill="#3D3D3D"/>
<path d="M33.03 62.07C32.73 63.71 31.45 64.57 30.17 63.99C28.89 63.4 28.1 61.6 28.4 59.95C28.7 58.3 29.98 57.45 31.26 58.03C32.54 58.62 33.33 60.42 33.03 62.07Z" fill="#3D3D3D"/>
<path d="M71.94 59.8599L10.26 38.2099C9.13 37.8399 8.37 36.7899 8.37 35.5999V20.1599C8.37 19.6099 8.89 19.2099 9.42 19.3499L70.4 36.4499C72.82 37.0799 74.51 39.2699 74.51 41.7699V57.9999C74.51 59.3299 73.21 60.2799 71.94 59.8699V59.8599Z" fill="#CCCCCC"/>
<path d="M77.7099 59.64L119.16 31.6C119.72 31.24 120.06 30.62 120.06 29.95L120.1 19.27C120.1 18.56 120.1 17.19 119.45 17.46L78.0799 37.01C76.0299 37.86 74.6899 39.87 74.6899 42.09V58C74.6899 59.56 76.4099 60.49 77.7199 59.65L77.7099 59.64Z" fill="#7A7A7A"/>
<path d="M70.05 59.2C70.05 59.2 72.09 60.05 72.78 60.27C74.08 60.68 76.32 60.61 77.81 59.63L79.93 58.13V34.28L70.06 36.58V59.18L70.05 59.2Z" fill="#9B9B9B"/>
<path d="M9.20002 18.86L62.44 6.50997C65.33 5.86997 68.33 5.87997 71.21 6.53997L119.28 17.01C120.09 17.19 120.18 18.3 119.42 18.62L79.88 36.61C76.65 37.95 73.07 38.2 69.69 37.32L9.16002 20.87C8.11002 20.6 8.14002 19.1 9.20002 18.86Z" fill="#D8D8D8"/>
<path d="M17.43 32.0499C17.13 33.6799 15.85 34.4699 14.57 33.8199C13.29 33.1699 12.5 31.3199 12.8 29.6899C13.1 28.0599 14.38 27.2699 15.66 27.9199C16.94 28.5699 17.73 30.4199 17.43 32.0499Z" fill="#3D3D3D"/>
<path d="M25.23 34.4901C24.93 36.1201 23.65 36.9101 22.37 36.2601C21.09 35.6101 20.3 33.7601 20.6 32.1301C20.9 30.5001 22.18 29.7101 23.46 30.3601C24.74 31.0101 25.53 32.8601 25.23 34.4901Z" fill="#3AB64B"/>
<path d="M33.03 37.0799C32.73 38.7099 31.45 39.4999 30.17 38.8499C28.89 38.1999 28.1 36.3499 28.4 34.7199C28.7 33.0899 29.98 32.2999 31.26 32.9499C32.54 33.5999 33.33 35.4499 33.03 37.0799Z" fill="#3AB64B"/>
<path d="M32.9599 18.68L64.0099 11.81C65.6199 11.45 67.2799 11.46 68.8899 11.83L96.5799 18.14C97.0299 18.24 97.0799 18.86 96.6599 19.04L73.7099 28.56C71.9099 29.3 69.9299 29.44 68.0499 28.95L32.9499 19.8C32.3699 19.65 32.3799 18.81 32.9699 18.68H32.9599Z" fill="#ADADAD"/>
<path d="M96.7799 18.96L96.3399 19.04L68.8799 12.79C67.2799 12.42 65.6099 12.42 63.9999 12.77L32.9499 19.64C32.9499 19.64 32.7499 19.64 32.7399 19.66C32.1899 19.49 32.3899 17.73 32.9499 17.6L63.9999 10.74C65.6099 10.38 67.2799 10.38 68.8799 10.74L96.5699 17.05C97.0199 17.15 97.1999 18.77 96.7699 18.95L96.7799 18.96Z" fill="white"/>
</svg>
