<svg width="121" height="85" viewBox="0 0 121 85" fill="none" xmlns="http://www.w3.org/2000/svg">
<g clip-path="url(#clip0_1785_357)">
<path d="M0.149472 9.42247L16.3416 78.8997L16.4823 79.5083C16.623 80.0795 16.8388 80.6319 17.1109 81.1469C17.8707 82.5327 19.1185 83.6657 20.5257 84.3024C21.2199 84.6208 21.9704 84.808 22.7115 84.8361C22.8428 84.8361 22.946 84.8455 23.0774 84.8361L114.142 83.1507C116.478 83.1039 117.913 80.9128 117.369 78.2442L102.518 19.3197C101.946 16.5575 99.5162 14.1791 97.0677 14.0106L4.38044 4.16018C1.32213 3.94482 -0.582269 6.29506 0.149472 9.42247Z" fill="#3D3D3D"/>
<path d="M119.977 78.9465L116.159 82.4672L109.141 80.557C109.141 80.557 113.513 77.2142 114.057 77.2049C114.601 77.1955 119.968 78.9371 119.968 78.9371L119.977 78.9465Z" fill="#352785"/>
<path d="M0.149566 9.43183L16.3417 78.909L16.4824 79.5177C16.9796 81.6338 18.5932 83.4503 20.5351 84.3118L23.8655 82.0739L9.88735 8.06476L4.38991 4.16018C1.32223 3.94482 -0.582176 6.29506 0.149566 9.43183Z" fill="#9B9B9B"/>
<path d="M5.73145 1.93164L0.993896 5.36805L2.83263 9.6659L7.89853 11.7259L5.73145 1.93164Z" fill="#9B9B9B"/>
<path d="M17.1202 81.1563C17.8801 82.5421 19.1278 83.675 20.535 84.3118C21.2292 84.6301 21.9798 84.8174 22.7209 84.8455C22.8522 84.8455 22.9554 84.8548 23.0867 84.8455L24.8692 84.808L26.9987 81.1937L21.3324 76.0344L17.1202 81.1282V81.1563Z" fill="#7A7A7A"/>
<path d="M4.77455 6.08903L20.9479 75.8846C21.6421 78.8809 24.5785 81.278 27.4773 81.2311L117.669 79.9296C119.986 79.8922 121.412 77.7198 120.868 75.0606L108.213 13.3645C107.65 10.621 105.248 8.24263 102.847 8.05536L8.96799 0.873555C5.93783 0.639468 4.05219 2.98034 4.77455 6.09839V6.08903Z" fill="#D8D8D8"/>
<path d="M7.23244 7.35327L8.92108 14.6849V14.713L23.2276 74.6956C23.7341 76.896 25.8825 78.6657 28.012 78.647L115.84 77.926C117.566 77.9073 118.635 76.3061 118.223 74.3304L106.13 13.9639C105.708 11.932 103.935 10.1717 102.143 10.05L10.2907 3.4955C8.07676 3.33632 6.70709 5.06857 7.23244 7.3439V7.35327Z" fill="#262626"/>
<path d="M38.5659 42.9251C40.5641 49.0769 47.3656 54.1894 53.773 54.3392L87.0672 55.0602C91.2888 55.1538 94.4128 53.2811 95.8388 50.3316C95.8388 50.3129 95.8481 50.3035 95.8388 50.2942C95.9513 50.0226 96.0639 49.7698 96.1577 49.4889C96.2609 49.1705 96.3641 48.8522 96.4204 48.5057C96.5611 47.8409 96.6362 47.148 96.6362 46.4177C96.6268 46.0525 96.5986 45.678 96.5611 45.2847C96.4767 44.4888 96.2984 43.6554 96.0076 42.794C94.2252 37.3163 89.0748 32.5878 83.4648 30.7619C83.3992 30.5184 83.3335 30.3031 83.2491 30.0503C80.7536 22.3441 72.2354 15.9676 64.2519 15.799C58.8858 15.6679 55.1052 18.3646 53.97 22.4939C52.3002 21.5763 50.4708 21.0145 48.6977 20.9864C48.4257 20.9864 48.1349 20.9864 47.8722 21.0051C44.9452 21.2111 42.9564 22.9059 42.4498 25.3498C42.3935 25.4902 42.3747 25.6494 42.3654 25.818C42.2809 26.3891 42.2809 26.9978 42.3841 27.6532C42.3654 27.6626 42.3747 27.6813 42.3841 27.6907V27.7094C42.4592 28.1776 42.5717 28.6738 42.7312 29.1514C43.0783 30.2188 43.6037 31.2301 44.2979 32.1758C41.4272 32.6814 39.3821 34.3856 38.5003 36.7733C38.4346 36.9605 38.3783 37.1384 38.3314 37.3351C38.2657 37.5785 38.2188 37.822 38.1625 38.0561C37.8811 39.5074 37.9937 41.1647 38.5753 42.897L38.5659 42.9251Z" fill="#D8D8D8"/>
<path d="M34.6821 65.126C34.6915 66.5961 33.6408 67.5886 32.3368 67.3358C31.0328 67.083 29.9539 65.6878 29.9445 64.2271C29.9351 62.7664 30.9858 61.7645 32.2898 62.0173C33.5938 62.2701 34.6727 63.6653 34.6821 65.126Z" fill="#7A7A7A"/>
<path d="M42.3841 65.3321C42.3935 66.8021 41.3428 67.7947 40.0388 67.5419C38.7348 67.289 37.6559 65.8939 37.6465 64.4332C37.6372 62.9725 38.6879 61.9706 39.9919 62.2234C41.2959 62.4762 42.3747 63.8714 42.3841 65.3321Z" fill="#3CB54A"/>
<path d="M50.1237 65.669C50.1331 67.1391 49.0824 68.1316 47.7784 67.8788C46.4744 67.626 45.3956 66.2308 45.3862 64.7701C45.3768 63.3094 46.4275 62.3075 47.7315 62.5603C49.0355 62.8131 50.1143 64.2083 50.1237 65.669Z" fill="#3CB54A"/>
<path d="M105.361 68.1222L57.3849 67.9162C56.306 67.9162 55.3397 67.3357 54.9645 66.4742C54.3547 65.0604 55.5743 63.5903 57.3473 63.5997L105.323 63.8057C106.402 63.8057 107.368 64.3862 107.744 65.2476C108.353 66.6615 107.134 68.1316 105.361 68.1222Z" fill="#7A7A7A"/>
<path d="M78.3708 63.6841L57.3473 63.5999C55.5837 63.5999 54.3547 65.0699 54.9645 66.4744C55.3397 67.3359 56.306 67.9164 57.3849 67.9164L79.187 68.0101L78.3708 63.6841Z" fill="#3CB54A"/>
<path d="M79.337 23.365C75.9879 20.9866 72.0665 19.5072 68.2577 19.4229C62.8822 19.2918 59.111 21.9885 57.9758 26.1178C56.2966 25.2002 54.4766 24.6384 52.6941 24.6103C52.4315 24.6103 52.1406 24.6103 51.8686 24.6197C48.9416 24.8257 46.9528 26.5298 46.4462 28.9737C46.3993 29.1141 46.3805 29.2733 46.3524 29.4419C46.2773 30.013 46.268 30.6217 46.3711 31.2771C46.3524 31.2865 46.3524 31.3052 46.3711 31.3239C46.4368 31.8108 46.5588 32.2977 46.7183 32.7846C47.056 33.8521 47.5813 34.8633 48.2756 35.809C45.3955 36.3147 43.3597 38.0188 42.4779 40.3972C42.4122 40.5844 42.3559 40.7717 42.3184 40.959C42.2528 41.2024 42.2058 41.4459 42.1402 41.68C41.8587 43.1313 41.9713 44.7793 42.553 46.5209C43.1252 48.2812 44.0821 49.9573 45.3298 51.4555C42.1965 49.358 39.6541 46.2962 38.5565 42.9159C37.9843 41.1837 37.8623 39.5357 38.1437 38.075C38.1907 37.8503 38.2376 37.5975 38.3126 37.3634C38.3595 37.1668 38.4252 36.9888 38.4815 36.8016C39.3539 34.4139 41.3991 32.7097 44.2697 32.2041C43.5755 31.2584 43.0595 30.2565 42.7124 29.1797C42.553 28.7021 42.4404 28.2059 42.3653 27.7377V27.719C42.3653 27.719 42.3653 27.6909 42.3747 27.6815C42.2621 27.0167 42.2621 26.4081 42.3466 25.8369C42.356 25.6684 42.3747 25.5186 42.431 25.3687C42.947 22.9249 44.9452 21.2301 47.8628 21.0241C48.1254 21.0053 48.4163 21.0053 48.6883 21.0053C50.452 21.0428 52.2907 21.6046 53.9606 22.5222C55.1051 18.3929 58.8764 15.6962 64.2425 15.8273C69.7306 15.9397 75.4626 18.9735 79.3277 23.365H79.337Z" fill="white"/>
</g>
<defs>
<clipPath id="clip0_1785_357">
<rect width="121" height="84" fill="white" transform="translate(-0.0100098 0.85498)"/>
</clipPath>
</defs>
</svg>
