<svg width="155" height="97" viewBox="0 0 155 97" fill="none" xmlns="http://www.w3.org/2000/svg">
<g clip-path="url(#clip0_1785_227)">
<path d="M93.89 61.2799H6.22001C2.62001 61.2799 -0.22999 58.2099 0.0500104 54.6199L2.23001 23.2899L2.86001 15.0599L3.32001 9.1099C3.57001 5.8899 6.26001 3.3999 9.49001 3.3999H92.34C95.67 3.3999 98.4 6.0399 98.52 9.3699L98.73 15.0599L99.03 23.2899L100.08 51.8699C100.21 55.3699 97.4 61.2799 93.9 61.2799H93.89Z" fill="#0D351D"/>
<path d="M93.89 57.88H6.22001C2.62001 57.88 -0.22999 54.81 0.0500104 51.22L2.23001 19.89L2.86001 11.66L3.32001 5.71C3.57001 2.49 6.26001 0 9.49001 0H92.34C95.67 0 98.41 2.64 98.53 5.97L98.74 11.66L99.04 19.89L100.09 51.47C100.22 54.97 97.41 57.88 93.91 57.88H93.89Z" fill="#397F3B"/>
<path d="M83.35 34.1399H23.57C22.63 34.1399 21.88 33.3499 21.93 32.4099L22.21 27.1899C22.26 26.3199 22.98 25.6399 23.85 25.6399H83.24C84.13 25.6399 84.86 26.3599 84.88 27.2499L84.98 32.4699C85 33.3899 84.26 34.1399 83.34 34.1399H83.35Z" fill="white"/>
<path d="M99.03 19.8899H2.22998L2.85998 11.6599H98.73L99.03 19.8899Z" fill="#3BB54A"/>
<path d="M147.86 96.08H56.25C52.76 96.08 49.97 93.2 50.06 89.72L51.39 39.98C51.48 36.63 54.23 33.97 57.58 33.97H143.89C147.1 33.97 149.78 36.43 150.06 39.63L154.03 89.37C154.34 92.98 151.49 96.08 147.86 96.08Z" fill="#3D3D3D"/>
<path d="M147.86 92.6801H56.25C52.76 92.6801 49.97 89.8001 50.06 86.3201L51.39 36.5801C51.48 33.2301 54.23 30.5701 57.58 30.5701H143.89C147.1 30.5701 149.78 33.0301 150.06 36.2301L154.03 85.9701C154.34 89.5801 151.49 92.6801 147.86 92.6801Z" fill="#D8D8D8"/>
<path d="M74.53 52.6201V60.8001C74.51 61.8001 73.67 62.6101 72.63 62.6101H60.09C59.05 62.6101 58.22 61.8001 58.24 60.8001L58.4 52.6201C58.42 51.6401 59.26 50.8501 60.29 50.8501H72.66C73.69 50.8501 74.52 51.6401 74.51 52.6201H74.53Z" fill="#E2CA3B"/>
<path d="M78.89 71.8701H59.51C58.72 71.8701 58.09 71.2401 58.1 70.4701C58.12 69.7001 58.77 69.0701 59.56 69.0701H78.88C79.67 69.0701 80.31 69.7001 80.32 70.4701C80.32 71.2401 79.68 71.8701 78.89 71.8701Z" fill="#7A7A7A"/>
<path d="M83.95 78.2502H59.4C58.6 78.2502 57.97 77.6102 57.98 76.8302C58 76.0502 58.65 75.4102 59.45 75.4102H83.93C84.73 75.4102 85.38 76.0402 85.39 76.8302C85.39 77.6102 84.76 78.2502 83.96 78.2502H83.95Z" fill="#9B9B9B"/>
<path d="M72.13 84.64H59.28C58.48 84.64 57.84 83.99 57.85 83.2C57.87 82.41 58.53 81.76 59.33 81.76H72.14C72.94 81.76 73.59 82.4 73.59 83.2C73.59 84 72.93 84.64 72.13 84.64Z" fill="white"/>
<path d="M102.65 78.2502H89.2799C88.4799 78.2502 87.8299 77.6102 87.8199 76.8302C87.8099 76.0502 88.4499 75.4102 89.2399 75.4102H102.57C103.37 75.4102 104.03 76.0402 104.05 76.8302C104.07 77.6102 103.45 78.2502 102.65 78.2502Z" fill="#9B9B9B"/>
<path d="M105.8 71.8701H86.42C85.63 71.8701 84.98 71.2401 84.97 70.4701C84.97 69.7001 85.6 69.0701 86.39 69.0701H105.71C106.5 69.0701 107.16 69.7001 107.19 70.4701C107.22 71.2401 106.6 71.8701 105.8 71.8701Z" fill="#7A7A7A"/>
<path d="M131.09 71.8701H111.71C110.92 71.8701 110.25 71.2401 110.22 70.4701C110.19 69.7001 110.81 69.0701 111.6 69.0701H130.92C131.71 69.0701 132.39 69.7001 132.44 70.4701C132.49 71.2401 131.88 71.8701 131.09 71.8701Z" fill="#7A7A7A"/>
<path d="M64.89 50.8501L64.74 62.6101H63.08L63.13 59.1601C63.13 58.7901 62.93 58.4801 62.61 58.3201C62.47 58.2501 62.32 58.2201 62.16 58.2201H58.29L58.32 56.6201H62.19C62.38 56.6201 62.55 56.5701 62.69 56.4901C62.85 56.4101 62.98 56.2801 63.06 56.1101C63.14 55.9901 63.18 55.8401 63.18 55.6901L63.25 50.8601H64.88L64.89 50.8501Z" fill="#D19C3D"/>
<path d="M74.52 56.6201V58.2201H70.92C70.39 58.2201 69.94 58.6401 69.94 59.1601L69.92 62.6101H68.25L68.35 50.8501H69.99L69.96 55.6801C69.96 56.1901 70.39 56.6201 70.93 56.6201H74.52Z" fill="#D19C3D"/>
<path d="M72.63 62.6101H60.09C59.05 62.6101 58.23 61.8001 58.25 60.7901L58.41 52.6101C58.43 51.6301 59.27 50.8301 60.3 50.8301H72.68C73.7 50.8301 74.53 51.6201 74.53 52.6101V60.7901C74.51 61.7901 73.67 62.6101 72.64 62.6101H72.63Z" stroke="#7A7A7A" stroke-miterlimit="10"/>
<path d="M137.15 35.8401C136.27 35.8401 135.46 36.0801 134.78 36.4701C135.81 37.5201 136.48 38.8901 136.59 40.3901C136.7 41.8901 136.2 43.2801 135.31 44.3501C136.06 44.7501 136.9 45.0001 137.79 45.0001C140.47 45.0001 142.5 42.9301 142.3 40.4001C142.11 37.8801 139.8 35.8401 137.15 35.8401Z" fill="#9B9B9B"/>
<path d="M135.02 40.4001C135.19 42.9401 133.15 45.0001 130.47 45.0001C127.79 45.0001 125.49 42.9301 125.35 40.4001C125.21 37.8701 127.25 35.8401 129.91 35.8401C132.57 35.8401 134.86 37.8701 135.03 40.4001H135.02Z" fill="#3D3D3D"/>
</g>
<defs>
<clipPath id="clip0_1785_227">
<rect width="154.16" height="96.08" fill="white"/>
</clipPath>
</defs>
</svg>
