<svg width="128" height="92" viewBox="0 0 128 92" fill="none" xmlns="http://www.w3.org/2000/svg">
<path d="M3.03378 11.3728L19.8766 83.6594L20.0224 84.2944C20.159 84.884 20.3867 85.4555 20.6782 85.9907C21.4616 87.4239 22.746 88.585 24.2035 89.2199C24.914 89.5374 25.6883 89.7188 26.4534 89.746C26.581 89.746 26.6994 89.746 26.8269 89.746L117.919 86.9068C120.187 86.8343 121.58 84.6119 121.052 81.945L106.587 22.6299C106.022 19.8361 103.645 17.405 101.24 17.2236L7.45172 5.9484C4.2544 5.6672 2.26861 8.09822 3.03378 11.3728Z" fill="#3D3D3D"/>
<path d="M123.566 82.6071L119.868 86.1902L113.045 84.3488C113.045 84.3488 117.299 80.9381 117.827 80.929C118.356 80.9199 123.566 82.6162 123.566 82.6162V82.6071Z" fill="#3D3D3D"/>
<path d="M3.03375 11.373L19.8766 83.6686L20.0223 84.2945C20.5325 86.4897 22.2085 88.3492 24.2126 89.2201L27.6467 86.8616L13.1814 10.0758L7.45169 5.94852C4.25437 5.6764 2.26858 8.10742 3.02464 11.382L3.03375 11.373Z" fill="#9B9B9B"/>
<path d="M8.86359 3.63525L4.39099 6.72846L5.83935 11.654L11.1136 13.8582L8.86359 3.63525Z" fill="#9B9B9B"/>
<path d="M7.86159 7.96217L24.6316 80.4846C25.3512 83.5869 28.3663 86.027 31.3541 85.9453L121.344 83.6141C123.594 83.5597 124.969 81.3554 124.441 78.6976L112.143 16.6703C111.597 13.8946 109.256 11.4726 106.896 11.2549L12.2249 2.58308C9.07311 2.29281 7.10553 4.69662 7.85248 7.95309L7.86159 7.96217Z" fill="#D8D8D8"/>
<path d="M16.1328 13.3594L17.736 20.3622V20.3894L30.4251 75.7949C30.9078 77.8812 32.921 79.5412 34.925 79.5049L116.361 78.1443C117.909 78.1171 118.866 76.6204 118.502 74.7971L107.625 20.3894C107.243 18.4936 105.639 16.8517 104.027 16.7157L19.0295 9.72195C16.9344 9.54961 15.6318 11.1824 16.1328 13.3594Z" fill="#333333"/>
<path d="M20.6782 85.9908C21.4616 87.424 22.746 88.585 24.2034 89.22C24.9139 89.5375 25.6882 89.7189 26.4534 89.7461C26.5809 89.7461 26.6993 89.7461 26.8269 89.7461L28.6578 89.6917L30.8531 85.9273L25.0232 80.6479L20.6691 85.9817L20.6782 85.9908Z" fill="#7A7A7A"/>
<path d="M22.7642 72.4113L24.6315 80.4845C25.3512 83.5868 28.3663 86.0269 31.3541 85.9452L121.344 83.614C123.594 83.5596 124.969 81.3553 124.441 78.6975L123.065 71.7764L22.7642 72.4204V72.4113Z" fill="#D8D8D8"/>
<path d="M75.5884 78.4344C75.8707 80.9379 77.9294 82.9154 80.1612 82.861C82.3838 82.8066 83.9506 80.7656 83.6773 78.2983C83.404 75.831 81.3818 73.8354 79.1501 73.8626C76.9001 73.8807 75.2969 75.9308 75.5793 78.4344H75.5884Z" fill="#075627"/>
<path d="M16.1328 13.3592L17.736 20.362V20.3892L107.334 26.4033L106.496 18.6294L24.6135 10.1753L19.0386 9.71268C16.9435 9.54033 15.6409 11.1731 16.1419 13.3501L16.1328 13.3592Z" fill="#262626"/>
<path d="M100.201 22.1944C100.283 22.9473 100.875 23.6004 101.522 23.6457C102.169 23.6911 102.624 23.1196 102.542 22.3667C102.46 21.6138 101.868 20.9698 101.221 20.9154C100.575 20.87 100.11 21.4415 100.192 22.1944H100.201Z" fill="#3CB54A"/>
<path d="M96.6214 21.9313C96.7033 22.6932 97.3045 23.3463 97.9604 23.3917C98.6163 23.437 99.0808 22.8656 98.9989 22.1036C98.9169 21.3416 98.3248 20.6976 97.6689 20.6432C97.0131 20.5888 96.5485 21.1693 96.6305 21.9313H96.6214Z" fill="#3CB54A"/>
<path d="M93.0597 21.6683C93.1417 22.4303 93.752 23.0834 94.4079 23.1378C95.0637 23.1922 95.5374 22.6026 95.4554 21.8497C95.3734 21.0969 94.7722 20.4347 94.1073 20.3802C93.4423 20.3258 92.9686 20.9064 93.0506 21.6683H93.0597Z" fill="#3CB54A"/>
<path d="M77.1095 78.4162C77.2826 79.9855 78.5761 81.2282 79.9789 81.201C81.3817 81.1738 82.3655 79.8857 82.1924 78.3345C82.0194 76.7834 80.7441 75.5316 79.3413 75.5498C77.9294 75.5679 76.9273 76.8469 77.1095 78.4162Z" fill="#3CB54A"/>
<path d="M29.168 70.2525L29.6508 72.3661L117.909 71.8037L117.582 70.1709H115.295L29.168 70.2525Z" fill="#737887"/>
<path d="M16.0508 12.044C16.2147 12.0258 16.3696 12.0349 16.5427 12.044L102.096 18.7837C103.717 18.9107 105.339 20.5616 105.712 22.4484L115.286 70.1708L115.623 71.8217L117.9 71.8036L117.572 70.1708L107.616 20.3893C107.234 18.4934 105.63 16.8516 104.018 16.7155L19.0295 9.72181C17.3807 9.58575 16.233 10.5654 16.0508 12.0531V12.044Z" fill="#9B9B9B"/>
<path d="M64.6204 64.0375L63.2808 59.2493L64.0485 59.2668L64.9928 62.9309L65.0423 62.932L66.1414 59.3144L66.9215 59.3322L67.8413 62.9834L67.8908 62.9845L69.002 59.3796L69.7698 59.397L68.2117 64.1193L67.4934 64.103L66.5371 60.4261L66.4628 60.4244L65.3387 64.0539L64.6204 64.0375Z" fill="white"/>
<path d="M71.7038 64.1988L70.3642 59.4106L71.132 59.4281L72.0762 63.0922L72.1257 63.0933L73.2248 59.4757L74.0049 59.4935L74.9247 63.1447L74.9742 63.1458L76.0854 59.5409L76.8532 59.5583L75.2951 64.2806L74.5768 64.2643L73.6205 60.5874L73.5462 60.5857L72.4221 64.2152L71.7038 64.1988Z" fill="white"/>
<path d="M78.8413 64.3614L77.4601 59.425L78.2517 59.443L79.2251 63.2205L79.2762 63.2217L80.4092 59.4922L81.2135 59.5105L82.1617 63.2746L82.2128 63.2758L83.3583 59.5593L84.1498 59.5773L82.5436 64.4457L81.8031 64.4288L80.8172 60.6383L80.7406 60.6365L79.5817 64.3782L78.8413 64.3614Z" fill="white"/>
<path d="M84.9138 64.5507C84.7563 64.5472 84.6225 64.4877 84.5123 64.3724C84.4021 64.257 84.3489 64.1206 84.3525 63.9632C84.3561 63.8057 84.4156 63.6719 84.5309 63.5617C84.6463 63.4515 84.7827 63.3982 84.9402 63.4018C85.0976 63.4053 85.2314 63.4648 85.3416 63.5801C85.4518 63.6955 85.5051 63.8319 85.5015 63.9893C85.4991 64.0936 85.4703 64.1887 85.4151 64.2748C85.362 64.3608 85.2913 64.4295 85.2028 64.4807C85.1165 64.5298 85.0202 64.5532 84.9138 64.5507Z" fill="white"/>
<path d="M75.8616 49.2984C76.0894 48.4276 76.226 47.3753 76.2442 46.187L69.3121 45.9512C69.7767 47.1667 70.3141 48.2552 70.888 49.1532C72.1178 51.0944 73.1926 51.7657 73.8576 51.7747C74.5317 51.7929 75.3606 51.1761 75.8616 49.2893V49.2984ZM76.1987 44.772C76.144 43.8739 76.0256 42.9215 75.8434 41.9327C75.6612 40.944 75.4244 39.9825 75.142 39.0754L67.7271 38.7488C67.7818 39.6559 67.9002 40.6174 68.0915 41.6243C68.2828 42.6312 68.5196 43.6018 68.8111 44.5089L76.2078 44.772H76.1987ZM73.1015 34.422C71.8809 32.4536 70.7969 31.7551 70.1229 31.7188C69.4488 31.6825 68.6016 32.2812 68.0824 34.168C67.8456 35.0388 67.7089 36.1001 67.6907 37.3156L74.6501 37.6422C74.1947 36.4267 73.6572 35.3381 73.0924 34.431L73.1015 34.422ZM62.6533 38.5221C62.5714 39.4382 62.626 40.4088 62.8173 41.4157C63.0086 42.4226 63.3274 43.4022 63.7464 44.3365L67.4812 44.4726C67.1988 43.5474 66.962 42.5768 66.7798 41.579C66.5976 40.5812 66.4701 39.6196 66.3972 38.6944L62.6442 38.5311L62.6533 38.5221ZM62.8811 37.0888L66.3425 37.2521C66.3425 35.1204 66.6705 33.3244 67.2899 32.0907C65.0764 32.8436 63.4914 34.6669 62.8811 37.0888ZM75.9618 37.6966L79.2867 37.8508C77.8201 35.3835 75.5884 33.397 73.1107 32.3991C74.1855 33.7144 75.1876 35.5468 75.9618 37.6966ZM76.4264 39.1298C76.6997 40.046 76.9274 40.9984 77.1096 41.9872C77.2918 42.9759 77.4102 43.9193 77.4739 44.8264L81.063 44.9534C81.1358 44.0644 81.0903 43.121 80.9081 42.1414C80.7259 41.1617 80.4253 40.2002 80.0245 39.2931L76.4264 39.1298ZM70.8789 51.1851C69.7858 49.8971 68.7747 48.0647 67.9822 45.9058L64.5389 45.7879C66.0693 48.2824 68.3648 50.2418 70.8789 51.1761V51.1851ZM80.8443 46.3412L77.5377 46.2324C77.5377 48.3278 77.2189 50.1057 76.6177 51.3393C78.7492 50.5411 80.2705 48.7178 80.8443 46.3503V46.3412ZM61.4874 41.3613C60.2667 34.9118 64.047 29.9409 69.8496 30.2765C75.5428 30.6031 81.0265 35.9459 82.1652 42.1867C83.3038 48.4094 79.7421 53.335 74.1218 53.208C68.4012 53.081 62.708 47.7835 61.4874 41.3613Z" fill="white"/>
<path d="M61.123 10.4385L70.2868 11.2277C70.4963 11.2458 70.6329 11.0735 70.5965 10.8376C70.5601 10.6018 70.3506 10.4022 70.141 10.3841L60.9681 9.57675C60.7495 9.55861 60.6129 9.73096 60.6493 9.97587C60.6857 10.2117 60.8952 10.4203 61.1139 10.4385H61.123Z" fill="#405070"/>
</svg>
