<svg width="110" height="111" viewBox="0 0 110 111" fill="none" xmlns="http://www.w3.org/2000/svg">
<path d="M66.58 19.22V82.6C66.58 83.42 65.92 84.08 65.1 84.08H10.38C9.56002 84.08 8.90002 83.42 8.90002 82.6V13.2C8.90002 12.38 9.56002 11.72 10.38 11.72H59.09L66.58 19.22Z" fill="#D8D8D8"/>
<path d="M57.34 45.5901H18.13C17.2905 45.5901 16.61 46.2706 16.61 47.1101C16.61 47.9496 17.2905 48.6301 18.13 48.6301H57.34C58.1795 48.6301 58.86 47.9496 58.86 47.1101C58.86 46.2706 58.1795 45.5901 57.34 45.5901Z" fill="#7A7A7A"/>
<path d="M53.51 54.5701H18.06C17.2592 54.5701 16.61 55.2193 16.61 56.0201V56.1601C16.61 56.9609 17.2592 57.6101 18.06 57.6101H53.51C54.3108 57.6101 54.96 56.9609 54.96 56.1601V56.0201C54.96 55.2193 54.3108 54.5701 53.51 54.5701Z" fill="#7A7A7A"/>
<path d="M57.34 63.45H18.13C17.2905 63.45 16.61 64.1305 16.61 64.97C16.61 65.8094 17.2905 66.4899 18.13 66.4899H57.34C58.1795 66.4899 58.86 65.8094 58.86 64.97C58.86 64.1305 58.1795 63.45 57.34 63.45Z" fill="#7A7A7A"/>
<path d="M18.04 36.0398V22.5798H23.71C25.15 22.5798 26.41 22.8598 27.51 23.4298C28.61 23.9898 29.46 24.7798 30.07 25.7998C30.68 26.8098 30.98 27.9898 30.98 29.3198C30.98 30.6498 30.68 31.8298 30.07 32.8398C29.46 33.8498 28.61 34.6398 27.51 35.1998C26.41 35.7598 25.15 36.0498 23.71 36.0498H18.04V36.0398ZM19.96 34.3698H23.59C24.71 34.3698 25.67 34.1598 26.48 33.7398C27.29 33.3198 27.93 32.7198 28.37 31.9598C28.82 31.1998 29.04 30.3198 29.04 29.3198C29.04 28.3198 28.82 27.4198 28.37 26.6698C27.92 25.9098 27.29 25.3198 26.48 24.8998C25.67 24.4798 24.7 24.2698 23.59 24.2698H19.96V34.3798V34.3698Z" fill="#7A7A7A"/>
<path d="M33.92 36.0398V22.5798H35.5L44.4 33.6398H43.57V22.5798H45.49V36.0398H43.91L35.01 24.9798H35.84V36.0398H33.92Z" fill="#7A7A7A"/>
<path d="M53.4601 36.1999C52.4301 36.1999 51.4501 36.0399 50.5201 35.7299C49.5901 35.4199 48.8501 35.0099 48.3101 34.5099L49.0201 33.0099C49.5301 33.4599 50.1901 33.8299 50.9801 34.1299C51.7701 34.4199 52.6001 34.5699 53.4601 34.5699C54.2401 34.5699 54.8801 34.4799 55.3601 34.2999C55.8401 34.1199 56.2101 33.8699 56.4401 33.5599C56.6701 33.2499 56.7901 32.8899 56.7901 32.4899C56.7901 32.0299 56.6401 31.6599 56.3401 31.3699C56.0401 31.0899 55.6501 30.8599 55.1701 30.6899C54.6901 30.5199 54.1601 30.3699 53.5801 30.2399C53.0001 30.1099 52.4201 29.9599 51.8401 29.7899C51.2601 29.6199 50.7201 29.3999 50.2401 29.1299C49.7601 28.8599 49.3701 28.4999 49.0801 28.0399C48.7801 27.5799 48.6401 26.9999 48.6401 26.2799C48.6401 25.5599 48.8201 24.9499 49.1901 24.3699C49.5601 23.7899 50.1201 23.3199 50.8801 22.9699C51.6401 22.6199 52.6101 22.4399 53.7901 22.4399C54.5701 22.4399 55.3501 22.5399 56.1201 22.7499C56.8901 22.9599 57.5601 23.2499 58.1201 23.6299L57.4901 25.1699C56.9101 24.7899 56.3001 24.5099 55.6601 24.3299C55.0201 24.1599 54.4001 24.0699 53.7901 24.0699C53.0301 24.0699 52.4101 24.1699 51.9201 24.3599C51.4301 24.5499 51.0801 24.8099 50.8501 25.1299C50.6301 25.4499 50.5101 25.8099 50.5101 26.2099C50.5101 26.6799 50.6601 27.0599 50.9601 27.3399C51.2601 27.6199 51.6501 27.8499 52.1301 28.0099C52.6101 28.1799 53.1401 28.3299 53.7201 28.4599C54.3001 28.5899 54.8801 28.7499 55.4601 28.9099C56.0401 29.0799 56.5801 29.2899 57.0601 29.5599C57.5401 29.8299 57.9301 30.1899 58.2201 30.6399C58.5101 31.0899 58.6601 31.6699 58.6601 32.3699C58.6601 33.0699 58.4701 33.6799 58.1001 34.2599C57.7301 34.8399 57.1501 35.3099 56.3801 35.6599C55.6001 36.0099 54.6301 36.1899 53.4501 36.1899L53.4601 36.1999Z" fill="#7A7A7A"/>
<path d="M66.58 19.22L60.28 19.19C59.59 19.19 59.03 18.62 59.04 17.93L59.1 11.73L66.59 19.23L66.58 19.22Z" fill="#9B9B9B"/>
<path d="M71.4401 41.54V45.2L70.0901 44.57L71.4401 41.54Z" fill="#075627"/>
<path d="M50.7001 41.54V45.2L51.5901 45.99L52.4901 44.72L50.7001 41.54Z" fill="#075627"/>
<path d="M71.44 70.55V74.2L70.17 70.69L71.44 70.55Z" fill="#075627"/>
<path d="M50.7001 70.55V74.2L51.9601 70.7L50.7001 70.55Z" fill="#075627"/>
<path d="M44.8401 48.6699V52.3299L46.5701 49.3299L44.8401 48.6699Z" fill="#075627"/>
<path d="M77.3001 48.6699V52.3199L75.5701 49.3299L77.3001 48.6699Z" fill="#075627"/>
<path d="M59.3401 41.9599L58.6701 45.7599C57.8201 45.8999 56.9901 46.1199 56.1801 46.4099L53.7101 43.4699L50.7101 45.1999L51.9901 48.7799C51.3101 49.3299 50.6901 49.9499 50.1201 50.6199L46.5701 49.3299L44.8401 52.3299L47.6801 54.7399C47.3601 55.5799 47.1201 56.4399 46.9601 57.3199L43.3101 57.9699V61.4299L46.9501 62.0899C47.1001 62.9799 47.3201 63.8599 47.6401 64.6999L44.8201 67.0699L46.5501 70.0699L50.0001 68.8299C50.5801 69.5299 51.2201 70.1799 51.9201 70.7599L50.6701 74.1899L53.6701 75.9199L56.0401 73.1299C56.8901 73.4499 57.7801 73.6899 58.6801 73.8399L59.3201 77.4399H62.7801L63.4401 73.8299C64.3301 73.6699 65.2001 73.4299 66.0501 73.0999L68.4401 75.9099L71.4401 74.1799L70.1701 70.6599C70.8501 70.0899 71.4801 69.4599 72.0401 68.7799L75.5801 70.0499L77.3101 67.0499L74.4001 64.5999C74.7001 63.7799 74.9301 62.9399 75.0701 62.0799L78.8201 61.3999V57.9399L75.0301 57.2699C74.8801 56.4299 74.6501 55.5999 74.3601 54.7999L77.3101 52.2999L75.5801 49.2999L71.9401 50.6199C71.3901 49.9699 70.7901 49.3699 70.1401 48.8199L71.4501 45.1699L68.4501 43.4399L65.9601 46.3999C65.1601 46.0999 64.3301 45.8699 63.4901 45.7199L62.8001 41.9299H59.3401V41.9599ZM61.0701 54.1599C64.1301 54.1599 66.6101 56.6399 66.6101 59.6999C66.6101 62.7599 64.1301 65.2399 61.0701 65.2399C58.0101 65.2399 55.5301 62.7599 55.5301 59.6999C55.5301 56.6399 58.0101 54.1599 61.0701 54.1599Z" fill="#075627"/>
<path d="M59.3401 38.31L58.6701 42.11C57.8201 42.25 56.9901 42.47 56.1801 42.76L53.7101 39.82L50.7101 41.55L51.9901 45.13C51.3101 45.68 50.6901 46.3 50.1201 46.97L46.5701 45.68L44.8401 48.68L47.6801 51.09C47.3601 51.93 47.1201 52.79 46.9601 53.67L43.3101 54.32V57.78L46.9501 58.44C47.1001 59.33 47.3201 60.21 47.6401 61.05L44.8201 63.42L46.5501 66.42L50.0001 65.18C50.5801 65.88 51.2201 66.53 51.9201 67.11L50.6701 70.54L53.6701 72.27L56.0401 69.48C56.8901 69.8 57.7801 70.04 58.6801 70.19L59.3201 73.79H62.7801L63.4401 70.18C64.3301 70.02 65.2001 69.78 66.0501 69.45L68.4401 72.26L71.4401 70.53L70.1701 67.01C70.8501 66.44 71.4801 65.81 72.0401 65.13L75.5801 66.4L77.3101 63.4L74.4001 60.95C74.7001 60.13 74.9301 59.29 75.0701 58.43L78.8201 57.75V54.29L75.0301 53.62C74.8801 52.78 74.6501 51.95 74.3601 51.15L77.3101 48.65L75.5801 45.65L71.9401 46.97C71.3901 46.32 70.7901 45.72 70.1401 45.17L71.4501 41.52L68.4501 39.79L65.9601 42.75C65.1601 42.45 64.3301 42.22 63.4901 42.07L62.8001 38.28H59.3401V38.31ZM61.0701 50.51C64.1301 50.51 66.6101 52.99 66.6101 56.05C66.6101 59.11 64.1301 61.59 61.0701 61.59C58.0101 61.59 55.5301 59.11 55.5301 56.05C55.5301 52.99 58.0101 50.51 61.0701 50.51Z" fill="#0C9548"/>
<path d="M77.3 63.4199V67.0799L75.89 65.8799L77.3 63.4199Z" fill="#075627"/>
<path d="M44.8301 63.4199V67.0699L46.2501 65.8799L44.8301 63.4199Z" fill="#075627"/>
<path d="M78.8101 57.78V61.43L75.0701 58.46L78.8101 57.78Z" fill="#075627"/>
<path d="M43.3201 57.78V61.43L46.9601 58.44L43.3201 57.78Z" fill="#075627"/>
<mask id="mask0_1785_270" style="mask-type:luminance" maskUnits="userSpaceOnUse" x="43" y="38" width="36" height="36">
<path d="M59.3401 38.31L58.6701 42.11C57.8201 42.25 56.9901 42.47 56.1801 42.76L53.7101 39.82L50.7101 41.55L51.9901 45.13C51.3101 45.68 50.6901 46.3 50.1201 46.97L46.5701 45.68L44.8401 48.68L47.6801 51.09C47.3601 51.93 47.1201 52.79 46.9601 53.67L43.3101 54.32V57.78L46.9501 58.44C47.1001 59.33 47.3201 60.21 47.6401 61.05L44.8201 63.42L46.5501 66.42L50.0001 65.18C50.5801 65.88 51.2201 66.53 51.9201 67.11L50.6701 70.54L53.6701 72.27L56.0401 69.48C56.8901 69.8 57.7801 70.04 58.6801 70.19L59.3201 73.79H62.7801L63.4401 70.18C64.3301 70.02 65.2001 69.78 66.0501 69.45L68.4401 72.26L71.4401 70.53L70.1701 67.01C70.8501 66.44 71.4801 65.81 72.0401 65.13L75.5801 66.4L77.3101 63.4L74.4001 60.95C74.7001 60.13 74.9301 59.29 75.0701 58.43L78.8201 57.75V54.29L75.0301 53.62C74.8801 52.78 74.6501 51.95 74.3601 51.15L77.3101 48.65L75.5801 45.65L71.9401 46.97C71.3901 46.32 70.7901 45.72 70.1401 45.17L71.4501 41.52L68.4501 39.79L65.9601 42.75C65.1601 42.45 64.3301 42.22 63.4901 42.07L62.8001 38.28H59.3401V38.31ZM61.0701 50.51C64.1301 50.51 66.6101 52.99 66.6101 56.05C66.6101 59.11 64.1301 61.59 61.0701 61.59C58.0101 61.59 55.5301 59.11 55.5301 56.05C55.5301 52.99 58.0101 50.51 61.0701 50.51Z" fill="white"/>
</mask>
<g mask="url(#mask0_1785_270)">
<path d="M46.2501 59.7001C46.2501 59.7001 51.8401 56.0501 61.0601 56.0501C70.2801 56.0501 75.0601 59.7001 75.0601 59.7001H80.8901V38.3001L61.0601 34.5701L45.5401 38.6501L41.3601 58.7001L46.2501 59.7001Z" fill="#3CB54A"/>
</g>
<path d="M61.07 50.51C64.13 50.51 66.61 52.99 66.61 56.05C66.61 59.11 64.13 61.59 61.07 61.59C58.01 61.59 55.53 59.11 55.53 56.05C55.53 52.99 58.01 50.51 61.07 50.51ZM61.07 50.01C57.74 50.01 55.53 52.72 55.53 56.05C55.53 59.38 57.74 62.09 61.07 62.09C64.4 62.09 66.61 59.38 66.61 56.05C66.61 52.72 64.4 50.01 61.07 50.01Z" fill="url(#paint0_linear_1785_270)"/>
<path d="M95.49 65.3601V67.9501L94.53 67.5101L95.49 65.3601Z" fill="#075627"/>
<path d="M80.77 65.3601V67.9501L81.4 68.5201L82.04 67.6201L80.77 65.3601Z" fill="#075627"/>
<path d="M95.49 85.95V88.54L94.59 86.04L95.49 85.95Z" fill="#075627"/>
<path d="M80.77 85.95V88.54L81.66 86.05L80.77 85.95Z" fill="#075627"/>
<path d="M76.61 70.4199V73.0099L77.84 70.8799L76.61 70.4199Z" fill="#075627"/>
<path d="M99.65 70.4199V73.0099L98.42 70.8799L99.65 70.4199Z" fill="#075627"/>
<path d="M86.9 65.6501L86.42 68.3401C85.82 68.4401 85.23 68.5901 84.65 68.8001L82.9 66.7101L80.77 67.9401L81.68 70.4801C81.2 70.8701 80.76 71.3101 80.35 71.7801L77.83 70.8701L76.6 73.0001L78.62 74.7101C78.39 75.3001 78.22 75.9201 78.11 76.5401L75.52 77.0001V79.4501L78.11 79.9201C78.21 80.5501 78.38 81.1701 78.6 81.7701L76.6 83.4501L77.83 85.5801L80.28 84.7001C80.69 85.2001 81.15 85.6601 81.65 86.0701L80.77 88.5101L82.9 89.7401L84.58 87.7601C85.19 87.9901 85.81 88.1601 86.45 88.2601L86.9 90.8101H89.35L89.82 88.2501C90.45 88.1401 91.07 87.9601 91.67 87.7401L93.36 89.7401L95.49 88.5101L94.59 86.0201C95.07 85.6201 95.52 85.1701 95.92 84.6801L98.43 85.5801L99.66 83.4501L97.59 81.7101C97.8 81.1301 97.96 80.5301 98.07 79.9201L100.73 79.4401V76.9901L98.04 76.5101C97.93 75.9101 97.77 75.3201 97.56 74.7601L99.65 72.9901L98.42 70.8601L95.84 71.8001C95.45 71.3401 95.02 70.9101 94.56 70.5201L95.49 67.9301L93.36 66.7001L91.59 68.8001C91.02 68.5901 90.44 68.4301 89.84 68.3201L89.35 65.6301H86.9V65.6501ZM88.13 74.3101C90.3 74.3101 92.06 76.0701 92.06 78.2401C92.06 80.4101 90.3 82.1701 88.13 82.1701C85.96 82.1701 84.2 80.4101 84.2 78.2401C84.2 76.0701 85.96 74.3101 88.13 74.3101Z" fill="#075627"/>
<path d="M86.9 63.06L86.42 65.75C85.82 65.85 85.23 66 84.65 66.21L82.9 64.12L80.77 65.35L81.68 67.89C81.2 68.28 80.76 68.72 80.35 69.19L77.83 68.28L76.6 70.41L78.62 72.12C78.39 72.71 78.22 73.33 78.11 73.95L75.52 74.41V76.86L78.11 77.33C78.21 77.96 78.38 78.58 78.6 79.18L76.6 80.86L77.83 82.99L80.28 82.11C80.69 82.61 81.15 83.07 81.65 83.48L80.77 85.92L82.9 87.15L84.58 85.17C85.19 85.4 85.81 85.57 86.45 85.67L86.9 88.22H89.35L89.82 85.66C90.45 85.55 91.07 85.37 91.67 85.15L93.36 87.15L95.49 85.92L94.59 83.43C95.07 83.03 95.52 82.58 95.92 82.09L98.43 82.99L99.66 80.86L97.59 79.12C97.8 78.54 97.96 77.94 98.07 77.33L100.73 76.85V74.4L98.04 73.92C97.93 73.32 97.77 72.73 97.56 72.17L99.65 70.4L98.42 68.27L95.84 69.21C95.45 68.75 95.02 68.32 94.56 67.93L95.49 65.34L93.36 64.11L91.59 66.21C91.02 66 90.44 65.84 89.84 65.73L89.35 63.04H86.9V63.06ZM88.13 71.72C90.3 71.72 92.06 73.48 92.06 75.65C92.06 77.82 90.3 79.58 88.13 79.58C85.96 79.58 84.2 77.82 84.2 75.65C84.2 73.48 85.96 71.72 88.13 71.72Z" fill="#0C9548"/>
<path d="M99.65 80.8901V83.4801L98.64 82.6301L99.65 80.8901Z" fill="#075627"/>
<path d="M76.61 80.8901V83.4801L77.61 82.6301L76.61 80.8901Z" fill="#075627"/>
<path d="M100.72 76.8801V79.4701L98.0601 77.3601L100.72 76.8801Z" fill="#075627"/>
<path d="M75.53 76.8801V79.4701L78.12 77.3501L75.53 76.8801Z" fill="#075627"/>
<mask id="mask1_1785_270" style="mask-type:luminance" maskUnits="userSpaceOnUse" x="75" y="63" width="26" height="26">
<path d="M86.9 63.06L86.42 65.75C85.82 65.85 85.23 66 84.65 66.21L82.9 64.12L80.77 65.35L81.68 67.89C81.2 68.28 80.76 68.72 80.35 69.19L77.83 68.28L76.6 70.41L78.62 72.12C78.39 72.71 78.22 73.33 78.11 73.95L75.52 74.41V76.86L78.11 77.33C78.21 77.96 78.38 78.58 78.6 79.18L76.6 80.86L77.83 82.99L80.28 82.11C80.69 82.61 81.15 83.07 81.65 83.48L80.77 85.92L82.9 87.15L84.58 85.17C85.19 85.4 85.81 85.57 86.45 85.67L86.9 88.22H89.35L89.82 85.66C90.45 85.55 91.07 85.37 91.67 85.15L93.36 87.15L95.49 85.92L94.59 83.43C95.07 83.03 95.52 82.58 95.92 82.09L98.43 82.99L99.66 80.86L97.59 79.12C97.8 78.54 97.96 77.94 98.07 77.33L100.73 76.85V74.4L98.04 73.92C97.93 73.32 97.77 72.73 97.56 72.17L99.65 70.4L98.42 68.27L95.84 69.21C95.45 68.75 95.02 68.32 94.56 67.93L95.49 65.34L93.36 64.11L91.59 66.21C91.02 66 90.44 65.84 89.84 65.73L89.35 63.04H86.9V63.06ZM88.13 71.72C90.3 71.72 92.06 73.48 92.06 75.65C92.06 77.82 90.3 79.58 88.13 79.58C85.96 79.58 84.2 77.82 84.2 75.65C84.2 73.48 85.96 71.72 88.13 71.72Z" fill="white"/>
</mask>
<g mask="url(#mask1_1785_270)">
<path d="M77.61 78.2502C77.61 78.2502 81.57 75.6602 88.12 75.6602C94.67 75.6602 98.06 78.2502 98.06 78.2502H102.19V63.0602L88.12 60.4102L77.1 63.3102L74.14 77.5402L77.61 78.2502Z" fill="#3CB54A"/>
</g>
<path d="M88.1301 71.7201C90.3001 71.7201 92.0601 73.4801 92.0601 75.6501C92.0601 77.8201 90.3001 79.5801 88.1301 79.5801C85.9601 79.5801 84.2001 77.8201 84.2001 75.6501C84.2001 73.4801 85.9601 71.7201 88.1301 71.7201ZM88.1301 71.3701C85.7701 71.3701 84.2001 73.2901 84.2001 75.6601C84.2001 78.0301 85.7701 79.9501 88.1301 79.9501C90.4901 79.9501 92.0601 78.0301 92.0601 75.6601C92.0601 73.2901 90.4901 71.3701 88.1301 71.3701Z" fill="url(#paint1_linear_1785_270)"/>
<path d="M71.9399 78.3801V80.4201L71.1899 80.0701L71.9399 78.3801Z" fill="#075627"/>
<path d="M60.33 78.3801V80.4201L60.83 80.8701L61.34 80.1601L60.33 78.3801Z" fill="#075627"/>
<path d="M71.95 94.6201V96.6601L71.23 94.7001L71.95 94.6201Z" fill="#075627"/>
<path d="M60.33 94.6201V96.6601L61.04 94.7001L60.33 94.6201Z" fill="#075627"/>
<path d="M57.0499 82.3701V84.4101L58.0199 82.7401L57.0499 82.3701Z" fill="#075627"/>
<path d="M75.2299 82.3701V84.4101L74.2599 82.7401L75.2299 82.3701Z" fill="#075627"/>
<path d="M65.1699 78.6101L64.7899 80.7401C64.3099 80.8201 63.8499 80.9401 63.3899 81.1001L62.0099 79.4501L60.3299 80.4201L61.0499 82.4301C60.6699 82.7401 60.3199 83.0801 59.9999 83.4601L58.0099 82.7401L57.0399 84.4201L58.6299 85.7701C58.4499 86.2401 58.3199 86.7201 58.2299 87.2201L56.1899 87.5801V89.5201L58.2299 89.8901C58.3099 90.3901 58.4399 90.8801 58.6099 91.3501L57.0299 92.6801L57.9999 94.3601L59.9299 93.6701C60.2499 94.0601 60.6099 94.4301 61.0099 94.7501L60.3099 96.6701L61.9899 97.6401L63.3199 96.0801C63.7999 96.2601 64.2899 96.3901 64.7999 96.4801L65.1599 98.5001H67.0999L67.4699 96.4801C67.9699 96.3901 68.4599 96.2601 68.9299 96.0701L70.2699 97.6501L71.9499 96.6801L71.2399 94.7101C71.6199 94.3901 71.9699 94.0401 72.2899 93.6601L74.2699 94.3701L75.2399 92.6901L73.6099 91.3201C73.7799 90.8601 73.8999 90.3901 73.9899 89.9101L76.0899 89.5301V87.5901L73.9699 87.2101C73.8899 86.7401 73.7599 86.2701 73.5899 85.8301L75.2399 84.4301L74.2699 82.7501L72.2299 83.4901C71.9199 83.1201 71.5899 82.7901 71.2199 82.4801L71.9499 80.4301L70.2699 79.4601L68.8799 81.1201C68.4299 80.9501 67.9699 80.8301 67.4999 80.7401L67.1099 78.6201H65.1699V78.6101ZM66.1399 85.4401C67.8499 85.4401 69.2399 86.8301 69.2399 88.5401C69.2399 90.2501 67.8499 91.6401 66.1399 91.6401C64.4299 91.6401 63.0399 90.2501 63.0399 88.5401C63.0399 86.8301 64.4299 85.4401 66.1399 85.4401Z" fill="#075627"/>
<path d="M65.1699 76.5701L64.7899 78.7001C64.3099 78.7801 63.8499 78.9001 63.3899 79.0601L62.0099 77.4101L60.3299 78.3801L61.0499 80.3901C60.6699 80.7001 60.3199 81.0401 59.9999 81.4201L58.0099 80.7001L57.0399 82.3801L58.6299 83.7301C58.4499 84.2001 58.3199 84.6801 58.2299 85.1801L56.1899 85.5401V87.4801L58.2299 87.8501C58.3099 88.3501 58.4399 88.8401 58.6099 89.3101L57.0299 90.6401L57.9999 92.3201L59.9299 91.6301C60.2499 92.0201 60.6099 92.3901 61.0099 92.7101L60.3099 94.6301L61.9899 95.6001L63.3199 94.0401C63.7999 94.2201 64.2899 94.3501 64.7999 94.4401L65.1599 96.4601H67.0999L67.4699 94.4401C67.9699 94.3501 68.4599 94.2201 68.9299 94.0301L70.2699 95.6101L71.9499 94.6401L71.2399 92.6701C71.6199 92.3501 71.9699 92.0001 72.2899 91.6201L74.2699 92.3301L75.2399 90.6501L73.6099 89.2801C73.7799 88.8201 73.8999 88.3501 73.9899 87.8701L76.0899 87.4901V85.5501L73.9699 85.1701C73.8899 84.7001 73.7599 84.2301 73.5899 83.7901L75.2399 82.3901L74.2699 80.7101L72.2299 81.4501C71.9199 81.0801 71.5899 80.7501 71.2199 80.4401L71.9499 78.3901L70.2699 77.4201L68.8799 79.0801C68.4299 78.9101 67.9699 78.7901 67.4999 78.7001L67.1099 76.5801H65.1699V76.5701ZM66.1399 83.4001C67.8499 83.4001 69.2399 84.7901 69.2399 86.5001C69.2399 88.2101 67.8499 89.6001 66.1399 89.6001C64.4299 89.6001 63.0399 88.2101 63.0399 86.5001C63.0399 84.7901 64.4299 83.4001 66.1399 83.4001Z" fill="#0C9548"/>
<path d="M75.2299 90.6301V92.6701L74.4299 92.0001L75.2299 90.6301Z" fill="#075627"/>
<path d="M57.0499 90.6301V92.6701L57.8399 92.0001L57.0499 90.6301Z" fill="#075627"/>
<path d="M76.07 87.47V89.51L73.98 87.85L76.07 87.47Z" fill="#075627"/>
<path d="M56.2 87.47V89.51L58.24 87.84L56.2 87.47Z" fill="#075627"/>
<mask id="mask2_1785_270" style="mask-type:luminance" maskUnits="userSpaceOnUse" x="56" y="76" width="21" height="21">
<path d="M65.1699 76.5701L64.7899 78.7001C64.3099 78.7801 63.8499 78.9001 63.3899 79.0601L62.0099 77.4101L60.3299 78.3801L61.0499 80.3901C60.6699 80.7001 60.3199 81.0401 59.9999 81.4201L58.0099 80.7001L57.0399 82.3801L58.6299 83.7301C58.4499 84.2001 58.3199 84.6801 58.2299 85.1801L56.1899 85.5401V87.4801L58.2299 87.8501C58.3099 88.3501 58.4399 88.8401 58.6099 89.3101L57.0299 90.6401L57.9999 92.3201L59.9299 91.6301C60.2499 92.0201 60.6099 92.3901 61.0099 92.7101L60.3099 94.6301L61.9899 95.6001L63.3199 94.0401C63.7999 94.2201 64.2899 94.3501 64.7999 94.4401L65.1599 96.4601H67.0999L67.4699 94.4401C67.9699 94.3501 68.4599 94.2201 68.9299 94.0301L70.2699 95.6101L71.9499 94.6401L71.2399 92.6701C71.6199 92.3501 71.9699 92.0001 72.2899 91.6201L74.2699 92.3301L75.2399 90.6501L73.6099 89.2801C73.7799 88.8201 73.8999 88.3501 73.9899 87.8701L76.0899 87.4901V85.5501L73.9699 85.1701C73.8899 84.7001 73.7599 84.2301 73.5899 83.7901L75.2399 82.3901L74.2699 80.7101L72.2299 81.4501C71.9199 81.0801 71.5899 80.7501 71.2199 80.4401L71.9499 78.3901L70.2699 77.4201L68.8799 79.0801C68.4299 78.9101 67.9699 78.7901 67.4999 78.7001L67.1099 76.5801H65.1699V76.5701ZM66.1399 83.4001C67.8499 83.4001 69.2399 84.7901 69.2399 86.5001C69.2399 88.2101 67.8499 89.6001 66.1399 89.6001C64.4299 89.6001 63.0399 88.2101 63.0399 86.5001C63.0399 84.7901 64.4299 83.4001 66.1399 83.4001Z" fill="white"/>
</mask>
<g mask="url(#mask2_1785_270)">
<path d="M57.84 88.55C57.84 88.55 60.97 86.51 66.13 86.51C71.29 86.51 73.97 88.55 73.97 88.55H77.23V76.57L66.13 74.48L57.44 76.77L55.1 87.99L57.84 88.55Z" fill="#3CB54A"/>
</g>
<path d="M66.1399 83.4001C67.8499 83.4001 69.2399 84.7901 69.2399 86.5001C69.2399 88.2101 67.8499 89.6001 66.1399 89.6001C64.4299 89.6001 63.0399 88.2101 63.0399 86.5001C63.0399 84.7901 64.4299 83.4001 66.1399 83.4001ZM66.1399 83.1201C64.2699 83.1201 63.0399 84.6401 63.0399 86.5001C63.0399 88.3601 64.2799 89.8801 66.1399 89.8801C67.9999 89.8801 69.2399 88.3601 69.2399 86.5001C69.2399 84.6401 67.9999 83.1201 66.1399 83.1201Z" fill="url(#paint2_linear_1785_270)"/>
<defs>
<linearGradient id="paint0_linear_1785_270" x1="61.07" y1="50.01" x2="61.07" y2="62.09" gradientUnits="userSpaceOnUse">
<stop offset="0.33" stop-color="white"/>
<stop offset="0.51" stop-color="#E4FEFF" stop-opacity="0"/>
<stop offset="0.63" stop-color="#E4FEFF" stop-opacity="0"/>
</linearGradient>
<linearGradient id="paint1_linear_1785_270" x1="88.1301" y1="71.3701" x2="88.1301" y2="79.9401" gradientUnits="userSpaceOnUse">
<stop offset="0.33" stop-color="white"/>
<stop offset="0.51" stop-color="#E4FEFF" stop-opacity="0"/>
<stop offset="0.63" stop-color="#E4FEFF" stop-opacity="0"/>
</linearGradient>
<linearGradient id="paint2_linear_1785_270" x1="66.1399" y1="83.1201" x2="66.1399" y2="89.8801" gradientUnits="userSpaceOnUse">
<stop offset="0.33" stop-color="white"/>
<stop offset="0.51" stop-color="#E4FEFF" stop-opacity="0"/>
<stop offset="0.63" stop-color="#E4FEFF" stop-opacity="0"/>
</linearGradient>
</defs>
</svg>
