<svg width="90" height="87" viewBox="0 0 90 87" fill="none" xmlns="http://www.w3.org/2000/svg">
<g clip-path="url(#clip0_1788_403)">
<path d="M2.71167 63.5519H17.6466V53.8456L32.2191 53.1084V66.0745L27.9599 71.6265L3.83397 66.0745L2.71167 63.5519Z" fill="#3D3D3D"/>
<path d="M61.2664 53.4194L79.7773 57.4969V65.8021L88.7627 68.2479V82.6535L61.2664 73.8382V53.4194Z" fill="#3D3D3D"/>
<path d="M19.3545 58.6639V54.4292L27.2837 53.9924L25.5097 53.4194L17.6466 53.8457V58.6639H19.3545Z" fill="#99A6BA"/>
<path d="M65.665 34.9397H27.3256V73.3734H65.665V34.9397Z" fill="#BBA04C"/>
<path d="M62.0123 34.9397H23.6729V73.3734H62.0123V34.9397Z" fill="#CDD693"/>
<path d="M36.3039 42.8186H23.6729V55.4808H36.3039V42.8186Z" fill="white"/>
<path d="M36.3423 42.8186H29.9884V55.4808H36.3423V42.8186Z" fill="#231F20"/>
<path d="M36.3423 55.4807H23.6729V61.8502H36.3423V55.4807Z" fill="#BBA04C"/>
<path d="M62.0122 55.4807H49.3428V61.8502H62.0122V55.4807Z" fill="#BBA04C"/>
<path d="M61.9913 36.449H23.6729V42.8185H61.9913V36.449Z" fill="#BBA04C"/>
<path d="M49.3638 55.4773H61.9949V42.8151H49.3638V55.4773Z" fill="white"/>
<path d="M49.3254 55.4773H55.6793V42.8151H49.3254V55.4773Z" fill="#231F20"/>
<path d="M90 43.0143L88.1597 44.0241L74.4133 45.2085L73.3014 37.8467L60.7226 40.8795H18.7061L19.5949 48.5662L10.2819 49.9324L8.82849 39.2862L24.8997 34.0453L67.6934 32.5708L74.0438 33.7378L75.4798 35.0166L90 43.0143Z" fill="#3D3D3D"/>
<path d="M4.7262 51.0888L0 10.0171L28.8905 0.621826L33.6132 46.5082L23.5474 48.2168L22.927 39.5203L9.68244 41.9276L10.4353 50.2922L4.7262 51.0888Z" fill="#CCCCCC"/>
<path d="M85.1971 0L28.8905 0.621928L33.6132 46.5083L48.3321 45.8864L47.5548 36.4911L74.4342 35.0166L75.6715 44.3351L90 43.0143L85.1971 0Z" fill="#9B9B9B"/>
<path d="M23.5474 48.217L41.6296 47.4029L48.332 45.8865L33.6132 46.5084L23.5474 48.217Z" fill="#3D3D3D"/>
<path d="M10.2227 56.9133L22.9653 60.0963V69.296L32.5815 72.1436V87L2.71167 77.4509V63.5519L10.1077 65.3757L10.2227 56.9133Z" fill="#CCCCCC"/>
<path d="M32.5815 87L88.7627 82.6535V68.2478L74.6643 69.027V59.8623L48.7956 61.3787V70.774L32.5815 72.1436V87Z" fill="#9B9B9B"/>
<path d="M10.2227 56.9135L13.5442 56.7283L24.5511 59.5933V68.7545L33.2646 71.1689L47.3805 69.8586V60.5437L72.4196 59.0588L74.6642 59.8624L48.7956 61.3788V70.7741L32.5815 72.1437L22.9653 69.2961V60.0965L10.2227 56.9135Z" fill="#7A7A7A"/>
<path d="M31.5778 71.8501V86.682L32.5816 87L33.9025 86.8987V72.0318L32.5816 72.1436L31.5778 71.8501Z" fill="white"/>
<path d="M28.8905 0.621826L27.9843 0.91532L32.7767 46.6515L33.6132 46.5082L34.4288 46.4733L29.8977 0.621826H28.8905Z" fill="white"/>
<path d="M52.0858 78.6529V64.4359L71.2555 63.1641V77.0421L52.0858 78.6529Z" fill="#7A7A7A"/>
<path d="M11.8887 59.5513V74.2854L20.7172 76.8465V61.8503L11.8887 59.5513Z" fill="#9B9B9B"/>
<path d="M62.5838 0.248072C78.1322 3.52542 86.9886 15.646 89.268 36.4457L85.1971 0L62.5803 0.248072H62.5838Z" fill="#7A7A7A"/>
</g>
<defs>
<clipPath id="clip0_1788_403">
<rect width="90" height="87" fill="white"/>
</clipPath>
</defs>
</svg>
