<?xml version="1.0" encoding="UTF-8"?>
<svg xmlns="http://www.w3.org/2000/svg" xmlns:xlink="http://www.w3.org/1999/xlink" width="24pt" height="24pt" viewBox="0 0 24 24" version="1.1">
<g id="surface1">
<path style=" stroke:none;fill-rule:evenodd;fill:rgb(0%,0%,0%);fill-opacity:1;" d="M 7.710938 3.832031 C 1.597656 6.3125 1.921875 6.132812 1.921875 7.027344 C 1.921875 7.476562 7.570312 21.375 7.882812 21.691406 C 8.347656 22.160156 8.78125 22.054688 12.457031 20.570312 C 16.683594 18.867188 16.730469 18.828125 16.140625 17.285156 C 15.488281 15.578125 15.210938 15.519531 12.667969 16.550781 C 10.757812 17.328125 10.242188 17.421875 9.910156 17.050781 C 9.660156 16.777344 6.601562 9.238281 6.601562 8.902344 C 6.601562 8.332031 7.015625 8.097656 10.585938 6.652344 C 15.179688 4.792969 15.183594 4.789062 14.300781 2.851562 C 13.640625 1.390625 13.761719 1.375 7.710938 3.832031 M 19.859375 6.964844 C 18.910156 7.175781 10.484375 10.695312 10.230469 10.988281 C 9.878906 11.386719 9.890625 11.820312 10.273438 12.78125 C 10.871094 14.273438 11.238281 14.328125 13.738281 13.320312 C 16.402344 12.246094 16.304688 12.199219 17.453125 15.078125 C 18.578125 17.898438 18.761719 18.046875 20.316406 17.402344 C 21.945312 16.722656 21.96875 16.582031 20.882812 13.863281 C 19.785156 11.117188 19.785156 10.992188 20.878906 10.441406 C 21.851562 9.949219 21.980469 9.609375 21.597656 8.488281 C 21.15625 7.191406 20.683594 6.777344 19.859375 6.964844 "/>
</g>
</svg>
