<?xml version="1.0" encoding="utf-8"?>
<!-- Generator: Adobe Illustrator 25.2.1, SVG Export Plug-In . SVG Version: 6.00 Build 0)  -->
<svg version="1.1" id="Layer_1" xmlns="http://www.w3.org/2000/svg" xmlns:xlink="http://www.w3.org/1999/xlink" x="0px" y="0px"
	 viewBox="0 0 400 150" style="enable-background:new 0 0 400 150;" xml:space="preserve">
<style type="text/css">
	.st0{fill:#0687C1;}
	.st1{fill:#FFFFFF;}
	.st2{fill:#42B66A;}
	.st3{fill:#111111;}
	.st4{fill:#FFD826;}
</style>
<g id="Layer_1_1_">
</g>
<path class="st0" d="M86.3,93.9V56.1c0-2.9-1.6-5.6-4.1-7.1L49.4,30c-2.5-1.5-5.7-1.5-8.2,0L8.3,48.9c-2.5,1.5-4.1,4.2-4.1,7.1v37.9
	c0,2.9,1.6,5.6,4.1,7.1L41.2,120c2.5,1.5,5.7,1.5,8.2,0l32.8-18.9C84.7,99.6,86.3,96.9,86.3,93.9z"/>
<path class="st1" d="M23.4,87.6L23.4,87.6c0.3,0.5,0.7,0.9,1.2,1.2l19,11c0.5,0.3,1.1,0.4,1.6,0.5l0.1,0c0.6,0,1.2-0.2,1.7-0.5
	l19-11c0.5-0.3,1-0.8,1.3-1.3c0.2-0.5,0.4-1.5,0.4-2.1V63.9c0-0.6-0.2-1.2-0.5-1.7c-0.3-0.5-0.7-0.9-1.2-1.2L47.2,50.1
	c-0.5-0.3-1.2-0.6-1.9-0.6h-0.1c-0.6,0-1.1,0.2-1.6,0.5l-19,11c-0.5,0.3-1,0.7-1.3,1.3c-0.3,0.5-0.5,1.1-0.5,1.7v21.9
	C22.9,86.5,23.1,87.1,23.4,87.6z M26.2,84V63.9l0-0.1l17.3-10V74L26.2,84z M28,86.9l17.3-10l17.5,10l-17.4,10l-0.1,0L28,86.9z
	 M64.4,63.9v20L46.9,74V53.8l17.4,9.7V63.9z"/>
<path class="st2" d="M179.7,93.9V56.1c0-2.9-1.6-5.6-4.1-7.1L142.7,30c-2.5-1.5-5.7-1.5-8.2,0l-32.8,18.9c-2.5,1.5-4.1,4.2-4.1,7.1
	v37.9c0,2.9,1.6,5.6,4.1,7.1l32.8,18.9c2.5,1.5,5.7,1.5,8.2,0l32.8-18.9C178.1,99.6,179.7,96.9,179.7,93.9z"/>
<path class="st1" d="M116.8,87.6L116.8,87.6c0.3,0.5,0.7,0.9,1.2,1.2l19,11c0.5,0.3,1.1,0.4,1.6,0.5l0.1,0c0.6,0,1.2-0.2,1.7-0.5
	l19-11c0.5-0.3,1-0.8,1.3-1.3c0.2-0.5,0.4-1.5,0.4-2.1V63.9c0-0.6-0.2-1.2-0.5-1.7c-0.3-0.5-0.7-0.9-1.2-1.2l-18.8-10.9
	c-0.5-0.3-1.2-0.6-1.9-0.6h-0.1c-0.6,0-1.1,0.2-1.6,0.5l-19,11c-0.5,0.3-1,0.7-1.3,1.3c-0.3,0.5-0.5,1.1-0.5,1.7v21.9
	C116.3,86.5,116.4,87.1,116.8,87.6z M119.6,84V63.9l0-0.1l17.3-10V74L119.6,84z M121.4,86.9l17.3-10l17.5,10l-17.4,10l-0.1,0
	L121.4,86.9z M157.8,63.9v20l-17.4-10V53.8l17.4,9.7V63.9z"/>
<g>
	<path class="st3" d="M323.3,87.8c0,5.9-3.8,11.4-16.5,11.4c-12.7,0-16.5-5.5-16.5-11.4v-26c0-5.9,3.8-11.4,16.5-11.4
		c12.7,0,16.5,5.5,16.5,11.4v3.4c0,1.3-0.4,1.8-1.6,1.8h-5.8c-1.3,0-1.8-0.5-1.8-1.8v-1.7c0-3.5-2.5-5.3-7.2-5.3
		c-4.7,0-7.1,1.8-7.1,5.3v22.6c0,3.5,2.4,5.3,7.1,5.3c4.7,0,7.2-1.8,7.2-5.3v-2.7c0-1.3,0.5-1.8,1.8-1.8h5.8c1.2,0,1.6,0.5,1.6,1.8
		V87.8z"/>
	<path class="st3" d="M332.7,98.7c-1.3,0-1.7-0.6-1.7-1.8V52.8c0-1.3,0.4-1.8,1.7-1.8h24c1.2,0,1.8,0.4,1.8,1.7v4.4
		c0,1.3-0.6,1.8-1.8,1.8h-16.2v11.4h15c1.3,0,1.8,0.4,1.8,1.7v4.2c0,1.2-0.6,1.7-1.8,1.7h-15v13.1h16.9c1.3,0,1.8,0.4,1.8,1.7v4.4
		c0,1.3-0.5,1.8-1.8,1.8H332.7z"/>
	<path class="st3" d="M394,51c1.2,0,1.8,0.4,1.8,1.7v4.4c0,1.3-0.6,1.8-1.8,1.8h-10v38c0,1.3-0.4,1.8-1.7,1.8h-6.1
		c-1.3,0-1.8-0.6-1.8-1.8v-38h-10c-1.3,0-1.8-0.5-1.8-1.8v-4.4c0-1.3,0.5-1.7,1.8-1.7H394z"/>
</g>
<path class="st4" d="M273,93.9V56.1c0-2.9-1.6-5.6-4.1-7.1L236.1,30c-2.5-1.5-5.7-1.5-8.2,0l-32.8,18.9c-2.5,1.5-4.1,4.2-4.1,7.1
	v37.9c0,2.9,1.6,5.6,4.1,7.1l32.8,18.9c2.5,1.5,5.7,1.5,8.2,0l32.8-18.9C271.5,99.6,273,96.9,273,93.9z"/>
<path class="st1" d="M210.2,87.6L210.2,87.6c0.3,0.5,0.7,0.9,1.2,1.2l19,11c0.5,0.3,1.1,0.4,1.6,0.5l0.1,0c0.6,0,1.2-0.2,1.7-0.5
	l19-11c0.5-0.3,1-0.8,1.3-1.3c0.2-0.5,0.4-1.5,0.4-2.1V63.9c0-0.6-0.2-1.2-0.5-1.7c-0.3-0.5-0.7-0.9-1.2-1.2L234,50.1
	c-0.5-0.3-1.2-0.6-1.9-0.6H232c-0.6,0-1.1,0.2-1.6,0.5l-19,11c-0.5,0.3-1,0.7-1.3,1.3c-0.3,0.5-0.5,1.1-0.5,1.7v21.9
	C209.7,86.5,209.8,87.1,210.2,87.6z M213,84V63.9l0-0.1l17.3-10V74L213,84z M214.7,86.9l17.3-10l17.5,10l-17.4,10l-0.1,0L214.7,86.9
	z M251.1,63.9v20l-17.4-10V53.8l17.4,9.7V63.9z"/>
</svg>
