<?xml version="1.0" encoding="utf-8"?>
<!-- Generator: Adobe Illustrator 23.0.6, SVG Export Plug-In . SVG Version: 6.00 Build 0)  -->
<svg version="1.1" xmlns="http://www.w3.org/2000/svg" xmlns:xlink="http://www.w3.org/1999/xlink" x="0px" y="0px" width="400px"
	 height="150px" viewBox="0 0 400 150" style="enable-background:new 0 0 400 150;" xml:space="preserve">
<style type="text/css">
	.st0{fill:#006AAF;}
</style>
<g id="Layer_1">
</g>
<g id="Lager_1">
	<g>
		<path class="st0" d="M41.1,87.6c0,6.3-4,12.2-17.5,12.2C10,99.8,6,93.9,6,87.6V60c0-6.3,4-12.2,17.5-12.2
			c13.5,0,17.5,5.9,17.5,12.2v3.6c0,1.3-0.4,1.9-1.7,1.9h-6.2c-1.3,0-1.9-0.5-1.9-1.9v-1.8c0-3.7-2.6-5.6-7.6-5.6
			c-5,0-7.5,1.9-7.5,5.6v24c0,3.7,2.5,5.6,7.5,5.6c5,0,7.6-1.9,7.6-5.6V83c0-1.3,0.5-1.9,1.9-1.9h6.2c1.3,0,1.7,0.5,1.7,1.9V87.6z"
			/>
		<path class="st0" d="M51.1,99.2c-1.3,0-1.8-0.6-1.8-1.9V50.4c0-1.3,0.4-1.9,1.8-1.9h25.5c1.3,0,1.9,0.4,1.9,1.8v4.7
			c0,1.3-0.6,1.9-1.9,1.9H59.3v12.1h16c1.3,0,1.9,0.4,1.9,1.8v4.5c0,1.3-0.6,1.8-1.9,1.8h-16v13.9h18c1.3,0,1.9,0.4,1.9,1.8v4.7
			c0,1.3-0.5,1.9-1.9,1.9H51.1z"/>
		<path class="st0" d="M116.3,48.4c1.3,0,1.9,0.4,1.9,1.8v4.7c0,1.3-0.6,1.9-1.9,1.9h-10.6v40.4c0,1.3-0.4,1.9-1.8,1.9h-6.5
			c-1.3,0-1.9-0.6-1.9-1.9V56.8H84.9c-1.3,0-1.9-0.5-1.9-1.9v-4.7c0-1.3,0.5-1.8,1.9-1.8H116.3z"/>
	</g>
	<g>
		<path d="M127,99.2c-0.5,0-0.8-0.3-0.7-0.9l6-48.9c0.1-0.6,0.4-0.9,1-0.9h14.5c10.8,0,14.5,4,14.5,9.1c0,0.5,0,1.3-0.1,1.8
			l-3.6,29.3c-0.7,5.8-4.6,10.5-16.8,10.5H127z M136,51.9l-5.4,43.9h11.6c8.7,0,12-3.1,12.6-7.7l3.5-28.3c0.1-0.5,0.1-1,0.1-1.4
			c0-3.9-2.8-6.5-10.8-6.5H136z"/>
		<path d="M197.7,80.3c-0.1,0.5-0.3,0.8-0.9,0.8H175l-1.1,9c-0.1,0.5-0.1,1-0.1,1.3c0,3.1,2.2,5.2,8.8,5.2c7.3,0,9.8-2.6,10.2-6.1
			l0.2-1.7c0.1-0.6,0.4-0.9,1-0.9h1.9c0.6,0,0.8,0.3,0.7,0.9l-0.2,1.8c-0.7,5.4-3.8,9.2-14.2,9.2c-9,0-12.3-3.2-12.3-7.8
			c0-0.4,0-0.9,0.1-1.3l2.5-19.5c0.7-5.4,4.1-9.3,14.3-9.3c9,0,12.2,3.2,12.2,7.8c0,0.4,0,1-0.1,1.4L197.7,80.3z M175.4,78.1h18.9
			l0.9-6.8c0.1-0.4,0.1-0.8,0.1-1.2c0-3.1-2.1-5.2-8.7-5.2c-7.3,0-9.8,2.6-10.2,6.2L175.4,78.1z"/>
		<path d="M230.3,70.5c0.1-0.6,0.1-1,0.1-1.4c0-2.3-2.4-4.4-8.4-4.4c-6.3,0-9.2,1.9-9.6,5.1l-0.3,2.2c-0.1,0.5-0.1,0.7-0.1,0.9
			c0,1.9,1.3,3.3,3.6,4l11.3,3.5c3.4,1.1,5.4,3.3,5.4,5.9c0,0.4-0.1,0.7-0.1,1.4l-0.4,4.2c-0.5,4.4-4.6,7.8-14.1,7.8
			c-8.5,0-12.2-3.2-12.2-7.1c0-0.2,0-0.4,0.1-1.2l0.2-1.9c0.1-0.6,0.4-0.8,1-0.8h2c0.4,0,0.7,0.1,0.6,0.8l-0.1,1.7
			c-0.1,0.7-0.1,0.8-0.1,1c0,2.8,3,4.5,8.8,4.5c6.4,0,9.8-1.9,10.3-5.1l0.4-3.2c0.1-0.7,0.1-0.8,0.1-1.1c0-1.9-1.9-3-4.1-3.7
			l-11-3.6c-2.8-0.9-5.2-3.2-5.2-6.3c0-0.1,0-0.5,0.1-1.1l0.4-2.9c0.5-4.3,4-7.9,13.4-7.9c8.3,0,11.8,3.4,11.8,7.2
			c0,0.4,0,0.6-0.1,1.3l-0.2,1.9c-0.1,0.6-0.4,0.8-1,0.8h-1.9c-0.5,0-0.8-0.3-0.7-0.8L230.3,70.5z"/>
		<path d="M245.1,98.3c-0.1,0.6-0.4,0.9-1,0.9H242c-0.5,0-0.8-0.2-0.7-0.9l4.3-34.9c0.1-0.6,0.3-1,1-1h2.1c0.7,0,0.9,0.3,0.8,1
			L245.1,98.3z M250.4,55c-0.1,0.6-0.4,0.9-1,0.9h-2.2c-0.6,0-0.8-0.3-0.7-0.9l0.9-7.1c0.1-0.6,0.4-0.9,1-0.9h2.2
			c0.6,0,0.8,0.2,0.7,0.9L250.4,55z"/>
		<path d="M257.6,91.9c0-0.4,0.1-0.9,0.1-1.3l2.5-19.6c0.7-5.4,4-9.2,11.3-9.2c6.3,0,10.5,2.9,12.5,4.6l0.5-3.1c0.1-0.7,0.4-1,1-1
			h1.9c0.7,0,0.8,0.4,0.7,1l-5.1,42.1c-0.7,5.4-4.1,9.3-14.5,9.3h-10.1c-0.6,0-0.9-0.3-0.8-0.9l0.2-1.6c0.1-0.6,0.4-0.9,1-0.9h10.1
			c7.3,0,9.8-2.5,10.2-6.2l1.2-9.8c-2.4,1.7-6.9,4.5-13.3,4.5C260.7,99.8,257.6,96.6,257.6,91.9z M261.7,89.9
			c-0.1,0.4-0.1,1-0.1,1.2c0,3,1.9,5.1,6.7,5.1c5.9,0,10.6-3.1,12.5-4.4l2.8-22.1c-1.6-1.3-5.5-4.5-11.4-4.5c-5.2,0-7.6,2.8-8.1,6.2
			L261.7,89.9z"/>
		<path d="M303.7,62.4c0.6,0,0.9,0.3,0.8,0.9l-0.2,3.1c2.3-1.8,7-4.6,13.4-4.6c6.2,0,9.4,3.1,9.4,7.7c0,0.4,0,0.7-0.1,1.4l-3.4,27.4
			c-0.1,0.6-0.4,0.9-1,0.9h-2.2c-0.4,0-0.8-0.1-0.7-0.9l3.3-26.6c0.1-0.5,0.1-1,0.1-1.1c0-3.1-1.9-5.2-6.6-5.2
			c-6,0-10.7,3.1-12.5,4.5l-3.5,28.5c-0.1,0.6-0.4,0.9-1,0.9h-2.2c-0.5,0-0.8-0.1-0.7-0.9l4.3-35c0.1-0.6,0.3-0.9,1-0.9H303.7z"/>
		<path d="M363.3,80.3c-0.1,0.5-0.3,0.8-0.9,0.8h-21.8l-1.1,9c-0.1,0.5-0.1,1-0.1,1.3c0,3.1,2.2,5.2,8.8,5.2c7.3,0,9.8-2.6,10.2-6.1
			l0.2-1.7c0.1-0.6,0.4-0.9,1-0.9h1.9c0.6,0,0.8,0.3,0.7,0.9l-0.2,1.8c-0.7,5.4-3.8,9.2-14.2,9.2c-9,0-12.3-3.2-12.3-7.8
			c0-0.4,0-0.9,0.1-1.3l2.5-19.5c0.7-5.4,4.1-9.3,14.3-9.3c9,0,12.2,3.2,12.2,7.8c0,0.4,0,1-0.1,1.4L363.3,80.3z M341,78.1h18.9
			l0.9-6.8c0.1-0.4,0.1-0.8,0.1-1.2c0-3.1-2.1-5.2-8.7-5.2c-7.3,0-9.8,2.6-10.2,6.2L341,78.1z"/>
		<path d="M394,62.8l-0.2,1.9c-0.1,0.5-0.4,0.8-1,0.8c-5.7,0.1-11.1,3.6-13.1,5.1l-3.4,27.7c-0.1,0.6-0.3,0.9-1,0.9H373
			c-0.5,0-0.8-0.2-0.7-0.9l4.3-35c0.1-0.6,0.3-0.9,1-0.9h1.9c0.6,0,0.9,0.3,0.8,0.9l-0.3,4c2.4-1.9,7.5-5.4,13.2-5.4
			C393.8,61.9,394.1,62.2,394,62.8z"/>
	</g>
</g>
</svg>
