<?xml version="1.0" encoding="utf-8"?>
<!-- Generator: Adobe Illustrator 23.0.6, SVG Export Plug-In . SVG Version: 6.00 Build 0)  -->
<svg version="1.1" xmlns="http://www.w3.org/2000/svg" xmlns:xlink="http://www.w3.org/1999/xlink" x="0px" y="0px" width="400px"
	 height="150px" viewBox="0 0 400 150" style="enable-background:new 0 0 400 150;" xml:space="preserve">
<style type="text/css">
	.st0{fill:#EC7C28;}
</style>
<g id="Layer_1">
</g>
<g id="Lager_1">
	<g>
		<path class="st0" d="M39.6,86.1c0,5.8-3.7,11.2-16.1,11.2c-12.4,0-16.1-5.4-16.1-11.2V60.7c0-5.8,3.7-11.2,16.1-11.2
			c12.4,0,16.1,5.4,16.1,11.2V64c0,1.2-0.4,1.7-1.6,1.7h-5.7c-1.2,0-1.7-0.5-1.7-1.7v-1.6c0-3.4-2.4-5.1-7-5.1
			c-4.6,0-6.9,1.7-6.9,5.1v22.1c0,3.4,2.3,5.1,6.9,5.1c4.6,0,7-1.7,7-5.1v-2.6c0-1.2,0.5-1.7,1.7-1.7H38c1.2,0,1.6,0.5,1.6,1.7V86.1
			z"/>
		<path class="st0" d="M48.8,96.8c-1.2,0-1.6-0.5-1.6-1.8V51.9c0-1.2,0.4-1.8,1.6-1.8h23.5c1.2,0,1.7,0.4,1.7,1.6v4.3
			c0,1.2-0.5,1.7-1.7,1.7H56.4v11.1h14.7c1.2,0,1.8,0.4,1.8,1.6v4.1c0,1.2-0.5,1.6-1.8,1.6H56.4v12.8H73c1.2,0,1.7,0.4,1.7,1.6v4.3
			c0,1.2-0.5,1.7-1.7,1.7H48.8z"/>
		<path class="st0" d="M108.8,50.1c1.2,0,1.7,0.4,1.7,1.6v4.3c0,1.2-0.5,1.7-1.7,1.7h-9.7V95c0,1.2-0.4,1.8-1.6,1.8h-6
			c-1.2,0-1.7-0.5-1.7-1.8V57.8H80c-1.2,0-1.7-0.5-1.7-1.7v-4.3c0-1.2,0.5-1.6,1.7-1.6H108.8z"/>
	</g>
	<g>
		<path d="M118.6,96.8c-0.5,0-0.8-0.3-0.7-0.8l5.5-44.8c0.1-0.5,0.3-0.8,0.9-0.8h13.3c9.9,0,13.3,3.7,13.3,8.3c0,0.5,0,1.2-0.1,1.6
			l-3.3,26.9c-0.7,5.3-4.2,9.6-15.4,9.6H118.6z M126.8,53.4l-4.9,40.2h10.6c8,0,11-2.9,11.6-7l3.2-25.9c0.1-0.5,0.1-1,0.1-1.3
			c0-3.6-2.5-5.9-9.9-5.9H126.8z"/>
		<path d="M183.3,79.5c-0.1,0.5-0.3,0.8-0.8,0.8h-20l-1,8.3c-0.1,0.5-0.1,0.9-0.1,1.2c0,2.9,2,4.8,8.1,4.8c6.7,0,9-2.4,9.4-5.6
			l0.2-1.6c0.1-0.5,0.4-0.8,1-0.8h1.7c0.5,0,0.8,0.3,0.7,0.8l-0.2,1.6c-0.6,4.9-3.5,8.4-13,8.4c-8.2,0-11.3-2.9-11.3-7.2
			c0-0.4,0-0.8,0.1-1.2l2.3-17.9c0.6-5,3.8-8.5,13.1-8.5c8.2,0,11.2,2.9,11.2,7.2c0,0.4,0,0.9-0.1,1.3L183.3,79.5z M162.9,77.5h17.3
			l0.8-6.2c0.1-0.3,0.1-0.8,0.1-1.1c0-2.8-1.9-4.8-8-4.8c-6.7,0-9,2.4-9.4,5.7L162.9,77.5z"/>
		<path d="M198.8,96.8c-0.5,0-0.6-0.2-0.8-0.8L191,64c-0.1-0.5,0.1-0.9,0.8-0.9h2.1c0.5,0,0.7,0.3,0.8,0.8l5.4,24.7
			c0.3,1.2,0.4,2.8,0.5,3.6c0.1-0.3,1-2.8,1.4-3.6l11.5-24.7c0.2-0.5,0.5-0.8,1-0.8h1.9c0.6,0,0.9,0.3,0.7,0.8L202,96
			c-0.3,0.5-0.5,0.8-1,0.8H198.8z"/>
		<path d="M245.2,79.5c-0.1,0.5-0.3,0.8-0.8,0.8h-20l-1,8.3c-0.1,0.5-0.1,0.9-0.1,1.2c0,2.9,2,4.8,8.1,4.8c6.7,0,9-2.4,9.4-5.6
			l0.2-1.6c0.1-0.5,0.4-0.8,1-0.8h1.7c0.5,0,0.8,0.3,0.7,0.8l-0.2,1.6c-0.6,4.9-3.5,8.4-13,8.4c-8.2,0-11.3-2.9-11.3-7.2
			c0-0.4,0-0.8,0.1-1.2l2.3-17.9c0.6-5,3.8-8.5,13.1-8.5c8.2,0,11.2,2.9,11.2,7.2c0,0.4,0,0.9-0.1,1.3L245.2,79.5z M224.8,77.5h17.3
			l0.8-6.2c0.1-0.3,0.1-0.8,0.1-1.1c0-2.8-1.9-4.8-8-4.8c-6.7,0-9,2.4-9.4,5.7L224.8,77.5z"/>
		<path d="M257,96c-0.1,0.5-0.3,0.8-0.9,0.8h-2c-0.6,0-0.8-0.3-0.7-0.8l5.6-46.1c0.1-0.5,0.3-0.8,1-0.8h2c0.5,0,0.7,0.3,0.6,0.8
			L257,96z"/>
		<path d="M270.7,71c0.6-5,4-8.5,13.3-8.5c8.2,0,11.5,2.9,11.5,7.2c0,0.4,0,0.6-0.1,1.2l-2.3,17.9c-0.6,4.9-3.9,8.4-13.3,8.4
			c-8.2,0-11.5-2.9-11.5-7.2c0-0.3,0-0.8,0.1-1.2L270.7,71z M291.9,71.2c0.1-0.5,0.1-0.7,0.1-0.8c0-2.9-2.2-4.9-8.2-4.9
			c-6.7,0-9.1,2.3-9.5,5.7l-2.2,17.4c-0.1,0.3-0.1,0.6-0.1,0.9c0,3,2.1,4.8,8.2,4.8c6.7,0,9.1-2.3,9.5-5.7L291.9,71.2z"/>
		<path d="M310.6,64l-0.3,2.8c2.2-1.6,6.4-4.2,12.3-4.2c5.7,0,8.5,2.9,8.5,7.1c0,0.4,0,0.6-0.1,1.3l-2.3,18c-0.6,5-3.6,8.4-10.3,8.4
			c-5.7,0-9.6-2.5-11.4-4.1l-2.1,16.9c-0.1,0.6-0.3,0.9-0.9,0.9h-2c-0.5,0-0.8-0.2-0.7-0.9l5.7-46.1c0.1-0.6,0.3-0.9,0.9-0.9h1.7
			C310.4,63.1,310.6,63.4,310.6,64z M327.5,71.5c0.1-0.6,0.1-0.7,0.1-1c0-2.7-1.8-4.7-6.1-4.7c-5.4,0-9.8,2.9-11.4,4.1l-2.5,20.2
			c1.3,1.2,4.9,4,10.4,4c4.8,0,7-2.5,7.4-5.6L327.5,71.5z"/>
		<path d="M364.1,79.5c-0.1,0.5-0.3,0.8-0.8,0.8h-20l-1,8.3c-0.1,0.5-0.1,0.9-0.1,1.2c0,2.9,2,4.8,8.1,4.8c6.7,0,9-2.4,9.4-5.6
			l0.2-1.6c0.1-0.5,0.4-0.8,1-0.8h1.7c0.5,0,0.8,0.3,0.7,0.8l-0.2,1.6c-0.6,4.9-3.5,8.4-13,8.4c-8.2,0-11.3-2.9-11.3-7.2
			c0-0.4,0-0.8,0.1-1.2L341,71c0.6-5,3.8-8.5,13.1-8.5c8.2,0,11.2,2.9,11.2,7.2c0,0.4,0,0.9-0.1,1.3L364.1,79.5z M343.7,77.5H361
			l0.8-6.2c0.1-0.3,0.1-0.8,0.1-1.1c0-2.8-1.9-4.8-8-4.8c-6.7,0-9,2.4-9.4,5.7L343.7,77.5z"/>
		<path d="M392.2,63.4l-0.2,1.7c-0.1,0.5-0.3,0.8-1,0.8c-5.3,0.1-10.2,3.3-12,4.7L375.9,96c-0.1,0.5-0.3,0.8-0.9,0.8h-2
			c-0.5,0-0.8-0.2-0.7-0.8l4-32.1c0.1-0.5,0.3-0.8,0.9-0.8h1.7c0.5,0,0.8,0.3,0.8,0.8l-0.3,3.7c2.2-1.8,6.9-5,12.1-5
			C392,62.6,392.3,62.9,392.2,63.4z"/>
	</g>
</g>
</svg>
