<?xml version="1.0" encoding="UTF-8"?>
<svg xmlns="http://www.w3.org/2000/svg" xmlns:xlink="http://www.w3.org/1999/xlink" width="24pt" height="24pt" viewBox="0 0 24 24" version="1.1">
<g id="surface1">
<path style=" stroke:none;fill-rule:evenodd;fill:rgb(0%,0%,0%);fill-opacity:1;" d="M 7.710938 3.832031 C 1.597656 6.3125 1.921875 6.132812 1.921875 7.027344 C 1.921875 7.476562 7.570312 21.375 7.882812 21.691406 C 8.371094 22.183594 8.71875 22.082031 14.261719 19.835938 C 20.808594 17.175781 20.613281 17.339844 19.703125 15.328125 C 19.09375 13.988281 18.878906 13.980469 15.945312 15.191406 C 14.734375 15.691406 13.09375 16.367188 12.308594 16.691406 C 10.753906 17.332031 10.234375 17.410156 9.910156 17.050781 C 9.660156 16.777344 6.601562 9.238281 6.601562 8.902344 C 6.601562 8.332031 7.015625 8.097656 10.585938 6.652344 C 15.179688 4.792969 15.183594 4.789062 14.300781 2.851562 C 13.640625 1.390625 13.761719 1.375 7.710938 3.832031 M 13.390625 7.210938 C 11.8125 7.863281 10.503906 8.414062 10.484375 8.433594 C 10.453125 8.464844 12.921875 14.523438 13 14.601562 C 13.035156 14.636719 18.953125 12.289062 19.035156 12.203125 C 19.101562 12.140625 16.421875 6 16.332031 6.007812 C 16.292969 6.015625 14.96875 6.554688 13.390625 7.210938 M 14.480469 8.992188 C 15.277344 9.476562 15.773438 10.871094 15.4375 11.675781 C 15.09375 12.496094 14.308594 12.601562 13.5625 11.929688 C 12.050781 10.5625 12.851562 8 14.480469 8.992188 "/>
</g>
</svg>
