<svg width="129" height="93" viewBox="0 0 129 93" fill="none" xmlns="http://www.w3.org/2000/svg">
<g clip-path="url(#clip0_1785_343)">
<path d="M103.38 21.91L105.46 60.78C105.82 67.58 101.18 73.29 95 73.51L91.21 73.65L80.93 92.46L65.52 74.6L32.68 75.82C31.98 75.85 31.28 75.82 30.6 75.74H30.59C25.54 75.13 21.21 71.68 19.34 66.94C19.14 66.45 18.98 65.94 18.84 65.43C18.58 64.47 18.42 63.48 18.38 62.45L16.31 18.67C15.95 11.06 21.82 5.23 29.3 5.65L91.62 9.08C97.81 9.42 103.04 15.17 103.4 21.93L103.38 21.91Z" fill="#9B9B9B"/>
<path d="M28.53 2.78003L20.63 8.43003L19.02 18.43L24.48 24.48L32.67 10.63L28.53 2.78003Z" fill="#9B9B9B"/>
<path d="M105.36 58.9498L105.46 60.7798C105.82 67.5798 101.18 73.2898 95.0001 73.5098L91.2101 73.6498L80.9301 92.4598L65.5201 74.5998L32.6801 75.8198C31.9801 75.8498 31.2801 75.8198 30.6001 75.7398H30.5901L38.8901 63.2898C38.8901 63.2898 59.1001 57.3498 60.7901 57.3198C62.0901 57.2998 92.5301 58.4598 105.38 58.9498H105.36Z" fill="#3D3D3D"/>
<path d="M87.65 86.34L80.91 92.47L79.88 82.92L83.94 81.97L87.65 86.34Z" fill="#3D3D3D"/>
<path d="M100.04 71.9599L107.81 65.1399L98.62 66.5099L98.94 68.6799L100.04 71.9599Z" fill="#3D3D3D"/>
<path d="M39.3601 66.46L33.0601 75.81H32.6601C31.9601 75.85 31.2601 75.82 30.5801 75.74H30.5701C25.5201 75.13 21.1901 71.68 19.3201 66.94L26.5201 57.78L30.1201 59.75L39.3601 66.47V66.46Z" fill="#7A7A7A"/>
<path d="M98.05 3.92992L36.98 0.089916C29.66 -0.370084 23.92 5.33992 24.28 12.8699L26.35 56.1399C26.71 63.7199 33.05 69.6899 40.37 69.4799L72.53 68.5499L87.65 86.3399L97.72 67.8199L101.44 67.7099C107.51 67.5299 112.06 61.9299 111.69 55.1999L109.62 16.7299C109.26 10.0399 104.12 4.30992 98.05 3.92992Z" fill="#D8D8D8"/>
<path d="M74.16 64.2699L40.16 65.0599C35.26 65.1699 31.03 61.1499 30.79 56.0999L28.71 13.0699C28.47 8.04993 32.3 4.19993 37.2 4.47993L98.28 7.96993C102.37 8.19993 105.85 12.0599 106.09 16.5699L108.16 55.2399C108.4 59.7799 105.31 63.5499 101.23 63.6499L95.55 63.7799L86.97 79.4499L74.16 64.2799V64.2699Z" fill="#262626"/>
<path d="M96.1901 25.0899L43.7001 23.3899C41.8901 23.3299 40.3401 21.7699 40.2501 19.9099C40.1601 18.0499 41.5601 16.5999 43.3701 16.6699L95.8601 18.8399C97.4201 18.8999 98.7501 20.3499 98.8401 22.0699C98.9301 23.7899 97.7501 25.1399 96.1901 25.0899Z" fill="#3CB54A"/>
<path d="M96.8101 36.9099L44.3201 36.0999C42.5101 36.0699 40.9601 34.5299 40.8701 32.6699C40.7801 30.7999 42.1801 29.3199 43.9901 29.3699L96.4801 30.6499C98.0401 30.6899 99.3701 32.1099 99.4601 33.8399C99.5501 35.5599 98.3701 36.9399 96.8101 36.9199V36.9099Z" fill="#3CB54A"/>
<path d="M73.65 50.08L45.02 50.18C43.21 50.18 41.66 48.67 41.57 46.8C41.48 44.93 42.88 43.42 44.68 43.43L73.31 43.59C74.97 43.59 76.39 45.05 76.49 46.84C76.58 48.62 75.31 50.08 73.65 50.08Z" fill="#3CB54A"/>
<path d="M39.11 69.4499L38.28 69.4799C30.95 69.6999 24.62 63.7199 24.26 56.1499L22.18 12.8799C21.81 5.33992 27.56 -0.370085 34.88 0.0899154L35.13 0.109915C28.72 0.629915 23.95 5.98991 24.28 12.8699L26.36 56.1399C26.7 63.2799 32.34 68.9999 39.11 69.4499Z" fill="white"/>
</g>
<defs>
<clipPath id="clip0_1785_343">
<rect width="128.48" height="92.47" fill="white"/>
</clipPath>
</defs>
</svg>
