<svg xmlns="http://www.w3.org/2000/svg" height="18" viewBox="0 0 18 18" width="18">
  <defs>
    <style>
      .a {
        fill: #6E6E6E;
      }
    </style>
  </defs>
  <title>S Code 18 N</title>
  <rect id="Canvas" fill="#ff13dc" opacity="0" width="18" height="18" /><path class="a" d="M17.7465,9.5305l-4.0965,4.16a.5.5,0,0,1-.70709.00541l-.00541-.00541-.4465-.4535a.503.503,0,0,1,0-.7L15.9715,9,12.492,5.4645a.503.503,0,0,1,0-.7l.4465-.4535a.5.5,0,0,1,.70709-.00541L13.651,4.311l4.0955,4.16A.76151.76151,0,0,1,17.7465,9.5305Z" />
  <path class="a" d="M.2535,8.4695,4.35,4.3095a.5.5,0,0,1,.70709-.00541l.00541.00541.4465.4535a.503.503,0,0,1,0,.7L2.0285,9,5.508,12.5355a.503.503,0,0,1,0,.7l-.4465.4535a.5.5,0,0,1-.70709.00541L4.349,13.689.2535,9.5305A.76151.76151,0,0,1,.2535,8.4695Z" />
  <path class="a" d="M7.7445,14.8435h-.572a.5.5,0,0,1-.483-.6295L9.7855,2.6935a.5.5,0,0,1,.483-.3705h.5525a.5.5,0,0,1,.483.627L8.2275,14.473A.5.5,0,0,1,7.7445,14.8435Z" />
</svg>