<?xml version="1.0" encoding="iso-8859-1"?>
<!-- Generator: Adobe Illustrator 16.0.0, SVG Export Plug-In . SVG Version: 6.00 Build 0)  -->
<!DOCTYPE svg PUBLIC "-//W3C//DTD SVG 1.1//EN" "http://www.w3.org/Graphics/SVG/1.1/DTD/svg11.dtd">
<svg version="1.1" id="Capa_1" xmlns="http://www.w3.org/2000/svg" xmlns:xlink="http://www.w3.org/1999/xlink" x="0px" y="0px"
	 width="490.381px" height="490.381px" viewBox="0 0 490.381 490.381" style="enable-background:new 0 0 490.381 490.381;"
	 xml:space="preserve">
<g>
	<g>
		<path d="M450.785,42.851H39.594C17.762,42.851,0,60.612,0,82.445v256.646c0,21.832,17.762,39.594,39.594,39.594H191.69v26.321
			h-50.17l-18.666,42.524h244.671l-18.664-42.524h-50.172v-26.321h152.096c21.832,0,39.596-17.762,39.596-39.594V82.445
			C490.379,60.612,472.617,42.851,450.785,42.851z M456.441,339.089c0,3.119-2.537,5.656-5.656,5.656H39.594
			c-3.118,0-5.656-2.537-5.656-5.656V82.445c0-3.119,2.538-5.656,5.656-5.656h411.191c3.119,0,5.656,2.537,5.656,5.656V339.089
			L456.441,339.089z"/>
		<path d="M245.19,105.424c-58.085,0-105.342,47.256-105.342,105.343c0,58.085,47.256,105.342,105.342,105.342
			c58.085,0,105.341-47.256,105.341-105.342S303.275,105.424,245.19,105.424z M289.177,219.888l-49.419,35.893
			c-1.962,1.424-4.288,2.151-6.625,2.151c-1.747,0-3.501-0.406-5.117-1.229c-3.777-1.925-6.154-5.806-6.154-10.043v-71.785
			c0-4.238,2.377-8.12,6.154-10.043c3.775-1.925,8.313-1.569,11.742,0.923l49.419,35.892c2.921,2.121,4.647,5.511,4.647,9.121
			C293.826,214.377,292.098,217.768,289.177,219.888z"/>
	</g>
</g>
<g>
</g>
<g>
</g>
<g>
</g>
<g>
</g>
<g>
</g>
<g>
</g>
<g>
</g>
<g>
</g>
<g>
</g>
<g>
</g>
<g>
</g>
<g>
</g>
<g>
</g>
<g>
</g>
<g>
</g>
</svg>
