<?xml version="1.0" encoding="UTF-8"?>
<svg width="120px" height="120px" viewBox="0 0 120 120" version="1.1" xmlns="http://www.w3.org/2000/svg" xmlns:xlink="http://www.w3.org/1999/xlink">
    <!-- Generator: Sketch 56.3 (81716) - https://sketch.com -->
    <title>Logo</title>
    <desc>Created with Sketch.</desc>
    <g id="Logo" stroke="none" stroke-width="1" fill="none" fill-rule="evenodd">
        <path d="M94.585282,52.355389 C94.1031787,53.2148703 92.8970128,53.2148703 92.4149095,52.355389 L68.1917194,9.18467069 C67.64697,8.21355023 68.3279067,7 69.4178595,7 L117.582786,7 C118.672285,7 119.353222,8.21355023 118.808018,9.18467069 L94.585282,52.355389 Z M92.4147116,66.6449564 C92.8968149,65.7850145 94.1029808,65.7850145 94.5850841,66.6449564 L118.808274,109.815346 C119.353024,110.786459 118.672087,112 117.582588,112 L69.4176616,112 C68.3277088,112 67.6467721,110.786459 68.1919754,109.815346 L92.4147116,66.6449564 Z M49.3387789,7 C51.6143897,6.99722249 53.7188671,8.21353903 54.8566725,10.1898795 L78.8047007,51.7755703 C79.3592652,52.7387001 78.666869,53.9429601 77.55774,53.9443513 L29.6612211,54 C27.3851478,54.0023152 25.2811329,52.7864624 24.1433275,50.8101219 L0.195299283,9.22443115 C-0.359265211,8.26083765 0.333130993,7.05704134 1.44225998,7.0556502 L49.3387789,7 Z M24.1432911,68.1934174 C25.2811676,66.2150616 27.3853141,64.997219 29.6615296,65 L77.5573422,65.0552557 C78.6674656,65.0566486 79.3599051,66.2638124 78.8039183,67.2281506 L54.8206268,108.812623 C53.6832129,110.785407 51.584617,112 49.3139521,112 L1.44404243,112 C0.333919009,112 -0.35990813,110.793765 0.195616133,109.828962 L24.1432911,68.1934174 Z" id="Combined-Shape" fill="#000000"></path>
    </g>
</svg>