<svg xmlns="http://www.w3.org/2000/svg" height="18" viewBox="0 0 18 18" width="18">
  <defs>
    <style>
      .a {
        fill: #6E6E6E;
      }
    </style>
  </defs>
  <title>S UserDeveloper 18 N</title>
  <rect id="Canvas" fill="#ff13dc" opacity="0" width="18" height="18" /><path class="a" d="M6.259,14.7045a1,1,0,0,1,0-1.414l3.05-3.05a1.303,1.303,0,0,1,.7625-.353A7.42,7.42,0,0,0,11.743,5.522C11.744,2.8085,10.2,1,7.978,1S4.212,2.8085,4.212,5.521A7.51507,7.51507,0,0,0,5.978,10c0,.826-.013,1.4885-.8365,1.56-1.1285.1-4.8,1.3265-5.1195,4.9345a.474.474,0,0,0,.44136.50453Q.48365,17.00039.504,17h8.05Z" />
  <path class="a" d="M14.6445,11.856,16.79,14l-2.143,2.143a.216.216,0,0,0,0,.304l.3645.364a.2145.2145,0,0,0,.30335.00015L15.315,16.811l2.4575-2.457a.5.5,0,0,0,.00039-.70711l-.00039-.00039-2.46-2.4595a.2145.2145,0,0,0-.30335-.00015L15.009,11.187l-.3645.364a.21568.21568,0,0,0-.00031.30521Z" />
  <path class="a" d="M10.874,16.144,8.729,14l2.143-2.143a.216.216,0,0,0,0-.304l-.3645-.364a.2145.2145,0,0,0-.30335-.00015L10.204,11.189,7.7465,13.645a.5.5,0,0,0-.00039.70711l.00039.00039L10.206,16.812a.215.215,0,0,0,.304,0l.364-.364a.2042.2042,0,0,0,.029-.29351A.02586.02586,0,0,0,10.874,16.144Z" />
  <path class="a" d="M12.4,17.2085l1.706-6.6675a.237.237,0,0,0-.2195-.3h-.471a.23.23,0,0,0-.22.177L11.49,17.0845a.2365.2365,0,0,0,.2195.3h.471A.22951.22951,0,0,0,12.4,17.2085Z" />
</svg>