<svg width="117" height="84" viewBox="0 0 117 84" fill="none" xmlns="http://www.w3.org/2000/svg">
<g clip-path="url(#clip0_1785_338)">
<path d="M110.2 64.8409C110.2 64.9306 110.173 65.0025 110.119 65.0563C105.252 69.6609 99.5551 73.3231 93.1628 75.8723C92.6482 76.0877 92.1426 76.2762 91.637 76.4647H91.6279C91.5738 76.4826 91.5377 76.5006 91.4925 76.5095H91.4835C91.4835 76.5095 91.4022 76.5454 91.3571 76.5634H91.3481C91.3029 76.5724 91.2668 76.5903 91.2216 76.6083H91.2126C91.1675 76.6262 91.1314 76.6442 91.0862 76.6532H91.0772C91.0772 76.6532 90.9959 76.6891 90.9598 76.707H90.9418C90.9418 76.707 90.8605 76.7339 90.8244 76.7519H90.8063C90.8063 76.7519 90.7251 76.7878 90.689 76.7968C90.6799 76.8057 90.6799 76.7968 90.6709 76.7968C90.6348 76.8147 90.5896 76.8327 90.5535 76.8506H90.5355C90.5355 76.8506 90.4542 76.8775 90.4181 76.8955H90.4C90.4 76.8955 90.3278 76.9314 90.2736 76.9404H90.2646C90.2195 76.9583 90.1834 76.9763 90.1382 76.9942H90.1292C90.1292 76.9942 90.0479 77.0212 90.0028 77.0391H89.9938C89.9486 77.0571 89.9125 77.075 89.8674 77.084H89.8583C89.8132 77.1019 89.7771 77.1199 89.7319 77.1379H89.7229C89.7229 77.1379 89.6416 77.1648 89.5965 77.1827H89.5875C89.5423 77.2007 89.5062 77.2186 89.4701 77.2276H89.452C89.452 77.2276 89.3708 77.2635 89.3347 77.2815C89.3256 77.2815 89.3256 77.2725 89.3166 77.2815C89.2805 77.2904 89.2354 77.3084 89.1992 77.3263H89.1812C89.1812 77.3263 89.0999 77.3622 89.0638 77.3802H89.0458C89.0458 77.3802 88.9645 77.4161 88.9193 77.4251H88.9103C88.8652 77.443 88.8291 77.461 88.7839 77.4789H88.7749C88.7749 77.4789 88.6936 77.5059 88.6485 77.5238H88.6395C88.5943 77.5418 88.5582 77.5597 88.5131 77.5687H88.504C88.4589 77.5866 88.4228 77.6046 88.3776 77.6226H88.3686C88.3686 77.6226 88.2873 77.6495 88.2422 77.6674H88.2332C88.188 77.6854 88.1519 77.7033 88.1158 77.7123C88.1068 77.7213 88.1068 77.7123 88.0977 77.7123C88.0616 77.7303 88.0165 77.7482 87.9804 77.7662H87.9623C87.9623 77.7662 87.8811 77.7931 87.8449 77.811H87.8269C87.8269 77.811 87.7366 77.8469 87.7005 77.8559C87.6915 77.8649 87.6915 77.8559 87.6824 77.8559C87.6463 77.8739 87.6012 77.8918 87.5651 77.9098C87.556 77.9098 87.556 77.9098 87.547 77.9098C87.5109 77.9188 87.4748 77.9367 87.4296 77.9547H87.4206C87.4206 77.9547 87.3393 77.9906 87.2942 77.9995H87.2852C87.24 78.0175 87.2039 78.0354 87.1588 78.0534H87.1497C87.1046 78.0624 87.0685 78.0803 87.0233 78.0983H87.0143C87.0143 78.0983 86.9331 78.1342 86.8879 78.1432H86.8789C86.8337 78.1611 86.7976 78.1791 86.7615 78.197C86.7525 78.197 86.7525 78.188 86.7434 78.197C86.7073 78.206 86.6622 78.2239 86.6261 78.2419H86.608C86.608 78.2419 86.5268 78.2688 86.4906 78.2868H86.4636C86.4636 78.2868 86.3823 78.3227 86.3462 78.3316C86.3372 78.3406 86.3372 78.3316 86.3281 78.3316C86.292 78.3496 86.2469 78.3675 86.2108 78.3855H86.1927C86.1927 78.3855 86.1205 78.4124 86.0753 78.4304H86.0663C86.0663 78.4304 85.985 78.4663 85.9399 78.4753H85.9309C85.8857 78.4932 85.8496 78.5112 85.8045 78.5291H85.7954C85.7503 78.5381 85.7142 78.556 85.669 78.574H85.66C85.66 78.574 85.5788 78.6099 85.5336 78.6278H85.5246C85.4794 78.6458 85.4433 78.6637 85.3982 78.6817H85.3891C85.3891 78.6817 85.3079 78.7086 85.2718 78.7266H85.2537C85.2537 78.7266 85.1634 78.7625 85.1273 78.7715C85.1183 78.7804 85.1183 78.7715 85.1093 78.7715C85.0732 78.7894 85.028 78.8074 84.9919 78.8253C84.9829 78.8253 84.9829 78.8163 84.9738 78.8253C84.9377 78.8343 84.8926 78.8522 84.8565 78.8702H84.8384C84.8384 78.8702 84.7571 78.9061 84.721 78.9151H84.703C84.703 78.9151 84.6307 78.951 84.5856 78.9689H84.5766C84.5314 78.9689 84.4953 78.9959 84.4502 79.0138H84.4411C84.396 79.0318 84.3599 79.0497 84.3147 79.0587H84.3057C84.3057 79.0587 84.2245 79.0946 84.1793 79.1125H84.1703C84.1251 79.1215 84.089 79.1395 84.0439 79.1574H84.0349C84.0349 79.1574 83.9536 79.1933 83.9084 79.2023H83.8904C83.8904 79.2023 83.8091 79.2382 83.773 79.2562C83.764 79.2562 83.764 79.2562 83.755 79.2562C83.7188 79.2741 83.6737 79.2921 83.6376 79.31H83.6195C83.6195 79.31 83.5383 79.3369 83.5022 79.3549H83.4841C83.4841 79.3549 83.4028 79.3908 83.3667 79.3998C83.3577 79.4087 83.3577 79.3998 83.3487 79.3998C83.3126 79.4177 83.2764 79.4357 83.2313 79.4536H83.2223C83.1771 79.4626 83.141 79.4806 83.0959 79.4985H83.0868C83.0417 79.5165 83.0056 79.5344 82.9604 79.5434H82.9514C82.9514 79.5434 82.8702 79.5793 82.825 79.5972H82.816C82.7708 79.6062 82.7347 79.6242 82.6896 79.6421H82.6806C82.6264 79.6601 82.5903 79.678 82.5451 79.687H82.5361C82.491 79.705 82.4548 79.7229 82.4187 79.7409C82.4097 79.7409 82.4097 79.7319 82.4007 79.7409C82.3646 79.7498 82.3194 79.7678 82.2833 79.7857H82.2652C82.2652 79.7857 82.184 79.8216 82.1479 79.8306H82.1298C82.1298 79.8306 82.0486 79.8665 82.0124 79.8845C82.0034 79.8845 82.0034 79.8845 81.9944 79.8845C81.9583 79.9024 81.9131 79.9204 81.877 79.9383H81.8589C81.8589 79.9383 81.7867 79.9742 81.7416 79.9832H81.7326C81.6874 80.0012 81.6513 80.0191 81.6061 80.0371H81.5971C81.5971 80.0371 81.5159 80.064 81.4707 80.0819H81.4617C81.4165 80.0999 81.3804 80.1178 81.3263 80.1268H81.3172C81.3172 80.1268 81.236 80.1627 81.1908 80.1807H81.1818C81.1367 80.1897 81.1005 80.2076 81.0644 80.2256H81.0464C81.0464 80.2256 80.9651 80.2525 80.929 80.2704H80.9109C80.9109 80.2704 80.8297 80.3063 80.7936 80.3153C80.7845 80.3243 80.7845 80.3153 80.7755 80.3153C80.7394 80.3333 80.6943 80.3512 80.6581 80.3692H80.6401C80.6401 80.3692 80.5588 80.3961 80.5227 80.414H80.5047C80.5047 80.414 80.4324 80.45 80.3873 80.4589H80.3783C80.3331 80.4769 80.297 80.4948 80.2519 80.5128H80.2428C80.2428 80.5128 80.1616 80.5397 80.1164 80.5577H80.1074C80.0532 80.5756 80.0171 80.5936 79.972 80.6025H79.9629C79.9629 80.6025 79.8817 80.6384 79.8365 80.6564H79.8275C79.7824 80.6654 79.7462 80.6833 79.7011 80.7013H79.6921C79.6469 80.7192 79.6108 80.7372 79.5747 80.7462H79.5566C79.5566 80.7462 79.4754 80.7821 79.4393 80.8C79.4302 80.8 79.4302 80.791 79.4212 80.8C79.3851 80.809 79.34 80.8269 79.3038 80.8449H79.2858C79.2858 80.8449 79.2045 80.8808 79.1684 80.8898H79.1504C79.1504 80.8898 79.0781 80.9257 79.033 80.9436C79.024 80.9436 79.024 80.9346 79.0149 80.9436C78.9788 80.9526 78.9427 80.9706 78.8976 80.9885H78.8885C78.8885 80.9885 78.8073 81.0244 78.7531 81.0334H78.7441C78.6989 81.0513 78.6628 81.0693 78.6177 81.0872H78.6086C78.6086 81.0872 78.5274 81.1142 78.4822 81.1321H78.4732C78.4281 81.1411 78.392 81.168 78.3468 81.186H78.3378C78.2926 81.2039 78.2565 81.2219 78.2204 81.2309C78.2114 81.2398 78.2114 81.2309 78.2023 81.2309C78.1662 81.2488 78.1211 81.2668 78.085 81.2847H78.0669C78.0669 81.2847 77.9857 81.3116 77.9495 81.3296H77.9315C77.9315 81.3296 77.8502 81.3655 77.8141 81.3745C77.8051 81.3834 77.8051 81.3745 77.7961 81.3745C77.7599 81.3924 77.7148 81.4104 77.6787 81.4283H77.6606C77.6606 81.4283 77.5884 81.4552 77.5433 81.4732H77.5342C77.4801 81.4911 77.4439 81.5091 77.3988 81.5181H77.3898C77.3446 81.536 77.3085 81.554 77.2634 81.5719H77.2543C77.2543 81.5719 77.1731 81.5989 77.1279 81.6168H77.1189C77.0738 81.6348 77.0377 81.6527 76.9925 81.6617H76.9835C76.9383 81.6796 76.9022 81.6976 76.8571 81.7156H76.8481C76.8481 81.7156 76.7668 81.7425 76.7307 81.7604H76.7126C76.7126 81.7604 76.6314 81.7963 76.5953 81.8053H76.5772C76.5772 81.8053 76.4959 81.8412 76.4598 81.8592C76.4508 81.8592 76.4508 81.8502 76.4418 81.8592C76.4056 81.8681 76.3605 81.8861 76.3244 81.904H76.3063C76.3063 81.904 76.2251 81.9399 76.1799 81.9489H76.1619C76.1619 81.9489 76.0896 81.9848 76.0445 82.0028H76.0355C75.9903 82.0118 75.9542 82.0297 75.9091 82.0477H75.9C75.9 82.0477 75.8188 82.0746 75.7737 82.0925H75.7646C75.7195 82.1105 75.6834 82.1284 75.6382 82.1374H75.6292C75.584 82.1554 75.5479 82.1733 75.5028 82.1913H75.4938C75.4938 82.1913 75.4125 82.2182 75.3764 82.2362H75.3583C75.3583 82.2362 75.2771 82.2721 75.241 82.281C75.2319 82.29 75.2319 82.281 75.2229 82.281C75.1868 82.299 75.1416 82.3169 75.1055 82.3349H75.0875C75.0875 82.3349 75.0062 82.3618 74.9701 82.3798H74.943C74.943 82.3798 74.8618 82.4157 74.8256 82.4246C74.8166 82.4336 74.8166 82.4246 74.8076 82.4246C74.7715 82.4516 74.7354 82.4695 74.6902 82.4875H74.6812C74.636 82.4965 74.5999 82.5144 74.5548 82.5324H74.5458C74.5458 82.5324 74.4645 82.5683 74.4193 82.5772H74.4103C74.3652 82.5952 74.3291 82.6131 74.2839 82.6311H74.2749C74.2297 82.6401 74.1936 82.658 74.1485 82.676H74.1395C74.1395 82.676 74.0582 82.7119 74.0131 82.7208H74.004C73.9589 82.7388 73.9228 82.7568 73.8867 82.7747C73.8776 82.7747 73.8776 82.7657 73.8686 82.7747C73.8325 82.7837 73.7873 82.8016 73.7512 82.8196H73.7332C73.7332 82.8196 73.6429 82.8555 73.6068 82.8645H73.5887C73.5887 82.8645 73.5075 82.9004 73.4713 82.9183C73.4623 82.9183 73.4623 82.9093 73.4533 82.9093C73.4172 82.9273 73.3811 82.9453 73.3359 82.9632H73.3269C73.2817 82.9722 73.2456 82.9901 73.2005 83.0081H73.1915C73.1915 83.0081 73.1102 83.044 73.0651 83.053H73.056C73.0109 83.0709 72.9748 83.0889 72.9296 83.1068H72.9206C72.8755 83.1158 72.8393 83.1337 72.7942 83.1517H72.7852C72.7852 83.1517 72.7039 83.1876 72.6588 83.1966H72.6497C72.6046 83.2145 72.5685 83.2325 72.5324 83.2504H72.5143C72.5143 83.2504 72.4331 83.2774 72.3879 83.2953H72.3698C72.3698 83.2953 72.2886 83.3312 72.2525 83.3402C72.2434 83.3492 72.2434 83.3402 72.2344 83.3402C72.1983 83.3581 72.1532 83.3761 72.117 83.394H72.099C72.099 83.394 72.0177 83.421 71.9816 83.4389H71.9636C71.9636 83.4389 71.8913 83.4748 71.8462 83.4838H71.8372C71.8372 83.4838 71.7559 83.5197 71.7108 83.5377H71.7017C71.6566 83.5466 71.6205 83.5646 71.5753 83.5825H71.5663C71.5212 83.6005 71.485 83.6184 71.4399 83.6274H71.4309C71.4309 83.6274 71.3496 83.6633 71.3045 83.6813H71.2954C71.2503 83.6902 71.2142 83.7172 71.1781 83.7351C71.0697 83.771 70.9614 83.7262 70.8891 83.6274C69.2369 81.4104 67.7201 79.0587 66.3568 76.5813C66.3477 76.5634 66.3477 76.5544 66.3477 76.5544C66.2755 76.4198 66.3116 76.2492 66.42 76.1864H66.438C68.3521 75.3337 70.1849 74.3194 71.8823 73.1436C71.9906 73.0718 71.9997 72.9012 71.9184 72.7756C71.9094 72.7486 71.8823 72.7217 71.8642 72.7038C71.4399 72.3717 71.0155 72.0126 70.6183 71.6626C70.6002 71.6446 70.5822 71.6446 70.5641 71.6356C70.528 71.6446 70.4919 71.6626 70.4558 71.6805L70.3203 71.7344C70.3203 71.7344 70.2301 71.7703 70.1849 71.7882C70.1488 71.8062 70.1037 71.8241 70.0585 71.8511C70.0134 71.869 69.9682 71.887 69.9231 71.9049C69.8779 71.9229 69.8238 71.9408 69.7786 71.9588C69.7425 71.9767 69.6974 71.9947 69.6522 72.0126C69.6071 72.0306 69.5619 72.0485 69.5168 72.0755C69.4717 72.0934 69.4265 72.1114 69.3814 72.1293C69.3453 72.1473 69.3001 72.1652 69.255 72.1832C69.2098 72.2011 69.1647 72.2191 69.1195 72.237C69.0744 72.2639 69.0293 72.2909 68.9931 72.3088C68.948 72.3268 68.9028 72.3447 68.8577 72.3627L68.7223 72.4165C68.7223 72.4165 68.6771 72.4435 68.6591 72.4524C62.4654 75.3068 55.6307 76.4736 48.471 75.8453C48.3807 76.0069 48.2995 76.1774 48.2092 76.339C48.1641 76.4108 48.0828 76.4377 48.0015 76.4557C47.9744 76.4826 47.9383 76.4916 47.9022 76.5006C47.8661 76.5275 47.839 76.5454 47.7939 76.5544C47.7668 76.5724 47.7307 76.5903 47.6946 76.5993C47.6584 76.6172 47.6223 76.6352 47.5862 76.6442C47.5501 76.6711 47.523 76.6891 47.4779 76.6891C47.4508 76.716 47.4147 76.7339 47.3786 76.7429C47.3424 76.7609 47.3154 76.7788 47.2702 76.7878C47.2431 76.8147 47.207 76.8327 47.1709 76.8327C47.1348 76.8596 47.0987 76.8775 47.0626 76.8865C47.0264 76.9045 46.9994 76.9224 46.9542 76.9314C46.9271 76.9583 46.891 76.9763 46.8549 76.9763C46.8098 77.0032 46.7827 77.0212 46.7375 77.0301C46.7104 77.0481 46.6743 77.066 46.6382 77.075C46.6021 77.102 46.566 77.1199 46.5299 77.1199C46.4938 77.1468 46.4667 77.1648 46.4215 77.1738C46.3944 77.1917 46.3583 77.2097 46.3222 77.2186C46.2861 77.2456 46.259 77.2635 46.2139 77.2635C46.1868 77.2904 46.1507 77.3084 46.1145 77.3174C46.0784 77.3353 46.0423 77.3622 46.0062 77.3712C45.9701 77.3981 45.943 77.4071 45.8979 77.4161C45.8708 77.443 45.8347 77.461 45.7985 77.47C45.7624 77.4879 45.7353 77.5059 45.6902 77.5148C45.6631 77.5418 45.627 77.5507 45.5909 77.5597C45.5548 77.5866 45.5096 77.6046 45.4735 77.6136C45.4374 77.6315 45.4103 77.6495 45.3652 77.6584C45.3381 77.6854 45.302 77.6944 45.2659 77.7033C45.2297 77.7303 45.2027 77.7482 45.1575 77.7482C45.1304 77.7751 45.0943 77.7931 45.0582 77.8021C45.0221 77.82 44.986 77.838 44.9499 77.8469C44.9137 77.8739 44.8867 77.8918 44.8415 77.8918C44.8144 77.9188 44.7783 77.9367 44.7422 77.9457C44.7061 77.9636 44.679 77.9816 44.6339 77.9906C44.6068 78.0175 44.5707 78.0354 44.5345 78.0354C44.4984 78.0624 44.4623 78.0803 44.4262 78.0893C44.3901 78.1072 44.363 78.1252 44.3178 78.1342C44.2908 78.1611 44.2456 78.1791 44.2095 78.1791C44.1734 78.206 44.1463 78.2239 44.1012 78.2329C44.0741 78.2509 44.038 78.2688 44.0018 78.2778C43.9657 78.3047 43.9296 78.3227 43.8935 78.3227C43.8574 78.3496 43.8303 78.3675 43.7852 78.3765C43.7581 78.3945 43.722 78.4124 43.6858 78.4214C43.6497 78.4483 43.6226 78.4573 43.5775 78.4663C43.5504 78.4932 43.5143 78.5112 43.4782 78.5201C43.4421 78.5381 43.406 78.556 43.3698 78.565C43.3337 78.5919 43.3066 78.6009 43.2615 78.6099C43.2344 78.6458 43.1983 78.6637 43.1622 78.6727C43.1261 78.6907 43.099 78.7086 43.0538 78.7176C43.0267 78.7445 42.9906 78.7535 42.9455 78.7625C42.9094 78.7894 42.8733 78.8074 42.8372 78.8074C42.801 78.8343 42.774 78.8522 42.7288 78.8612C42.7017 78.8792 42.6656 78.8971 42.6295 78.9061C42.5934 78.933 42.5663 78.951 42.5211 78.951C42.4941 78.9779 42.4579 78.9959 42.4218 79.0048C42.3857 79.0228 42.3496 79.0407 42.3135 79.0497C42.2774 79.0766 42.2503 79.0946 42.2051 79.0946C42.1781 79.1215 42.1419 79.1395 42.1058 79.1485C42.0697 79.1664 42.0426 79.1844 41.9975 79.1933C41.9704 79.2203 41.9343 79.2382 41.8982 79.2382C41.8621 79.2651 41.8259 79.2831 41.7898 79.2921C41.7537 79.31 41.7266 79.328 41.6725 79.3369C41.6454 79.3639 41.6093 79.3818 41.5731 79.3818C41.537 79.4088 41.5099 79.4267 41.4648 79.4357C41.4377 79.4536 41.4016 79.4716 41.3655 79.4806C41.3294 79.5075 41.2933 79.5165 41.2571 79.5254C41.221 79.5524 41.1939 79.5703 41.1488 79.5793C41.1217 79.5972 41.0856 79.6152 41.0495 79.6242C41.0134 79.6511 40.9863 79.6601 40.9411 79.6691C40.9141 79.696 40.8779 79.7139 40.8418 79.7229C40.8057 79.7409 40.7696 79.7588 40.7335 79.7678C40.6974 79.7947 40.6703 79.8037 40.6251 79.8127C40.598 79.8396 40.5619 79.8575 40.5258 79.8575C40.4897 79.8845 40.4626 79.9024 40.4084 79.9204C40.3814 79.9383 40.3452 79.9563 40.3091 79.9652C40.273 79.9922 40.2369 80.0101 40.2008 80.0101C40.1647 80.0371 40.1376 80.055 40.0924 80.064C40.0654 80.0819 40.0292 80.0999 39.9931 80.1089C39.957 80.1358 39.9299 80.1537 39.8848 80.1537C39.8487 80.1807 39.8216 80.1986 39.7764 80.2076C39.7494 80.2256 39.7132 80.2435 39.6771 80.2525C39.641 80.2794 39.6139 80.2974 39.5688 80.2974C39.5417 80.3243 39.5056 80.3422 39.4695 80.3512C39.4334 80.3692 39.4063 80.3871 39.3611 80.3961C39.325 80.423 39.2979 80.441 39.2528 80.441C39.2257 80.4679 39.1896 80.4859 39.1535 80.4948C39.1083 80.5128 39.0812 80.5307 39.0361 80.5397C39.009 80.5666 38.9729 80.5756 38.9368 80.5846C38.9007 80.6115 38.8736 80.6295 38.8284 80.6384C38.7923 80.6564 38.7652 80.6743 38.7201 80.6833C38.693 80.7103 38.6569 80.7192 38.6208 80.7282C38.5847 80.7551 38.5576 80.7731 38.5124 80.7821C38.4853 80.8 38.4492 80.818 38.4131 80.8269C38.377 80.8539 38.3499 80.8628 38.3048 80.8718C38.2687 80.8987 38.2416 80.9167 38.1964 80.9167C38.1693 80.9436 38.1332 80.9616 38.0971 80.9706C38.061 80.9885 38.0339 81.0065 37.9888 81.0154C37.9617 81.0424 37.9256 81.0603 37.8895 81.0603C37.8443 81.0872 37.8172 81.1052 37.7721 81.1142C37.736 81.1321 37.7089 81.1501 37.6637 81.168C37.6367 81.195 37.6005 81.2129 37.5644 81.2129C37.5283 81.2398 37.5012 81.2578 37.4561 81.2668C37.429 81.2847 37.3929 81.3027 37.3568 81.3116C37.3207 81.3386 37.2936 81.3565 37.2484 81.3565C37.2123 81.3834 37.1852 81.4014 37.1401 81.4104C37.113 81.4283 37.0769 81.4463 37.0408 81.4553C37.0046 81.4822 36.9776 81.5001 36.9324 81.5001C36.9053 81.5271 36.8692 81.545 36.8331 81.554C36.797 81.5719 36.7699 81.5899 36.7248 81.5989C36.6886 81.6258 36.6616 81.6348 36.6164 81.6437C36.5803 81.6707 36.5442 81.6886 36.5081 81.6976C36.472 81.7155 36.4449 81.7335 36.3997 81.7425C36.3726 81.7694 36.3365 81.7784 36.3004 81.7874C36.2643 81.8143 36.2372 81.8322 36.1921 81.8322C36.156 81.8592 36.1289 81.8771 36.0837 81.8861C36.0566 81.904 36.0205 81.922 35.9844 81.931C35.9483 81.9579 35.9212 81.9759 35.8761 81.9759C35.849 82.0028 35.8129 82.0207 35.7768 82.0297C35.7406 82.0477 35.7136 82.0656 35.6684 82.0746C35.6323 82.1015 35.6052 82.1195 35.5601 82.1195C35.533 82.1464 35.4969 82.1643 35.4607 82.1733C35.4246 82.1913 35.3975 82.2092 35.3524 82.2182C35.3253 82.2451 35.2802 82.2631 35.2441 82.2631C35.2079 82.29 35.1718 82.308 35.1357 82.3169C35.0996 82.3349 35.0725 82.3528 35.0274 82.3618C35.0003 82.3887 34.9642 82.4067 34.9281 82.4067C34.8919 82.4336 34.8649 82.4605 34.8197 82.4695C34.7926 82.4875 34.7565 82.5054 34.7204 82.5144C34.6843 82.5413 34.6482 82.5593 34.6121 82.5593C34.5759 82.5862 34.5489 82.6042 34.5037 82.6131C34.4766 82.6311 34.4405 82.649 34.4044 82.658C34.3683 82.6849 34.3412 82.6939 34.2961 82.7029C34.269 82.7298 34.2329 82.7478 34.1967 82.7568C34.1606 82.7747 34.1245 82.7927 34.0884 82.8016C34.0523 82.8286 34.0162 82.8375 33.971 82.8465C33.9439 82.8734 33.9078 82.8914 33.8717 82.8914C33.8356 82.9183 33.8085 82.9363 33.7634 82.9452C33.7363 82.9722 33.7002 82.9811 33.664 82.9901C33.6279 83.0171 33.5918 83.035 33.5557 83.035C33.5196 83.0619 33.4925 83.0799 33.4474 83.0889C33.4203 83.1068 33.3842 83.1248 33.348 83.1337C33.3119 83.1607 33.2848 83.1786 33.2397 83.1786C33.2126 83.2055 33.1765 83.2235 33.1404 83.2325C33.1043 83.2504 33.0682 83.2684 33.032 83.2774C32.9959 83.3043 32.9688 83.3222 32.9237 83.3222C32.8966 83.3492 32.8605 83.3671 32.8244 83.3761C32.7883 83.394 32.7612 83.412 32.707 83.421C32.6799 83.4479 32.6438 83.4658 32.6077 83.4658C32.5716 83.4928 32.5355 83.5107 32.4994 83.5197C32.4632 83.5377 32.4362 83.5556 32.391 83.5646C32.3639 83.5915 32.3278 83.6095 32.2917 83.6095C32.2556 83.6364 32.2285 83.6543 32.1834 83.6633C32.1202 83.7172 32.0389 83.7441 31.9576 83.7172C23.7325 81.1411 15.6068 77.066 7.97756 71.6087C7.90533 71.5548 7.85116 71.4741 7.8331 71.3753C7.76087 71.0163 7.69767 70.6483 7.6435 70.2892C4.39319 52.0233 7.09275 36.4591 14.1351 23.3454C14.8935 21.9451 15.688 20.5808 16.5277 19.2524C16.5457 19.2254 16.5728 19.2165 16.5999 19.1985C16.6089 19.1806 16.618 19.1716 16.627 19.1536C16.636 19.1267 16.6631 19.1177 16.6902 19.0998C16.6992 19.0818 16.7083 19.0729 16.7173 19.0549C16.7263 19.028 16.7624 19.019 16.7805 19.0011C16.7895 18.9921 16.7985 18.9741 16.8076 18.9651C16.8256 18.9292 16.8527 18.9203 16.8798 18.9023C16.8888 18.9023 16.8888 18.8754 16.8979 18.8664C16.9159 18.8305 16.943 18.8126 16.9701 18.7946C16.9791 18.7856 16.9881 18.7677 16.9972 18.7587C17.0062 18.7318 17.0333 18.7228 17.0604 18.7048C17.0694 18.6869 17.0784 18.6779 17.0875 18.66C17.0965 18.633 17.1326 18.6241 17.1597 18.6061C17.1597 18.5882 17.1687 18.5792 17.1777 18.5612C17.1958 18.5343 17.2229 18.5253 17.25 18.5074C17.25 18.4984 17.268 18.4804 17.268 18.4715C17.2861 18.4356 17.3132 18.4266 17.3403 18.4086C17.3493 18.3997 17.3583 18.3817 17.3673 18.3727C17.3764 18.3458 17.4215 18.3279 17.4396 18.3099C17.4486 18.3009 17.4576 18.283 17.4667 18.274C17.4847 18.2471 17.5118 18.2381 17.5389 18.2201C17.5479 18.2022 17.5479 18.1932 17.5569 18.1753C17.575 18.1483 17.6021 18.1394 17.6292 18.1214C17.6382 18.1035 17.6472 18.0945 17.6563 18.0765C17.6653 18.0496 17.6924 18.0406 17.7195 18.0227C17.7285 18.0137 17.7375 17.9958 17.7465 17.9868C17.7556 17.9509 17.7917 17.9419 17.8188 17.9239C17.8188 17.915 17.8278 17.897 17.8368 17.888C17.8549 17.8611 17.882 17.8432 17.9091 17.8252C17.9181 17.8162 17.9271 17.7983 17.9271 17.7893C17.9452 17.7624 17.9723 17.7534 17.9994 17.7355C18.0084 17.7175 18.0174 17.7085 18.0264 17.6906C18.0355 17.6636 18.0716 17.6547 18.0896 17.6367C18.0896 17.6188 18.1077 17.6098 18.1167 17.5829C18.1348 17.5559 18.1619 17.547 18.189 17.529C18.198 17.52 18.198 17.5021 18.207 17.4931C18.2251 17.4572 18.2522 17.4482 18.2792 17.4303C18.2883 17.4213 18.2973 17.4033 18.3063 17.3944C18.3154 17.3674 18.3424 17.3495 18.3695 17.3315C18.3786 17.3315 18.3876 17.3046 18.3966 17.2956C18.4056 17.2687 18.4418 17.2597 18.4598 17.2418C18.4688 17.2238 18.4779 17.2149 18.4869 17.1969C18.505 17.17 18.532 17.161 18.5591 17.143C18.5682 17.1251 18.5772 17.1161 18.5772 17.0982C18.5952 17.0712 18.6223 17.0623 18.6494 17.0443C18.6584 17.0353 18.6675 17.0174 18.6765 17.0084C18.6946 16.9725 18.7307 16.9635 18.7487 16.9456C18.7578 16.9366 18.7668 16.9186 18.7758 16.9097C18.7848 16.8827 18.821 16.8648 18.848 16.8468C18.8571 16.8379 18.8571 16.8199 18.8661 16.8109C18.8842 16.784 18.9112 16.775 18.9383 16.7571C18.9474 16.7391 18.9564 16.7302 18.9654 16.7122C18.9744 16.6853 19.0015 16.6763 19.0286 16.6583C19.0376 16.6404 19.0467 16.6314 19.0557 16.6135C19.0557 16.5865 19.1008 16.5776 19.1189 16.5596C19.1279 16.5506 19.137 16.5327 19.146 16.5237C19.164 16.4878 19.1911 16.4788 19.2182 16.4609C19.2182 16.4519 19.2182 16.4339 19.2363 16.425C19.2543 16.398 19.2814 16.3801 19.3085 16.3621C19.3175 16.3532 19.3266 16.3352 19.3356 16.3262C19.3446 16.2903 19.3807 16.2814 19.3988 16.2634C19.4078 16.2455 19.4168 16.2365 19.4259 16.2185C19.4349 16.1916 19.471 16.1826 19.4981 16.1647C19.5071 16.1467 19.5071 16.1377 19.5162 16.1198C19.5342 16.0929 19.5613 16.0839 19.5884 16.0659C19.5974 16.057 19.6065 16.039 19.6155 16.03C19.6245 15.9941 19.6516 15.9852 19.6787 15.9672C19.6877 15.9582 19.6967 15.9403 19.7058 15.9313C19.7148 15.9044 19.7509 15.8864 19.769 15.8685C19.778 15.8595 19.787 15.8415 19.7961 15.8326C19.8141 15.8056 19.8412 15.7967 19.8683 15.7787C19.8773 15.7608 19.8773 15.7518 19.8863 15.7338C19.9044 15.7069 19.9315 15.6979 19.9676 15.68C19.9766 15.662 19.9857 15.653 19.9947 15.6351C20.0037 15.6082 20.0398 15.5992 20.0579 15.5812C20.0669 15.5723 20.0759 15.5543 20.085 15.5453C20.094 15.5094 20.1301 15.5005 20.1572 15.4825C20.1572 15.4825 20.1662 15.4556 20.1753 15.4466C20.1933 15.4197 20.2204 15.4017 20.2475 15.3838C20.2565 15.3748 20.2655 15.3568 20.2746 15.3479C20.2836 15.3209 20.3107 15.312 20.3378 15.294C20.3468 15.2761 20.3558 15.2671 20.3649 15.2491C20.3739 15.2222 20.41 15.2132 20.4281 15.1953C20.4371 15.1773 20.4461 15.1683 20.4551 15.1504C20.4732 15.1235 20.5003 15.1145 20.5274 15.0965C20.5364 15.0876 20.5364 15.0696 20.5454 15.0606C20.5635 15.0158 20.5906 15.0068 20.6177 14.9888C20.6267 14.9799 20.6357 14.9619 20.6447 14.9529C20.6538 14.926 20.6809 14.908 20.7079 14.8901C20.717 14.8811 20.726 14.8632 20.735 14.8542C20.7441 14.8273 20.7802 14.8183 20.8073 14.8003C20.8073 14.7824 20.8163 14.7734 20.8253 14.7555C20.8434 14.7285 20.8705 14.7196 20.8975 14.7016C20.9066 14.6837 20.9156 14.6747 20.9156 14.6567C20.9337 14.6298 20.9607 14.6208 20.9878 14.6029C20.9969 14.5939 21.0059 14.5759 21.0149 14.558C21.0239 14.5311 21.0601 14.5221 21.0781 14.5041C21.0871 14.4952 21.0962 14.4772 21.1052 14.4682C21.1233 14.4413 21.1503 14.4233 21.1774 14.4054C21.1865 14.3964 21.1865 14.3785 21.1955 14.3695C21.2135 14.3426 21.2497 14.3246 21.2767 14.3156C21.2858 14.2977 21.2948 14.2887 21.3038 14.2708C21.3129 14.2438 21.3399 14.2349 21.367 14.2169C21.3761 14.199 21.3851 14.19 21.3941 14.172C21.4032 14.1451 21.4393 14.1361 21.4664 14.1182C21.4664 14.1002 21.4754 14.0912 21.4844 14.0733C21.5025 14.0464 21.5296 14.0374 21.5566 14.0194C21.5657 14.0105 21.5747 13.9925 21.5747 13.9835C21.5928 13.9566 21.6198 13.9387 21.6469 13.9207C21.656 13.9117 21.665 13.8938 21.674 13.8848C21.683 13.8579 21.7192 13.8399 21.7372 13.8309C21.7462 13.813 21.7553 13.804 21.7643 13.7861C21.7643 13.7502 21.8094 13.7412 21.8365 13.7232C21.8456 13.7053 21.8456 13.6963 21.8546 13.6784C21.8726 13.6514 21.8997 13.6424 21.9268 13.6245C21.9268 13.6065 21.9449 13.5976 21.9539 13.5796C21.9629 13.5527 21.99 13.5437 22.0171 13.5258C22.0261 13.5168 22.0352 13.4988 22.0442 13.4899C22.0532 13.454 22.0893 13.445 22.1074 13.427C22.1164 13.4181 22.1254 13.4001 22.1345 13.3911C22.1525 13.3642 22.1796 13.3462 22.2067 13.3373C22.2157 13.3193 22.2248 13.3103 22.2248 13.2924C22.2428 13.2655 22.2699 13.2565 22.297 13.2385C22.306 13.2206 22.315 13.2116 22.3241 13.1937C22.3331 13.1667 22.3692 13.1578 22.3873 13.1398C22.3963 13.1218 22.4053 13.1129 22.4144 13.0949C22.4234 13.068 22.4595 13.059 22.4866 13.0411C22.4956 13.0321 22.4956 13.0141 22.5046 13.0052C22.5317 12.9693 22.5588 12.9603 22.5859 12.9423C22.5949 12.9334 22.604 12.9154 22.613 12.9064C22.622 12.8795 22.6491 12.8615 22.6762 12.8526C22.6852 12.8346 22.6942 12.8256 22.7033 12.8077C22.7123 12.7808 22.7484 12.7718 22.7665 12.7538C22.7755 12.7359 22.7845 12.7269 22.7936 12.709C22.8116 12.682 22.8387 12.6731 22.8658 12.6551C22.8748 12.6371 22.8748 12.6282 22.8838 12.6102C22.9019 12.5833 22.929 12.5743 22.9561 12.5564C22.9651 12.5474 22.9741 12.5294 22.9832 12.5205C22.9922 12.4756 23.0283 12.4666 23.0464 12.4487C23.0554 12.4397 23.0644 12.4217 23.0735 12.4128C23.0825 12.3858 23.1186 12.3679 23.1457 12.3589C23.1547 12.3409 23.1547 12.332 23.1637 12.314C23.1818 12.2871 23.2089 12.2781 23.236 12.2602C23.245 12.2422 23.254 12.2332 23.2631 12.2153C23.2721 12.1884 23.2992 12.1794 23.3263 12.1614C23.3353 12.1435 23.3443 12.1345 23.3533 12.1165C23.3624 12.0896 23.3985 12.0806 23.4165 12.0627C23.4256 12.0537 23.4346 12.0358 23.4436 12.0268C23.4617 11.9909 23.4888 11.9819 23.5159 11.964C23.5249 11.955 23.5249 11.937 23.5339 11.9281C23.552 11.9011 23.5791 11.8832 23.6061 11.8742C23.6152 11.8562 23.6242 11.8383 23.6332 11.8293C23.6423 11.8024 23.6784 11.7934 23.6964 11.7755C23.7055 11.7575 23.7145 11.7485 23.7235 11.7306C23.7325 11.7037 23.7687 11.6947 23.8048 11.6767C23.8048 11.6588 23.8138 11.6498 23.8228 11.6319C23.8409 11.6049 23.868 11.5959 23.8951 11.578C23.9041 11.569 23.9131 11.5511 23.9221 11.5421C23.9312 11.5062 23.9583 11.4972 23.9853 11.4793C23.9944 11.4703 24.0034 11.4523 24.0124 11.4434C24.0215 11.4164 24.0576 11.3985 24.0756 11.3805C24.0847 11.3715 24.0937 11.3536 24.1027 11.3446C24.1208 11.3177 24.1479 11.3087 24.1749 11.2908C24.184 11.2728 24.184 11.2638 24.193 11.2459C24.2111 11.21 24.2381 11.201 24.2652 11.1831C24.2743 11.1651 24.2833 11.1561 24.2923 11.1382C24.3013 11.1112 24.3375 11.1023 24.3555 11.0843C24.3645 11.0753 24.3736 11.0574 24.3826 11.0484C24.3916 11.0125 24.4277 11.0035 24.4548 10.9856C24.4548 10.9766 24.4639 10.9587 24.4729 10.9497C24.4909 10.9228 24.518 10.9048 24.5451 10.8869C24.5541 10.8779 24.5632 10.8599 24.5632 10.8509C24.5812 10.824 24.6083 10.815 24.6354 10.7971C24.6354 10.7791 24.6535 10.7702 24.6625 10.7522C24.6715 10.7253 24.7076 10.7163 24.7257 10.6984C24.7347 10.6804 24.7437 10.6714 24.7528 10.6535C24.7708 10.6266 24.7979 10.6176 24.825 10.5996C24.834 10.5996 24.834 10.5727 24.8431 10.5637C24.8611 10.5278 24.8882 10.5188 24.9153 10.5009C24.9243 10.4919 24.9334 10.474 24.9424 10.465C24.9514 10.4381 24.9785 10.4201 25.0056 10.4022C25.0146 10.3932 25.0236 10.3752 25.0327 10.3663C25.0417 10.3393 25.0868 10.3303 25.1139 10.3124C25.1139 10.2944 25.123 10.2855 25.132 10.2675C25.15 10.2406 25.1771 10.2316 25.2042 10.2137C25.2132 10.1957 25.2223 10.1867 25.2223 10.1688C25.2403 10.1419 25.2674 10.1329 25.2945 10.1149C25.3035 10.1059 25.3126 10.088 25.3216 10.079C25.3306 10.0431 25.3667 10.0341 25.3848 10.0162C25.3938 10.0072 25.4028 9.98926 25.4119 9.98029C25.4209 9.94438 25.457 9.92643 25.4841 9.90848C25.4931 9.8995 25.4931 9.88155 25.5022 9.87258C25.5202 9.84565 25.5473 9.83667 25.5744 9.81872C25.5834 9.80077 25.5924 9.79179 25.6015 9.77384C25.6015 9.74691 25.6376 9.73794 25.6647 9.71999C25.6737 9.70204 25.6827 9.69306 25.6918 9.67511C25.7008 9.64818 25.7369 9.6392 25.755 9.62125C25.764 9.61228 25.773 9.59432 25.782 9.58535C25.8001 9.54945 25.8272 9.54047 25.8543 9.52252C25.8633 9.51354 25.8723 9.49559 25.8723 9.48661C25.8904 9.45969 25.9175 9.44174 25.9446 9.42378C25.9536 9.42378 25.9626 9.39686 25.9716 9.38788C25.9807 9.36095 26.0168 9.35198 26.0348 9.33402C26.0439 9.31607 26.0529 9.3071 26.0619 9.28914C26.071 9.26222 26.1071 9.25324 26.1342 9.23529C26.1432 9.21734 26.1432 9.20836 26.1522 9.19041C26.1703 9.16348 26.1974 9.15451 26.2244 9.13655C26.2335 9.12758 26.2425 9.10963 26.2515 9.10065C26.2606 9.06475 26.2876 9.05577 26.3147 9.03782C26.3238 9.02884 26.3328 9.01089 26.3418 9.00192C26.3508 8.97499 26.396 8.95704 26.414 8.93909C26.4231 8.93011 26.4321 8.91216 26.4411 8.90318C26.4592 8.87625 26.4863 8.86728 26.5134 8.84933C26.5224 8.83137 26.5224 8.8224 26.5314 8.80445C26.5495 8.77752 26.5766 8.76854 26.6036 8.75059C26.6127 8.73264 26.6217 8.72366 26.6307 8.70571C26.6398 8.66981 26.6759 8.66083 26.6939 8.64288C26.703 8.63391 26.712 8.61595 26.721 8.60698C26.7301 8.57107 26.7662 8.5621 26.7933 8.54415C26.8023 8.53517 26.8023 8.51722 26.8113 8.50824C26.8294 8.48132 26.8565 8.46336 26.8835 8.44541C26.8926 8.43644 26.9016 8.41848 26.9106 8.40951C26.9197 8.38258 26.9467 8.3736 26.9738 8.35565C26.9829 8.3377 26.9919 8.32872 27.0009 8.31077C27.0099 8.28385 27.0461 8.27487 27.0641 8.25692C27.0731 8.23897 27.0822 8.22999 27.0912 8.21204C27.1093 8.18511 27.1363 8.17614 27.1634 8.15818C27.1725 8.14921 27.1725 8.13126 27.1815 8.12228C27.1995 8.08638 27.2266 8.0774 27.2537 8.05945C27.2627 8.05047 27.2718 8.03252 27.2808 8.02354C27.2898 7.99662 27.3259 7.97867 27.344 7.96071C27.344 7.95174 27.3621 7.93379 27.3711 7.92481C27.3801 7.89788 27.4162 7.88891 27.4433 7.87096C27.4433 7.853 27.4523 7.84403 27.4614 7.82608C27.4794 7.79915 27.5065 7.79017 27.5336 7.77222C27.5426 7.75427 27.5517 7.74529 27.5607 7.72734C27.5697 7.70041 27.5968 7.69144 27.6239 7.67349C27.6419 7.66451 27.651 7.64656 27.66 7.63758C27.669 7.60168 27.7051 7.5927 27.7232 7.57475C27.7322 7.56578 27.7413 7.54782 27.7503 7.53885C27.7683 7.51192 27.7954 7.49397 27.8225 7.47602C27.8315 7.46704 27.8315 7.44909 27.8406 7.44011C27.8586 7.40421 27.8857 7.39523 27.9128 7.37728C27.9218 7.35933 27.9309 7.35035 27.9399 7.3324C27.9489 7.30547 27.985 7.2965 28.0031 7.27855C28.0121 7.2606 28.0211 7.25162 28.0302 7.23367C28.0392 7.20674 28.0753 7.19776 28.1024 7.17981C28.1024 7.17981 28.1114 7.15288 28.1205 7.14391C28.1385 7.10801 28.1656 7.09903 28.1927 7.08108C28.2017 7.0721 28.2107 7.05415 28.2107 7.04517C28.2288 7.01825 28.2559 7.00029 28.283 6.98234C28.292 6.97337 28.301 6.95542 28.3101 6.94644C28.3101 6.91951 28.3552 6.91054 28.3733 6.89258C28.3823 6.87463 28.3913 6.86566 28.4004 6.8477C28.4184 6.82078 28.4455 6.8118 28.4726 6.79385C28.4726 6.7759 28.4726 6.76692 28.4906 6.74897C28.5087 6.72204 28.5358 6.71307 28.5629 6.69511C28.5719 6.67716 28.5809 6.66819 28.59 6.65024C28.599 6.62331 28.6351 6.61433 28.6532 6.59638C28.6622 6.5874 28.6712 6.56945 28.6802 6.56048C28.6893 6.52457 28.7254 6.5156 28.7525 6.49765C28.7525 6.48867 28.7615 6.47072 28.7705 6.46174C28.7886 6.43481 28.8157 6.42584 28.8428 6.40789C28.8518 6.38993 28.8608 6.38096 28.8608 6.36301C28.8789 6.33608 28.906 6.3271 28.9421 6.30915C28.9511 6.2912 28.9601 6.28222 28.9692 6.26427C28.9782 6.23734 29.0143 6.22837 29.0324 6.21042C29.0414 6.19247 29.0504 6.18349 29.0594 6.16554C29.0685 6.12963 29.1046 6.12066 29.1317 6.10271C29.1407 6.09373 29.1407 6.07578 29.1497 6.0668C29.1678 6.0309 29.1949 6.02192 29.222 6.00397C29.231 5.995 29.24 5.97704 29.249 5.96807C29.2581 5.94114 29.2852 5.93216 29.3122 5.91421C29.3213 5.89626 29.3303 5.88728 29.3393 5.86933C29.3484 5.84241 29.3845 5.83343 29.4025 5.81548C29.4116 5.79753 29.4206 5.78855 29.4296 5.7706C29.4477 5.74367 29.4748 5.7347 29.5018 5.71674C29.5109 5.69879 29.5199 5.68982 29.5199 5.67186C29.538 5.64494 29.565 5.63596 29.5921 5.61801C29.6012 5.60903 29.6102 5.59108 29.6192 5.58211C29.6282 5.5462 29.6644 5.53723 29.6824 5.51927C29.6914 5.5103 29.7005 5.49235 29.7095 5.48337C29.7185 5.45644 29.7546 5.44747 29.7817 5.42951C29.7908 5.41156 29.7908 5.40259 29.7998 5.38464C29.8178 5.35771 29.8449 5.34873 29.872 5.33078C29.881 5.31283 29.8901 5.30385 29.8991 5.2859C29.9081 5.25897 29.9352 5.25 29.9623 5.23205C29.9713 5.21409 29.9804 5.20512 29.9894 5.18717C29.9984 5.16024 30.0345 5.15126 30.0526 5.13331C30.0526 5.12434 30.0706 5.10638 30.0797 5.09741C30.0977 5.0615 30.1248 5.05253 30.1519 5.03458C30.1609 5.0256 30.1609 5.00765 30.17 4.99867C30.1971 4.97175 30.2241 4.96277 30.2512 4.94482C30.2603 4.92687 30.2693 4.91789 30.2783 4.89994C30.2783 4.87301 30.3235 4.85506 30.3415 4.83711C30.3415 4.81916 30.3596 4.81018 30.3686 4.79223C30.3776 4.7653 30.4137 4.75632 30.4408 4.73837C30.4408 4.72042 30.4499 4.71144 30.4589 4.69349C30.4769 4.66656 30.504 4.65759 30.5311 4.63964C30.5401 4.63066 30.5492 4.61271 30.5582 4.60373C30.5672 4.56783 30.5943 4.55885 30.6214 4.5409C30.6304 4.5409 30.6395 4.51397 30.6485 4.505C30.6665 4.45114 30.7117 4.41524 30.7749 4.39729C33.4835 3.44584 36.2372 2.68289 39.0361 2.09049C42.6205 1.34549 46.259 0.887718 49.9337 0.735128C50.051 0.726152 50.1774 0.797959 50.2497 0.923621C51.288 2.70085 52.254 4.505 53.1298 6.33608C58.9172 6.16554 64.7406 6.78487 70.4558 8.16716C70.4829 8.14023 70.5099 8.12228 70.537 8.1133C70.5641 8.05945 70.6093 8.02354 70.6634 8.01457C70.6905 7.96071 70.7357 7.93379 70.7898 7.91583C70.8079 7.86198 70.853 7.83505 70.9072 7.8171C70.9343 7.76324 70.9794 7.73632 71.0336 7.71837C71.0607 7.66451 71.1058 7.63758 71.169 7.61963C71.1871 7.57475 71.2322 7.53885 71.2864 7.52987C71.3135 7.47602 71.3586 7.44011 71.4128 7.43114C71.4399 7.36831 71.485 7.34138 71.5392 7.32343C71.5573 7.26957 71.6024 7.24264 71.6566 7.22469C71.6837 7.17084 71.7288 7.14391 71.783 7.12596C71.8101 7.08108 71.8552 7.04517 71.9094 7.0362C71.9274 6.98234 71.9726 6.94644 72.0268 6.93746C72.0538 6.88361 72.099 6.85668 72.1532 6.83873C72.1802 6.78487 72.2254 6.75795 72.2796 6.73999C72.2976 6.68614 72.3428 6.65921 72.3969 6.64126C72.433 6.5874 72.4782 6.56048 72.5324 6.54252C72.5594 6.49764 72.6046 6.46174 72.6588 6.45277C72.6768 6.39891 72.722 6.36301 72.7761 6.35403C72.8032 6.30018 72.8484 6.27325 72.9025 6.2553C72.9296 6.20144 72.9748 6.17451 73.0289 6.15656C73.047 6.09373 73.0921 6.0668 73.1463 6.04885C73.1734 6.00397 73.2185 5.96807 73.2727 5.95909C73.2998 5.90524 73.3449 5.86933 73.3991 5.86036C73.4172 5.8065 73.4623 5.77957 73.5165 5.76162C73.5436 5.70777 73.5887 5.68084 73.6429 5.66289C73.67 5.60903 73.7241 5.58211 73.7783 5.56415C73.7964 5.5103 73.8415 5.48337 73.8957 5.46542C73.9228 5.42054 73.9679 5.38464 74.0221 5.37566C74.0492 5.3218 74.0943 5.2859 74.1485 5.27693C74.1756 5.22307 74.2117 5.19614 74.2659 5.17819C74.2929 5.12433 74.3381 5.09741 74.3923 5.07946C74.4193 5.0256 74.4645 4.99867 74.5187 4.98072C74.5457 4.93584 74.5909 4.89994 74.636 4.89096C74.6631 4.82813 74.7083 4.79223 74.7624 4.78325C74.7895 4.7294 74.8347 4.70247 74.8888 4.68452C74.9159 4.63066 74.9701 4.60373 75.0152 4.58578C75.0423 4.53193 75.0875 4.505 75.1416 4.48705C75.1687 4.43319 75.2139 4.40626 75.268 4.38831C75.3132 4.29855 75.4125 4.26265 75.5208 4.28958C81.57 6.23734 87.4116 8.94806 92.9461 12.3409C92.9913 12.3679 93.0364 12.4128 93.0635 12.4666C105.09 31.0198 109.667 48.1188 110.2 64.8409Z" fill="#3D3D3D"/>
<path d="M39.9299 17.0802C38.2055 26.0741 37.0046 27.5282 35.542 35.9924C34.0703 44.4657 33.7995 48.433 32.2014 51.3412C30.6124 54.2494 29.1497 55.1739 27.5426 57.1665C25.9446 59.1412 21.1052 62.9291 21.1052 62.9291C21.1052 62.9291 21.0962 62.938 21.0781 62.947L20.3829 63.4048L19.471 64.0151H19.462L7.97756 71.5998C7.90533 71.5459 7.85116 71.4651 7.8331 71.3664C7.76087 71.0074 7.69767 70.6393 7.6435 70.2803C4.39319 52.0144 7.09275 36.4502 14.1351 23.3364C14.8935 21.9362 15.688 20.5719 16.5277 19.2434C16.5457 19.2165 16.5728 19.2075 16.5999 19.1896C16.6089 19.1716 16.618 19.1626 16.627 19.1447C16.636 19.1178 16.6631 19.1088 16.6902 19.0908C16.6992 19.0729 16.7083 19.0639 16.7173 19.046C16.7263 19.019 16.7624 19.0101 16.7805 18.9921C16.7895 18.9831 16.7985 18.9652 16.8076 18.9562C16.8256 18.9203 16.8527 18.9113 16.8798 18.8934C16.8888 18.8934 16.8888 18.8664 16.8979 18.8575C16.9159 18.8216 16.943 18.8036 16.9701 18.7857C16.9791 18.7767 16.9881 18.7587 16.9972 18.7498C17.0062 18.7228 17.0333 18.7139 17.0604 18.6959C17.0694 18.678 17.0784 18.669 17.0875 18.651C17.0965 18.6241 17.1326 18.6151 17.1597 18.5972C17.1597 18.5792 17.1687 18.5702 17.1777 18.5523C17.1958 18.5254 17.2229 18.5164 17.25 18.4984C17.25 18.4895 17.268 18.4715 17.268 18.4625C17.2861 18.4266 17.3132 18.4177 17.3403 18.3997C17.3493 18.3907 17.3583 18.3728 17.3673 18.3638C17.3764 18.3369 17.4215 18.3189 17.4396 18.301C17.4486 18.292 17.4576 18.274 17.4667 18.2651C17.4847 18.2381 17.5118 18.2292 17.5389 18.2112C17.5479 18.1933 17.5479 18.1843 17.5569 18.1663C17.575 18.1394 17.6021 18.1304 17.6292 18.1125C17.6382 18.0945 17.6472 18.0855 17.6563 18.0676C17.6653 18.0407 17.6924 18.0317 17.7195 18.0137C17.7285 18.0048 17.7375 17.9868 17.7465 17.9778C17.7556 17.9419 17.7917 17.933 17.8188 17.915C17.8188 17.906 17.8278 17.8881 17.8368 17.8791C17.8549 17.8522 17.882 17.8342 17.9091 17.8163C17.9181 17.8073 17.9271 17.7893 17.9271 17.7804C17.9452 17.7534 17.9723 17.7445 17.9994 17.7265C18.0084 17.7086 18.0174 17.6996 18.0264 17.6816C18.0355 17.6547 18.0716 17.6457 18.0896 17.6278C18.0896 17.6098 18.1077 17.6008 18.1167 17.5739C18.1348 17.547 18.1619 17.538 18.189 17.5201C18.198 17.5111 18.198 17.4931 18.207 17.4842C18.2251 17.4483 18.2522 17.4393 18.2792 17.4213C18.2883 17.4124 18.2973 17.3944 18.3063 17.3854C18.3154 17.3585 18.3424 17.3405 18.3695 17.3226C18.3786 17.3226 18.3876 17.2957 18.3966 17.2867C18.4056 17.2598 18.4418 17.2508 18.4598 17.2328C18.4688 17.2149 18.4779 17.2059 18.4869 17.188C18.505 17.161 18.532 17.1521 18.5591 17.1341C18.5682 17.1161 18.5772 17.1072 18.5772 17.0892C18.5952 17.0623 18.6223 17.0533 18.6494 17.0354C18.6584 17.0264 18.6675 17.0084 18.6765 16.9995C18.6946 16.9636 18.7307 16.9546 18.7487 16.9366C18.7578 16.9277 18.7668 16.9097 18.7758 16.9007C18.7848 16.8738 18.821 16.8558 18.848 16.8379C18.8571 16.8289 18.8571 16.811 18.8661 16.802C18.8842 16.7751 18.9112 16.7661 18.9383 16.7481C18.9474 16.7302 18.9564 16.7212 18.9654 16.7033C18.9744 16.6763 19.0015 16.6674 19.0286 16.6494C19.0376 16.6314 19.0467 16.6225 19.0557 16.6045C19.0557 16.5776 19.1008 16.5686 19.1189 16.5507C19.1279 16.5417 19.137 16.5237 19.146 16.5148C19.164 16.4789 19.1911 16.4699 19.2182 16.4519C19.2182 16.443 19.2182 16.425 19.2363 16.416C19.2543 16.3891 19.2814 16.3711 19.3085 16.3532C19.3175 16.3442 19.3266 16.3263 19.3356 16.3173C19.3446 16.2814 19.3807 16.2724 19.3988 16.2545C19.4078 16.2365 19.4168 16.2275 19.4259 16.2096C19.4349 16.1827 19.471 16.1737 19.4981 16.1557C19.5071 16.1378 19.5071 16.1288 19.5162 16.1108C19.5342 16.0839 19.5613 16.0749 19.5884 16.057C19.5974 16.048 19.6064 16.0301 19.6155 16.0211C19.6245 15.9852 19.6516 15.9762 19.6787 15.9583C19.6877 15.9493 19.6967 15.9313 19.7058 15.9224C19.7148 15.8954 19.7509 15.8775 19.769 15.8595C19.778 15.8505 19.787 15.8326 19.7961 15.8236C19.8141 15.7967 19.8412 15.7877 19.8683 15.7698C19.8773 15.7518 19.8773 15.7428 19.8863 15.7249C19.9044 15.698 19.9315 15.689 19.9676 15.671C19.9766 15.6531 19.9857 15.6441 19.9947 15.6262C20.0037 15.5992 20.0398 15.5902 20.0579 15.5723C20.0669 15.5633 20.0759 15.5454 20.085 15.5364C20.094 15.5005 20.1301 15.4915 20.1572 15.4736C20.1572 15.4736 20.1662 15.4466 20.1753 15.4377C20.1933 15.4107 20.2204 15.3928 20.2475 15.3748C20.2565 15.3659 20.2655 15.3479 20.2746 15.3389C20.2836 15.312 20.3107 15.303 20.3378 15.2851C20.3468 15.2671 20.3558 15.2581 20.3649 15.2402C20.3739 15.2133 20.41 15.2043 20.4281 15.1863C20.4371 15.1684 20.4461 15.1594 20.4551 15.1415C20.4732 15.1145 20.5003 15.1055 20.5274 15.0876C20.5364 15.0786 20.5364 15.0607 20.5454 15.0517C20.5635 15.0068 20.5906 14.9978 20.6177 14.9799C20.6267 14.9709 20.6357 14.953 20.6447 14.944C20.6538 14.9171 20.6809 14.8991 20.7079 14.8812C20.717 14.8722 20.726 14.8542 20.735 14.8453C20.7441 14.8183 20.7802 14.8093 20.8073 14.7914C20.8073 14.7734 20.8163 14.7645 20.8253 14.7465C20.8434 14.7196 20.8705 14.7106 20.8975 14.6927C20.9066 14.6747 20.9156 14.6657 20.9156 14.6478C20.9337 14.6209 20.9607 14.6119 20.9878 14.5939C20.9969 14.5849 21.0059 14.567 21.0149 14.549C21.0239 14.5221 21.0601 14.5131 21.0781 14.4952C21.0871 14.4862 21.0962 14.4683 21.1052 14.4593C21.1233 14.4324 21.1503 14.4144 21.1774 14.3965C21.1865 14.3875 21.1865 14.3695 21.1955 14.3606C21.2135 14.3336 21.2497 14.3157 21.2767 14.3067C21.2858 14.2887 21.2948 14.2798 21.3038 14.2618C21.3129 14.2349 21.3399 14.2259 21.367 14.208C21.3761 14.19 21.3851 14.181 21.3941 14.1631C21.4031 14.1362 21.4393 14.1272 21.4664 14.1092C21.4664 14.0913 21.4754 14.0823 21.4844 14.0643C21.5025 14.0374 21.5296 14.0284 21.5566 14.0105C21.5657 14.0015 21.5747 13.9836 21.5747 13.9746C21.5928 13.9477 21.6198 13.9297 21.6469 13.9118C21.656 13.9028 21.665 13.8848 21.674 13.8759C21.683 13.8489 21.7192 13.831 21.7372 13.822C21.7462 13.804 21.7553 13.7951 21.7643 13.7771C21.7643 13.7412 21.8094 13.7322 21.8365 13.7143C21.8456 13.6963 21.8456 13.6874 21.8546 13.6694C21.8726 13.6425 21.8997 13.6335 21.9268 13.6156C21.9268 13.5976 21.9449 13.5886 21.9539 13.5707C21.9629 13.5437 21.99 13.5348 22.0171 13.5168C22.0261 13.5078 22.0352 13.4899 22.0442 13.4809C22.0532 13.445 22.0893 13.436 22.1074 13.4181C22.1164 13.4091 22.1254 13.3912 22.1345 13.3822C22.1525 13.3553 22.1796 13.3373 22.2067 13.3283C22.2157 13.3104 22.2248 13.3014 22.2248 13.2834C22.2428 13.2565 22.2699 13.2475 22.297 13.2296C22.306 13.2116 22.315 13.2027 22.3241 13.1847C22.3331 13.1578 22.3692 13.1488 22.3873 13.1309C22.3963 13.1129 22.4053 13.1039 22.4144 13.086C22.4234 13.059 22.4595 13.0501 22.4866 13.0321C22.4956 13.0231 22.4956 13.0052 22.5046 12.9962C22.5317 12.9603 22.5588 12.9513 22.5859 12.9334C22.5949 12.9244 22.604 12.9065 22.613 12.8975C22.622 12.8706 22.6491 12.8526 22.6762 12.8436C22.6852 12.8257 22.6942 12.8167 22.7033 12.7987C22.7123 12.7718 22.7484 12.7628 22.7665 12.7449C22.7755 12.7269 22.7845 12.718 22.7936 12.7C22.8116 12.6731 22.8387 12.6641 22.8658 12.6462C22.8748 12.6282 22.8748 12.6192 22.8838 12.6013C22.9019 12.5744 22.929 12.5654 22.9561 12.5474C22.9651 12.5384 22.9741 12.5205 22.9832 12.5115C22.9922 12.4666 23.0283 12.4577 23.0464 12.4397C23.0554 12.4307 23.0644 12.4128 23.0735 12.4038C23.0825 12.3769 23.1186 12.3589 23.1457 12.35C23.1547 12.332 23.1547 12.323 23.1637 12.3051C23.1818 12.2781 23.2089 12.2692 23.236 12.2512C23.245 12.2333 23.254 12.2243 23.2631 12.2063C23.2721 12.1794 23.2992 12.1704 23.3263 12.1525C23.3353 12.1345 23.3443 12.1256 23.3533 12.1076C23.3624 12.0807 23.3985 12.0717 23.4165 12.0537C23.4256 12.0448 23.4346 12.0268 23.4436 12.0178C23.4617 11.9819 23.4888 11.973 23.5159 11.955C23.5249 11.946 23.5249 11.9281 23.5339 11.9191C23.552 11.8922 23.5791 11.8742 23.6061 11.8653C23.6152 11.8473 23.6242 11.8294 23.6332 11.8204C23.6423 11.7934 23.6784 11.7845 23.6964 11.7665C23.7055 11.7486 23.7145 11.7396 23.7235 11.7216C23.7325 11.6947 23.7687 11.6857 23.8048 11.6678C23.8048 11.6498 23.8138 11.6409 23.8228 11.6229C23.8409 11.596 23.868 11.587 23.8951 11.5691C23.9041 11.5601 23.9131 11.5421 23.9221 11.5331C23.9312 11.4972 23.9583 11.4883 23.9853 11.4703C23.9944 11.4613 24.0034 11.4434 24.0124 11.4344C24.0215 11.4075 24.0576 11.3895 24.0756 11.3716C24.0847 11.3626 24.0937 11.3447 24.1027 11.3357C24.1208 11.3088 24.1479 11.2998 24.1749 11.2818C24.184 11.2639 24.184 11.2549 24.193 11.2369C24.2111 11.201 24.2381 11.1921 24.2652 11.1741C24.2743 11.1562 24.2833 11.1472 24.2923 11.1292C24.3013 11.1023 24.3375 11.0933 24.3555 11.0754C24.3645 11.0664 24.3736 11.0485 24.3826 11.0395C24.3916 11.0036 24.4277 10.9946 24.4548 10.9766C24.4548 10.9677 24.4639 10.9497 24.4729 10.9407C24.4909 10.9138 24.518 10.8959 24.5451 10.8779C24.5541 10.8689 24.5632 10.851 24.5632 10.842C24.5812 10.8151 24.6083 10.8061 24.6354 10.7881C24.6354 10.7702 24.6535 10.7612 24.6625 10.7433C24.6715 10.7163 24.7076 10.7074 24.7257 10.6894C24.7347 10.6715 24.7437 10.6625 24.7528 10.6445C24.7708 10.6176 24.7979 10.6086 24.825 10.5907C24.834 10.5907 24.834 10.5638 24.8431 10.5548C24.8611 10.5189 24.8882 10.5099 24.9153 10.4919C24.9243 10.483 24.9333 10.465 24.9424 10.456C24.9514 10.4291 24.9785 10.4112 25.0056 10.3932C25.0146 10.3842 25.0236 10.3663 25.0327 10.3573C25.0417 10.3304 25.0868 10.3214 25.1139 10.3035C25.1139 10.2855 25.1229 10.2765 25.132 10.2586C25.15 10.2316 25.1771 10.2227 25.2042 10.2047C25.2132 10.1868 25.2223 10.1778 25.2223 10.1598C25.2403 10.1329 25.2674 10.1239 25.2945 10.106C25.3035 10.097 25.3126 10.0791 25.3216 10.0701C25.3306 10.0342 25.3667 10.0252 25.3848 10.0072C25.3938 9.99827 25.4028 9.98032 25.4119 9.97134C25.4209 9.93544 25.457 9.91749 25.4841 9.89954C25.4931 9.89056 25.4931 9.87261 25.5022 9.86363C25.5202 9.83671 25.5473 9.82773 25.5744 9.80978C25.5834 9.79183 25.5924 9.78285 25.6015 9.7649C25.6015 9.73797 25.6376 9.729 25.6647 9.71104C25.6737 9.69309 25.6827 9.68412 25.6918 9.66616C25.7008 9.63924 25.7369 9.63026 25.755 9.61231C25.764 9.60333 25.773 9.58538 25.782 9.57641C25.8001 9.5405 25.8272 9.53153 25.8543 9.51357C25.8633 9.5046 25.8723 9.48665 25.8723 9.47767C25.8904 9.45074 25.9175 9.43279 25.9446 9.41484C25.9536 9.41484 25.9626 9.38791 25.9716 9.37894C25.9807 9.35201 26.0168 9.34303 26.0348 9.32508C26.0439 9.30713 26.0529 9.29815 26.0619 9.2802C26.071 9.25327 26.1071 9.2443 26.1342 9.22635C26.1432 9.20839 26.1432 9.19942 26.1522 9.18147C26.1703 9.15454 26.1974 9.14556 26.2244 9.12761C26.2335 9.11864 26.2425 9.10068 26.2515 9.09171C26.2606 9.05581 26.2876 9.04683 26.3147 9.02888C26.3238 9.0199 26.3328 9.00195 26.3418 8.99297C26.3508 8.96605 26.396 8.94809 26.414 8.93014C26.4231 8.92117 26.4321 8.90321 26.4411 8.89424C26.4592 8.86731 26.4863 8.85834 26.5134 8.84038C26.5224 8.82243 26.5224 8.81346 26.5314 8.7955C26.5495 8.76858 26.5766 8.7596 26.6036 8.74165C26.6127 8.7237 26.6217 8.71472 26.6307 8.69677C26.6398 8.66087 26.6759 8.65189 26.6939 8.63394C26.703 8.62496 26.712 8.60701 26.721 8.59803C26.73 8.56213 26.7662 8.55315 26.7932 8.5352C26.8023 8.52623 26.8023 8.50828 26.8113 8.4993C26.8294 8.47237 26.8565 8.45442 26.8835 8.43647C26.8926 8.42749 26.9016 8.40954 26.9106 8.40057C26.9197 8.37364 26.9467 8.36466 26.9738 8.34671C26.9829 8.32876 26.9919 8.31978 27.0009 8.30183C27.0099 8.2749 27.0461 8.26593 27.0641 8.24797C27.0731 8.23002 27.0822 8.22105 27.0912 8.2031C27.1093 8.17617 27.1363 8.16719 27.1634 8.14924C27.1725 8.14026 27.1725 8.12231 27.1815 8.11334C27.1995 8.07743 27.2266 8.06846 27.2537 8.05051C27.2627 8.04153 27.2718 8.02358 27.2808 8.0146C27.2898 7.98767 27.3259 7.96972 27.344 7.95177C27.344 7.94279 27.3621 7.92484 27.3711 7.91587C27.3801 7.88894 27.4162 7.87996 27.4433 7.86201C27.4433 7.84406 27.4523 7.83508 27.4614 7.81713C27.4794 7.79021 27.5065 7.78123 27.5336 7.76328C27.5426 7.74533 27.5517 7.73635 27.5607 7.7184C27.5697 7.69147 27.5968 7.68249 27.6239 7.66454C27.6419 7.65557 27.651 7.63761 27.66 7.62864C27.669 7.59274 27.7051 7.58376 27.7232 7.56581C27.7322 7.55683 27.7413 7.53888 27.7503 7.5299C27.7683 7.50298 27.7954 7.48502 27.8225 7.46707C27.8315 7.4581 27.8315 7.44015 27.8406 7.43117C27.8586 7.39527 27.8857 7.38629 27.9128 7.36834C27.9218 7.35039 27.9309 7.34141 27.9399 7.32346C27.9489 7.29653 27.985 7.28756 28.0031 7.2696C28.0121 7.25165 28.0211 7.24268 28.0302 7.22472C28.0392 7.1978 28.0753 7.18882 28.1024 7.17087C28.1024 7.17087 28.1114 7.14394 28.1205 7.13497C28.1385 7.09906 28.1566 7.09009 28.1837 7.08111C28.1927 7.06316 28.2017 7.05418 28.2107 7.03623L28.2288 7.01828C28.2288 7.01828 28.2649 6.99135 28.283 6.9734C28.292 6.96442 28.301 6.94647 28.3101 6.9375C28.3101 6.91057 28.3552 6.90159 28.3733 6.88364C28.3823 6.86569 28.3913 6.85671 28.4003 6.83876C28.4184 6.81183 28.4455 6.80286 28.4726 6.78491C28.4726 6.76695 28.4726 6.75798 28.4906 6.74003C28.5087 6.7131 28.5358 6.70412 28.5629 6.68617C28.5719 6.66822 28.5809 6.65924 28.5899 6.64129C28.599 6.61436 28.6351 6.60539 28.6531 6.58744C28.6622 6.57846 28.6712 6.56051 28.6802 6.55153C28.6893 6.51563 28.7254 6.50665 28.7525 6.4887C28.7525 6.47973 28.7615 6.46177 28.7705 6.4528C28.7886 6.42587 28.8157 6.41689 28.8428 6.39894C28.8518 6.38099 28.8608 6.37202 28.8608 6.35406C28.8789 6.32714 28.906 6.31816 28.9421 6.30021C28.9511 6.28226 28.9601 6.27328 28.9692 6.25533C28.9782 6.2284 29.0143 6.21943 29.0324 6.20147C29.0414 6.18352 29.0504 6.17455 29.0594 6.15659C29.0685 6.12069 29.1046 6.11171 29.1317 6.09376C29.1407 6.08479 29.1407 6.06684 29.1497 6.05786C29.1678 6.02196 29.1949 6.01298 29.222 5.99503C29.231 5.98605 29.24 5.9681 29.249 5.95912C29.2581 5.9322 29.2852 5.92322 29.3122 5.90527C29.3213 5.88732 29.3303 5.87834 29.3393 5.86039C29.3484 5.83346 29.3845 5.82449 29.4025 5.80653C29.4116 5.78858 29.4206 5.77961 29.4296 5.76166C29.4477 5.73473 29.4748 5.72575 29.5018 5.7078C29.5109 5.68985 29.5199 5.68087 29.5199 5.66292C29.538 5.63599 29.565 5.62702 29.5921 5.60907C29.6012 5.60009 29.6102 5.58214 29.6192 5.57316C29.6282 5.53726 29.6644 5.52828 29.6824 5.51033C29.6914 5.50135 29.7005 5.4834 29.7095 5.47443C29.7185 5.4475 29.7546 5.43852 29.7817 5.42057C29.7908 5.40262 29.7908 5.39364 29.7998 5.37569C29.8178 5.34876 29.8449 5.33979 29.872 5.32184C29.881 5.30389 29.8901 5.29491 29.8991 5.27696C29.9081 5.25003 29.9352 5.24105 29.9623 5.2231C29.9713 5.20515 29.9804 5.19617 29.9894 5.17822C29.9984 5.15129 30.0345 5.14232 30.0526 5.12437C30.0526 5.11539 30.0706 5.09744 30.0797 5.08846C30.0977 5.05256 30.1248 5.04358 30.1519 5.02563C30.1609 5.01666 30.1609 4.9987 30.17 4.98973C30.197 4.9628 30.2241 4.95383 30.2512 4.93587C30.2603 4.91792 30.2693 4.90895 30.2783 4.89099C30.2783 4.87304 30.2964 4.86407 30.3054 4.85509C30.3144 4.84612 30.3325 4.83714 30.3415 4.82816C30.3415 4.81021 30.3596 4.80124 30.3686 4.78328C30.3776 4.75636 30.3867 4.74738 30.3957 4.75636C30.4137 4.75636 30.4228 4.7384 30.4408 4.72943C30.4408 4.71148 30.4499 4.7025 30.4589 4.68455C30.4769 4.65762 30.504 4.64865 30.5311 4.63069C30.5401 4.62172 30.5492 4.60377 30.5582 4.59479C30.5672 4.58581 30.5672 4.57684 30.5672 4.57684C30.5672 4.56786 30.5672 4.55889 30.5853 4.55889C30.6033 4.54094 30.6124 4.52298 30.6214 4.53196C30.6304 4.53196 30.6395 4.50503 30.6485 4.49606C30.6665 4.4422 30.7117 4.4063 30.7749 4.38835C33.4835 3.4369 36.2372 2.67395 39.0361 2.08154C40.0112 6.27328 40.896 12.0807 39.9299 17.0802Z" fill="#9B9B9B"/>
<path d="M30.6214 4.53198C30.6214 4.53198 30.6033 4.54096 30.5852 4.55891C30.5762 4.55891 30.5762 4.56789 30.5672 4.57686C30.5401 4.59481 30.495 4.63969 30.4588 4.68457C30.4318 4.70252 30.4137 4.72048 30.3956 4.75638C30.3866 4.75638 30.3776 4.75638 30.3686 4.78331C30.3505 4.80126 30.3234 4.82819 30.3054 4.85511C30.2602 4.89102 30.2151 4.9359 30.1699 4.98975C29.7998 5.36674 29.258 5.91427 28.8608 6.35409C28.7524 6.4618 28.6621 6.55156 28.5899 6.64132C28.5538 6.67722 28.5177 6.71312 28.4906 6.74005C28.4545 6.77595 28.4274 6.80288 28.4003 6.83878C28.31 6.91957 28.2559 6.9824 28.2288 7.0183L28.2107 7.03625C28.2107 7.03625 28.1927 7.06318 28.1836 7.08113C18.216 22.8966 14.0448 42.5987 20.3829 63.4048C20.4461 63.6023 21.0781 62.947 21.0781 62.947C21.0961 62.9381 21.1052 62.9291 21.1052 62.9291C16.7353 39.8611 20.6447 20.3475 30.6214 4.53198ZM89.0818 44.349C88.5311 39.1879 84.7932 34.6999 80.5949 34.3588C79.8636 34.296 79.1684 34.3678 78.5273 34.5473C82.2562 35.4988 85.4072 39.6456 85.9128 44.349C86.3732 48.7113 84.3869 52.3016 81.263 53.1992C81.7054 53.3159 82.1569 53.3877 82.6083 53.4057C86.7434 53.5942 89.6326 49.5191 89.0818 44.349ZM60.2353 42.5089C59.6846 37.0606 55.5765 32.3034 50.8636 31.9174C50.1052 31.8546 49.3829 31.9084 48.6967 32.07C52.9672 32.9855 56.5516 37.4466 57.0662 42.5089C57.5357 47.2033 55.1883 51.036 51.5859 51.8977C52.0102 51.9875 52.4436 52.0503 52.877 52.0683C57.5087 52.2747 60.7951 47.9753 60.2353 42.5089Z" fill="white"/>
<path d="M73.8956 43.3706C73.2727 38.0838 76.2973 34.0087 80.6039 34.3588C84.8022 34.6999 88.5401 39.1878 89.0908 44.3489C89.6416 49.519 86.7524 53.5941 82.6173 53.4056C78.3558 53.2171 74.4554 48.7022 73.9047 43.3616L73.8956 43.3706ZM20.9426 62.6777C20.9607 62.7764 21.0239 62.8752 21.1142 62.938C29.6282 69.0326 38.693 73.5834 47.8751 76.4467C48.0105 76.4916 48.1459 76.4467 48.2091 76.321C49.7801 73.6283 51.1435 70.8098 52.2811 67.8927V67.8747C52.3262 67.7042 52.2359 67.5157 52.0644 67.4439C49.3738 66.3668 46.7194 65.0563 44.1372 63.5125C44.1011 63.4945 44.074 63.4676 44.0469 63.4317C43.9205 63.2881 43.9205 63.0816 44.0469 62.9649C44.5255 62.579 44.9949 62.1571 45.4374 61.7532C45.5186 61.6814 45.645 61.6724 45.7534 61.7262C61.8334 69.5712 77.6786 69.7776 90.7431 62.938C90.8243 62.8931 90.9327 62.92 91.0139 62.9918C91.4563 63.3868 91.9349 63.7817 92.4044 64.1587C92.4314 64.1767 92.4495 64.2036 92.4766 64.2395C92.5669 64.3831 92.5488 64.5716 92.4314 64.6524C90.5264 65.9629 88.4949 67.0938 86.3461 68.0363C86.3461 68.0363 86.3371 68.0363 86.3281 68.0453C86.2017 68.1171 86.1656 68.2966 86.2468 68.4582C87.7727 71.2317 89.47 73.8706 91.3209 76.3569C91.4022 76.4647 91.5195 76.5095 91.6279 76.4736C98.6341 73.9065 104.864 70.0379 110.119 65.0653C110.173 65.0114 110.2 64.9396 110.2 64.8499C109.658 48.1278 105.09 31.0377 93.0634 12.4756C93.0364 12.4217 92.9912 12.3858 92.9461 12.3499C87.4205 8.95702 81.57 6.23733 75.5208 4.29854C75.4124 4.26263 75.3041 4.29854 75.259 4.40625C74.6089 5.86932 74.0491 7.40419 73.5706 8.99293C66.8533 7.04516 59.9644 6.13859 53.1298 6.34504C52.254 4.51396 51.2879 2.70981 50.2496 0.932582C50.1774 0.815895 50.051 0.735112 49.9336 0.744088C43.3788 1.02234 36.9324 2.24306 30.7658 4.40625C30.7116 4.4242 30.6665 4.4601 30.6394 4.51396C20.6447 20.3384 16.5728 39.6097 20.9336 62.6956L20.9426 62.6777ZM43.2344 41.4138C42.6024 35.8218 46.0423 31.5224 50.8636 31.9173C55.5675 32.3033 59.6845 37.0605 60.2353 42.5089C60.786 47.9752 57.4996 52.2657 52.8769 52.0592C48.2543 51.8528 43.7851 47.0597 43.2344 41.4048V41.4138Z" fill="#D8D8D8"/>
</g>
<defs>
<clipPath id="clip0_1785_338">
<rect width="116" height="83" fill="white" transform="translate(0.23999 0.735107)"/>
</clipPath>
</defs>
</svg>
