<?xml version="1.0" encoding="iso-8859-1"?>
<!-- Generator: Adobe Illustrator 19.0.0, SVG Export Plug-In . SVG Version: 6.00 Build 0)  -->
<svg version="1.1" id="Capa_1" xmlns="http://www.w3.org/2000/svg" xmlns:xlink="http://www.w3.org/1999/xlink" x="0px" y="0px"
	 viewBox="0 0 512 512" style="enable-background:new 0 0 512 512;" xml:space="preserve">
<g>
	<g>
		<path d="M150.708,87.837v294.426h210.584V87.837H150.708z M316.091,340.069H195.903c-8.415,0-15.238-6.823-15.238-15.238
			s6.823-15.238,15.238-15.238h120.188c8.415,0,15.238,6.823,15.238,15.238S324.507,340.069,316.091,340.069z M316.091,280.215
			H195.903c-8.415,0-15.238-6.823-15.238-15.238s6.823-15.238,15.238-15.238h120.188c8.415,0,15.238,6.823,15.238,15.238
			S324.507,280.215,316.091,280.215z M316.091,220.361H195.903c-8.415,0-15.238-6.823-15.238-15.238
			c0-8.415,6.823-15.238,15.238-15.238h120.188c8.415,0,15.238,6.823,15.238,15.238
			C331.329,213.539,324.507,220.361,316.091,220.361z M316.091,160.508H195.903c-8.415,0-15.238-6.823-15.238-15.238
			c0-8.415,6.823-15.238,15.238-15.238h120.188c8.415,0,15.238,6.823,15.238,15.238
			C331.329,153.685,324.507,160.508,316.091,160.508z"/>
	</g>
</g>
<g>
	<g>
		<path d="M393.334,0H118.667C86.739,0,60.763,25.975,60.763,57.903v396.195c0,31.928,25.975,57.903,57.903,57.903h274.669
			c31.928,0,57.903-25.975,57.903-57.903V57.903C451.238,25.975,425.262,0,393.334,0z M276.937,460.714h-41.872
			c-8.416,0-15.238-6.823-15.238-15.238c0-8.415,6.823-15.238,15.238-15.238h41.872c8.415,0,15.238,6.823,15.238,15.238
			C292.175,453.891,285.352,460.714,276.937,460.714z M391.769,397.502c0,8.416-6.823,15.238-15.238,15.238H135.47
			c-8.415,0-15.238-6.823-15.238-15.238V72.599c0-8.415,6.823-15.238,15.238-15.238h241.061c8.415,0,15.238,6.823,15.238,15.238
			V397.502z"/>
	</g>
</g>
<g>
</g>
<g>
</g>
<g>
</g>
<g>
</g>
<g>
</g>
<g>
</g>
<g>
</g>
<g>
</g>
<g>
</g>
<g>
</g>
<g>
</g>
<g>
</g>
<g>
</g>
<g>
</g>
<g>
</g>
</svg>
