<?xml version="1.0" encoding="UTF-8"?>
<svg xmlns="http://www.w3.org/2000/svg" xmlns:xlink="http://www.w3.org/1999/xlink" width="24pt" height="24pt" viewBox="0 0 24 24" version="1.1">
<g id="surface1">
<path style=" stroke:none;fill-rule:evenodd;fill:rgb(0%,0%,0%);fill-opacity:1;" d="M 11.269531 0.691406 C 11.226562 0.695312 11.078125 0.710938 10.941406 0.722656 C 6.042969 1.144531 1.925781 4.851562 0.941406 9.71875 C -0.457031 16.621094 4.546875 23.085938 11.511719 23.378906 C 17.890625 23.648438 23.199219 18.476562 23.1875 12.011719 C 23.175781 6.164062 18.886719 1.378906 13.078125 0.730469 C 12.808594 0.699219 11.488281 0.671875 11.269531 0.691406 M 14.941406 3.910156 C 16.855469 4.199219 17.554688 6.449219 15.941406 7.132812 C 15.589844 7.277344 15.355469 7.3125 14.539062 7.339844 C 11.378906 7.441406 9.492188 7.996094 9.859375 8.722656 C 10.046875 9.089844 10.25 9.207031 12.78125 10.40625 C 15.269531 11.585938 15.59375 11.746094 15.546875 11.765625 C 15.527344 11.773438 15.277344 11.835938 14.988281 11.902344 C 12.492188 12.492188 11.058594 12.914062 10.300781 13.292969 C 8.6875 14.09375 8.070312 15.113281 8.878906 15.648438 C 9.765625 16.230469 11.089844 16.453125 13.960938 16.5 C 15.78125 16.527344 16.359375 16.558594 16.921875 16.652344 C 19.035156 17.007812 18.523438 17.996094 15.828125 18.773438 C 14.179688 19.246094 12.59375 19.53125 10.429688 19.742188 C 9.949219 19.789062 8.1875 19.824219 8.230469 19.785156 C 8.242188 19.773438 8.484375 19.714844 8.769531 19.652344 C 11.992188 18.9375 14.792969 18.164062 14.867188 17.96875 C 14.886719 17.917969 14.859375 17.882812 14.785156 17.855469 C 14.675781 17.816406 13.300781 17.824219 12.839844 17.867188 C 10.71875 18.0625 9.214844 17.835938 7.160156 17.019531 C 4.375 15.914062 3.945312 14.1875 6.101562 12.769531 C 7.554688 11.816406 9.316406 11.335938 11.378906 11.332031 L 12.050781 11.328125 L 11.53125 11.15625 C 10.957031 10.96875 10.804688 10.90625 10.140625 10.589844 C 8.453125 9.792969 7.445312 9.042969 6.859375 8.144531 C 6.566406 7.699219 6.597656 7.316406 6.957031 6.960938 C 7.371094 6.554688 7.980469 6.414062 9.828125 6.308594 C 10.433594 6.277344 10.53125 6.265625 11.46875 6.167969 C 13.191406 5.988281 13.800781 5.886719 14.128906 5.730469 C 14.449219 5.578125 14.519531 5.378906 14.3125 5.207031 C 14.042969 4.976562 13.464844 4.921875 11.371094 4.917969 L 10.230469 4.917969 L 10.609375 4.808594 C 11.972656 4.414062 13.523438 4.019531 14.070312 3.921875 C 14.335938 3.875 14.679688 3.871094 14.941406 3.910156 "/>
</g>
</svg>
