<svg width="27" height="27" viewBox="0 0 27 27" fill="none" xmlns="http://www.w3.org/2000/svg">
<g clip-path="url(#clip0_1771_226)">
<path d="M15.5969 1.32947C17.2907 1.32947 18.6579 1.45793 19.0071 1.5033C19.4599 1.56253 19.8049 1.93156 19.8049 2.37634V6.10193C19.8049 6.43828 19.6723 6.66533 19.4446 6.80505C19.2266 6.93879 18.9321 6.98627 18.6184 6.99939C18.3027 7.01258 17.9486 6.99153 17.6067 6.97595C17.2616 6.96023 16.9275 6.94996 16.6379 6.98279L16.6262 6.98376V6.98279C16.1877 6.98282 15.9175 7.03177 15.7483 7.12927C15.5895 7.22094 15.5068 7.36424 15.467 7.60193C15.4262 7.84622 15.4341 8.1716 15.4456 8.60876C15.4563 9.01853 15.4685 9.51798 15.4436 10.1185H18.5071C19.0567 10.1185 19.4932 10.5795 19.4231 11.1097L18.8762 15.2767C18.8174 15.7208 18.4213 16.0482 17.9602 16.0482H15.4397V25.6478C15.4397 26.1378 15.0227 26.5285 14.5168 26.5287L10.1165 26.5277C9.61073 26.5275 9.19364 26.138 9.1936 25.6469V16.0472H6.52856C6.02391 16.0471 5.60571 15.6567 5.60571 15.1654V10.9984C5.60597 10.5073 6.02406 10.1177 6.52856 10.1176H9.20825C9.21039 10.0877 9.21182 10.0502 9.21216 10.0043C9.21285 9.90939 9.2094 9.78874 9.20435 9.6449C9.19427 9.35811 9.17779 8.98242 9.177 8.55212C9.17544 7.69172 9.23604 6.60435 9.53442 5.5365C9.83297 4.46815 10.3712 3.41387 11.3284 2.62732C12.2865 1.84006 13.6547 1.32947 15.5969 1.32947ZM15.5959 3.09216C14.1358 3.09216 13.0002 3.51716 12.2297 4.29919C11.4591 5.08137 11.0404 6.23431 11.0403 7.71716V11.0004C11.04 11.4915 10.6211 11.8812 10.1165 11.8812H7.45239V14.2855H10.1184C10.6229 14.2857 11.0411 14.6752 11.0413 15.1664V24.767H13.592V15.1674C13.5922 14.6762 14.0104 14.2867 14.5149 14.2865H17.1438L17.4602 11.8822H14.5149C14.0105 11.882 13.5923 11.4924 13.592 11.0013V8.13123C13.592 7.18072 13.8426 6.52661 14.2375 6.0824C14.6315 5.63928 15.1587 5.41722 15.6897 5.30994C16.22 5.20283 16.7621 5.20785 17.1936 5.22595C17.4121 5.23512 17.5969 5.24709 17.7454 5.25037C17.8187 5.25198 17.8792 5.25132 17.927 5.24744C17.9383 5.24651 17.9483 5.24274 17.9573 5.24158V3.17615C17.3536 3.13294 16.5093 3.09217 15.5959 3.09216Z" fill="currentColor" stroke="currentColor" stroke-width="0.2"/>
</g>
<defs>
<clipPath id="clip0_1771_226">
<rect width="26" height="26" fill="currentColor" transform="translate(0.705322 0.890015)"/>
</clipPath>
</defs>
</svg>
