<svg xmlns="http://www.w3.org/2000/svg" height="18" viewBox="0 0 18 18" width="18">
  <defs>
    <style>
      .a {
        fill: #6E6E6E;
      }
    </style>
  </defs>
  <title>S Question 18 N</title>
  <rect id="Canvas" fill="#ff13dc" opacity="0" width="18" height="18" /><path class="a" d="M16.5,2H1.5a.5.5,0,0,0-.5.5v11a.5.5,0,0,0,.5.5H7l1.768,3.4195a.25.25,0,0,0,.464,0L11,14h5.5a.5.5,0,0,0,.5-.5V2.5A.5.5,0,0,0,16.5,2ZM8.877,12.722a1.2785,1.2785,0,0,1-1.35-1.35A1.3,1.3,0,0,1,8.79,10.036q.04349-.00121.087.00047A1.3,1.3,0,0,1,10.22653,11.285q.00169.04347.00047.087a1.2655,1.2655,0,0,1-1.35,1.35ZM10.4045,7.1l-.0865.082c-.35.331-.7465.706-.7465.936a.99991.99991,0,0,0,.15.52.3.3,0,0,1-.255.474H8.422a.47048.47048,0,0,1-.346-.1355,1.58449,1.58449,0,0,1-.35-.99c0-.679.4185-1.1.997-1.6765.3825-.3825.55-.5775.55-.842,0-.132,0-.482-.7685-.482a2.82544,2.82544,0,0,0-1.4.3695l-.0905.036H6.955a.3045.3045,0,0,1-.308-.301V3.9185a.35449.35449,0,0,1,.1785-.34,4.05493,4.05493,0,0,1,1.9425-.45,2.20087,2.20087,0,0,1,2.4805,2.133A2.37349,2.37349,0,0,1,10.4045,7.1Z" />
</svg>