<?xml version="1.0" standalone="no"?><!DOCTYPE svg PUBLIC "-//W3C//DTD SVG 1.1//EN" "http://www.w3.org/Graphics/SVG/1.1/DTD/svg11.dtd" ><svg version="1.1" xmlns="http://www.w3.org/2000/svg"><defs><font horiz-adv-x="0" id="font"><font-face ascent="750" bbox="-140.8 -223 1419 964" cap-height="680" descent="-250" font-family="Web use ONLY | Copyright (C) Emtype Foundry" font-stretch="normal" font-weight="400" units-per-em="1000" x-height="494" /><missing-glyph d="M780 341Q780 271 753.5 207Q727 143 677 94Q627 45 563 18.5Q499 -8 428 -8Q360 -8 295.5 18.5Q231 45 182 94Q132 143 105.5 207.5Q79 272 79 341Q79 410 106 474.5Q133 539 182 588Q231 637 295 663.5Q359 690 428 690Q498 690 563 663.5Q628 637 677 588Q726 539 753 474Q780 409 780 341ZM428 8Q495 8 556.5 33.5Q618 59 665 106Q713 154 738.5 215Q764 276 764 341Q764 406 738.5 467Q713 528 665 576Q618 623 556.5 648.5Q495 674 428 674Q362 674 301.5 648.5Q241 623 194 576Q146 528 120.5 467.5Q95 407 95 341Q95 275 120.5 214Q146 153 194 106Q242 59 302.5 33.5Q363 8 428 8ZM547 183 429 301 312 184Q307 179 301.5 179Q296 179 291 184L271 204Q266 209 266 214.5Q266 220 271 225L388 342L271 460Q265 466 265 470Q265 474 271 480L291 501Q297 507 301.5 507Q306 507 312 501L429 383L548 501Q554 507 558.5 507Q563 507 568 502L589 481Q595 475 595 470.5Q595 466 589 460L470 342L588 224Q594 218 594 213.5Q594 209 588 203L568 183Q563 178 557.5 178Q552 178 547 183Z" horiz-adv-x="859" /><glyph glyph-name=".null" horiz-adv-x="0" /><glyph d="M244 680H287Q295 680 299.5 676.5Q304 673 306 665L505 15Q507 8 504.5 4Q502 0 494 0H450Q443 0 439.5 3.5Q436 7 433 15L378 193H149L95 15Q92 6 88 3Q84 0 77 0H37Q29 0 26.5 4Q24 8 26 15L225 665Q227 673 232 676.5Q237 680 244 680ZM165 250H362L290 484Q283 507 276 541Q269 575 264 607Q257 568 250.5 535Q244 502 239 486Z" glyph-name="A" horiz-adv-x="531" unicode="A" /><glyph d="M415 680H751Q759 680 762 677Q765 674 765 666V636Q765 628 761.5 624.5Q758 621 751 621H466V385H733Q741 385 744.5 381.5Q748 378 748 371V343Q748 335 744.5 331.5Q741 328 733 328H466V59H762Q770 59 773.5 56Q777 53 777 45V15Q777 7 773.5 3.5Q770 0 762 0H416Q406 0 402 3.5Q398 7 398 15V193H186L83 15Q77 5 73.5 2.5Q70 0 66 0H26Q17 0 13.5 4Q10 8 14 15L394 665Q399 673 404 676.5Q409 680 415 680ZM365 502 220 250H398V563Q392 550 384 535.5Q376 521 365 502Z" glyph-name="AE" horiz-adv-x="824" unicode="&#198;" /><glyph d="M415 680H751Q759 680 762 677Q765 674 765 666V636Q765 628 761.5 624.5Q758 621 751 621H466V385H733Q741 385 744.5 381.5Q748 378 748 371V343Q748 335 744.5 331.5Q741 328 733 328H466V59H762Q770 59 773.5 56Q777 53 777 45V15Q777 7 773.5 3.5Q770 0 762 0H416Q406 0 402 3.5Q398 7 398 15V193H186L83 15Q77 5 73.5 2.5Q70 0 66 0H26Q17 0 13.5 4Q10 8 14 15L394 665Q399 673 404 676.5Q409 680 415 680ZM365 502 220 250H398V563Q392 550 384 535.5Q376 521 365 502ZM570 863 491 747Q488 742 483 740Q478 738 472 738H439Q432 738 430 741.5Q428 745 432 752L499 864Q504 872 508 875Q512 878 518 878H562Q570 878 572 873.5Q574 869 570 863Z" glyph-name="AEacute" horiz-adv-x="824" unicode="&#508;" /><glyph d="M244 680H287Q295 680 299.5 676.5Q304 673 306 665L505 15Q507 8 504.5 4Q502 0 494 0H450Q443 0 439.5 3.5Q436 7 433 15L378 193H149L95 15Q92 6 88 3Q84 0 77 0H37Q29 0 26.5 4Q24 8 26 15L225 665Q227 673 232 676.5Q237 680 244 680ZM165 250H362L290 484Q283 507 276 541Q269 575 264 607Q257 568 250.5 535Q244 502 239 486ZM380 863 301 747Q298 742 293 740Q288 738 282 738H249Q242 738 240 741.5Q238 745 242 752L309 864Q314 872 318 875Q322 878 328 878H372Q380 878 382 873.5Q384 869 380 863Z" glyph-name="Aacute" horiz-adv-x="531" unicode="&#193;" /><glyph d="M244 680H287Q295 680 299.5 676.5Q304 673 306 665L505 15Q507 8 504.5 4Q502 0 494 0H450Q443 0 439.5 3.5Q436 7 433 15L378 193H149L95 15Q92 6 88 3Q84 0 77 0H37Q29 0 26.5 4Q24 8 26 15L225 665Q227 673 232 676.5Q237 680 244 680ZM165 250H362L290 484Q283 507 276 541Q269 575 264 607Q257 568 250.5 535Q244 502 239 486ZM198 866V849Q198 813 214 797.5Q230 782 265 782Q300 782 316 797Q332 812 332 849V866Q332 874 335 876.5Q338 879 346 879H371Q378 879 381 876Q384 873 384 866V850Q384 793 354.5 765.5Q325 738 264 738Q204 738 175 765Q146 792 146 850V866Q146 873 149 876Q152 879 159 879H185Q192 879 195 876Q198 873 198 866Z" glyph-name="Abreve" horiz-adv-x="531" unicode="&#258;" /><glyph d="M244 680H287Q295 680 299.5 676.5Q304 673 306 665L505 15Q507 8 504.5 4Q502 0 494 0H450Q443 0 439.5 3.5Q436 7 433 15L378 193H149L95 15Q92 6 88 3Q84 0 77 0H37Q29 0 26.5 4Q24 8 26 15L225 665Q227 673 232 676.5Q237 680 244 680ZM165 250H362L290 484Q283 507 276 541Q269 575 264 607Q257 568 250.5 535Q244 502 239 486ZM318 752 265 834 212 752Q207 744 202.5 741Q198 738 192 738H160Q152 738 150 742Q148 746 152 752L229 863Q234 871 240 874.5Q246 878 252 878H278Q285 878 290.5 874.5Q296 871 301 864L378 752Q382 746 380 742Q378 738 370 738H338Q332 738 327.5 741.5Q323 745 318 752Z" glyph-name="Acircumflex" horiz-adv-x="531" unicode="&#194;" /><glyph d="M244 680H287Q295 680 299.5 676.5Q304 673 306 665L505 15Q507 8 504.5 4Q502 0 494 0H450Q443 0 439.5 3.5Q436 7 433 15L378 193H149L95 15Q92 6 88 3Q84 0 77 0H37Q29 0 26.5 4Q24 8 26 15L225 665Q227 673 232 676.5Q237 680 244 680ZM165 250H362L290 484Q283 507 276 541Q269 575 264 607Q257 568 250.5 535Q244 502 239 486ZM238 856V759Q238 750 235 747Q232 744 224 744H200Q192 744 188.5 747.5Q185 751 185 759V856Q185 864 188.5 867Q192 870 200 870H224Q232 870 235 867Q238 864 238 856ZM346 856V759Q346 751 342.5 747.5Q339 744 331 744H307Q299 744 295.5 747.5Q292 751 292 759V856Q292 864 295.5 867Q299 870 307 870H331Q339 870 342.5 867Q346 864 346 856Z" glyph-name="Adieresis" horiz-adv-x="531" unicode="&#196;" /><glyph d="M244 680H287Q295 680 299.5 676.5Q304 673 306 665L505 15Q507 8 504.5 4Q502 0 494 0H450Q443 0 439.5 3.5Q436 7 433 15L378 193H149L95 15Q92 6 88 3Q84 0 77 0H37Q29 0 26.5 4Q24 8 26 15L225 665Q227 673 232 676.5Q237 680 244 680ZM165 250H362L290 484Q283 507 276 541Q269 575 264 607Q257 568 250.5 535Q244 502 239 486ZM228 747 149 863Q144 870 146 874Q148 878 156 878H200Q206 878 210.5 875Q215 872 220 864L287 752Q291 745 289 741Q287 737 280 737H246Q240 737 235.5 739.5Q231 742 228 747Z" glyph-name="Agrave" horiz-adv-x="531" unicode="&#192;" /><glyph d="M244 680H287Q295 680 299.5 676.5Q304 673 306 665L505 15Q507 8 504.5 4Q502 0 494 0H450Q443 0 439.5 3.5Q436 7 433 15L378 193H149L95 15Q92 6 88 3Q84 0 77 0H37Q29 0 26.5 4Q24 8 26 15L225 665Q227 673 232 676.5Q237 680 244 680ZM165 250H362L290 484Q283 507 276 541Q269 575 264 607Q257 568 250.5 535Q244 502 239 486ZM140 827H391Q399 827 402.5 823.5Q406 820 406 812V787Q406 780 402.5 776.5Q399 773 391 773H140Q132 773 128.5 776.5Q125 780 125 787V812Q125 820 128.5 823.5Q132 827 140 827Z" glyph-name="Amacron" horiz-adv-x="531" unicode="&#256;" /><glyph d="M244 680H288Q295 680 299.5 676.5Q304 673 306 665L506 15Q508 8 505 4Q502 0 494 0H481Q451 0 434 -17.5Q417 -35 417 -63Q417 -84 430.5 -94.5Q444 -105 471 -105H496Q504 -105 507.5 -108.5Q511 -112 511 -119V-139Q511 -146 506 -150Q501 -154 492 -154H455Q412 -154 387 -133Q362 -112 362 -74Q362 -48 380 -19Q398 10 429 27L378 193H149L95 15Q92 7 88.5 3.5Q85 0 78 0H37Q29 0 26.5 4Q24 8 26 15L225 665Q227 673 232 676.5Q237 680 244 680ZM165 250H362L290 484Q283 505 274.5 546Q266 587 264 607Q259 574 252 539Q245 504 239 486Z" glyph-name="Aogonek" horiz-adv-x="532" unicode="&#260;" /><glyph d="M244 680H287Q295 680 299.5 676.5Q304 673 306 665L505 15Q507 8 504.5 4Q502 0 494 0H450Q443 0 439.5 3.5Q436 7 433 15L378 193H149L95 15Q92 6 88 3Q84 0 77 0H37Q29 0 26.5 4Q24 8 26 15L225 665Q227 673 232 676.5Q237 680 244 680ZM165 250H362L290 484Q283 507 276 541Q269 575 264 607Q257 568 250.5 535Q244 502 239 486ZM265 887Q310 887 335 867Q360 847 360 812V795Q360 760 335 740Q310 720 265 720Q220 720 195 740Q170 760 170 795V812Q170 847 195 867Q220 887 265 887ZM265 758Q290 758 303.5 769Q317 780 317 800V807Q317 827 303.5 838Q290 849 265 849Q240 849 227 838.5Q214 828 214 807V800Q214 779 227 768.5Q240 758 265 758Z" glyph-name="Aring" horiz-adv-x="531" unicode="&#197;" /><glyph d="M264 720Q219 720 194 740Q169 760 169 795V812Q169 844 189.5 863.5Q210 883 248 886L286 951Q291 958 295.5 961Q300 964 306 964H350Q358 964 360.5 959.5Q363 955 358 949L309 880Q333 872 346 854.5Q359 837 359 812V795Q359 760 334 740Q309 720 264 720ZM264 758Q289 758 302.5 769Q316 780 316 800V807Q316 827 302.5 838Q289 849 264 849Q239 849 226 838.5Q213 828 213 807V800Q213 779 226 768.5Q239 758 264 758ZM165 250H362L290 484Q283 507 276 540.5Q269 574 264 607Q257 562 250.5 531.5Q244 501 239 486ZM244 680H287Q295 680 299.5 676.5Q304 673 306 665L505 15Q507 8 504.5 4Q502 0 494 0H450Q443 0 439.5 3.5Q436 7 433 15L378 193H149L95 15Q92 6 88 3Q84 0 77 0H37Q29 0 26.5 4Q24 8 26 15L225 665Q227 673 232 676.5Q237 680 244 680Z" glyph-name="Aringacute" horiz-adv-x="532" unicode="&#506;" /><glyph d="M244 680H287Q295 680 299.5 676.5Q304 673 306 665L505 15Q507 8 504.5 4Q502 0 494 0H450Q443 0 439.5 3.5Q436 7 433 15L378 193H149L95 15Q92 6 88 3Q84 0 77 0H37Q29 0 26.5 4Q24 8 26 15L225 665Q227 673 232 676.5Q237 680 244 680ZM165 250H362L290 484Q283 507 276 541Q269 575 264 607Q257 568 250.5 535Q244 502 239 486ZM332 804Q347 804 352.5 813.5Q358 823 358 852V860Q358 867 362 870Q366 873 374 873H396Q403 873 406 869Q409 865 409 856V833Q409 794 389 772.5Q369 751 335 751Q322 751 307.5 756Q293 761 281 769L236 801Q225 810 215 814.5Q205 819 199 819Q183 819 177.5 810Q172 801 172 771V763Q172 756 168.5 753Q165 750 157 750H134Q127 750 124 754Q121 758 121 767V790Q121 829 140.5 850.5Q160 872 194 872Q209 872 223.5 867.5Q238 863 250 854L294 822Q309 812 317.5 808Q326 804 332 804Z" glyph-name="Atilde" horiz-adv-x="531" unicode="&#195;" /><glyph d="M304 0H105Q98 0 94.5 3.5Q91 7 91 15V665Q91 673 94.5 676.5Q98 680 105 680H277Q385 680 439 645Q493 610 493 540V474Q493 429 470.5 400Q448 371 403 356Q461 343 491 312Q521 281 521 233V144Q521 72 466.5 36Q412 0 304 0ZM304 322H161V59H304Q377 59 413.5 83Q450 107 450 155V229Q450 275 413.5 298.5Q377 322 304 322ZM277 621H161V378H287Q354 378 388.5 402.5Q423 427 423 475V529Q423 576 387.5 598.5Q352 621 277 621Z" glyph-name="B" horiz-adv-x="581" unicode="B" /><glyph d="M501 202V138Q501 64 448.5 28Q396 -8 290 -8Q184 -8 131.5 28Q79 64 79 138V542Q79 616 131.5 652Q184 688 290 688Q396 688 448.5 652Q501 616 501 542V491Q501 483 497.5 479Q494 475 487 475H447Q439 475 435.5 478.5Q432 482 432 491V531Q432 580 397.5 603.5Q363 627 291 627Q219 627 184.5 603.5Q150 580 150 531V149Q150 100 184.5 76.5Q219 53 291 53Q363 53 397.5 76.5Q432 100 432 149V202Q432 210 435.5 213.5Q439 217 447 217H487Q494 217 497.5 213.5Q501 210 501 202Z" glyph-name="C" horiz-adv-x="552" unicode="C" /><glyph glyph-name="CR" horiz-adv-x="0" unicode="" /><glyph d="M501 202V138Q501 64 448.5 28Q396 -8 290 -8Q184 -8 131.5 28Q79 64 79 138V542Q79 616 131.5 652Q184 688 290 688Q396 688 448.5 652Q501 616 501 542V491Q501 483 497.5 479Q494 475 487 475H447Q439 475 435.5 478.5Q432 482 432 491V531Q432 580 397.5 603.5Q363 627 291 627Q219 627 184.5 603.5Q150 580 150 531V149Q150 100 184.5 76.5Q219 53 291 53Q363 53 397.5 76.5Q432 100 432 149V202Q432 210 435.5 213.5Q439 217 447 217H487Q494 217 497.5 213.5Q501 210 501 202ZM389 863 310 747Q307 742 302 740Q297 738 291 738H258Q251 738 249 741.5Q247 745 251 752L318 864Q323 872 327 875Q331 878 337 878H381Q389 878 391 873.5Q393 869 389 863Z" glyph-name="Cacute" horiz-adv-x="553" unicode="&#262;" /><glyph d="M501 202V138Q501 64 448.5 28Q396 -8 290 -8Q184 -8 131.5 28Q79 64 79 138V542Q79 616 131.5 652Q184 688 290 688Q396 688 448.5 652Q501 616 501 542V491Q501 483 497.5 479Q494 475 487 475H447Q439 475 435.5 478.5Q432 482 432 491V531Q432 580 397.5 603.5Q363 627 291 627Q219 627 184.5 603.5Q150 580 150 531V149Q150 100 184.5 76.5Q219 53 291 53Q363 53 397.5 76.5Q432 100 432 149V202Q432 210 435.5 213.5Q439 217 447 217H487Q494 217 497.5 213.5Q501 210 501 202ZM232 863 285 781 338 863Q343 871 348 874.5Q353 878 358 878H390Q398 878 400 873.5Q402 869 398 863L321 752Q316 745 310.5 741.5Q305 738 298 738H272Q266 738 260.5 741.5Q255 745 249 753L172 863Q168 869 170 873.5Q172 878 180 878H212Q217 878 221.5 875Q226 872 232 863Z" glyph-name="Ccaron" horiz-adv-x="553" unicode="&#268;" /><glyph d="M395 -132Q395 -169 372.5 -190Q350 -211 312 -211H196Q188 -211 184.5 -207.5Q181 -204 181 -196V-181Q181 -174 184.5 -170.5Q188 -167 196 -167H302Q323 -167 333.5 -158Q344 -149 344 -132Q344 -114 334 -105.5Q324 -97 302 -97H240Q228 -97 223.5 -92.5Q219 -88 221 -78L240 -6Q159 2 119 38Q79 74 79 138V542Q79 616 131.5 652Q184 688 290 688Q396 688 448.5 652Q501 616 501 542V491Q501 483 497.5 479Q494 475 487 475H447Q439 475 435.5 478.5Q432 482 432 491V531Q432 580 397.5 603.5Q363 627 291 627Q219 627 184.5 603.5Q150 580 150 531V149Q150 100 184.5 76.5Q219 53 291 53Q363 53 397.5 76.5Q432 100 432 149V202Q432 210 435.5 213.5Q439 217 447 217H487Q494 217 497.5 213.5Q501 210 501 202V138Q501 64 448.5 28Q396 -8 290 -8Q290 -8 289.5 -8Q289 -8 288 -8L275 -53H312Q350 -53 372.5 -74Q395 -95 395 -132Z" glyph-name="Ccedilla" horiz-adv-x="553" unicode="&#199;" /><glyph d="M501 202V138Q501 64 448.5 28Q396 -8 290 -8Q184 -8 131.5 28Q79 64 79 138V542Q79 616 131.5 652Q184 688 290 688Q396 688 448.5 652Q501 616 501 542V491Q501 483 497.5 479Q494 475 487 475H447Q439 475 435.5 478.5Q432 482 432 491V531Q432 580 397.5 603.5Q363 627 291 627Q219 627 184.5 603.5Q150 580 150 531V149Q150 100 184.5 76.5Q219 53 291 53Q363 53 397.5 76.5Q432 100 432 149V202Q432 210 435.5 213.5Q439 217 447 217H487Q494 217 497.5 213.5Q501 210 501 202ZM338 752 285 834 232 752Q227 744 222.5 741Q218 738 212 738H180Q172 738 170 742Q168 746 172 752L249 863Q254 871 260 874.5Q266 878 272 878H298Q305 878 310.5 874.5Q316 871 321 864L398 752Q402 746 400 742Q398 738 390 738H358Q352 738 347.5 741.5Q343 745 338 752Z" glyph-name="Ccircumflex" horiz-adv-x="553" unicode="&#264;" /><glyph d="M320 839V760Q320 752 317 749Q314 746 306 746H264Q257 746 253.5 749.5Q250 753 250 760V839Q250 847 253.5 850Q257 853 264 853H306Q314 853 317 850Q320 847 320 839ZM501 202V138Q501 64 448.5 28Q396 -8 290 -8Q184 -8 131.5 28Q79 64 79 138V542Q79 616 131.5 652Q184 688 290 688Q396 688 448.5 652Q501 616 501 542V491Q501 483 497.5 479Q494 475 487 475H447Q439 475 435.5 478.5Q432 482 432 491V531Q432 580 397.5 603.5Q363 627 291 627Q219 627 184.5 603.5Q150 580 150 531V149Q150 100 184.5 76.5Q219 53 291 53Q363 53 397.5 76.5Q432 100 432 149V202Q432 210 435.5 213.5Q439 217 447 217H487Q494 217 497.5 213.5Q501 210 501 202Z" glyph-name="Cdotaccent" horiz-adv-x="553" unicode="&#266;" /><glyph d="M306 0H103Q97 0 94 3.5Q91 7 91 15V665Q91 673 94 676.5Q97 680 104 680H306Q413 680 468 643Q523 606 523 534V146Q523 74 468 37Q413 0 306 0ZM306 619H161V61H306Q379 61 415.5 85Q452 109 452 157V523Q452 571 415.5 595Q379 619 306 619Z" glyph-name="D" horiz-adv-x="601" unicode="D" /><glyph d="M306 0H103Q97 0 94 3.5Q91 7 91 15V665Q91 673 94 676.5Q97 680 104 680H306Q413 680 468 643Q523 606 523 534V146Q523 74 468 37Q413 0 306 0ZM306 619H161V61H306Q379 61 415.5 85Q452 109 452 157V523Q452 571 415.5 595Q379 619 306 619ZM245 863 298 781 351 863Q356 871 361 874.5Q366 878 371 878H403Q411 878 413 873.5Q415 869 411 863L334 752Q329 745 323.5 741.5Q318 738 311 738H285Q279 738 273.5 741.5Q268 745 262 753L185 863Q181 869 183 873.5Q185 878 193 878H225Q230 878 234.5 875Q239 872 245 863Z" glyph-name="Dcaron" horiz-adv-x="601" unicode="&#270;" /><glyph d="M315 0H112Q106 0 103 3.5Q100 7 100 15V317H33Q25 317 21.5 320.5Q18 324 18 331V357Q18 364 21.5 367.5Q25 371 33 371H100V665Q100 673 103 676.5Q106 680 113 680H315Q422 680 477 643Q532 606 532 534V146Q532 74 477 37Q422 0 315 0ZM170 317V61H315Q388 61 424.5 85Q461 109 461 157V523Q461 571 424.5 595Q388 619 315 619H170V371H302Q310 371 313 368Q316 365 316 357V331Q316 324 313 320.5Q310 317 302 317Z" glyph-name="Dcroat" horiz-adv-x="610" unicode="&#272;" /><glyph d="M108 419H270Q282 419 287.5 413.5Q293 408 293 396V234Q293 223 287.5 217.5Q282 212 270 212H108Q97 212 91.5 217.5Q86 223 86 234V396Q86 408 91.5 413.5Q97 419 108 419Z" glyph-name="Delta" horiz-adv-x="379" unicode="&#8710;" /><glyph d="M458 0H104Q97 0 94 3.5Q91 7 91 15V665Q91 673 94.5 676.5Q98 680 105 680H446Q454 680 457.5 676.5Q461 673 461 665V634Q461 626 457.5 622.5Q454 619 446 619H161V386H428Q436 386 439.5 382.5Q443 379 443 371V342Q443 334 439.5 330.5Q436 327 428 327H161V61H458Q466 61 469.5 57.5Q473 54 473 47V15Q473 7 469.5 3.5Q466 0 458 0Z" glyph-name="E" horiz-adv-x="521" unicode="E" /><glyph d="M458 0H104Q97 0 94 3.5Q91 7 91 15V665Q91 673 94.5 676.5Q98 680 105 680H446Q454 680 457.5 676.5Q461 673 461 665V634Q461 626 457.5 622.5Q454 619 446 619H161V386H428Q436 386 439.5 382.5Q443 379 443 371V342Q443 334 439.5 330.5Q436 327 428 327H161V61H458Q466 61 469.5 57.5Q473 54 473 47V15Q473 7 469.5 3.5Q466 0 458 0ZM379 863 300 747Q297 742 292 740Q287 738 281 738H248Q241 738 239 741.5Q237 745 241 752L308 864Q313 872 317 875Q321 878 327 878H371Q379 878 381 873.5Q383 869 379 863Z" glyph-name="Eacute" horiz-adv-x="520" unicode="&#201;" /><glyph d="M458 0H104Q97 0 94 3.5Q91 7 91 15V665Q91 673 94.5 676.5Q98 680 105 680H446Q454 680 457.5 676.5Q461 673 461 665V634Q461 626 457.5 622.5Q454 619 446 619H161V386H428Q436 386 439.5 382.5Q443 379 443 371V342Q443 334 439.5 330.5Q436 327 428 327H161V61H458Q466 61 469.5 57.5Q473 54 473 47V15Q473 7 469.5 3.5Q466 0 458 0ZM208 866V849Q208 813 224 797.5Q240 782 275 782Q310 782 326 797Q342 812 342 849V866Q342 874 345 876.5Q348 879 356 879H381Q388 879 391 876Q394 873 394 866V850Q394 793 364.5 765.5Q335 738 274 738Q214 738 185 765Q156 792 156 850V866Q156 873 159 876Q162 879 169 879H195Q202 879 205 876Q208 873 208 866Z" glyph-name="Ebreve" horiz-adv-x="520" unicode="&#276;" /><glyph d="M458 0H104Q97 0 94 3.5Q91 7 91 15V665Q91 673 94.5 676.5Q98 680 105 680H446Q454 680 457.5 676.5Q461 673 461 665V634Q461 626 457.5 622.5Q454 619 446 619H161V386H428Q436 386 439.5 382.5Q443 379 443 371V342Q443 334 439.5 330.5Q436 327 428 327H161V61H458Q466 61 469.5 57.5Q473 54 473 47V15Q473 7 469.5 3.5Q466 0 458 0ZM219 863 272 781 325 863Q330 871 335 874.5Q340 878 345 878H377Q385 878 387 873.5Q389 869 385 863L308 752Q303 745 297.5 741.5Q292 738 285 738H259Q253 738 247.5 741.5Q242 745 236 753L159 863Q155 869 157 873.5Q159 878 167 878H199Q204 878 208.5 875Q213 872 219 863Z" glyph-name="Ecaron" horiz-adv-x="520" unicode="&#282;" /><glyph d="M325 752 272 834 219 752Q214 744 209.5 741Q205 738 199 738H167Q159 738 157 742Q155 746 159 752L236 863Q241 871 247 874.5Q253 878 259 878H285Q292 878 297.5 874.5Q303 871 308 864L385 752Q389 746 387 742Q385 738 377 738H345Q339 738 334.5 741.5Q330 745 325 752ZM458 0H104Q97 0 94 3.5Q91 7 91 15V665Q91 673 94.5 676.5Q98 680 105 680H446Q454 680 457.5 676.5Q461 673 461 665V634Q461 626 457.5 622.5Q454 619 446 619H161V386H428Q436 386 439.5 382.5Q443 379 443 371V342Q443 334 439.5 330.5Q436 327 428 327H161V61H458Q466 61 469.5 57.5Q473 54 473 47V15Q473 7 469.5 3.5Q466 0 458 0Z" glyph-name="Ecircumflex" horiz-adv-x="520" unicode="&#202;" /><glyph d="M458 0H104Q97 0 94 3.5Q91 7 91 15V665Q91 673 94.5 676.5Q98 680 105 680H446Q454 680 457.5 676.5Q461 673 461 665V634Q461 626 457.5 622.5Q454 619 446 619H161V386H428Q436 386 439.5 382.5Q443 379 443 371V342Q443 334 439.5 330.5Q436 327 428 327H161V61H458Q466 61 469.5 57.5Q473 54 473 47V15Q473 7 469.5 3.5Q466 0 458 0ZM249 856V759Q249 750 246 747Q243 744 235 744H211Q203 744 199.5 747.5Q196 751 196 759V856Q196 864 199.5 867Q203 870 211 870H235Q243 870 246 867Q249 864 249 856ZM357 856V759Q357 751 353.5 747.5Q350 744 342 744H318Q310 744 306.5 747.5Q303 751 303 759V856Q303 864 306.5 867Q310 870 318 870H342Q350 870 353.5 867Q357 864 357 856Z" glyph-name="Edieresis" horiz-adv-x="520" unicode="&#203;" /><glyph d="M308 839V760Q308 752 305 749Q302 746 294 746H252Q245 746 241.5 749.5Q238 753 238 760V839Q238 847 241.5 850Q245 853 252 853H294Q302 853 305 850Q308 847 308 839ZM458 0H104Q97 0 94 3.5Q91 7 91 15V665Q91 673 94.5 676.5Q98 680 105 680H446Q454 680 457.5 676.5Q461 673 461 665V634Q461 626 457.5 622.5Q454 619 446 619H161V386H428Q436 386 439.5 382.5Q443 379 443 371V342Q443 334 439.5 330.5Q436 327 428 327H161V61H458Q466 61 469.5 57.5Q473 54 473 47V15Q473 7 469.5 3.5Q466 0 458 0Z" glyph-name="Edotaccent" horiz-adv-x="520" unicode="&#278;" /><glyph d="M257 747 178 863Q173 870 175 874Q177 878 185 878H229Q235 878 239.5 875Q244 872 249 864L316 752Q320 745 318 741Q316 737 309 737H275Q269 737 264.5 739.5Q260 742 257 747ZM458 0H104Q97 0 94 3.5Q91 7 91 15V665Q91 673 94.5 676.5Q98 680 105 680H446Q454 680 457.5 676.5Q461 673 461 665V634Q461 626 457.5 622.5Q454 619 446 619H161V386H428Q436 386 439.5 382.5Q443 379 443 371V342Q443 334 439.5 330.5Q436 327 428 327H161V61H458Q466 61 469.5 57.5Q473 54 473 47V15Q473 7 469.5 3.5Q466 0 458 0Z" glyph-name="Egrave" horiz-adv-x="520" unicode="&#200;" /><glyph d="M458 0H104Q97 0 94 3.5Q91 7 91 15V665Q91 673 94.5 676.5Q98 680 105 680H446Q454 680 457.5 676.5Q461 673 461 665V634Q461 626 457.5 622.5Q454 619 446 619H161V386H428Q436 386 439.5 382.5Q443 379 443 371V342Q443 334 439.5 330.5Q436 327 428 327H161V61H458Q466 61 469.5 57.5Q473 54 473 47V15Q473 7 469.5 3.5Q466 0 458 0ZM144 827H395Q403 827 406.5 823.5Q410 820 410 812V787Q410 780 406.5 776.5Q403 773 395 773H144Q136 773 132.5 776.5Q129 780 129 787V812Q129 820 132.5 823.5Q136 827 144 827Z" glyph-name="Emacron" horiz-adv-x="520" unicode="&#274;" /><glyph d="M522 665V-78Q522 -143 476 -175Q430 -207 338 -207H332Q324 -207 320.5 -203.5Q317 -200 317 -192V-164Q317 -156 320.5 -152.5Q324 -149 332 -149H338Q398 -149 427 -130Q456 -111 456 -72V8L191 477Q182 494 172.5 512Q163 530 157 543V15Q157 7 153.5 3.5Q150 0 143 0H105Q97 0 93.5 3.5Q90 7 90 15V665Q90 673 93.5 676.5Q97 680 105 680H143Q148 680 150.5 678.5Q153 677 155 674L426 197Q435 180 444 163Q453 146 456 137V665Q456 673 459.5 676.5Q463 680 470 680H508Q516 680 519 676.5Q522 673 522 665Z" glyph-name="Eng" horiz-adv-x="613" unicode="&#330;" /><glyph d="M458 0H429Q399 0 381.5 -17Q364 -34 364 -61Q364 -83 377.5 -94Q391 -105 418 -105H446Q454 -105 457.5 -108.5Q461 -112 461 -119V-139Q461 -146 456 -150Q451 -154 442 -154H402Q360 -154 334.5 -132.5Q309 -111 309 -72Q309 -54 317.5 -34.5Q326 -15 341 0H104Q97 0 94 3.5Q91 7 91 15V665Q91 673 94.5 676.5Q98 680 105 680H446Q454 680 457.5 676.5Q461 673 461 665V634Q461 626 457.5 622.5Q454 619 446 619H161V386H428Q436 386 439.5 382.5Q443 379 443 371V342Q443 334 439.5 330.5Q436 327 428 327H161V61H458Q466 61 469.5 57.5Q473 54 473 47V15Q473 7 469.5 3.5Q466 0 458 0Z" glyph-name="Eogonek" horiz-adv-x="521" unicode="&#280;" /><glyph d="M315 0H112Q106 0 103 3.5Q100 7 100 15V317H33Q25 317 21.5 320.5Q18 324 18 331V357Q18 364 21.5 367.5Q25 371 33 371H100V665Q100 673 103 676.5Q106 680 113 680H315Q422 680 477 643Q532 606 532 534V146Q532 74 477 37Q422 0 315 0ZM170 317V61H315Q388 61 424.5 85Q461 109 461 157V523Q461 571 424.5 595Q388 619 315 619H170V371H302Q310 371 313 368Q316 365 316 357V331Q316 324 313 320.5Q310 317 302 317Z" glyph-name="Eth" horiz-adv-x="610" unicode="&#208;" /><glyph d="M537 202V138Q537 64 484.5 28Q432 -8 326 -8Q220 -8 167.5 28Q115 64 115 138V255H69Q61 255 57.5 258.5Q54 262 54 270V287Q54 295 57.5 298.5Q61 302 69 302H115V378H69Q61 378 57.5 381.5Q54 385 54 393V411Q54 418 57.5 421.5Q61 425 69 425H115V542Q115 616 167.5 652Q220 688 326 688Q432 688 484.5 652Q537 616 537 542V491Q537 483 533.5 479Q530 475 523 475H483Q475 475 471.5 478.5Q468 482 468 491V531Q468 580 433.5 603.5Q399 627 327 627Q255 627 220.5 603.5Q186 580 186 531V425H342Q350 425 353.5 421.5Q357 418 357 411V393Q357 385 353.5 381.5Q350 378 342 378H186V302H342Q350 302 353.5 298.5Q357 295 357 287V270Q357 262 353.5 258.5Q350 255 342 255H186V149Q186 100 220.5 76.5Q255 53 327 53Q399 53 433.5 76.5Q468 100 468 149V202Q468 210 471.5 213.5Q475 217 483 217H523Q530 217 533.5 213.5Q537 210 537 202Z" glyph-name="Euro" horiz-adv-x="603" unicode="&#8364;" /><glyph d="M105 680H472Q480 680 483.5 676.5Q487 673 487 665V634Q487 626 483.5 622.5Q480 619 472 619H161V385H454Q461 385 464.5 381.5Q468 378 468 370V338Q468 330 464.5 326.5Q461 323 454 323H161V15Q161 7 158 3.5Q155 0 147 0H105Q98 0 94.5 3.5Q91 7 91 15V665Q91 673 94.5 676.5Q98 680 105 680Z" glyph-name="F" horiz-adv-x="531" unicode="F" /><glyph d="M298 327H486Q494 327 497.5 324Q501 321 501 313V138Q501 64 448.5 28Q396 -8 290 -8Q184 -8 131.5 28Q79 64 79 138V542Q79 616 131.5 652Q184 688 290 688Q396 688 448.5 652Q501 616 501 542V494Q501 487 498 483.5Q495 480 487 480H447Q439 480 435.5 483Q432 486 432 494V531Q432 580 397.5 603.5Q363 627 291 627Q219 627 184.5 603.5Q150 580 150 531V149Q150 100 184.5 76.5Q219 53 291 53Q363 53 397.5 76Q432 99 432 148V266H298Q291 266 287.5 269.5Q284 273 284 281V313Q284 321 287.5 324Q291 327 298 327Z" glyph-name="G" horiz-adv-x="573" unicode="G" /><glyph d="M298 327H486Q494 327 497.5 324Q501 321 501 313V138Q501 64 448.5 28Q396 -8 290 -8Q184 -8 131.5 28Q79 64 79 138V542Q79 616 131.5 652Q184 688 290 688Q396 688 448.5 652Q501 616 501 542V494Q501 487 498 483.5Q495 480 487 480H447Q439 480 435.5 483Q432 486 432 494V531Q432 580 397.5 603.5Q363 627 291 627Q219 627 184.5 603.5Q150 580 150 531V149Q150 100 184.5 76.5Q219 53 291 53Q363 53 397.5 76Q432 99 432 148V266H298Q291 266 287.5 269.5Q284 273 284 281V313Q284 321 287.5 324Q291 327 298 327ZM216 866V849Q216 813 232 797.5Q248 782 283 782Q318 782 334 797Q350 812 350 849V866Q350 874 353 876.5Q356 879 364 879H389Q396 879 399 876Q402 873 402 866V850Q402 793 372.5 765.5Q343 738 282 738Q222 738 193 765Q164 792 164 850V866Q164 873 167 876Q170 879 177 879H203Q210 879 213 876Q216 873 216 866Z" glyph-name="Gbreve" horiz-adv-x="573" unicode="&#286;" /><glyph d="M336 752 283 834 230 752Q225 744 220.5 741Q216 738 210 738H178Q170 738 168 742Q166 746 170 752L247 863Q252 871 258 874.5Q264 878 270 878H296Q303 878 308.5 874.5Q314 871 319 864L396 752Q400 746 398 742Q396 738 388 738H356Q350 738 345.5 741.5Q341 745 336 752ZM298 327H486Q494 327 497.5 324Q501 321 501 313V138Q501 64 448.5 28Q396 -8 290 -8Q184 -8 131.5 28Q79 64 79 138V542Q79 616 131.5 652Q184 688 290 688Q396 688 448.5 652Q501 616 501 542V494Q501 487 498 483.5Q495 480 487 480H447Q439 480 435.5 483Q432 486 432 494V531Q432 580 397.5 603.5Q363 627 291 627Q219 627 184.5 603.5Q150 580 150 531V149Q150 100 184.5 76.5Q219 53 291 53Q363 53 397.5 76Q432 99 432 148V266H298Q291 266 287.5 269.5Q284 273 284 281V313Q284 321 287.5 324Q291 327 298 327Z" glyph-name="Gcircumflex" horiz-adv-x="573" unicode="&#284;" /><glyph d="M232 -195Q256 -143 258.5 -128Q261 -113 261 -92V-64Q261 -56 264.5 -52.5Q268 -49 276 -49H306Q314 -49 317.5 -52.5Q321 -56 321 -64V-95Q321 -122 311.5 -151Q302 -180 282 -213Q278 -219 274 -221Q270 -223 263 -221L239 -215Q232 -213 230.5 -207.5Q229 -202 232 -195ZM298 327H486Q494 327 497.5 324Q501 321 501 313V138Q501 64 448.5 28Q396 -8 290 -8Q184 -8 131.5 28Q79 64 79 138V542Q79 616 131.5 652Q184 688 290 688Q396 688 448.5 652Q501 616 501 542V494Q501 487 498 483.5Q495 480 487 480H447Q439 480 435.5 483Q432 486 432 494V531Q432 580 397.5 603.5Q363 627 291 627Q219 627 184.5 603.5Q150 580 150 531V149Q150 100 184.5 76.5Q219 53 291 53Q363 53 397.5 76Q432 99 432 148V266H298Q291 266 287.5 269.5Q284 273 284 281V313Q284 321 287.5 324Q291 327 298 327Z" glyph-name="Gcommaaccent" horiz-adv-x="573" unicode="&#290;" /><glyph d="M318 836V757Q318 749 315 746Q312 743 304 743H262Q255 743 251.5 746.5Q248 750 248 757V836Q248 844 251.5 847Q255 850 262 850H304Q312 850 315 847Q318 844 318 836ZM298 327H486Q494 327 497.5 324Q501 321 501 313V138Q501 64 448.5 28Q396 -8 290 -8Q184 -8 131.5 28Q79 64 79 138V542Q79 616 131.5 652Q184 688 290 688Q396 688 448.5 652Q501 616 501 542V494Q501 487 498 483.5Q495 480 487 480H447Q439 480 435.5 483Q432 486 432 494V531Q432 580 397.5 603.5Q363 627 291 627Q219 627 184.5 603.5Q150 580 150 531V149Q150 100 184.5 76.5Q219 53 291 53Q363 53 397.5 76Q432 99 432 148V266H298Q291 266 287.5 269.5Q284 273 284 281V313Q284 321 287.5 324Q291 327 298 327Z" glyph-name="Gdotaccent" horiz-adv-x="573" unicode="&#288;" /><glyph d="M161 665V390H452V665Q452 673 455.5 676.5Q459 680 466 680H509Q516 680 519.5 676.5Q523 673 523 665V15Q523 7 519.5 3.5Q516 0 509 0H466Q459 0 455.5 3.5Q452 7 452 15V330H161V15Q161 7 158 3.5Q155 0 147 0H105Q98 0 94.5 3.5Q91 7 91 15V665Q91 673 94.5 676.5Q98 680 105 680H147Q155 680 158 676.5Q161 673 161 665Z" glyph-name="H" horiz-adv-x="614" unicode="H" /><glyph d="M166 495V390H457V495ZM166 330V15Q166 7 163 3.5Q160 0 152 0H110Q103 0 99.5 3.5Q96 7 96 15V495H59Q51 495 47.5 498.5Q44 502 44 510V531Q44 539 47.5 542Q51 545 59 545H96V665Q96 673 99.5 676.5Q103 680 110 680H152Q160 680 163 676.5Q166 673 166 665V545H457V665Q457 673 460.5 676.5Q464 680 471 680H514Q521 680 524.5 676.5Q528 673 528 665V545H565Q573 545 576.5 542Q580 539 580 531V510Q580 502 576.5 498.5Q573 495 565 495H528V15Q528 7 524.5 3.5Q521 0 514 0H471Q464 0 460.5 3.5Q457 7 457 15V330Z" glyph-name="Hbar" horiz-adv-x="624" unicode="&#294;" /><glyph d="M161 665V390H452V665Q452 673 455.5 676.5Q459 680 466 680H509Q516 680 519.5 676.5Q523 673 523 665V15Q523 7 519.5 3.5Q516 0 509 0H466Q459 0 455.5 3.5Q452 7 452 15V330H161V15Q161 7 158 3.5Q155 0 147 0H105Q98 0 94.5 3.5Q91 7 91 15V665Q91 673 94.5 676.5Q98 680 105 680H147Q155 680 158 676.5Q161 673 161 665ZM359 752 306 834 253 752Q248 744 243.5 741Q239 738 233 738H201Q193 738 191 742Q189 746 193 752L270 863Q275 871 281 874.5Q287 878 293 878H319Q326 878 331.5 874.5Q337 871 342 864L419 752Q423 746 421 742Q419 738 411 738H379Q373 738 368.5 741.5Q364 745 359 752Z" glyph-name="Hcircumflex" horiz-adv-x="613" unicode="&#292;" /><glyph d="M161 665V15Q161 7 158 3.5Q155 0 147 0H105Q98 0 94.5 3.5Q91 7 91 15V665Q91 673 94.5 676.5Q98 680 105 680H147Q155 680 158 676.5Q161 673 161 665Z" glyph-name="I" horiz-adv-x="252" unicode="I" /><glyph d="M161 665V15Q161 7 158 3.5Q155 0 147 0H105Q98 0 94.5 3.5Q91 7 91 15V665Q91 673 94.5 676.5Q98 680 105 680H147Q155 680 158 676.5Q161 673 161 665ZM352 183V149Q352 98 381 75.5Q410 53 473 53Q536 53 564.5 75.5Q593 98 593 149V665Q593 673 596.5 676.5Q600 680 607 680H649Q657 680 660.5 676.5Q664 673 664 665V138Q664 63 617 27.5Q570 -8 473 -8Q377 -8 329.5 28Q282 64 282 138V183Q282 192 285.5 195.5Q289 199 297 199H338Q345 199 348.5 195Q352 191 352 183Z" glyph-name="IJ" horiz-adv-x="750" unicode="&#306;" /><glyph d="M161 665V15Q161 7 158 3.5Q155 0 147 0H105Q98 0 94.5 3.5Q91 7 91 15V665Q91 673 94.5 676.5Q98 680 105 680H147Q155 680 158 676.5Q161 673 161 665ZM237 863 158 747Q155 742 150 740Q145 738 139 738H106Q99 738 97 741.5Q95 745 99 752L166 864Q171 872 175 875Q179 878 185 878H229Q237 878 239 873.5Q241 869 237 863Z" glyph-name="Iacute" horiz-adv-x="252" unicode="&#205;" /><glyph d="M161 665V15Q161 7 158 3.5Q155 0 147 0H105Q98 0 94.5 3.5Q91 7 91 15V665Q91 673 94.5 676.5Q98 680 105 680H147Q155 680 158 676.5Q161 673 161 665ZM59 866V849Q59 813 75 797.5Q91 782 126 782Q161 782 177 797Q193 812 193 849V866Q193 874 196 876.5Q199 879 207 879H232Q239 879 242 876Q245 873 245 866V850Q245 793 215.5 765.5Q186 738 125 738Q65 738 36 765Q7 792 7 850V866Q7 873 10 876Q13 879 20 879H46Q53 879 56 876Q59 873 59 866Z" glyph-name="Ibreve" horiz-adv-x="252" unicode="&#300;" /><glyph d="M161 665V15Q161 7 158 3.5Q155 0 147 0H105Q98 0 94.5 3.5Q91 7 91 15V665Q91 673 94.5 676.5Q98 680 105 680H147Q155 680 158 676.5Q161 673 161 665ZM179 752 126 834 73 752Q68 744 63.5 741Q59 738 53 738H21Q13 738 11 742Q9 746 13 752L90 863Q95 871 101 874.5Q107 878 113 878H139Q146 878 151.5 874.5Q157 871 162 864L239 752Q243 746 241 742Q239 738 231 738H199Q193 738 188.5 741.5Q184 745 179 752Z" glyph-name="Icircumflex" horiz-adv-x="252" unicode="&#206;" /><glyph d="M161 665V15Q161 7 158 3.5Q155 0 147 0H105Q98 0 94.5 3.5Q91 7 91 15V665Q91 673 94.5 676.5Q98 680 105 680H147Q155 680 158 676.5Q161 673 161 665ZM99 856V759Q99 750 96 747Q93 744 85 744H61Q53 744 49.5 747.5Q46 751 46 759V856Q46 864 49.5 867Q53 870 61 870H85Q93 870 96 867Q99 864 99 856ZM207 856V759Q207 751 203.5 747.5Q200 744 192 744H168Q160 744 156.5 747.5Q153 751 153 759V856Q153 864 156.5 867Q160 870 168 870H192Q200 870 203.5 867Q207 864 207 856Z" glyph-name="Idieresis" horiz-adv-x="252" unicode="&#207;" /><glyph d="M161 665V15Q161 7 158 3.5Q155 0 147 0H105Q98 0 94.5 3.5Q91 7 91 15V665Q91 673 94.5 676.5Q98 680 105 680H147Q155 680 158 676.5Q161 673 161 665ZM161 839V760Q161 752 158 749Q155 746 147 746H105Q98 746 94.5 749.5Q91 753 91 760V839Q91 847 94.5 850Q98 853 105 853H147Q155 853 158 850Q161 847 161 839Z" glyph-name="Idotaccent" horiz-adv-x="252" unicode="&#304;" /><glyph d="M161 665V15Q161 7 158 3.5Q155 0 147 0H105Q98 0 94.5 3.5Q91 7 91 15V665Q91 673 94.5 676.5Q98 680 105 680H147Q155 680 158 676.5Q161 673 161 665ZM90 747 11 863Q6 870 8 874Q10 878 18 878H62Q68 878 72.5 875Q77 872 82 864L149 752Q153 745 151 741Q149 737 142 737H108Q102 737 97.5 739.5Q93 742 90 747Z" glyph-name="Igrave" horiz-adv-x="252" unicode="&#204;" /><glyph d="M161 665V15Q161 7 158 3.5Q155 0 147 0H105Q98 0 94.5 3.5Q91 7 91 15V665Q91 673 94.5 676.5Q98 680 105 680H147Q155 680 158 676.5Q161 673 161 665ZM1 827H252Q260 827 263.5 823.5Q267 820 267 812V787Q267 780 263.5 776.5Q260 773 252 773H1Q-7 773 -10.5 776.5Q-14 780 -14 787V812Q-14 820 -10.5 823.5Q-7 827 1 827Z" glyph-name="Imacron" horiz-adv-x="252" unicode="&#298;" /><glyph d="M163 665V15Q163 7 160 3.5Q157 0 149 0H135Q109 0 92.5 -18.5Q76 -37 76 -63Q76 -84 89.5 -94.5Q103 -105 130 -105H155Q163 -105 166 -108.5Q169 -112 169 -119V-139Q169 -146 164.5 -150Q160 -154 151 -154H114Q71 -154 46 -133Q21 -112 21 -74Q21 -47 41 -17.5Q61 12 93 28V665Q93 673 96.5 676.5Q100 680 107 680H149Q157 680 160 676.5Q163 673 163 665Z" glyph-name="Iogonek" horiz-adv-x="254" unicode="&#302;" /><glyph d="M161 665V15Q161 7 158 3.5Q155 0 147 0H105Q98 0 94.5 3.5Q91 7 91 15V665Q91 673 94.5 676.5Q98 680 105 680H147Q155 680 158 676.5Q161 673 161 665ZM193 804Q208 804 213.5 813.5Q219 823 219 852V860Q219 867 223 870Q227 873 235 873H257Q264 873 267 869Q270 865 270 856V833Q270 794 250 772.5Q230 751 196 751Q183 751 168.5 756Q154 761 142 769L97 801Q86 810 76 814.5Q66 819 60 819Q44 819 38.5 810Q33 801 33 771V763Q33 756 29.5 753Q26 750 18 750H-5Q-12 750 -15 754Q-18 758 -18 767V790Q-18 829 1.5 850.5Q21 872 55 872Q70 872 84.5 867.5Q99 863 111 854L155 822Q170 812 178.5 808Q187 804 193 804Z" glyph-name="Itilde" horiz-adv-x="252" unicode="&#296;" /><glyph d="M99 183V149Q99 98 128 75.5Q157 53 220 53Q283 53 311.5 75.5Q340 98 340 149V665Q340 673 343.5 676.5Q347 680 354 680H396Q404 680 407.5 676.5Q411 673 411 665V138Q411 63 364 27.5Q317 -8 220 -8Q124 -8 76.5 28Q29 64 29 138V183Q29 192 32.5 195.5Q36 199 44 199H85Q92 199 95.5 195Q99 191 99 183Z" glyph-name="J" horiz-adv-x="498" unicode="J" /><glyph d="M99 183V149Q99 98 128 75.5Q157 53 220 53Q283 53 311.5 75.5Q340 98 340 149V665Q340 673 343.5 676.5Q347 680 354 680H396Q404 680 407.5 676.5Q411 673 411 665V138Q411 63 364 27.5Q317 -8 220 -8Q124 -8 76.5 28Q29 64 29 138V183Q29 192 32.5 195.5Q36 199 44 199H85Q92 199 95.5 195Q99 191 99 183ZM425 752 372 834 319 752Q314 744 309.5 741Q305 738 299 738H267Q259 738 257 742Q255 746 259 752L336 863Q341 871 347 874.5Q353 878 359 878H385Q392 878 397.5 874.5Q403 871 408 864L485 752Q489 746 487 742Q485 738 477 738H445Q439 738 434.5 741.5Q430 745 425 752Z" glyph-name="Jcircumflex" horiz-adv-x="497" unicode="&#308;" /><glyph d="M501 665 252 345 529 15Q533 10 531 5Q529 0 522 0H466Q460 0 455 2.5Q450 5 442 15L191 313H161V15Q161 7 158 3.5Q155 0 147 0H105Q97 0 93.5 3.5Q90 7 90 15V665Q90 673 93.5 676.5Q97 680 105 680H147Q155 680 158 676.5Q161 673 161 665V367H191L422 666Q428 673 434 676.5Q440 680 446 680H494Q501 680 503.5 675.5Q506 671 501 665Z" glyph-name="K" horiz-adv-x="548" unicode="K" /><glyph d="M217 -195Q241 -143 243.5 -128Q246 -113 246 -92V-64Q246 -56 249.5 -52.5Q253 -49 261 -49H291Q299 -49 302.5 -52.5Q306 -56 306 -64V-95Q306 -122 296.5 -151Q287 -180 267 -213Q263 -219 259 -221Q255 -223 248 -221L224 -215Q217 -213 215.5 -207.5Q214 -202 217 -195ZM501 665 252 345 529 15Q533 10 531 5Q529 0 522 0H466Q460 0 455 2.5Q450 5 442 15L191 313H161V15Q161 7 158 3.5Q155 0 147 0H105Q97 0 93.5 3.5Q90 7 90 15V665Q90 673 93.5 676.5Q97 680 105 680H147Q155 680 158 676.5Q161 673 161 665V367H191L422 666Q428 673 434 676.5Q440 680 446 680H494Q501 680 503.5 675.5Q506 671 501 665Z" glyph-name="Kcommaaccent" horiz-adv-x="548" unicode="&#310;" /><glyph d="M162 665V61H442Q450 61 453 58Q456 55 456 47V15Q456 7 453 3.5Q450 0 442 0H103Q97 0 94 4Q91 8 91 15V665Q91 673 94.5 676.5Q98 680 105 680H148Q155 680 158.5 676.5Q162 673 162 665Z" glyph-name="L" horiz-adv-x="475" unicode="L" /><glyph d="M237 863 158 747Q155 742 150 740Q145 738 139 738H106Q99 738 97 741.5Q95 745 99 752L166 864Q171 872 175 875Q179 878 185 878H229Q237 878 239 873.5Q241 869 237 863ZM162 665V61H442Q450 61 453 58Q456 55 456 47V15Q456 7 453 3.5Q450 0 442 0H103Q97 0 94 4Q91 8 91 15V665Q91 673 94.5 676.5Q98 680 105 680H148Q155 680 158.5 676.5Q162 673 162 665Z" glyph-name="Lacute" horiz-adv-x="475" unicode="&#313;" /><glyph d="M297 561Q321 613 323.5 628Q326 643 326 664V692Q326 700 329.5 703.5Q333 707 341 707H371Q379 707 382.5 703.5Q386 700 386 692V661Q386 634 376.5 605Q367 576 347 543Q343 537 339 535Q335 533 328 535L304 541Q297 543 295.5 548.5Q294 554 297 561ZM162 665V61H442Q450 61 453 58Q456 55 456 47V15Q456 7 453 3.5Q450 0 442 0H103Q97 0 94 4Q91 8 91 15V665Q91 673 94.5 676.5Q98 680 105 680H148Q155 680 158.5 676.5Q162 673 162 665Z" glyph-name="Lcaron" horiz-adv-x="478" unicode="&#317;" /><glyph d="M204 -195Q228 -143 230.5 -128Q233 -113 233 -92V-64Q233 -56 236.5 -52.5Q240 -49 248 -49H278Q286 -49 289.5 -52.5Q293 -56 293 -64V-95Q293 -122 283.5 -151Q274 -180 254 -213Q250 -219 246 -221Q242 -223 235 -221L211 -215Q204 -213 202.5 -207.5Q201 -202 204 -195ZM162 665V61H442Q450 61 453 58Q456 55 456 47V15Q456 7 453 3.5Q450 0 442 0H103Q97 0 94 4Q91 8 91 15V665Q91 673 94.5 676.5Q98 680 105 680H148Q155 680 158.5 676.5Q162 673 162 665Z" glyph-name="Lcommaaccent" horiz-adv-x="475" unicode="&#315;" /><glyph d="M162 665V61H442Q450 61 453 58Q456 55 456 47V15Q456 7 453 3.5Q450 0 442 0H103Q97 0 94 4Q91 8 91 15V665Q91 673 94.5 676.5Q98 680 105 680H148Q155 680 158.5 676.5Q162 673 162 665ZM406 393V315Q406 307 403 303.5Q400 300 392 300H351Q343 300 339.5 303.5Q336 307 336 315V393Q336 401 339.5 404.5Q343 408 351 408H392Q399 408 402.5 404.5Q406 401 406 393Z" glyph-name="Ldot" horiz-adv-x="482" unicode="&#319;" /><glyph d="M451 0H112Q106 0 103 4Q100 8 100 15V301L49 280Q42 277 37.5 279Q33 281 30 288L24 303Q22 309 24 313.5Q26 318 32 321L100 349V665Q100 673 103.5 676.5Q107 680 114 680H157Q164 680 167.5 676.5Q171 673 171 665V378L233 404Q239 406 244 404Q249 402 252 396L259 381Q262 375 259.5 370Q257 365 250 362L171 330V61H451Q459 61 462 58Q465 55 465 47V15Q465 7 462 3.5Q459 0 451 0Z" glyph-name="Lslash" horiz-adv-x="484" unicode="&#321;" /><glyph d="M636 665V15Q636 7 632.5 3.5Q629 0 621 0H581Q573 0 569.5 3.5Q566 7 566 15V531Q563 518 557 499.5Q551 481 546 469L401 119Q398 111 393 107.5Q388 104 381 104H344Q337 104 332.5 107.5Q328 111 325 119L174 478Q171 486 166 500.5Q161 515 157 530V15Q157 7 153.5 3.5Q150 0 143 0H105Q97 0 93.5 3.5Q90 7 90 15V665Q90 673 93.5 676.5Q97 680 105 680H143Q148 680 151 678Q154 676 156 672L345 230Q349 221 353.5 207.5Q358 194 363 178Q366 187 372 203.5Q378 220 382 229L567 672Q569 676 572 678Q575 680 581 680H621Q629 680 632.5 676.5Q636 673 636 665Z" glyph-name="M" horiz-adv-x="726" unicode="M" /><glyph d="M522 665V15Q522 7 519 3.5Q516 0 508 0H470Q465 0 461.5 1.5Q458 3 456 7L191 477Q181 494 172 512Q163 530 157 543V15Q157 7 153.5 3.5Q150 0 143 0H105Q97 0 93.5 3.5Q90 7 90 15V665Q90 673 93.5 676.5Q97 680 105 680H143Q148 680 150.5 678.5Q153 677 155 674L426 197Q433 184 441.5 167.5Q450 151 456 137V665Q456 673 459.5 676.5Q463 680 470 680H508Q516 680 519 676.5Q522 673 522 665Z" glyph-name="N" horiz-adv-x="613" unicode="N" /><glyph d="M419 863 340 747Q337 742 332 740Q327 738 321 738H288Q281 738 279 741.5Q277 745 281 752L348 864Q353 872 357 875Q361 878 367 878H411Q419 878 421 873.5Q423 869 419 863ZM522 665V15Q522 7 519 3.5Q516 0 508 0H470Q465 0 461.5 1.5Q458 3 456 7L191 477Q181 494 172 512Q163 530 157 543V15Q157 7 153.5 3.5Q150 0 143 0H105Q97 0 93.5 3.5Q90 7 90 15V665Q90 673 93.5 676.5Q97 680 105 680H143Q148 680 150.5 678.5Q153 677 155 674L426 197Q433 184 441.5 167.5Q450 151 456 137V665Q456 673 459.5 676.5Q463 680 470 680H508Q516 680 519 676.5Q522 673 522 665Z" glyph-name="Nacute" horiz-adv-x="613" unicode="&#323;" /><glyph d="M522 665V15Q522 7 519 3.5Q516 0 508 0H470Q465 0 461.5 1.5Q458 3 456 7L191 477Q181 494 172 512Q163 530 157 543V15Q157 7 153.5 3.5Q150 0 143 0H105Q97 0 93.5 3.5Q90 7 90 15V665Q90 673 93.5 676.5Q97 680 105 680H143Q148 680 150.5 678.5Q153 677 155 674L426 197Q433 184 441.5 167.5Q450 151 456 137V665Q456 673 459.5 676.5Q463 680 470 680H508Q516 680 519 676.5Q522 673 522 665ZM253 863 306 781 359 863Q364 871 369 874.5Q374 878 379 878H411Q419 878 421 873.5Q423 869 419 863L342 752Q337 745 331.5 741.5Q326 738 319 738H293Q287 738 281.5 741.5Q276 745 270 753L193 863Q189 869 191 873.5Q193 878 201 878H233Q238 878 242.5 875Q247 872 253 863Z" glyph-name="Ncaron" horiz-adv-x="613" unicode="&#327;" /><glyph d="M251 -196Q275 -144 277.5 -129Q280 -114 280 -93V-65Q280 -57 283.5 -53.5Q287 -50 295 -50H325Q333 -50 336.5 -53.5Q340 -57 340 -65V-96Q340 -123 330.5 -152Q321 -181 301 -214Q297 -220 293 -222Q289 -224 282 -222L258 -216Q251 -214 249.5 -208.5Q248 -203 251 -196ZM522 665V15Q522 7 519 3.5Q516 0 508 0H470Q465 0 461.5 1.5Q458 3 456 7L191 477Q181 494 172 512Q163 530 157 543V15Q157 7 153.5 3.5Q150 0 143 0H105Q97 0 93.5 3.5Q90 7 90 15V665Q90 673 93.5 676.5Q97 680 105 680H143Q148 680 150.5 678.5Q153 677 155 674L426 197Q433 184 441.5 167.5Q450 151 456 137V665Q456 673 459.5 676.5Q463 680 470 680H508Q516 680 519 676.5Q522 673 522 665Z" glyph-name="Ncommaaccent" horiz-adv-x="613" unicode="&#325;" /><glyph d="M373 804Q388 804 393.5 813.5Q399 823 399 852V860Q399 867 403 870Q407 873 415 873H437Q444 873 447 869Q450 865 450 856V833Q450 794 430 772.5Q410 751 376 751Q363 751 348.5 756Q334 761 322 769L277 801Q266 810 256 814.5Q246 819 240 819Q224 819 218.5 810Q213 801 213 771V763Q213 756 209.5 753Q206 750 198 750H175Q168 750 165 754Q162 758 162 767V790Q162 829 181.5 850.5Q201 872 235 872Q250 872 264.5 867.5Q279 863 291 854L335 822Q350 812 358.5 808Q367 804 373 804ZM522 665V15Q522 7 519 3.5Q516 0 508 0H470Q465 0 461.5 1.5Q458 3 456 7L191 477Q181 494 172 512Q163 530 157 543V15Q157 7 153.5 3.5Q150 0 143 0H105Q97 0 93.5 3.5Q90 7 90 15V665Q90 673 93.5 676.5Q97 680 105 680H143Q148 680 150.5 678.5Q153 677 155 674L426 197Q433 184 441.5 167.5Q450 151 456 137V665Q456 673 459.5 676.5Q463 680 470 680H508Q516 680 519 676.5Q522 673 522 665Z" glyph-name="Ntilde" horiz-adv-x="613" unicode="&#209;" /><glyph d="M295 -8Q188 -8 133.5 29Q79 66 79 138V542Q79 614 133.5 651Q188 688 295 688Q403 688 457.5 651Q512 614 512 542V138Q512 66 457.5 29Q403 -8 295 -8ZM295 53Q368 53 404.5 77Q441 101 441 149V531Q441 579 404.5 603Q368 627 295 627Q223 627 186.5 603Q150 579 150 531V149Q150 101 186.5 77Q223 53 295 53Z" glyph-name="O" horiz-adv-x="591" unicode="O" /><glyph d="M295 51Q368 51 404.5 75.5Q441 100 441 149V531Q441 580 404.5 604.5Q368 629 295 629Q222 629 186 604.5Q150 580 150 531V149Q150 100 186 75.5Q222 51 295 51ZM441 15V31Q414 12 377.5 2Q341 -8 295 -8Q188 -8 133.5 29Q79 66 79 138V542Q79 614 133.5 651Q188 688 295 688Q341 688 377.5 678Q414 668 441 649V665Q441 673 444.5 676.5Q448 680 455 680H797Q805 680 808 677Q811 674 811 666V635Q811 628 808 624.5Q805 621 797 621H512V385H779Q787 385 790.5 382Q794 379 794 371V342Q794 335 790.5 331.5Q787 328 779 328H512V59H809Q817 59 820 56Q823 53 823 45V15Q823 7 820 3.5Q817 0 809 0H455Q448 0 444.5 3.5Q441 7 441 15Z" glyph-name="OE" horiz-adv-x="870" unicode="&#338;" /><glyph d="M399 863 320 747Q317 742 312 740Q307 738 301 738H268Q261 738 259 741.5Q257 745 261 752L328 864Q333 872 337 875Q341 878 347 878H391Q399 878 401 873.5Q403 869 399 863ZM295 -8Q188 -8 133.5 29Q79 66 79 138V542Q79 614 133.5 651Q188 688 295 688Q403 688 457.5 651Q512 614 512 542V138Q512 66 457.5 29Q403 -8 295 -8ZM295 53Q368 53 404.5 77Q441 101 441 149V531Q441 579 404.5 603Q368 627 295 627Q223 627 186.5 603Q150 579 150 531V149Q150 101 186.5 77Q223 53 295 53Z" glyph-name="Oacute" horiz-adv-x="591" unicode="&#211;" /><glyph d="M295 -8Q188 -8 133.5 29Q79 66 79 138V542Q79 614 133.5 651Q188 688 295 688Q403 688 457.5 651Q512 614 512 542V138Q512 66 457.5 29Q403 -8 295 -8ZM295 53Q368 53 404.5 77Q441 101 441 149V531Q441 579 404.5 603Q368 627 295 627Q223 627 186.5 603Q150 579 150 531V149Q150 101 186.5 77Q223 53 295 53ZM228 866V849Q228 813 244 797.5Q260 782 295 782Q330 782 346 797Q362 812 362 849V866Q362 874 365 876.5Q368 879 376 879H401Q408 879 411 876Q414 873 414 866V850Q414 793 384.5 765.5Q355 738 294 738Q234 738 205 765Q176 792 176 850V866Q176 873 179 876Q182 879 189 879H215Q222 879 225 876Q228 873 228 866Z" glyph-name="Obreve" horiz-adv-x="591" unicode="&#334;" /><glyph d="M348 752 295 834 242 752Q237 744 232.5 741Q228 738 222 738H190Q182 738 180 742Q178 746 182 752L259 863Q264 871 270 874.5Q276 878 282 878H308Q315 878 320.5 874.5Q326 871 331 864L408 752Q412 746 410 742Q408 738 400 738H368Q362 738 357.5 741.5Q353 745 348 752ZM295 -8Q188 -8 133.5 29Q79 66 79 138V542Q79 614 133.5 651Q188 688 295 688Q403 688 457.5 651Q512 614 512 542V138Q512 66 457.5 29Q403 -8 295 -8ZM295 53Q368 53 404.5 77Q441 101 441 149V531Q441 579 404.5 603Q368 627 295 627Q223 627 186.5 603Q150 579 150 531V149Q150 101 186.5 77Q223 53 295 53Z" glyph-name="Ocircumflex" horiz-adv-x="591" unicode="&#212;" /><glyph d="M295 -8Q188 -8 133.5 29Q79 66 79 138V542Q79 614 133.5 651Q188 688 295 688Q403 688 457.5 651Q512 614 512 542V138Q512 66 457.5 29Q403 -8 295 -8ZM295 53Q368 53 404.5 77Q441 101 441 149V531Q441 579 404.5 603Q368 627 295 627Q223 627 186.5 603Q150 579 150 531V149Q150 101 186.5 77Q223 53 295 53ZM268 856V759Q268 750 265 747Q262 744 254 744H230Q222 744 218.5 747.5Q215 751 215 759V856Q215 864 218.5 867Q222 870 230 870H254Q262 870 265 867Q268 864 268 856ZM376 856V759Q376 751 372.5 747.5Q369 744 361 744H337Q329 744 325.5 747.5Q322 751 322 759V856Q322 864 325.5 867Q329 870 337 870H361Q369 870 372.5 867Q376 864 376 856Z" glyph-name="Odieresis" horiz-adv-x="591" unicode="&#214;" /><glyph d="M260 747 181 863Q176 870 178 874Q180 878 188 878H232Q238 878 242.5 875Q247 872 252 864L319 752Q323 745 321 741Q319 737 312 737H278Q272 737 267.5 739.5Q263 742 260 747ZM295 -8Q188 -8 133.5 29Q79 66 79 138V542Q79 614 133.5 651Q188 688 295 688Q403 688 457.5 651Q512 614 512 542V138Q512 66 457.5 29Q403 -8 295 -8ZM295 53Q368 53 404.5 77Q441 101 441 149V531Q441 579 404.5 603Q368 627 295 627Q223 627 186.5 603Q150 579 150 531V149Q150 101 186.5 77Q223 53 295 53Z" glyph-name="Ograve" horiz-adv-x="591" unicode="&#210;" /><glyph d="M448 863 371 751Q366 744 361 741Q356 738 350 738H319Q312 738 310 742Q308 746 312 752L381 863Q386 871 391.5 874.5Q397 878 404 878H441Q449 878 451 874Q453 870 448 863ZM333 863 271 752Q267 744 262.5 741Q258 738 251 738H220Q213 738 210.5 742Q208 746 211 752L266 863Q270 871 275 874.5Q280 878 287 878H323Q331 878 334 873.5Q337 869 333 863ZM295 -8Q188 -8 133.5 29Q79 66 79 138V542Q79 614 133.5 651Q188 688 295 688Q403 688 457.5 651Q512 614 512 542V138Q512 66 457.5 29Q403 -8 295 -8ZM295 53Q368 53 404.5 77Q441 101 441 149V531Q441 579 404.5 603Q368 627 295 627Q223 627 186.5 603Q150 579 150 531V149Q150 101 186.5 77Q223 53 295 53Z" glyph-name="Ohungarumlaut" horiz-adv-x="591" unicode="&#336;" /><glyph d="M295 -8Q188 -8 133.5 29Q79 66 79 138V542Q79 614 133.5 651Q188 688 295 688Q403 688 457.5 651Q512 614 512 542V138Q512 66 457.5 29Q403 -8 295 -8ZM295 53Q368 53 404.5 77Q441 101 441 149V531Q441 579 404.5 603Q368 627 295 627Q223 627 186.5 603Q150 579 150 531V149Q150 101 186.5 77Q223 53 295 53ZM170 827H421Q429 827 432.5 823.5Q436 820 436 812V787Q436 780 432.5 776.5Q429 773 421 773H170Q162 773 158.5 776.5Q155 780 155 787V812Q155 820 158.5 823.5Q162 827 170 827Z" glyph-name="Omacron" horiz-adv-x="591" unicode="&#332;" /><glyph d="M188 193Q139 193 103 229Q67 265 67 314Q67 364 102.5 400Q138 436 188 436Q238 436 274 400Q310 364 310 314Q310 264 274 228.5Q238 193 188 193ZM188 419Q145 419 115 388.5Q85 358 85 314Q85 271 115 241Q145 211 188 211Q232 211 262.5 241Q293 271 293 314Q293 358 262.5 388.5Q232 419 188 419Z" glyph-name="Omega" horiz-adv-x="379" unicode="&#8486;" /><glyph d="M150 530V149Q150 140 151.5 131Q153 122 156 115L396 608Q378 617 352.5 622Q327 627 295 627Q223 627 186.5 602.5Q150 578 150 530ZM295 52Q368 52 404.5 76.5Q441 101 441 149V530Q441 539 439.5 548Q438 557 435 564L195 71Q213 62 238 57Q263 52 295 52ZM166 11 155 -11Q148 -25 142.5 -29Q137 -33 127 -33H102Q94 -33 91.5 -27Q89 -21 94 -11L119 40Q99 58 89 82.5Q79 107 79 138V541Q79 613 133.5 650Q188 687 295 687Q335 687 367.5 682Q400 677 425 667L436 690Q443 703 448.5 707.5Q454 712 463 712H489Q497 712 499.5 705.5Q502 699 497 690L472 639Q492 621 502 596.5Q512 572 512 541V138Q512 66 457.5 28.5Q403 -9 295 -9Q255 -9 223 -4Q191 1 166 11Z" glyph-name="Oslash" horiz-adv-x="591" unicode="&#216;" /><glyph d="M402 863 323 747Q319 742 314.5 740Q310 738 304 738H271Q264 738 262 741.5Q260 745 264 752L331 864Q337 873 340.5 875.5Q344 878 350 878H394Q402 878 404 873.5Q406 869 402 863ZM150 530V149Q150 140 151.5 131Q153 122 156 115L396 608Q378 617 352.5 622Q327 627 295 627Q223 627 186.5 602.5Q150 578 150 530ZM295 52Q368 52 404.5 76.5Q441 101 441 149V530Q441 539 439.5 548Q438 557 435 564L195 71Q213 62 238 57Q263 52 295 52ZM166 11 155 -11Q148 -25 142.5 -29Q137 -33 127 -33H102Q94 -33 91.5 -27Q89 -21 94 -11L119 40Q99 58 89 82.5Q79 107 79 138V541Q79 613 133.5 650Q188 687 295 687Q335 687 367.5 682Q400 677 425 667L436 690Q443 703 448.5 707.5Q454 712 463 712H489Q497 712 499.5 705.5Q502 699 497 690L472 639Q492 621 502 596.5Q512 572 512 541V138Q512 66 457.5 28.5Q403 -9 295 -9Q255 -9 223 -4Q191 1 166 11Z" glyph-name="Oslashacute" horiz-adv-x="591" unicode="&#510;" /><glyph d="M295 -8Q188 -8 133.5 29Q79 66 79 138V542Q79 614 133.5 651Q188 688 295 688Q403 688 457.5 651Q512 614 512 542V138Q512 66 457.5 29Q403 -8 295 -8ZM295 53Q368 53 404.5 77Q441 101 441 149V531Q441 579 404.5 603Q368 627 295 627Q223 627 186.5 603Q150 579 150 531V149Q150 101 186.5 77Q223 53 295 53ZM362 804Q377 804 382.5 813.5Q388 823 388 852V860Q388 867 392 870Q396 873 404 873H426Q433 873 436 869Q439 865 439 856V833Q439 794 419 772.5Q399 751 365 751Q352 751 337.5 756Q323 761 311 769L266 801Q255 810 245 814.5Q235 819 229 819Q213 819 207.5 810Q202 801 202 771V763Q202 756 198.5 753Q195 750 187 750H164Q157 750 154 754Q151 758 151 767V790Q151 829 170.5 850.5Q190 872 224 872Q239 872 253.5 867.5Q268 863 280 854L324 822Q339 812 347.5 808Q356 804 362 804Z" glyph-name="Otilde" horiz-adv-x="591" unicode="&#213;" /><glyph d="M302 262H161V15Q161 7 158 3.5Q155 0 147 0H105Q98 0 94.5 3.5Q91 7 91 15V665Q91 673 94 676.5Q97 680 104 680H302Q410 680 464.5 643Q519 606 519 534V409Q519 337 464.5 299.5Q410 262 302 262ZM302 619H161V323H302Q375 323 411.5 347Q448 371 448 420V523Q448 571 411.5 595Q375 619 302 619Z" glyph-name="P" horiz-adv-x="568" unicode="P" /><glyph d="M499 -147 477 -170Q473 -175 467.5 -175Q462 -175 457 -171L280 -8Q180 -5 129.5 32Q79 69 79 138V542Q79 614 133.5 651Q188 688 295 688Q403 688 457.5 651Q512 614 512 542V138Q512 78 474.5 42.5Q437 7 363 -4L497 -126Q503 -131 503.5 -136Q504 -141 499 -147ZM295 51Q368 51 404.5 75Q441 99 441 148V532Q441 581 404.5 605Q368 629 295 629Q222 629 186 605Q150 581 150 532V148Q150 99 186 75Q222 51 295 51Z" glyph-name="Q" horiz-adv-x="591" unicode="Q" /><glyph d="M302 619H161V337H302Q375 337 411.5 361Q448 385 448 434V523Q448 571 411.5 595Q375 619 302 619ZM161 277V15Q161 7 158 3.5Q155 0 147 0H105Q98 0 94.5 3.5Q91 7 91 15V665Q91 673 94 676.5Q97 680 104 680H302Q410 680 464.5 643Q519 606 519 534V422Q519 368 488 334Q457 300 395 286L525 15Q528 9 524 4.5Q520 0 511 0H465Q459 0 455 2.5Q451 5 447 15L323 277Z" glyph-name="R" horiz-adv-x="586" unicode="R" /><glyph d="M302 619H161V337H302Q375 337 411.5 361Q448 385 448 434V523Q448 571 411.5 595Q375 619 302 619ZM161 277V15Q161 7 158 3.5Q155 0 147 0H105Q98 0 94.5 3.5Q91 7 91 15V665Q91 673 94 676.5Q97 680 104 680H302Q410 680 464.5 643Q519 606 519 534V422Q519 368 488 334Q457 300 395 286L525 15Q528 9 524 4.5Q520 0 511 0H465Q459 0 455 2.5Q451 5 447 15L323 277ZM379 863 300 747Q297 742 292 740Q287 738 281 738H248Q241 738 239 741.5Q237 745 241 752L308 864Q313 872 317 875Q321 878 327 878H371Q379 878 381 873.5Q383 869 379 863Z" glyph-name="Racute" horiz-adv-x="585" unicode="&#340;" /><glyph d="M302 619H161V337H302Q375 337 411.5 361Q448 385 448 434V523Q448 571 411.5 595Q375 619 302 619ZM161 277V15Q161 7 158 3.5Q155 0 147 0H105Q98 0 94.5 3.5Q91 7 91 15V665Q91 673 94 676.5Q97 680 104 680H302Q410 680 464.5 643Q519 606 519 534V422Q519 368 488 334Q457 300 395 286L525 15Q528 9 524 4.5Q520 0 511 0H465Q459 0 455 2.5Q451 5 447 15L323 277ZM232 863 285 781 338 863Q343 871 348 874.5Q353 878 358 878H390Q398 878 400 873.5Q402 869 398 863L321 752Q316 745 310.5 741.5Q305 738 298 738H272Q266 738 260.5 741.5Q255 745 249 753L172 863Q168 869 170 873.5Q172 878 180 878H212Q217 878 221.5 875Q226 872 232 863Z" glyph-name="Rcaron" horiz-adv-x="585" unicode="&#344;" /><glyph d="M234 -195Q258 -143 260.5 -128Q263 -113 263 -92V-64Q263 -56 266.5 -52.5Q270 -49 278 -49H308Q316 -49 319.5 -52.5Q323 -56 323 -64V-95Q323 -122 313.5 -151Q304 -180 284 -213Q280 -219 276 -221Q272 -223 265 -221L241 -215Q234 -213 232.5 -207.5Q231 -202 234 -195ZM302 619H161V337H302Q375 337 411.5 361Q448 385 448 434V523Q448 571 411.5 595Q375 619 302 619ZM161 277V15Q161 7 158 3.5Q155 0 147 0H105Q98 0 94.5 3.5Q91 7 91 15V665Q91 673 94 676.5Q97 680 104 680H302Q410 680 464.5 643Q519 606 519 534V422Q519 368 488 334Q457 300 395 286L525 15Q528 9 524 4.5Q520 0 511 0H465Q459 0 455 2.5Q451 5 447 15L323 277Z" glyph-name="Rcommaaccent" horiz-adv-x="585" unicode="&#342;" /><glyph d="M413 495V533Q413 582 379.5 605Q346 628 276 628Q205 628 171.5 605Q138 582 138 533V503Q138 475 152.5 455.5Q167 436 196 425L384 354Q435 335 461.5 302Q488 269 488 224V138Q488 66 434 29Q380 -8 274 -8Q168 -8 114 29Q60 66 60 138V193Q60 201 63 204.5Q66 208 74 208H115Q123 208 126 204.5Q129 201 129 193V147Q129 99 164.5 75.5Q200 52 273 52Q346 52 382 75.5Q418 99 418 147V209Q418 238 399.5 258.5Q381 279 335 297L156 366Q117 381 93 413.5Q69 446 69 486V542Q69 615 120.5 651.5Q172 688 275 688Q378 688 430.5 651Q483 614 483 542V495Q483 487 479.5 483.5Q476 480 468 480H427Q420 480 416.5 483.5Q413 487 413 495Z" glyph-name="S" horiz-adv-x="552" unicode="S" /><glyph d="M413 495V533Q413 582 379.5 605Q346 628 276 628Q205 628 171.5 605Q138 582 138 533V503Q138 475 152.5 455.5Q167 436 196 425L384 354Q435 335 461.5 302Q488 269 488 224V138Q488 66 434 29Q380 -8 274 -8Q168 -8 114 29Q60 66 60 138V193Q60 201 63 204.5Q66 208 74 208H115Q123 208 126 204.5Q129 201 129 193V147Q129 99 164.5 75.5Q200 52 273 52Q346 52 382 75.5Q418 99 418 147V209Q418 238 399.5 258.5Q381 279 335 297L156 366Q117 381 93 413.5Q69 446 69 486V542Q69 615 120.5 651.5Q172 688 275 688Q378 688 430.5 651Q483 614 483 542V495Q483 487 479.5 483.5Q476 480 468 480H427Q420 480 416.5 483.5Q413 487 413 495ZM386 863 307 747Q304 742 299 740Q294 738 288 738H255Q248 738 246 741.5Q244 745 248 752L315 864Q320 872 324 875Q328 878 334 878H378Q386 878 388 873.5Q390 869 386 863Z" glyph-name="Sacute" horiz-adv-x="554" unicode="&#346;" /><glyph d="M413 495V533Q413 582 379.5 605Q346 628 276 628Q205 628 171.5 605Q138 582 138 533V503Q138 475 152.5 455.5Q167 436 196 425L384 354Q435 335 461.5 302Q488 269 488 224V138Q488 66 434 29Q380 -8 274 -8Q168 -8 114 29Q60 66 60 138V193Q60 201 63 204.5Q66 208 74 208H115Q123 208 126 204.5Q129 201 129 193V147Q129 99 164.5 75.5Q200 52 273 52Q346 52 382 75.5Q418 99 418 147V209Q418 238 399.5 258.5Q381 279 335 297L156 366Q117 381 93 413.5Q69 446 69 486V542Q69 615 120.5 651.5Q172 688 275 688Q378 688 430.5 651Q483 614 483 542V495Q483 487 479.5 483.5Q476 480 468 480H427Q420 480 416.5 483.5Q413 487 413 495ZM223 863 276 781 329 863Q334 871 339 874.5Q344 878 349 878H381Q389 878 391 873.5Q393 869 389 863L312 752Q307 745 301.5 741.5Q296 738 289 738H263Q257 738 251.5 741.5Q246 745 240 753L163 863Q159 869 161 873.5Q163 878 171 878H203Q208 878 212.5 875Q217 872 223 863Z" glyph-name="Scaron" horiz-adv-x="554" unicode="&#352;" /><glyph d="M400 -129Q400 -169 378.5 -190Q357 -211 318 -211H195Q187 -211 183.5 -207.5Q180 -204 180 -196V-186Q180 -178 183.5 -175Q187 -172 195 -172H307Q326 -172 338 -160.5Q350 -149 350 -129Q350 -109 338.5 -98Q327 -87 307 -87H244Q232 -87 227.5 -82Q223 -77 227 -67L244 -7Q153 -2 107 34.5Q61 71 61 138V192Q61 200 64.5 203.5Q68 207 75 207H116Q123 207 126.5 203.5Q130 200 130 192V146Q130 97 165.5 73.5Q201 50 274 50Q348 50 383.5 73.5Q419 97 419 146V211Q419 239 398.5 261Q378 283 336 300L157 368Q118 382 93.5 415Q69 448 69 489V542Q69 616 120.5 652Q172 688 277 688Q381 688 432.5 652Q484 616 484 542V495Q484 488 480.5 484Q477 480 469 480H428Q421 480 417.5 483.5Q414 487 414 495V534Q414 584 380.5 607Q347 630 277 630Q206 630 172.5 607Q139 584 139 534V498Q139 472 154.5 451.5Q170 431 197 420L385 350Q433 333 461 299Q489 265 489 221V138Q489 69 440.5 33Q392 -3 295 -7Q295 -7 294.5 -7Q294 -7 293 -7L281 -50H318Q357 -50 378.5 -70.5Q400 -91 400 -129Z" glyph-name="Scedilla" horiz-adv-x="554" unicode="&#350;" /><glyph d="M413 495V533Q413 582 379.5 605Q346 628 276 628Q205 628 171.5 605Q138 582 138 533V503Q138 475 152.5 455.5Q167 436 196 425L384 354Q435 335 461.5 302Q488 269 488 224V138Q488 66 434 29Q380 -8 274 -8Q168 -8 114 29Q60 66 60 138V193Q60 201 63 204.5Q66 208 74 208H115Q123 208 126 204.5Q129 201 129 193V147Q129 99 164.5 75.5Q200 52 273 52Q346 52 382 75.5Q418 99 418 147V209Q418 238 399.5 258.5Q381 279 335 297L156 366Q117 381 93 413.5Q69 446 69 486V542Q69 615 120.5 651.5Q172 688 275 688Q378 688 430.5 651Q483 614 483 542V495Q483 487 479.5 483.5Q476 480 468 480H427Q420 480 416.5 483.5Q413 487 413 495ZM325 752 272 834 219 752Q214 744 209.5 741Q205 738 199 738H167Q159 738 157 742Q155 746 159 752L236 863Q241 871 247 874.5Q253 878 259 878H285Q292 878 297.5 874.5Q303 871 308 864L385 752Q389 746 387 742Q385 738 377 738H345Q339 738 334.5 741.5Q330 745 325 752Z" glyph-name="Scircumflex" horiz-adv-x="554" unicode="&#348;" /><glyph d="M36 680H453Q461 680 464.5 676.5Q468 673 468 665V634Q468 626 464.5 622.5Q461 619 453 619H280V15Q280 7 276.5 3.5Q273 0 266 0H223Q216 0 212.5 3.5Q209 7 209 15V619H36Q28 619 25 622.5Q22 626 22 634V665Q22 673 25 676.5Q28 680 36 680Z" glyph-name="T" horiz-adv-x="489" unicode="T" /><glyph d="M296 397V15Q296 7 292.5 3.5Q289 0 282 0H239Q232 0 228.5 3.5Q225 7 225 15V397H83Q75 397 72 400.5Q69 404 69 412V433Q69 441 72.5 444Q76 447 83 447H225V619H52Q44 619 41 622.5Q38 626 38 634V665Q38 673 41 676.5Q44 680 52 680H469Q477 680 480.5 676.5Q484 673 484 665V634Q484 626 480.5 622.5Q477 619 469 619H296V447H441Q449 447 452.5 444Q456 441 456 433V412Q456 404 452.5 400.5Q449 397 441 397Z" glyph-name="Tbar" horiz-adv-x="523" unicode="&#358;" /><glyph d="M36 680H453Q461 680 464.5 676.5Q468 673 468 665V634Q468 626 464.5 622.5Q461 619 453 619H280V15Q280 7 276.5 3.5Q273 0 266 0H223Q216 0 212.5 3.5Q209 7 209 15V619H36Q28 619 25 622.5Q22 626 22 634V665Q22 673 25 676.5Q28 680 36 680ZM192 863 245 781 298 863Q303 871 308 874.5Q313 878 318 878H350Q358 878 360 873.5Q362 869 358 863L281 752Q276 745 270.5 741.5Q265 738 258 738H232Q226 738 220.5 741.5Q215 745 209 753L132 863Q128 869 130 873.5Q132 878 140 878H172Q177 878 181.5 875Q186 872 192 863Z" glyph-name="Tcaron" horiz-adv-x="490" unicode="&#356;" /><glyph d="M161 665V494H302Q410 494 464.5 457Q519 420 519 348V246Q519 174 464.5 137.5Q410 101 302 101H161V15Q161 7 158 3.5Q155 0 147 0H105Q97 0 93.5 3.5Q90 7 90 15V665Q90 673 93.5 676.5Q97 680 105 680H147Q155 680 158 676.5Q161 673 161 665ZM302 434H161V160H302Q375 160 411.5 184Q448 208 448 257V337Q448 386 411.5 410Q375 434 302 434Z" glyph-name="Thorn" horiz-adv-x="574" unicode="&#222;" /><glyph d="M158 665V149Q158 101 194.5 77Q231 53 303 53Q376 53 412.5 77Q449 101 449 149V665Q449 673 452.5 676.5Q456 680 464 680H506Q514 680 517 676.5Q520 673 520 665V138Q520 66 465.5 29Q411 -8 303 -8Q196 -8 141.5 29Q87 66 87 138V665Q87 673 91 676.5Q95 680 102 680H144Q151 680 154.5 676.5Q158 673 158 665Z" glyph-name="U" horiz-adv-x="607" unicode="U" /><glyph d="M158 665V149Q158 101 194.5 77Q231 53 303 53Q376 53 412.5 77Q449 101 449 149V665Q449 673 452.5 676.5Q456 680 464 680H506Q514 680 517 676.5Q520 673 520 665V138Q520 66 465.5 29Q411 -8 303 -8Q196 -8 141.5 29Q87 66 87 138V665Q87 673 91 676.5Q95 680 102 680H144Q151 680 154.5 676.5Q158 673 158 665ZM413 863 334 747Q331 742 326 740Q321 738 315 738H282Q275 738 273 741.5Q271 745 275 752L342 864Q347 872 351 875Q355 878 361 878H405Q413 878 415 873.5Q417 869 413 863Z" glyph-name="Uacute" horiz-adv-x="606" unicode="&#218;" /><glyph d="M158 665V149Q158 101 194.5 77Q231 53 303 53Q376 53 412.5 77Q449 101 449 149V665Q449 673 452.5 676.5Q456 680 464 680H506Q514 680 517 676.5Q520 673 520 665V138Q520 66 465.5 29Q411 -8 303 -8Q196 -8 141.5 29Q87 66 87 138V665Q87 673 91 676.5Q95 680 102 680H144Q151 680 154.5 676.5Q158 673 158 665ZM236 866V849Q236 813 252 797.5Q268 782 303 782Q338 782 354 797Q370 812 370 849V866Q370 874 373 876.5Q376 879 384 879H409Q416 879 419 876Q422 873 422 866V850Q422 793 392.5 765.5Q363 738 302 738Q242 738 213 765Q184 792 184 850V866Q184 873 187 876Q190 879 197 879H223Q230 879 233 876Q236 873 236 866Z" glyph-name="Ubreve" horiz-adv-x="606" unicode="&#364;" /><glyph d="M356 752 303 834 250 752Q245 744 240.5 741Q236 738 230 738H198Q190 738 188 742Q186 746 190 752L267 863Q272 871 278 874.5Q284 878 290 878H316Q323 878 328.5 874.5Q334 871 339 864L416 752Q420 746 418 742Q416 738 408 738H376Q370 738 365.5 741.5Q361 745 356 752ZM158 665V149Q158 101 194.5 77Q231 53 303 53Q376 53 412.5 77Q449 101 449 149V665Q449 673 452.5 676.5Q456 680 464 680H506Q514 680 517 676.5Q520 673 520 665V138Q520 66 465.5 29Q411 -8 303 -8Q196 -8 141.5 29Q87 66 87 138V665Q87 673 91 676.5Q95 680 102 680H144Q151 680 154.5 676.5Q158 673 158 665Z" glyph-name="Ucircumflex" horiz-adv-x="606" unicode="&#219;" /><glyph d="M158 665V149Q158 101 194.5 77Q231 53 303 53Q376 53 412.5 77Q449 101 449 149V665Q449 673 452.5 676.5Q456 680 464 680H506Q514 680 517 676.5Q520 673 520 665V138Q520 66 465.5 29Q411 -8 303 -8Q196 -8 141.5 29Q87 66 87 138V665Q87 673 91 676.5Q95 680 102 680H144Q151 680 154.5 676.5Q158 673 158 665ZM276 856V759Q276 750 273 747Q270 744 262 744H238Q230 744 226.5 747.5Q223 751 223 759V856Q223 864 226.5 867Q230 870 238 870H262Q270 870 273 867Q276 864 276 856ZM384 856V759Q384 751 380.5 747.5Q377 744 369 744H345Q337 744 333.5 747.5Q330 751 330 759V856Q330 864 333.5 867Q337 870 345 870H369Q377 870 380.5 867Q384 864 384 856Z" glyph-name="Udieresis" horiz-adv-x="606" unicode="&#220;" /><glyph d="M272 747 193 863Q188 870 190 874Q192 878 200 878H244Q250 878 254.5 875Q259 872 264 864L331 752Q335 745 333 741Q331 737 324 737H290Q284 737 279.5 739.5Q275 742 272 747ZM158 665V149Q158 101 194.5 77Q231 53 303 53Q376 53 412.5 77Q449 101 449 149V665Q449 673 452.5 676.5Q456 680 464 680H506Q514 680 517 676.5Q520 673 520 665V138Q520 66 465.5 29Q411 -8 303 -8Q196 -8 141.5 29Q87 66 87 138V665Q87 673 91 676.5Q95 680 102 680H144Q151 680 154.5 676.5Q158 673 158 665Z" glyph-name="Ugrave" horiz-adv-x="606" unicode="&#217;" /><glyph d="M462 863 385 751Q380 744 375 741Q370 738 364 738H333Q326 738 324 742Q322 746 326 752L395 863Q400 871 405.5 874.5Q411 878 418 878H455Q463 878 465 874Q467 870 462 863ZM347 863 285 752Q281 744 276.5 741Q272 738 265 738H234Q227 738 224.5 742Q222 746 225 752L280 863Q284 871 289 874.5Q294 878 301 878H337Q345 878 348 873.5Q351 869 347 863ZM158 665V149Q158 101 194.5 77Q231 53 303 53Q376 53 412.5 77Q449 101 449 149V665Q449 673 452.5 676.5Q456 680 464 680H506Q514 680 517 676.5Q520 673 520 665V138Q520 66 465.5 29Q411 -8 303 -8Q196 -8 141.5 29Q87 66 87 138V665Q87 673 91 676.5Q95 680 102 680H144Q151 680 154.5 676.5Q158 673 158 665Z" glyph-name="Uhungarumlaut" horiz-adv-x="606" unicode="&#368;" /><glyph d="M158 665V149Q158 101 194.5 77Q231 53 303 53Q376 53 412.5 77Q449 101 449 149V665Q449 673 452.5 676.5Q456 680 464 680H506Q514 680 517 676.5Q520 673 520 665V138Q520 66 465.5 29Q411 -8 303 -8Q196 -8 141.5 29Q87 66 87 138V665Q87 673 91 676.5Q95 680 102 680H144Q151 680 154.5 676.5Q158 673 158 665ZM178 827H429Q437 827 440.5 823.5Q444 820 444 812V787Q444 780 440.5 776.5Q437 773 429 773H178Q170 773 166.5 776.5Q163 780 163 787V812Q163 820 166.5 823.5Q170 827 178 827Z" glyph-name="Umacron" horiz-adv-x="606" unicode="&#362;" /><glyph d="M158 665V149Q158 101 194.5 77Q231 53 303 53Q376 53 412.5 77Q449 101 449 149V665Q449 673 452.5 676.5Q456 680 464 680H506Q514 680 517 676.5Q520 673 520 665V138Q520 108 510.5 84Q501 60 483 43Q478 38 460 23.5Q442 9 434 -1Q421 -15 415 -29.5Q409 -44 409 -61Q409 -83 422.5 -94Q436 -105 463 -105H495Q503 -105 507 -108.5Q511 -112 511 -119V-139Q511 -146 506 -150Q501 -154 492 -154H444Q404 -154 379.5 -132.5Q355 -111 355 -73Q355 -53 361 -35.5Q367 -18 380 -2Q363 -5 344 -6.5Q325 -8 303 -8Q196 -8 141.5 29Q87 66 87 138V665Q87 673 91 676.5Q95 680 102 680H144Q151 680 154.5 676.5Q158 673 158 665Z" glyph-name="Uogonek" horiz-adv-x="607" unicode="&#370;" /><glyph d="M303 887Q348 887 373 867Q398 847 398 812V795Q398 760 373 740Q348 720 303 720Q258 720 233 740Q208 760 208 795V812Q208 847 233 867Q258 887 303 887ZM303 758Q328 758 341.5 769Q355 780 355 800V807Q355 827 341.5 838Q328 849 303 849Q278 849 265 838.5Q252 828 252 807V800Q252 779 265 768.5Q278 758 303 758ZM158 665V149Q158 101 194.5 77Q231 53 303 53Q376 53 412.5 77Q449 101 449 149V665Q449 673 452.5 676.5Q456 680 464 680H506Q514 680 517 676.5Q520 673 520 665V138Q520 66 465.5 29Q411 -8 303 -8Q196 -8 141.5 29Q87 66 87 138V665Q87 673 91 676.5Q95 680 102 680H144Q151 680 154.5 676.5Q158 673 158 665Z" glyph-name="Uring" horiz-adv-x="606" unicode="&#366;" /><glyph d="M158 665V149Q158 101 194.5 77Q231 53 303 53Q376 53 412.5 77Q449 101 449 149V665Q449 673 452.5 676.5Q456 680 464 680H506Q514 680 517 676.5Q520 673 520 665V138Q520 66 465.5 29Q411 -8 303 -8Q196 -8 141.5 29Q87 66 87 138V665Q87 673 91 676.5Q95 680 102 680H144Q151 680 154.5 676.5Q158 673 158 665ZM370 804Q385 804 390.5 813.5Q396 823 396 852V860Q396 867 400 870Q404 873 412 873H434Q441 873 444 869Q447 865 447 856V833Q447 794 427 772.5Q407 751 373 751Q360 751 345.5 756Q331 761 319 769L274 801Q263 810 253 814.5Q243 819 237 819Q221 819 215.5 810Q210 801 210 771V763Q210 756 206.5 753Q203 750 195 750H172Q165 750 162 754Q159 758 159 767V790Q159 829 178.5 850.5Q198 872 232 872Q247 872 261.5 867.5Q276 863 288 854L332 822Q347 812 355.5 808Q364 804 370 804Z" glyph-name="Utilde" horiz-adv-x="606" unicode="&#360;" /><glyph d="M287 0H244Q237 0 232 3.5Q227 7 225 15L26 665Q24 672 26.5 676Q29 680 37 680H84Q91 680 94.5 676.5Q98 673 101 665L244 196Q249 181 255 151.5Q261 122 266 90Q268 107 275.5 139Q283 171 290 194L434 665Q437 673 440.5 676.5Q444 680 451 680H494Q502 680 504.5 676Q507 672 505 665L306 15Q304 7 299.5 3.5Q295 0 287 0Z" glyph-name="V" horiz-adv-x="531" unicode="V" /><glyph d="M448 665 567 195Q572 177 576.5 152.5Q581 128 583 115Q584 125 588.5 148Q593 171 599 195L719 665Q721 673 725 676.5Q729 680 737 680H774Q781 680 784 676.5Q787 673 785 665L621 15Q619 8 614.5 4Q610 0 602 0H560Q553 0 549 3.5Q545 7 543 15L421 493Q418 505 414 528Q410 551 408 564Q407 552 402.5 529Q398 506 394 492L273 15Q271 7 266.5 3.5Q262 0 254 0H212Q205 0 201 3.5Q197 7 195 15L30 665Q28 673 31 676.5Q34 680 42 680H85Q92 680 96 676.5Q100 673 102 665L221 195Q225 181 230 156Q235 131 237 121Q239 131 244 156Q249 181 253 195L374 665Q376 673 380 676.5Q384 680 391 680H431Q438 680 442 676.5Q446 673 448 665Z" glyph-name="W" horiz-adv-x="816" unicode="W" /><glyph d="M525 863 446 747Q443 742 438 740Q433 738 427 738H394Q387 738 385 741.5Q383 745 387 752L454 864Q459 872 463 875Q467 878 473 878H517Q525 878 527 873.5Q529 869 525 863ZM448 665 567 195Q572 177 576.5 152.5Q581 128 583 115Q584 125 588.5 148Q593 171 599 195L719 665Q721 673 725 676.5Q729 680 737 680H774Q781 680 784 676.5Q787 673 785 665L621 15Q619 8 614.5 4Q610 0 602 0H560Q553 0 549 3.5Q545 7 543 15L421 493Q418 505 414 528Q410 551 408 564Q407 552 402.5 529Q398 506 394 492L273 15Q271 7 266.5 3.5Q262 0 254 0H212Q205 0 201 3.5Q197 7 195 15L30 665Q28 673 31 676.5Q34 680 42 680H85Q92 680 96 676.5Q100 673 102 665L221 195Q225 181 230 156Q235 131 237 121Q239 131 244 156Q249 181 253 195L374 665Q376 673 380 676.5Q384 680 391 680H431Q438 680 442 676.5Q446 673 448 665Z" glyph-name="Wacute" horiz-adv-x="818" unicode="&#7810;" /><glyph d="M462 752 409 834 356 752Q351 744 346.5 741Q342 738 336 738H304Q296 738 294 742Q292 746 296 752L373 863Q378 871 384 874.5Q390 878 396 878H422Q429 878 434.5 874.5Q440 871 445 864L522 752Q526 746 524 742Q522 738 514 738H482Q476 738 471.5 741.5Q467 745 462 752ZM448 665 567 195Q572 177 576.5 152.5Q581 128 583 115Q584 125 588.5 148Q593 171 599 195L719 665Q721 673 725 676.5Q729 680 737 680H774Q781 680 784 676.5Q787 673 785 665L621 15Q619 8 614.5 4Q610 0 602 0H560Q553 0 549 3.5Q545 7 543 15L421 493Q418 505 414 528Q410 551 408 564Q407 552 402.5 529Q398 506 394 492L273 15Q271 7 266.5 3.5Q262 0 254 0H212Q205 0 201 3.5Q197 7 195 15L30 665Q28 673 31 676.5Q34 680 42 680H85Q92 680 96 676.5Q100 673 102 665L221 195Q225 181 230 156Q235 131 237 121Q239 131 244 156Q249 181 253 195L374 665Q376 673 380 676.5Q384 680 391 680H431Q438 680 442 676.5Q446 673 448 665Z" glyph-name="Wcircumflex" horiz-adv-x="816" unicode="&#372;" /><glyph d="M448 665 567 195Q572 177 576.5 152.5Q581 128 583 115Q584 125 588.5 148Q593 171 599 195L719 665Q721 673 725 676.5Q729 680 737 680H774Q781 680 784 676.5Q787 673 785 665L621 15Q619 8 614.5 4Q610 0 602 0H560Q553 0 549 3.5Q545 7 543 15L421 493Q418 505 414 528Q410 551 408 564Q407 552 402.5 529Q398 506 394 492L273 15Q271 7 266.5 3.5Q262 0 254 0H212Q205 0 201 3.5Q197 7 195 15L30 665Q28 673 31 676.5Q34 680 42 680H85Q92 680 96 676.5Q100 673 102 665L221 195Q225 181 230 156Q235 131 237 121Q239 131 244 156Q249 181 253 195L374 665Q376 673 380 676.5Q384 680 391 680H431Q438 680 442 676.5Q446 673 448 665ZM381 856V759Q381 750 378 747Q375 744 367 744H343Q335 744 331.5 747.5Q328 751 328 759V856Q328 864 331.5 867Q335 870 343 870H367Q375 870 378 867Q381 864 381 856ZM489 856V759Q489 751 485.5 747.5Q482 744 474 744H450Q442 744 438.5 747.5Q435 751 435 759V856Q435 864 438.5 867Q442 870 450 870H474Q482 870 485.5 867Q489 864 489 856Z" glyph-name="Wdieresis" horiz-adv-x="818" unicode="&#7812;" /><glyph d="M372 747 293 863Q288 870 290 874Q292 878 300 878H344Q350 878 354.5 875Q359 872 364 864L431 752Q435 745 433 741Q431 737 424 737H390Q384 737 379.5 739.5Q375 742 372 747ZM448 665 567 195Q572 177 576.5 152.5Q581 128 583 115Q584 125 588.5 148Q593 171 599 195L719 665Q721 673 725 676.5Q729 680 737 680H774Q781 680 784 676.5Q787 673 785 665L621 15Q619 8 614.5 4Q610 0 602 0H560Q553 0 549 3.5Q545 7 543 15L421 493Q418 505 414 528Q410 551 408 564Q407 552 402.5 529Q398 506 394 492L273 15Q271 7 266.5 3.5Q262 0 254 0H212Q205 0 201 3.5Q197 7 195 15L30 665Q28 673 31 676.5Q34 680 42 680H85Q92 680 96 676.5Q100 673 102 665L221 195Q225 181 230 156Q235 131 237 121Q239 131 244 156Q249 181 253 195L374 665Q376 673 380 676.5Q384 680 391 680H431Q438 680 442 676.5Q446 673 448 665Z" glyph-name="Wgrave" horiz-adv-x="818" unicode="&#7808;" /><glyph d="M491 665 305 345 501 15Q505 9 503 4.5Q501 0 493 0H443Q436 0 431 3.5Q426 7 421 15L262 283L109 15Q105 7 99.5 3.5Q94 0 87 0H41Q34 0 32 5Q30 10 34 17L225 347L38 664Q34 671 35.5 675.5Q37 680 44 680H94Q101 680 106 676.5Q111 673 116 665L270 406L417 665Q421 673 426.5 676.5Q432 680 438 680H484Q492 680 493.5 676Q495 672 491 665Z" glyph-name="X" horiz-adv-x="532" unicode="X" /><glyph d="M100 665 247 375Q250 370 254 359Q258 348 261 337Q264 346 268.5 356.5Q273 367 277 375L428 665Q433 674 437 677Q441 680 446 680H488Q496 680 499.5 676Q503 672 499 665L297 277V15Q297 7 293.5 3.5Q290 0 283 0H240Q233 0 229.5 3.5Q226 7 226 15V269L23 665Q19 672 22 676Q25 680 34 680H81Q87 680 91 677Q95 674 100 665Z" glyph-name="Y" horiz-adv-x="522" unicode="Y" /><glyph d="M100 665 247 375Q250 370 254 359Q258 348 261 337Q264 346 268.5 356.5Q273 367 277 375L428 665Q433 674 437 677Q441 680 446 680H488Q496 680 499.5 676Q503 672 499 665L297 277V15Q297 7 293.5 3.5Q290 0 283 0H240Q233 0 229.5 3.5Q226 7 226 15V269L23 665Q19 672 22 676Q25 680 34 680H81Q87 680 91 677Q95 674 100 665ZM379 863 300 747Q297 742 292 740Q287 738 281 738H248Q241 738 239 741.5Q237 745 241 752L308 864Q313 872 317 875Q321 878 327 878H371Q379 878 381 873.5Q383 869 379 863Z" glyph-name="Yacute" horiz-adv-x="522" unicode="&#221;" /><glyph d="M100 665 247 375Q250 370 254 359Q258 348 261 337Q264 346 268.5 356.5Q273 367 277 375L428 665Q433 674 437 677Q441 680 446 680H488Q496 680 499.5 676Q503 672 499 665L297 277V15Q297 7 293.5 3.5Q290 0 283 0H240Q233 0 229.5 3.5Q226 7 226 15V269L23 665Q19 672 22 676Q25 680 34 680H81Q87 680 91 677Q95 674 100 665ZM314 752 261 834 208 752Q203 744 198.5 741Q194 738 188 738H156Q148 738 146 742Q144 746 148 752L225 863Q230 871 236 874.5Q242 878 248 878H274Q281 878 286.5 874.5Q292 871 297 864L374 752Q378 746 376 742Q374 738 366 738H334Q328 738 323.5 741.5Q319 745 314 752Z" glyph-name="Ycircumflex" horiz-adv-x="522" unicode="&#374;" /><glyph d="M100 665 247 375Q250 370 254 359Q258 348 261 337Q264 346 268.5 356.5Q273 367 277 375L428 665Q433 674 437 677Q441 680 446 680H488Q496 680 499.5 676Q503 672 499 665L297 277V15Q297 7 293.5 3.5Q290 0 283 0H240Q233 0 229.5 3.5Q226 7 226 15V269L23 665Q19 672 22 676Q25 680 34 680H81Q87 680 91 677Q95 674 100 665ZM234 856V759Q234 750 231 747Q228 744 220 744H196Q188 744 184.5 747.5Q181 751 181 759V856Q181 864 184.5 867Q188 870 196 870H220Q228 870 231 867Q234 864 234 856ZM342 856V759Q342 751 338.5 747.5Q335 744 327 744H303Q295 744 291.5 747.5Q288 751 288 759V856Q288 864 291.5 867Q295 870 303 870H327Q335 870 338.5 867Q342 864 342 856Z" glyph-name="Ydieresis" horiz-adv-x="522" unicode="&#376;" /><glyph d="M100 665 247 375Q250 370 254 359Q258 348 261 337Q264 346 268.5 356.5Q273 367 277 375L428 665Q433 674 437 677Q441 680 446 680H488Q496 680 499.5 676Q503 672 499 665L297 277V15Q297 7 293.5 3.5Q290 0 283 0H240Q233 0 229.5 3.5Q226 7 226 15V269L23 665Q19 672 22 676Q25 680 34 680H81Q87 680 91 677Q95 674 100 665ZM226 747 147 863Q142 870 144 874Q146 878 154 878H198Q204 878 208.5 875Q213 872 218 864L285 752Q289 745 287 741Q285 737 278 737H244Q238 737 233.5 739.5Q229 742 226 747Z" glyph-name="Ygrave" horiz-adv-x="522" unicode="&#7922;" /><glyph d="M67 680H416Q425 680 428.5 676.5Q432 673 432 665V634Q432 631 431.5 628.5Q431 626 429 623L120 61H432Q440 61 443.5 57.5Q447 54 447 47V15Q447 7 443.5 3.5Q440 0 432 0H49Q41 0 38 3.5Q35 7 35 15V47Q35 50 35.5 52.5Q36 55 37 57L344 619H67Q59 619 55.5 622.5Q52 626 52 634V665Q52 673 55.5 676.5Q59 680 67 680Z" glyph-name="Z" horiz-adv-x="482" unicode="Z" /><glyph d="M67 680H416Q425 680 428.5 676.5Q432 673 432 665V634Q432 631 431.5 628.5Q431 626 429 623L120 61H432Q440 61 443.5 57.5Q447 54 447 47V15Q447 7 443.5 3.5Q440 0 432 0H49Q41 0 38 3.5Q35 7 35 15V47Q35 50 35.5 52.5Q36 55 37 57L344 619H67Q59 619 55.5 622.5Q52 626 52 634V665Q52 673 55.5 676.5Q59 680 67 680ZM351 863 272 747Q269 742 264 740Q259 738 253 738H220Q213 738 211 741.5Q209 745 213 752L280 864Q285 872 289 875Q293 878 299 878H343Q351 878 353 873.5Q355 869 351 863Z" glyph-name="Zacute" horiz-adv-x="477" unicode="&#377;" /><glyph d="M192 876 245 794 298 876Q303 884 308 887.5Q313 891 318 891H350Q357 891 359.5 886.5Q362 882 358 876L280 765Q275 757 269.5 754Q264 751 257 751H231Q224 751 218.5 754.5Q213 758 208 766L132 876Q128 882 130 886.5Q132 891 140 891H172Q177 891 182 887.5Q187 884 192 876ZM67 680H416Q425 680 428.5 676.5Q432 673 432 665V634Q432 631 431.5 628.5Q431 626 429 623L120 61H432Q440 61 443.5 57.5Q447 54 447 47V15Q447 7 443.5 3.5Q440 0 432 0H49Q41 0 38 3.5Q35 7 35 15V47Q35 50 35.5 52.5Q36 55 37 57L344 619H67Q59 619 55.5 622.5Q52 626 52 634V665Q52 673 55.5 676.5Q59 680 67 680Z" glyph-name="Zcaron" horiz-adv-x="477" unicode="&#381;" /><glyph d="M267 839V760Q267 752 264 749Q261 746 253 746H211Q204 746 200.5 749.5Q197 753 197 760V839Q197 847 200.5 850Q204 853 211 853H253Q261 853 264 850Q267 847 267 839ZM67 680H416Q425 680 428.5 676.5Q432 673 432 665V634Q432 631 431.5 628.5Q431 626 429 623L120 61H432Q440 61 443.5 57.5Q447 54 447 47V15Q447 7 443.5 3.5Q440 0 432 0H49Q41 0 38 3.5Q35 7 35 15V47Q35 50 35.5 52.5Q36 55 37 57L344 619H67Q59 619 55.5 622.5Q52 626 52 634V665Q52 673 55.5 676.5Q59 680 67 680Z" glyph-name="Zdotaccent" horiz-adv-x="477" unicode="&#379;" /><glyph d="M65 358V375Q65 439 110 470.5Q155 502 245 502Q336 502 380.5 471Q425 440 425 375V15Q425 7 421.5 3.5Q418 0 411 0H376Q368 0 364.5 3.5Q361 7 361 15L359 51Q323 22 281 7Q239 -8 194 -8Q129 -8 92 24Q55 56 55 110V160Q55 213 90 245.5Q125 278 185 278H357V368Q357 409 329.5 427Q302 445 244 445Q185 445 157.5 427Q130 409 130 370V358Q130 349 126.5 345.5Q123 342 115 342H79Q72 342 68.5 346Q65 350 65 358ZM210 50Q247 50 283.5 63.5Q320 77 357 106V223H199Q161 223 142 205Q123 187 123 151V119Q123 84 144.5 67Q166 50 210 50Z" glyph-name="a" horiz-adv-x="500" unicode="a" /><glyph d="M65 358V375Q65 439 110 470.5Q155 502 245 502Q336 502 380.5 471Q425 440 425 375V15Q425 7 421.5 3.5Q418 0 411 0H376Q368 0 364.5 3.5Q361 7 361 15L359 51Q323 22 281 7Q239 -8 194 -8Q129 -8 92 24Q55 56 55 110V160Q55 213 90 245.5Q125 278 185 278H357V368Q357 409 329.5 427Q302 445 244 445Q185 445 157.5 427Q130 409 130 370V358Q130 349 126.5 345.5Q123 342 115 342H79Q72 342 68.5 346Q65 350 65 358ZM210 50Q247 50 283.5 63.5Q320 77 357 106V223H199Q161 223 142 205Q123 187 123 151V119Q123 84 144.5 67Q166 50 210 50ZM349 693 270 577Q267 573 262.5 570.5Q258 568 252 568H219Q212 568 209.5 572Q207 576 211 582L278 694Q283 702 287.5 705Q292 708 298 708H342Q350 708 352 704Q354 700 349 693Z" glyph-name="aacute" horiz-adv-x="502" unicode="&#225;" /><glyph d="M65 358V375Q65 439 110 470.5Q155 502 245 502Q336 502 380.5 471Q425 440 425 375V15Q425 7 421.5 3.5Q418 0 411 0H376Q368 0 364.5 3.5Q361 7 361 15L359 51Q323 22 281 7Q239 -8 194 -8Q129 -8 92 24Q55 56 55 110V160Q55 213 90 245.5Q125 278 185 278H357V368Q357 409 329.5 427Q302 445 244 445Q185 445 157.5 427Q130 409 130 370V358Q130 349 126.5 345.5Q123 342 115 342H79Q72 342 68.5 346Q65 350 65 358ZM210 50Q247 50 283.5 63.5Q320 77 357 106V223H199Q161 223 142 205Q123 187 123 151V119Q123 84 144.5 67Q166 50 210 50ZM186 683V666Q186 630 202 614.5Q218 599 253 599Q288 599 304 614Q320 629 320 666V683Q320 691 323 693.5Q326 696 334 696H359Q366 696 369 693Q372 690 372 683V667Q372 610 342.5 582.5Q313 555 252 555Q192 555 163 582Q134 609 134 667V683Q134 690 137 693Q140 696 148 696H173Q180 696 183 693Q186 690 186 683Z" glyph-name="abreve" horiz-adv-x="502" unicode="&#259;" /><glyph d="M65 358V375Q65 439 110 470.5Q155 502 245 502Q336 502 380.5 471Q425 440 425 375V15Q425 7 421.5 3.5Q418 0 411 0H376Q368 0 364.5 3.5Q361 7 361 15L359 51Q323 22 281 7Q239 -8 194 -8Q129 -8 92 24Q55 56 55 110V160Q55 213 90 245.5Q125 278 185 278H357V368Q357 409 329.5 427Q302 445 244 445Q185 445 157.5 427Q130 409 130 370V358Q130 349 126.5 345.5Q123 342 115 342H79Q72 342 68.5 346Q65 350 65 358ZM210 50Q247 50 283.5 63.5Q320 77 357 106V223H199Q161 223 142 205Q123 187 123 151V119Q123 84 144.5 67Q166 50 210 50ZM296 582 243 664 190 582Q185 575 180 571.5Q175 568 170 568H138Q130 568 128 572Q126 576 130 582L206 693Q211 701 217 704.5Q223 708 229 708H255Q262 708 267.5 705Q273 702 278 694L356 582Q360 576 357.5 572Q355 568 348 568H316Q310 568 305.5 571.5Q301 575 296 582Z" glyph-name="acircumflex" horiz-adv-x="502" unicode="&#226;" /><glyph d="M236 693 157 577Q154 573 149.5 570.5Q145 568 139 568H106Q99 568 96.5 572Q94 576 98 582L165 694Q170 702 174.5 705Q179 708 185 708H229Q237 708 239 704Q241 700 236 693Z" glyph-name="acute" horiz-adv-x="331" unicode="&#180;" /><glyph d="M208 863 129 747Q126 742 121 740Q116 738 110 738H77Q70 738 68 741.5Q66 745 70 752L137 864Q142 872 146 875Q150 878 156 878H200Q208 878 210 873.5Q212 869 208 863Z" glyph-name="acute.case" horiz-adv-x="224" /><glyph d="M65 358V375Q65 439 110 470.5Q155 502 245 502Q336 502 380.5 471Q425 440 425 375V15Q425 7 421.5 3.5Q418 0 411 0H376Q368 0 364.5 3.5Q361 7 361 15L359 51Q323 22 281 7Q239 -8 194 -8Q129 -8 92 24Q55 56 55 110V160Q55 213 90 245.5Q125 278 185 278H357V368Q357 409 329.5 427Q302 445 244 445Q185 445 157.5 427Q130 409 130 370V358Q130 349 126.5 345.5Q123 342 115 342H79Q72 342 68.5 346Q65 350 65 358ZM210 50Q247 50 283.5 63.5Q320 77 357 106V223H199Q161 223 142 205Q123 187 123 151V119Q123 84 144.5 67Q166 50 210 50ZM221 688V591Q221 584 218 580.5Q215 577 207 577H182Q174 577 170.5 580.5Q167 584 167 591V688Q167 696 171 699.5Q175 703 182 703H207Q214 703 217.5 699.5Q221 696 221 688ZM328 688V591Q328 584 325 580.5Q322 577 314 577H289Q282 577 278.5 580.5Q275 584 275 591V688Q275 696 278.5 699.5Q282 703 289 703H314Q321 703 324.5 699.5Q328 696 328 688Z" glyph-name="adieresis" horiz-adv-x="502" unicode="&#228;" /><glyph d="M543 502Q635 502 680 470.5Q725 439 725 373V253Q725 246 721.5 242.5Q718 239 711 239H427V120Q427 81 455 63Q483 45 543 45Q602 45 630.5 64Q659 83 659 123V141Q659 149 663 152.5Q667 156 674 156H708Q716 156 719.5 152.5Q723 149 723 141V120Q723 54 678.5 23Q634 -8 543 -8Q473 -8 431.5 9Q390 26 374 61Q331 27 286.5 9.5Q242 -8 196 -8Q130 -8 93.5 23.5Q57 55 57 110V160Q57 213 92 245.5Q127 278 187 278H359V377Q359 414 331 432Q303 450 246 450Q187 450 159.5 432Q132 414 132 373V358Q132 350 128.5 346.5Q125 343 117 343H81Q73 343 70 346.5Q67 350 67 358V375Q67 440 111.5 471Q156 502 247 502Q304 502 340 488Q376 474 392 445Q411 473 449 487.5Q487 502 543 502ZM212 47Q247 47 281.5 61.5Q316 76 359 111V229H198Q163 229 144 210Q125 191 125 157V118Q125 84 147.5 65.5Q170 47 212 47ZM543 449Q484 449 455.5 430Q427 411 427 371V288H659V371Q659 411 630.5 430Q602 449 543 449Z" glyph-name="ae" horiz-adv-x="788" unicode="&#230;" /><glyph d="M504 693 425 577Q422 573 417.5 570.5Q413 568 407 568H374Q367 568 364.5 572Q362 576 366 582L433 694Q438 702 442.5 705Q447 708 453 708H497Q505 708 507 704Q509 700 504 693ZM543 502Q635 502 680 470.5Q725 439 725 373V253Q725 246 721.5 242.5Q718 239 711 239H427V120Q427 81 455 63Q483 45 543 45Q602 45 630.5 64Q659 83 659 123V141Q659 149 663 152.5Q667 156 674 156H708Q716 156 719.5 152.5Q723 149 723 141V120Q723 54 678.5 23Q634 -8 543 -8Q473 -8 431.5 9Q390 26 374 61Q331 27 286.5 9.5Q242 -8 196 -8Q130 -8 93.5 23.5Q57 55 57 110V160Q57 213 92 245.5Q127 278 187 278H359V377Q359 414 331 432Q303 450 246 450Q187 450 159.5 432Q132 414 132 373V358Q132 350 128.5 346.5Q125 343 117 343H81Q73 343 70 346.5Q67 350 67 358V375Q67 440 111.5 471Q156 502 247 502Q304 502 340 488Q376 474 392 445Q411 473 449 487.5Q487 502 543 502ZM212 47Q247 47 281.5 61.5Q316 76 359 111V229H198Q163 229 144 210Q125 191 125 157V118Q125 84 147.5 65.5Q170 47 212 47ZM543 449Q484 449 455.5 430Q427 411 427 371V288H659V371Q659 411 630.5 430Q602 449 543 449Z" glyph-name="aeacute" horiz-adv-x="784" unicode="&#509;" /><glyph d="M160 127V227Q137 215 114.5 205Q92 195 63 184Q55 181 51 182.5Q47 184 44 190L31 221Q28 229 29.5 233.5Q31 238 38 241Q39 242 41.5 243Q44 244 51 246Q88 261 113.5 273Q139 285 160 296V537Q160 609 201 646Q242 683 323 683Q401 683 440.5 646Q480 609 480 537Q480 464 419.5 396.5Q359 329 229 261V142Q229 98 256.5 78Q284 58 343 58H440Q448 58 451.5 54.5Q455 51 455 43V15Q455 7 452 3.5Q449 0 441 0H343Q251 0 205.5 31.5Q160 63 160 127ZM322 625Q274 625 251.5 602.5Q229 580 229 529V331Q320 380 367 431.5Q414 483 414 533Q414 581 391.5 603Q369 625 322 625Z" glyph-name="afii61289" horiz-adv-x="512" unicode="&#8467;" /><glyph d="M65 358V375Q65 439 110 470.5Q155 502 245 502Q336 502 380.5 471Q425 440 425 375V15Q425 7 421.5 3.5Q418 0 411 0H376Q368 0 364.5 3.5Q361 7 361 15L359 51Q323 22 281 7Q239 -8 194 -8Q129 -8 92 24Q55 56 55 110V160Q55 213 90 245.5Q125 278 185 278H357V368Q357 409 329.5 427Q302 445 244 445Q185 445 157.5 427Q130 409 130 370V358Q130 349 126.5 345.5Q123 342 115 342H79Q72 342 68.5 346Q65 350 65 358ZM210 50Q247 50 283.5 63.5Q320 77 357 106V223H199Q161 223 142 205Q123 187 123 151V119Q123 84 144.5 67Q166 50 210 50ZM215 577 136 693Q131 700 133 704Q135 708 143 708H187Q193 708 197.5 705Q202 702 207 694L274 582Q278 576 276 572Q274 568 267 568H233Q227 568 222.5 570.5Q218 573 215 577Z" glyph-name="agrave" horiz-adv-x="502" unicode="&#224;" /><glyph d="M65 358V375Q65 439 110 470.5Q155 502 245 502Q336 502 380.5 471Q425 440 425 375V15Q425 7 421.5 3.5Q418 0 411 0H376Q368 0 364.5 3.5Q361 7 361 15L359 51Q323 22 281 7Q239 -8 194 -8Q129 -8 92 24Q55 56 55 110V160Q55 213 90 245.5Q125 278 185 278H357V368Q357 409 329.5 427Q302 445 244 445Q185 445 157.5 427Q130 409 130 370V358Q130 349 126.5 345.5Q123 342 115 342H79Q72 342 68.5 346Q65 350 65 358ZM210 50Q247 50 283.5 63.5Q320 77 357 106V223H199Q161 223 142 205Q123 187 123 151V119Q123 84 144.5 67Q166 50 210 50ZM122 651H374Q382 651 385.5 647.5Q389 644 389 637V612Q389 604 385.5 600.5Q382 597 374 597H122Q114 597 111 600.5Q108 604 108 612V637Q108 645 111.5 648Q115 651 122 651Z" glyph-name="amacron" horiz-adv-x="502" unicode="&#257;" /><glyph d="M525 330V137Q525 66 467 29Q409 -8 297 -8Q184 -8 127 28Q70 64 70 135V245Q70 296 92 322.5Q114 349 162 361Q117 372 97 397.5Q77 423 77 472V545Q77 619 125.5 653.5Q174 688 274 688Q375 688 424 653Q473 618 473 543V521Q473 514 470 510.5Q467 507 459 507H418Q411 507 407.5 510.5Q404 514 404 521V534Q404 584 373 606.5Q342 629 275 629Q208 629 177.5 607Q147 585 147 534V482Q147 430 177 409.5Q207 389 277 389H599Q607 389 610.5 385.5Q614 382 614 374V344Q614 337 610.5 333.5Q607 330 599 330ZM297 51Q376 51 416 75Q456 99 456 146V330H270Q201 330 170.5 309Q140 288 140 237V146Q140 99 179.5 75Q219 51 297 51Z" glyph-name="ampersand" horiz-adv-x="649" unicode="&amp;" /><glyph d="M65 358V375Q65 439 110 470.5Q155 502 245 502Q336 502 380.5 471Q425 440 425 375V15Q425 7 421.5 3.5Q418 0 411 0H405Q378 0 361.5 -19Q345 -38 345 -64Q345 -84 359 -94.5Q373 -105 399 -105H414Q422 -105 425.5 -108.5Q429 -112 429 -119V-139Q429 -146 424.5 -150Q420 -154 411 -154H380Q340 -154 315 -132.5Q290 -111 290 -74Q290 -47 308.5 -21Q327 5 360 24L359 51Q323 22 281 7Q239 -8 194 -8Q129 -8 92 24Q55 56 55 110V160Q55 213 90 245.5Q125 278 185 278H357V368Q357 409 329.5 427Q302 445 244 445Q185 445 157.5 427Q130 409 130 370V358Q130 349 126.5 345.5Q123 342 115 342H79Q72 342 68.5 346Q65 350 65 358ZM210 50Q247 50 283.5 63.5Q320 77 357 106V223H199Q161 223 142 205Q123 187 123 151V119Q123 84 144.5 67Q166 50 210 50Z" glyph-name="aogonek" horiz-adv-x="500" unicode="&#261;" /><glyph d="M714 320Q732 320 743 306Q754 292 754 269Q754 236 731.5 218.5Q709 201 667 201V161L670 129Q651 123 646.5 122Q642 121 638 121Q633 121 630 123Q627 125 627 129V204L602 201V198Q602 160 584.5 139.5Q567 119 534 119Q515 119 504 128.5Q493 138 493 153Q493 171 509.5 184Q526 197 563 206V248Q555 225 543 212.5Q531 200 517 200Q503 200 496 207.5Q489 215 489 231V234Q479 217 466 209Q453 201 436 201Q423 201 415 209Q407 217 407 231V332L378 330V334Q378 344 381 349Q384 354 390 354H407L404 384Q423 390 427.5 391Q432 392 436 392Q441 392 444 390Q447 388 447 384V355H494V352Q494 341 491 336Q488 331 482 331H447V245Q447 237 450 233Q453 229 460 229Q470 229 479.5 237Q489 245 489 255V280L486 313Q505 319 509.5 320Q514 321 518 321Q523 321 526 318.5Q529 316 529 312V246Q529 238 530.5 234.5Q532 231 536 231Q543 231 552.5 248.5Q562 266 562 279L560 313Q579 319 583.5 320Q588 321 591 321Q596 321 599 318.5Q602 316 602 312V213L627 216V277L624 313Q643 319 647.5 320Q652 321 656 321Q661 321 664 318.5Q667 316 667 312V272Q675 295 687 307.5Q699 320 714 320ZM355 321Q369 321 376 313Q383 305 383 289V240L386 208Q367 202 362.5 201Q358 200 355 200Q350 200 347 202Q344 204 344 208V274Q344 283 342 286.5Q340 290 336 290Q329 290 319 272.5Q309 255 310 242L312 208Q293 202 288.5 201Q284 200 281 200Q276 200 273 202Q270 204 270 208V274Q270 283 268 286.5Q266 290 262 290Q255 290 245.5 272.5Q236 255 236 242L239 208Q220 202 215.5 201Q211 200 207 200Q202 200 199 202Q196 204 196 208V277L193 313Q212 319 216.5 320Q221 321 225 321Q230 321 233 318.5Q236 316 236 312V272Q242 292 254 306.5Q266 321 281 321Q295 321 302.5 313Q310 305 310 289V272Q316 294 328 307.5Q340 321 355 321ZM1217 257Q1217 262 1217 287.5Q1217 313 1216 332L1187 330V334Q1187 344 1190 349Q1193 354 1199 354H1216L1213 384Q1232 390 1236.5 391Q1241 392 1245 392Q1250 392 1253 390Q1256 388 1256 384V355H1303V352Q1303 341 1300 336Q1297 331 1291 331H1256V241Q1256 233 1260 229.5Q1264 226 1272 226Q1278 226 1285 227Q1292 228 1306 231Q1326 235 1336.5 236Q1347 237 1357 237Q1379 237 1399 230.5Q1419 224 1419 213Q1419 200 1410.5 192.5Q1402 185 1392 185Q1390 185 1387 186Q1384 187 1376 192Q1357 202 1344.5 205.5Q1332 209 1321 209Q1317 209 1312 208.5Q1307 208 1295 206Q1277 203 1266 202Q1255 201 1245 201Q1228 201 1223 210.5Q1218 220 1217 257ZM1410 529H72V537H1410ZM1410 0H72V8H1410ZM1045 321Q1059 321 1066.5 313Q1074 305 1074 289V240L1076 208Q1057 202 1052.5 201Q1048 200 1045 200Q1040 200 1037 202Q1034 204 1034 208V275Q1034 283 1032 286.5Q1030 290 1026 290Q1019 290 1009.5 272.5Q1000 255 1000 242L1003 208Q984 202 979.5 201Q975 200 971 200Q966 200 963 202Q960 204 960 208V277L957 313Q976 319 980.5 320Q985 321 989 321Q994 321 997 318.5Q1000 316 1000 312V272Q1009 296 1020 308.5Q1031 321 1045 321ZM178 290Q178 278 172 270Q166 262 153 258Q145 255 135 253.5Q125 252 109 252Q110 242 117 236Q124 230 135 230Q144 230 151.5 232Q159 234 167 239Q171 236 173 232Q175 228 175 223Q175 214 162.5 207Q150 200 128 200Q100 200 84 214.5Q68 229 68 253Q68 282 87 301.5Q106 321 137 321Q155 321 166.5 312Q178 303 178 290ZM877 290Q877 278 871 270Q865 262 852 258Q844 255 834 253.5Q824 252 808 252Q809 242 816 236Q823 230 834 230Q843 230 850.5 232Q858 234 866 239Q870 236 872 232Q874 228 874 223Q874 214 861.5 207Q849 200 827 200Q799 200 783 214.5Q767 229 767 253Q767 282 786 301.5Q805 321 836 321Q854 321 865.5 312Q877 303 877 290ZM1200 290Q1200 278 1194 270Q1188 262 1175 258Q1167 255 1157 253.5Q1147 252 1131 252Q1132 242 1139 236Q1146 230 1157 230Q1166 230 1173.5 232Q1181 234 1189 239Q1193 236 1195 232Q1197 228 1197 223Q1197 214 1184.5 207Q1172 200 1150 200Q1122 200 1106 214.5Q1090 229 1090 253Q1090 282 1109 301.5Q1128 321 1159 321Q1177 321 1188.5 312Q1200 303 1200 290ZM667 242V219Q690 222 701 235Q712 248 712 270Q712 279 708.5 284.5Q705 290 699 290Q687 290 677 272Q667 254 667 242ZM892 226Q892 236 899 243Q906 250 917 250Q928 250 935.5 243Q943 236 943 226Q943 216 935.5 209.5Q928 203 917 203Q906 203 899 209.5Q892 216 892 226ZM535 148Q547 148 554 159Q561 170 562 194Q543 190 532 181.5Q521 173 521 162Q521 155 525 151.5Q529 148 535 148ZM132 298Q123 298 116.5 288.5Q110 279 108 264Q124 264 134.5 269.5Q145 275 145 285Q145 291 141.5 294.5Q138 298 132 298ZM1154 298Q1145 298 1138.5 288.5Q1132 279 1130 264Q1146 264 1156.5 269.5Q1167 275 1167 285Q1167 291 1163.5 294.5Q1160 298 1154 298ZM831 298Q822 298 815.5 288.5Q809 279 807 264Q823 264 833.5 269.5Q844 275 844 285Q844 291 840.5 294.5Q837 298 831 298Z" glyph-name="apple" horiz-adv-x="1486" unicode="&#63743;" /><glyph d="M403 439 401 412Q398 370 380.5 348Q363 326 333 326Q321 326 306 330Q291 334 278 341L190 386Q181 391 171 394.5Q161 398 155 398Q140 398 134.5 391Q129 384 127 358L126 343Q125 336 121.5 333Q118 330 110 330H89Q82 330 78.5 334Q75 338 76 346L78 374Q81 415 99.5 437.5Q118 460 149 460Q159 460 172 456Q185 452 197 446L284 401Q298 394 308.5 390.5Q319 387 326 387Q340 387 345 393.5Q350 400 352 429L353 443Q354 450 357.5 453Q361 456 368 456H391Q398 456 401 452Q404 448 403 439ZM403 279 401 252Q398 210 380.5 188Q363 166 333 166Q321 166 306 170Q291 174 278 181L190 226Q181 231 171 234.5Q161 238 155 238Q140 238 134.5 231Q129 224 127 198L126 183Q125 176 121.5 173Q118 170 110 170H89Q82 170 78.5 174Q75 178 76 186L78 214Q81 255 99.5 277.5Q118 300 149 300Q159 300 172 296Q185 292 197 286L284 241Q298 234 308.5 230.5Q319 227 326 227Q340 227 345 233.5Q350 240 352 269L353 283Q354 290 357.5 293Q361 296 368 296H391Q398 296 401 292Q404 288 403 279Z" glyph-name="approxequal" horiz-adv-x="478" unicode="&#8776;" /><glyph d="M65 358V375Q65 439 110 470.5Q155 502 245 502Q336 502 380.5 471Q425 440 425 375V15Q425 7 421.5 3.5Q418 0 411 0H376Q368 0 364.5 3.5Q361 7 361 15L359 51Q323 22 281 7Q239 -8 194 -8Q129 -8 92 24Q55 56 55 110V160Q55 213 90 245.5Q125 278 185 278H357V368Q357 409 329.5 427Q302 445 244 445Q185 445 157.5 427Q130 409 130 370V358Q130 349 126.5 345.5Q123 342 115 342H79Q72 342 68.5 346Q65 350 65 358ZM210 50Q247 50 283.5 63.5Q320 77 357 106V223H199Q161 223 142 205Q123 187 123 151V119Q123 84 144.5 67Q166 50 210 50ZM250 720Q295 720 319 701.5Q343 683 343 649V624Q343 590 319 572Q295 554 250 554Q206 554 182 572Q158 590 158 624V649Q158 683 182 701.5Q206 720 250 720ZM250 590Q275 590 288.5 600.5Q302 611 302 631V642Q302 662 288.5 672.5Q275 683 250 683Q224 683 211 672.5Q198 662 198 642V631Q198 611 211 600.5Q224 590 250 590Z" glyph-name="aring" horiz-adv-x="502" unicode="&#229;" /><glyph d="M245 554Q201 554 177 572Q153 590 153 624V649Q153 680 172.5 698Q192 716 229 719L283 810Q288 818 292.5 821Q297 824 303 824H347Q355 824 357 819.5Q359 815 354 809L289 714Q313 706 325.5 689.5Q338 673 338 649V624Q338 590 314 572Q290 554 245 554ZM245 590Q270 590 283.5 600.5Q297 611 297 631V642Q297 662 283.5 672.5Q270 683 245 683Q219 683 206 672.5Q193 662 193 642V631Q193 611 206 600.5Q219 590 245 590ZM210 50Q247 50 283.5 63.5Q320 77 357 106V223H199Q161 223 142 205Q123 187 123 151V119Q123 84 144.5 67Q166 50 210 50ZM65 358V375Q65 439 110 470.5Q155 502 245 502Q336 502 380.5 471Q425 440 425 375V15Q425 7 421.5 3.5Q418 0 411 0H376Q369 0 365.5 3Q362 6 361 15L359 51Q323 22 281 7Q239 -8 194 -8Q129 -8 92 24Q55 56 55 110V160Q55 213 90 245.5Q125 278 185 278H357V368Q357 409 329.5 427Q302 445 244 445Q185 445 157.5 427Q130 409 130 370V358Q130 349 126.5 345.5Q123 342 115 342H79Q72 342 68.5 346Q65 350 65 358Z" glyph-name="aringacute" horiz-adv-x="500" unicode="&#507;" /><glyph d="M374 314 244 610 116 314Q111 303 108 300.5Q105 298 100 298H59Q51 298 47.5 302.5Q44 307 47 314L205 666Q209 675 212.5 677.5Q216 680 222 680H267Q272 680 275.5 677.5Q279 675 283 666L443 314Q446 307 442 302.5Q438 298 430 298H390Q385 298 382 300Q379 302 374 314Z" glyph-name="asciicircum" horiz-adv-x="490" unicode="^" /><glyph d="M402 324 400 297Q397 255 379.5 233Q362 211 332 211Q320 211 305 215Q290 219 277 226L189 271Q180 276 170 279.5Q160 283 154 283Q139 283 133.5 276Q128 269 126 243L125 228Q124 221 120.5 218Q117 215 109 215H88Q81 215 77.5 219Q74 223 75 231L77 259Q80 300 98.5 322.5Q117 345 148 345Q158 345 171 341Q184 337 196 331L283 286Q297 279 307.5 275.5Q318 272 325 272Q339 272 344 278.5Q349 285 351 314L352 328Q353 335 356.5 338Q360 341 367 341H390Q397 341 400 337Q403 333 402 324Z" glyph-name="asciitilde" horiz-adv-x="475" unicode="~" /><glyph d="M238 350H216Q209 350 205.5 353.5Q202 357 202 365L207 494L95 422Q88 418 83.5 419.5Q79 421 75 428L65 446Q61 453 62.5 457.5Q64 462 71 466L183 527L71 590Q64 594 62.5 598Q61 602 65 609L75 629Q78 636 83 637Q88 638 95 634L207 562L202 695Q202 703 205.5 706.5Q209 710 217 710H238Q246 710 249 706.5Q252 703 252 695L247 562L358 634Q365 638 370 637Q375 636 378 629L388 609Q391 602 390 598Q389 594 382 590L269 527L382 466Q389 462 390.5 457.5Q392 453 388 446L378 427Q374 420 369.5 419Q365 418 358 422L247 493L252 365Q252 357 249 353.5Q246 350 238 350Z" glyph-name="asterisk" horiz-adv-x="454" unicode="*" /><glyph d="M593 -122H410Q239 -122 156.5 -79.5Q74 -37 74 55V449Q74 541 156.5 582.5Q239 624 410 624Q581 624 663.5 582Q746 540 746 449V165Q746 99 713 66Q680 33 615 33Q571 33 542.5 49Q514 65 503 97Q466 66 425 49.5Q384 33 342 33Q279 33 249.5 65.5Q220 98 226 161L243 330Q250 395 283.5 426.5Q317 458 379 458Q413 458 447.5 444.5Q482 431 521 402L525 436Q526 444 530 447Q534 450 542 450H577Q584 450 587 447Q590 444 589 436L563 177Q559 132 573 109Q587 86 619 86Q649 86 663.5 107Q678 128 678 173V446Q678 510 613.5 538.5Q549 567 410 567Q271 567 206 538.5Q141 510 141 446V57Q141 -7 206 -35.5Q271 -64 410 -64H593Q601 -64 604.5 -67.5Q608 -71 608 -78V-107Q608 -115 604.5 -118.5Q601 -122 593 -122ZM397 396Q356 396 335 378Q314 360 309 318L294 171Q290 133 308.5 115.5Q327 98 369 98Q396 98 426.5 109Q457 120 494 145Q494 146 494 151Q494 156 494 160L513 345Q478 374 451.5 385Q425 396 397 396Z" glyph-name="at" horiz-adv-x="820" unicode="@" /><glyph d="M65 358V375Q65 439 110 470.5Q155 502 245 502Q336 502 380.5 471Q425 440 425 375V15Q425 7 421.5 3.5Q418 0 411 0H376Q368 0 364.5 3.5Q361 7 361 15L359 51Q323 22 281 7Q239 -8 194 -8Q129 -8 92 24Q55 56 55 110V160Q55 213 90 245.5Q125 278 185 278H357V368Q357 409 329.5 427Q302 445 244 445Q185 445 157.5 427Q130 409 130 370V358Q130 349 126.5 345.5Q123 342 115 342H79Q72 342 68.5 346Q65 350 65 358ZM210 50Q247 50 283.5 63.5Q320 77 357 106V223H199Q161 223 142 205Q123 187 123 151V119Q123 84 144.5 67Q166 50 210 50ZM315 575Q302 575 287 580Q272 585 260 593L215 625Q204 634 194 638.5Q184 643 178 643Q162 643 156.5 634Q151 625 151 596V588Q151 580 147.5 577Q144 574 136 574H113Q106 574 103 578Q100 582 100 591V615Q100 654 120 675.5Q140 697 174 697Q187 697 201.5 692Q216 687 229 678L273 646Q285 637 294.5 632.5Q304 628 311 628Q326 628 331.5 637Q337 646 337 676V684Q337 691 341 694Q345 697 353 697H375Q382 697 385 693Q388 689 388 681V656Q388 617 368.5 596Q349 575 315 575Z" glyph-name="atilde" horiz-adv-x="502" unicode="&#227;" /><glyph d="M129 0H92Q85 0 81.5 3.5Q78 7 78 15V684Q78 692 81.5 695.5Q85 699 92 699H133Q140 699 143.5 695.5Q147 692 147 684V443Q187 473 228.5 487.5Q270 502 316 502Q383 502 419 469Q455 436 455 374V120Q455 58 419 25Q383 -8 316 -8Q269 -8 226 7Q183 22 145 52L143 15Q143 7 139.5 3.5Q136 0 129 0ZM297 55Q340 55 362.5 74.5Q385 94 385 130V364Q385 400 362.5 419.5Q340 439 297 439Q257 439 219.5 424.5Q182 410 147 382V111Q184 82 221.5 68.5Q259 55 297 55Z" glyph-name="b" horiz-adv-x="524" unicode="b" /><glyph d="M249 -133 33 684Q31 691 34 695Q37 699 44 699H89Q97 699 101 695.5Q105 692 107 684L322 -133Q324 -140 321 -144Q318 -148 312 -148H266Q259 -148 255 -144.5Q251 -141 249 -133Z" glyph-name="backslash" horiz-adv-x="355" unicode="\" /><glyph d="M150 684V-196Q150 -204 146.5 -207.5Q143 -211 136 -211H93Q86 -211 82.5 -207.5Q79 -204 79 -196V684Q79 692 82.5 695.5Q86 699 93 699H136Q143 699 146.5 695.5Q150 692 150 684Z" glyph-name="bar" horiz-adv-x="228" unicode="|" /><glyph d="M138 355V579Q138 643 185 675.5Q232 708 325 708H331Q339 708 342.5 704.5Q346 701 346 693V664Q346 656 342.5 652.5Q339 649 331 649H325Q265 649 237 630.5Q209 612 209 572V348Q209 308 189 283.5Q169 259 128 249Q169 239 189 214Q209 189 209 149V-82Q209 -122 237 -140.5Q265 -159 325 -159H331Q339 -159 342.5 -162.5Q346 -166 346 -174V-203Q346 -211 342.5 -214.5Q339 -218 331 -218H325Q232 -218 185 -185.5Q138 -153 138 -89V143Q138 182 111.5 200.5Q85 219 30 219H29Q21 219 17.5 222.5Q14 226 14 234V263Q14 271 17.5 274.5Q21 278 29 278H30Q85 278 111.5 296.5Q138 315 138 355Z" glyph-name="braceleft" horiz-adv-x="374" unicode="{" /><glyph d="M236 579V355Q236 315 262.5 296.5Q289 278 344 278H345Q353 278 356 274.5Q359 271 359 263V234Q359 226 356 222.5Q353 219 345 219H344Q289 219 262.5 200.5Q236 182 236 143V-89Q236 -153 189 -185.5Q142 -218 49 -218H43Q35 -218 31.5 -214.5Q28 -211 28 -203V-174Q28 -166 31.5 -162.5Q35 -159 43 -159H49Q108 -159 136 -140.5Q164 -122 164 -82V149Q164 189 184.5 214Q205 239 246 249Q205 259 184.5 283.5Q164 308 164 348V572Q164 612 136 630.5Q108 649 49 649H43Q35 649 31.5 652.5Q28 656 28 664V693Q28 701 31.5 704.5Q35 708 43 708H49Q142 708 189 675.5Q236 643 236 579Z" glyph-name="braceright" horiz-adv-x="374" unicode="}" /><glyph d="M79 -196V684Q79 692 82.5 695.5Q86 699 93 699H280Q288 699 291 695.5Q294 692 294 684V653Q294 645 291 641.5Q288 638 280 638H150V-150H280Q288 -150 291 -153.5Q294 -157 294 -165V-196Q294 -204 291 -207.5Q288 -211 280 -211H93Q86 -211 82.5 -207.5Q79 -204 79 -196Z" glyph-name="bracketleft" horiz-adv-x="322" unicode="[" /><glyph d="M242 684V-196Q242 -204 239 -207.5Q236 -211 228 -211H42Q34 -211 30.5 -207.5Q27 -204 27 -196V-165Q27 -157 30.5 -153.5Q34 -150 42 -150H171V638H42Q34 638 30.5 641.5Q27 645 27 653V684Q27 692 30.5 695.5Q34 699 42 699H228Q236 699 239 695.5Q242 692 242 684Z" glyph-name="bracketright" horiz-adv-x="321" unicode="]" /><glyph d="M132 683V666Q132 630 148 614.5Q164 599 199 599Q234 599 250 614Q266 629 266 666V683Q266 691 269 693.5Q272 696 280 696H305Q312 696 315 693Q318 690 318 683V667Q318 610 288.5 582.5Q259 555 198 555Q138 555 109 582Q80 609 80 667V683Q80 690 83 693Q86 696 94 696H119Q126 696 129 693Q132 690 132 683Z" glyph-name="breve" horiz-adv-x="399" unicode="&#728;" /><glyph d="M45 866V849Q45 813 61 797.5Q77 782 112 782Q147 782 163 797Q179 812 179 849V866Q179 874 182 876.5Q185 879 193 879H218Q225 879 228 876Q231 873 231 866V850Q231 793 201.5 765.5Q172 738 111 738Q51 738 22 765Q-7 792 -7 850V866Q-7 873 -4 876Q-1 879 6 879H32Q39 879 42 876Q45 873 45 866Z" glyph-name="breve.case" horiz-adv-x="224" /><glyph d="M153 665V329Q153 321 149.5 317.5Q146 314 139 314H99Q91 314 87.5 317.5Q84 321 84 329V665Q84 673 87.5 676.5Q91 680 99 680H139Q146 680 149.5 676.5Q153 673 153 665ZM153 140V-196Q153 -204 149.5 -207.5Q146 -211 139 -211H99Q91 -211 87.5 -207.5Q84 -204 84 -196V140Q84 148 87.5 151.5Q91 155 99 155H139Q146 155 149.5 151.5Q153 148 153 140Z" glyph-name="brokenbar" horiz-adv-x="237" unicode="&#166;" /><glyph d="M166 327V198Q166 190 163 186.5Q160 183 152 183H111Q103 183 99.5 186.5Q96 190 96 198V327Q96 335 99.5 338.5Q103 342 111 342H152Q160 342 163 338.5Q166 335 166 327Z" glyph-name="bullet" horiz-adv-x="262" unicode="&#8226;" /><glyph d="M251 502Q343 502 387.5 470.5Q432 439 432 373V354Q432 346 428.5 342.5Q425 339 418 339H381Q373 339 369.5 342.5Q366 346 366 354V369Q366 409 338.5 427Q311 445 251 445Q193 445 165.5 427Q138 409 138 369V126Q138 85 165 67Q192 49 251 49Q311 49 338.5 67Q366 85 366 126V148Q366 156 369.5 159.5Q373 163 381 163H418Q426 163 429 159.5Q432 156 432 148V121Q432 55 387 23.5Q342 -8 250 -8Q158 -8 113.5 23.5Q69 55 69 121V373Q69 439 114 470.5Q159 502 251 502Z" glyph-name="c" horiz-adv-x="481" unicode="c" /><glyph d="M355 693 276 577Q273 573 268.5 570.5Q264 568 258 568H225Q218 568 215.5 572Q213 576 217 582L284 694Q289 702 293.5 705Q298 708 304 708H348Q356 708 358 704Q360 700 355 693ZM251 502Q343 502 387.5 470.5Q432 439 432 373V354Q432 346 428.5 342.5Q425 339 418 339H381Q373 339 369.5 342.5Q366 346 366 354V369Q366 409 338.5 427Q311 445 251 445Q193 445 165.5 427Q138 409 138 369V126Q138 85 165 67Q192 49 251 49Q311 49 338.5 67Q366 85 366 126V148Q366 156 369.5 159.5Q373 163 381 163H418Q426 163 429 159.5Q432 156 432 148V121Q432 55 387 23.5Q342 -8 250 -8Q158 -8 113.5 23.5Q69 55 69 121V373Q69 439 114 470.5Q159 502 251 502Z" glyph-name="cacute" horiz-adv-x="482" unicode="&#263;" /><glyph d="M120 693 173 611 226 693Q231 701 236 704.5Q241 708 246 708H278Q285 708 287.5 703.5Q290 699 286 693L208 582Q203 574 197.5 571Q192 568 185 568H159Q152 568 146.5 571.5Q141 575 136 583L60 693Q56 699 58 703.5Q60 708 68 708H100Q105 708 110 704.5Q115 701 120 693Z" glyph-name="caron" horiz-adv-x="347" unicode="&#711;" /><glyph d="M59 863 112 781 165 863Q170 871 175 874.5Q180 878 185 878H217Q225 878 227 873.5Q229 869 225 863L148 752Q143 745 137.5 741.5Q132 738 125 738H99Q93 738 87.5 741.5Q82 745 76 753L-1 863Q-5 869 -3 873.5Q-1 878 7 878H39Q44 878 48.5 875Q53 872 59 863Z" glyph-name="caron.case" horiz-adv-x="224" /><glyph d="M197 693 250 611 303 693Q308 701 313 704.5Q318 708 323 708H355Q362 708 364.5 703.5Q367 699 363 693L285 582Q280 574 274.5 571Q269 568 262 568H236Q229 568 223.5 571.5Q218 575 213 583L137 693Q133 699 135 703.5Q137 708 145 708H177Q182 708 187 704.5Q192 701 197 693ZM251 502Q343 502 387.5 470.5Q432 439 432 373V354Q432 346 428.5 342.5Q425 339 418 339H381Q373 339 369.5 342.5Q366 346 366 354V369Q366 409 338.5 427Q311 445 251 445Q193 445 165.5 427Q138 409 138 369V126Q138 85 165 67Q192 49 251 49Q311 49 338.5 67Q366 85 366 126V148Q366 156 369.5 159.5Q373 163 381 163H418Q426 163 429 159.5Q432 156 432 148V121Q432 55 387 23.5Q342 -8 250 -8Q158 -8 113.5 23.5Q69 55 69 121V373Q69 439 114 470.5Q159 502 251 502Z" glyph-name="ccaron" horiz-adv-x="482" unicode="&#269;" /><glyph d="M353 -132Q353 -169 330.5 -190Q308 -211 270 -211H154Q146 -211 142.5 -207.5Q139 -204 139 -196V-181Q139 -174 142.5 -170.5Q146 -167 154 -167H260Q281 -167 291.5 -158Q302 -149 302 -132Q302 -114 292 -105.5Q282 -97 260 -97H198Q186 -97 181.5 -92.5Q177 -88 179 -78L198 -5Q133 3 101 34Q69 65 69 121V373Q69 439 114 470.5Q159 502 251 502Q343 502 387.5 470.5Q432 439 432 373V354Q432 346 428.5 342.5Q425 339 418 339H381Q373 339 369.5 342.5Q366 346 366 354V369Q366 409 338.5 427Q311 445 251 445Q193 445 165.5 427Q138 409 138 369V126Q138 85 165 67Q192 49 251 49Q311 49 338.5 67Q366 85 366 126V148Q366 156 369.5 159.5Q373 163 381 163H418Q426 163 429 159.5Q432 156 432 148V121Q432 55 387 23.5Q342 -8 250 -8H246L233 -53H270Q308 -53 330.5 -74Q353 -95 353 -132Z" glyph-name="ccedilla" horiz-adv-x="482" unicode="&#231;" /><glyph d="M303 582 250 664 197 582Q192 575 187 571.5Q182 568 177 568H145Q137 568 135 572Q133 576 137 582L213 693Q218 701 224 704.5Q230 708 236 708H262Q269 708 274.5 705Q280 702 285 694L363 582Q367 576 364.5 572Q362 568 355 568H323Q317 568 312.5 571.5Q308 575 303 582ZM251 502Q343 502 387.5 470.5Q432 439 432 373V354Q432 346 428.5 342.5Q425 339 418 339H381Q373 339 369.5 342.5Q366 346 366 354V369Q366 409 338.5 427Q311 445 251 445Q193 445 165.5 427Q138 409 138 369V126Q138 85 165 67Q192 49 251 49Q311 49 338.5 67Q366 85 366 126V148Q366 156 369.5 159.5Q373 163 381 163H418Q426 163 429 159.5Q432 156 432 148V121Q432 55 387 23.5Q342 -8 250 -8Q158 -8 113.5 23.5Q69 55 69 121V373Q69 439 114 470.5Q159 502 251 502Z" glyph-name="ccircumflex" horiz-adv-x="482" unicode="&#265;" /><glyph d="M251 502Q343 502 387.5 470.5Q432 439 432 373V354Q432 346 428.5 342.5Q425 339 418 339H381Q373 339 369.5 342.5Q366 346 366 354V369Q366 409 338.5 427Q311 445 251 445Q193 445 165.5 427Q138 409 138 369V126Q138 85 165 67Q192 49 251 49Q311 49 338.5 67Q366 85 366 126V148Q366 156 369.5 159.5Q373 163 381 163H418Q426 163 429 159.5Q432 156 432 148V121Q432 55 387 23.5Q342 -8 250 -8Q158 -8 113.5 23.5Q69 55 69 121V373Q69 439 114 470.5Q159 502 251 502ZM285 675V598Q285 590 282 586.5Q279 583 271 583H229Q221 583 218 586.5Q215 590 215 598V675Q215 683 218 686.5Q221 690 229 690H271Q279 690 282 686.5Q285 683 285 675Z" glyph-name="cdotaccent" horiz-adv-x="482" unicode="&#267;" /><glyph d="M105 -3 91 -53H128Q166 -53 188.5 -74Q211 -95 211 -132Q211 -169 188.5 -190Q166 -211 128 -211H12Q4 -211 0.5 -207.5Q-3 -204 -3 -196V-181Q-3 -174 0.5 -170.5Q4 -167 12 -167H118Q139 -167 149.5 -158Q160 -149 160 -132Q160 -114 150 -105.5Q140 -97 118 -97H56Q44 -97 39 -92.5Q34 -88 37 -78L59 5Q61 12 65.5 15.5Q70 19 76 18L95 15Q102 14 104.5 9.5Q107 5 105 -3Z" glyph-name="cedilla" horiz-adv-x="185" unicode="&#184;" /><glyph d="M283 86V15Q283 7 279.5 3.5Q276 0 269 0H228Q220 0 216.5 3.5Q213 7 213 15V86Q140 92 104.5 123.5Q69 155 69 214V466Q69 524 104.5 555.5Q140 587 213 593V665Q213 673 216.5 676.5Q220 680 228 680H269Q276 680 279.5 676.5Q283 673 283 665V594Q359 589 395.5 557.5Q432 526 432 466V447Q432 439 428.5 435.5Q425 432 418 432H381Q373 432 369.5 435.5Q366 439 366 447V462Q366 502 338.5 520Q311 538 251 538Q193 538 165.5 520Q138 502 138 462V219Q138 178 165 160Q192 142 251 142Q311 142 338.5 160Q366 178 366 219V241Q366 249 369.5 252.5Q373 256 381 256H418Q426 256 429 252.5Q432 249 432 241V214Q432 155 395 123Q358 91 283 86Z" glyph-name="cent" horiz-adv-x="492" unicode="&#162;" /><glyph d="M179 47V11Q179 5 177 2.5Q175 0 169 0H136Q130 0 127.5 2.5Q125 5 125 11V47Q83 51 62.5 69.5Q42 88 42 121V253Q42 286 62.5 304.5Q83 323 125 328V364Q125 370 127.5 372.5Q130 375 136 375H169Q174 375 176.5 372.5Q179 370 179 364V328Q220 323 240.5 304.5Q261 286 261 253V244Q261 238 259 235.5Q257 233 251 233H219Q213 233 210.5 235.5Q208 238 208 243V249Q208 268 195 276.5Q182 285 153 285Q124 285 110.5 276.5Q97 268 97 249V126Q97 107 110.5 98.5Q124 90 153 90Q182 90 195 98.5Q208 107 208 126V137Q208 142 210.5 144.5Q213 147 219 147H251Q256 147 258.5 144.5Q261 142 261 137V121Q261 88 241 70Q221 52 179 47Z" glyph-name="cent.denominator" horiz-adv-x="299" unicode="&#63017;" /><glyph d="M179 353V317Q179 311 177 308.5Q175 306 169 306H136Q130 306 127.5 308.5Q125 311 125 317V353Q83 357 62.5 375.5Q42 394 42 427V559Q42 592 62.5 610.5Q83 629 125 634V670Q125 676 127.5 678.5Q130 681 136 681H169Q174 681 176.5 678.5Q179 676 179 670V634Q220 629 240.5 610.5Q261 592 261 559V550Q261 544 259 541.5Q257 539 251 539H219Q213 539 210.5 541.5Q208 544 208 549V555Q208 574 195 582.5Q182 591 153 591Q124 591 110.5 582.5Q97 574 97 555V432Q97 413 110.5 404.5Q124 396 153 396Q182 396 195 404.5Q208 413 208 432V443Q208 448 210.5 450.5Q213 453 219 453H251Q256 453 258.5 450.5Q261 448 261 443V427Q261 394 241 376Q221 358 179 353Z" glyph-name="cent.numerator" horiz-adv-x="299" unicode="&#63022;" /><glyph d="M226 582 173 664 120 582Q115 575 110 571.5Q105 568 100 568H68Q60 568 58 572Q56 576 60 582L136 693Q141 701 147 704.5Q153 708 159 708H185Q192 708 197.5 705Q203 702 208 694L286 582Q290 576 287.5 572Q285 568 278 568H246Q240 568 235.5 571.5Q231 575 226 582Z" glyph-name="circumflex" horiz-adv-x="347" unicode="&#710;" /><glyph d="M165 752 112 834 59 752Q54 744 49.5 741Q45 738 39 738H7Q-1 738 -3 742Q-5 746 -1 752L76 863Q81 871 87 874.5Q93 878 99 878H125Q132 878 137.5 874.5Q143 871 148 864L225 752Q229 746 227 742Q225 738 217 738H185Q179 738 174.5 741.5Q170 745 165 752Z" glyph-name="circumflex.case" horiz-adv-x="224" /><glyph d="M144 93V15Q144 7 141 3.5Q138 0 130 0H89Q81 0 77.5 3.5Q74 7 74 15V93Q74 101 78 104.5Q82 108 89 108H130Q137 108 140.5 104.5Q144 101 144 93ZM144 479V400Q144 393 141 389.5Q138 386 130 386H89Q81 386 77.5 389.5Q74 393 74 400V479Q74 487 78 490.5Q82 494 89 494H130Q137 494 140.5 490.5Q144 487 144 479Z" glyph-name="colon" horiz-adv-x="218" unicode=":" /><glyph d="M21 -36Q47 -25 58.5 -9.5Q70 6 70 32V93Q70 101 73.5 104.5Q77 108 84 108H127Q134 108 137.5 104.5Q141 101 141 93V29Q141 -17 115.5 -47.5Q90 -78 40 -93Q33 -95 28.5 -93Q24 -91 22 -84L12 -55Q9 -48 11 -43.5Q13 -39 21 -36Z" glyph-name="comma" horiz-adv-x="210" unicode="," /><glyph d="M25 -14Q39 -10 45.5 -2Q52 6 52 20V55Q52 60 54.5 62.5Q57 65 62 65H97Q103 65 105.5 62.5Q108 60 108 55V16Q108 -12 90.5 -30.5Q73 -49 40 -57Q34 -58 31 -56.5Q28 -55 26 -50L17 -28Q15 -23 17 -19.5Q19 -16 25 -14Z" glyph-name="comma.denominator" horiz-adv-x="156" unicode="&#63071;" /><glyph d="M33 292Q47 296 53.5 304Q60 312 60 326V361Q60 366 62.5 368.5Q65 371 70 371H105Q111 371 113.5 368.5Q116 366 116 361V322Q116 294 98.5 275.5Q81 257 48 249Q42 248 39 249.5Q36 251 34 256L25 278Q23 283 25 286.5Q27 290 33 292Z" glyph-name="comma.numerator" horiz-adv-x="169" unicode="&#63083;" /><glyph d="M76 -38Q100 14 102.5 29Q105 44 105 65V93Q105 101 108.5 104.5Q112 108 120 108H150Q158 108 161.5 104.5Q165 101 165 93V62Q165 35 155.5 6Q146 -23 126 -56Q122 -62 118 -64Q114 -66 107 -64L83 -58Q76 -56 74.5 -50.5Q73 -45 76 -38Z" glyph-name="commaaccent" horiz-adv-x="270" unicode="&#63171;" /><glyph d="M347 688Q487 688 553.5 646Q620 604 620 509V171Q620 76 553.5 34Q487 -8 347 -8Q207 -8 140.5 34Q74 76 74 171V509Q74 604 140.5 646Q207 688 347 688ZM347 39Q459 39 513.5 69.5Q568 100 568 163V518Q568 581 513 611.5Q458 642 347 642Q235 642 180.5 611.5Q126 581 126 517V163Q126 99 180.5 69Q235 39 347 39ZM347 550Q423 550 457 521.5Q491 493 491 425V410Q491 402 488 398.5Q485 395 477 395H444Q436 395 432.5 398.5Q429 402 429 410V424Q429 467 410 483.5Q391 500 347 500Q303 500 284.5 483.5Q266 467 266 424V256Q266 212 284.5 195.5Q303 179 347 179Q391 179 410 195.5Q429 212 429 256V277Q429 286 432.5 289.5Q436 293 444 293H477Q484 293 487.5 289Q491 285 491 277V254Q491 186 457 157.5Q423 129 347 129Q271 129 237 157.5Q203 186 203 254V425Q203 493 237 521.5Q271 550 347 550Z" glyph-name="copyright" horiz-adv-x="694" unicode="&#169;" /><glyph d="M315 215Q372 215 400 233.5Q428 252 428 290V390Q428 429 400.5 447Q373 465 315 465Q258 465 230 446.5Q202 428 202 390V290Q202 252 230 233.5Q258 215 315 215ZM198 187 105 94Q99 88 94 88Q89 88 84 93L68 109Q62 115 62 119.5Q62 124 68 130L159 221Q150 234 145.5 250.5Q141 267 141 286V394Q141 413 145.5 429.5Q150 446 159 460L69 550Q63 556 63 560.5Q63 565 69 571L85 587Q91 593 95.5 593Q100 593 106 587L200 493Q221 504 250 509.5Q279 515 315 515Q352 515 381 509.5Q410 504 431 493L525 587Q531 593 535.5 593Q540 593 546 587L562 571Q568 565 568 560.5Q568 556 562 550L471 459Q480 446 485 429.5Q490 413 490 394V286Q490 267 485.5 250.5Q481 234 471 220L561 130Q567 123 567 118.5Q567 114 562 109L545 93Q540 88 535 88.5Q530 89 525 94L432 187Q410 176 381 170.5Q352 165 315 165Q278 165 249 170.5Q220 176 198 187Z" glyph-name="currency" horiz-adv-x="630" unicode="&#164;" /><glyph d="M380 15 378 52Q340 22 297.5 7Q255 -8 208 -8Q141 -8 105 25Q69 58 69 120V374Q69 436 105 469Q141 502 208 502Q252 502 293.5 488Q335 474 377 443V684Q377 692 380 695.5Q383 699 391 699H432Q439 699 442.5 695.5Q446 692 446 684V15Q446 7 442.5 3.5Q439 0 432 0H395Q388 0 384 3.5Q380 7 380 15ZM227 439Q184 439 161 419.5Q138 400 138 364V130Q138 94 161 74.5Q184 55 227 55Q265 55 303 69Q341 83 377 111V382Q344 409 305 424Q266 439 227 439Z" glyph-name="d" horiz-adv-x="524" unicode="d" /><glyph d="M268 684V15Q268 7 264.5 3.5Q261 0 254 0H213Q206 0 202.5 3.5Q199 7 199 15V684Q199 692 202.5 695.5Q206 699 213 699H254Q261 699 264.5 695.5Q268 692 268 684ZM48 501H162Q170 501 173.5 497.5Q177 494 177 487V457Q177 450 173.5 446.5Q170 443 162 443H48Q40 443 36.5 446.5Q33 450 33 457V487Q33 494 36.5 497.5Q40 501 48 501ZM304 501H418Q426 501 429.5 497.5Q433 494 433 487V457Q433 450 429.5 446.5Q426 443 418 443H304Q296 443 292 446.5Q288 450 288 457V487Q288 494 292 497.5Q296 501 304 501Z" glyph-name="dagger" horiz-adv-x="466" unicode="&#8224;" /><glyph d="M268 684V15Q268 7 264.5 3.5Q261 0 254 0H213Q206 0 202.5 3.5Q199 7 199 15V684Q199 692 202.5 695.5Q206 699 213 699H254Q261 699 264.5 695.5Q268 692 268 684ZM48 501H162Q170 501 173.5 497.5Q177 494 177 487V457Q177 450 173.5 446.5Q170 443 162 443H48Q40 443 36.5 446.5Q33 450 33 457V487Q33 494 36.5 497.5Q40 501 48 501ZM304 501H418Q426 501 429.5 497.5Q433 494 433 487V457Q433 450 429.5 446.5Q426 443 418 443H304Q296 443 292 446.5Q288 450 288 457V487Q288 494 292 497.5Q296 501 304 501ZM48 256H162Q170 256 173.5 252.5Q177 249 177 242V212Q177 205 173.5 201Q170 197 162 197H48Q41 197 37 201Q33 205 33 212V242Q33 249 36.5 252.5Q40 256 48 256ZM304 256H418Q426 256 429.5 252.5Q433 249 433 242V212Q433 205 429.5 201Q426 197 418 197H304Q296 197 292 200.5Q288 204 288 212V242Q288 249 292 252.5Q296 256 304 256Z" glyph-name="daggerdbl" horiz-adv-x="466" unicode="&#8225;" /><glyph d="M497 573Q521 625 523.5 640Q526 655 526 676V704Q526 712 529.5 715.5Q533 719 541 719H571Q579 719 582.5 715.5Q586 712 586 704V673Q586 646 576.5 617Q567 588 547 555Q543 549 539 547Q535 545 528 547L504 553Q497 555 495.5 560.5Q494 566 497 573ZM380 15 378 52Q340 22 297.5 7Q255 -8 208 -8Q141 -8 105 25Q69 58 69 120V374Q69 436 105 469Q141 502 208 502Q252 502 293.5 488Q335 474 377 443V684Q377 692 380 695.5Q383 699 391 699H432Q439 699 442.5 695.5Q446 692 446 684V15Q446 7 442.5 3.5Q439 0 432 0H395Q388 0 384 3.5Q380 7 380 15ZM227 439Q184 439 161 419.5Q138 400 138 364V130Q138 94 161 74.5Q184 55 227 55Q265 55 303 69Q341 83 377 111V382Q344 409 305 424Q266 439 227 439Z" glyph-name="dcaron" horiz-adv-x="540" unicode="&#271;" /><glyph d="M227 439Q184 439 161 419.5Q138 400 138 364V130Q138 94 161 74.5Q184 55 227 55Q265 55 303 69Q341 83 377 111V382Q344 409 305 424Q266 439 227 439ZM380 15 378 52Q340 22 297.5 7Q255 -8 208 -8Q141 -8 105 25Q69 58 69 120V374Q69 436 105 469Q141 502 208 502Q252 502 293.5 488Q335 474 377 443V559H225Q217 559 213.5 562.5Q210 566 210 574V595Q210 602 213.5 605.5Q217 609 225 609H377V684Q377 692 380 695.5Q383 699 391 699H432Q439 699 442.5 695.5Q446 692 446 684V609H486Q494 609 497.5 605.5Q501 602 501 595V574Q501 566 497.5 562.5Q494 559 486 559H446V15Q446 7 442.5 3.5Q439 0 432 0H395Q388 0 384.5 3.5Q381 7 380 15Z" glyph-name="dcroat" horiz-adv-x="524" unicode="&#273;" /><glyph d="M200 400Q129 400 95.5 423Q62 446 62 495V592Q62 641 95.5 664Q129 687 200 687Q271 687 305 664Q339 641 339 592V495Q339 446 305 423Q271 400 200 400ZM200 448Q240 448 259.5 460.5Q279 473 279 498V590Q279 614 259 626.5Q239 639 200 639Q161 639 141 626.5Q121 614 121 590V498Q121 473 140.5 460.5Q160 448 200 448Z" glyph-name="degree" horiz-adv-x="400" unicode="&#176;" /><glyph d="M135 688V591Q135 584 132 580.5Q129 577 121 577H96Q88 577 84.5 580.5Q81 584 81 591V688Q81 696 85 699.5Q89 703 96 703H121Q128 703 131.5 699.5Q135 696 135 688ZM242 688V591Q242 584 239 580.5Q236 577 228 577H203Q196 577 192.5 580.5Q189 584 189 591V688Q189 696 192.5 699.5Q196 703 203 703H228Q235 703 238.5 699.5Q242 696 242 688Z" glyph-name="dieresis" horiz-adv-x="324" unicode="&#168;" /><glyph d="M85 856V759Q85 750 82 747Q79 744 71 744H47Q39 744 35.5 747.5Q32 751 32 759V856Q32 864 35.5 867Q39 870 47 870H71Q79 870 82 867Q85 864 85 856ZM193 856V759Q193 751 189.5 747.5Q186 744 178 744H154Q146 744 142.5 747.5Q139 751 139 759V856Q139 864 142.5 867Q146 870 154 870H178Q186 870 189.5 867Q193 864 193 856Z" glyph-name="dieresis.case" horiz-adv-x="224" /><glyph d="M76 349H478Q485 349 488.5 345.5Q492 342 492 335V305Q492 297 489 293.5Q486 290 478 290H77Q69 290 65.5 293.5Q62 297 62 305V335Q62 343 65 346Q68 349 76 349ZM312 193V115Q312 107 309 103.5Q306 100 298 100H257Q249 100 245.5 103.5Q242 107 242 115V193Q242 201 245.5 204.5Q249 208 257 208H298Q305 208 308.5 204.5Q312 201 312 193ZM312 528V450Q312 442 309 438.5Q306 435 298 435H257Q249 435 245.5 438.5Q242 442 242 450V528Q242 536 245.5 539.5Q249 543 257 543H298Q305 543 308.5 539.5Q312 536 312 528Z" glyph-name="divide" horiz-adv-x="555" unicode="&#247;" /><glyph d="M262 0H221Q214 0 210 4Q206 8 206 15V86Q135 91 95.5 121Q56 151 56 198V225Q56 232 59 235.5Q62 239 69 239H107Q114 239 117 235.5Q120 232 120 225V201Q120 170 150 154Q180 138 237 138Q293 138 323.5 154.5Q354 171 354 201V238Q354 257 340.5 270.5Q327 284 296 294L142 345Q109 356 86.5 383Q64 410 64 442V481Q64 529 100.5 558.5Q137 588 206 594V665Q206 673 210 676.5Q214 680 221 680H262Q269 680 272.5 676.5Q276 673 276 665V593Q341 586 376 557Q411 528 411 481V452Q411 445 408 442Q405 439 397 439H361Q354 439 351 442Q348 445 348 452V481Q348 511 319.5 527Q291 543 237 543Q183 543 155.5 527Q128 511 128 481V455Q128 437 141.5 422.5Q155 408 178 400L332 350Q373 337 396 312Q419 287 419 255V198Q419 153 381.5 123.5Q344 94 276 87V15Q276 7 272.5 3.5Q269 0 262 0Z" glyph-name="dollar" horiz-adv-x="477" unicode="$" /><glyph d="M165 0H131Q125 0 122.5 2.5Q120 5 120 11V47Q81 51 59 68.5Q37 86 37 112V126Q37 131 39.5 133.5Q42 136 46 136H78Q83 136 85.5 133.5Q88 131 88 126V114Q88 100 102.5 92.5Q117 85 144 85Q172 85 187.5 92.5Q203 100 203 114V131Q203 139 196.5 145Q190 151 174 157L87 187Q69 193 56 208.5Q43 224 43 241V261Q43 288 63 305.5Q83 323 120 328V364Q120 369 123 372Q126 375 131 375H165Q170 375 172.5 372.5Q175 370 175 364V327Q210 322 229.5 305Q249 288 249 262V248Q249 243 246.5 240.5Q244 238 239 238H209Q204 238 201.5 240.5Q199 243 199 248V262Q199 276 185.5 283Q172 290 146 290Q119 290 106 283Q93 276 93 262V250Q93 241 99.5 234Q106 227 117 224L203 197Q227 189 240.5 174.5Q254 160 254 141V112Q254 87 233 70Q212 53 175 48V11Q175 5 172.5 2.5Q170 0 165 0Z" glyph-name="dollar.denominator" horiz-adv-x="292" unicode="&#63018;" /><glyph d="M166 306H132Q126 306 123.5 308.5Q121 311 121 317V353Q82 357 60 374.5Q38 392 38 418V432Q38 437 40.5 439.5Q43 442 47 442H79Q84 442 86.5 439.5Q89 437 89 432V420Q89 406 103.5 398.5Q118 391 145 391Q173 391 188.5 398.5Q204 406 204 420V437Q204 445 197.5 451Q191 457 175 463L88 493Q70 499 57 514.5Q44 530 44 547V567Q44 594 64 611.5Q84 629 121 634V670Q121 675 124 678Q127 681 132 681H166Q171 681 173.5 678.5Q176 676 176 670V633Q211 628 230.5 611Q250 594 250 568V554Q250 549 247.5 546.5Q245 544 240 544H210Q205 544 202.5 546.5Q200 549 200 554V568Q200 582 186.5 589Q173 596 147 596Q120 596 107 589Q94 582 94 568V556Q94 547 100.5 540Q107 533 118 530L204 503Q228 495 241.5 480.5Q255 466 255 447V418Q255 393 234 376Q213 359 176 354V317Q176 311 173.5 308.5Q171 306 166 306Z" glyph-name="dollar.numerator" horiz-adv-x="293" unicode="&#63023;" /><glyph d="M155 675V598Q155 590 152 586.5Q149 583 141 583H99Q91 583 88 586.5Q85 590 85 598V675Q85 683 88 686.5Q91 690 99 690H141Q149 690 152 686.5Q155 683 155 675Z" glyph-name="dotaccent" horiz-adv-x="240" unicode="&#729;" /><glyph d="M147 839V760Q147 752 144 749Q141 746 133 746H91Q84 746 80.5 749.5Q77 753 77 760V839Q77 847 80.5 850Q84 853 91 853H133Q141 853 144 850Q147 847 147 839Z" glyph-name="dotaccent.case" horiz-adv-x="224" /><glyph d="M147 479V15Q147 7 143.5 3.5Q140 0 133 0H92Q85 0 81.5 3.5Q78 7 78 15V479Q78 487 81.5 490.5Q85 494 92 494H133Q140 494 143.5 490.5Q147 487 147 479Z" glyph-name="dotlessi" horiz-adv-x="225" unicode="&#305;" /><glyph d="M147 479V-78Q147 -142 100.5 -174.5Q54 -207 -39 -207H-45Q-53 -207 -56.5 -203.5Q-60 -200 -60 -192V-164Q-60 -156 -56.5 -152.5Q-53 -149 -45 -149H-39Q20 -149 49 -130Q78 -111 78 -72V479Q78 487 81.5 490.5Q85 494 92 494H133Q140 494 143.5 490.5Q147 487 147 479Z" glyph-name="dotlessj" horiz-adv-x="225" unicode="&#567;" /><glyph d="M252 502Q344 502 389 470.5Q434 439 434 373V250Q434 243 430.5 239.5Q427 236 420 236H136V125Q136 84 164 66Q192 48 252 48Q312 48 340 66Q368 84 368 125V142Q368 150 371.5 153Q375 156 383 156H419Q427 156 430.5 152.5Q434 149 434 142V121Q434 55 389 23.5Q344 -8 251 -8Q159 -8 114 23.5Q69 55 69 121V373Q69 438 114.5 470Q160 502 252 502ZM252 446Q193 446 164.5 427Q136 408 136 369V289H368V369Q368 408 339.5 427Q311 446 252 446Z" glyph-name="e" horiz-adv-x="496" unicode="e" /><glyph d="M351 693 272 577Q269 573 264.5 570.5Q260 568 254 568H221Q214 568 211.5 572Q209 576 213 582L280 694Q285 702 289.5 705Q294 708 300 708H344Q352 708 354 704Q356 700 351 693ZM252 502Q344 502 389 470.5Q434 439 434 373V250Q434 243 430.5 239.5Q427 236 420 236H136V125Q136 84 164 66Q192 48 252 48Q312 48 340 66Q368 84 368 125V142Q368 150 371.5 153Q375 156 383 156H419Q427 156 430.5 152.5Q434 149 434 142V121Q434 55 389 23.5Q344 -8 251 -8Q159 -8 114 23.5Q69 55 69 121V373Q69 438 114.5 470Q160 502 252 502ZM252 446Q193 446 164.5 427Q136 408 136 369V289H368V369Q368 408 339.5 427Q311 446 252 446Z" glyph-name="eacute" horiz-adv-x="497" unicode="&#233;" /><glyph d="M252 502Q344 502 389 470.5Q434 439 434 373V250Q434 243 430.5 239.5Q427 236 420 236H136V125Q136 84 164 66Q192 48 252 48Q312 48 340 66Q368 84 368 125V142Q368 150 371.5 153Q375 156 383 156H419Q427 156 430.5 152.5Q434 149 434 142V121Q434 55 389 23.5Q344 -8 251 -8Q159 -8 114 23.5Q69 55 69 121V373Q69 438 114.5 470Q160 502 252 502ZM252 446Q193 446 164.5 427Q136 408 136 369V289H368V369Q368 408 339.5 427Q311 446 252 446ZM184 683V666Q184 630 200 614.5Q216 599 251 599Q286 599 302 614Q318 629 318 666V683Q318 691 321 693.5Q324 696 332 696H357Q364 696 367 693Q370 690 370 683V667Q370 610 340.5 582.5Q311 555 250 555Q190 555 161 582Q132 609 132 667V683Q132 690 135 693Q138 696 146 696H171Q178 696 181 693Q184 690 184 683Z" glyph-name="ebreve" horiz-adv-x="497" unicode="&#277;" /><glyph d="M194 693 247 611 300 693Q305 701 310 704.5Q315 708 320 708H352Q359 708 361.5 703.5Q364 699 360 693L282 582Q277 574 271.5 571Q266 568 259 568H233Q226 568 220.5 571.5Q215 575 210 583L134 693Q130 699 132 703.5Q134 708 142 708H174Q179 708 184 704.5Q189 701 194 693ZM252 502Q344 502 389 470.5Q434 439 434 373V250Q434 243 430.5 239.5Q427 236 420 236H136V125Q136 84 164 66Q192 48 252 48Q312 48 340 66Q368 84 368 125V142Q368 150 371.5 153Q375 156 383 156H419Q427 156 430.5 152.5Q434 149 434 142V121Q434 55 389 23.5Q344 -8 251 -8Q159 -8 114 23.5Q69 55 69 121V373Q69 438 114.5 470Q160 502 252 502ZM252 446Q193 446 164.5 427Q136 408 136 369V289H368V369Q368 408 339.5 427Q311 446 252 446Z" glyph-name="ecaron" horiz-adv-x="497" unicode="&#283;" /><glyph d="M305 582 252 664 199 582Q194 575 189 571.5Q184 568 179 568H147Q139 568 137 572Q135 576 139 582L215 693Q220 701 226 704.5Q232 708 238 708H264Q271 708 276.5 705Q282 702 287 694L365 582Q369 576 366.5 572Q364 568 357 568H325Q319 568 314.5 571.5Q310 575 305 582ZM252 502Q344 502 389 470.5Q434 439 434 373V250Q434 243 430.5 239.5Q427 236 420 236H136V125Q136 84 164 66Q192 48 252 48Q312 48 340 66Q368 84 368 125V142Q368 150 371.5 153Q375 156 383 156H419Q427 156 430.5 152.5Q434 149 434 142V121Q434 55 389 23.5Q344 -8 251 -8Q159 -8 114 23.5Q69 55 69 121V373Q69 438 114.5 470Q160 502 252 502ZM252 446Q193 446 164.5 427Q136 408 136 369V289H368V369Q368 408 339.5 427Q311 446 252 446Z" glyph-name="ecircumflex" horiz-adv-x="497" unicode="&#234;" /><glyph d="M224 688V591Q224 584 221 580.5Q218 577 210 577H185Q177 577 173.5 580.5Q170 584 170 591V688Q170 696 174 699.5Q178 703 185 703H210Q217 703 220.5 699.5Q224 696 224 688ZM331 688V591Q331 584 328 580.5Q325 577 317 577H292Q285 577 281.5 580.5Q278 584 278 591V688Q278 696 281.5 699.5Q285 703 292 703H317Q324 703 327.5 699.5Q331 696 331 688ZM252 502Q344 502 389 470.5Q434 439 434 373V250Q434 243 430.5 239.5Q427 236 420 236H136V125Q136 84 164 66Q192 48 252 48Q312 48 340 66Q368 84 368 125V142Q368 150 371.5 153Q375 156 383 156H419Q427 156 430.5 152.5Q434 149 434 142V121Q434 55 389 23.5Q344 -8 251 -8Q159 -8 114 23.5Q69 55 69 121V373Q69 438 114.5 470Q160 502 252 502ZM252 446Q193 446 164.5 427Q136 408 136 369V289H368V369Q368 408 339.5 427Q311 446 252 446Z" glyph-name="edieresis" horiz-adv-x="497" unicode="&#235;" /><glyph d="M252 502Q344 502 389 470.5Q434 439 434 373V250Q434 243 430.5 239.5Q427 236 420 236H136V125Q136 84 164 66Q192 48 252 48Q312 48 340 66Q368 84 368 125V142Q368 150 371.5 153Q375 156 383 156H419Q427 156 430.5 152.5Q434 149 434 142V121Q434 55 389 23.5Q344 -8 251 -8Q159 -8 114 23.5Q69 55 69 121V373Q69 438 114.5 470Q160 502 252 502ZM252 446Q193 446 164.5 427Q136 408 136 369V289H368V369Q368 408 339.5 427Q311 446 252 446ZM285 675V598Q285 590 282 586.5Q279 583 271 583H229Q221 583 218 586.5Q215 590 215 598V675Q215 683 218 686.5Q221 690 229 690H271Q279 690 282 686.5Q285 683 285 675Z" glyph-name="edotaccent" horiz-adv-x="497" unicode="&#279;" /><glyph d="M252 502Q344 502 389 470.5Q434 439 434 373V250Q434 243 430.5 239.5Q427 236 420 236H136V125Q136 84 164 66Q192 48 252 48Q312 48 340 66Q368 84 368 125V142Q368 150 371.5 153Q375 156 383 156H419Q427 156 430.5 152.5Q434 149 434 142V121Q434 55 389 23.5Q344 -8 251 -8Q159 -8 114 23.5Q69 55 69 121V373Q69 438 114.5 470Q160 502 252 502ZM252 446Q193 446 164.5 427Q136 408 136 369V289H368V369Q368 408 339.5 427Q311 446 252 446ZM224 577 145 693Q140 700 142 704Q144 708 152 708H196Q202 708 206.5 705Q211 702 216 694L283 582Q287 576 285 572Q283 568 276 568H242Q236 568 231.5 570.5Q227 573 224 577Z" glyph-name="egrave" horiz-adv-x="497" unicode="&#232;" /><glyph d="M168 362Q121 373 99.5 400.5Q78 428 78 477V542Q78 620 125 654Q172 688 271 688Q371 688 418.5 653.5Q466 619 466 542V477Q466 428 444 400.5Q422 373 375 362Q425 350 449 322Q473 294 473 246V138Q473 63 423 27.5Q373 -8 271 -8Q169 -8 119.5 27.5Q70 63 70 138V246Q70 294 94 322Q118 350 168 362ZM271 51Q340 51 371.5 73Q403 95 403 147V236Q403 288 371.5 310Q340 332 271 332Q202 332 171 310Q140 288 140 236V147Q140 95 171.5 73Q203 51 271 51ZM271 390Q338 390 367 411.5Q396 433 396 487V533Q396 587 366.5 608Q337 629 271 629Q205 629 176 608Q147 587 147 533V487Q147 433 176 411.5Q205 390 271 390Z" glyph-name="eight" horiz-adv-x="543" unicode="8" /><glyph d="M90 197Q65 204 53.5 218.5Q42 233 42 258V294Q42 338 70 358Q98 378 158 378Q218 378 246 358Q274 338 274 294V258Q274 233 262 218.5Q250 204 225 197Q252 190 265.5 174.5Q279 159 279 135V80Q279 37 249 16.5Q219 -4 158 -4Q97 -4 67 16.5Q37 37 37 80V135Q37 160 50 175Q63 190 90 197ZM158 38Q192 38 208 49.5Q224 61 224 86V128Q224 153 208 164.5Q192 176 158 176Q123 176 107.5 165Q92 154 92 128V86Q92 61 108 49.5Q124 38 158 38ZM158 217Q190 217 204.5 228Q219 239 219 265V289Q219 315 205 325.5Q191 336 158 336Q125 336 110.5 325.5Q96 315 96 289V265Q96 239 110.5 228Q125 217 158 217Z" glyph-name="eight.denominator" horiz-adv-x="315" unicode="&#63069;" /><glyph d="M90 47Q65 54 53.5 68.5Q42 83 42 108V144Q42 188 70 208Q98 228 158 228Q218 228 246 208Q274 188 274 144V108Q274 83 262 68.5Q250 54 225 47Q252 40 265.5 24.5Q279 9 279 -15V-70Q279 -113 249 -133.5Q219 -154 158 -154Q97 -154 67 -133.5Q37 -113 37 -70V-15Q37 10 50 25Q63 40 90 47ZM158 -112Q192 -112 208 -100.5Q224 -89 224 -64V-22Q224 3 208 14.5Q192 26 158 26Q123 26 107.5 15Q92 4 92 -22V-64Q92 -89 108 -100.5Q124 -112 158 -112ZM158 67Q190 67 204.5 78Q219 89 219 115V139Q219 165 205 175.5Q191 186 158 186Q125 186 110.5 175.5Q96 165 96 139V115Q96 89 110.5 78Q125 67 158 67Z" glyph-name="eight.inferior" horiz-adv-x="315" unicode="&#8328;" /><glyph d="M90 503Q65 510 53.5 524.5Q42 539 42 564V600Q42 644 70 664Q98 684 158 684Q218 684 246 664Q274 644 274 600V564Q274 539 262 524.5Q250 510 225 503Q252 496 265.5 480.5Q279 465 279 441V386Q279 343 249 322.5Q219 302 158 302Q97 302 67 322.5Q37 343 37 386V441Q37 466 50 481Q63 496 90 503ZM158 344Q192 344 208 355.5Q224 367 224 392V434Q224 459 208 470.5Q192 482 158 482Q123 482 107.5 471Q92 460 92 434V392Q92 367 108 355.5Q124 344 158 344ZM158 523Q190 523 204.5 534Q219 545 219 571V595Q219 621 205 631.5Q191 642 158 642Q125 642 110.5 631.5Q96 621 96 595V571Q96 545 110.5 534Q125 523 158 523Z" glyph-name="eight.numerator" horiz-adv-x="315" unicode="&#63081;" /><glyph d="M90 653Q65 660 53.5 674.5Q42 689 42 714V750Q42 794 70 814Q98 834 158 834Q218 834 246 814Q274 794 274 750V714Q274 689 262 674.5Q250 660 225 653Q252 646 265.5 630.5Q279 615 279 591V536Q279 493 249 472.5Q219 452 158 452Q97 452 67 472.5Q37 493 37 536V591Q37 616 50 631Q63 646 90 653ZM158 494Q192 494 208 505.5Q224 517 224 542V584Q224 609 208 620.5Q192 632 158 632Q123 632 107.5 621Q92 610 92 584V542Q92 517 108 505.5Q124 494 158 494ZM158 673Q190 673 204.5 684Q219 695 219 721V745Q219 771 205 781.5Q191 792 158 792Q125 792 110.5 781.5Q96 771 96 745V721Q96 695 110.5 684Q125 673 158 673Z" glyph-name="eight.superior" horiz-adv-x="315" unicode="&#8312;" /><glyph d="M167 362Q120 373 98.5 400.5Q77 428 77 477V542Q77 620 124 654Q171 688 270 688Q370 688 417.5 653.5Q465 619 465 542V477Q465 428 443 400.5Q421 373 374 362Q424 350 448 322Q472 294 472 246V138Q472 63 422 27.5Q372 -8 270 -8Q168 -8 118.5 27.5Q69 63 69 138V246Q69 294 93 322Q117 350 167 362ZM270 51Q339 51 370.5 73Q402 95 402 147V236Q402 288 370.5 310Q339 332 270 332Q201 332 170 310Q139 288 139 236V147Q139 95 170.5 73Q202 51 270 51ZM270 390Q337 390 366 411.5Q395 433 395 487V533Q395 587 365.5 608Q336 629 270 629Q204 629 175 608Q146 587 146 533V487Q146 433 175 411.5Q204 390 270 390Z" glyph-name="eight.tab" horiz-adv-x="542" unicode="&#65304;" /><glyph d="M139 93V15Q139 7 136 3.5Q133 0 125 0H84Q76 0 72.5 3.5Q69 7 69 15V93Q69 101 72.5 104.5Q76 108 84 108H125Q132 108 135.5 104.5Q139 101 139 93ZM634 93V15Q634 7 631 3.5Q628 0 620 0H579Q571 0 567.5 3.5Q564 7 564 15V93Q564 101 567.5 104.5Q571 108 579 108H620Q627 108 630.5 104.5Q634 101 634 93ZM387 93V15Q387 7 384 3.5Q381 0 373 0H332Q324 0 320.5 3.5Q317 7 317 15V93Q317 101 320.5 104.5Q324 108 332 108H373Q380 108 383.5 104.5Q387 101 387 93Z" glyph-name="ellipsis" horiz-adv-x="703" unicode="&#8230;" /><glyph d="M252 502Q344 502 389 470.5Q434 439 434 373V250Q434 243 430.5 239.5Q427 236 420 236H136V125Q136 84 164 66Q192 48 252 48Q312 48 340 66Q368 84 368 125V142Q368 150 371.5 153Q375 156 383 156H419Q427 156 430.5 152.5Q434 149 434 142V121Q434 55 389 23.5Q344 -8 251 -8Q159 -8 114 23.5Q69 55 69 121V373Q69 438 114.5 470Q160 502 252 502ZM252 446Q193 446 164.5 427Q136 408 136 369V289H368V369Q368 408 339.5 427Q311 446 252 446ZM120 651H372Q380 651 383.5 647.5Q387 644 387 637V612Q387 604 383.5 600.5Q380 597 372 597H120Q112 597 109 600.5Q106 604 106 612V637Q106 645 109.5 648Q113 651 120 651Z" glyph-name="emacron" horiz-adv-x="497" unicode="&#275;" /><glyph d="M82 318H749Q757 318 760.5 314.5Q764 311 764 304V275Q764 267 760.5 263.5Q757 260 749 260H82Q74 260 70.5 263.5Q67 267 67 275V304Q67 312 70.5 315Q74 318 82 318Z" glyph-name="emdash" horiz-adv-x="831" unicode="&#8212;" /><glyph d="M82 318H440Q448 318 451.5 314.5Q455 311 455 304V275Q455 267 451.5 263.5Q448 260 440 260H82Q74 260 70.5 263.5Q67 267 67 275V304Q67 312 70.5 315Q74 318 82 318Z" glyph-name="endash" horiz-adv-x="521" unicode="&#8211;" /><glyph d="M92 494H129Q137 494 140.5 490.5Q144 487 144 479L145 441Q181 471 225 486.5Q269 502 317 502Q382 502 418.5 469.5Q455 437 455 380V-78Q455 -142 408.5 -174.5Q362 -207 269 -207H263Q255 -207 251.5 -203.5Q248 -200 248 -192V-164Q248 -156 251.5 -152.5Q255 -149 263 -149H269Q329 -149 357.5 -130.5Q386 -112 386 -72V365Q386 403 364 422.5Q342 442 298 442Q258 442 219.5 427.5Q181 413 147 385V15Q147 7 143.5 3.5Q140 0 133 0H92Q85 0 81.5 3.5Q78 7 78 15V479Q78 487 81.5 490.5Q85 494 92 494Z" glyph-name="eng" horiz-adv-x="531" unicode="&#331;" /><glyph d="M252 502Q344 502 389 470.5Q434 439 434 373V250Q434 243 430.5 239.5Q427 236 420 236H136V125Q136 84 164 66Q192 48 252 48Q312 48 340 66Q368 84 368 125V142Q368 150 371.5 153Q375 156 383 156H419Q427 156 430.5 152.5Q434 149 434 142V121Q434 91 424.5 68Q415 45 397 30Q394 28 378 15Q362 2 354 -7Q343 -19 338.5 -31.5Q334 -44 334 -60Q334 -82 347.5 -93.5Q361 -105 388 -105H418Q426 -105 429 -108.5Q432 -112 432 -119V-139Q432 -146 427.5 -150Q423 -154 414 -154H370Q329 -154 305 -133Q281 -112 281 -75Q281 -53 286.5 -36Q292 -19 304 -4Q288 -6 275.5 -7Q263 -8 251 -8Q159 -8 114 23.5Q69 55 69 121V373Q69 438 114.5 470Q160 502 252 502ZM252 446Q193 446 164.5 427Q136 408 136 369V289H368V369Q368 408 339.5 427Q311 446 252 446Z" glyph-name="eogonek" horiz-adv-x="496" unicode="&#281;" /><glyph d="M92 450H492Q500 450 503 447Q506 444 506 436V406Q506 398 503 394.5Q500 391 492 391H92Q84 391 80.5 394.5Q77 398 77 406V436Q77 443 80.5 446.5Q84 450 92 450ZM92 271H492Q500 271 503 268Q506 265 506 257V227Q506 220 503 216.5Q500 213 492 213H92Q84 213 80.5 216.5Q77 220 77 227V257Q77 264 80.5 267.5Q84 271 92 271Z" glyph-name="equal" horiz-adv-x="583" unicode="=" /><glyph d="M407 688Q550 688 652 586Q754 484 754 340Q754 332 750 328Q746 324 738 324H161V136Q205 79 269.5 47.5Q334 16 407 16Q479 16 538.5 43Q598 70 652 128Q654 131 656.5 132Q659 133 662 133Q666 133 669 130Q672 127 672 122Q672 118 670.5 115Q669 112 665 107Q619 53 550.5 22.5Q482 -8 407 -8Q261 -8 160 92.5Q59 193 59 340Q59 484 161 586Q263 688 407 688ZM407 663Q335 663 270.5 631Q206 599 161 542V346H653V540Q608 598 543.5 630.5Q479 663 407 663Z" glyph-name="estimated" horiz-adv-x="796" unicode="&#8494;" /><glyph d="M278 598 352 631Q338 643 315 649Q292 655 259 655H169Q161 655 158 658.5Q155 662 155 670V690Q155 698 158 701.5Q161 705 169 705H259Q312 705 350 694Q388 683 409 662L460 686Q466 689 471.5 687.5Q477 686 480 681L485 671Q488 665 486.5 660Q485 655 478 652L431 630Q437 619 439.5 606Q442 593 442 577V120Q442 56 396 24Q350 -8 257 -8Q163 -8 115.5 24.5Q68 57 68 120V374Q68 435 104 468.5Q140 502 208 502Q253 502 295.5 487Q338 472 377 442V564Q377 572 374.5 580.5Q372 589 368 596L296 565Q288 562 284 563Q280 564 277 570L272 579Q269 585 270.5 590Q272 595 278 598ZM257 48Q318 48 347.5 67Q377 86 377 125V384Q339 414 302 428Q265 442 227 442Q184 442 161 422Q138 402 138 365V125Q138 86 167 67Q196 48 257 48Z" glyph-name="eth" horiz-adv-x="517" unicode="&#240;" /><glyph d="M151 665V390L144 177Q144 169 140.5 165.5Q137 162 130 162H100Q93 162 89.5 165.5Q86 169 86 177L78 390V665Q78 673 81.5 676.5Q85 680 93 680H137Q144 680 147.5 676.5Q151 673 151 665ZM150 93V15Q150 7 147 3.5Q144 0 136 0H93Q85 0 82 3.5Q79 7 79 15V93Q79 101 82.5 104.5Q86 108 93 108H136Q143 108 146.5 104.5Q150 101 150 93Z" glyph-name="exclam" horiz-adv-x="229" unicode="!" /><glyph d="M75 -171V104L82 317Q82 325 85.5 328.5Q89 332 96 332H126Q133 332 136.5 328.5Q140 325 140 317L148 104V-171Q148 -179 144.5 -182.5Q141 -186 133 -186H89Q82 -186 78.5 -182.5Q75 -179 75 -171ZM76 401V479Q76 487 79 490.5Q82 494 90 494H133Q141 494 144 490.5Q147 487 147 479V401Q147 393 143.5 389.5Q140 386 133 386H90Q83 386 79.5 389.5Q76 393 76 401Z" glyph-name="exclamdown" horiz-adv-x="222" unicode="&#161;" /><glyph d="M41 489 96 492H104V578Q104 642 150.5 674Q197 706 291 706H297Q305 706 308.5 702.5Q312 699 312 692V662Q312 655 308.5 651Q305 647 297 647H291Q231 647 202.5 628.5Q174 610 174 571V492H283Q291 492 294 489Q297 486 297 478V450Q297 442 293.5 438.5Q290 435 283 435H174V15Q174 7 170.5 3.5Q167 0 159 0H119Q112 0 108 4Q104 8 104 15V435H41Q34 435 30.5 438.5Q27 442 27 450V474Q27 482 30.5 485.5Q34 489 41 489Z" glyph-name="f" horiz-adv-x="317" unicode="f" /><glyph d="M41 489 96 492H104V574Q104 638 151 670.5Q198 703 291 703H297Q305 703 308.5 699.5Q312 696 312 688V659Q312 651 308.5 647.5Q305 644 297 644H291Q231 644 202.5 625.5Q174 607 174 567V492H398V578Q398 642 444.5 674Q491 706 585 706H591Q599 706 602 703Q605 700 605 692V662Q605 654 601.5 650.5Q598 647 591 647H585Q525 647 496.5 628.5Q468 610 468 571V492H576Q584 492 587.5 488.5Q591 485 591 478V450Q591 443 587.5 439Q584 435 576 435H468V15Q468 7 464.5 3.5Q461 0 453 0H412Q405 0 401.5 3.5Q398 7 398 15V435H174V15Q174 7 170.5 3.5Q167 0 160 0H119Q112 0 108 4Q104 8 104 15V435H41Q34 435 30.5 438.5Q27 442 27 450V474Q27 482 30.5 485.5Q34 489 41 489Z" glyph-name="ff" horiz-adv-x="610" unicode="&#64256;" /><glyph d="M41 489 96 492H104V574Q104 638 151 670.5Q198 703 291 703H297Q305 703 308.5 699.5Q312 696 312 688V659Q312 651 308.5 647.5Q305 644 297 644H291Q231 644 202.5 625.5Q174 607 174 567V492H398V570Q398 634 445 666.5Q492 699 585 699H727Q735 699 738.5 695.5Q742 692 742 684V655Q742 647 738.5 643.5Q735 640 727 640H585Q525 640 496.5 621.5Q468 603 468 563V492H746Q755 492 758.5 488.5Q762 485 762 477V15Q762 7 758.5 3.5Q755 0 748 0H707Q700 0 696 4Q692 8 692 15V435H468V15Q468 7 464.5 3.5Q461 0 453 0H413Q405 0 401.5 3.5Q398 7 398 15V435H174V15Q174 7 170.5 3.5Q167 0 160 0H119Q112 0 108 4Q104 8 104 15V435H41Q34 435 30.5 438.5Q27 442 27 450V474Q27 482 30.5 485.5Q34 489 41 489Z" glyph-name="ffi" horiz-adv-x="839" unicode="&#64259;" /><glyph d="M41 489 95 492H104V574Q104 639 150.5 671Q197 703 290 703H296Q305 703 308.5 699.5Q312 696 312 688V659Q312 651 308.5 647.5Q305 644 296 644H290Q230 644 201.5 625.5Q173 607 173 567V492H398V570Q398 635 444.5 667Q491 699 585 699H746Q754 699 757.5 695.5Q761 692 761 684V15Q761 7 757.5 3.5Q754 0 747 0H707Q699 0 695.5 3.5Q692 7 692 15V640H585Q525 640 496.5 621.5Q468 603 468 563V492H576Q584 492 587.5 488.5Q591 485 591 478V450Q591 443 587.5 439Q584 435 576 435H468V15Q468 7 464.5 3.5Q461 0 453 0H412Q405 0 401.5 3.5Q398 7 398 15V435H173V15Q173 7 169.5 3.5Q166 0 159 0H119Q111 0 107.5 3.5Q104 7 104 15V435H41Q34 435 30.5 438.5Q27 442 27 450V474Q27 482 30.5 485.5Q34 489 41 489Z" glyph-name="ffl" horiz-adv-x="839" unicode="&#64260;" /><glyph d="M467 477V15Q467 7 464 3.5Q461 0 453 0H412Q405 0 401.5 3.5Q398 7 398 15V435H173V15Q173 7 169.5 3.5Q166 0 159 0H118Q111 0 107.5 3.5Q104 7 104 15V435H41Q34 435 30.5 438.5Q27 442 27 450V474Q27 482 30.5 485.5Q34 489 41 489L95 492H104V570Q104 635 150.5 667Q197 699 290 699H433Q441 699 444 695.5Q447 692 447 684V655Q447 647 444 643.5Q441 640 433 640H290Q230 640 201.5 621.5Q173 603 173 563V492H452Q460 492 463.5 488.5Q467 485 467 477Z" glyph-name="fi" horiz-adv-x="544" unicode="&#64257;" /><glyph d="M94 680H428Q436 680 439.5 676.5Q443 673 443 665V634Q443 626 439.5 622.5Q436 619 428 619H151V415H259Q356 415 408 380.5Q460 346 460 281V136Q460 61 411 26Q362 -9 261 -9Q160 -9 111.5 26Q63 61 63 136V158Q63 166 66.5 169.5Q70 173 78 173H118Q126 173 129.5 169.5Q133 166 133 158V146Q133 94 163 72.5Q193 51 261 51Q329 51 359 72.5Q389 94 389 146V272Q389 313 356 334.5Q323 356 258 356H94Q86 356 83 359.5Q80 363 80 371V665Q80 673 83.5 676.5Q87 680 94 680Z" glyph-name="five" horiz-adv-x="523" unicode="5" /><glyph d="M60 374H256Q262 374 264.5 372Q267 370 267 365V339Q267 334 264 331.5Q261 329 256 329H105V233H163Q219 233 248 212.5Q277 192 277 154V79Q277 38 246.5 16.5Q216 -5 158 -5Q99 -5 68.5 16.5Q38 38 38 79V92Q38 97 40 99Q42 101 48 101H84Q89 101 91 99Q93 97 93 92V86Q93 60 108.5 49Q124 38 158 38Q191 38 206 49Q221 60 221 86V147Q221 168 204.5 179Q188 190 156 190H60Q54 190 51.5 192.5Q49 195 49 201V364Q49 369 51.5 371.5Q54 374 60 374Z" glyph-name="five.denominator" horiz-adv-x="315" unicode="&#63066;" /><glyph d="M60 224H256Q262 224 264.5 222Q267 220 267 215V189Q267 184 264 181.5Q261 179 256 179H105V83H163Q219 83 248 62.5Q277 42 277 4V-71Q277 -112 246.5 -133.5Q216 -155 158 -155Q99 -155 68.5 -133.5Q38 -112 38 -71V-58Q38 -53 40 -51Q42 -49 48 -49H84Q89 -49 91 -51Q93 -53 93 -58V-64Q93 -90 108.5 -101Q124 -112 158 -112Q191 -112 206 -101Q221 -90 221 -64V-3Q221 18 204.5 29Q188 40 156 40H60Q54 40 51.5 42.5Q49 45 49 51V214Q49 219 51.5 221.5Q54 224 60 224Z" glyph-name="five.inferior" horiz-adv-x="315" unicode="&#8325;" /><glyph d="M60 680H256Q262 680 264.5 678Q267 676 267 671V645Q267 640 264 637.5Q261 635 256 635H105V539H163Q219 539 248 518.5Q277 498 277 460V385Q277 344 246.5 322.5Q216 301 158 301Q99 301 68.5 322.5Q38 344 38 385V398Q38 403 40 405Q42 407 48 407H84Q89 407 91 405Q93 403 93 398V392Q93 366 108.5 355Q124 344 158 344Q191 344 206 355Q221 366 221 392V453Q221 474 204.5 485Q188 496 156 496H60Q54 496 51.5 498.5Q49 501 49 507V670Q49 675 51.5 677.5Q54 680 60 680Z" glyph-name="five.numerator" horiz-adv-x="315" unicode="&#63078;" /><glyph d="M60 830H256Q262 830 264.5 828Q267 826 267 821V795Q267 790 264 787.5Q261 785 256 785H105V689H163Q219 689 248 668.5Q277 648 277 610V535Q277 494 246.5 472.5Q216 451 158 451Q99 451 68.5 472.5Q38 494 38 535V548Q38 553 40 555Q42 557 48 557H84Q89 557 91 555Q93 553 93 548V542Q93 516 108.5 505Q124 494 158 494Q191 494 206 505Q221 516 221 542V603Q221 624 204.5 635Q188 646 156 646H60Q54 646 51.5 648.5Q49 651 49 657V820Q49 825 51.5 827.5Q54 830 60 830Z" glyph-name="five.superior" horiz-adv-x="315" unicode="&#8309;" /><glyph d="M104 680H438Q446 680 449.5 676.5Q453 673 453 665V634Q453 626 449.5 622.5Q446 619 438 619H161V415H269Q366 415 418 380.5Q470 346 470 281V136Q470 61 421 26Q372 -9 271 -9Q170 -9 121.5 26Q73 61 73 136V158Q73 166 76.5 169.5Q80 173 88 173H128Q136 173 139.5 169.5Q143 166 143 158V146Q143 94 173 72.5Q203 51 271 51Q339 51 369 72.5Q399 94 399 146V272Q399 313 366 334.5Q333 356 268 356H104Q96 356 93 359.5Q90 363 90 371V665Q90 673 93.5 676.5Q97 680 104 680Z" glyph-name="five.tab" horiz-adv-x="542" unicode="&#65301;" /><glyph d="M467 684V15Q467 7 464 3.5Q461 0 453 0H412Q405 0 401.5 3.5Q398 7 398 15V640H290Q230 640 201.5 621.5Q173 603 173 563V492H282Q290 492 293.5 488.5Q297 485 297 478V450Q297 443 293.5 439Q290 435 282 435H173V15Q173 7 169.5 3.5Q166 0 159 0H118Q111 0 107.5 3.5Q104 7 104 15V435H41Q34 435 30.5 438.5Q27 442 27 450V474Q27 482 30.5 485.5Q34 489 41 489L95 492H104V570Q104 635 150.5 667Q197 699 290 699H452Q460 699 463.5 695.5Q467 692 467 684Z" glyph-name="fl" horiz-adv-x="544" unicode="&#64258;" /><glyph d="M393 649H381Q321 649 290.5 630.5Q260 612 255 572L235 416H332Q340 416 343.5 412.5Q347 409 347 401V374Q347 366 343.5 362.5Q340 359 332 359H230L178 -86Q170 -150 120 -182.5Q70 -215 -23 -215H-29Q-37 -215 -40.5 -211.5Q-44 -208 -44 -200V-171Q-44 -164 -40.5 -160Q-37 -156 -29 -156H-17Q43 -156 73.5 -137.5Q104 -119 109 -79L160 359H71Q63 359 59.5 362.5Q56 366 56 374V401Q56 409 59.5 412.5Q63 416 71 416H166L185 579Q192 643 242.5 675.5Q293 708 386 708H393Q401 708 404 704.5Q407 701 407 693V664Q407 656 404 652.5Q401 649 393 649Z" glyph-name="florin" horiz-adv-x="417" unicode="&#402;" /><glyph d="M252 665 112 276H379V665Q379 673 382.5 676.5Q386 680 394 680H436Q443 680 446.5 676.5Q450 673 450 665V15Q450 7 446.5 3.5Q443 0 436 0H394Q386 0 382.5 3.5Q379 7 379 15V215H53Q45 215 41.5 218.5Q38 222 38 230V259Q38 263 38.5 266.5Q39 270 41 275L181 665Q184 673 188 676.5Q192 680 199 680H242Q249 680 252 676Q255 672 252 665Z" glyph-name="four" horiz-adv-x="530" unicode="4" /><glyph d="M151 364 82 157H213V364Q213 369 215.5 371.5Q218 374 223 374H259Q264 374 266.5 371.5Q269 369 269 364V10Q269 5 266.5 2.5Q264 0 259 0H223Q218 0 215.5 2.5Q213 5 213 10V111H34Q28 111 25.5 113.5Q23 116 23 122V140Q23 145 23.5 149Q24 153 25 156L96 364Q98 370 100.5 372Q103 374 109 374H143Q149 374 151 371.5Q153 369 151 364Z" glyph-name="four.denominator" horiz-adv-x="315" unicode="&#63065;" /><glyph d="M151 214 82 7H213V214Q213 219 215.5 221.5Q218 224 223 224H259Q264 224 266.5 221.5Q269 219 269 214V-140Q269 -145 266.5 -147.5Q264 -150 259 -150H223Q218 -150 215.5 -147.5Q213 -145 213 -140V-39H34Q28 -39 25.5 -36.5Q23 -34 23 -28V-10Q23 -5 23.5 -1Q24 3 25 6L96 214Q98 220 100.5 222Q103 224 109 224H143Q149 224 151 221.5Q153 219 151 214Z" glyph-name="four.inferior" horiz-adv-x="315" unicode="&#8324;" /><glyph d="M151 670 82 463H213V670Q213 675 215.5 677.5Q218 680 223 680H259Q264 680 266.5 677.5Q269 675 269 670V316Q269 311 266.5 308.5Q264 306 259 306H223Q218 306 215.5 308.5Q213 311 213 316V417H34Q28 417 25.5 419.5Q23 422 23 428V446Q23 451 23.5 455Q24 459 25 462L96 670Q98 676 100.5 678Q103 680 109 680H143Q149 680 151 677.5Q153 675 151 670Z" glyph-name="four.numerator" horiz-adv-x="315" unicode="&#63077;" /><glyph d="M151 820 82 613H213V820Q213 825 215.5 827.5Q218 830 223 830H259Q264 830 266.5 827.5Q269 825 269 820V466Q269 461 266.5 458.5Q264 456 259 456H223Q218 456 215.5 458.5Q213 461 213 466V567H34Q28 567 25.5 569.5Q23 572 23 578V596Q23 601 23.5 605Q24 609 25 612L96 820Q98 826 100.5 828Q103 830 109 830H143Q149 830 151 827.5Q153 825 151 820Z" glyph-name="four.superior" horiz-adv-x="315" unicode="&#8308;" /><glyph d="M255 665 115 276H382V665Q382 673 385.5 676.5Q389 680 397 680H439Q446 680 449.5 676.5Q453 673 453 665V15Q453 7 449.5 3.5Q446 0 439 0H397Q389 0 385.5 3.5Q382 7 382 15V215H56Q48 215 44.5 218.5Q41 222 41 230V259Q41 263 41.5 266.5Q42 270 44 275L184 665Q187 673 191 676.5Q195 680 202 680H245Q252 680 255 676Q258 672 255 665Z" glyph-name="four.tab" horiz-adv-x="542" unicode="&#65300;" /><glyph d="M233 673 -79 7Q-83 -1 -88 -4.5Q-93 -8 -100 -8H-132Q-138 -8 -140 -3.5Q-142 1 -139 7L174 673Q177 680 182.5 684Q188 688 195 688H226Q232 688 234 684Q236 680 233 673Z" glyph-name="fraction" horiz-adv-x="94" unicode="&#8260;" /><glyph d="M208 -8Q141 -8 105 25Q69 58 69 120V374Q69 436 105 469Q141 502 208 502Q255 502 298.5 486.5Q342 471 378 441L380 479Q380 487 384 490.5Q388 494 395 494H432Q439 494 442.5 490.5Q446 487 446 479V-77Q446 -142 399.5 -174Q353 -206 260 -206H124Q116 -206 112 -202.5Q108 -199 108 -192V-162Q108 -155 112 -151.5Q116 -148 124 -148H260Q319 -148 348 -129Q377 -110 377 -71V50Q336 20 294.5 6Q253 -8 208 -8ZM227 439Q184 439 161 419.5Q138 400 138 364V130Q138 94 161 74.5Q184 55 227 55Q265 55 303 69Q341 83 377 111V382Q344 409 305 424Q266 439 227 439Z" glyph-name="g" horiz-adv-x="524" unicode="g" /><glyph d="M208 -8Q141 -8 105 25Q69 58 69 120V374Q69 436 105 469Q141 502 208 502Q255 502 298.5 486.5Q342 471 378 441L380 479Q380 487 384 490.5Q388 494 395 494H432Q439 494 442.5 490.5Q446 487 446 479V-77Q446 -142 399.5 -174Q353 -206 260 -206H124Q116 -206 112 -202.5Q108 -199 108 -192V-162Q108 -155 112 -151.5Q116 -148 124 -148H260Q319 -148 348 -129Q377 -110 377 -71V50Q336 20 294.5 6Q253 -8 208 -8ZM227 439Q184 439 161 419.5Q138 400 138 364V130Q138 94 161 74.5Q184 55 227 55Q265 55 303 69Q341 83 377 111V382Q344 409 305 424Q266 439 227 439ZM191 683V666Q191 630 207 614.5Q223 599 258 599Q293 599 309 614Q325 629 325 666V683Q325 691 328 693.5Q331 696 339 696H364Q371 696 374 693Q377 690 377 683V667Q377 610 347.5 582.5Q318 555 257 555Q197 555 168 582Q139 609 139 667V683Q139 690 142 693Q145 696 153 696H178Q185 696 188 693Q191 690 191 683Z" glyph-name="gbreve" horiz-adv-x="524" unicode="&#287;" /><glyph d="M316 582 263 664 210 582Q205 575 200 571.5Q195 568 190 568H158Q150 568 148 572Q146 576 150 582L226 693Q231 701 237 704.5Q243 708 249 708H275Q282 708 287.5 705Q293 702 298 694L376 582Q380 576 377.5 572Q375 568 368 568H336Q330 568 325.5 571.5Q321 575 316 582ZM208 -8Q141 -8 105 25Q69 58 69 120V374Q69 436 105 469Q141 502 208 502Q255 502 298.5 486.5Q342 471 378 441L380 479Q380 487 384 490.5Q388 494 395 494H432Q439 494 442.5 490.5Q446 487 446 479V-77Q446 -142 399.5 -174Q353 -206 260 -206H124Q116 -206 112 -202.5Q108 -199 108 -192V-162Q108 -155 112 -151.5Q116 -148 124 -148H260Q319 -148 348 -129Q377 -110 377 -71V50Q336 20 294.5 6Q253 -8 208 -8ZM227 439Q184 439 161 419.5Q138 400 138 364V130Q138 94 161 74.5Q184 55 227 55Q265 55 303 69Q341 83 377 111V382Q344 409 305 424Q266 439 227 439Z" glyph-name="gcircumflex" horiz-adv-x="524" unicode="&#285;" /><glyph d="M306 718Q282 666 279.5 651Q277 636 277 615V587Q277 579 273.5 575.5Q270 572 262 572H232Q224 572 220.5 575.5Q217 579 217 587V618Q217 645 226.5 674Q236 703 256 736Q260 742 264 744Q268 746 275 744L299 738Q306 736 307.5 730.5Q309 725 306 718ZM208 -8Q141 -8 105 25Q69 58 69 120V374Q69 436 105 469Q141 502 208 502Q255 502 298.5 486.5Q342 471 378 441L380 479Q380 487 384 490.5Q388 494 395 494H432Q439 494 442.5 490.5Q446 487 446 479V-77Q446 -142 399.5 -174Q353 -206 260 -206H124Q116 -206 112 -202.5Q108 -199 108 -192V-162Q108 -155 112 -151.5Q116 -148 124 -148H260Q319 -148 348 -129Q377 -110 377 -71V50Q336 20 294.5 6Q253 -8 208 -8ZM227 439Q184 439 161 419.5Q138 400 138 364V130Q138 94 161 74.5Q184 55 227 55Q265 55 303 69Q341 83 377 111V382Q344 409 305 424Q266 439 227 439Z" glyph-name="gcommaaccent" horiz-adv-x="524" unicode="&#291;" /><glyph d="M208 -8Q141 -8 105 25Q69 58 69 120V374Q69 436 105 469Q141 502 208 502Q255 502 298.5 486.5Q342 471 378 441L380 479Q380 487 384 490.5Q388 494 395 494H432Q439 494 442.5 490.5Q446 487 446 479V-77Q446 -142 399.5 -174Q353 -206 260 -206H124Q116 -206 112 -202.5Q108 -199 108 -192V-162Q108 -155 112 -151.5Q116 -148 124 -148H260Q319 -148 348 -129Q377 -110 377 -71V50Q336 20 294.5 6Q253 -8 208 -8ZM227 439Q184 439 161 419.5Q138 400 138 364V130Q138 94 161 74.5Q184 55 227 55Q265 55 303 69Q341 83 377 111V382Q344 409 305 424Q266 439 227 439ZM290 675V598Q290 590 287 586.5Q284 583 276 583H234Q226 583 223 586.5Q220 590 220 598V675Q220 683 223 686.5Q226 690 234 690H276Q284 690 287 686.5Q290 683 290 675Z" glyph-name="gdotaccent" horiz-adv-x="524" unicode="&#289;" /><glyph d="M301 653Q237 653 205.5 633.5Q174 614 174 574V15Q174 7 170.5 3.5Q167 0 159 0H119Q112 0 108 4Q104 8 104 15V435H41Q34 435 30.5 438.5Q27 442 27 450V474Q27 481 30.5 485Q34 489 41 489L96 492H104V579Q104 643 153 675.5Q202 708 299 708Q396 708 444.5 676Q493 644 493 579V542Q493 511 473 488.5Q453 466 417 455L353 435Q322 425 312 415Q302 405 302 391V386Q302 369 314.5 355Q327 341 356 330L474 284Q520 266 543.5 240.5Q567 215 567 183V119Q567 53 526 22.5Q485 -8 400 -8Q315 -8 277 20.5Q239 49 239 117V127Q239 136 242.5 139.5Q246 143 254 143H282Q290 143 293.5 139Q297 135 297 127V115Q297 74 321.5 57Q346 40 400 40Q453 40 478 57.5Q503 75 503 115V171Q503 188 491 201.5Q479 215 441 230L327 275Q281 293 261.5 317.5Q242 342 242 377V393Q242 422 261.5 443.5Q281 465 318 477L372 494Q402 504 415.5 518Q429 532 429 552V574Q429 614 397.5 633.5Q366 653 301 653Z" glyph-name="germandbls" horiz-adv-x="609" unicode="&#223;" /><glyph d="M173 577 94 693Q89 700 91 704Q93 708 101 708H145Q151 708 155.5 705Q160 702 165 694L232 582Q236 576 234 572Q232 568 225 568H191Q185 568 180.5 570.5Q176 573 173 577Z" glyph-name="grave" horiz-adv-x="331" unicode="`" /><glyph d="M123 747 44 863Q39 870 41 874Q43 878 51 878H95Q101 878 105.5 875Q110 872 115 864L182 752Q186 745 184 741Q182 737 175 737H141Q135 737 130.5 739.5Q126 742 123 747Z" glyph-name="grave.case" horiz-adv-x="224" /><glyph d="M85 212 383 340 85 468Q76 472 73.5 475.5Q71 479 71 485V526Q71 535 75 538.5Q79 542 85 539L438 380Q446 376 448.5 372.5Q451 369 451 363V317Q451 311 449 307.5Q447 304 438 300L85 141Q79 138 75 141.5Q71 145 71 154V195Q71 201 73.5 204.5Q76 208 85 212Z" glyph-name="greater" horiz-adv-x="496" unicode="&gt;" /><glyph d="M94 299 392 406 94 515Q86 518 83 522Q80 526 80 532V573Q80 581 84 584.5Q88 588 94 586L447 447Q454 444 457 440Q460 436 460 430V384Q460 377 457.5 373.5Q455 370 447 367L94 228Q87 225 83.5 228.5Q80 232 80 241V282Q80 288 83 292Q86 296 94 299ZM94 170H445Q453 170 456.5 166.5Q460 163 460 155V125Q460 118 456.5 114Q453 110 445 110H94Q87 110 83.5 113.5Q80 117 80 125V155Q80 163 83 166.5Q86 170 94 170Z" glyph-name="greaterequal" horiz-adv-x="533" unicode="&#8805;" /><glyph d="M245 140 102 245 245 351Q254 357 256.5 362Q259 367 259 373V416Q259 424 255 426Q251 428 245 424L60 285Q51 279 48.5 274Q46 269 46 262V228Q46 221 49 216Q52 211 60 205L245 66Q250 62 254.5 64.5Q259 67 259 74V117Q259 123 255.5 129Q252 135 245 140ZM454 140 311 245 454 351Q463 357 465.5 362Q468 367 468 373V416Q468 424 464 426Q460 428 454 424L269 285Q260 279 257.5 274Q255 269 255 262V228Q255 221 258 216Q261 211 269 205L454 66Q459 62 463.5 64.5Q468 67 468 74V117Q468 123 464.5 129Q461 135 454 140Z" glyph-name="guillemotleft" horiz-adv-x="537" unicode="&#171;" /><glyph d="M83 358 226 253 83 147Q74 141 71.5 136Q69 131 69 125V82Q69 74 73 72Q77 70 83 74L268 213Q277 219 279.5 224Q282 229 282 236V270Q282 277 279 282Q276 287 268 293L83 432Q78 436 73.5 433.5Q69 431 69 424V381Q69 375 72.5 369Q76 363 83 358ZM291 358 434 253 291 147Q282 141 279.5 136Q277 131 277 125V82Q277 74 281 72Q285 70 291 74L476 213Q485 219 487.5 224Q490 229 490 236V270Q490 277 487 282Q484 287 476 293L291 432Q286 436 281.5 433.5Q277 431 277 424V381Q277 375 280.5 369Q284 363 291 358Z" glyph-name="guillemotright" horiz-adv-x="536" unicode="&#187;" /><glyph d="M245 140 102 245 245 351Q254 357 256.5 362Q259 367 259 373V416Q259 424 255 426Q251 428 245 424L60 285Q51 279 48.5 274Q46 269 46 262V228Q46 221 49 216Q52 211 60 205L245 66Q250 62 254.5 64.5Q259 67 259 74V117Q259 123 255.5 129Q252 135 245 140Z" glyph-name="guilsinglleft" horiz-adv-x="328" unicode="&#8249;" /><glyph d="M83 140 226 245 83 351Q74 357 71.5 362Q69 367 69 373V416Q69 424 73 426Q77 428 83 424L268 285Q277 279 279.5 274Q282 269 282 262V228Q282 221 279 216Q276 211 268 205L83 66Q78 62 73.5 64.5Q69 67 69 74V117Q69 123 72.5 129Q76 135 83 140Z" glyph-name="guilsinglright" horiz-adv-x="328" unicode="&#8250;" /><glyph d="M147 684V443Q182 472 225 487Q268 502 316 502Q381 502 418 469Q455 436 455 379V15Q455 7 451.5 3.5Q448 0 441 0H400Q393 0 389 4Q385 8 385 15V364Q385 402 363 421Q341 440 297 440Q257 440 218.5 425.5Q180 411 147 384V15Q147 7 143.5 3.5Q140 0 133 0H92Q85 0 81.5 3.5Q78 7 78 15V684Q78 692 81.5 695.5Q85 699 92 699H133Q140 699 143.5 695.5Q147 692 147 684Z" glyph-name="h" horiz-adv-x="530" unicode="h" /><glyph d="M147 384V15Q147 7 143.5 3.5Q140 0 133 0H92Q85 0 81.5 3.5Q78 7 78 15V559H28Q20 559 16.5 562.5Q13 566 13 574V595Q13 602 16.5 605.5Q20 609 28 609H78V684Q78 692 81.5 695.5Q85 699 92 699H133Q140 699 143.5 695.5Q147 692 147 684V609H289Q297 609 300.5 606Q304 603 304 595V574Q304 566 300.5 562.5Q297 559 289 559H147V443Q182 472 225 487Q268 502 316 502Q381 502 418 469Q455 436 455 379V15Q455 7 451.5 3.5Q448 0 441 0H400Q393 0 389 4Q385 8 385 15V364Q385 402 363 421Q341 440 297 440Q257 440 218.5 425.5Q180 411 147 384Z" glyph-name="hbar" horiz-adv-x="530" unicode="&#295;" /><glyph d="M147 684V443Q182 472 225 487Q268 502 316 502Q381 502 418 469Q455 436 455 379V15Q455 7 451.5 3.5Q448 0 441 0H400Q393 0 389 4Q385 8 385 15V364Q385 402 363 421Q341 440 297 440Q257 440 218.5 425.5Q180 411 147 384V15Q147 7 143.5 3.5Q140 0 133 0H92Q85 0 81.5 3.5Q78 7 78 15V684Q78 692 81.5 695.5Q85 699 92 699H133Q140 699 143.5 695.5Q147 692 147 684ZM166 752 113 834 60 752Q55 744 50.5 741Q46 738 40 738H8Q0 738 -2 742Q-4 746 0 752L77 863Q82 871 88 874.5Q94 878 100 878H126Q133 878 138.5 874.5Q144 871 149 864L226 752Q230 746 228 742Q226 738 218 738H186Q180 738 175.5 741.5Q171 745 166 752Z" glyph-name="hcircumflex" horiz-adv-x="530" unicode="&#293;" /><glyph d="M301 693 224 581Q219 574 214 571Q209 568 203 568H172Q165 568 163 572Q161 576 165 582L235 693Q240 701 245.5 704.5Q251 708 258 708H294Q302 708 304 704Q306 700 301 693ZM186 693 124 582Q119 573 115 570.5Q111 568 104 568H73Q66 568 63.5 572Q61 576 64 582L119 693Q123 700 128 704Q133 708 140 708H176Q184 708 187 703.5Q190 699 186 693Z" glyph-name="hungarumlaut" horiz-adv-x="367" unicode="&#733;" /><glyph d="M230 863 153 751Q148 744 143 741Q138 738 132 738H101Q94 738 92 742Q90 746 94 752L163 863Q168 871 173.5 874.5Q179 878 186 878H223Q231 878 233 874Q235 870 230 863ZM115 863 53 752Q49 744 44.5 741Q40 738 33 738H2Q-5 738 -7.5 742Q-10 746 -7 752L48 863Q52 871 57 874.5Q62 878 69 878H105Q113 878 116 873.5Q119 869 115 863Z" glyph-name="hungarumlaut.case" horiz-adv-x="224" /><glyph d="M82 318H350Q358 318 361.5 314.5Q365 311 365 304V275Q365 267 361.5 263.5Q358 260 350 260H82Q74 260 70.5 263.5Q67 267 67 275V304Q67 312 70.5 315Q74 318 82 318Z" glyph-name="hyphen" horiz-adv-x="432" unicode="-" /><glyph d="M56 181H208Q214 181 216.5 179Q219 177 219 171V148Q219 142 216.5 140Q214 138 208 138H56Q50 138 47.5 140Q45 142 45 148V171Q45 177 47.5 179Q50 181 56 181Z" glyph-name="hyphen.denominator" horiz-adv-x="264" unicode="&#63019;" /><glyph d="M58 487H210Q216 487 218.5 485Q221 483 221 477V454Q221 448 218.5 446Q216 444 210 444H58Q52 444 49.5 446Q47 448 47 454V477Q47 483 49.5 485Q52 487 58 487Z" glyph-name="hyphen.numerator" horiz-adv-x="268" unicode="&#63024;" /><glyph d="M147 479V15Q147 7 143.5 3.5Q140 0 133 0H92Q85 0 81.5 3.5Q78 7 78 15V479Q78 487 81.5 490.5Q85 494 92 494H133Q140 494 143.5 490.5Q147 487 147 479ZM147 684V591Q147 583 143.5 579.5Q140 576 133 576H92Q85 576 81.5 579.5Q78 583 78 591V684Q78 692 81.5 695.5Q85 699 92 699H133Q140 699 143.5 695.5Q147 692 147 684Z" glyph-name="i" horiz-adv-x="224" unicode="i" /><glyph d="M223 693 144 577Q141 573 136.5 570.5Q132 568 126 568H93Q86 568 83.5 572Q81 576 85 582L152 694Q157 702 161.5 705Q166 708 172 708H216Q224 708 226 704Q228 700 223 693ZM147 479V15Q147 7 143.5 3.5Q140 0 133 0H92Q85 0 81.5 3.5Q78 7 78 15V479Q78 487 81.5 490.5Q85 494 92 494H133Q140 494 143.5 490.5Q147 487 147 479Z" glyph-name="iacute" horiz-adv-x="225" unicode="&#237;" /><glyph d="M147 479V15Q147 7 143.5 3.5Q140 0 133 0H92Q85 0 81.5 3.5Q78 7 78 15V479Q78 487 81.5 490.5Q85 494 92 494H133Q140 494 143.5 490.5Q147 487 147 479ZM45 683V666Q45 630 61 614.5Q77 599 112 599Q147 599 163 614Q179 629 179 666V683Q179 691 182 693.5Q185 696 193 696H218Q225 696 228 693Q231 690 231 683V667Q231 610 201.5 582.5Q172 555 111 555Q51 555 22 582Q-7 609 -7 667V683Q-7 690 -4 693Q-1 696 7 696H32Q39 696 42 693Q45 690 45 683Z" glyph-name="ibreve" horiz-adv-x="225" unicode="&#301;" /><glyph d="M167 582 114 664 61 582Q56 575 51 571.5Q46 568 41 568H9Q1 568 -1 572Q-3 576 1 582L77 693Q82 701 88 704.5Q94 708 100 708H126Q133 708 138.5 705Q144 702 149 694L227 582Q231 576 228.5 572Q226 568 219 568H187Q181 568 176.5 571.5Q172 575 167 582ZM147 479V15Q147 7 143.5 3.5Q140 0 133 0H92Q85 0 81.5 3.5Q78 7 78 15V479Q78 487 81.5 490.5Q85 494 92 494H133Q140 494 143.5 490.5Q147 487 147 479Z" glyph-name="icircumflex" horiz-adv-x="225" unicode="&#238;" /><glyph d="M87 688V591Q87 584 84 580.5Q81 577 73 577H48Q40 577 36.5 580.5Q33 584 33 591V688Q33 696 37 699.5Q41 703 48 703H73Q80 703 83.5 699.5Q87 696 87 688ZM194 688V591Q194 584 191 580.5Q188 577 180 577H155Q148 577 144.5 580.5Q141 584 141 591V688Q141 696 144.5 699.5Q148 703 155 703H180Q187 703 190.5 699.5Q194 696 194 688ZM147 479V15Q147 7 143.5 3.5Q140 0 133 0H92Q85 0 81.5 3.5Q78 7 78 15V479Q78 487 81.5 490.5Q85 494 92 494H133Q140 494 143.5 490.5Q147 487 147 479Z" glyph-name="idieresis" horiz-adv-x="225" unicode="&#239;" /><glyph d="M147 479V15Q147 7 143.5 3.5Q140 0 133 0H92Q85 0 81.5 3.5Q78 7 78 15V479Q78 487 81.5 490.5Q85 494 92 494H133Q140 494 143.5 490.5Q147 487 147 479ZM78 577 -1 693Q-6 700 -4 704Q-2 708 6 708H50Q56 708 60.5 705Q65 702 70 694L137 582Q141 576 139 572Q137 568 130 568H96Q90 568 85.5 570.5Q81 573 78 577Z" glyph-name="igrave" horiz-adv-x="225" unicode="&#236;" /><glyph d="M147 479V15Q147 7 143.5 3.5Q140 0 133 0H92Q85 0 81.5 3.5Q78 7 78 15V479Q78 487 81.5 490.5Q85 494 92 494H133Q140 494 143.5 490.5Q147 487 147 479ZM147 684V591Q147 583 143.5 579.5Q140 576 133 576H92Q85 576 81.5 579.5Q78 583 78 591V684Q78 692 81.5 695.5Q85 699 92 699H133Q140 699 143.5 695.5Q147 692 147 684ZM374 684V591Q374 583 370.5 579.5Q367 576 360 576H319Q312 576 308.5 579.5Q305 583 305 591V684Q305 692 308.5 695.5Q312 699 319 699H360Q367 699 370.5 695.5Q374 692 374 684ZM374 479V-77Q374 -141 327 -173.5Q280 -206 187 -206H181Q173 -206 169.5 -202.5Q166 -199 166 -192V-162Q166 -155 169.5 -151.5Q173 -148 181 -148H187Q247 -148 276 -129Q305 -110 305 -71V479Q305 487 308 490.5Q311 494 319 494H359Q367 494 370.5 490.5Q374 487 374 479Z" glyph-name="ij" horiz-adv-x="452" unicode="&#307;" /><glyph d="M147 479V15Q147 7 143.5 3.5Q140 0 133 0H92Q85 0 81.5 3.5Q78 7 78 15V479Q78 487 81.5 490.5Q85 494 92 494H133Q140 494 143.5 490.5Q147 487 147 479ZM-13 651H239Q247 651 250.5 647.5Q254 644 254 637V612Q254 604 250.5 600.5Q247 597 239 597H-13Q-21 597 -24 600.5Q-27 604 -27 612V637Q-27 645 -23.5 648Q-20 651 -13 651Z" glyph-name="imacron" horiz-adv-x="225" unicode="&#299;" /><glyph d="M40 315Q40 320 43 325Q46 330 53 337L167 452Q173 458 178 460.5Q183 463 189 463Q195 463 200 460.5Q205 458 211 452L326 337Q332 331 334.5 326Q337 321 337 315Q337 309 334.5 304Q332 299 326 293L211 178Q205 172 199.5 169Q194 166 189 166Q184 166 178.5 169Q173 172 167 178L53 293Q46 300 43 305Q40 310 40 315ZM189 444Q187 444 185 443Q183 442 180 439L65 324Q62 321 61 319Q60 317 60 315Q60 313 61.5 310.5Q63 308 65 306L180 191Q183 188 185 187Q187 186 189 186Q191 186 192.5 187Q194 188 198 191L314 306Q316 308 317 310.5Q318 313 318 315Q318 317 317 319Q316 321 313 324L198 439Q195 442 193 443Q191 444 189 444Z" glyph-name="infinity" horiz-adv-x="379" unicode="&#8734;" /><glyph d="M188 155Q121 155 75 201Q29 247 29 314Q29 381 75.5 428Q122 475 188 475Q255 475 302 428Q349 381 349 314Q349 248 302 201.5Q255 155 188 155Z" glyph-name="integral" horiz-adv-x="379" unicode="&#8747;" /><glyph d="M141 -154H104Q61 -154 36 -133Q11 -112 11 -74Q11 -45 31 -16Q51 13 83 28V479Q83 487 86.5 490.5Q90 494 97 494H138Q145 494 148.5 490.5Q152 487 152 479V15Q152 7 148.5 3.5Q145 0 138 0H125Q97 -4 81.5 -21Q66 -38 66 -63Q66 -84 79.5 -94.5Q93 -105 120 -105H145Q153 -105 156 -108.5Q159 -112 159 -119V-139Q159 -146 154.5 -150Q150 -154 141 -154ZM152 684V591Q152 583 148.5 579.5Q145 576 138 576H97Q90 576 86.5 579.5Q83 583 83 591V684Q83 692 86.5 695.5Q90 699 97 699H138Q145 699 148.5 695.5Q152 692 152 684Z" glyph-name="iogonek" horiz-adv-x="229" unicode="&#303;" /><glyph d="M147 479V15Q147 7 143.5 3.5Q140 0 133 0H92Q85 0 81.5 3.5Q78 7 78 15V479Q78 487 81.5 490.5Q85 494 92 494H133Q140 494 143.5 490.5Q147 487 147 479ZM183 575Q170 575 155 580Q140 585 128 593L83 625Q72 634 62 638.5Q52 643 46 643Q30 643 24.5 634Q19 625 19 596V588Q19 580 15.5 577Q12 574 4 574H-19Q-26 574 -29 578Q-32 582 -32 591V615Q-32 654 -12 675.5Q8 697 42 697Q55 697 69.5 692Q84 687 97 678L141 646Q153 637 162.5 632.5Q172 628 179 628Q194 628 199.5 637Q205 646 205 676V684Q205 691 209 694Q213 697 221 697H243Q250 697 253 693Q256 689 256 681V656Q256 617 236.5 596Q217 575 183 575Z" glyph-name="itilde" horiz-adv-x="225" unicode="&#297;" /><glyph d="M147 684V591Q147 583 143.5 579.5Q140 576 133 576H92Q85 576 81.5 579.5Q78 583 78 591V684Q78 692 81.5 695.5Q85 699 92 699H133Q140 699 143.5 695.5Q147 692 147 684ZM147 479V-77Q147 -141 100 -173.5Q53 -206 -40 -206H-46Q-54 -206 -57.5 -202.5Q-61 -199 -61 -192V-162Q-61 -155 -57.5 -151.5Q-54 -148 -46 -148H-40Q20 -148 49 -129Q78 -110 78 -71V479Q78 487 81 490.5Q84 494 92 494H132Q140 494 143.5 490.5Q147 487 147 479Z" glyph-name="j" horiz-adv-x="224" unicode="j" /><glyph d="M147 479V-78Q147 -142 100.5 -174.5Q54 -207 -39 -207H-45Q-53 -207 -56.5 -203.5Q-60 -200 -60 -192V-164Q-60 -156 -56.5 -152.5Q-53 -149 -45 -149H-39Q20 -149 49 -130Q78 -111 78 -72V479Q78 487 81.5 490.5Q85 494 92 494H133Q140 494 143.5 490.5Q147 487 147 479ZM166 582 113 664 60 582Q55 575 50 571.5Q45 568 40 568H8Q0 568 -2 572Q-4 576 0 582L76 693Q81 701 87 704.5Q93 708 99 708H125Q132 708 137.5 705Q143 702 148 694L226 582Q230 576 227.5 572Q225 568 218 568H186Q180 568 175.5 571.5Q171 575 166 582Z" glyph-name="jcircumflex" horiz-adv-x="225" unicode="&#309;" /><glyph d="M426 479 237 282 449 15Q453 9 451 4.5Q449 0 442 0H393Q387 0 381.5 3Q376 6 368 15L180 251H147V15Q147 7 143.5 3.5Q140 0 133 0H92Q85 0 81.5 3.5Q78 7 78 15V684Q78 692 81.5 695.5Q85 699 92 699H133Q140 699 143.5 695.5Q147 692 147 684V304H180L349 479Q358 488 363.5 491Q369 494 374 494H419Q427 494 429 489.5Q431 485 426 479Z" glyph-name="k" horiz-adv-x="466" unicode="k" /><glyph d="M178 -195Q202 -143 204.5 -128Q207 -113 207 -92V-64Q207 -56 210.5 -52.5Q214 -49 222 -49H252Q260 -49 263.5 -52.5Q267 -56 267 -64V-95Q267 -122 257.5 -151Q248 -180 228 -213Q224 -219 220 -221Q216 -223 209 -221L185 -215Q178 -213 176.5 -207.5Q175 -202 178 -195ZM426 479 237 282 449 15Q453 9 451 4.5Q449 0 442 0H393Q387 0 381.5 3Q376 6 368 15L180 251H147V15Q147 7 143.5 3.5Q140 0 133 0H92Q85 0 81.5 3.5Q78 7 78 15V684Q78 692 81.5 695.5Q85 699 92 699H133Q140 699 143.5 695.5Q147 692 147 684V304H180L349 479Q358 488 363.5 491Q369 494 374 494H419Q427 494 429 489.5Q431 485 426 479Z" glyph-name="kcommaaccent" horiz-adv-x="466" unicode="&#311;" /><glyph d="M426 479 237 278 449 15Q453 9 451 4.5Q449 0 442 0H393Q387 0 381.5 3Q376 6 368 15L180 247H147V15Q147 7 143.5 3.5Q140 0 133 0H92Q85 0 81.5 3.5Q78 7 78 15V479Q78 487 81.5 490.5Q85 494 92 494H133Q140 494 143.5 490.5Q147 487 147 479V301H180L349 479Q358 488 363.5 491Q369 494 374 494H419Q427 494 429 489.5Q431 485 426 479Z" glyph-name="kgreenlandic" horiz-adv-x="466" unicode="&#312;" /><glyph d="M147 684V15Q147 7 143.5 3.5Q140 0 133 0H92Q85 0 81.5 3.5Q78 7 78 15V684Q78 692 81.5 695.5Q85 699 92 699H133Q140 699 143.5 695.5Q147 692 147 684Z" glyph-name="l" horiz-adv-x="224" unicode="l" /><glyph d="M225 863 146 747Q143 742 138 740Q133 738 127 738H94Q87 738 85 741.5Q83 745 87 752L154 864Q159 872 163 875Q167 878 173 878H217Q225 878 227 873.5Q229 869 225 863ZM147 684V15Q147 7 143.5 3.5Q140 0 133 0H92Q85 0 81.5 3.5Q78 7 78 15V684Q78 692 81.5 695.5Q85 699 92 699H133Q140 699 143.5 695.5Q147 692 147 684Z" glyph-name="lacute" horiz-adv-x="225" unicode="&#314;" /><glyph d="M198 573Q222 625 224.5 640Q227 655 227 676V704Q227 712 230.5 715.5Q234 719 242 719H272Q280 719 283.5 715.5Q287 712 287 704V673Q287 646 277.5 617Q268 588 248 555Q244 549 240 547Q236 545 229 547L205 553Q198 555 196.5 560.5Q195 566 198 573ZM147 684V15Q147 7 143.5 3.5Q140 0 133 0H92Q85 0 81.5 3.5Q78 7 78 15V684Q78 692 81.5 695.5Q85 699 92 699H133Q140 699 143.5 695.5Q147 692 147 684Z" glyph-name="lcaron" horiz-adv-x="241" unicode="&#318;" /><glyph d="M54 -196Q78 -144 80.5 -129Q83 -114 83 -93V-65Q83 -57 86.5 -53.5Q90 -50 98 -50H128Q136 -50 139.5 -53.5Q143 -57 143 -65V-96Q143 -123 133.5 -152Q124 -181 104 -214Q100 -220 96 -222Q92 -224 85 -222L61 -216Q54 -214 52.5 -208.5Q51 -203 54 -196ZM147 684V15Q147 7 143.5 3.5Q140 0 133 0H92Q85 0 81.5 3.5Q78 7 78 15V684Q78 692 81.5 695.5Q85 699 92 699H133Q140 699 143.5 695.5Q147 692 147 684Z" glyph-name="lcommaaccent" horiz-adv-x="225" unicode="&#316;" /><glyph d="M147 684V15Q147 7 143.5 3.5Q140 0 133 0H92Q85 0 81.5 3.5Q78 7 78 15V684Q78 692 81.5 695.5Q85 699 92 699H133Q140 699 143.5 695.5Q147 692 147 684ZM292 393V315Q292 307 289 303.5Q286 300 278 300H237Q229 300 225.5 303.5Q222 307 222 315V393Q222 401 225.5 404.5Q229 408 237 408H278Q285 408 288.5 404.5Q292 401 292 393Z" glyph-name="ldot" horiz-adv-x="287" unicode="&#320;" /><glyph d="M411 469 114 340 411 211Q420 207 423 203.5Q426 200 426 195V155Q426 146 422 142.5Q418 139 411 142L59 301Q50 305 47.5 308.5Q45 312 45 318V363Q45 368 48 371.5Q51 375 59 379L411 538Q418 541 422 537.5Q426 534 426 525V485Q426 480 423 476.5Q420 473 411 469Z" glyph-name="less" horiz-adv-x="500" unicode="&lt;" /><glyph d="M440 515 143 406 440 298Q449 295 452 291Q455 287 455 281V241Q455 233 451 229Q447 225 440 228L88 368Q79 371 76.5 374.5Q74 378 74 384V429Q74 435 76.5 438.5Q79 442 88 445L440 584Q447 587 451 583.5Q455 580 455 572V532Q455 526 452 522Q449 518 440 515ZM90 169H440Q448 169 451.5 165.5Q455 162 455 155V126Q455 119 451.5 115.5Q448 112 440 112H90Q82 112 78.5 115Q75 118 75 126V155Q75 163 78.5 166Q82 169 90 169Z" glyph-name="lessequal" horiz-adv-x="533" unicode="&#8804;" /><glyph d="M175 202Q128 202 95 234.5Q62 267 62 314Q62 361 95 394Q128 427 175 427Q222 427 255 394Q288 361 288 314Q288 268 255 235Q222 202 175 202Z" glyph-name="logicalnot" horiz-adv-x="350" unicode="&#172;" /><glyph d="M41 489 95 492H104V575Q104 639 150.5 671Q197 703 290 703H296Q304 703 307.5 699.5Q311 696 311 688V660Q311 652 307.5 649Q304 646 296 646H290Q231 646 202 627Q173 608 173 568V15Q173 7 169.5 3.5Q166 0 159 0H118Q111 0 107.5 3.5Q104 7 104 15V436H41Q34 436 30.5 439.5Q27 443 27 451V474Q27 482 30.5 485.5Q34 489 41 489Z" glyph-name="longs" horiz-adv-x="271" unicode="&#383;" /><glyph d="M51 315Q51 319 53 323Q55 327 59 331L174 446Q178 450 181.5 451.5Q185 453 189 453Q194 453 197.5 451.5Q201 450 205 446L320 331Q324 327 325.5 323.5Q327 320 327 315Q327 311 325.5 307.5Q324 304 320 300L205 185Q200 180 196.5 178Q193 176 189 176Q186 176 182.5 178Q179 180 174 185L59 300Q55 304 53 307.5Q51 311 51 315Z" glyph-name="lozenge" horiz-adv-x="379" unicode="&#9674;" /><glyph d="M154 0H113Q106 0 102.5 3.5Q99 7 99 15V303L42 280Q35 277 31 279Q27 281 23 288L16 303Q13 309 15.5 313.5Q18 318 25 321L99 352V684Q99 692 102.5 695.5Q106 699 113 699H154Q161 699 164.5 695.5Q168 692 168 684V380L226 404Q232 406 236.5 404Q241 402 244 396L251 381Q254 375 251.5 370Q249 365 242 362L168 332V15Q168 7 164.5 3.5Q161 0 154 0Z" glyph-name="lslash" horiz-adv-x="269" unicode="&#322;" /><glyph d="M92 494H129Q136 494 139.5 490.5Q143 487 143 479L144 442Q181 473 222.5 487.5Q264 502 310 502Q357 502 390 484.5Q423 467 438 434Q479 470 521.5 486Q564 502 612 502Q677 502 714 469Q751 436 751 379V15Q751 7 747.5 3.5Q744 0 736 0H697Q689 0 685 3.5Q681 7 681 15V364Q681 402 659 421Q637 440 593 440Q552 440 514 424.5Q476 409 448 382Q449 379 449 375Q449 371 449 364V15Q449 7 445.5 3.5Q442 0 435 0H394Q387 0 383 4Q379 8 379 15V364Q379 402 357 421Q335 440 291 440Q251 440 214 425.5Q177 411 147 384V15Q147 7 143.5 3.5Q140 0 133 0H92Q85 0 81.5 3.5Q78 7 78 15V479Q78 487 81.5 490.5Q85 494 92 494Z" glyph-name="m" horiz-adv-x="826" unicode="m" /><glyph d="M82 651H334Q342 651 345.5 647.5Q349 644 349 637V612Q349 604 345.5 600.5Q342 597 334 597H82Q74 597 71 600.5Q68 604 68 612V637Q68 645 71.5 648Q75 651 82 651Z" glyph-name="macron" horiz-adv-x="416" unicode="&#175;" /><glyph d="M-13 827H238Q246 827 249.5 823.5Q253 820 253 812V787Q253 780 249.5 776.5Q246 773 238 773H-13Q-21 773 -24.5 776.5Q-28 780 -28 787V812Q-28 820 -24.5 823.5Q-21 827 -13 827Z" glyph-name="macron.case" horiz-adv-x="224" /><glyph d="M94 363H494Q502 363 505.5 359.5Q509 356 509 348V319Q509 311 505.5 307.5Q502 304 494 304H94Q86 304 82.5 307.5Q79 311 79 319V348Q79 356 82.5 359.5Q86 363 94 363Z" glyph-name="minus" horiz-adv-x="588" unicode="&#8722;" /><glyph d="M381 15 379 51Q345 22 303.5 7Q262 -8 215 -8Q193 -8 174 -2.5Q155 3 141 14L145 -191Q145 -199 142 -202.5Q139 -206 131 -206H90Q82 -206 79 -202.5Q76 -199 76 -191V479Q76 487 79.5 490.5Q83 494 90 494H131Q138 494 141.5 490.5Q145 487 145 479V130Q145 92 167.5 73Q190 54 234 54Q272 54 308 67.5Q344 81 378 109V479Q378 487 381.5 490.5Q385 494 392 494H433Q440 494 443.5 490.5Q447 487 447 479V15Q447 7 444 3.5Q441 0 433 0H396Q388 0 384.5 3.5Q381 7 381 15Z" glyph-name="mu" horiz-adv-x="523" unicode="&#181;" /><glyph d="M348 180 230 297 112 180Q106 174 101.5 174Q97 174 91 180L71 201Q65 207 65 211.5Q65 216 71 222L189 339L71 457Q65 463 65 467Q65 471 70 476L91 498Q96 503 100.5 503Q105 503 111 497L230 380L348 498Q354 504 358 504Q362 504 368 498L389 477Q394 472 394 467Q394 462 388 456L270 338L388 221Q394 215 394 210.5Q394 206 388 200L367 179Q362 174 358 174Q354 174 348 180Z" glyph-name="multiply" horiz-adv-x="459" unicode="&#215;" /><glyph d="M92 494H129Q136 494 139.5 490.5Q143 487 143 479L145 441Q181 471 224.5 486.5Q268 502 316 502Q381 502 418 469Q455 436 455 379V15Q455 7 451.5 3.5Q448 0 441 0H400Q393 0 389 4Q385 8 385 15V364Q385 402 363 421Q341 440 297 440Q257 440 218.5 425.5Q180 411 147 384V15Q147 7 143.5 3.5Q140 0 133 0H92Q85 0 81.5 3.5Q78 7 78 15V479Q78 487 81.5 490.5Q85 494 92 494Z" glyph-name="n" horiz-adv-x="530" unicode="n" /><glyph d="M378 693 299 577Q296 573 291.5 570.5Q287 568 281 568H248Q241 568 238.5 572Q236 576 240 582L307 694Q312 702 316.5 705Q321 708 327 708H371Q379 708 381 704Q383 700 378 693ZM92 494H129Q136 494 139.5 490.5Q143 487 143 479L145 441Q181 471 224.5 486.5Q268 502 316 502Q381 502 418 469Q455 436 455 379V15Q455 7 451.5 3.5Q448 0 441 0H400Q393 0 389 4Q385 8 385 15V364Q385 402 363 421Q341 440 297 440Q257 440 218.5 425.5Q180 411 147 384V15Q147 7 143.5 3.5Q140 0 133 0H92Q85 0 81.5 3.5Q78 7 78 15V479Q78 487 81.5 490.5Q85 494 92 494Z" glyph-name="nacute" horiz-adv-x="530" unicode="&#324;" /><glyph d="M46 573Q70 625 72.5 640Q75 655 75 676V704Q75 712 78.5 715.5Q82 719 90 719H120Q128 719 131.5 715.5Q135 712 135 704V673Q135 646 125.5 617Q116 588 96 555Q92 549 88 547Q84 545 77 547L53 553Q46 555 44.5 560.5Q43 566 46 573ZM92 494H129Q136 494 139.5 490.5Q143 487 143 479L145 441Q181 471 224.5 486.5Q268 502 316 502Q381 502 418 469Q455 436 455 379V15Q455 7 451.5 3.5Q448 0 441 0H400Q393 0 389 4Q385 8 385 15V364Q385 402 363 421Q341 440 297 440Q257 440 218.5 425.5Q180 411 147 384V15Q147 7 143.5 3.5Q140 0 133 0H92Q85 0 81.5 3.5Q78 7 78 15V479Q78 487 81.5 490.5Q85 494 92 494Z" glyph-name="napostrophe" horiz-adv-x="530" unicode="&#329;" /><glyph d="M211 693 264 611 317 693Q322 701 327 704.5Q332 708 337 708H369Q376 708 378.5 703.5Q381 699 377 693L299 582Q294 574 288.5 571Q283 568 276 568H250Q243 568 237.5 571.5Q232 575 227 583L151 693Q147 699 149 703.5Q151 708 159 708H191Q196 708 201 704.5Q206 701 211 693ZM92 494H129Q136 494 139.5 490.5Q143 487 143 479L145 441Q181 471 224.5 486.5Q268 502 316 502Q381 502 418 469Q455 436 455 379V15Q455 7 451.5 3.5Q448 0 441 0H400Q393 0 389 4Q385 8 385 15V364Q385 402 363 421Q341 440 297 440Q257 440 218.5 425.5Q180 411 147 384V15Q147 7 143.5 3.5Q140 0 133 0H92Q85 0 81.5 3.5Q78 7 78 15V479Q78 487 81.5 490.5Q85 494 92 494Z" glyph-name="ncaron" horiz-adv-x="530" unicode="&#328;" /><glyph d="M207 -195Q231 -143 233.5 -128Q236 -113 236 -92V-64Q236 -56 239.5 -52.5Q243 -49 251 -49H281Q289 -49 292.5 -52.5Q296 -56 296 -64V-95Q296 -122 286.5 -151Q277 -180 257 -213Q253 -219 249 -221Q245 -223 238 -221L214 -215Q207 -213 205.5 -207.5Q204 -202 207 -195ZM92 494H129Q136 494 139.5 490.5Q143 487 143 479L145 441Q181 471 224.5 486.5Q268 502 316 502Q381 502 418 469Q455 436 455 379V15Q455 7 451.5 3.5Q448 0 441 0H400Q393 0 389 4Q385 8 385 15V364Q385 402 363 421Q341 440 297 440Q257 440 218.5 425.5Q180 411 147 384V15Q147 7 143.5 3.5Q140 0 133 0H92Q85 0 81.5 3.5Q78 7 78 15V479Q78 487 81.5 490.5Q85 494 92 494Z" glyph-name="ncommaaccent" horiz-adv-x="530" unicode="&#326;" /><glyph d="M269 688Q371 688 421 652.5Q471 617 471 542V133Q471 63 420.5 27.5Q370 -8 271 -8Q173 -8 123.5 27.5Q74 63 74 133V151Q74 159 77.5 162.5Q81 166 88 166H129Q136 166 139.5 162.5Q143 159 143 151V142Q143 95 174.5 73Q206 51 271 51Q337 51 368.5 73Q400 95 400 142V324Q383 299 348 287Q313 275 260 275Q163 275 114.5 311Q66 347 66 421V542Q66 617 116 652.5Q166 688 269 688ZM400 425V533Q400 585 368.5 607Q337 629 269 629Q200 629 168 606.5Q136 584 136 533V430Q136 379 168 356.5Q200 334 269 334Q336 334 368 356Q400 378 400 425Z" glyph-name="nine" horiz-adv-x="546" unicode="9" /><glyph d="M156 378Q216 378 246 357Q276 336 276 293V78Q276 39 245.5 17.5Q215 -4 157 -4Q99 -4 69 17Q39 38 39 78V87Q39 93 41.5 95.5Q44 98 49 98H84Q89 98 91.5 95.5Q94 93 94 87V82Q94 61 109.5 50.5Q125 40 157 40Q189 40 204.5 51Q220 62 220 86V172Q210 161 192.5 155Q175 149 149 149Q92 149 63.5 169.5Q35 190 35 230V293Q35 336 65 357Q95 378 156 378ZM156 334Q122 334 106.5 323Q91 312 91 287V240Q91 214 106.5 203Q122 192 156 192Q188 192 204 203Q220 214 220 236V287Q220 312 205 323Q190 334 156 334Z" glyph-name="nine.denominator" horiz-adv-x="315" unicode="&#63070;" /><glyph d="M156 228Q216 228 246 207Q276 186 276 143V-72Q276 -111 245.5 -132.5Q215 -154 157 -154Q99 -154 69 -133Q39 -112 39 -72V-63Q39 -57 41.5 -54.5Q44 -52 49 -52H84Q89 -52 91.5 -54.5Q94 -57 94 -63V-68Q94 -89 109.5 -99.5Q125 -110 157 -110Q189 -110 204.5 -99Q220 -88 220 -64V22Q210 11 192.5 5Q175 -1 149 -1Q92 -1 63.5 19.5Q35 40 35 80V143Q35 186 65 207Q95 228 156 228ZM156 184Q122 184 106.5 173Q91 162 91 137V90Q91 64 106.5 53Q122 42 156 42Q188 42 204 53Q220 64 220 86V137Q220 162 205 173Q190 184 156 184Z" glyph-name="nine.inferior" horiz-adv-x="315" unicode="&#8329;" /><glyph d="M156 684Q216 684 246 663Q276 642 276 599V384Q276 345 245.5 323.5Q215 302 157 302Q99 302 69 323Q39 344 39 384V393Q39 399 41.5 401.5Q44 404 49 404H84Q89 404 91.5 401.5Q94 399 94 393V388Q94 367 109.5 356.5Q125 346 157 346Q189 346 204.5 357Q220 368 220 392V478Q210 467 192.5 461Q175 455 149 455Q92 455 63.5 475.5Q35 496 35 536V599Q35 642 65 663Q95 684 156 684ZM156 640Q122 640 106.5 629Q91 618 91 593V546Q91 520 106.5 509Q122 498 156 498Q188 498 204 509Q220 520 220 542V593Q220 618 205 629Q190 640 156 640Z" glyph-name="nine.numerator" horiz-adv-x="315" unicode="&#63082;" /><glyph d="M156 834Q216 834 246 813Q276 792 276 749V534Q276 495 245.5 473.5Q215 452 157 452Q99 452 69 473Q39 494 39 534V543Q39 549 41.5 551.5Q44 554 49 554H84Q89 554 91.5 551.5Q94 549 94 543V538Q94 517 109.5 506.5Q125 496 157 496Q189 496 204.5 507Q220 518 220 542V628Q210 617 192.5 611Q175 605 149 605Q92 605 63.5 625.5Q35 646 35 686V749Q35 792 65 813Q95 834 156 834ZM156 790Q122 790 106.5 779Q91 768 91 743V696Q91 670 106.5 659Q122 648 156 648Q188 648 204 659Q220 670 220 692V743Q220 768 205 779Q190 790 156 790Z" glyph-name="nine.superior" horiz-adv-x="315" unicode="&#8313;" /><glyph d="M266 688Q368 688 418 652.5Q468 617 468 542V133Q468 63 417.5 27.5Q367 -8 268 -8Q170 -8 120.5 27.5Q71 63 71 133V151Q71 159 74.5 162.5Q78 166 85 166H126Q133 166 136.5 162.5Q140 159 140 151V142Q140 95 171.5 73Q203 51 268 51Q334 51 365.5 73Q397 95 397 142V324Q380 299 345 287Q310 275 257 275Q160 275 111.5 311Q63 347 63 421V542Q63 617 113 652.5Q163 688 266 688ZM397 425V533Q397 585 365.5 607Q334 629 266 629Q197 629 165 606.5Q133 584 133 533V430Q133 379 165 356.5Q197 334 266 334Q333 334 365 356Q397 378 397 425Z" glyph-name="nine.tab" horiz-adv-x="542" unicode="&#65305;" /><glyph d="M280 213 253 144Q250 136 245 132.5Q240 129 233 129H195Q188 129 186 133Q184 137 186 144L213 213H92Q84 213 80.5 216.5Q77 220 77 227V257Q77 264 80.5 267.5Q84 271 92 271H235L281 391H92Q84 391 80.5 394.5Q77 398 77 406V436Q77 443 80.5 446.5Q84 450 92 450H304L330 518Q333 527 337.5 530.5Q342 534 349 534H387Q395 534 397.5 530Q400 526 397 518L371 450H492Q500 450 503 447Q506 444 506 436V406Q506 398 503 394.5Q500 391 492 391H348L302 271H492Q500 271 503 268Q506 265 506 257V227Q506 220 503 216.5Q500 213 492 213Z" glyph-name="notequal" horiz-adv-x="583" unicode="&#8800;" /><glyph d="M92 494H129Q136 494 139.5 490.5Q143 487 143 479L145 441Q181 471 224.5 486.5Q268 502 316 502Q381 502 418 469Q455 436 455 379V15Q455 7 451.5 3.5Q448 0 441 0H400Q393 0 389 4Q385 8 385 15V364Q385 402 363 421Q341 440 297 440Q257 440 218.5 425.5Q180 411 147 384V15Q147 7 143.5 3.5Q140 0 133 0H92Q85 0 81.5 3.5Q78 7 78 15V479Q78 487 81.5 490.5Q85 494 92 494ZM332 579Q319 579 304 584Q289 589 277 597L232 629Q221 638 211 642.5Q201 647 195 647Q179 647 173.5 638Q168 629 168 600V592Q168 584 164.5 581Q161 578 153 578H130Q123 578 120 582Q117 586 117 595V619Q117 658 137 679.5Q157 701 191 701Q204 701 218.5 696Q233 691 246 682L290 650Q302 641 311.5 636.5Q321 632 328 632Q343 632 348.5 641Q354 650 354 680V688Q354 695 358 698Q362 701 370 701H392Q399 701 402 697Q405 693 405 685V660Q405 621 385.5 600Q366 579 332 579Z" glyph-name="ntilde" horiz-adv-x="530" unicode="&#241;" /><glyph d="M63 270H145L175 379H105Q98 379 94 383Q90 387 90 394V417Q90 424 93.5 427.5Q97 431 105 431H190L217 527Q219 534 223.5 538Q228 542 235 542H265Q272 542 275 538Q278 534 276 527L249 431H401L428 527Q430 535 434.5 538.5Q439 542 446 542H476Q483 542 486 538Q489 534 487 527L460 431H521Q529 431 532.5 427.5Q536 424 536 417V394Q536 387 532.5 383Q529 379 521 379H445L415 270H480Q488 270 491 267Q494 264 494 256V234Q494 226 490.5 222.5Q487 219 480 219H400L374 125Q372 116 368 112.5Q364 109 357 109H326Q319 109 316 113Q313 117 315 125L342 219H189L163 125Q161 117 156.5 113Q152 109 145 109H115Q108 109 105 113Q102 117 104 125L130 219H63Q56 219 52.5 222.5Q49 226 49 234V256Q49 264 52.5 267Q56 270 63 270ZM387 379H234L203 270H356Z" glyph-name="numbersign" horiz-adv-x="582" unicode="#" /><glyph d="M256 -8Q162 -8 115 24.5Q68 57 68 121V373Q68 437 115 469.5Q162 502 256 502Q350 502 397.5 469.5Q445 437 445 373V121Q445 57 397.5 24.5Q350 -8 256 -8ZM256 49Q317 49 346.5 68Q376 87 376 126V368Q376 407 346.5 426Q317 445 256 445Q196 445 166.5 426Q137 407 137 368V126Q137 87 166.5 68Q196 49 256 49Z" glyph-name="o" horiz-adv-x="513" unicode="o" /><glyph d="M371 693 292 577Q289 573 284.5 570.5Q280 568 274 568H241Q234 568 231.5 572Q229 576 233 582L300 694Q305 702 309.5 705Q314 708 320 708H364Q372 708 374 704Q376 700 371 693ZM256 -8Q162 -8 115 24.5Q68 57 68 121V373Q68 437 115 469.5Q162 502 256 502Q350 502 397.5 469.5Q445 437 445 373V121Q445 57 397.5 24.5Q350 -8 256 -8ZM256 49Q317 49 346.5 68Q376 87 376 126V368Q376 407 346.5 426Q317 445 256 445Q196 445 166.5 426Q137 407 137 368V126Q137 87 166.5 68Q196 49 256 49Z" glyph-name="oacute" horiz-adv-x="513" unicode="&#243;" /><glyph d="M256 -8Q162 -8 115 24.5Q68 57 68 121V373Q68 437 115 469.5Q162 502 256 502Q350 502 397.5 469.5Q445 437 445 373V121Q445 57 397.5 24.5Q350 -8 256 -8ZM256 49Q317 49 346.5 68Q376 87 376 126V368Q376 407 346.5 426Q317 445 256 445Q196 445 166.5 426Q137 407 137 368V126Q137 87 166.5 68Q196 49 256 49ZM190 683V666Q190 630 206 614.5Q222 599 257 599Q292 599 308 614Q324 629 324 666V683Q324 691 327 693.5Q330 696 338 696H363Q370 696 373 693Q376 690 376 683V667Q376 610 346.5 582.5Q317 555 256 555Q196 555 167 582Q138 609 138 667V683Q138 690 141 693Q144 696 152 696H177Q184 696 187 693Q190 690 190 683Z" glyph-name="obreve" horiz-adv-x="513" unicode="&#335;" /><glyph d="M308 582 255 664 202 582Q197 575 192 571.5Q187 568 182 568H150Q142 568 140 572Q138 576 142 582L218 693Q223 701 229 704.5Q235 708 241 708H267Q274 708 279.5 705Q285 702 290 694L368 582Q372 576 369.5 572Q367 568 360 568H328Q322 568 317.5 571.5Q313 575 308 582ZM256 -8Q162 -8 115 24.5Q68 57 68 121V373Q68 437 115 469.5Q162 502 256 502Q350 502 397.5 469.5Q445 437 445 373V121Q445 57 397.5 24.5Q350 -8 256 -8ZM256 49Q317 49 346.5 68Q376 87 376 126V368Q376 407 346.5 426Q317 445 256 445Q196 445 166.5 426Q137 407 137 368V126Q137 87 166.5 68Q196 49 256 49Z" glyph-name="ocircumflex" horiz-adv-x="513" unicode="&#244;" /><glyph d="M231 688V591Q231 584 228 580.5Q225 577 217 577H192Q184 577 180.5 580.5Q177 584 177 591V688Q177 696 181 699.5Q185 703 192 703H217Q224 703 227.5 699.5Q231 696 231 688ZM338 688V591Q338 584 335 580.5Q332 577 324 577H299Q292 577 288.5 580.5Q285 584 285 591V688Q285 696 288.5 699.5Q292 703 299 703H324Q331 703 334.5 699.5Q338 696 338 688ZM256 -8Q162 -8 115 24.5Q68 57 68 121V373Q68 437 115 469.5Q162 502 256 502Q350 502 397.5 469.5Q445 437 445 373V121Q445 57 397.5 24.5Q350 -8 256 -8ZM256 49Q317 49 346.5 68Q376 87 376 126V368Q376 407 346.5 426Q317 445 256 445Q196 445 166.5 426Q137 407 137 368V126Q137 87 166.5 68Q196 49 256 49Z" glyph-name="odieresis" horiz-adv-x="513" unicode="&#246;" /><glyph d="M560 -8Q504 -8 465.5 3.5Q427 15 406 38Q386 15 349 3.5Q312 -8 256 -8Q162 -8 115 24Q68 56 68 120V373Q68 437 115 469.5Q162 502 256 502Q312 502 349 490.5Q386 479 406 456Q427 479 465.5 490.5Q504 502 560 502Q652 502 696.5 470.5Q741 439 741 373V253Q741 246 738 242.5Q735 239 728 239H444V123Q444 83 472.5 64Q501 45 560 45Q619 45 647.5 64Q676 83 676 123V141Q676 149 679.5 152.5Q683 156 691 156H725Q732 156 735.5 152.5Q739 149 739 141V120Q739 54 695 23Q651 -8 560 -8ZM560 449Q501 449 472.5 430Q444 411 444 371V288H676V371Q676 411 647.5 430Q619 449 560 449ZM256 48Q317 48 346.5 67Q376 86 376 125V369Q376 408 346 427Q316 446 256 446Q196 446 166.5 427Q137 408 137 369V125Q137 86 166.5 67Q196 48 256 48Z" glyph-name="oe" horiz-adv-x="805" unicode="&#339;" /><glyph d="M167 -154H130Q85 -154 58.5 -133Q32 -112 32 -75Q32 -47 48.5 -22Q65 3 97 23Q107 29 113.5 30Q120 31 127 29L145 23Q152 21 153 15.5Q154 10 147 6Q118 -9 102.5 -27Q87 -45 87 -64Q87 -85 101.5 -95Q116 -105 148 -105H167Q175 -105 178.5 -108Q182 -111 182 -119V-139Q182 -147 178.5 -150.5Q175 -154 167 -154Z" glyph-name="ogonek" horiz-adv-x="226" unicode="&#731;" /><glyph d="M256 -8Q162 -8 115 24.5Q68 57 68 121V373Q68 437 115 469.5Q162 502 256 502Q350 502 397.5 469.5Q445 437 445 373V121Q445 57 397.5 24.5Q350 -8 256 -8ZM256 49Q317 49 346.5 68Q376 87 376 126V368Q376 407 346.5 426Q317 445 256 445Q196 445 166.5 426Q137 407 137 368V126Q137 87 166.5 68Q196 49 256 49ZM218 577 139 693Q134 700 136 704Q138 708 146 708H190Q196 708 200.5 705Q205 702 210 694L277 582Q281 576 279 572Q277 568 270 568H236Q230 568 225.5 570.5Q221 573 218 577Z" glyph-name="ograve" horiz-adv-x="513" unicode="&#242;" /><glyph d="M421 693 344 581Q339 574 334 571Q329 568 323 568H292Q285 568 283 572Q281 576 285 582L355 693Q360 701 365.5 704.5Q371 708 378 708H414Q422 708 424 704Q426 700 421 693ZM306 693 244 582Q239 573 235 570.5Q231 568 224 568H193Q186 568 183.5 572Q181 576 184 582L239 693Q243 700 248 704Q253 708 260 708H296Q304 708 307 703.5Q310 699 306 693ZM256 -8Q162 -8 115 24.5Q68 57 68 121V373Q68 437 115 469.5Q162 502 256 502Q350 502 397.5 469.5Q445 437 445 373V121Q445 57 397.5 24.5Q350 -8 256 -8ZM256 49Q317 49 346.5 68Q376 87 376 126V368Q376 407 346.5 426Q317 445 256 445Q196 445 166.5 426Q137 407 137 368V126Q137 87 166.5 68Q196 49 256 49Z" glyph-name="ohungarumlaut" horiz-adv-x="513" unicode="&#337;" /><glyph d="M131 651H383Q391 651 394.5 647.5Q398 644 398 637V612Q398 604 394.5 600.5Q391 597 383 597H131Q123 597 120 600.5Q117 604 117 612V637Q117 645 120.5 648Q124 651 131 651ZM256 -8Q162 -8 115 24.5Q68 57 68 121V373Q68 437 115 469.5Q162 502 256 502Q350 502 397.5 469.5Q445 437 445 373V121Q445 57 397.5 24.5Q350 -8 256 -8ZM256 49Q317 49 346.5 68Q376 87 376 126V368Q376 407 346.5 426Q317 445 256 445Q196 445 166.5 426Q137 407 137 368V126Q137 87 166.5 68Q196 49 256 49Z" glyph-name="omacron" horiz-adv-x="513" unicode="&#333;" /><glyph d="M70 631 286 683Q292 684 296 681Q300 678 300 670V61H458Q466 61 469.5 57.5Q473 54 473 47V15Q473 7 469.5 3.5Q466 0 458 0H69Q61 0 57.5 3.5Q54 7 54 15V47Q54 54 57.5 57.5Q61 61 69 61H228V607L70 568Q63 566 59 569.5Q55 573 55 580V614Q55 621 58.5 625Q62 629 70 631Z" glyph-name="one" horiz-adv-x="499" unicode="1" /><glyph d="M55 350 183 375Q189 376 191.5 374Q194 372 194 366V47H275Q280 47 283 44.5Q286 42 286 37V10Q286 4 283.5 2Q281 0 275 0H55Q49 0 47 2Q45 4 45 10V37Q45 42 47.5 44.5Q50 47 55 47H137V320L55 303Q51 302 48 304.5Q45 307 45 311V338Q45 343 47.5 346Q50 349 55 350Z" glyph-name="one.denominator" horiz-adv-x="315" unicode="&#63062;" /><glyph d="M55 200 183 225Q189 226 191.5 224Q194 222 194 216V-103H275Q280 -103 283 -105.5Q286 -108 286 -113V-140Q286 -146 283.5 -148Q281 -150 275 -150H55Q49 -150 47 -148Q45 -146 45 -140V-113Q45 -108 47.5 -105.5Q50 -103 55 -103H137V170L55 153Q51 152 48 154.5Q45 157 45 161V188Q45 193 47.5 196Q50 199 55 200Z" glyph-name="one.inferior" horiz-adv-x="315" unicode="&#8321;" /><glyph d="M55 656 183 681Q189 682 191.5 680Q194 678 194 672V353H275Q280 353 283 350.5Q286 348 286 343V316Q286 310 283.5 308Q281 306 275 306H55Q49 306 47 308Q45 310 45 316V343Q45 348 47.5 350.5Q50 353 55 353H137V626L55 609Q51 608 48 610.5Q45 613 45 617V644Q45 649 47.5 652Q50 655 55 656Z" glyph-name="one.numerator" horiz-adv-x="315" unicode="&#63074;" /><glyph d="M94 631 310 683Q316 684 320 681Q324 678 324 670V61H482Q490 61 493.5 57.5Q497 54 497 47V15Q497 7 493.5 3.5Q490 0 482 0H93Q85 0 81.5 3.5Q78 7 78 15V47Q78 54 81.5 57.5Q85 61 93 61H252V607L94 568Q87 566 83 569.5Q79 573 79 580V614Q79 621 82.5 625Q86 629 94 631Z" glyph-name="one.tab" horiz-adv-x="542" unicode="&#65297;" /><glyph d="M528 101V47H701Q706 47 708 44.5Q710 42 710 37V10Q710 4 708 2Q706 0 701 0H481Q475 0 473 2Q471 4 471 10V106Q471 129 484.5 145.5Q498 162 524 170L618 201Q636 207 644 216Q652 225 652 239V286Q652 311 636 322Q620 333 586 333Q552 333 536.5 322Q521 311 521 286V263Q521 258 518.5 255.5Q516 253 511 253H475Q470 253 468 255Q466 257 466 263V292Q466 334 497.5 356Q529 378 589 378Q649 378 678.5 356.5Q708 335 708 292V236Q708 210 694 192Q680 174 654 165L558 132Q538 125 533 119Q528 113 528 101ZM62 656 190 681Q196 682 198.5 680Q201 678 201 672V353H282Q287 353 290 350.5Q293 348 293 343V316Q293 310 290.5 308Q288 306 282 306H62Q56 306 54 308Q52 310 52 316V343Q52 348 54.5 350.5Q57 353 62 353H144V626L62 609Q58 608 55 610.5Q52 613 52 617V644Q52 649 54.5 652Q57 655 62 656ZM574 673 262 7Q258 -1 253 -4.5Q248 -8 241 -8H209Q203 -8 201 -3.5Q199 1 202 7L515 673Q518 680 523.5 684Q529 688 536 688H567Q573 688 575 684Q577 680 574 673Z" glyph-name="onehalf" horiz-adv-x="762" unicode="&#189;" /><glyph d="M566 364 497 157H628V364Q628 369 630.5 371.5Q633 374 638 374H674Q679 374 681.5 371.5Q684 369 684 364V10Q684 5 681.5 2.5Q679 0 674 0H638Q633 0 630.5 2.5Q628 5 628 10V111H449Q443 111 440.5 113.5Q438 116 438 122V140Q438 145 438.5 149Q439 153 440 156L511 364Q513 370 515.5 372Q518 374 524 374H558Q564 374 566 371.5Q568 369 566 364ZM62 656 190 681Q196 682 198.5 680Q201 678 201 672V353H282Q287 353 290 350.5Q293 348 293 343V316Q293 310 290.5 308Q288 306 282 306H62Q56 306 54 308Q52 310 52 316V343Q52 348 54.5 350.5Q57 353 62 353H144V626L62 609Q58 608 55 610.5Q52 613 52 617V644Q52 649 54.5 652Q57 655 62 656ZM575 673 263 7Q259 -1 254 -4.5Q249 -8 242 -8H210Q204 -8 202 -3.5Q200 1 203 7L516 673Q519 680 524.5 684Q530 688 537 688H568Q574 688 576 684Q578 680 575 673Z" glyph-name="onequarter" horiz-adv-x="747" unicode="&#188;" /><glyph d="M55 806 183 831Q189 832 191.5 830Q194 828 194 822V503H275Q280 503 283 500.5Q286 498 286 493V466Q286 460 283.5 458Q281 456 275 456H55Q49 456 47 458Q45 460 45 466V493Q45 498 47.5 500.5Q50 503 55 503H137V776L55 759Q51 758 48 760.5Q45 763 45 767V794Q45 799 47.5 802Q50 805 55 806Z" glyph-name="onesuperior" horiz-adv-x="315" unicode="&#185;" /><glyph d="M69 601V610Q69 649 97.5 668.5Q126 688 182 688Q239 688 267.5 668Q296 648 296 608V397Q296 391 293.5 388.5Q291 386 284 386H254Q248 386 245.5 388Q243 390 242 397L240 415Q220 399 196 390Q172 381 146 381Q105 381 83 400Q61 419 61 453V482Q61 514 84 534Q107 554 146 554H239V607Q239 627 225 636.5Q211 646 181 646Q152 646 137.5 637Q123 628 123 609V601Q123 595 120.5 592.5Q118 590 112 590H80Q74 590 71.5 592.5Q69 595 69 601ZM162 424Q182 424 202 432Q222 440 239 454V516H156Q138 516 128 506Q118 496 118 479V461Q118 443 129 433.5Q140 424 162 424Z" glyph-name="ordfeminine" horiz-adv-x="368" unicode="&#170;" /><glyph d="M186 381Q126 381 95.5 401.5Q65 422 65 462V607Q65 646 96 667Q127 688 186 688Q245 688 276 667Q307 646 307 607V462Q307 422 276.5 401.5Q246 381 186 381ZM186 426Q217 426 232.5 436.5Q248 447 248 468V602Q248 623 233 632.5Q218 642 186 642Q154 642 138.5 632Q123 622 123 602V468Q123 447 139 436.5Q155 426 186 426Z" glyph-name="ordmasculine" horiz-adv-x="371" unicode="&#186;" /><glyph d="M137 368V126Q137 117 138.5 109Q140 101 143 94L329 435Q314 440 295.5 442.5Q277 445 256 445Q196 445 166.5 426Q137 407 137 368ZM256 49Q317 49 346.5 68Q376 87 376 126V368Q376 378 374.5 386Q373 394 369 401L183 60Q197 55 215.5 52Q234 49 256 49ZM115 -33H92Q84 -33 82.5 -26.5Q81 -20 86 -11L108 30Q88 46 78 68.5Q68 91 68 121V373Q68 437 115 469.5Q162 502 256 502Q286 502 311.5 498.5Q337 495 358 488L369 508Q376 521 382 525.5Q388 530 396 530H421Q430 530 432 524Q434 518 428 508L404 465Q424 449 434.5 426Q445 403 445 373V121Q445 57 397.5 24.5Q350 -8 256 -8Q226 -8 200 -4.5Q174 -1 153 6L144 -11Q137 -25 131 -29Q125 -33 115 -33Z" glyph-name="oslash" horiz-adv-x="513" unicode="&#248;" /><glyph d="M137 368V126Q137 117 138.5 109Q140 101 143 94L329 435Q314 440 295.5 442.5Q277 445 256 445Q196 445 166.5 426Q137 407 137 368ZM256 49Q317 49 346.5 68Q376 87 376 126V368Q376 378 374.5 386Q373 394 369 401L183 60Q197 55 215.5 52Q234 49 256 49ZM115 -33H92Q84 -33 82.5 -26.5Q81 -20 86 -11L108 30Q88 46 78 68.5Q68 91 68 121V373Q68 437 115 469.5Q162 502 256 502Q286 502 311.5 498.5Q337 495 358 488L369 508Q376 521 382 525.5Q388 530 396 530H421Q430 530 432 524Q434 518 428 508L404 465Q424 449 434.5 426Q445 403 445 373V121Q445 57 397.5 24.5Q350 -8 256 -8Q226 -8 200 -4.5Q174 -1 153 6L144 -11Q137 -25 131 -29Q125 -33 115 -33ZM368 693 289 577Q286 573 281.5 570.5Q277 568 271 568H238Q231 568 228.5 572Q226 576 230 582L297 694Q302 702 306.5 705Q311 708 317 708H361Q369 708 371 704Q373 700 368 693Z" glyph-name="oslashacute" horiz-adv-x="513" unicode="&#511;" /><glyph d="M256 -8Q162 -8 115 24.5Q68 57 68 121V373Q68 437 115 469.5Q162 502 256 502Q350 502 397.5 469.5Q445 437 445 373V121Q445 57 397.5 24.5Q350 -8 256 -8ZM256 49Q317 49 346.5 68Q376 87 376 126V368Q376 407 346.5 426Q317 445 256 445Q196 445 166.5 426Q137 407 137 368V126Q137 87 166.5 68Q196 49 256 49ZM325 575Q312 575 297 580Q282 585 270 593L225 625Q214 634 204 638.5Q194 643 188 643Q172 643 166.5 634Q161 625 161 596V588Q161 580 157.5 577Q154 574 146 574H123Q116 574 113 578Q110 582 110 591V615Q110 654 130 675.5Q150 697 184 697Q197 697 211.5 692Q226 687 239 678L283 646Q295 637 304.5 632.5Q314 628 321 628Q336 628 341.5 637Q347 646 347 676V684Q347 691 351 694Q355 697 363 697H385Q392 697 395 693Q398 689 398 681V656Q398 617 378.5 596Q359 575 325 575Z" glyph-name="otilde" horiz-adv-x="513" unicode="&#245;" /><glyph d="M92 494H129Q136 494 139.5 490.5Q143 487 143 479L145 441Q184 472 226.5 487Q269 502 316 502Q383 502 419 469Q455 436 455 374V120Q455 58 419 25Q383 -8 316 -8Q270 -8 227.5 6.5Q185 21 147 50V-192Q147 -200 144 -203Q141 -206 133 -206H92Q85 -206 81.5 -203Q78 -200 78 -192V479Q78 487 81.5 490.5Q85 494 92 494ZM297 55Q340 55 362.5 74.5Q385 94 385 130V364Q385 400 362.5 419.5Q340 439 297 439Q257 439 219.5 424.5Q182 410 147 382V111Q184 82 221.5 68.5Q259 55 297 55Z" glyph-name="p" horiz-adv-x="524" unicode="p" /><glyph d="M350 666V-191Q350 -199 347 -202.5Q344 -206 336 -206H294Q286 -206 282.5 -202.5Q279 -199 279 -191V282H234Q135 282 88 313.5Q41 345 41 413V549Q41 617 88 648.5Q135 680 234 680H336Q344 680 347 677Q350 674 350 666ZM506 665V-191Q506 -199 503 -202.5Q500 -206 492 -206H449Q441 -206 437.5 -202.5Q434 -199 434 -191V665Q434 673 437.5 676.5Q441 680 449 680H492Q499 680 502.5 676.5Q506 673 506 665Z" glyph-name="paragraph" horiz-adv-x="587" unicode="&#182;" /><glyph d="M76 -89V579Q76 644 122.5 676Q169 708 262 708H269Q277 708 280.5 704.5Q284 701 284 693V664Q284 656 280.5 652.5Q277 649 269 649H262Q203 649 175 630.5Q147 612 147 572V-82Q147 -122 175 -140.5Q203 -159 262 -159H269Q277 -159 280.5 -162.5Q284 -166 284 -174V-203Q284 -211 280.5 -214.5Q277 -218 269 -218H262Q169 -218 122.5 -186Q76 -154 76 -89Z" glyph-name="parenleft" horiz-adv-x="312" unicode="(" /><glyph d="M49 9V368Q49 406 77 425Q105 444 161 444H166Q172 444 175 441.5Q178 439 178 434V410Q178 405 175 402Q172 399 166 399H161Q132 399 119 390.5Q106 382 106 363V14Q106 -5 119.5 -13.5Q133 -22 161 -22H166Q172 -22 175 -24.5Q178 -27 178 -33V-56Q178 -62 175 -64.5Q172 -67 166 -67H161Q105 -67 77 -48Q49 -29 49 9Z" glyph-name="parenleft.denominator" horiz-adv-x="206" unicode="&#63020;" /><glyph d="M49 -141V218Q49 256 77 275Q105 294 161 294H166Q172 294 175 291.5Q178 289 178 284V260Q178 255 175 252Q172 249 166 249H161Q132 249 119 240.5Q106 232 106 213V-136Q106 -155 119.5 -163.5Q133 -172 161 -172H166Q172 -172 175 -174.5Q178 -177 178 -183V-206Q178 -212 175 -214.5Q172 -217 166 -217H161Q105 -217 77 -198Q49 -179 49 -141Z" glyph-name="parenleft.inferior" horiz-adv-x="206" unicode="&#8333;" /><glyph d="M49 315V674Q49 712 77 731Q105 750 161 750H166Q172 750 175 747.5Q178 745 178 740V716Q178 711 175 708Q172 705 166 705H161Q132 705 119 696.5Q106 688 106 669V320Q106 301 119.5 292.5Q133 284 161 284H166Q172 284 175 281.5Q178 279 178 273V250Q178 244 175 241.5Q172 239 166 239H161Q105 239 77 258Q49 277 49 315Z" glyph-name="parenleft.numerator" horiz-adv-x="206" unicode="&#63025;" /><glyph d="M49 465V824Q49 862 77 881Q105 900 161 900H166Q172 900 175 897.5Q178 895 178 890V866Q178 861 175 858Q172 855 166 855H161Q132 855 119 846.5Q106 838 106 819V470Q106 451 119.5 442.5Q133 434 161 434H166Q172 434 175 431.5Q178 429 178 423V400Q178 394 175 391.5Q172 389 166 389H161Q105 389 77 408Q49 427 49 465Z" glyph-name="parenleft.superior" horiz-adv-x="206" unicode="&#8317;" /><glyph d="M235 579V-89Q235 -154 188.5 -186Q142 -218 48 -218H43Q35 -218 31.5 -214.5Q28 -211 28 -203V-174Q28 -166 31.5 -162.5Q35 -159 43 -159H48Q108 -159 136 -140.5Q164 -122 164 -82V572Q164 612 136 630.5Q108 649 48 649H43Q35 649 31.5 652.5Q28 656 28 664V693Q28 701 31.5 704.5Q35 708 43 708H48Q142 708 188.5 676Q235 644 235 579Z" glyph-name="parenright" horiz-adv-x="311" unicode=")" /><glyph d="M101 14V363Q101 382 87.5 390.5Q74 399 44 399H40Q35 399 32 402Q29 405 29 410V434Q29 439 31.5 441.5Q34 444 40 444H44Q100 444 128.5 425Q157 406 157 368V9Q157 -29 128.5 -48Q100 -67 44 -67H40Q34 -67 31.5 -64.5Q29 -62 29 -56V-33Q29 -27 31.5 -24.5Q34 -22 40 -22H44Q73 -22 87 -13.5Q101 -5 101 14Z" glyph-name="parenright.denominator" horiz-adv-x="206" unicode="&#63021;" /><glyph d="M101 -136V213Q101 232 87.5 240.5Q74 249 44 249H40Q35 249 32 252Q29 255 29 260V284Q29 289 31.5 291.5Q34 294 40 294H44Q100 294 128.5 275Q157 256 157 218V-141Q157 -179 128.5 -198Q100 -217 44 -217H40Q34 -217 31.5 -214.5Q29 -212 29 -206V-183Q29 -177 31.5 -174.5Q34 -172 40 -172H44Q73 -172 87 -163.5Q101 -155 101 -136Z" glyph-name="parenright.inferior" horiz-adv-x="206" unicode="&#8334;" /><glyph d="M100 320V669Q100 688 86.5 696.5Q73 705 43 705H39Q34 705 31 708Q28 711 28 716V740Q28 745 30.5 747.5Q33 750 39 750H43Q99 750 127.5 731Q156 712 156 674V315Q156 277 127.5 258Q99 239 43 239H39Q33 239 30.5 241.5Q28 244 28 250V273Q28 279 30.5 281.5Q33 284 39 284H43Q72 284 86 292.5Q100 301 100 320Z" glyph-name="parenright.numerator" horiz-adv-x="205" unicode="&#63026;" /><glyph d="M101 470V819Q101 838 87.5 846.5Q74 855 44 855H40Q35 855 32 858Q29 861 29 866V890Q29 895 31.5 897.5Q34 900 40 900H44Q100 900 128.5 881Q157 862 157 824V465Q157 427 128.5 408Q100 389 44 389H40Q34 389 31.5 391.5Q29 394 29 400V423Q29 429 31.5 431.5Q34 434 40 434H44Q73 434 87 442.5Q101 451 101 470Z" glyph-name="parenright.superior" horiz-adv-x="206" unicode="&#8318;" /><glyph d="M87 194V440Q87 450 97 452.5Q107 455 118 448L304 333Q313 327 313 317.5Q313 308 304 302L118 188Q106 181 96.5 182Q87 183 87 194Z" glyph-name="partialdiff" horiz-adv-x="379" unicode="&#8706;" /><glyph d="M565 -4Q504 -4 472.5 18Q441 40 441 83V266Q441 308 472.5 330.5Q504 353 565 353Q626 353 657 331Q688 309 688 266V83Q688 40 657 18Q626 -4 565 -4ZM565 43Q599 43 615 54.5Q631 66 631 91V258Q631 283 615 294.5Q599 306 565 306Q530 306 514 294.5Q498 283 498 258V91Q498 66 514 54.5Q530 43 565 43ZM176 327Q115 327 84 349Q53 371 53 414V597Q53 640 84 662Q115 684 176 684Q237 684 268 662Q299 640 299 597V414Q299 371 268 349Q237 327 176 327ZM176 374Q210 374 226 385.5Q242 397 242 422V589Q242 614 226 625.5Q210 637 176 637Q141 637 125 625.5Q109 614 109 589V422Q109 397 125.5 385.5Q142 374 176 374ZM553 673 241 7Q237 -1 232 -4.5Q227 -8 220 -8H188Q182 -8 180 -3.5Q178 1 181 7L494 673Q497 680 502.5 684Q508 688 515 688H546Q552 688 554 684Q556 680 553 673Z" glyph-name="percent" horiz-adv-x="741" unicode="%" /><glyph d="M139 93V15Q139 7 136 3.5Q133 0 125 0H84Q76 0 72.5 3.5Q69 7 69 15V93Q69 101 72.5 104.5Q76 108 84 108H125Q132 108 135.5 104.5Q139 101 139 93Z" glyph-name="period" horiz-adv-x="208" unicode="." /><glyph d="M103 55V11Q103 5 100.5 2.5Q98 0 92 0H58Q52 0 49.5 2.5Q47 5 47 11V55Q47 60 49.5 62.5Q52 65 58 65H92Q98 65 100.5 62.5Q103 60 103 55Z" glyph-name="period.denominator" horiz-adv-x="150" unicode="&#63072;" /><glyph d="M103 361V317Q103 311 100.5 308.5Q98 306 92 306H58Q52 306 49.5 308.5Q47 311 47 317V361Q47 366 49.5 368.5Q52 371 58 371H92Q98 371 100.5 368.5Q103 366 103 361Z" glyph-name="period.numerator" horiz-adv-x="150" unicode="&#63084;" /><glyph d="M144 304V226Q144 218 141 214.5Q138 211 130 211H89Q81 211 77.5 214.5Q74 218 74 226V304Q74 312 77.5 315.5Q81 319 89 319H130Q137 319 140.5 315.5Q144 312 144 304Z" glyph-name="periodcentered" horiz-adv-x="218" unicode="&#183;" /><glyph d="M565 -4Q504 -4 472.5 18Q441 40 441 83V266Q441 308 472.5 330.5Q504 353 565 353Q626 353 657 331Q688 309 688 266V83Q688 40 657 18Q626 -4 565 -4ZM565 43Q599 43 615 54.5Q631 66 631 91V258Q631 283 615 294.5Q599 306 565 306Q530 306 514 294.5Q498 283 498 258V91Q498 66 514 54.5Q530 43 565 43ZM176 327Q115 327 84 349Q53 371 53 414V597Q53 640 84 662Q115 684 176 684Q237 684 268 662Q299 640 299 597V414Q299 371 268 349Q237 327 176 327ZM176 374Q210 374 226 385.5Q242 397 242 422V589Q242 614 226 625.5Q210 637 176 637Q141 637 125 625.5Q109 614 109 589V422Q109 397 125.5 385.5Q142 374 176 374ZM874 -4Q813 -4 781.5 18Q750 40 750 83V266Q750 308 781.5 330.5Q813 353 874 353Q934 353 965 331Q996 309 996 266V83Q996 40 965.5 18Q935 -4 874 -4ZM874 43Q908 43 924 54.5Q940 66 940 91V258Q940 283 924 294.5Q908 306 874 306Q839 306 823 295Q807 284 807 258V91Q807 65 823 54Q839 43 874 43ZM553 673 241 7Q237 -1 232 -4.5Q227 -8 220 -8H188Q182 -8 180 -3.5Q178 1 181 7L494 673Q497 680 502.5 684Q508 688 515 688H546Q552 688 554 684Q556 680 553 673Z" glyph-name="perthousand" horiz-adv-x="1049" unicode="&#8240;" /><glyph d="M56 432H301Q312 432 314 422.5Q316 413 309 401L195 215Q189 206 179.5 206Q170 206 164 215L49 401Q42 412 43.5 422Q45 432 56 432Z" glyph-name="pi" horiz-adv-x="358" unicode="&#960;" /></font>
</defs>
</svg>
