<?xml version="1.0" standalone="no"?><!DOCTYPE svg PUBLIC "-//W3C//DTD SVG 1.1//EN" "http://www.w3.org/Graphics/SVG/1.1/DTD/svg11.dtd" ><svg version="1.1" xmlns="http://www.w3.org/2000/svg"><defs><font horiz-adv-x="0" id="font"><font-face ascent="750" bbox="-137.1429 -218 1419 964" cap-height="680" descent="-250" font-family="Web use ONLY | Copyright (C) Emtype Foundry" font-stretch="normal" font-weight="300" units-per-em="1000" x-height="493" /><missing-glyph d="M782 341Q782 271 755.5 207Q729 143 679 94Q629 45 565 18.5Q501 -8 430 -8Q362 -8 297.5 18.5Q233 45 184 94Q134 143 107.5 207.5Q81 272 81 341Q81 410 108 474.5Q135 539 184 588Q233 637 297 663.5Q361 690 430 690Q500 690 565 663.5Q630 637 679 588Q728 539 755 474Q782 409 782 341ZM430 8Q497 8 558.5 33.5Q620 59 667 106Q715 154 740.5 215Q766 276 766 341Q766 406 740.5 467Q715 528 667 576Q620 623 558.5 648.5Q497 674 430 674Q364 674 303.5 648.5Q243 623 196 576Q148 528 122.5 467.5Q97 407 97 341Q97 275 122.5 214Q148 153 196 106Q244 59 304.5 33.5Q365 8 430 8ZM554 188 431 311 309 189Q304 184 300.5 184Q297 184 292 189L278 203Q274 208 274 212Q274 216 278 220L400 342L278 465Q274 470 274 473.5Q274 477 278 481L293 496Q298 501 301.5 501Q305 501 309 496L431 373L555 496Q560 500 563.5 500Q567 500 571 496L586 481Q591 476 591 473Q591 470 586 465L463 342L585 219Q590 214 590 210.5Q590 207 585 202L571 188Q567 184 563 184Q559 184 554 188Z" horiz-adv-x="862" /><glyph glyph-name=".null" horiz-adv-x="0" /><glyph d="M247 680H278Q284 680 287.5 677Q291 674 293 668L496 12Q498 6 495.5 3Q493 0 487 0H456Q451 0 447.5 2.5Q444 5 442 12L381 206H140L81 12Q79 5 76 2.5Q73 0 67 0H38Q32 0 29.5 3Q27 6 29 12L232 668Q234 674 237.5 677Q241 680 247 680ZM153 249H369L286 517Q279 540 271.5 572Q264 604 261 624Q256 596 249.5 565Q243 534 238 519Z" glyph-name="A" horiz-adv-x="525" unicode="A" /><glyph d="M415 680H752Q758 680 761 677.5Q764 675 764 669V647Q764 641 761 638.5Q758 636 752 636H452V380H734Q740 380 743 377Q746 374 746 368V348Q746 342 743 339Q740 336 734 336H452V45H764Q770 45 773 42Q776 39 776 33V12Q776 6 773 3Q770 0 764 0H417Q408 0 404.5 3Q401 6 401 12V206H181L69 12Q64 4 61.5 2Q59 0 55 0H27Q20 0 17.5 3.5Q15 7 18 12L398 668Q402 674 406 677Q410 680 415 680ZM369 530 207 249H401V590Q395 577 387 562Q379 547 369 530Z" glyph-name="AE" horiz-adv-x="826" unicode="&#198;" /><glyph d="M415 680H752Q758 680 761 677.5Q764 675 764 669V647Q764 641 761 638.5Q758 636 752 636H452V380H734Q740 380 743 377Q746 374 746 368V348Q746 342 743 339Q740 336 734 336H452V45H764Q770 45 773 42Q776 39 776 33V12Q776 6 773 3Q770 0 764 0H417Q408 0 404.5 3Q401 6 401 12V206H181L69 12Q64 4 61.5 2Q59 0 55 0H27Q20 0 17.5 3.5Q15 7 18 12L398 668Q402 674 406 677Q410 680 415 680ZM369 530 207 249H401V590Q395 577 387 562Q379 547 369 530ZM560 866 479 747Q477 744 473.5 742Q470 740 465 740H440Q434 740 432.5 743Q431 746 434 751L507 868Q511 874 514 876Q517 878 522 878H554Q561 878 562.5 875Q564 872 560 866Z" glyph-name="AEacute" horiz-adv-x="825" unicode="&#508;" /><glyph d="M247 680H278Q284 680 287.5 677Q291 674 293 668L496 12Q498 6 495.5 3Q493 0 487 0H456Q451 0 447.5 2.5Q444 5 442 12L381 206H140L81 12Q79 5 76 2.5Q73 0 67 0H38Q32 0 29.5 3Q27 6 29 12L232 668Q234 674 237.5 677Q241 680 247 680ZM153 249H369L286 517Q279 540 271.5 572Q264 604 261 624Q256 596 249.5 565Q243 534 238 519ZM370 866 289 747Q287 744 283.5 742Q280 740 275 740H250Q244 740 242.5 743Q241 746 244 751L317 868Q321 874 324 876Q327 878 332 878H364Q371 878 372.5 875Q374 872 370 866Z" glyph-name="Aacute" horiz-adv-x="525" unicode="&#193;" /><glyph d="M247 680H278Q284 680 287.5 677Q291 674 293 668L496 12Q498 6 495.5 3Q493 0 487 0H456Q451 0 447.5 2.5Q444 5 442 12L381 206H140L81 12Q79 5 76 2.5Q73 0 67 0H38Q32 0 29.5 3Q27 6 29 12L232 668Q234 674 237.5 677Q241 680 247 680ZM153 249H369L286 517Q279 540 271.5 572Q264 604 261 624Q256 596 249.5 565Q243 534 238 519ZM189 868V851Q189 810 206.5 793.5Q224 777 262 777Q301 777 318.5 793.5Q336 810 336 851V868Q336 874 338.5 876.5Q341 879 347 879H365Q371 879 373.5 876.5Q376 874 376 868V852Q376 795 348 769Q320 743 261 743Q203 743 176 768.5Q149 794 149 852V868Q149 874 151.5 876.5Q154 879 160 879H178Q184 879 186.5 876.5Q189 874 189 868Z" glyph-name="Abreve" horiz-adv-x="525" unicode="&#258;" /><glyph d="M247 680H278Q284 680 287.5 677Q291 674 293 668L496 12Q498 6 495.5 3Q493 0 487 0H456Q451 0 447.5 2.5Q444 5 442 12L381 206H140L81 12Q79 5 76 2.5Q73 0 67 0H38Q32 0 29.5 3Q27 6 29 12L232 668Q234 674 237.5 677Q241 680 247 680ZM153 249H369L286 517Q279 540 271.5 572Q264 604 261 624Q256 596 249.5 565Q243 534 238 519ZM323 752 262 844 202 752Q198 745 194 742.5Q190 740 185 740H162Q156 740 154 743.5Q152 747 156 752L234 866Q238 872 242.5 875Q247 878 252 878H272Q277 878 281.5 875Q286 872 290 867L369 752Q372 747 370.5 743.5Q369 740 363 740H339Q335 740 331 743Q327 746 323 752Z" glyph-name="Acircumflex" horiz-adv-x="525" unicode="&#194;" /><glyph d="M247 680H278Q284 680 287.5 677Q291 674 293 668L496 12Q498 6 495.5 3Q493 0 487 0H456Q451 0 447.5 2.5Q444 5 442 12L381 206H140L81 12Q79 5 76 2.5Q73 0 67 0H38Q32 0 29.5 3Q27 6 29 12L232 668Q234 674 237.5 677Q241 680 247 680ZM153 249H369L286 517Q279 540 271.5 572Q264 604 261 624Q256 596 249.5 565Q243 534 238 519ZM234 857V759Q234 753 231.5 750Q229 747 223 747H205Q199 747 196 750Q193 753 193 759V857Q193 863 196 866Q199 869 205 869H223Q229 869 231.5 866Q234 863 234 857ZM332 857V759Q332 753 329.5 750Q327 747 321 747H303Q297 747 294 750Q291 753 291 759V857Q291 863 294 866Q297 869 303 869H321Q327 869 329.5 866Q332 863 332 857Z" glyph-name="Adieresis" horiz-adv-x="525" unicode="&#196;" /><glyph d="M247 680H278Q284 680 287.5 677Q291 674 293 668L496 12Q498 6 495.5 3Q493 0 487 0H456Q451 0 447.5 2.5Q444 5 442 12L381 206H140L81 12Q79 5 76 2.5Q73 0 67 0H38Q32 0 29.5 3Q27 6 29 12L232 668Q234 674 237.5 677Q241 680 247 680ZM153 249H369L286 517Q279 540 271.5 572Q264 604 261 624Q256 596 249.5 565Q243 534 238 519ZM235 747 154 866Q150 871 151.5 874.5Q153 878 159 878H191Q196 878 199.5 876Q203 874 207 867L279 751Q282 746 281 742.5Q280 739 274 739H249Q245 739 241.5 741Q238 743 235 747Z" glyph-name="Agrave" horiz-adv-x="525" unicode="&#192;" /><glyph d="M247 680H278Q284 680 287.5 677Q291 674 293 668L496 12Q498 6 495.5 3Q493 0 487 0H456Q451 0 447.5 2.5Q444 5 442 12L381 206H140L81 12Q79 5 76 2.5Q73 0 67 0H38Q32 0 29.5 3Q27 6 29 12L232 668Q234 674 237.5 677Q241 680 247 680ZM153 249H369L286 517Q279 540 271.5 572Q264 604 261 624Q256 596 249.5 565Q243 534 238 519ZM134 820H391Q398 820 400.5 817.5Q403 815 403 809V791Q403 785 400 782Q397 779 391 779H134Q128 779 125 782Q122 785 122 791V809Q122 815 125 817.5Q128 820 134 820Z" glyph-name="Amacron" horiz-adv-x="525" unicode="&#256;" /><glyph d="M247 680H278Q284 680 287.5 677Q291 674 293 668L496 12Q498 6 495.5 3Q493 0 487 0H477Q445 -6 427 -24.5Q409 -43 409 -68Q409 -90 423.5 -100.5Q438 -111 467 -111H490Q496 -111 499 -114Q502 -117 502 -123V-137Q502 -143 498 -146Q494 -149 487 -149H456Q413 -149 390 -130Q367 -111 367 -75Q367 -48 386 -21Q405 6 438 22L381 206H140L81 12Q79 5 76 2.5Q73 0 67 0H38Q32 0 29.5 3Q27 6 29 12L232 668Q234 674 237.5 677Q241 680 247 680ZM153 249H369L286 517Q279 539 270.5 574.5Q262 610 261 623Q255 589 249 561.5Q243 534 238 519Z" glyph-name="Aogonek" horiz-adv-x="525" unicode="&#260;" /><glyph d="M247 680H278Q284 680 287.5 677Q291 674 293 668L496 12Q498 6 495.5 3Q493 0 487 0H456Q451 0 447.5 2.5Q444 5 442 12L381 206H140L81 12Q79 5 76 2.5Q73 0 67 0H38Q32 0 29.5 3Q27 6 29 12L232 668Q234 674 237.5 677Q241 680 247 680ZM153 249H369L286 517Q279 540 271.5 572Q264 604 261 624Q256 596 249.5 565Q243 534 238 519ZM262 884Q307 884 330.5 865Q354 846 354 811V796Q354 761 330.5 742Q307 723 262 723Q218 723 194.5 742Q171 761 171 796V811Q171 846 194.5 865Q218 884 262 884ZM262 753Q290 753 305 765.5Q320 778 320 800V807Q320 829 305 841.5Q290 854 262 854Q234 854 219.5 842Q205 830 205 807V800Q205 777 219.5 765Q234 753 262 753Z" glyph-name="Aring" horiz-adv-x="525" unicode="&#197;" /><glyph d="M261 723Q217 723 193.5 742Q170 761 170 796V811Q170 844 190.5 862.5Q211 881 250 884L292 954Q296 960 299.5 962Q303 964 308 964H340Q347 964 348.5 960.5Q350 957 346 952L296 880Q324 874 338.5 856Q353 838 353 811V796Q353 761 329.5 742Q306 723 261 723ZM261 753Q289 753 304 765.5Q319 778 319 800V807Q319 829 304 841.5Q289 854 261 854Q233 854 218.5 842Q204 830 204 807V800Q204 777 218.5 765Q233 753 261 753ZM153 249H369L286 517Q279 540 271.5 571Q264 602 261 624Q257 601 250 568Q243 535 238 519ZM247 680H278Q284 680 288 677Q292 674 293 668L496 12Q498 6 495.5 3Q493 0 487 0H456Q450 0 447 3Q444 6 442 12L381 206H140L81 12Q79 6 76 3Q73 0 67 0H38Q32 0 29.5 3Q27 6 29 12L232 668Q234 674 237.5 677Q241 680 247 680Z" glyph-name="Aringacute" horiz-adv-x="525" unicode="&#506;" /><glyph d="M247 680H278Q284 680 287.5 677Q291 674 293 668L496 12Q498 6 495.5 3Q493 0 487 0H456Q451 0 447.5 2.5Q444 5 442 12L381 206H140L81 12Q79 5 76 2.5Q73 0 67 0H38Q32 0 29.5 3Q27 6 29 12L232 668Q234 674 237.5 677Q241 680 247 680ZM153 249H369L286 517Q279 540 271.5 572Q264 604 261 624Q256 596 249.5 565Q243 534 238 519ZM328 796Q347 796 353 806.5Q359 817 359 850V859Q359 865 362 867.5Q365 870 372 870H388Q394 870 396.5 867Q399 864 399 857V838Q399 798 381 776.5Q363 755 330 755Q318 755 304 760.5Q290 766 278 775L233 811Q223 819 213.5 823.5Q204 828 197 828Q178 828 172 817.5Q166 807 166 774V765Q166 759 163 756.5Q160 754 153 754H136Q131 754 128.5 757Q126 760 126 768V787Q126 827 143.5 848Q161 869 194 869Q208 869 221.5 864Q235 859 246 850L292 813Q304 804 312.5 800Q321 796 328 796Z" glyph-name="Atilde" horiz-adv-x="525" unicode="&#195;" /><glyph d="M303 0H108Q102 0 99 3Q96 6 96 12V668Q96 674 99 677Q102 680 108 680H277Q382 680 434 646Q486 612 486 543V475Q486 429 462.5 399.5Q439 370 391 356Q452 344 482 313Q512 282 512 232V140Q512 69 460 34.5Q408 0 303 0ZM303 330H149V45H303Q382 45 420.5 70Q459 95 459 147V229Q459 280 420.5 305Q382 330 303 330ZM277 635H149V373H288Q361 373 397 398.5Q433 424 433 476V536Q433 587 395 611Q357 635 277 635Z" glyph-name="B" horiz-adv-x="578" unicode="B" /><glyph d="M493 198V133Q493 61 442.5 26.5Q392 -8 289 -8Q186 -8 135.5 26.5Q85 61 85 133V547Q85 619 135.5 653.5Q186 688 289 688Q392 688 442.5 653.5Q493 619 493 547V495Q493 488 490.5 485Q488 482 482 482H453Q447 482 444 485Q441 488 441 495V539Q441 592 404 617Q367 642 289 642Q212 642 175 617Q138 592 138 539V141Q138 88 175 63Q212 38 289 38Q367 38 404 63Q441 88 441 141V198Q441 204 444 206.5Q447 209 453 209H482Q488 209 490.5 206.5Q493 204 493 198Z" glyph-name="C" horiz-adv-x="548" unicode="C" /><glyph glyph-name="CR" horiz-adv-x="0" unicode="" /><glyph d="M493 198V133Q493 61 442.5 26.5Q392 -8 289 -8Q186 -8 135.5 26.5Q85 61 85 133V547Q85 619 135.5 653.5Q186 688 289 688Q392 688 442.5 653.5Q493 619 493 547V495Q493 488 490.5 485Q488 482 482 482H453Q447 482 444 485Q441 488 441 495V539Q441 592 404 617Q367 642 289 642Q212 642 175 617Q138 592 138 539V141Q138 88 175 63Q212 38 289 38Q367 38 404 63Q441 88 441 141V198Q441 204 444 206.5Q447 209 453 209H482Q488 209 490.5 206.5Q493 204 493 198ZM380 866 299 747Q297 744 293.5 742Q290 740 285 740H260Q254 740 252.5 743Q251 746 254 751L327 868Q331 874 334 876Q337 878 342 878H374Q381 878 382.5 875Q384 872 380 866Z" glyph-name="Cacute" horiz-adv-x="548" unicode="&#262;" /><glyph d="M493 198V133Q493 61 442.5 26.5Q392 -8 289 -8Q186 -8 135.5 26.5Q85 61 85 133V547Q85 619 135.5 653.5Q186 688 289 688Q392 688 442.5 653.5Q493 619 493 547V495Q493 488 490.5 485Q488 482 482 482H453Q447 482 444 485Q441 488 441 495V539Q441 592 404 617Q367 642 289 642Q212 642 175 617Q138 592 138 539V141Q138 88 175 63Q212 38 289 38Q367 38 404 63Q441 88 441 141V198Q441 204 444 206.5Q447 209 453 209H482Q488 209 490.5 206.5Q493 204 493 198ZM223 866 283 774 344 866Q348 872 352 875Q356 878 360 878H384Q390 878 391.5 874.5Q393 871 390 866L311 751Q307 746 302.5 743Q298 740 293 740H273Q268 740 263.5 743Q259 746 255 752L177 866Q173 871 175 874.5Q177 878 183 878H206Q211 878 215 875.5Q219 873 223 866Z" glyph-name="Ccaron" horiz-adv-x="548" unicode="&#268;" /><glyph d="M392 -132Q392 -169 369.5 -190Q347 -211 310 -211H192Q186 -211 183 -208Q180 -205 180 -199V-188Q180 -182 183 -179Q186 -176 192 -176H304Q327 -176 339.5 -165Q352 -154 352 -132Q352 -111 340 -100Q328 -89 304 -89H245Q235 -89 231 -85Q227 -81 229 -74L248 -6Q166 0 125.5 34.5Q85 69 85 133V547Q85 619 135.5 653.5Q186 688 289 688Q392 688 442.5 653.5Q493 619 493 547V495Q493 488 490.5 485Q488 482 482 482H453Q447 482 444 485Q441 488 441 495V539Q441 592 404 617Q367 642 289 642Q212 642 175 617Q138 592 138 539V141Q138 88 175 63Q212 38 289 38Q367 38 404 63Q441 88 441 141V198Q441 204 444 206.5Q447 209 453 209H482Q488 209 490.5 206.5Q493 204 493 198V133Q493 61 442.5 26.5Q392 -8 289 -8Q288 -8 287 -8Q286 -8 285 -8L271 -54H310Q348 -54 370 -74.5Q392 -95 392 -132Z" glyph-name="Ccedilla" horiz-adv-x="549" unicode="&#199;" /><glyph d="M493 198V133Q493 61 442.5 26.5Q392 -8 289 -8Q186 -8 135.5 26.5Q85 61 85 133V547Q85 619 135.5 653.5Q186 688 289 688Q392 688 442.5 653.5Q493 619 493 547V495Q493 488 490.5 485Q488 482 482 482H453Q447 482 444 485Q441 488 441 495V539Q441 592 404 617Q367 642 289 642Q212 642 175 617Q138 592 138 539V141Q138 88 175 63Q212 38 289 38Q367 38 404 63Q441 88 441 141V198Q441 204 444 206.5Q447 209 453 209H482Q488 209 490.5 206.5Q493 204 493 198ZM345 752 284 844 224 752Q220 745 216 742.5Q212 740 207 740H184Q178 740 176 743.5Q174 747 178 752L256 866Q260 872 264.5 875Q269 878 274 878H294Q299 878 303.5 875Q308 872 312 867L391 752Q394 747 392.5 743.5Q391 740 385 740H361Q357 740 353 743Q349 746 345 752Z" glyph-name="Ccircumflex" horiz-adv-x="548" unicode="&#264;" /><glyph d="M310 838V761Q310 755 307 752Q304 749 298 749H269Q263 749 260 752Q257 755 257 761V838Q257 844 260 847Q263 850 269 850H298Q305 850 307.5 847.5Q310 845 310 838ZM493 198V133Q493 61 442.5 26.5Q392 -8 289 -8Q186 -8 135.5 26.5Q85 61 85 133V547Q85 619 135.5 653.5Q186 688 289 688Q392 688 442.5 653.5Q493 619 493 547V495Q493 488 490.5 485Q488 482 482 482H453Q447 482 444 485Q441 488 441 495V539Q441 592 404 617Q367 642 289 642Q212 642 175 617Q138 592 138 539V141Q138 88 175 63Q212 38 289 38Q367 38 404 63Q441 88 441 141V198Q441 204 444 206.5Q447 209 453 209H482Q488 209 490.5 206.5Q493 204 493 198Z" glyph-name="Cdotaccent" horiz-adv-x="548" unicode="&#266;" /><glyph d="M305 0H107Q101 0 98.5 3Q96 6 96 12V668Q96 674 99 677Q102 680 107 680H305Q409 680 461.5 644.5Q514 609 514 539V141Q514 71 461.5 35.5Q409 0 305 0ZM305 634H149V46H305Q384 46 422.5 71.5Q461 97 461 149V531Q461 583 422.5 608.5Q384 634 305 634Z" glyph-name="D" horiz-adv-x="598" unicode="D" /><glyph d="M305 0H107Q101 0 98.5 3Q96 6 96 12V668Q96 674 99 677Q102 680 107 680H305Q409 680 461.5 644.5Q514 609 514 539V141Q514 71 461.5 35.5Q409 0 305 0ZM305 634H149V46H305Q384 46 422.5 71.5Q461 97 461 149V531Q461 583 422.5 608.5Q384 634 305 634ZM236 866 296 774 357 866Q361 872 365 875Q369 878 373 878H397Q403 878 404.5 874.5Q406 871 403 866L324 751Q320 746 315.5 743Q311 740 306 740H286Q281 740 276.5 743Q272 746 268 752L190 866Q186 871 188 874.5Q190 878 196 878H219Q224 878 228 875.5Q232 873 236 866Z" glyph-name="Dcaron" horiz-adv-x="598" unicode="&#270;" /><glyph d="M313 0H115Q109 0 106.5 3Q104 6 104 12V324H31Q25 324 22 327Q19 330 19 336V354Q19 360 22 362.5Q25 365 31 365H104V668Q104 674 107 677Q110 680 115 680H313Q417 680 469.5 644.5Q522 609 522 539V141Q522 71 469.5 35.5Q417 0 313 0ZM157 324V46H313Q392 46 430.5 71.5Q469 97 469 149V531Q469 583 430.5 608.5Q392 634 313 634H157V365H300Q306 365 309 362.5Q312 360 312 354V336Q312 330 309 327Q306 324 300 324Z" glyph-name="Dcroat" horiz-adv-x="605" unicode="&#272;" /><glyph d="M108 414H265Q276 414 281 409Q286 404 286 392V235Q286 224 281 219Q276 214 265 214H108Q96 214 91 219Q86 224 86 235V392Q86 403 91.5 408.5Q97 414 108 414Z" glyph-name="Delta" horiz-adv-x="373" unicode="&#8710;" /><glyph d="M461 0H107Q102 0 99 3Q96 6 96 12V668Q96 674 99 677Q102 680 108 680H449Q455 680 458 677Q461 674 461 668V646Q461 640 458 637Q455 634 449 634H149V380H431Q437 380 440 377Q443 374 443 368V347Q443 341 440 338Q437 335 431 335H149V46H461Q467 46 470 43Q473 40 473 34V12Q473 6 470 3Q467 0 461 0Z" glyph-name="E" horiz-adv-x="523" unicode="E" /><glyph d="M461 0H107Q102 0 99 3Q96 6 96 12V668Q96 674 99 677Q102 680 108 680H449Q455 680 458 677Q461 674 461 668V646Q461 640 458 637Q455 634 449 634H149V380H431Q437 380 440 377Q443 374 443 368V347Q443 341 440 338Q437 335 431 335H149V46H461Q467 46 470 43Q473 40 473 34V12Q473 6 470 3Q467 0 461 0ZM376 866 295 747Q293 744 289.5 742Q286 740 281 740H256Q250 740 248.5 743Q247 746 250 751L323 868Q327 874 330 876Q333 878 338 878H370Q377 878 378.5 875Q380 872 376 866Z" glyph-name="Eacute" horiz-adv-x="523" unicode="&#201;" /><glyph d="M461 0H107Q102 0 99 3Q96 6 96 12V668Q96 674 99 677Q102 680 108 680H449Q455 680 458 677Q461 674 461 668V646Q461 640 458 637Q455 634 449 634H149V380H431Q437 380 440 377Q443 374 443 368V347Q443 341 440 338Q437 335 431 335H149V46H461Q467 46 470 43Q473 40 473 34V12Q473 6 470 3Q467 0 461 0ZM205 868V851Q205 810 222.5 793.5Q240 777 278 777Q317 777 334.5 793.5Q352 810 352 851V868Q352 874 354.5 876.5Q357 879 363 879H381Q387 879 389.5 876.5Q392 874 392 868V852Q392 795 364 769Q336 743 277 743Q219 743 192 768.5Q165 794 165 852V868Q165 874 167.5 876.5Q170 879 176 879H194Q200 879 202.5 876.5Q205 874 205 868Z" glyph-name="Ebreve" horiz-adv-x="523" unicode="&#276;" /><glyph d="M461 0H107Q102 0 99 3Q96 6 96 12V668Q96 674 99 677Q102 680 108 680H449Q455 680 458 677Q461 674 461 668V646Q461 640 458 637Q455 634 449 634H149V380H431Q437 380 440 377Q443 374 443 368V347Q443 341 440 338Q437 335 431 335H149V46H461Q467 46 470 43Q473 40 473 34V12Q473 6 470 3Q467 0 461 0ZM213 866 273 774 334 866Q338 872 342 875Q346 878 350 878H374Q380 878 381.5 874.5Q383 871 380 866L301 751Q297 746 292.5 743Q288 740 283 740H263Q258 740 253.5 743Q249 746 245 752L167 866Q163 871 165 874.5Q167 878 173 878H196Q201 878 205 875.5Q209 873 213 866Z" glyph-name="Ecaron" horiz-adv-x="523" unicode="&#282;" /><glyph d="M334 752 273 844 213 752Q209 745 205 742.5Q201 740 196 740H173Q167 740 165 743.5Q163 747 167 752L245 866Q249 872 253.5 875Q258 878 263 878H283Q288 878 292.5 875Q297 872 301 867L380 752Q383 747 381.5 743.5Q380 740 374 740H350Q346 740 342 743Q338 746 334 752ZM461 0H107Q102 0 99 3Q96 6 96 12V668Q96 674 99 677Q102 680 108 680H449Q455 680 458 677Q461 674 461 668V646Q461 640 458 637Q455 634 449 634H149V380H431Q437 380 440 377Q443 374 443 368V347Q443 341 440 338Q437 335 431 335H149V46H461Q467 46 470 43Q473 40 473 34V12Q473 6 470 3Q467 0 461 0Z" glyph-name="Ecircumflex" horiz-adv-x="523" unicode="&#202;" /><glyph d="M461 0H107Q102 0 99 3Q96 6 96 12V668Q96 674 99 677Q102 680 108 680H449Q455 680 458 677Q461 674 461 668V646Q461 640 458 637Q455 634 449 634H149V380H431Q437 380 440 377Q443 374 443 368V347Q443 341 440 338Q437 335 431 335H149V46H461Q467 46 470 43Q473 40 473 34V12Q473 6 470 3Q467 0 461 0ZM252 857V759Q252 753 249.5 750Q247 747 241 747H223Q217 747 214 750Q211 753 211 759V857Q211 863 214 866Q217 869 223 869H241Q247 869 249.5 866Q252 863 252 857ZM350 857V759Q350 753 347.5 750Q345 747 339 747H321Q315 747 312 750Q309 753 309 759V857Q309 863 312 866Q315 869 321 869H339Q345 869 347.5 866Q350 863 350 857Z" glyph-name="Edieresis" horiz-adv-x="523" unicode="&#203;" /><glyph d="M303 838V761Q303 755 300 752Q297 749 291 749H262Q256 749 253 752Q250 755 250 761V838Q250 844 253 847Q256 850 262 850H291Q298 850 300.5 847.5Q303 845 303 838ZM461 0H107Q102 0 99 3Q96 6 96 12V668Q96 674 99 677Q102 680 108 680H449Q455 680 458 677Q461 674 461 668V646Q461 640 458 637Q455 634 449 634H149V380H431Q437 380 440 377Q443 374 443 368V347Q443 341 440 338Q437 335 431 335H149V46H461Q467 46 470 43Q473 40 473 34V12Q473 6 470 3Q467 0 461 0Z" glyph-name="Edotaccent" horiz-adv-x="523" unicode="&#278;" /><glyph d="M262 747 181 866Q177 871 178.5 874.5Q180 878 186 878H218Q223 878 226.5 876Q230 874 234 867L306 751Q309 746 308 742.5Q307 739 301 739H276Q272 739 268.5 741Q265 743 262 747ZM461 0H107Q102 0 99 3Q96 6 96 12V668Q96 674 99 677Q102 680 108 680H449Q455 680 458 677Q461 674 461 668V646Q461 640 458 637Q455 634 449 634H149V380H431Q437 380 440 377Q443 374 443 368V347Q443 341 440 338Q437 335 431 335H149V46H461Q467 46 470 43Q473 40 473 34V12Q473 6 470 3Q467 0 461 0Z" glyph-name="Egrave" horiz-adv-x="523" unicode="&#200;" /><glyph d="M461 0H107Q102 0 99 3Q96 6 96 12V668Q96 674 99 677Q102 680 108 680H449Q455 680 458 677Q461 674 461 668V646Q461 640 458 637Q455 634 449 634H149V380H431Q437 380 440 377Q443 374 443 368V347Q443 341 440 338Q437 335 431 335H149V46H461Q467 46 470 43Q473 40 473 34V12Q473 6 470 3Q467 0 461 0ZM144 820H401Q408 820 410.5 817.5Q413 815 413 809V791Q413 785 410 782Q407 779 401 779H144Q138 779 135 782Q132 785 132 791V809Q132 815 135 817.5Q138 820 144 820Z" glyph-name="Emacron" horiz-adv-x="523" unicode="&#274;" /><glyph d="M513 668V-85Q513 -148 469.5 -178Q426 -208 336 -208H331Q324 -208 321.5 -205.5Q319 -203 319 -196V-176Q319 -170 322 -167Q325 -164 331 -164H336Q401 -164 432 -144Q463 -124 463 -81V7L178 515Q172 526 163 543Q154 560 146 576V12Q146 6 143.5 3Q141 0 135 0H108Q102 0 99 3Q96 6 96 12V668Q96 674 99 677Q102 680 108 680H135Q139 680 141.5 678.5Q144 677 145 675L434 162Q440 152 449 134Q458 116 463 105V668Q463 674 466 677Q469 680 475 680H502Q508 680 510.5 677Q513 674 513 668Z" glyph-name="Eng" horiz-adv-x="609" unicode="&#330;" /><glyph d="M461 0H435Q402 0 382 -18.5Q362 -37 362 -65Q362 -88 376.5 -99.5Q391 -111 419 -111H447Q453 -111 456 -114Q459 -117 459 -123V-137Q459 -143 455.5 -146Q452 -149 445 -149H408Q367 -149 343 -129Q319 -109 319 -73Q319 -53 329 -33.5Q339 -14 356 0H107Q102 0 99 3Q96 6 96 12V668Q96 674 99 677Q102 680 108 680H449Q455 680 458 677Q461 674 461 668V646Q461 640 458 637Q455 634 449 634H149V380H431Q437 380 440 377Q443 374 443 368V347Q443 341 440 338Q437 335 431 335H149V46H461Q467 46 470 43Q473 40 473 34V12Q473 6 470 3Q467 0 461 0Z" glyph-name="Eogonek" horiz-adv-x="523" unicode="&#280;" /><glyph d="M313 0H115Q109 0 106.5 3Q104 6 104 12V324H31Q25 324 22 327Q19 330 19 336V354Q19 360 22 362.5Q25 365 31 365H104V668Q104 674 107 677Q110 680 115 680H313Q417 680 469.5 644.5Q522 609 522 539V141Q522 71 469.5 35.5Q417 0 313 0ZM157 324V46H313Q392 46 430.5 71.5Q469 97 469 149V531Q469 583 430.5 608.5Q392 634 313 634H157V365H300Q306 365 309 362.5Q312 360 312 354V336Q312 330 309 327Q306 324 300 324Z" glyph-name="Eth" horiz-adv-x="605" unicode="&#208;" /><glyph d="M528 198V133Q528 61 477.5 26.5Q427 -8 324 -8Q221 -8 170.5 26.5Q120 61 120 133V263H69Q63 263 60 265.5Q57 268 57 274V287Q57 293 60 296Q63 299 69 299H120V382H69Q63 382 60 385Q57 388 57 394V407Q57 413 60 415.5Q63 418 69 418H120V547Q120 619 170.5 653.5Q221 688 324 688Q427 688 477.5 653.5Q528 619 528 547V495Q528 488 525.5 485Q523 482 517 482H488Q482 482 479 485Q476 488 476 495V539Q476 592 439 617Q402 642 324 642Q247 642 210 617Q173 592 173 539V418H344Q351 418 353.5 415.5Q356 413 356 407V394Q356 387 353.5 384.5Q351 382 344 382H173V299H344Q351 299 353.5 296.5Q356 294 356 287V274Q356 268 353.5 265.5Q351 263 344 263H173V141Q173 88 210 63Q247 38 324 38Q402 38 439 63Q476 88 476 141V198Q476 204 479 206.5Q482 209 488 209H517Q523 209 525.5 206.5Q528 204 528 198Z" glyph-name="Euro" horiz-adv-x="599" unicode="&#8364;" /><glyph d="M108 680H475Q481 680 484 677Q487 674 487 668V646Q487 640 484 637Q481 634 475 634H149V378H457Q463 378 466 375Q469 372 469 366V344Q469 338 466 335Q463 332 457 332H149V12Q149 6 146.5 3Q144 0 138 0H108Q102 0 99 3Q96 6 96 12V668Q96 674 99 677Q102 680 108 680Z" glyph-name="F" horiz-adv-x="533" unicode="F" /><glyph d="M298 319H481Q487 319 490 316Q493 313 493 307V133Q493 61 442.5 26.5Q392 -8 289 -8Q186 -8 135.5 26.5Q85 61 85 133V547Q85 619 135.5 653.5Q186 688 289 688Q392 688 442.5 653.5Q493 619 493 547V497Q493 491 490.5 488Q488 485 482 485H453Q447 485 444 488Q441 491 441 497V539Q441 592 404 617Q367 642 289 642Q212 642 175 617Q138 592 138 539V141Q138 88 175 63Q212 38 289 38Q366 38 403.5 62.5Q441 87 441 139V273H298Q292 273 289 276Q286 279 286 285V307Q286 313 289 316Q292 319 298 319Z" glyph-name="G" horiz-adv-x="570" unicode="G" /><glyph d="M298 319H481Q487 319 490 316Q493 313 493 307V133Q493 61 442.5 26.5Q392 -8 289 -8Q186 -8 135.5 26.5Q85 61 85 133V547Q85 619 135.5 653.5Q186 688 289 688Q392 688 442.5 653.5Q493 619 493 547V497Q493 491 490.5 488Q488 485 482 485H453Q447 485 444 488Q441 491 441 497V539Q441 592 404 617Q367 642 289 642Q212 642 175 617Q138 592 138 539V141Q138 88 175 63Q212 38 289 38Q366 38 403.5 62.5Q441 87 441 139V273H298Q292 273 289 276Q286 279 286 285V307Q286 313 289 316Q292 319 298 319ZM208 868V851Q208 810 225.5 793.5Q243 777 281 777Q320 777 337.5 793.5Q355 810 355 851V868Q355 874 357.5 876.5Q360 879 366 879H384Q390 879 392.5 876.5Q395 874 395 868V852Q395 795 367 769Q339 743 280 743Q222 743 195 768.5Q168 794 168 852V868Q168 874 170.5 876.5Q173 879 179 879H197Q203 879 205.5 876.5Q208 874 208 868Z" glyph-name="Gbreve" horiz-adv-x="570" unicode="&#286;" /><glyph d="M342 752 281 844 221 752Q217 745 213 742.5Q209 740 204 740H181Q175 740 173 743.5Q171 747 175 752L253 866Q257 872 261.5 875Q266 878 271 878H291Q296 878 300.5 875Q305 872 309 867L388 752Q391 747 389.5 743.5Q388 740 382 740H358Q354 740 350 743Q346 746 342 752ZM298 319H481Q487 319 490 316Q493 313 493 307V133Q493 61 442.5 26.5Q392 -8 289 -8Q186 -8 135.5 26.5Q85 61 85 133V547Q85 619 135.5 653.5Q186 688 289 688Q392 688 442.5 653.5Q493 619 493 547V497Q493 491 490.5 488Q488 485 482 485H453Q447 485 444 488Q441 491 441 497V539Q441 592 404 617Q367 642 289 642Q212 642 175 617Q138 592 138 539V141Q138 88 175 63Q212 38 289 38Q366 38 403.5 62.5Q441 87 441 139V273H298Q292 273 289 276Q286 279 286 285V307Q286 313 289 316Q292 319 298 319Z" glyph-name="Gcircumflex" horiz-adv-x="570" unicode="&#284;" /><glyph d="M238 -190Q261 -141 264 -125.5Q267 -110 267 -89V-62Q267 -56 270 -53Q273 -50 279 -50H301Q307 -50 310 -53Q313 -56 313 -62V-91Q313 -118 304.5 -145Q296 -172 276 -205Q273 -210 269.5 -211.5Q266 -213 260 -211L243 -206Q238 -204 236.5 -200Q235 -196 238 -190ZM298 319H481Q487 319 490 316Q493 313 493 307V133Q493 61 442.5 26.5Q392 -8 289 -8Q186 -8 135.5 26.5Q85 61 85 133V547Q85 619 135.5 653.5Q186 688 289 688Q392 688 442.5 653.5Q493 619 493 547V497Q493 491 490.5 488Q488 485 482 485H453Q447 485 444 488Q441 491 441 497V539Q441 592 404 617Q367 642 289 642Q212 642 175 617Q138 592 138 539V141Q138 88 175 63Q212 38 289 38Q366 38 403.5 62.5Q441 87 441 139V273H298Q292 273 289 276Q286 279 286 285V307Q286 313 289 316Q292 319 298 319Z" glyph-name="Gcommaaccent" horiz-adv-x="570" unicode="&#290;" /><glyph d="M308 835V758Q308 752 305 749Q302 746 296 746H267Q261 746 258 749Q255 752 255 758V835Q255 841 258 844Q261 847 267 847H296Q303 847 305.5 844.5Q308 842 308 835ZM298 319H481Q487 319 490 316Q493 313 493 307V133Q493 61 442.5 26.5Q392 -8 289 -8Q186 -8 135.5 26.5Q85 61 85 133V547Q85 619 135.5 653.5Q186 688 289 688Q392 688 442.5 653.5Q493 619 493 547V497Q493 491 490.5 488Q488 485 482 485H453Q447 485 444 488Q441 491 441 497V539Q441 592 404 617Q367 642 289 642Q212 642 175 617Q138 592 138 539V141Q138 88 175 63Q212 38 289 38Q366 38 403.5 62.5Q441 87 441 139V273H298Q292 273 289 276Q286 279 286 285V307Q286 313 289 316Q292 319 298 319Z" glyph-name="Gdotaccent" horiz-adv-x="570" unicode="&#288;" /><glyph d="M149 668V386H461V668Q461 674 463.5 677Q466 680 472 680H503Q509 680 511.5 677Q514 674 514 668V12Q514 6 511.5 3Q509 0 503 0H472Q466 0 463.5 3Q461 6 461 12V340H149V12Q149 6 146.5 3Q144 0 138 0H108Q102 0 99 3Q96 6 96 12V668Q96 674 99 677Q102 680 108 680H138Q144 680 146.5 677Q149 674 149 668Z" glyph-name="H" horiz-adv-x="610" unicode="H" /><glyph d="M153 501V386H465V501ZM153 340V12Q153 6 150.5 3Q148 0 142 0H112Q106 0 103 3Q100 6 100 12V501H62Q56 501 53 504Q50 507 50 513V528Q50 535 52.5 537.5Q55 540 62 540H100V668Q100 674 103 677Q106 680 112 680H142Q148 680 150.5 677Q153 674 153 668V540H465V668Q465 674 467.5 677Q470 680 476 680H507Q513 680 515.5 677Q518 674 518 668V540H556Q562 540 565 537Q568 534 568 528V513Q568 507 565 504Q562 501 556 501H518V12Q518 6 515.5 3Q513 0 507 0H476Q470 0 467.5 3Q465 6 465 12V340Z" glyph-name="Hbar" horiz-adv-x="617" unicode="&#294;" /><glyph d="M149 668V386H461V668Q461 674 463.5 677Q466 680 472 680H503Q509 680 511.5 677Q514 674 514 668V12Q514 6 511.5 3Q509 0 503 0H472Q466 0 463.5 3Q461 6 461 12V340H149V12Q149 6 146.5 3Q144 0 138 0H108Q102 0 99 3Q96 6 96 12V668Q96 674 99 677Q102 680 108 680H138Q144 680 146.5 677Q149 674 149 668ZM365 752 304 844 244 752Q240 745 236 742.5Q232 740 227 740H204Q198 740 196 743.5Q194 747 198 752L276 866Q280 872 284.5 875Q289 878 294 878H314Q319 878 323.5 875Q328 872 332 867L411 752Q414 747 412.5 743.5Q411 740 405 740H381Q377 740 373 743Q369 746 365 752Z" glyph-name="Hcircumflex" horiz-adv-x="610" unicode="&#292;" /><glyph d="M149 668V12Q149 6 146.5 3Q144 0 138 0H108Q102 0 99 3Q96 6 96 12V668Q96 674 99 677Q102 680 108 680H138Q144 680 146.5 677Q149 674 149 668Z" glyph-name="I" horiz-adv-x="245" unicode="I" /><glyph d="M149 668V12Q149 6 146.5 3Q144 0 138 0H108Q102 0 99 3Q96 6 96 12V668Q96 674 99 677Q102 680 108 680H138Q144 680 146.5 677Q149 674 149 668ZM332 174V141Q332 86 363.5 62Q395 38 463 38Q531 38 562 62Q593 86 593 141V668Q593 674 596 677Q599 680 605 680H635Q641 680 644 677Q647 674 647 668V133Q647 60 601.5 26Q556 -8 463 -8Q370 -8 324.5 26.5Q279 61 279 133V174Q279 180 282 183Q285 186 291 186H320Q327 186 329.5 183.5Q332 181 332 174Z" glyph-name="IJ" horiz-adv-x="739" unicode="&#306;" /><glyph d="M149 668V12Q149 6 146.5 3Q144 0 138 0H108Q102 0 99 3Q96 6 96 12V668Q96 674 99 677Q102 680 108 680H138Q144 680 146.5 677Q149 674 149 668ZM228 866 147 747Q145 744 141.5 742Q138 740 133 740H108Q102 740 100.5 743Q99 746 102 751L175 868Q179 874 182 876Q185 878 190 878H222Q229 878 230.5 875Q232 872 228 866Z" glyph-name="Iacute" horiz-adv-x="245" unicode="&#205;" /><glyph d="M149 668V12Q149 6 146.5 3Q144 0 138 0H108Q102 0 99 3Q96 6 96 12V668Q96 674 99 677Q102 680 108 680H138Q144 680 146.5 677Q149 674 149 668ZM49 868V851Q49 810 66.5 793.5Q84 777 122 777Q161 777 178.5 793.5Q196 810 196 851V868Q196 874 198.5 876.5Q201 879 207 879H225Q231 879 233.5 876.5Q236 874 236 868V852Q236 795 208 769Q180 743 121 743Q63 743 36 768.5Q9 794 9 852V868Q9 874 11.5 876.5Q14 879 20 879H38Q44 879 46.5 876.5Q49 874 49 868Z" glyph-name="Ibreve" horiz-adv-x="245" unicode="&#300;" /><glyph d="M149 668V12Q149 6 146.5 3Q144 0 138 0H108Q102 0 99 3Q96 6 96 12V668Q96 674 99 677Q102 680 108 680H138Q144 680 146.5 677Q149 674 149 668ZM183 752 122 844 62 752Q58 745 54 742.5Q50 740 45 740H22Q16 740 14 743.5Q12 747 16 752L94 866Q98 872 102.5 875Q107 878 112 878H132Q137 878 141.5 875Q146 872 150 867L229 752Q232 747 230.5 743.5Q229 740 223 740H199Q195 740 191 743Q187 746 183 752Z" glyph-name="Icircumflex" horiz-adv-x="245" unicode="&#206;" /><glyph d="M149 668V12Q149 6 146.5 3Q144 0 138 0H108Q102 0 99 3Q96 6 96 12V668Q96 674 99 677Q102 680 108 680H138Q144 680 146.5 677Q149 674 149 668ZM94 857V759Q94 753 91.5 750Q89 747 83 747H65Q59 747 56 750Q53 753 53 759V857Q53 863 56 866Q59 869 65 869H83Q89 869 91.5 866Q94 863 94 857ZM192 857V759Q192 753 189.5 750Q187 747 181 747H163Q157 747 154 750Q151 753 151 759V857Q151 863 154 866Q157 869 163 869H181Q187 869 189.5 866Q192 863 192 857Z" glyph-name="Idieresis" horiz-adv-x="245" unicode="&#207;" /><glyph d="M149 668V12Q149 6 146.5 3Q144 0 138 0H108Q102 0 99 3Q96 6 96 12V668Q96 674 99 677Q102 680 108 680H138Q144 680 146.5 677Q149 674 149 668ZM149 838V761Q149 755 146 752Q143 749 137 749H108Q102 749 99 752Q96 755 96 761V838Q96 844 99 847Q102 850 108 850H137Q144 850 146.5 847.5Q149 845 149 838Z" glyph-name="Idotaccent" horiz-adv-x="245" unicode="&#304;" /><glyph d="M149 668V12Q149 6 146.5 3Q144 0 138 0H108Q102 0 99 3Q96 6 96 12V668Q96 674 99 677Q102 680 108 680H138Q144 680 146.5 677Q149 674 149 668ZM96 747 15 866Q11 871 12.5 874.5Q14 878 20 878H52Q57 878 60.5 876Q64 874 68 867L140 751Q143 746 142 742.5Q141 739 135 739H110Q106 739 102.5 741Q99 743 96 747Z" glyph-name="Igrave" horiz-adv-x="245" unicode="&#204;" /><glyph d="M149 668V12Q149 6 146.5 3Q144 0 138 0H108Q102 0 99 3Q96 6 96 12V668Q96 674 99 677Q102 680 108 680H138Q144 680 146.5 677Q149 674 149 668ZM-6 820H251Q258 820 260.5 817.5Q263 815 263 809V791Q263 785 260 782Q257 779 251 779H-6Q-12 779 -15 782Q-18 785 -18 791V809Q-18 815 -15 817.5Q-12 820 -6 820Z" glyph-name="Imacron" horiz-adv-x="245" unicode="&#298;" /><glyph d="M150 668V12Q150 6 147.5 3Q145 0 139 0H129Q99 -6 81.5 -25Q64 -44 64 -68Q64 -90 78.5 -100.5Q93 -111 122 -111H144Q150 -111 153 -114Q156 -117 156 -123V-137Q156 -143 152.5 -146Q149 -149 142 -149H111Q68 -149 45 -130Q22 -111 22 -75Q22 -48 43.5 -20Q65 8 98 23V668Q98 674 100.5 677Q103 680 109 680H139Q145 680 147.5 677Q150 674 150 668Z" glyph-name="Iogonek" horiz-adv-x="247" unicode="&#302;" /><glyph d="M149 668V12Q149 6 146.5 3Q144 0 138 0H108Q102 0 99 3Q96 6 96 12V668Q96 674 99 677Q102 680 108 680H138Q144 680 146.5 677Q149 674 149 668ZM188 796Q207 796 213 806.5Q219 817 219 850V859Q219 865 222 867.5Q225 870 232 870H248Q254 870 256.5 867Q259 864 259 857V838Q259 798 241 776.5Q223 755 190 755Q178 755 164 760.5Q150 766 138 775L93 811Q83 819 73.5 823.5Q64 828 57 828Q38 828 32 817.5Q26 807 26 774V765Q26 759 23 756.5Q20 754 13 754H-4Q-9 754 -11.5 757Q-14 760 -14 768V787Q-14 827 3.5 848Q21 869 54 869Q68 869 81.5 864Q95 859 106 850L152 813Q164 804 172.5 800Q181 796 188 796Z" glyph-name="Itilde" horiz-adv-x="245" unicode="&#296;" /><glyph d="M85 174V141Q85 86 116.5 62Q148 38 216 38Q284 38 315 62Q346 86 346 141V668Q346 674 349 677Q352 680 358 680H388Q394 680 397 677Q400 674 400 668V133Q400 60 354.5 26Q309 -8 216 -8Q123 -8 77.5 26.5Q32 61 32 133V174Q32 180 35 183Q38 186 44 186H73Q80 186 82.5 183.5Q85 181 85 174Z" glyph-name="J" horiz-adv-x="492" unicode="J" /><glyph d="M85 174V141Q85 86 116.5 62Q148 38 216 38Q284 38 315 62Q346 86 346 141V668Q346 674 349 677Q352 680 358 680H388Q394 680 397 677Q400 674 400 668V133Q400 60 354.5 26Q309 -8 216 -8Q123 -8 77.5 26.5Q32 61 32 133V174Q32 180 35 183Q38 186 44 186H73Q80 186 82.5 183.5Q85 181 85 174ZM432 752 371 844 311 752Q307 745 303 742.5Q299 740 294 740H271Q265 740 263 743.5Q261 747 265 752L343 866Q347 872 351.5 875Q356 878 361 878H381Q386 878 390.5 875Q395 872 399 867L478 752Q481 747 479.5 743.5Q478 740 472 740H448Q444 740 440 743Q436 746 432 752Z" glyph-name="Jcircumflex" horiz-adv-x="492" unicode="&#308;" /><glyph d="M489 668 229 345 518 12Q522 8 519.5 4Q517 0 512 0H471Q467 0 464 1.5Q461 3 452 12L183 320H149V12Q149 6 146.5 3Q144 0 138 0H108Q102 0 99 3Q96 6 96 12V668Q96 674 99 677Q102 680 108 680H138Q144 680 146.5 677Q149 674 149 668V361H183L429 669Q433 674 438.5 677Q444 680 449 680H483Q489 680 491 676.5Q493 673 489 668Z" glyph-name="K" horiz-adv-x="540" unicode="K" /><glyph d="M220 -190Q243 -141 246 -125.5Q249 -110 249 -89V-62Q249 -56 252 -53Q255 -50 261 -50H283Q289 -50 292 -53Q295 -56 295 -62V-91Q295 -118 286.5 -145Q278 -172 258 -205Q255 -210 251.5 -211.5Q248 -213 242 -211L225 -206Q220 -204 218.5 -200Q217 -196 220 -190ZM489 668 229 345 518 12Q522 8 519.5 4Q517 0 512 0H471Q467 0 464 1.5Q461 3 452 12L183 320H149V12Q149 6 146.5 3Q144 0 138 0H108Q102 0 99 3Q96 6 96 12V668Q96 674 99 677Q102 680 108 680H138Q144 680 146.5 677Q149 674 149 668V361H183L429 669Q433 674 438.5 677Q444 680 449 680H483Q489 680 491 676.5Q493 673 489 668Z" glyph-name="Kcommaaccent" horiz-adv-x="540" unicode="&#310;" /><glyph d="M149 668V46H445Q451 46 454 43Q457 40 457 34V12Q457 6 454 3Q451 0 445 0H106Q101 0 98.5 3Q96 6 96 12V668Q96 674 99 677Q102 680 108 680H138Q144 680 146.5 677Q149 674 149 668Z" glyph-name="L" horiz-adv-x="478" unicode="L" /><glyph d="M228 866 147 747Q145 744 141.5 742Q138 740 133 740H108Q102 740 100.5 743Q99 746 102 751L175 868Q179 874 182 876Q185 878 190 878H222Q229 878 230.5 875Q232 872 228 866ZM149 668V46H445Q451 46 454 43Q457 40 457 34V12Q457 6 454 3Q451 0 445 0H106Q101 0 98.5 3Q96 6 96 12V668Q96 674 99 677Q102 680 108 680H138Q144 680 146.5 677Q149 674 149 668Z" glyph-name="Lacute" horiz-adv-x="478" unicode="&#313;" /><glyph d="M299 558Q322 607 325 622.5Q328 638 328 659V686Q328 692 331 695Q334 698 340 698H362Q368 698 371 695Q374 692 374 686V657Q374 630 365.5 603Q357 576 337 543Q334 538 330.5 536.5Q327 535 321 537L304 542Q299 544 297.5 548Q296 552 299 558ZM149 668V46H445Q451 46 454 43Q457 40 457 34V12Q457 6 454 3Q451 0 445 0H106Q101 0 98.5 3Q96 6 96 12V668Q96 674 99 677Q102 680 108 680H138Q144 680 146.5 677Q149 674 149 668Z" glyph-name="Lcaron" horiz-adv-x="480" unicode="&#317;" /><glyph d="M216 -190Q239 -141 242 -125.5Q245 -110 245 -89V-62Q245 -56 248 -53Q251 -50 257 -50H279Q285 -50 288 -53Q291 -56 291 -62V-91Q291 -118 282.5 -145Q274 -172 254 -205Q251 -210 247.5 -211.5Q244 -213 238 -211L221 -206Q216 -204 214.5 -200Q213 -196 216 -190ZM149 668V46H445Q451 46 454 43Q457 40 457 34V12Q457 6 454 3Q451 0 445 0H106Q101 0 98.5 3Q96 6 96 12V668Q96 674 99 677Q102 680 108 680H138Q144 680 146.5 677Q149 674 149 668Z" glyph-name="Lcommaaccent" horiz-adv-x="478" unicode="&#315;" /><glyph d="M149 668V46H445Q451 46 454 43Q457 40 457 34V12Q457 6 454 3Q451 0 445 0H106Q101 0 98.5 3Q96 6 96 12V668Q96 674 99 677Q102 680 108 680H138Q144 680 146.5 677Q149 674 149 668ZM398 393V316Q398 309 395.5 306.5Q393 304 387 304H357Q351 304 348 307Q345 310 345 316V393Q345 399 348 402Q351 405 357 405H387Q393 405 395.5 402Q398 399 398 393Z" glyph-name="Ldot" horiz-adv-x="483" unicode="&#319;" /><glyph d="M452 0H113Q108 0 105.5 3Q103 6 103 12V308L47 285Q41 283 37 284.5Q33 286 31 292L27 303Q25 308 26.5 312Q28 316 33 318L103 347V668Q103 674 106 677Q109 680 115 680H145Q151 680 153.5 677Q156 674 156 668V369L225 397Q230 399 234 397.5Q238 396 240 391L246 379Q248 375 246 370.5Q244 366 238 364L156 330V46H452Q458 46 461 43Q464 40 464 34V12Q464 6 461 3Q458 0 452 0Z" glyph-name="Lslash" horiz-adv-x="485" unicode="&#321;" /><glyph d="M624 668V12Q624 6 621.5 3Q619 0 613 0H584Q578 0 575 3Q572 6 572 12V566Q569 556 563.5 539.5Q558 523 554 513L390 116Q387 110 383.5 107Q380 104 374 104H346Q341 104 337.5 106.5Q334 109 331 116L161 520Q158 528 153.5 541Q149 554 146 565V12Q146 6 143.5 3Q141 0 135 0H108Q102 0 99 3Q96 6 96 12V668Q96 674 99 677Q102 680 108 680H135Q139 680 141.5 678.5Q144 677 146 673L344 206Q347 198 351.5 185.5Q356 173 360 159Q363 167 368.5 182.5Q374 198 377 205L573 674Q574 677 577 678.5Q580 680 584 680H613Q619 680 621.5 677Q624 674 624 668Z" glyph-name="M" horiz-adv-x="720" unicode="M" /><glyph d="M513 668V12Q513 6 510.5 3Q508 0 502 0H475Q471 0 468.5 1.5Q466 3 464 6L178 515Q172 526 163 543Q154 560 146 576V12Q146 6 143.5 3Q141 0 135 0H108Q102 0 99 3Q96 6 96 12V668Q96 674 99 677Q102 680 108 680H135Q139 680 141.5 678.5Q144 677 145 675L434 162Q444 145 452.5 127.5Q461 110 463 105V668Q463 674 466 677Q469 680 475 680H502Q508 680 510.5 677Q513 674 513 668Z" glyph-name="N" horiz-adv-x="609" unicode="N" /><glyph d="M411 866 330 747Q328 744 324.5 742Q321 740 316 740H291Q285 740 283.5 743Q282 746 285 751L358 868Q362 874 365 876Q368 878 373 878H405Q412 878 413.5 875Q415 872 411 866ZM513 668V12Q513 6 510.5 3Q508 0 502 0H475Q471 0 468.5 1.5Q466 3 464 6L178 515Q172 526 163 543Q154 560 146 576V12Q146 6 143.5 3Q141 0 135 0H108Q102 0 99 3Q96 6 96 12V668Q96 674 99 677Q102 680 108 680H135Q139 680 141.5 678.5Q144 677 145 675L434 162Q444 145 452.5 127.5Q461 110 463 105V668Q463 674 466 677Q469 680 475 680H502Q508 680 510.5 677Q513 674 513 668Z" glyph-name="Nacute" horiz-adv-x="609" unicode="&#323;" /><glyph d="M513 668V12Q513 6 510.5 3Q508 0 502 0H475Q471 0 468.5 1.5Q466 3 464 6L178 515Q172 526 163 543Q154 560 146 576V12Q146 6 143.5 3Q141 0 135 0H108Q102 0 99 3Q96 6 96 12V668Q96 674 99 677Q102 680 108 680H135Q139 680 141.5 678.5Q144 677 145 675L434 162Q444 145 452.5 127.5Q461 110 463 105V668Q463 674 466 677Q469 680 475 680H502Q508 680 510.5 677Q513 674 513 668ZM244 866 304 774 365 866Q369 872 373 875Q377 878 381 878H405Q411 878 412.5 874.5Q414 871 411 866L332 751Q328 746 323.5 743Q319 740 314 740H294Q289 740 284.5 743Q280 746 276 752L198 866Q194 871 196 874.5Q198 878 204 878H227Q232 878 236 875.5Q240 873 244 866Z" glyph-name="Ncaron" horiz-adv-x="609" unicode="&#327;" /><glyph d="M255 -190Q278 -141 281 -125.5Q284 -110 284 -89V-62Q284 -56 287 -53Q290 -50 296 -50H318Q324 -50 327 -53Q330 -56 330 -62V-91Q330 -118 321.5 -145Q313 -172 293 -205Q290 -210 286.5 -211.5Q283 -213 277 -211L260 -206Q255 -204 253.5 -200Q252 -196 255 -190ZM513 668V12Q513 6 510.5 3Q508 0 502 0H475Q471 0 468.5 1.5Q466 3 464 6L178 515Q172 526 163 543Q154 560 146 576V12Q146 6 143.5 3Q141 0 135 0H108Q102 0 99 3Q96 6 96 12V668Q96 674 99 677Q102 680 108 680H135Q139 680 141.5 678.5Q144 677 145 675L434 162Q444 145 452.5 127.5Q461 110 463 105V668Q463 674 466 677Q469 680 475 680H502Q508 680 510.5 677Q513 674 513 668Z" glyph-name="Ncommaaccent" horiz-adv-x="609" unicode="&#325;" /><glyph d="M370 796Q389 796 395 806.5Q401 817 401 850V859Q401 865 404 867.5Q407 870 414 870H430Q436 870 438.5 867Q441 864 441 857V838Q441 798 423 776.5Q405 755 372 755Q360 755 346 760.5Q332 766 320 775L275 811Q265 819 255.5 823.5Q246 828 239 828Q220 828 214 817.5Q208 807 208 774V765Q208 759 205 756.5Q202 754 195 754H178Q173 754 170.5 757Q168 760 168 768V787Q168 827 185.5 848Q203 869 236 869Q250 869 263.5 864Q277 859 288 850L334 813Q346 804 354.5 800Q363 796 370 796ZM513 668V12Q513 6 510.5 3Q508 0 502 0H475Q471 0 468.5 1.5Q466 3 464 6L178 515Q172 526 163 543Q154 560 146 576V12Q146 6 143.5 3Q141 0 135 0H108Q102 0 99 3Q96 6 96 12V668Q96 674 99 677Q102 680 108 680H135Q139 680 141.5 678.5Q144 677 145 675L434 162Q444 145 452.5 127.5Q461 110 463 105V668Q463 674 466 677Q469 680 475 680H502Q508 680 510.5 677Q513 674 513 668Z" glyph-name="Ntilde" horiz-adv-x="609" unicode="&#209;" /><glyph d="M293 -8Q189 -8 137 27.5Q85 63 85 133V547Q85 617 137 652.5Q189 688 293 688Q398 688 450.5 652.5Q503 617 503 547V133Q503 63 450.5 27.5Q398 -8 293 -8ZM293 38Q372 38 410.5 63.5Q449 89 449 141V539Q449 591 410.5 616.5Q372 642 293 642Q215 642 176.5 616.5Q138 591 138 539V141Q138 89 176.5 63.5Q215 38 293 38Z" glyph-name="O" horiz-adv-x="587" unicode="O" /><glyph d="M293 37Q372 37 410.5 62.5Q449 88 449 140V540Q449 592 410.5 617.5Q372 643 293 643Q215 643 176.5 617.5Q138 592 138 540V140Q138 88 176.5 62.5Q215 37 293 37ZM449 12V37Q423 15 384 3.5Q345 -8 293 -8Q189 -8 137 27.5Q85 63 85 133V547Q85 618 137 653Q189 688 293 688Q345 688 384 676.5Q423 665 449 643V668Q449 674 452 677Q455 680 461 680H802Q809 680 811.5 677.5Q814 675 814 669V647Q814 641 811 638Q808 635 802 635H503V380H784Q790 380 793 377Q796 374 796 368V348Q796 342 793 339Q790 336 784 336H503V45H815Q821 45 824 42.5Q827 40 827 34V12Q827 6 824 3Q821 0 815 0H460Q455 0 452 3Q449 6 449 12Z" glyph-name="OE" horiz-adv-x="876" unicode="&#338;" /><glyph d="M391 866 310 747Q308 744 304.5 742Q301 740 296 740H271Q265 740 263.5 743Q262 746 265 751L338 868Q342 874 345 876Q348 878 353 878H385Q392 878 393.5 875Q395 872 391 866ZM293 -8Q189 -8 137 27.5Q85 63 85 133V547Q85 617 137 652.5Q189 688 293 688Q398 688 450.5 652.5Q503 617 503 547V133Q503 63 450.5 27.5Q398 -8 293 -8ZM293 38Q372 38 410.5 63.5Q449 89 449 141V539Q449 591 410.5 616.5Q372 642 293 642Q215 642 176.5 616.5Q138 591 138 539V141Q138 89 176.5 63.5Q215 38 293 38Z" glyph-name="Oacute" horiz-adv-x="587" unicode="&#211;" /><glyph d="M293 -8Q189 -8 137 27.5Q85 63 85 133V547Q85 617 137 652.5Q189 688 293 688Q398 688 450.5 652.5Q503 617 503 547V133Q503 63 450.5 27.5Q398 -8 293 -8ZM293 38Q372 38 410.5 63.5Q449 89 449 141V539Q449 591 410.5 616.5Q372 642 293 642Q215 642 176.5 616.5Q138 591 138 539V141Q138 89 176.5 63.5Q215 38 293 38ZM220 868V851Q220 810 237.5 793.5Q255 777 293 777Q332 777 349.5 793.5Q367 810 367 851V868Q367 874 369.5 876.5Q372 879 378 879H396Q402 879 404.5 876.5Q407 874 407 868V852Q407 795 379 769Q351 743 292 743Q234 743 207 768.5Q180 794 180 852V868Q180 874 182.5 876.5Q185 879 191 879H209Q215 879 217.5 876.5Q220 874 220 868Z" glyph-name="Obreve" horiz-adv-x="587" unicode="&#334;" /><glyph d="M354 752 293 844 233 752Q229 745 225 742.5Q221 740 216 740H193Q187 740 185 743.5Q183 747 187 752L265 866Q269 872 273.5 875Q278 878 283 878H303Q308 878 312.5 875Q317 872 321 867L400 752Q403 747 401.5 743.5Q400 740 394 740H370Q366 740 362 743Q358 746 354 752ZM293 -8Q189 -8 137 27.5Q85 63 85 133V547Q85 617 137 652.5Q189 688 293 688Q398 688 450.5 652.5Q503 617 503 547V133Q503 63 450.5 27.5Q398 -8 293 -8ZM293 38Q372 38 410.5 63.5Q449 89 449 141V539Q449 591 410.5 616.5Q372 642 293 642Q215 642 176.5 616.5Q138 591 138 539V141Q138 89 176.5 63.5Q215 38 293 38Z" glyph-name="Ocircumflex" horiz-adv-x="587" unicode="&#212;" /><glyph d="M293 -8Q189 -8 137 27.5Q85 63 85 133V547Q85 617 137 652.5Q189 688 293 688Q398 688 450.5 652.5Q503 617 503 547V133Q503 63 450.5 27.5Q398 -8 293 -8ZM293 38Q372 38 410.5 63.5Q449 89 449 141V539Q449 591 410.5 616.5Q372 642 293 642Q215 642 176.5 616.5Q138 591 138 539V141Q138 89 176.5 63.5Q215 38 293 38ZM265 857V759Q265 753 262.5 750Q260 747 254 747H236Q230 747 227 750Q224 753 224 759V857Q224 863 227 866Q230 869 236 869H254Q260 869 262.5 866Q265 863 265 857ZM363 857V759Q363 753 360.5 750Q358 747 352 747H334Q328 747 325 750Q322 753 322 759V857Q322 863 325 866Q328 869 334 869H352Q358 869 360.5 866Q363 863 363 857Z" glyph-name="Odieresis" horiz-adv-x="587" unicode="&#214;" /><glyph d="M267 747 186 866Q182 871 183.5 874.5Q185 878 191 878H223Q228 878 231.5 876Q235 874 239 867L311 751Q314 746 313 742.5Q312 739 306 739H281Q277 739 273.5 741Q270 743 267 747ZM293 -8Q189 -8 137 27.5Q85 63 85 133V547Q85 617 137 652.5Q189 688 293 688Q398 688 450.5 652.5Q503 617 503 547V133Q503 63 450.5 27.5Q398 -8 293 -8ZM293 38Q372 38 410.5 63.5Q449 89 449 141V539Q449 591 410.5 616.5Q372 642 293 642Q215 642 176.5 616.5Q138 591 138 539V141Q138 89 176.5 63.5Q215 38 293 38Z" glyph-name="Ograve" horiz-adv-x="587" unicode="&#210;" /><glyph d="M436 866 357 750Q353 745 349 742.5Q345 740 340 740H318Q312 740 310.5 743.5Q309 747 312 752L385 866Q389 872 394 875Q399 878 404 878H430Q436 878 438 874.5Q440 871 436 866ZM334 866 269 752Q264 744 261 742Q258 740 253 740H231Q226 740 224 743.5Q222 747 224 752L283 866Q286 872 290 875Q294 878 299 878H326Q332 878 334.5 874.5Q337 871 334 866ZM293 -8Q189 -8 137 27.5Q85 63 85 133V547Q85 617 137 652.5Q189 688 293 688Q398 688 450.5 652.5Q503 617 503 547V133Q503 63 450.5 27.5Q398 -8 293 -8ZM293 38Q372 38 410.5 63.5Q449 89 449 141V539Q449 591 410.5 616.5Q372 642 293 642Q215 642 176.5 616.5Q138 591 138 539V141Q138 89 176.5 63.5Q215 38 293 38Z" glyph-name="Ohungarumlaut" horiz-adv-x="587" unicode="&#336;" /><glyph d="M293 -8Q189 -8 137 27.5Q85 63 85 133V547Q85 617 137 652.5Q189 688 293 688Q398 688 450.5 652.5Q503 617 503 547V133Q503 63 450.5 27.5Q398 -8 293 -8ZM293 38Q372 38 410.5 63.5Q449 89 449 141V539Q449 591 410.5 616.5Q372 642 293 642Q215 642 176.5 616.5Q138 591 138 539V141Q138 89 176.5 63.5Q215 38 293 38ZM165 820H422Q429 820 431.5 817.5Q434 815 434 809V791Q434 785 431 782Q428 779 422 779H165Q159 779 156 782Q153 785 153 791V809Q153 815 156 817.5Q159 820 165 820Z" glyph-name="Omacron" horiz-adv-x="587" unicode="&#332;" /><glyph d="M185 195Q137 195 102.5 229.5Q68 264 68 313Q68 361 102.5 396Q137 431 185 431Q234 431 269 396Q304 361 304 313Q304 264 269 229.5Q234 195 185 195ZM185 414Q143 414 114 384.5Q85 355 85 313Q85 271 114 242Q143 213 185 213Q227 213 256.5 242Q286 271 286 313Q286 355 256.5 384.5Q227 414 185 414Z" glyph-name="Omega" horiz-adv-x="373" unicode="&#8486;" /><glyph d="M138 539V140Q138 125 141.5 112.5Q145 100 151 90L404 620Q385 631 357.5 636.5Q330 642 293 642Q215 642 176.5 616.5Q138 591 138 539ZM293 37Q371 37 410 62.5Q449 88 449 140V539Q449 553 446 566Q443 579 437 589L182 59Q202 48 229.5 42.5Q257 37 293 37ZM161 14 148 -12Q142 -23 138 -26Q134 -29 127 -29H108Q101 -29 99.5 -24.5Q98 -20 102 -12L125 36Q105 53 95 77.5Q85 102 85 133V546Q85 617 137 652.5Q189 688 293 688Q335 688 368 682.5Q401 677 426 666L439 692Q443 701 448 705Q453 709 460 709H479Q486 709 487.5 704Q489 699 486 692L463 643Q483 626 493 601.5Q503 577 503 546V133Q503 62 450.5 27Q398 -8 293 -8Q251 -8 218 -2.5Q185 3 161 14Z" glyph-name="Oslash" horiz-adv-x="587" unicode="&#216;" /><glyph d="M395 866 314 747Q312 744 308.5 742Q305 740 300 740H275Q269 740 267.5 743Q266 746 269 751L342 868Q346 874 349 876Q352 878 357 878H389Q396 878 397.5 874.5Q399 871 395 866ZM138 539V140Q138 125 141.5 112.5Q145 100 151 90L404 620Q385 631 357.5 636.5Q330 642 293 642Q215 642 176.5 616.5Q138 591 138 539ZM293 37Q371 37 410 62.5Q449 88 449 140V539Q449 553 446 566Q443 579 437 589L182 59Q202 48 229.5 42.5Q257 37 293 37ZM161 14 148 -12Q142 -23 138 -26Q134 -29 127 -29H108Q101 -29 99.5 -24.5Q98 -20 102 -12L125 36Q105 53 95 77.5Q85 102 85 133V546Q85 617 137 652.5Q189 688 293 688Q335 688 368 682.5Q401 677 426 666L439 692Q443 701 448 705Q453 709 460 709H479Q486 709 487.5 704Q489 699 486 692L463 643Q483 626 493 601.5Q503 577 503 546V133Q503 62 450.5 27Q398 -8 293 -8Q251 -8 218 -2.5Q185 3 161 14Z" glyph-name="Oslashacute" horiz-adv-x="587" unicode="&#510;" /><glyph d="M293 -8Q189 -8 137 27.5Q85 63 85 133V547Q85 617 137 652.5Q189 688 293 688Q398 688 450.5 652.5Q503 617 503 547V133Q503 63 450.5 27.5Q398 -8 293 -8ZM293 38Q372 38 410.5 63.5Q449 89 449 141V539Q449 591 410.5 616.5Q372 642 293 642Q215 642 176.5 616.5Q138 591 138 539V141Q138 89 176.5 63.5Q215 38 293 38ZM359 796Q378 796 384 806.5Q390 817 390 850V859Q390 865 393 867.5Q396 870 403 870H419Q425 870 427.5 867Q430 864 430 857V838Q430 798 412 776.5Q394 755 361 755Q349 755 335 760.5Q321 766 309 775L264 811Q254 819 244.5 823.5Q235 828 228 828Q209 828 203 817.5Q197 807 197 774V765Q197 759 194 756.5Q191 754 184 754H167Q162 754 159.5 757Q157 760 157 768V787Q157 827 174.5 848Q192 869 225 869Q239 869 252.5 864Q266 859 277 850L323 813Q335 804 343.5 800Q352 796 359 796Z" glyph-name="Otilde" horiz-adv-x="587" unicode="&#213;" /><glyph d="M302 269H149V12Q149 6 146.5 3Q144 0 138 0H108Q102 0 99 3Q96 6 96 12V668Q96 674 99 677Q102 680 107 680H302Q406 680 458.5 644.5Q511 609 511 539V410Q511 340 458.5 304.5Q406 269 302 269ZM302 634H149V315H302Q381 315 419.5 340.5Q458 366 458 418V531Q458 583 419.5 608.5Q381 634 302 634Z" glyph-name="P" horiz-adv-x="565" unicode="P" /><glyph d="M494 -152 478 -169Q475 -173 470.5 -173.5Q466 -174 462 -170L288 -8Q187 -7 136 28Q85 63 85 133V547Q85 617 137 652.5Q189 688 293 688Q398 688 450.5 652.5Q503 617 503 547V133Q503 73 465 38.5Q427 4 350 -5L493 -136Q498 -140 498 -144Q498 -148 494 -152ZM293 37Q372 37 410.5 62.5Q449 88 449 140V540Q449 592 410.5 617.5Q372 643 293 643Q215 643 176.5 617.5Q138 592 138 540V140Q138 88 176.5 62.5Q215 37 293 37Z" glyph-name="Q" horiz-adv-x="587" unicode="Q" /><glyph d="M302 634H149V327H302Q381 327 419.5 352.5Q458 378 458 430V531Q458 583 419.5 608.5Q381 634 302 634ZM149 282V12Q149 6 146.5 3Q144 0 138 0H108Q102 0 99 3Q96 6 96 12V668Q96 674 99 677Q102 680 107 680H302Q406 680 458.5 644.5Q511 609 511 539V423Q511 367 479.5 334Q448 301 384 289L520 12Q522 7 519 3.5Q516 0 509 0H475Q470 0 466.5 2.5Q463 5 460 12L330 283Q325 282 319.5 282Q314 282 302 282Z" glyph-name="R" horiz-adv-x="583" unicode="R" /><glyph d="M302 634H149V327H302Q381 327 419.5 352.5Q458 378 458 430V531Q458 583 419.5 608.5Q381 634 302 634ZM149 282V12Q149 6 146.5 3Q144 0 138 0H108Q102 0 99 3Q96 6 96 12V668Q96 674 99 677Q102 680 107 680H302Q406 680 458.5 644.5Q511 609 511 539V423Q511 367 479.5 334Q448 301 384 289L520 12Q522 7 519 3.5Q516 0 509 0H475Q470 0 466.5 2.5Q463 5 460 12L330 283Q325 282 319.5 282Q314 282 302 282ZM374 866 293 747Q291 744 287.5 742Q284 740 279 740H254Q248 740 246.5 743Q245 746 248 751L321 868Q325 874 328 876Q331 878 336 878H368Q375 878 376.5 875Q378 872 374 866Z" glyph-name="Racute" horiz-adv-x="583" unicode="&#340;" /><glyph d="M302 634H149V327H302Q381 327 419.5 352.5Q458 378 458 430V531Q458 583 419.5 608.5Q381 634 302 634ZM149 282V12Q149 6 146.5 3Q144 0 138 0H108Q102 0 99 3Q96 6 96 12V668Q96 674 99 677Q102 680 107 680H302Q406 680 458.5 644.5Q511 609 511 539V423Q511 367 479.5 334Q448 301 384 289L520 12Q522 7 519 3.5Q516 0 509 0H475Q470 0 466.5 2.5Q463 5 460 12L330 283Q325 282 319.5 282Q314 282 302 282ZM224 866 284 774 345 866Q349 872 353 875Q357 878 361 878H385Q391 878 392.5 874.5Q394 871 391 866L312 751Q308 746 303.5 743Q299 740 294 740H274Q269 740 264.5 743Q260 746 256 752L178 866Q174 871 176 874.5Q178 878 184 878H207Q212 878 216 875.5Q220 873 224 866Z" glyph-name="Rcaron" horiz-adv-x="583" unicode="&#344;" /><glyph d="M239 -189Q262 -140 265 -124.5Q268 -109 268 -88V-61Q268 -55 271 -52Q274 -49 280 -49H302Q308 -49 311 -52Q314 -55 314 -61V-90Q314 -117 305.5 -144Q297 -171 277 -204Q274 -209 270.5 -210.5Q267 -212 261 -210L244 -205Q239 -203 237.5 -199Q236 -195 239 -189ZM302 634H149V327H302Q381 327 419.5 352.5Q458 378 458 430V531Q458 583 419.5 608.5Q381 634 302 634ZM149 282V12Q149 6 146.5 3Q144 0 138 0H108Q102 0 99 3Q96 6 96 12V668Q96 674 99 677Q102 680 107 680H302Q406 680 458.5 644.5Q511 609 511 539V423Q511 367 479.5 334Q448 301 384 289L520 12Q522 7 519 3.5Q516 0 509 0H475Q470 0 466.5 2.5Q463 5 460 12L330 283Q325 282 319.5 282Q314 282 302 282Z" glyph-name="Rcommaaccent" horiz-adv-x="583" unicode="&#342;" /><glyph d="M422 498V541Q422 594 386 618.5Q350 643 274 643Q197 643 160.5 618.5Q124 594 124 541V504Q124 474 140.5 452.5Q157 431 188 419L380 346Q428 328 454 296Q480 264 480 221V133Q480 63 427.5 27.5Q375 -8 272 -8Q169 -8 117 27.5Q65 63 65 133V185Q65 192 67.5 195Q70 198 76 198H105Q111 198 114 195Q117 192 117 185V139Q117 87 155 62Q193 37 272 37Q350 37 388.5 62Q427 87 427 139V210Q427 241 407.5 263.5Q388 286 344 303L159 375Q120 390 96 421.5Q72 453 72 493V547Q72 618 122 653Q172 688 273 688Q374 688 424 653Q474 618 474 547V498Q474 492 471.5 489Q469 486 463 486H434Q428 486 425 489Q422 492 422 498Z" glyph-name="S" horiz-adv-x="548" unicode="S" /><glyph d="M422 498V541Q422 594 386 618.5Q350 643 274 643Q197 643 160.5 618.5Q124 594 124 541V504Q124 474 140.5 452.5Q157 431 188 419L380 346Q428 328 454 296Q480 264 480 221V133Q480 63 427.5 27.5Q375 -8 272 -8Q169 -8 117 27.5Q65 63 65 133V185Q65 192 67.5 195Q70 198 76 198H105Q111 198 114 195Q117 192 117 185V139Q117 87 155 62Q193 37 272 37Q350 37 388.5 62Q427 87 427 139V210Q427 241 407.5 263.5Q388 286 344 303L159 375Q120 390 96 421.5Q72 453 72 493V547Q72 618 122 653Q172 688 273 688Q374 688 424 653Q474 618 474 547V498Q474 492 471.5 489Q469 486 463 486H434Q428 486 425 489Q422 492 422 498ZM379 866 298 747Q296 744 292.5 742Q289 740 284 740H259Q253 740 251.5 743Q250 746 253 751L326 868Q330 874 333 876Q336 878 341 878H373Q380 878 381.5 875Q383 872 379 866Z" glyph-name="Sacute" horiz-adv-x="550" unicode="&#346;" /><glyph d="M422 498V541Q422 594 386 618.5Q350 643 274 643Q197 643 160.5 618.5Q124 594 124 541V504Q124 474 140.5 452.5Q157 431 188 419L380 346Q428 328 454 296Q480 264 480 221V133Q480 63 427.5 27.5Q375 -8 272 -8Q169 -8 117 27.5Q65 63 65 133V185Q65 192 67.5 195Q70 198 76 198H105Q111 198 114 195Q117 192 117 185V139Q117 87 155 62Q193 37 272 37Q350 37 388.5 62Q427 87 427 139V210Q427 241 407.5 263.5Q388 286 344 303L159 375Q120 390 96 421.5Q72 453 72 493V547Q72 618 122 653Q172 688 273 688Q374 688 424 653Q474 618 474 547V498Q474 492 471.5 489Q469 486 463 486H434Q428 486 425 489Q422 492 422 498ZM215 866 275 774 336 866Q340 872 344 875Q348 878 352 878H376Q382 878 383.5 874.5Q385 871 382 866L303 751Q299 746 294.5 743Q290 740 285 740H265Q260 740 255.5 743Q251 746 247 752L169 866Q165 871 167 874.5Q169 878 175 878H198Q203 878 207 875.5Q211 873 215 866Z" glyph-name="Scaron" horiz-adv-x="550" unicode="&#352;" /><glyph d="M391 -131Q391 -169 369.5 -190Q348 -211 310 -211H187Q181 -211 178 -208Q175 -205 175 -199V-191Q175 -185 178 -182.5Q181 -180 187 -180H303Q324 -180 338 -167Q352 -154 352 -131Q352 -108 338.5 -95Q325 -82 303 -82H243Q233 -82 229.5 -77.5Q226 -73 229 -66L246 -8Q155 -3 110 32.5Q65 68 65 133V185Q65 191 68 194Q71 197 77 197H106Q112 197 115 194Q118 191 118 185V139Q118 86 156 61Q194 36 272 36Q351 36 389.5 61.5Q428 87 428 139V212Q428 242 407.5 265.5Q387 289 345 305L159 376Q121 391 97 423Q73 455 73 494V547Q73 620 122.5 654Q172 688 274 688Q376 688 425.5 653.5Q475 619 475 547V498Q475 492 472 489Q469 486 463 486H434Q428 486 425.5 489Q423 492 423 498V542Q423 595 387 619.5Q351 644 274 644Q197 644 161 619.5Q125 595 125 542V501Q125 472 142 450Q159 428 188 416L380 344Q427 327 454 294Q481 261 481 219V133Q481 64 432.5 29.5Q384 -5 287 -7Q286 -7 285.5 -7Q285 -7 284 -7L271 -52H310Q348 -52 369.5 -72.5Q391 -93 391 -131Z" glyph-name="Scedilla" horiz-adv-x="550" unicode="&#350;" /><glyph d="M422 498V541Q422 594 386 618.5Q350 643 274 643Q197 643 160.5 618.5Q124 594 124 541V504Q124 474 140.5 452.5Q157 431 188 419L380 346Q428 328 454 296Q480 264 480 221V133Q480 63 427.5 27.5Q375 -8 272 -8Q169 -8 117 27.5Q65 63 65 133V185Q65 192 67.5 195Q70 198 76 198H105Q111 198 114 195Q117 192 117 185V139Q117 87 155 62Q193 37 272 37Q350 37 388.5 62Q427 87 427 139V210Q427 241 407.5 263.5Q388 286 344 303L159 375Q120 390 96 421.5Q72 453 72 493V547Q72 618 122 653Q172 688 273 688Q374 688 424 653Q474 618 474 547V498Q474 492 471.5 489Q469 486 463 486H434Q428 486 425 489Q422 492 422 498ZM331 752 270 844 210 752Q206 745 202 742.5Q198 740 193 740H170Q164 740 162 743.5Q160 747 164 752L242 866Q246 872 250.5 875Q255 878 260 878H280Q285 878 289.5 875Q294 872 298 867L377 752Q380 747 378.5 743.5Q377 740 371 740H347Q343 740 339 743Q335 746 331 752Z" glyph-name="Scircumflex" horiz-adv-x="550" unicode="&#348;" /><glyph d="M36 680H452Q458 680 461 677Q464 674 464 668V646Q464 640 461 637Q458 634 452 634H270V12Q270 6 267.5 3Q265 0 259 0H229Q223 0 220 3Q217 6 217 12V634H36Q29 634 26.5 636.5Q24 639 24 646V668Q24 675 26.5 677.5Q29 680 36 680Z" glyph-name="T" horiz-adv-x="488" unicode="T" /><glyph d="M288 415V12Q288 6 285.5 3Q283 0 277 0H247Q241 0 238 3Q235 6 235 12V415H82Q76 415 73 418Q70 421 70 427V443Q70 449 73 451.5Q76 454 82 454H235V634H54Q47 634 44.5 636.5Q42 639 42 646V668Q42 675 44.5 677.5Q47 680 54 680H470Q476 680 479 677Q482 674 482 668V646Q482 640 479 637Q476 634 470 634H288V454H444Q450 454 453 451.5Q456 449 456 443V427Q456 421 453 418Q450 415 444 415Z" glyph-name="Tbar" horiz-adv-x="524" unicode="&#358;" /><glyph d="M36 680H452Q458 680 461 677Q464 674 464 668V646Q464 640 461 637Q458 634 452 634H270V12Q270 6 267.5 3Q265 0 259 0H229Q223 0 220 3Q217 6 217 12V634H36Q29 634 26.5 636.5Q24 639 24 646V668Q24 675 26.5 677.5Q29 680 36 680ZM184 866 244 774 305 866Q309 872 313 875Q317 878 321 878H345Q351 878 352.5 874.5Q354 871 351 866L272 751Q268 746 263.5 743Q259 740 254 740H234Q229 740 224.5 743Q220 746 216 752L138 866Q134 871 136 874.5Q138 878 144 878H167Q172 878 176 875.5Q180 873 184 866Z" glyph-name="Tcaron" horiz-adv-x="488" unicode="&#356;" /><glyph d="M149 668V493H302Q406 493 458.5 457.5Q511 422 511 352V245Q511 175 458.5 139.5Q406 104 302 104H149V12Q149 6 146.5 3Q144 0 138 0H108Q102 0 99 3Q96 6 96 12V668Q96 674 99 677Q102 680 108 680H138Q144 680 146.5 677Q149 674 149 668ZM302 448H149V149H302Q380 149 419 175Q458 201 458 253V344Q458 396 419 422Q380 448 302 448Z" glyph-name="Thorn" horiz-adv-x="571" unicode="&#222;" /><glyph d="M146 668V141Q146 89 184.5 63.5Q223 38 301 38Q380 38 419 63.5Q458 89 458 141V668Q458 674 460.5 677Q463 680 469 680H499Q505 680 508 677Q511 674 511 668V133Q511 63 458.5 27.5Q406 -8 301 -8Q197 -8 145 27.5Q93 63 93 133V668Q93 674 96 677Q99 680 105 680H134Q140 680 143 677Q146 674 146 668Z" glyph-name="U" horiz-adv-x="603" unicode="U" /><glyph d="M146 668V141Q146 89 184.5 63.5Q223 38 301 38Q380 38 419 63.5Q458 89 458 141V668Q458 674 460.5 677Q463 680 469 680H499Q505 680 508 677Q511 674 511 668V133Q511 63 458.5 27.5Q406 -8 301 -8Q197 -8 145 27.5Q93 63 93 133V668Q93 674 96 677Q99 680 105 680H134Q140 680 143 677Q146 674 146 668ZM404 866 323 747Q321 744 317.5 742Q314 740 309 740H284Q278 740 276.5 743Q275 746 278 751L351 868Q355 874 358 876Q361 878 366 878H398Q405 878 406.5 875Q408 872 404 866Z" glyph-name="Uacute" horiz-adv-x="603" unicode="&#218;" /><glyph d="M146 668V141Q146 89 184.5 63.5Q223 38 301 38Q380 38 419 63.5Q458 89 458 141V668Q458 674 460.5 677Q463 680 469 680H499Q505 680 508 677Q511 674 511 668V133Q511 63 458.5 27.5Q406 -8 301 -8Q197 -8 145 27.5Q93 63 93 133V668Q93 674 96 677Q99 680 105 680H134Q140 680 143 677Q146 674 146 668ZM228 868V851Q228 810 245.5 793.5Q263 777 301 777Q340 777 357.5 793.5Q375 810 375 851V868Q375 874 377.5 876.5Q380 879 386 879H404Q410 879 412.5 876.5Q415 874 415 868V852Q415 795 387 769Q359 743 300 743Q242 743 215 768.5Q188 794 188 852V868Q188 874 190.5 876.5Q193 879 199 879H217Q223 879 225.5 876.5Q228 874 228 868Z" glyph-name="Ubreve" horiz-adv-x="603" unicode="&#364;" /><glyph d="M362 752 301 844 241 752Q237 745 233 742.5Q229 740 224 740H201Q195 740 193 743.5Q191 747 195 752L273 866Q277 872 281.5 875Q286 878 291 878H311Q316 878 320.5 875Q325 872 329 867L408 752Q411 747 409.5 743.5Q408 740 402 740H378Q374 740 370 743Q366 746 362 752ZM146 668V141Q146 89 184.5 63.5Q223 38 301 38Q380 38 419 63.5Q458 89 458 141V668Q458 674 460.5 677Q463 680 469 680H499Q505 680 508 677Q511 674 511 668V133Q511 63 458.5 27.5Q406 -8 301 -8Q197 -8 145 27.5Q93 63 93 133V668Q93 674 96 677Q99 680 105 680H134Q140 680 143 677Q146 674 146 668Z" glyph-name="Ucircumflex" horiz-adv-x="603" unicode="&#219;" /><glyph d="M146 668V141Q146 89 184.5 63.5Q223 38 301 38Q380 38 419 63.5Q458 89 458 141V668Q458 674 460.5 677Q463 680 469 680H499Q505 680 508 677Q511 674 511 668V133Q511 63 458.5 27.5Q406 -8 301 -8Q197 -8 145 27.5Q93 63 93 133V668Q93 674 96 677Q99 680 105 680H134Q140 680 143 677Q146 674 146 668ZM273 857V759Q273 753 270.5 750Q268 747 262 747H244Q238 747 235 750Q232 753 232 759V857Q232 863 235 866Q238 869 244 869H262Q268 869 270.5 866Q273 863 273 857ZM371 857V759Q371 753 368.5 750Q366 747 360 747H342Q336 747 333 750Q330 753 330 759V857Q330 863 333 866Q336 869 342 869H360Q366 869 368.5 866Q371 863 371 857Z" glyph-name="Udieresis" horiz-adv-x="603" unicode="&#220;" /><glyph d="M279 747 198 866Q194 871 195.5 874.5Q197 878 203 878H235Q240 878 243.5 876Q247 874 251 867L323 751Q326 746 325 742.5Q324 739 318 739H293Q289 739 285.5 741Q282 743 279 747ZM146 668V141Q146 89 184.5 63.5Q223 38 301 38Q380 38 419 63.5Q458 89 458 141V668Q458 674 460.5 677Q463 680 469 680H499Q505 680 508 677Q511 674 511 668V133Q511 63 458.5 27.5Q406 -8 301 -8Q197 -8 145 27.5Q93 63 93 133V668Q93 674 96 677Q99 680 105 680H134Q140 680 143 677Q146 674 146 668Z" glyph-name="Ugrave" horiz-adv-x="603" unicode="&#217;" /><glyph d="M448 866 369 750Q365 745 361 742.5Q357 740 352 740H330Q324 740 322.5 743.5Q321 747 324 752L397 866Q401 872 406 875Q411 878 416 878H442Q448 878 450 874.5Q452 871 448 866ZM346 866 281 752Q276 744 273 742Q270 740 265 740H243Q238 740 236 743.5Q234 747 236 752L295 866Q298 872 302 875Q306 878 311 878H338Q344 878 346.5 874.5Q349 871 346 866ZM146 668V141Q146 89 184.5 63.5Q223 38 301 38Q380 38 419 63.5Q458 89 458 141V668Q458 674 460.5 677Q463 680 469 680H499Q505 680 508 677Q511 674 511 668V133Q511 63 458.5 27.5Q406 -8 301 -8Q197 -8 145 27.5Q93 63 93 133V668Q93 674 96 677Q99 680 105 680H134Q140 680 143 677Q146 674 146 668Z" glyph-name="Uhungarumlaut" horiz-adv-x="603" unicode="&#368;" /><glyph d="M146 668V141Q146 89 184.5 63.5Q223 38 301 38Q380 38 419 63.5Q458 89 458 141V668Q458 674 460.5 677Q463 680 469 680H499Q505 680 508 677Q511 674 511 668V133Q511 63 458.5 27.5Q406 -8 301 -8Q197 -8 145 27.5Q93 63 93 133V668Q93 674 96 677Q99 680 105 680H134Q140 680 143 677Q146 674 146 668ZM173 820H430Q437 820 439.5 817.5Q442 815 442 809V791Q442 785 439 782Q436 779 430 779H173Q167 779 164 782Q161 785 161 791V809Q161 815 164 817.5Q167 820 173 820Z" glyph-name="Umacron" horiz-adv-x="603" unicode="&#362;" /><glyph d="M146 668V141Q146 89 184.5 63.5Q223 38 301 38Q380 38 419 63.5Q458 89 458 141V668Q458 674 460.5 677Q463 680 469 680H499Q505 680 508 677Q511 674 511 668V133Q511 103 501.5 79.5Q492 56 473 39Q469 35 451 21Q433 7 424 -3Q411 -17 405 -31.5Q399 -46 399 -62Q399 -86 414 -98.5Q429 -111 458 -111H492Q498 -111 501 -114Q504 -117 504 -123V-137Q504 -143 500.5 -146Q497 -149 490 -149H445Q405 -149 381.5 -128.5Q358 -108 358 -71Q358 -51 364.5 -33.5Q371 -16 384 0Q365 -4 344.5 -6Q324 -8 301 -8Q197 -8 145 27.5Q93 63 93 133V668Q93 674 96 677Q99 680 105 680H134Q140 680 143 677Q146 674 146 668Z" glyph-name="Uogonek" horiz-adv-x="603" unicode="&#370;" /><glyph d="M301 884Q346 884 369.5 865Q393 846 393 811V796Q393 761 369.5 742Q346 723 301 723Q257 723 233.5 742Q210 761 210 796V811Q210 846 233.5 865Q257 884 301 884ZM301 753Q329 753 344 765.5Q359 778 359 800V807Q359 829 344 841.5Q329 854 301 854Q273 854 258.5 842Q244 830 244 807V800Q244 777 258.5 765Q273 753 301 753ZM146 668V141Q146 89 184.5 63.5Q223 38 301 38Q380 38 419 63.5Q458 89 458 141V668Q458 674 460.5 677Q463 680 469 680H499Q505 680 508 677Q511 674 511 668V133Q511 63 458.5 27.5Q406 -8 301 -8Q197 -8 145 27.5Q93 63 93 133V668Q93 674 96 677Q99 680 105 680H134Q140 680 143 677Q146 674 146 668Z" glyph-name="Uring" horiz-adv-x="603" unicode="&#366;" /><glyph d="M146 668V141Q146 89 184.5 63.5Q223 38 301 38Q380 38 419 63.5Q458 89 458 141V668Q458 674 460.5 677Q463 680 469 680H499Q505 680 508 677Q511 674 511 668V133Q511 63 458.5 27.5Q406 -8 301 -8Q197 -8 145 27.5Q93 63 93 133V668Q93 674 96 677Q99 680 105 680H134Q140 680 143 677Q146 674 146 668ZM367 796Q386 796 392 806.5Q398 817 398 850V859Q398 865 401 867.5Q404 870 411 870H427Q433 870 435.5 867Q438 864 438 857V838Q438 798 420 776.5Q402 755 369 755Q357 755 343 760.5Q329 766 317 775L272 811Q262 819 252.5 823.5Q243 828 236 828Q217 828 211 817.5Q205 807 205 774V765Q205 759 202 756.5Q199 754 192 754H175Q170 754 167.5 757Q165 760 165 768V787Q165 827 182.5 848Q200 869 233 869Q247 869 260.5 864Q274 859 285 850L331 813Q343 804 351.5 800Q360 796 367 796Z" glyph-name="Utilde" horiz-adv-x="603" unicode="&#360;" /><glyph d="M278 0H247Q241 0 237.5 3Q234 6 232 12L29 668Q27 674 29 677Q31 680 38 680H71Q76 680 79.5 677.5Q83 675 85 668L241 163Q246 148 252 120.5Q258 93 263 68Q264 80 271.5 109.5Q279 139 286 161L443 668Q445 675 448 677.5Q451 680 457 680H487Q494 680 496 677Q498 674 496 668L293 12Q291 6 287.5 3Q284 0 278 0Z" glyph-name="V" horiz-adv-x="525" unicode="V" /><glyph d="M434 668 562 162Q567 141 572 118Q577 95 578 88Q579 95 584 118.5Q589 142 594 162L724 668Q726 675 729 677.5Q732 680 738 680H764Q770 680 772.5 677Q775 674 773 668L607 12Q605 6 601.5 3Q598 0 592 0H562Q556 0 552.5 3Q549 6 547 12L417 526Q413 540 409 561.5Q405 583 404 591Q402 581 397.5 559Q393 537 390 526L260 12Q258 6 254.5 3Q251 0 244 0H214Q209 0 205 3Q201 6 200 12L34 668Q32 674 34.5 677Q37 680 43 680H73Q79 680 82 677.5Q85 675 87 668L216 162Q219 148 224.5 122.5Q230 97 231 91Q233 100 239 124.5Q245 149 248 162L377 668Q379 674 382 677Q385 680 391 680H420Q426 680 429 677Q432 674 434 668Z" glyph-name="W" horiz-adv-x="807" unicode="W" /><glyph d="M513 866 432 747Q430 744 426.5 742Q423 740 418 740H393Q387 740 385.5 743Q384 746 387 751L460 868Q464 874 467 876Q470 878 475 878H507Q514 878 515.5 875Q517 872 513 866ZM434 668 562 162Q567 141 572 118Q577 95 578 88Q579 95 584 118.5Q589 142 594 162L724 668Q726 675 729 677.5Q732 680 738 680H764Q770 680 772.5 677Q775 674 773 668L607 12Q605 6 601.5 3Q598 0 592 0H562Q556 0 552.5 3Q549 6 547 12L417 526Q413 540 409 561.5Q405 583 404 591Q402 581 397.5 559Q393 537 390 526L260 12Q258 6 254.5 3Q251 0 244 0H214Q209 0 205 3Q201 6 200 12L34 668Q32 674 34.5 677Q37 680 43 680H73Q79 680 82 677.5Q85 675 87 668L216 162Q219 148 224.5 122.5Q230 97 231 91Q233 100 239 124.5Q245 149 248 162L377 668Q379 674 382 677Q385 680 391 680H420Q426 680 429 677Q432 674 434 668Z" glyph-name="Wacute" horiz-adv-x="808" unicode="&#7810;" /><glyph d="M465 752 404 844 344 752Q340 745 336 742.5Q332 740 327 740H304Q298 740 296 743.5Q294 747 298 752L376 866Q380 872 384.5 875Q389 878 394 878H414Q419 878 423.5 875Q428 872 432 867L511 752Q514 747 512.5 743.5Q511 740 505 740H481Q477 740 473 743Q469 746 465 752ZM434 668 562 162Q567 141 572 118Q577 95 578 88Q579 95 584 118.5Q589 142 594 162L724 668Q726 675 729 677.5Q732 680 738 680H764Q770 680 772.5 677Q775 674 773 668L607 12Q605 6 601.5 3Q598 0 592 0H562Q556 0 552.5 3Q549 6 547 12L417 526Q413 540 409 561.5Q405 583 404 591Q402 581 397.5 559Q393 537 390 526L260 12Q258 6 254.5 3Q251 0 244 0H214Q209 0 205 3Q201 6 200 12L34 668Q32 674 34.5 677Q37 680 43 680H73Q79 680 82 677.5Q85 675 87 668L216 162Q219 148 224.5 122.5Q230 97 231 91Q233 100 239 124.5Q245 149 248 162L377 668Q379 674 382 677Q385 680 391 680H420Q426 680 429 677Q432 674 434 668Z" glyph-name="Wcircumflex" horiz-adv-x="807" unicode="&#372;" /><glyph d="M434 668 562 162Q567 141 572 118Q577 95 578 88Q579 95 584 118.5Q589 142 594 162L724 668Q726 675 729 677.5Q732 680 738 680H764Q770 680 772.5 677Q775 674 773 668L607 12Q605 6 601.5 3Q598 0 592 0H562Q556 0 552.5 3Q549 6 547 12L417 526Q413 540 409 561.5Q405 583 404 591Q402 581 397.5 559Q393 537 390 526L260 12Q258 6 254.5 3Q251 0 244 0H214Q209 0 205 3Q201 6 200 12L34 668Q32 674 34.5 677Q37 680 43 680H73Q79 680 82 677.5Q85 675 87 668L216 162Q219 148 224.5 122.5Q230 97 231 91Q233 100 239 124.5Q245 149 248 162L377 668Q379 674 382 677Q385 680 391 680H420Q426 680 429 677Q432 674 434 668ZM375 857V759Q375 753 372.5 750Q370 747 364 747H346Q340 747 337 750Q334 753 334 759V857Q334 863 337 866Q340 869 346 869H364Q370 869 372.5 866Q375 863 375 857ZM473 857V759Q473 753 470.5 750Q468 747 462 747H444Q438 747 435 750Q432 753 432 759V857Q432 863 435 866Q438 869 444 869H462Q468 869 470.5 866Q473 863 473 857Z" glyph-name="Wdieresis" horiz-adv-x="808" unicode="&#7812;" /><glyph d="M377 747 296 866Q292 871 293.5 874.5Q295 878 301 878H333Q338 878 341.5 876Q345 874 349 867L421 751Q424 746 423 742.5Q422 739 416 739H391Q387 739 383.5 741Q380 743 377 747ZM434 668 562 162Q567 141 572 118Q577 95 578 88Q579 95 584 118.5Q589 142 594 162L724 668Q726 675 729 677.5Q732 680 738 680H764Q770 680 772.5 677Q775 674 773 668L607 12Q605 6 601.5 3Q598 0 592 0H562Q556 0 552.5 3Q549 6 547 12L417 526Q413 540 409 561.5Q405 583 404 591Q402 581 397.5 559Q393 537 390 526L260 12Q258 6 254.5 3Q251 0 244 0H214Q209 0 205 3Q201 6 200 12L34 668Q32 674 34.5 677Q37 680 43 680H73Q79 680 82 677.5Q85 675 87 668L216 162Q219 148 224.5 122.5Q230 97 231 91Q233 100 239 124.5Q245 149 248 162L377 668Q379 674 382 677Q385 680 391 680H420Q426 680 429 677Q432 674 434 668Z" glyph-name="Wgrave" horiz-adv-x="808" unicode="&#7808;" /><glyph d="M480 668 292 344 490 12Q493 7 491 3.5Q489 0 483 0H448Q443 0 438.5 3Q434 6 430 12L259 297L94 12Q90 5 86 2.5Q82 0 77 0H43Q37 0 35.5 4Q34 8 37 13L231 346L41 667Q38 673 39 676.5Q40 680 46 680H82Q87 680 91.5 677Q96 674 100 668L266 390L424 668Q428 674 432 677Q436 680 442 680H475Q481 680 482 677Q483 674 480 668Z" glyph-name="X" horiz-adv-x="524" unicode="X" /><glyph d="M82 668 244 360Q247 355 251 345Q255 335 258 327Q260 332 264 341.5Q268 351 273 360L437 668Q441 675 444 677.5Q447 680 452 680H481Q489 680 491 677Q493 674 490 668L285 282V12Q285 6 282 3Q279 0 273 0H243Q237 0 234.5 3Q232 6 232 12V276L26 668Q23 674 25 677Q27 680 34 680H67Q72 680 75 678Q78 676 82 668Z" glyph-name="Y" horiz-adv-x="516" unicode="Y" /><glyph d="M82 668 244 360Q247 355 251 345Q255 335 258 327Q260 332 264 341.5Q268 351 273 360L437 668Q441 675 444 677.5Q447 680 452 680H481Q489 680 491 677Q493 674 490 668L285 282V12Q285 6 282 3Q279 0 273 0H243Q237 0 234.5 3Q232 6 232 12V276L26 668Q23 674 25 677Q27 680 34 680H67Q72 680 75 678Q78 676 82 668ZM369 866 288 747Q286 744 282.5 742Q279 740 274 740H249Q243 740 241.5 743Q240 746 243 751L316 868Q320 874 323 876Q326 878 331 878H363Q370 878 371.5 875Q373 872 369 866Z" glyph-name="Yacute" horiz-adv-x="516" unicode="&#221;" /><glyph d="M82 668 244 360Q247 355 251 345Q255 335 258 327Q260 332 264 341.5Q268 351 273 360L437 668Q441 675 444 677.5Q447 680 452 680H481Q489 680 491 677Q493 674 490 668L285 282V12Q285 6 282 3Q279 0 273 0H243Q237 0 234.5 3Q232 6 232 12V276L26 668Q23 674 25 677Q27 680 34 680H67Q72 680 75 678Q78 676 82 668ZM318 752 257 844 197 752Q193 745 189 742.5Q185 740 180 740H157Q151 740 149 743.5Q147 747 151 752L229 866Q233 872 237.5 875Q242 878 247 878H267Q272 878 276.5 875Q281 872 285 867L364 752Q367 747 365.5 743.5Q364 740 358 740H334Q330 740 326 743Q322 746 318 752Z" glyph-name="Ycircumflex" horiz-adv-x="516" unicode="&#374;" /><glyph d="M82 668 244 360Q247 355 251 345Q255 335 258 327Q260 332 264 341.5Q268 351 273 360L437 668Q441 675 444 677.5Q447 680 452 680H481Q489 680 491 677Q493 674 490 668L285 282V12Q285 6 282 3Q279 0 273 0H243Q237 0 234.5 3Q232 6 232 12V276L26 668Q23 674 25 677Q27 680 34 680H67Q72 680 75 678Q78 676 82 668ZM229 857V759Q229 753 226.5 750Q224 747 218 747H200Q194 747 191 750Q188 753 188 759V857Q188 863 191 866Q194 869 200 869H218Q224 869 226.5 866Q229 863 229 857ZM327 857V759Q327 753 324.5 750Q322 747 316 747H298Q292 747 289 750Q286 753 286 759V857Q286 863 289 866Q292 869 298 869H316Q322 869 324.5 866Q327 863 327 857Z" glyph-name="Ydieresis" horiz-adv-x="516" unicode="&#376;" /><glyph d="M82 668 244 360Q247 355 251 345Q255 335 258 327Q260 332 264 341.5Q268 351 273 360L437 668Q441 675 444 677.5Q447 680 452 680H481Q489 680 491 677Q493 674 490 668L285 282V12Q285 6 282 3Q279 0 273 0H243Q237 0 234.5 3Q232 6 232 12V276L26 668Q23 674 25 677Q27 680 34 680H67Q72 680 75 678Q78 676 82 668ZM228 747 147 866Q143 871 144.5 874.5Q146 878 152 878H184Q189 878 192.5 876Q196 874 200 867L272 751Q275 746 274 742.5Q273 739 267 739H242Q238 739 234.5 741Q231 743 228 747Z" glyph-name="Ygrave" horiz-adv-x="516" unicode="&#7922;" /><glyph d="M65 680H412Q419 680 422 677Q425 674 425 668V647Q425 645 424.5 642.5Q424 640 422 637L99 46H428Q434 46 436.5 43.5Q439 41 439 34V12Q439 5 436.5 2.5Q434 0 428 0H47Q40 0 37.5 2.5Q35 5 35 12V34Q35 37 35.5 39Q36 41 37 43L358 634H65Q58 634 55.5 636.5Q53 639 53 646V668Q53 675 55.5 677.5Q58 680 65 680Z" glyph-name="Z" horiz-adv-x="475" unicode="Z" /><glyph d="M65 680H412Q419 680 422 677Q425 674 425 668V647Q425 645 424.5 642.5Q424 640 422 637L99 46H428Q434 46 436.5 43.5Q439 41 439 34V12Q439 5 436.5 2.5Q434 0 428 0H47Q40 0 37.5 2.5Q35 5 35 12V34Q35 37 35.5 39Q36 41 37 43L358 634H65Q58 634 55.5 636.5Q53 639 53 646V668Q53 675 55.5 677.5Q58 680 65 680ZM342 866 261 747Q259 744 255.5 742Q252 740 247 740H222Q216 740 214.5 743Q213 746 216 751L289 868Q293 874 296 876Q299 878 304 878H336Q343 878 344.5 875Q346 872 342 866Z" glyph-name="Zacute" horiz-adv-x="472" unicode="&#377;" /><glyph d="M171 881 232 789 292 881Q296 887 300 890Q304 893 309 893H332Q338 893 340 889.5Q342 886 338 881L260 766Q256 761 251.5 758Q247 755 241 755H221Q216 755 211.5 758Q207 761 203 767L125 881Q122 886 123.5 889.5Q125 893 131 893H155Q159 893 163 890.5Q167 888 171 881ZM65 680H412Q419 680 422 677Q425 674 425 668V647Q425 645 424.5 642.5Q424 640 422 637L99 46H428Q434 46 436.5 43.5Q439 41 439 34V12Q439 5 436.5 2.5Q434 0 428 0H47Q40 0 37.5 2.5Q35 5 35 12V34Q35 37 35.5 39Q36 41 37 43L358 634H65Q58 634 55.5 636.5Q53 639 53 646V668Q53 675 55.5 677.5Q58 680 65 680Z" glyph-name="Zcaron" horiz-adv-x="472" unicode="&#381;" /><glyph d="M256 838V761Q256 755 253 752Q250 749 244 749H215Q209 749 206 752Q203 755 203 761V838Q203 844 206 847Q209 850 215 850H244Q251 850 253.5 847.5Q256 845 256 838ZM65 680H412Q419 680 422 677Q425 674 425 668V647Q425 645 424.5 642.5Q424 640 422 637L99 46H428Q434 46 436.5 43.5Q439 41 439 34V12Q439 5 436.5 2.5Q434 0 428 0H47Q40 0 37.5 2.5Q35 5 35 12V34Q35 37 35.5 39Q36 41 37 43L358 634H65Q58 634 55.5 636.5Q53 639 53 646V668Q53 675 55.5 677.5Q58 680 65 680Z" glyph-name="Zdotaccent" horiz-adv-x="472" unicode="&#379;" /><glyph d="M69 360V378Q69 441 112 471Q155 501 243 501Q332 501 374.5 471Q417 441 417 378V12Q417 6 414.5 3Q412 0 406 0H381Q375 0 372 3Q369 6 369 12L367 52Q330 23 287 7.5Q244 -8 197 -8Q133 -8 96.5 23Q60 54 60 108V159Q60 212 93.5 243.5Q127 275 185 275H366V374Q366 418 336 438Q306 458 243 458Q179 458 148.5 438.5Q118 419 118 375V360Q118 353 115.5 350.5Q113 348 106 348H80Q74 348 71.5 350.5Q69 353 69 360ZM208 36Q249 36 288.5 50.5Q328 65 366 95V233H194Q153 233 132 212.5Q111 192 111 153V114Q111 76 136 56Q161 36 208 36Z" glyph-name="a" horiz-adv-x="498" unicode="a" /><glyph d="M69 360V378Q69 441 112 471Q155 501 243 501Q332 501 374.5 471Q417 441 417 378V12Q417 6 414.5 3Q412 0 406 0H381Q375 0 372 3Q369 6 369 12L367 52Q330 23 287 7.5Q244 -8 197 -8Q133 -8 96.5 23Q60 54 60 108V159Q60 212 93.5 243.5Q127 275 185 275H366V374Q366 418 336 438Q306 458 243 458Q179 458 148.5 438.5Q118 419 118 375V360Q118 353 115.5 350.5Q113 348 106 348H80Q74 348 71.5 350.5Q69 353 69 360ZM208 36Q249 36 288.5 50.5Q328 65 366 95V233H194Q153 233 132 212.5Q111 192 111 153V114Q111 76 136 56Q161 36 208 36ZM341 696 260 577Q258 574 254.5 572Q251 570 246 570H221Q215 570 213.5 573Q212 576 215 581L287 698Q290 703 294 705.5Q298 708 303 708H335Q341 708 343 704.5Q345 701 341 696Z" glyph-name="aacute" horiz-adv-x="499" unicode="&#225;" /><glyph d="M69 360V378Q69 441 112 471Q155 501 243 501Q332 501 374.5 471Q417 441 417 378V12Q417 6 414.5 3Q412 0 406 0H381Q375 0 372 3Q369 6 369 12L367 52Q330 23 287 7.5Q244 -8 197 -8Q133 -8 96.5 23Q60 54 60 108V159Q60 212 93.5 243.5Q127 275 185 275H366V374Q366 418 336 438Q306 458 243 458Q179 458 148.5 438.5Q118 419 118 375V360Q118 353 115.5 350.5Q113 348 106 348H80Q74 348 71.5 350.5Q69 353 69 360ZM208 36Q249 36 288.5 50.5Q328 65 366 95V233H194Q153 233 132 212.5Q111 192 111 153V114Q111 76 136 56Q161 36 208 36ZM171 683V665Q171 625 188.5 608.5Q206 592 245 592Q283 592 300.5 608.5Q318 625 318 665V683Q318 689 320.5 691.5Q323 694 329 694H347Q353 694 355.5 691.5Q358 689 358 683V666Q358 610 330 583.5Q302 557 244 557Q186 557 158.5 583Q131 609 131 666V683Q131 689 133.5 691.5Q136 694 142 694H160Q166 694 168.5 691.5Q171 689 171 683Z" glyph-name="abreve" horiz-adv-x="499" unicode="&#259;" /><glyph d="M69 360V378Q69 441 112 471Q155 501 243 501Q332 501 374.5 471Q417 441 417 378V12Q417 6 414.5 3Q412 0 406 0H381Q375 0 372 3Q369 6 369 12L367 52Q330 23 287 7.5Q244 -8 197 -8Q133 -8 96.5 23Q60 54 60 108V159Q60 212 93.5 243.5Q127 275 185 275H366V374Q366 418 336 438Q306 458 243 458Q179 458 148.5 438.5Q118 419 118 375V360Q118 353 115.5 350.5Q113 348 106 348H80Q74 348 71.5 350.5Q69 353 69 360ZM208 36Q249 36 288.5 50.5Q328 65 366 95V233H194Q153 233 132 212.5Q111 192 111 153V114Q111 76 136 56Q161 36 208 36ZM301 582 241 674 180 582Q176 575 172 572.5Q168 570 164 570H140Q134 570 132.5 573.5Q131 577 134 582L212 696Q216 702 220.5 705Q225 708 230 708H250Q256 708 260.5 705Q265 702 269 697L347 582Q351 577 349 573.5Q347 570 341 570H318Q313 570 309 573Q305 576 301 582Z" glyph-name="acircumflex" horiz-adv-x="499" unicode="&#226;" /><glyph d="M232 696 151 577Q149 574 145.5 572Q142 570 137 570H112Q106 570 104.5 573Q103 576 106 581L178 698Q181 703 185 705.5Q189 708 194 708H226Q232 708 234 704.5Q236 701 232 696Z" glyph-name="acute" horiz-adv-x="336" unicode="&#180;" /><glyph d="M211 866 130 747Q128 744 124.5 742Q121 740 116 740H91Q85 740 83.5 743Q82 746 85 751L158 868Q162 874 165 876Q168 878 173 878H205Q212 878 213.5 875Q215 872 211 866Z" glyph-name="acute.case" horiz-adv-x="233" /><glyph d="M69 360V378Q69 441 112 471Q155 501 243 501Q332 501 374.5 471Q417 441 417 378V12Q417 6 414.5 3Q412 0 406 0H381Q375 0 372 3Q369 6 369 12L367 52Q330 23 287 7.5Q244 -8 197 -8Q133 -8 96.5 23Q60 54 60 108V159Q60 212 93.5 243.5Q127 275 185 275H366V374Q366 418 336 438Q306 458 243 458Q179 458 148.5 438.5Q118 419 118 375V360Q118 353 115.5 350.5Q113 348 106 348H80Q74 348 71.5 350.5Q69 353 69 360ZM208 36Q249 36 288.5 50.5Q328 65 366 95V233H194Q153 233 132 212.5Q111 192 111 153V114Q111 76 136 56Q161 36 208 36ZM213 690V592Q213 586 210 583Q207 580 201 580H183Q177 580 174 583Q171 586 171 592V690Q171 696 174 699Q177 702 183 702H201Q207 702 210 699Q213 696 213 690ZM311 690V592Q311 586 308 583Q305 580 299 580H281Q275 580 272 583Q269 586 269 592V690Q269 696 272 699Q275 702 281 702H299Q305 702 308 699Q311 696 311 690Z" glyph-name="adieresis" horiz-adv-x="499" unicode="&#228;" /><glyph d="M545 501Q635 501 678.5 471Q722 441 722 378V255Q722 250 719 247Q716 244 710 244H419V114Q419 71 449.5 52Q480 33 545 33Q610 33 641 53.5Q672 74 672 117V139Q672 145 675 147.5Q678 150 684 150H709Q715 150 717.5 147.5Q720 145 720 139V115Q720 52 677 22Q634 -8 545 -8Q474 -8 433.5 9.5Q393 27 378 64Q337 29 291.5 10.5Q246 -8 199 -8Q134 -8 98 22.5Q62 53 62 108V159Q62 212 95.5 243.5Q129 275 186 275H368V383Q368 422 337 441.5Q306 461 244 461Q180 461 149.5 441Q119 421 119 378V360Q119 354 116.5 351Q114 348 108 348H82Q76 348 73 351Q70 354 70 360V379Q70 442 113 471.5Q156 501 245 501Q305 501 341.5 486Q378 471 393 440Q410 470 448 485.5Q486 501 545 501ZM210 34Q249 34 287 50Q325 66 368 103V237H194Q156 237 134.5 215.5Q113 194 113 157V114Q113 76 138.5 55Q164 34 210 34ZM545 460Q481 460 450 439.5Q419 419 419 376V282H672V376Q672 419 641 439.5Q610 460 545 460Z" glyph-name="ae" horiz-adv-x="789" unicode="&#230;" /><glyph d="M500 696 419 577Q417 574 413.5 572Q410 570 405 570H380Q374 570 372.5 573Q371 576 374 581L446 698Q449 703 453 705.5Q457 708 462 708H494Q500 708 502 704.5Q504 701 500 696ZM545 501Q635 501 678.5 471Q722 441 722 378V255Q722 250 719 247Q716 244 710 244H419V114Q419 71 449.5 52Q480 33 545 33Q610 33 641 53.5Q672 74 672 117V139Q672 145 675 147.5Q678 150 684 150H709Q715 150 717.5 147.5Q720 145 720 139V115Q720 52 677 22Q634 -8 545 -8Q474 -8 433.5 9.5Q393 27 378 64Q337 29 291.5 10.5Q246 -8 199 -8Q134 -8 98 22.5Q62 53 62 108V159Q62 212 95.5 243.5Q129 275 186 275H368V383Q368 422 337 441.5Q306 461 244 461Q180 461 149.5 441Q119 421 119 378V360Q119 354 116.5 351Q114 348 108 348H82Q76 348 73 351Q70 354 70 360V379Q70 442 113 471.5Q156 501 245 501Q305 501 341.5 486Q378 471 393 440Q410 470 448 485.5Q486 501 545 501ZM210 34Q249 34 287 50Q325 66 368 103V237H194Q156 237 134.5 215.5Q113 194 113 157V114Q113 76 138.5 55Q164 34 210 34ZM545 460Q481 460 450 439.5Q419 419 419 376V282H672V376Q672 419 641 439.5Q610 460 545 460Z" glyph-name="aeacute" horiz-adv-x="787" unicode="&#509;" /><glyph d="M171 122V240Q140 224 108 210Q76 196 57 190Q51 188 47.5 189Q44 190 42 195L32 217Q30 222 31.5 226.5Q33 231 38 233Q58 240 97.5 257Q137 274 171 293V541Q171 612 209 647Q247 682 323 682Q398 682 434.5 647Q471 612 471 541Q471 468 410 400Q349 332 223 266V132Q223 87 253.5 65.5Q284 44 348 44H441Q447 44 450 41Q453 38 453 32V12Q453 6 450 3Q447 0 441 0H348Q259 0 215 30Q171 60 171 122ZM323 638Q271 638 247 614Q223 590 223 536V319Q322 374 371.5 429Q421 484 421 538Q421 591 397.5 614.5Q374 638 323 638Z" glyph-name="afii61289" horiz-adv-x="505" unicode="&#8467;" /><glyph d="M69 360V378Q69 441 112 471Q155 501 243 501Q332 501 374.5 471Q417 441 417 378V12Q417 6 414.5 3Q412 0 406 0H381Q375 0 372 3Q369 6 369 12L367 52Q330 23 287 7.5Q244 -8 197 -8Q133 -8 96.5 23Q60 54 60 108V159Q60 212 93.5 243.5Q127 275 185 275H366V374Q366 418 336 438Q306 458 243 458Q179 458 148.5 438.5Q118 419 118 375V360Q118 353 115.5 350.5Q113 348 106 348H80Q74 348 71.5 350.5Q69 353 69 360ZM208 36Q249 36 288.5 50.5Q328 65 366 95V233H194Q153 233 132 212.5Q111 192 111 153V114Q111 76 136 56Q161 36 208 36ZM221 577 140 696Q136 701 138 704.5Q140 708 146 708H178Q183 708 186.5 706Q190 704 194 698L266 581Q269 576 267.5 573Q266 570 261 570H236Q231 570 227.5 571.5Q224 573 221 577Z" glyph-name="agrave" horiz-adv-x="499" unicode="&#224;" /><glyph d="M69 360V378Q69 441 112 471Q155 501 243 501Q332 501 374.5 471Q417 441 417 378V12Q417 6 414.5 3Q412 0 406 0H381Q375 0 372 3Q369 6 369 12L367 52Q330 23 287 7.5Q244 -8 197 -8Q133 -8 96.5 23Q60 54 60 108V159Q60 212 93.5 243.5Q127 275 185 275H366V374Q366 418 336 438Q306 458 243 458Q179 458 148.5 438.5Q118 419 118 375V360Q118 353 115.5 350.5Q113 348 106 348H80Q74 348 71.5 350.5Q69 353 69 360ZM208 36Q249 36 288.5 50.5Q328 65 366 95V233H194Q153 233 132 212.5Q111 192 111 153V114Q111 76 136 56Q161 36 208 36ZM118 646H375Q381 646 384 643Q387 640 387 634V616Q387 610 384 607Q381 604 375 604H118Q112 604 109 607Q106 610 106 616V634Q106 640 109 643Q112 646 118 646Z" glyph-name="amacron" horiz-adv-x="499" unicode="&#257;" /><glyph d="M512 340V131Q512 63 456.5 27.5Q401 -8 293 -8Q185 -8 130 27Q75 62 75 130V247Q75 299 97.5 325.5Q120 352 170 363Q123 374 102 400Q81 426 81 476V550Q81 622 127.5 655Q174 688 271 688Q369 688 416 654.5Q463 621 463 549V530Q463 524 460 521Q457 518 451 518H422Q416 518 413.5 521Q411 524 411 530V543Q411 596 377.5 619.5Q344 643 272 643Q200 643 167 620Q134 597 134 543V483Q134 428 166 406.5Q198 385 273 385H591Q597 385 600 382Q603 379 603 373V351Q603 345 600 342.5Q597 340 591 340ZM294 37Q376 37 418.5 62.5Q461 88 461 137V340H267Q192 340 159.5 318Q127 296 127 241V137Q127 88 169.5 62.5Q212 37 294 37Z" glyph-name="ampersand" horiz-adv-x="641" unicode="&amp;" /><glyph d="M69 360V378Q69 441 112 471Q155 501 243 501Q332 501 374.5 471Q417 441 417 378V12Q417 6 414.5 3Q412 0 406 0H402Q371 -7 353.5 -25.5Q336 -44 336 -69Q336 -90 350.5 -100.5Q365 -111 393 -111H410Q416 -111 418.5 -114Q421 -117 421 -123V-137Q421 -143 417.5 -146Q414 -149 407 -149H381Q340 -149 317 -129.5Q294 -110 294 -75Q294 -48 314 -22.5Q334 3 369 20L367 52Q330 23 287 7.5Q244 -8 197 -8Q133 -8 96.5 23Q60 54 60 108V159Q60 212 93.5 243.5Q127 275 185 275H366V374Q366 418 336 438Q306 458 243 458Q179 458 148.5 438.5Q118 419 118 375V360Q118 353 115.5 350.5Q113 348 106 348H80Q74 348 71.5 350.5Q69 353 69 360ZM208 36Q249 36 288.5 50.5Q328 65 366 95V233H194Q153 233 132 212.5Q111 192 111 153V114Q111 76 136 56Q161 36 208 36Z" glyph-name="aogonek" horiz-adv-x="498" unicode="&#261;" /><glyph d="M714 320Q732 320 743 306Q754 292 754 269Q754 236 731.5 218.5Q709 201 667 201V161L670 129Q651 123 646.5 122Q642 121 638 121Q633 121 630 123Q627 125 627 129V204L602 201V198Q602 160 584.5 139.5Q567 119 534 119Q515 119 504 128.5Q493 138 493 153Q493 171 509.5 184Q526 197 563 206V248Q555 225 543 212.5Q531 200 517 200Q503 200 496 207.5Q489 215 489 231V234Q479 217 466 209Q453 201 436 201Q423 201 415 209Q407 217 407 231V332L378 330V334Q378 344 381 349Q384 354 390 354H407L404 384Q423 390 427.5 391Q432 392 436 392Q441 392 444 390Q447 388 447 384V355H494V352Q494 341 491 336Q488 331 482 331H447V245Q447 237 450 233Q453 229 460 229Q470 229 479.5 237Q489 245 489 255V280L486 313Q505 319 509.5 320Q514 321 518 321Q523 321 526 318.5Q529 316 529 312V246Q529 238 530.5 234.5Q532 231 536 231Q543 231 552.5 248.5Q562 266 562 279L560 313Q579 319 583.5 320Q588 321 591 321Q596 321 599 318.5Q602 316 602 312V213L627 216V277L624 313Q643 319 647.5 320Q652 321 656 321Q661 321 664 318.5Q667 316 667 312V272Q675 295 687 307.5Q699 320 714 320ZM355 321Q369 321 376 313Q383 305 383 289V240L386 208Q367 202 362.5 201Q358 200 355 200Q350 200 347 202Q344 204 344 208V274Q344 283 342 286.5Q340 290 336 290Q329 290 319 272.5Q309 255 310 242L312 208Q293 202 288.5 201Q284 200 281 200Q276 200 273 202Q270 204 270 208V274Q270 283 268 286.5Q266 290 262 290Q255 290 245.5 272.5Q236 255 236 242L239 208Q220 202 215.5 201Q211 200 207 200Q202 200 199 202Q196 204 196 208V277L193 313Q212 319 216.5 320Q221 321 225 321Q230 321 233 318.5Q236 316 236 312V272Q242 292 254 306.5Q266 321 281 321Q295 321 302.5 313Q310 305 310 289V272Q316 294 328 307.5Q340 321 355 321ZM1217 257Q1217 262 1217 287.5Q1217 313 1216 332L1187 330V334Q1187 344 1190 349Q1193 354 1199 354H1216L1213 384Q1232 390 1236.5 391Q1241 392 1245 392Q1250 392 1253 390Q1256 388 1256 384V355H1303V352Q1303 341 1300 336Q1297 331 1291 331H1256V241Q1256 233 1260 229.5Q1264 226 1272 226Q1278 226 1285 227Q1292 228 1306 231Q1326 235 1336.5 236Q1347 237 1357 237Q1379 237 1399 230.5Q1419 224 1419 213Q1419 200 1410.5 192.5Q1402 185 1392 185Q1390 185 1387 186Q1384 187 1376 192Q1357 202 1344.5 205.5Q1332 209 1321 209Q1317 209 1312 208.5Q1307 208 1295 206Q1277 203 1266 202Q1255 201 1245 201Q1228 201 1223 210.5Q1218 220 1217 257ZM1410 529H72V537H1410ZM1410 0H72V8H1410ZM1045 321Q1059 321 1066.5 313Q1074 305 1074 289V240L1076 208Q1057 202 1052.5 201Q1048 200 1045 200Q1040 200 1037 202Q1034 204 1034 208V275Q1034 283 1032 286.5Q1030 290 1026 290Q1019 290 1009.5 272.5Q1000 255 1000 242L1003 208Q984 202 979.5 201Q975 200 971 200Q966 200 963 202Q960 204 960 208V277L957 313Q976 319 980.5 320Q985 321 989 321Q994 321 997 318.5Q1000 316 1000 312V272Q1009 296 1020 308.5Q1031 321 1045 321ZM178 290Q178 278 172 270Q166 262 153 258Q145 255 135 253.5Q125 252 109 252Q110 242 117 236Q124 230 135 230Q144 230 151.5 232Q159 234 167 239Q171 236 173 232Q175 228 175 223Q175 214 162.5 207Q150 200 128 200Q100 200 84 214.5Q68 229 68 253Q68 282 87 301.5Q106 321 137 321Q155 321 166.5 312Q178 303 178 290ZM877 290Q877 278 871 270Q865 262 852 258Q844 255 834 253.5Q824 252 808 252Q809 242 816 236Q823 230 834 230Q843 230 850.5 232Q858 234 866 239Q870 236 872 232Q874 228 874 223Q874 214 861.5 207Q849 200 827 200Q799 200 783 214.5Q767 229 767 253Q767 282 786 301.5Q805 321 836 321Q854 321 865.5 312Q877 303 877 290ZM1200 290Q1200 278 1194 270Q1188 262 1175 258Q1167 255 1157 253.5Q1147 252 1131 252Q1132 242 1139 236Q1146 230 1157 230Q1166 230 1173.5 232Q1181 234 1189 239Q1193 236 1195 232Q1197 228 1197 223Q1197 214 1184.5 207Q1172 200 1150 200Q1122 200 1106 214.5Q1090 229 1090 253Q1090 282 1109 301.5Q1128 321 1159 321Q1177 321 1188.5 312Q1200 303 1200 290ZM667 242V219Q690 222 701 235Q712 248 712 270Q712 279 708.5 284.5Q705 290 699 290Q687 290 677 272Q667 254 667 242ZM892 226Q892 236 899 243Q906 250 917 250Q928 250 935.5 243Q943 236 943 226Q943 216 935.5 209.5Q928 203 917 203Q906 203 899 209.5Q892 216 892 226ZM535 148Q547 148 554 159Q561 170 562 194Q543 190 532 181.5Q521 173 521 162Q521 155 525 151.5Q529 148 535 148ZM132 298Q123 298 116.5 288.5Q110 279 108 264Q124 264 134.5 269.5Q145 275 145 285Q145 291 141.5 294.5Q138 298 132 298ZM1154 298Q1145 298 1138.5 288.5Q1132 279 1130 264Q1146 264 1156.5 269.5Q1167 275 1167 285Q1167 291 1163.5 294.5Q1160 298 1154 298ZM831 298Q822 298 815.5 288.5Q809 279 807 264Q823 264 833.5 269.5Q844 275 844 285Q844 291 840.5 294.5Q837 298 831 298Z" glyph-name="apple" horiz-adv-x="1486" unicode="&#63743;" /><glyph d="M272 348 188 395Q179 400 169 403.5Q159 407 152 407Q133 407 126.5 398Q120 389 120 364V344Q120 338 117 335.5Q114 333 107 333H91Q86 333 83.5 336Q81 339 81 347V368Q81 409 98.5 430.5Q116 452 148 452Q158 452 170.5 448Q183 444 197 437L281 391Q292 384 303 380.5Q314 377 322 377Q340 377 346.5 385.5Q353 394 353 421V440Q353 445 356 448Q359 451 365 451H382Q388 451 390 448Q392 445 392 438V416Q392 374 375.5 353Q359 332 327 332Q316 332 300.5 336.5Q285 341 272 348ZM272 197 188 244Q179 249 169 252.5Q159 256 152 256Q133 256 126.5 247Q120 238 120 213V193Q120 187 117 184.5Q114 182 107 182H91Q86 182 83.5 185Q81 188 81 196V217Q81 258 98.5 279.5Q116 301 148 301Q158 301 170.5 297Q183 293 197 286L281 240Q292 233 303 229.5Q314 226 322 226Q340 226 346.5 234.5Q353 243 353 270V289Q353 294 356 297Q359 300 365 300H382Q388 300 390 297Q392 294 392 287V265Q392 223 375.5 202Q359 181 327 181Q316 181 300.5 185.5Q285 190 272 197Z" glyph-name="approxequal" horiz-adv-x="472" unicode="&#8776;" /><glyph d="M69 360V378Q69 441 112 471Q155 501 243 501Q332 501 374.5 471Q417 441 417 378V12Q417 6 414.5 3Q412 0 406 0H381Q375 0 372 3Q369 6 369 12L367 52Q330 23 287 7.5Q244 -8 197 -8Q133 -8 96.5 23Q60 54 60 108V159Q60 212 93.5 243.5Q127 275 185 275H366V374Q366 418 336 438Q306 458 243 458Q179 458 148.5 438.5Q118 419 118 375V360Q118 353 115.5 350.5Q113 348 106 348H80Q74 348 71.5 350.5Q69 353 69 360ZM208 36Q249 36 288.5 50.5Q328 65 366 95V233H194Q153 233 132 212.5Q111 192 111 153V114Q111 76 136 56Q161 36 208 36ZM238 717Q282 717 305 698.5Q328 680 328 646V627Q328 593 305 574.5Q282 556 238 556Q194 556 171 574.5Q148 593 148 627V646Q148 680 171 698.5Q194 717 238 717ZM238 586Q267 586 281.5 597.5Q296 609 296 632V641Q296 664 281.5 675.5Q267 687 238 687Q210 687 195.5 675.5Q181 664 181 641V632Q181 609 195.5 597.5Q210 586 238 586Z" glyph-name="aring" horiz-adv-x="499" unicode="&#229;" /><glyph d="M244 556Q200 556 177 574.5Q154 593 154 627V646Q154 678 174 696Q194 714 233 717L295 817Q299 823 302.5 825Q306 827 311 827H343Q350 827 351.5 823.5Q353 820 349 815L280 713Q306 707 320 689.5Q334 672 334 646V627Q334 593 311 574.5Q288 556 244 556ZM244 586Q273 586 287.5 597.5Q302 609 302 632V641Q302 664 287.5 675.5Q273 687 244 687Q216 687 201.5 675.5Q187 664 187 641V632Q187 609 201.5 597.5Q216 586 244 586ZM208 36Q249 36 288.5 50.5Q328 65 366 95V233H194Q153 233 132 212.5Q111 192 111 153V114Q111 76 136 56Q161 36 208 36ZM69 360V378Q69 441 112 471Q155 501 243 501Q332 501 374.5 471Q417 441 417 378V12Q417 6 414.5 3Q412 0 406 0H381Q375 0 372 3Q369 6 369 12L367 52Q330 23 287 7.5Q244 -8 197 -8Q133 -8 96.5 23Q60 54 60 108V159Q60 212 93.5 243.5Q127 275 185 275H366V374Q366 418 336 438Q306 458 243 458Q179 458 148.5 438.5Q118 419 118 375V360Q118 353 115.5 350.5Q113 348 106 348H80Q74 348 71.5 350.5Q69 353 69 360Z" glyph-name="aringacute" horiz-adv-x="498" unicode="&#507;" /><glyph d="M379 317 241 627 103 317Q100 310 97 307.5Q94 305 90 305H61Q55 305 52 308.5Q49 312 51 317L212 669Q215 676 218 678Q221 680 225 680H257Q261 680 264 677.5Q267 675 270 669L431 317Q433 312 430.5 308.5Q428 305 422 305H393Q388 305 385 307.5Q382 310 379 317Z" glyph-name="asciicircum" horiz-adv-x="483" unicode="^" /><glyph d="M271 233 187 280Q178 285 168 288.5Q158 292 151 292Q132 292 125.5 283Q119 274 119 249V229Q119 223 116 220.5Q113 218 106 218H90Q85 218 82.5 221Q80 224 80 232V253Q80 294 97.5 315.5Q115 337 147 337Q157 337 169.5 333Q182 329 196 322L280 276Q291 269 302 265.5Q313 262 321 262Q339 262 345.5 270.5Q352 279 352 306V325Q352 330 355 333Q358 336 364 336H381Q387 336 389 333Q391 330 391 323V301Q391 259 374.5 238Q358 217 326 217Q315 217 299.5 221.5Q284 226 271 233Z" glyph-name="asciitilde" horiz-adv-x="470" unicode="~" /><glyph d="M230 368H214Q208 368 205.5 371Q203 374 203 381L206 512L94 439Q88 435 84 436Q80 437 77 443L70 457Q67 463 68 466.5Q69 470 75 473L189 538L75 604Q69 607 68 611Q67 615 70 620L77 633Q80 639 84 640.5Q88 642 94 638L207 564L203 698Q203 705 205.5 707.5Q208 710 215 710H230Q236 710 238.5 707Q241 704 241 698L237 564L350 638Q356 642 360 640.5Q364 639 367 633L374 620Q377 615 375.5 611Q374 607 369 604L254 538L369 473Q374 470 375.5 466.5Q377 463 374 457L367 443Q364 437 360 436Q356 435 350 439L237 511L241 381Q241 374 238.5 371Q236 368 230 368Z" glyph-name="asterisk" horiz-adv-x="444" unicode="*" /><glyph d="M581 -113H395Q234 -113 156.5 -74.5Q79 -36 79 48V455Q79 539 156 577.5Q233 616 395 616Q556 616 633.5 577.5Q711 539 711 455V156Q711 95 682 64Q653 33 595 33Q555 33 529.5 49.5Q504 66 494 98Q457 67 415.5 50Q374 33 332 33Q269 33 240.5 64Q212 95 218 155L236 335Q242 398 275.5 428.5Q309 459 370 459Q407 459 443 444.5Q479 430 514 400L520 439Q521 445 524 448Q527 451 533 451H557Q563 451 565.5 448.5Q568 446 567 439L540 164Q536 120 551 96.5Q566 73 599 73Q630 73 645 95Q660 117 660 162V454Q660 516 595.5 544.5Q531 573 395 573Q259 573 194.5 544.5Q130 516 130 454V50Q130 -12 194.5 -40.5Q259 -69 395 -69H581Q587 -69 590 -72Q593 -75 593 -81V-101Q593 -107 590 -110Q587 -113 581 -113ZM382 412Q338 412 314 391Q290 370 286 327L269 162Q265 122 285 102Q305 82 350 82Q381 82 415 95Q449 108 487 135Q487 140 487 144Q487 148 488 153L509 356Q466 390 438.5 401Q411 412 382 412Z" glyph-name="at" horiz-adv-x="790" unicode="@" /><glyph d="M69 360V378Q69 441 112 471Q155 501 243 501Q332 501 374.5 471Q417 441 417 378V12Q417 6 414.5 3Q412 0 406 0H381Q375 0 372 3Q369 6 369 12L367 52Q330 23 287 7.5Q244 -8 197 -8Q133 -8 96.5 23Q60 54 60 108V159Q60 212 93.5 243.5Q127 275 185 275H366V374Q366 418 336 438Q306 458 243 458Q179 458 148.5 438.5Q118 419 118 375V360Q118 353 115.5 350.5Q113 348 106 348H80Q74 348 71.5 350.5Q69 353 69 360ZM208 36Q249 36 288.5 50.5Q328 65 366 95V233H194Q153 233 132 212.5Q111 192 111 153V114Q111 76 136 56Q161 36 208 36ZM305 580Q292 580 278 585.5Q264 591 253 600L207 636Q196 645 187 649.5Q178 654 171 654Q153 654 146.5 643Q140 632 140 599V591Q140 585 137 582.5Q134 580 127 580H111Q105 580 102.5 582.5Q100 585 100 593V612Q100 652 117.5 673.5Q135 695 168 695Q181 695 194.5 690Q208 685 220 675L266 638Q276 630 285.5 625.5Q295 621 302 621Q320 621 326.5 632Q333 643 333 675V684Q333 690 336 692.5Q339 695 346 695H362Q368 695 370.5 692Q373 689 373 682V663Q373 623 355.5 601.5Q338 580 305 580Z" glyph-name="atilde" horiz-adv-x="499" unicode="&#227;" /><glyph d="M120 0H95Q89 0 86 3Q83 6 83 12V687Q83 693 86 696Q89 699 95 699H124Q130 699 132.5 696Q135 693 135 687V440Q173 470 216.5 485.5Q260 501 308 501Q374 501 409.5 469Q445 437 445 378V115Q445 56 409.5 24Q374 -8 308 -8Q260 -8 216 7.5Q172 23 134 53L132 12Q132 5 129 2.5Q126 0 120 0ZM295 39Q342 39 367.5 61Q393 83 393 122V371Q393 410 367.5 431.5Q342 453 295 453Q252 453 211.5 437.5Q171 422 135 393V98Q178 66 216.5 52.5Q255 39 295 39Z" glyph-name="b" horiz-adv-x="519" unicode="b" /><glyph d="M257 -136 37 687Q35 693 37.5 696Q40 699 46 699H78Q84 699 87 696Q90 693 92 687L312 -136Q313 -141 311 -144.5Q309 -148 304 -148H272Q266 -148 262.5 -145Q259 -142 257 -136Z" glyph-name="backslash" horiz-adv-x="349" unicode="\" /><glyph d="M136 687V-199Q136 -205 133.5 -208Q131 -211 125 -211H95Q89 -211 86 -208Q83 -205 83 -199V687Q83 693 86 696Q89 699 95 699H125Q131 699 133.5 696Q136 693 136 687Z" glyph-name="bar" horiz-adv-x="219" unicode="|" /><glyph d="M145 354V585Q145 647 189.5 677.5Q234 708 324 708H329Q335 708 338 705Q341 702 341 696V675Q341 669 338 666Q335 663 329 663H324Q259 663 228.5 643Q198 623 198 580V350Q198 308 176.5 283Q155 258 112 248Q155 239 176.5 213.5Q198 188 198 147V-90Q198 -133 228.5 -153Q259 -173 324 -173H329Q335 -173 338 -176Q341 -179 341 -185V-206Q341 -212 338 -215Q335 -218 329 -218H324Q234 -218 189.5 -187.5Q145 -157 145 -95V143Q145 185 116 205.5Q87 226 28 226H27Q21 226 18 229Q15 232 15 238V259Q15 265 18 268Q21 271 27 271H28Q87 271 116 291.5Q145 312 145 354Z" glyph-name="braceleft" horiz-adv-x="369" unicode="{" /><glyph d="M224 585V354Q224 312 253 291.5Q282 271 341 271H342Q348 271 351 268Q354 265 354 259V238Q354 232 351 229Q348 226 342 226H341Q282 226 253 205.5Q224 185 224 143V-95Q224 -157 179.5 -187.5Q135 -218 45 -218H40Q34 -218 31 -215Q28 -212 28 -206V-185Q28 -179 31 -176Q34 -173 40 -173H45Q110 -173 140.5 -153Q171 -133 171 -90V147Q171 188 192.5 213.5Q214 239 257 248Q214 258 192.5 283Q171 308 171 350V580Q171 623 140.5 643Q110 663 45 663H40Q34 663 31 666Q28 669 28 675V696Q28 702 31 705Q34 708 40 708H45Q135 708 179.5 677.5Q224 647 224 585Z" glyph-name="braceright" horiz-adv-x="369" unicode="}" /><glyph d="M83 -199V687Q83 693 86 696Q89 699 95 699H269Q275 699 278 696Q281 693 281 687V665Q281 659 278 656Q275 653 269 653H136V-165H269Q275 -165 278 -168Q281 -171 281 -177V-199Q281 -205 278 -208Q275 -211 269 -211H95Q89 -211 86 -208Q83 -205 83 -199Z" glyph-name="bracketleft" horiz-adv-x="308" unicode="[" /><glyph d="M225 687V-199Q225 -205 222 -208Q219 -211 213 -211H39Q32 -211 29.5 -208.5Q27 -206 27 -199V-177Q27 -170 29.5 -167.5Q32 -165 39 -165H172V653H39Q32 653 29.5 655.5Q27 658 27 665V687Q27 694 29.5 696.5Q32 699 39 699H213Q219 699 222 696Q225 693 225 687Z" glyph-name="bracketright" horiz-adv-x="308" unicode="]" /><glyph d="M123 683V665Q123 625 140.5 608.5Q158 592 197 592Q235 592 252.5 608.5Q270 625 270 665V683Q270 689 272.5 691.5Q275 694 281 694H299Q305 694 307.5 691.5Q310 689 310 683V666Q310 610 282 583.5Q254 557 196 557Q138 557 110.5 583Q83 609 83 666V683Q83 689 85.5 691.5Q88 694 94 694H112Q118 694 120.5 691.5Q123 689 123 683Z" glyph-name="breve" horiz-adv-x="394" unicode="&#728;" /><glyph d="M43 868V851Q43 810 60.5 793.5Q78 777 116 777Q155 777 172.5 793.5Q190 810 190 851V868Q190 874 192.5 876.5Q195 879 201 879H219Q225 879 227.5 876.5Q230 874 230 868V852Q230 795 202 769Q174 743 115 743Q57 743 30 768.5Q3 794 3 852V868Q3 874 5.5 876.5Q8 879 14 879H32Q38 879 40.5 876.5Q43 874 43 868Z" glyph-name="breve.case" horiz-adv-x="233" /><glyph d="M140 668V326Q140 320 137.5 317Q135 314 129 314H100Q94 314 91 317Q88 320 88 326V668Q88 674 91 677Q94 680 100 680H129Q135 680 137.5 677Q140 674 140 668ZM140 143V-199Q140 -205 137.5 -208Q135 -211 129 -211H100Q94 -211 91 -208Q88 -205 88 -199V143Q88 149 91 152Q94 155 100 155H129Q135 155 137.5 152Q140 149 140 143Z" glyph-name="brokenbar" horiz-adv-x="229" unicode="&#166;" /><glyph d="M153 322V197Q153 191 150.5 188.5Q148 186 142 186H112Q106 186 103 188.5Q100 191 100 197V322Q100 328 103 331Q106 334 112 334H142Q148 334 150.5 331.5Q153 329 153 322Z" glyph-name="bullet" horiz-adv-x="254" unicode="&#8226;" /><glyph d="M249 501Q338 501 381 471Q424 441 424 377V358Q424 351 421.5 348.5Q419 346 413 346H386Q380 346 377 349Q374 352 374 358V374Q374 418 344 437.5Q314 457 250 457Q186 457 155.5 437Q125 417 125 374V119Q125 75 155 55.5Q185 36 250 36Q314 36 344 55.5Q374 75 374 119V143Q374 149 377 152Q380 155 386 155H413Q419 155 421.5 152.5Q424 150 424 143V115Q424 52 381 22Q338 -8 249 -8Q160 -8 117 22Q74 52 74 115V377Q74 440 117 470.5Q160 501 249 501Z" glyph-name="c" horiz-adv-x="478" unicode="c" /><glyph d="M348 696 267 577Q265 574 261.5 572Q258 570 253 570H228Q222 570 220.5 573Q219 576 222 581L294 698Q297 703 301 705.5Q305 708 310 708H342Q348 708 350 704.5Q352 701 348 696ZM249 501Q338 501 381 471Q424 441 424 377V358Q424 351 421.5 348.5Q419 346 413 346H386Q380 346 377 349Q374 352 374 358V374Q374 418 344 437.5Q314 457 250 457Q186 457 155.5 437Q125 417 125 374V119Q125 75 155 55.5Q185 36 250 36Q314 36 344 55.5Q374 75 374 119V143Q374 149 377 152Q380 155 386 155H413Q419 155 421.5 152.5Q424 150 424 143V115Q424 52 381 22Q338 -8 249 -8Q160 -8 117 22Q74 52 74 115V377Q74 440 117 470.5Q160 501 249 501Z" glyph-name="cacute" horiz-adv-x="478" unicode="&#263;" /><glyph d="M111 696 172 604 232 696Q236 702 240 705Q244 708 249 708H272Q278 708 280 704.5Q282 701 278 696L200 581Q196 576 191.5 573Q187 570 181 570H161Q156 570 151.5 573Q147 576 143 582L65 696Q62 701 63.5 704.5Q65 708 71 708H95Q99 708 103 705.5Q107 703 111 696Z" glyph-name="caron" horiz-adv-x="345" unicode="&#711;" /><glyph d="M56 866 116 774 177 866Q181 872 185 875Q189 878 193 878H217Q223 878 224.5 874.5Q226 871 223 866L144 751Q140 746 135.5 743Q131 740 126 740H106Q101 740 96.5 743Q92 746 88 752L10 866Q6 871 8 874.5Q10 878 16 878H39Q44 878 48 875.5Q52 873 56 866Z" glyph-name="caron.case" horiz-adv-x="233" /><glyph d="M178 696 239 604 299 696Q303 702 307 705Q311 708 316 708H339Q345 708 347 704.5Q349 701 345 696L267 581Q263 576 258.5 573Q254 570 248 570H228Q223 570 218.5 573Q214 576 210 582L132 696Q129 701 130.5 704.5Q132 708 138 708H162Q166 708 170 705.5Q174 703 178 696ZM249 501Q338 501 381 471Q424 441 424 377V358Q424 351 421.5 348.5Q419 346 413 346H386Q380 346 377 349Q374 352 374 358V374Q374 418 344 437.5Q314 457 250 457Q186 457 155.5 437Q125 417 125 374V119Q125 75 155 55.5Q185 36 250 36Q314 36 344 55.5Q374 75 374 119V143Q374 149 377 152Q380 155 386 155H413Q419 155 421.5 152.5Q424 150 424 143V115Q424 52 381 22Q338 -8 249 -8Q160 -8 117 22Q74 52 74 115V377Q74 440 117 470.5Q160 501 249 501Z" glyph-name="ccaron" horiz-adv-x="478" unicode="&#269;" /><glyph d="M351 -132Q351 -169 328.5 -190Q306 -211 269 -211H151Q145 -211 142 -208Q139 -205 139 -199V-188Q139 -182 142 -179Q145 -176 151 -176H263Q286 -176 298.5 -165Q311 -154 311 -132Q311 -111 299 -100Q287 -89 263 -89H204Q194 -89 190 -85Q186 -81 188 -74L207 -6Q140 1 107 30.5Q74 60 74 115V377Q74 440 117 470.5Q160 501 249 501Q338 501 381 471Q424 441 424 377V358Q424 351 421.5 348.5Q419 346 413 346H386Q380 346 377 349Q374 352 374 358V374Q374 418 344 437.5Q314 457 250 457Q186 457 155.5 437Q125 417 125 374V119Q125 75 155 55.5Q185 36 250 36Q314 36 344 55.5Q374 75 374 119V143Q374 149 377 152Q380 155 386 155H413Q419 155 421.5 152.5Q424 150 424 143V115Q424 52 381 22Q338 -8 249 -8Q248 -8 246.5 -8Q245 -8 244 -8L230 -54H269Q307 -54 329 -74.5Q351 -95 351 -132Z" glyph-name="ccedilla" horiz-adv-x="478" unicode="&#231;" /><glyph d="M304 582 244 674 183 582Q179 575 175 572.5Q171 570 167 570H143Q137 570 135.5 573.5Q134 577 137 582L215 696Q219 702 223.5 705Q228 708 233 708H253Q259 708 263.5 705Q268 702 272 697L350 582Q354 577 352 573.5Q350 570 344 570H321Q316 570 312 573Q308 576 304 582ZM249 501Q338 501 381 471Q424 441 424 377V358Q424 351 421.5 348.5Q419 346 413 346H386Q380 346 377 349Q374 352 374 358V374Q374 418 344 437.5Q314 457 250 457Q186 457 155.5 437Q125 417 125 374V119Q125 75 155 55.5Q185 36 250 36Q314 36 344 55.5Q374 75 374 119V143Q374 149 377 152Q380 155 386 155H413Q419 155 421.5 152.5Q424 150 424 143V115Q424 52 381 22Q338 -8 249 -8Q160 -8 117 22Q74 52 74 115V377Q74 440 117 470.5Q160 501 249 501Z" glyph-name="ccircumflex" horiz-adv-x="478" unicode="&#265;" /><glyph d="M249 501Q338 501 381 471Q424 441 424 377V358Q424 351 421.5 348.5Q419 346 413 346H386Q380 346 377 349Q374 352 374 358V374Q374 418 344 437.5Q314 457 250 457Q186 457 155.5 437Q125 417 125 374V119Q125 75 155 55.5Q185 36 250 36Q314 36 344 55.5Q374 75 374 119V143Q374 149 377 152Q380 155 386 155H413Q419 155 421.5 152.5Q424 150 424 143V115Q424 52 381 22Q338 -8 249 -8Q160 -8 117 22Q74 52 74 115V377Q74 440 117 470.5Q160 501 249 501ZM274 675V598Q274 592 271.5 589Q269 586 263 586H233Q227 586 224 589Q221 592 221 598V675Q221 681 224 684Q227 687 233 687H263Q269 687 271.5 684Q274 681 274 675Z" glyph-name="cdotaccent" horiz-adv-x="478" unicode="&#267;" /><glyph d="M97 -3 82 -54H121Q159 -54 181 -74.5Q203 -95 203 -132Q203 -169 180.5 -190Q158 -211 121 -211H3Q-3 -211 -6 -208Q-9 -205 -9 -199V-188Q-9 -182 -6 -179Q-3 -176 3 -176H115Q138 -176 150.5 -165Q163 -154 163 -132Q163 -111 151 -100Q139 -89 115 -89H56Q46 -89 42 -85Q38 -81 40 -74L62 4Q63 9 66.5 12Q70 15 75 14L90 12Q95 11 97 7Q99 3 97 -3Z" glyph-name="cedilla" horiz-adv-x="164" unicode="&#184;" /><glyph d="M273 86V12Q273 6 270.5 3Q268 0 262 0H233Q227 0 224 3Q221 6 221 12V86Q146 91 110 120.5Q74 150 74 208V470Q74 528 110 558Q146 588 221 593V668Q221 674 224 677Q227 680 233 680H262Q268 680 270.5 677Q273 674 273 668V593Q350 590 387 560Q424 530 424 470V451Q424 444 421.5 441.5Q419 439 413 439H386Q380 439 377 442Q374 445 374 451V467Q374 511 344 530.5Q314 550 250 550Q186 550 155.5 530Q125 510 125 467V212Q125 168 155 148.5Q185 129 250 129Q314 129 344 148.5Q374 168 374 212V236Q374 242 377 245Q380 248 386 248H413Q419 248 421.5 245.5Q424 243 424 236V208Q424 149 387 119Q350 89 273 86Z" glyph-name="cent" horiz-adv-x="489" unicode="&#162;" /><glyph d="M169 48V9Q169 3 167.5 1.5Q166 0 161 0H137Q132 0 130 2Q128 4 128 9V48Q86 51 65.5 68Q45 85 45 118V256Q45 288 65.5 306Q86 324 128 327V366Q128 371 130.5 373Q133 375 137 375H161Q165 375 167 373Q169 371 169 366V327Q211 324 231.5 306Q252 288 252 256V246Q252 241 250.5 239Q249 237 244 237H221Q216 237 214 239Q212 241 212 246V253Q212 275 197 284.5Q182 294 149 294Q117 294 101.5 284Q86 274 86 253V121Q86 100 101.5 90Q117 80 149 80Q182 80 197 89.5Q212 99 212 121V133Q212 137 214 139Q216 141 221 141H244Q249 141 250.5 139.5Q252 138 252 133V118Q252 85 231.5 68Q211 51 169 48Z" glyph-name="cent.denominator" horiz-adv-x="292" unicode="&#63017;" /><glyph d="M169 354V315Q169 309 167.5 307.5Q166 306 161 306H137Q132 306 130 308Q128 310 128 315V354Q86 357 65.5 374Q45 391 45 424V562Q45 594 65.5 612Q86 630 128 633V672Q128 677 130.5 679Q133 681 137 681H161Q165 681 167 679Q169 677 169 672V633Q211 630 231.5 612Q252 594 252 562V552Q252 547 250.5 545Q249 543 244 543H221Q216 543 214 545Q212 547 212 552V559Q212 581 197 590.5Q182 600 149 600Q117 600 101.5 590Q86 580 86 559V427Q86 406 101.5 396Q117 386 149 386Q182 386 197 395.5Q212 405 212 427V439Q212 443 214 445Q216 447 221 447H244Q249 447 250.5 445.5Q252 444 252 439V424Q252 391 231.5 374Q211 357 169 354Z" glyph-name="cent.numerator" horiz-adv-x="292" unicode="&#63022;" /><glyph d="M232 582 172 674 111 582Q107 575 103 572.5Q99 570 95 570H71Q65 570 63.5 573.5Q62 577 65 582L143 696Q147 702 151.5 705Q156 708 161 708H181Q187 708 191.5 705Q196 702 200 697L278 582Q282 577 280 573.5Q278 570 272 570H249Q244 570 240 573Q236 576 232 582Z" glyph-name="circumflex" horiz-adv-x="345" unicode="&#710;" /><glyph d="M177 752 116 844 56 752Q52 745 48 742.5Q44 740 39 740H16Q10 740 8 743.5Q6 747 10 752L88 866Q92 872 96.5 875Q101 878 106 878H126Q131 878 135.5 875Q140 872 144 867L223 752Q226 747 224.5 743.5Q223 740 217 740H193Q189 740 185 743Q181 746 177 752Z" glyph-name="circumflex.case" horiz-adv-x="233" /><glyph d="M131 89V12Q131 5 128.5 2.5Q126 0 120 0H90Q84 0 81 3Q78 6 78 12V89Q78 95 81 98Q84 101 90 101H120Q126 101 128.5 98Q131 95 131 89ZM131 480V403Q131 397 128.5 394Q126 391 120 391H90Q84 391 81 394Q78 397 78 403V480Q78 487 81 490Q84 493 90 493H120Q126 493 128.5 490Q131 487 131 480Z" glyph-name="colon" horiz-adv-x="210" unicode=":" /><glyph d="M24 -43Q51 -31 62.5 -14.5Q74 2 74 30V89Q74 95 77 98Q80 101 86 101H116Q122 101 124.5 98Q127 95 127 89V28Q127 -15 105 -43.5Q83 -72 39 -86Q33 -88 29.5 -86Q26 -84 24 -79L17 -58Q15 -52 16.5 -49Q18 -46 24 -43Z" glyph-name="comma" horiz-adv-x="201" unicode="," /><glyph d="M26 -19Q41 -14 47.5 -5.5Q54 3 54 18V52Q54 57 56 58.5Q58 60 62 60H87Q92 60 94 58.5Q96 57 96 52V16Q96 -10 81 -27Q66 -44 38 -52Q34 -53 31.5 -52Q29 -51 27 -46L20 -30Q18 -26 19.5 -23.5Q21 -21 26 -19Z" glyph-name="comma.denominator" horiz-adv-x="147" unicode="&#63071;" /><glyph d="M33 287Q48 292 54.5 300.5Q61 309 61 324V358Q61 363 63 364.5Q65 366 69 366H94Q99 366 101 364.5Q103 363 103 358V322Q103 296 88 279Q73 262 45 254Q41 253 38.5 254Q36 255 34 260L27 276Q25 280 26.5 282.5Q28 285 33 287Z" glyph-name="comma.numerator" horiz-adv-x="158" unicode="&#63083;" /><glyph d="M77 -39Q100 10 103 25.5Q106 41 106 62V89Q106 95 109 98Q112 101 118 101H140Q146 101 149 98Q152 95 152 89V60Q152 33 143.5 6Q135 -21 115 -54Q112 -59 108.5 -60.5Q105 -62 99 -60L82 -55Q77 -53 75.5 -49Q74 -45 77 -39Z" glyph-name="commaaccent" horiz-adv-x="264" unicode="&#63171;" /><glyph d="M340 688Q474 688 537 650Q600 612 600 525V156Q600 68 537 30Q474 -8 340 -8Q205 -8 142 30Q79 68 79 156V525Q79 612 142.5 650Q206 688 340 688ZM340 28Q452 28 506 57.5Q560 87 560 150V531Q560 593 506 622.5Q452 652 340 652Q228 652 174 622.5Q120 593 120 530V150Q120 87 174 57.5Q228 28 340 28ZM340 551Q413 551 445 524Q477 497 477 430V413Q477 407 474 404Q471 401 465 401H442Q436 401 433 404Q430 407 430 413V429Q430 477 409 495Q388 513 340 513Q292 513 271.5 495.5Q251 478 251 429V250Q251 202 271.5 184.5Q292 167 340 167Q388 167 409 185Q430 203 430 250V274Q430 280 433 283Q436 286 442 286H465Q471 286 474 283Q477 280 477 274V249Q477 182 445 155Q413 128 340 128Q268 128 235.5 155.5Q203 183 203 249V430Q203 496 235.5 523.5Q268 551 340 551Z" glyph-name="copyright" horiz-adv-x="680" unicode="&#169;" /><glyph d="M561 107 550 96Q546 92 542 92Q538 92 533 96L436 193Q416 181 386 174.5Q356 168 317 168Q278 168 248 174Q218 180 197 193L100 96Q96 92 92 92Q88 92 83 96L72 107Q68 112 68 116Q68 120 72 124L167 219Q157 232 152 248.5Q147 265 147 286V394Q147 414 152 431Q157 448 167 462L73 557Q68 562 68 566Q68 570 72 574L84 585Q89 590 93 590Q97 590 101 585L198 488Q220 500 249.5 506Q279 512 317 512Q355 512 385 506Q415 500 436 488L533 585Q538 590 542 590Q546 590 550 585L562 574Q567 570 567 566Q567 562 562 557L467 462Q477 448 482 431Q487 414 487 394V286Q487 266 482 249Q477 232 467 218L561 124Q566 120 566 116Q566 112 561 107ZM317 206Q379 206 409.5 226Q440 246 440 289V392Q440 434 409.5 454Q379 474 317 474Q255 474 224.5 454Q194 434 194 392V289Q194 246 224.5 226Q255 206 317 206Z" glyph-name="currency" horiz-adv-x="634" unicode="&#164;" /><glyph d="M387 12 385 53Q347 23 303 7.5Q259 -8 211 -8Q145 -8 109.5 24Q74 56 74 115V378Q74 437 109.5 469Q145 501 211 501Q257 501 300.5 486Q344 471 384 440V687Q384 693 386.5 696Q389 699 395 699H424Q430 699 433 696Q436 693 436 687V12Q436 6 433 3Q430 0 424 0H399Q393 0 390 2.5Q387 5 387 12ZM224 453Q177 453 151.5 431.5Q126 410 126 371V122Q126 83 151.5 61Q177 39 224 39Q264 39 303 53Q342 67 384 98V393Q349 422 308 437.5Q267 453 224 453Z" glyph-name="d" horiz-adv-x="519" unicode="d" /><glyph d="M243 687V12Q243 6 240 3Q237 0 231 0H202Q196 0 193.5 3Q191 6 191 12V687Q191 693 193.5 696Q196 699 202 699H231Q237 699 240 696Q243 693 243 687ZM48 498H159Q165 498 168 495Q171 492 171 486V465Q171 459 168 456Q165 453 159 453H48Q42 453 39 456Q36 459 36 465V486Q36 492 39 495Q42 498 48 498ZM274 498H385Q391 498 394 495Q397 492 397 486V465Q397 459 394 456Q391 453 385 453H274Q268 453 265 456Q262 459 262 465V486Q262 492 265 495Q268 498 274 498Z" glyph-name="dagger" horiz-adv-x="433" unicode="&#8224;" /><glyph d="M243 687V12Q243 6 240 3Q237 0 231 0H202Q196 0 193.5 3Q191 6 191 12V687Q191 693 193.5 696Q196 699 202 699H231Q237 699 240 696Q243 693 243 687ZM48 498H159Q165 498 168 495Q171 492 171 486V465Q171 459 168 456Q165 453 159 453H48Q42 453 39 456Q36 459 36 465V486Q36 492 39 495Q42 498 48 498ZM274 498H385Q391 498 394 495Q397 492 397 486V465Q397 459 394 456Q391 453 385 453H274Q268 453 265 456Q262 459 262 465V486Q262 492 265 495Q268 498 274 498ZM48 246H159Q165 246 168 243.5Q171 241 171 235V214Q171 207 168 204Q165 201 159 201H48Q42 201 39 204Q36 207 36 214V235Q36 241 39 243.5Q42 246 48 246ZM274 246H385Q391 246 394 243.5Q397 241 397 235V214Q397 207 394 204Q391 201 385 201H274Q268 201 265 204Q262 207 262 214V235Q262 241 265 243.5Q268 246 274 246Z" glyph-name="daggerdbl" horiz-adv-x="433" unicode="&#8225;" /><glyph d="M491 573Q514 622 517 637.5Q520 653 520 674V701Q520 707 523 710Q526 713 532 713H554Q560 713 563 710Q566 707 566 701V672Q566 645 557.5 618Q549 591 529 558Q526 553 522.5 551.5Q519 550 513 552L496 557Q491 559 489.5 563Q488 567 491 573ZM387 12 385 53Q347 23 303 7.5Q259 -8 211 -8Q145 -8 109.5 24Q74 56 74 115V378Q74 437 109.5 469Q145 501 211 501Q257 501 300.5 486Q344 471 384 440V687Q384 693 386.5 696Q389 699 395 699H424Q430 699 433 696Q436 693 436 687V12Q436 6 433 3Q430 0 424 0H399Q393 0 390 2.5Q387 5 387 12ZM224 453Q177 453 151.5 431.5Q126 410 126 371V122Q126 83 151.5 61Q177 39 224 39Q264 39 303 53Q342 67 384 98V393Q349 422 308 437.5Q267 453 224 453Z" glyph-name="dcaron" horiz-adv-x="533" unicode="&#271;" /><glyph d="M224 453Q177 453 151.5 431.5Q126 410 126 371V122Q126 83 151.5 61Q177 39 224 39Q264 39 303 53Q342 67 384 98V393Q349 422 308 437.5Q267 453 224 453ZM387 12 385 53Q347 23 303 7.5Q259 -8 211 -8Q145 -8 109.5 24Q74 56 74 115V378Q74 437 109.5 469Q145 501 211 501Q257 501 300.5 486Q344 471 384 440V564H216Q210 564 207 567Q204 570 204 576V592Q204 598 207 600.5Q210 603 216 603H384V687Q384 693 386.5 696Q389 699 395 699H424Q430 699 433 696Q436 693 436 687V603H479Q486 603 488.5 600.5Q491 598 491 592V576Q491 570 488 567Q485 564 479 564H436V12Q436 6 433 3Q430 0 424 0H399Q393 0 390 3Q387 6 387 12Z" glyph-name="dcroat" horiz-adv-x="519" unicode="&#273;" /><glyph d="M198 409Q131 409 98.5 431Q66 453 66 499V596Q66 642 98.5 664Q131 686 198 686Q265 686 297.5 664Q330 642 330 596V499Q330 453 297.5 431Q265 409 198 409ZM198 446Q241 446 262.5 459.5Q284 473 284 501V595Q284 622 262.5 636Q241 650 198 650Q154 650 132.5 636.5Q111 623 111 595V501Q111 473 132.5 459.5Q154 446 198 446Z" glyph-name="degree" horiz-adv-x="395" unicode="&#176;" /><glyph d="M126 690V592Q126 586 123 583Q120 580 114 580H96Q90 580 87 583Q84 586 84 592V690Q84 696 87 699Q90 702 96 702H114Q120 702 123 699Q126 696 126 690ZM224 690V592Q224 586 221 583Q218 580 212 580H194Q188 580 185 583Q182 586 182 592V690Q182 696 185 699Q188 702 194 702H212Q218 702 221 699Q224 696 224 690Z" glyph-name="dieresis" horiz-adv-x="308" unicode="&#168;" /><glyph d="M88 857V759Q88 753 85.5 750Q83 747 77 747H59Q53 747 50 750Q47 753 47 759V857Q47 863 50 866Q53 869 59 869H77Q83 869 85.5 866Q88 863 88 857ZM186 857V759Q186 753 183.5 750Q181 747 175 747H157Q151 747 148 750Q145 753 145 759V857Q145 863 148 866Q151 869 157 869H175Q181 869 183.5 866Q186 863 186 857Z" glyph-name="dieresis.case" horiz-adv-x="233" /><glyph d="M82 348H481Q487 348 490 345.5Q493 343 493 337V316Q493 310 490 307Q487 304 481 304H83Q77 304 74 307Q71 310 71 316V337Q71 343 73.5 345.5Q76 348 82 348ZM308 202V125Q308 118 305.5 115.5Q303 113 297 113H267Q261 113 258 116Q255 119 255 125V202Q255 208 258 211Q261 214 267 214H297Q303 214 305.5 211Q308 208 308 202ZM308 530V453Q308 446 305.5 443.5Q303 441 297 441H267Q261 441 258 444Q255 447 255 453V530Q255 536 258 539Q261 542 267 542H297Q303 542 305.5 539Q308 536 308 530Z" glyph-name="divide" horiz-adv-x="564" unicode="&#247;" /><glyph d="M256 0H227Q221 0 218 3Q215 6 215 12V86Q141 89 101 117.5Q61 146 61 193V221Q61 227 63.5 229.5Q66 232 72 232H99Q104 232 106.5 229.5Q109 227 109 221V195Q109 162 142 143.5Q175 125 236 125Q298 125 331.5 143.5Q365 162 365 195V240Q365 261 350 275.5Q335 290 302 301L146 350Q113 361 90.5 387Q68 413 68 445V485Q68 533 106 561.5Q144 590 215 593V668Q215 674 218 677Q221 680 227 680H256Q262 680 264.5 677Q267 674 267 668V593Q334 588 370 559.5Q406 531 406 485V454Q406 448 403.5 445.5Q401 443 394 443H368Q363 443 360.5 445.5Q358 448 358 454V485Q358 519 327 536.5Q296 554 236 554Q178 554 147.5 536.5Q117 519 117 485V454Q117 433 133 416Q149 399 173 392L329 343Q369 330 391 306.5Q413 283 413 252V193Q413 148 375 119.5Q337 91 267 86V12Q267 6 264.5 3Q262 0 256 0Z" glyph-name="dollar" horiz-adv-x="476" unicode="$" /><glyph d="M158 0H133Q128 0 126 2Q124 4 124 9V48Q84 51 62 67Q40 83 40 109V124Q40 128 41.5 130Q43 132 47 132H70Q74 132 76.5 130Q79 128 79 124V111Q79 94 95 85.5Q111 77 142 77Q174 77 190.5 86Q207 95 207 111V132Q207 142 199.5 149Q192 156 175 162L88 190Q70 196 57 211Q44 226 44 243V264Q44 291 64.5 307.5Q85 324 124 327V366Q124 371 126.5 373Q129 375 133 375H158Q162 375 164 373Q166 371 166 366V327Q202 323 221.5 306.5Q241 290 241 265V249Q241 245 239 243Q237 241 233 241H211Q207 241 205 243Q203 245 203 249V265Q203 281 187.5 289.5Q172 298 143 298Q113 298 98 289.5Q83 281 83 265V250Q83 239 90.5 231Q98 223 111 219L197 193Q220 186 233 171.5Q246 157 246 139V109Q246 85 225 68.5Q204 52 166 48V9Q166 4 164.5 2Q163 0 158 0Z" glyph-name="dollar.denominator" horiz-adv-x="286" unicode="&#63018;" /><glyph d="M158 306H133Q128 306 126 308Q124 310 124 315V354Q84 357 62 373Q40 389 40 415V430Q40 434 41.5 436Q43 438 47 438H70Q74 438 76.5 436Q79 434 79 430V417Q79 400 95 391.5Q111 383 142 383Q174 383 190.5 392Q207 401 207 417V438Q207 448 199.5 455Q192 462 175 468L88 496Q70 502 57 517Q44 532 44 549V570Q44 597 64.5 613.5Q85 630 124 633V672Q124 677 126.5 679Q129 681 133 681H158Q162 681 164 679Q166 677 166 672V633Q202 629 221.5 612.5Q241 596 241 571V555Q241 551 239 549Q237 547 233 547H211Q207 547 205 549Q203 551 203 555V571Q203 587 187.5 595.5Q172 604 143 604Q113 604 98 595.5Q83 587 83 571V556Q83 545 90.5 537Q98 529 111 525L197 499Q220 492 233 477.5Q246 463 246 445V415Q246 391 225 374.5Q204 358 166 354V315Q166 310 164.5 308Q163 306 158 306Z" glyph-name="dollar.numerator" horiz-adv-x="287" unicode="&#63023;" /><glyph d="M145 675V598Q145 592 142.5 589Q140 586 134 586H104Q98 586 95 589Q92 592 92 598V675Q92 681 95 684Q98 687 104 687H134Q140 687 142.5 684Q145 681 145 675Z" glyph-name="dotaccent" horiz-adv-x="237" unicode="&#729;" /><glyph d="M143 838V761Q143 755 140 752Q137 749 131 749H102Q96 749 93 752Q90 755 90 761V838Q90 844 93 847Q96 850 102 850H131Q138 850 140.5 847.5Q143 845 143 838Z" glyph-name="dotaccent.case" horiz-adv-x="233" /><glyph d="M136 481V12Q136 6 133 3Q130 0 124 0H95Q89 0 86.5 3Q84 6 84 12V481Q84 487 86.5 490Q89 493 95 493H124Q130 493 133 490Q136 487 136 481Z" glyph-name="dotlessi" horiz-adv-x="219" unicode="&#305;" /><glyph d="M136 481V-85Q136 -147 91.5 -177.5Q47 -208 -44 -208H-49Q-55 -208 -58 -205Q-61 -202 -61 -196V-176Q-61 -170 -58 -167Q-55 -164 -49 -164H-44Q21 -164 52.5 -144Q84 -124 84 -81V481Q84 487 86.5 490Q89 493 95 493H124Q130 493 133 490Q136 487 136 481Z" glyph-name="dotlessj" horiz-adv-x="219" unicode="&#567;" /><glyph d="M251 501Q340 501 383.5 471Q427 441 427 377V253Q427 247 424.5 244.5Q422 242 416 242H125V118Q125 74 155.5 54.5Q186 35 251 35Q316 35 347 55Q378 75 378 118V139Q378 145 381 148Q384 151 390 151H415Q421 151 424 148Q427 145 427 139V115Q427 52 383.5 22Q340 -8 250 -8Q161 -8 117.5 22Q74 52 74 115V377Q74 440 117.5 470.5Q161 501 251 501ZM251 458Q187 458 156 438Q125 418 125 375V282H378V375Q378 417 346.5 437.5Q315 458 251 458Z" glyph-name="e" horiz-adv-x="494" unicode="e" /><glyph d="M344 696 263 577Q261 574 257.5 572Q254 570 249 570H224Q218 570 216.5 573Q215 576 218 581L290 698Q293 703 297 705.5Q301 708 306 708H338Q344 708 346 704.5Q348 701 344 696ZM251 501Q340 501 383.5 471Q427 441 427 377V253Q427 247 424.5 244.5Q422 242 416 242H125V118Q125 74 155.5 54.5Q186 35 251 35Q316 35 347 55Q378 75 378 118V139Q378 145 381 148Q384 151 390 151H415Q421 151 424 148Q427 145 427 139V115Q427 52 383.5 22Q340 -8 250 -8Q161 -8 117.5 22Q74 52 74 115V377Q74 440 117.5 470.5Q161 501 251 501ZM251 458Q187 458 156 438Q125 418 125 375V282H378V375Q378 417 346.5 437.5Q315 458 251 458Z" glyph-name="eacute" horiz-adv-x="495" unicode="&#233;" /><glyph d="M251 501Q340 501 383.5 471Q427 441 427 377V253Q427 247 424.5 244.5Q422 242 416 242H125V118Q125 74 155.5 54.5Q186 35 251 35Q316 35 347 55Q378 75 378 118V139Q378 145 381 148Q384 151 390 151H415Q421 151 424 148Q427 145 427 139V115Q427 52 383.5 22Q340 -8 250 -8Q161 -8 117.5 22Q74 52 74 115V377Q74 440 117.5 470.5Q161 501 251 501ZM251 458Q187 458 156 438Q125 418 125 375V282H378V375Q378 417 346.5 437.5Q315 458 251 458ZM172 683V665Q172 625 189.5 608.5Q207 592 246 592Q284 592 301.5 608.5Q319 625 319 665V683Q319 689 321.5 691.5Q324 694 330 694H348Q354 694 356.5 691.5Q359 689 359 683V666Q359 610 331 583.5Q303 557 245 557Q187 557 159.5 583Q132 609 132 666V683Q132 689 134.5 691.5Q137 694 143 694H161Q167 694 169.5 691.5Q172 689 172 683Z" glyph-name="ebreve" horiz-adv-x="495" unicode="&#277;" /><glyph d="M185 696 246 604 306 696Q310 702 314 705Q318 708 323 708H346Q352 708 354 704.5Q356 701 352 696L274 581Q270 576 265.5 573Q261 570 255 570H235Q230 570 225.5 573Q221 576 217 582L139 696Q136 701 137.5 704.5Q139 708 145 708H169Q173 708 177 705.5Q181 703 185 696ZM251 501Q340 501 383.5 471Q427 441 427 377V253Q427 247 424.5 244.5Q422 242 416 242H125V118Q125 74 155.5 54.5Q186 35 251 35Q316 35 347 55Q378 75 378 118V139Q378 145 381 148Q384 151 390 151H415Q421 151 424 148Q427 145 427 139V115Q427 52 383.5 22Q340 -8 250 -8Q161 -8 117.5 22Q74 52 74 115V377Q74 440 117.5 470.5Q161 501 251 501ZM251 458Q187 458 156 438Q125 418 125 375V282H378V375Q378 417 346.5 437.5Q315 458 251 458Z" glyph-name="ecaron" horiz-adv-x="495" unicode="&#283;" /><glyph d="M307 582 247 674 186 582Q182 575 178 572.5Q174 570 170 570H146Q140 570 138.5 573.5Q137 577 140 582L218 696Q222 702 226.5 705Q231 708 236 708H256Q262 708 266.5 705Q271 702 275 697L353 582Q357 577 355 573.5Q353 570 347 570H324Q319 570 315 573Q311 576 307 582ZM251 501Q340 501 383.5 471Q427 441 427 377V253Q427 247 424.5 244.5Q422 242 416 242H125V118Q125 74 155.5 54.5Q186 35 251 35Q316 35 347 55Q378 75 378 118V139Q378 145 381 148Q384 151 390 151H415Q421 151 424 148Q427 145 427 139V115Q427 52 383.5 22Q340 -8 250 -8Q161 -8 117.5 22Q74 52 74 115V377Q74 440 117.5 470.5Q161 501 251 501ZM251 458Q187 458 156 438Q125 418 125 375V282H378V375Q378 417 346.5 437.5Q315 458 251 458Z" glyph-name="ecircumflex" horiz-adv-x="495" unicode="&#234;" /><glyph d="M222 690V592Q222 586 219 583Q216 580 210 580H192Q186 580 183 583Q180 586 180 592V690Q180 696 183 699Q186 702 192 702H210Q216 702 219 699Q222 696 222 690ZM320 690V592Q320 586 317 583Q314 580 308 580H290Q284 580 281 583Q278 586 278 592V690Q278 696 281 699Q284 702 290 702H308Q314 702 317 699Q320 696 320 690ZM251 501Q340 501 383.5 471Q427 441 427 377V253Q427 247 424.5 244.5Q422 242 416 242H125V118Q125 74 155.5 54.5Q186 35 251 35Q316 35 347 55Q378 75 378 118V139Q378 145 381 148Q384 151 390 151H415Q421 151 424 148Q427 145 427 139V115Q427 52 383.5 22Q340 -8 250 -8Q161 -8 117.5 22Q74 52 74 115V377Q74 440 117.5 470.5Q161 501 251 501ZM251 458Q187 458 156 438Q125 418 125 375V282H378V375Q378 417 346.5 437.5Q315 458 251 458Z" glyph-name="edieresis" horiz-adv-x="495" unicode="&#235;" /><glyph d="M251 501Q340 501 383.5 471Q427 441 427 377V253Q427 247 424.5 244.5Q422 242 416 242H125V118Q125 74 155.5 54.5Q186 35 251 35Q316 35 347 55Q378 75 378 118V139Q378 145 381 148Q384 151 390 151H415Q421 151 424 148Q427 145 427 139V115Q427 52 383.5 22Q340 -8 250 -8Q161 -8 117.5 22Q74 52 74 115V377Q74 440 117.5 470.5Q161 501 251 501ZM251 458Q187 458 156 438Q125 418 125 375V282H378V375Q378 417 346.5 437.5Q315 458 251 458ZM276 675V598Q276 592 273.5 589Q271 586 265 586H235Q229 586 226 589Q223 592 223 598V675Q223 681 226 684Q229 687 235 687H265Q271 687 273.5 684Q276 681 276 675Z" glyph-name="edotaccent" horiz-adv-x="495" unicode="&#279;" /><glyph d="M251 501Q340 501 383.5 471Q427 441 427 377V253Q427 247 424.5 244.5Q422 242 416 242H125V118Q125 74 155.5 54.5Q186 35 251 35Q316 35 347 55Q378 75 378 118V139Q378 145 381 148Q384 151 390 151H415Q421 151 424 148Q427 145 427 139V115Q427 52 383.5 22Q340 -8 250 -8Q161 -8 117.5 22Q74 52 74 115V377Q74 440 117.5 470.5Q161 501 251 501ZM251 458Q187 458 156 438Q125 418 125 375V282H378V375Q378 417 346.5 437.5Q315 458 251 458ZM222 577 141 696Q137 701 139 704.5Q141 708 147 708H179Q184 708 187.5 706Q191 704 195 698L267 581Q270 576 268.5 573Q267 570 262 570H237Q232 570 228.5 571.5Q225 573 222 577Z" glyph-name="egrave" horiz-adv-x="495" unicode="&#232;" /><glyph d="M176 364Q127 375 104.5 402.5Q82 430 82 482V547Q82 623 127 655.5Q172 688 270 688Q367 688 412.5 655.5Q458 623 458 547V482Q458 430 435 402.5Q412 375 362 364Q415 353 440 324.5Q465 296 465 246V133Q465 60 417.5 26Q370 -8 270 -8Q170 -8 122.5 25.5Q75 59 75 133V246Q75 297 99.5 325Q124 353 176 364ZM270 37Q344 37 378 60.5Q412 84 412 139V239Q412 295 378 318.5Q344 342 270 342Q195 342 161.5 318.5Q128 295 128 239V139Q128 84 162 60.5Q196 37 270 37ZM270 386Q342 386 374 408.5Q406 431 406 489V541Q406 598 374 620.5Q342 643 270 643Q198 643 166 620.5Q134 598 134 541V489Q134 431 166 408.5Q198 386 270 386Z" glyph-name="eight" horiz-adv-x="540" unicode="8" /><glyph d="M94 198Q67 205 55 220Q43 235 43 262V297Q43 340 70 359Q97 378 154 378Q211 378 237.5 359Q264 340 264 297V262Q264 235 252 220Q240 205 213 198Q241 192 255 176.5Q269 161 269 135V77Q269 35 240.5 15.5Q212 -4 154 -4Q96 -4 67.5 15.5Q39 35 39 77V135Q39 161 52.5 176.5Q66 192 94 198ZM154 28Q192 28 209.5 40.5Q227 53 227 81V130Q227 158 209.5 170Q192 182 154 182Q116 182 98.5 170Q81 158 81 130V81Q81 53 98.5 40.5Q116 28 154 28ZM154 214Q190 214 206 226Q222 238 222 266V294Q222 323 206 334.5Q190 346 154 346Q117 346 101 334.5Q85 323 85 294V266Q85 238 101.5 226Q118 214 154 214Z" glyph-name="eight.denominator" horiz-adv-x="307" unicode="&#63069;" /><glyph d="M94 48Q67 55 55 70Q43 85 43 112V147Q43 190 70 209Q97 228 154 228Q211 228 237.5 209Q264 190 264 147V112Q264 85 252 70Q240 55 213 48Q241 42 255 26.5Q269 11 269 -15V-73Q269 -115 240.5 -134.5Q212 -154 154 -154Q96 -154 67.5 -134.5Q39 -115 39 -73V-15Q39 11 52.5 26.5Q66 42 94 48ZM154 -122Q192 -122 209.5 -109.5Q227 -97 227 -69V-20Q227 8 209.5 20Q192 32 154 32Q116 32 98.5 20Q81 8 81 -20V-69Q81 -97 98.5 -109.5Q116 -122 154 -122ZM154 64Q190 64 206 76Q222 88 222 116V144Q222 173 206 184.5Q190 196 154 196Q117 196 101 184.5Q85 173 85 144V116Q85 88 101.5 76Q118 64 154 64Z" glyph-name="eight.inferior" horiz-adv-x="307" unicode="&#8328;" /><glyph d="M94 504Q67 511 55 526Q43 541 43 568V603Q43 646 70 665Q97 684 154 684Q211 684 237.5 665Q264 646 264 603V568Q264 541 252 526Q240 511 213 504Q241 498 255 482.5Q269 467 269 441V383Q269 341 240.5 321.5Q212 302 154 302Q96 302 67.5 321.5Q39 341 39 383V441Q39 467 52.5 482.5Q66 498 94 504ZM154 334Q192 334 209.5 346.5Q227 359 227 387V436Q227 464 209.5 476Q192 488 154 488Q116 488 98.5 476Q81 464 81 436V387Q81 359 98.5 346.5Q116 334 154 334ZM154 520Q190 520 206 532Q222 544 222 572V600Q222 629 206 640.5Q190 652 154 652Q117 652 101 640.5Q85 629 85 600V572Q85 544 101.5 532Q118 520 154 520Z" glyph-name="eight.numerator" horiz-adv-x="307" unicode="&#63081;" /><glyph d="M94 654Q67 661 55 676Q43 691 43 718V753Q43 796 70 815Q97 834 154 834Q211 834 237.5 815Q264 796 264 753V718Q264 691 252 676Q240 661 213 654Q241 648 255 632.5Q269 617 269 591V533Q269 491 240.5 471.5Q212 452 154 452Q96 452 67.5 471.5Q39 491 39 533V591Q39 617 52.5 632.5Q66 648 94 654ZM154 484Q192 484 209.5 496.5Q227 509 227 537V586Q227 614 209.5 626Q192 638 154 638Q116 638 98.5 626Q81 614 81 586V537Q81 509 98.5 496.5Q116 484 154 484ZM154 670Q190 670 206 682Q222 694 222 722V750Q222 779 206 790.5Q190 802 154 802Q117 802 101 790.5Q85 779 85 750V722Q85 694 101.5 682Q118 670 154 670Z" glyph-name="eight.superior" horiz-adv-x="307" unicode="&#8312;" /><glyph d="M174 364Q125 375 102.5 402.5Q80 430 80 482V547Q80 623 125 655.5Q170 688 268 688Q365 688 410.5 655.5Q456 623 456 547V482Q456 430 433 402.5Q410 375 360 364Q413 353 438 324.5Q463 296 463 246V133Q463 60 415.5 26Q368 -8 268 -8Q168 -8 120.5 25.5Q73 59 73 133V246Q73 297 97.5 325Q122 353 174 364ZM268 37Q342 37 376 60.5Q410 84 410 139V239Q410 295 376 318.5Q342 342 268 342Q193 342 159.5 318.5Q126 295 126 239V139Q126 84 160 60.5Q194 37 268 37ZM268 386Q340 386 372 408.5Q404 431 404 489V541Q404 598 372 620.5Q340 643 268 643Q196 643 164 620.5Q132 598 132 541V489Q132 431 164 408.5Q196 386 268 386Z" glyph-name="eight.tab" horiz-adv-x="536" unicode="&#65304;" /><glyph d="M126 89V12Q126 5 123.5 2.5Q121 0 115 0H85Q79 0 76 3Q73 6 73 12V89Q73 95 76 98Q79 101 85 101H115Q121 101 123.5 98Q126 95 126 89ZM621 89V12Q621 5 618.5 2.5Q616 0 610 0H580Q574 0 571 3Q568 6 568 12V89Q568 95 571 98Q574 101 580 101H610Q616 101 618.5 98Q621 95 621 89ZM374 89V12Q374 5 371.5 2.5Q369 0 363 0H333Q327 0 324 3Q321 6 321 12V89Q321 95 324 98Q327 101 333 101H363Q369 101 371.5 98Q374 95 374 89Z" glyph-name="ellipsis" horiz-adv-x="695" unicode="&#8230;" /><glyph d="M251 501Q340 501 383.5 471Q427 441 427 377V253Q427 247 424.5 244.5Q422 242 416 242H125V118Q125 74 155.5 54.5Q186 35 251 35Q316 35 347 55Q378 75 378 118V139Q378 145 381 148Q384 151 390 151H415Q421 151 424 148Q427 145 427 139V115Q427 52 383.5 22Q340 -8 250 -8Q161 -8 117.5 22Q74 52 74 115V377Q74 440 117.5 470.5Q161 501 251 501ZM251 458Q187 458 156 438Q125 418 125 375V282H378V375Q378 417 346.5 437.5Q315 458 251 458ZM117 646H374Q380 646 383 643Q386 640 386 634V616Q386 610 383 607Q380 604 374 604H117Q111 604 108 607Q105 610 105 616V634Q105 640 108 643Q111 646 117 646Z" glyph-name="emacron" horiz-adv-x="495" unicode="&#275;" /><glyph d="M82 311H747Q753 311 756 308.5Q759 306 759 300V279Q759 273 756 270Q753 267 747 267H82Q76 267 73 270Q70 273 70 279V300Q70 306 73 308.5Q76 311 82 311Z" glyph-name="emdash" horiz-adv-x="829" unicode="&#8212;" /><glyph d="M82 311H438Q445 311 447.5 308.5Q450 306 450 300V279Q450 273 447 270Q444 267 438 267H82Q76 267 73 270Q70 273 70 279V300Q70 306 73 308.5Q76 311 82 311Z" glyph-name="endash" horiz-adv-x="520" unicode="&#8211;" /><glyph d="M95 493H121Q127 493 130 490Q133 487 133 481L134 439Q170 469 214.5 485Q259 501 308 501Q374 501 410 469.5Q446 438 446 382V-85Q446 -147 401.5 -177.5Q357 -208 267 -208H262Q255 -208 252.5 -205.5Q250 -203 250 -196V-176Q250 -170 253 -167Q256 -164 262 -164H267Q332 -164 363 -144Q394 -124 394 -81V372Q394 412 369 433.5Q344 455 296 455Q252 455 210.5 439Q169 423 136 395V12Q136 6 133 3Q130 0 124 0H95Q89 0 86.5 3Q84 6 84 12V481Q84 487 86.5 490Q89 493 95 493Z" glyph-name="eng" horiz-adv-x="526" unicode="&#331;" /><glyph d="M251 501Q340 501 383.5 471Q427 441 427 377V253Q427 247 424.5 244.5Q422 242 416 242H125V118Q125 74 155.5 54.5Q186 35 251 35Q316 35 347 55Q378 75 378 118V139Q378 145 381 148Q384 151 390 151H415Q421 151 424 148Q427 145 427 139V115Q427 87 418 65Q409 43 391 28Q387 25 371 12.5Q355 0 347 -9Q337 -21 332 -33.5Q327 -46 327 -62Q327 -86 342 -98.5Q357 -111 386 -111H415Q421 -111 424 -114Q427 -117 427 -123V-137Q427 -143 423.5 -146Q420 -149 413 -149H374Q333 -149 309.5 -129Q286 -109 286 -73Q286 -51 292.5 -34.5Q299 -18 312 -3Q297 -6 281.5 -7Q266 -8 250 -8Q161 -8 117.5 22Q74 52 74 115V377Q74 440 117.5 470.5Q161 501 251 501ZM251 458Q187 458 156 438Q125 418 125 375V282H378V375Q378 417 346.5 437.5Q315 458 251 458Z" glyph-name="eogonek" horiz-adv-x="495" unicode="&#281;" /><glyph d="M93 442H490Q496 442 499 439Q502 436 502 430V409Q502 403 499 400Q496 397 490 397H93Q87 397 84 400Q81 403 81 409V430Q81 436 84 439Q87 442 93 442ZM93 271H490Q497 271 499.5 268.5Q502 266 502 259V238Q502 232 499 229Q496 226 490 226H93Q87 226 84 229Q81 232 81 238V259Q81 265 84 268Q87 271 93 271Z" glyph-name="equal" horiz-adv-x="584" unicode="=" /><glyph d="M411 688Q554 688 656 586Q758 484 758 340Q758 332 754 328Q750 324 742 324H155V144Q199 83 266.5 48Q334 13 411 13Q484 13 544 40.5Q604 68 658 126Q660 129 662.5 130Q665 131 668 131Q671 131 673.5 128.5Q676 126 676 122Q676 118 674.5 115Q673 112 669 107Q623 53 554.5 22.5Q486 -8 411 -8Q266 -8 164.5 93Q63 194 63 340Q63 484 165 586Q267 688 411 688ZM411 666Q335 666 267.5 631.5Q200 597 155 535V344H668V532Q622 595 554 630.5Q486 666 411 666Z" glyph-name="estimated" horiz-adv-x="804" unicode="&#8494;" /><glyph d="M278 603 360 638Q346 652 320.5 659Q295 666 257 666H169Q163 666 160 669Q157 672 157 678V693Q157 699 160 701.5Q163 704 169 704H257Q310 704 346.5 693.5Q383 683 404 661L457 685Q462 687 466.5 686Q471 685 473 681L477 673Q479 668 477.5 664Q476 660 471 658L422 636Q428 625 430.5 611.5Q433 598 433 581V115Q433 53 389 22.5Q345 -8 255 -8Q164 -8 119 22.5Q74 53 74 115V378Q74 437 109.5 469Q145 501 211 501Q257 501 300.5 486Q344 471 384 440V573Q384 583 381.5 592.5Q379 602 374 611L292 576Q286 573 282.5 574Q279 575 276 580L272 587Q269 591 271 596Q273 601 278 603ZM255 35Q321 35 352.5 55.5Q384 76 384 119V395Q345 425 305 440Q265 455 224 455Q177 455 151.5 433Q126 411 126 372V119Q126 76 157.5 55.5Q189 35 255 35Z" glyph-name="eth" horiz-adv-x="514" unicode="&#240;" /><glyph d="M138 668V390L133 169Q133 163 130 160Q127 157 121 157H100Q94 157 91.5 160Q89 163 89 169L83 390V668Q83 674 86 677Q89 680 95 680H126Q132 680 135 677Q138 674 138 668ZM137 89V12Q137 6 134 3Q131 0 125 0H95Q89 0 86.5 2.5Q84 5 84 12V89Q84 95 86.5 98Q89 101 95 101H125Q131 101 134 98Q137 95 137 89Z" glyph-name="exclam" horiz-adv-x="221" unicode="!" /><glyph d="M79 -175V103L84 324Q84 330 87 333Q90 336 96 336H117Q123 336 125.5 333Q128 330 128 324L134 103V-175Q134 -181 131 -184Q128 -187 122 -187H91Q85 -187 82 -184Q79 -181 79 -175ZM80 404V481Q80 487 83 490Q86 493 92 493H122Q128 493 130.5 490.5Q133 488 133 481V404Q133 398 130.5 395Q128 392 122 392H92Q86 392 83 395Q80 398 80 404Z" glyph-name="exclamdown" horiz-adv-x="214" unicode="&#161;" /><glyph d="M41 488 96 491H106V582Q106 645 150 675Q194 705 285 705H290Q296 705 299 702Q302 699 302 693V673Q302 666 299 663Q296 660 290 660H285Q220 660 189 640Q158 620 158 577V491H274Q280 491 283 488.5Q286 486 286 480V460Q286 454 283 451Q280 448 274 448H158V12Q158 6 155 3Q152 0 146 0H118Q112 0 109 3Q106 6 106 12V448H41Q35 448 32 451Q29 454 29 460V476Q29 482 31.5 485Q34 488 41 488Z" glyph-name="f" horiz-adv-x="306" unicode="f" /><glyph d="M41 488 96 491H106V580Q106 642 150.5 672.5Q195 703 285 703H290Q296 703 299 700Q302 697 302 691V670Q302 664 299 661Q296 658 290 658H285Q220 658 189 638Q158 618 158 575V491H396V582Q396 644 440.5 674.5Q485 705 576 705H580Q586 705 589 702Q592 699 592 693V673Q592 666 589 663Q586 660 580 660H576Q511 660 480 640Q449 620 449 577V491H565Q571 491 573.5 488.5Q576 486 576 480V460Q576 453 573.5 450.5Q571 448 565 448H449V12Q449 6 446 3Q443 0 437 0H408Q402 0 399 3Q396 6 396 12V448H158V12Q158 6 155.5 3Q153 0 147 0H118Q112 0 109 3Q106 6 106 12V448H41Q35 448 32 451Q29 454 29 460V476Q29 482 31.5 485Q34 488 41 488Z" glyph-name="ff" horiz-adv-x="597" unicode="&#64256;" /><glyph d="M41 488 96 491H106V580Q106 642 150.5 672.5Q195 703 285 703H290Q296 703 299 700Q302 697 302 691V670Q302 664 299 661Q296 658 290 658H285Q220 658 189 638Q158 618 158 575V491H397V576Q397 638 441.5 668.5Q486 699 576 699H704Q710 699 713 696Q716 693 716 687V666Q716 660 713 657Q710 654 704 654H576Q511 654 480 634Q449 614 449 571V491H726Q733 491 736 488Q739 485 739 479V12Q739 6 736.5 3Q734 0 728 0H699Q693 0 690 3Q687 6 687 12V448H449V12Q449 6 446 3Q443 0 437 0H409Q403 0 400 3Q397 6 397 12V448H158V12Q158 6 155.5 3Q153 0 147 0H118Q112 0 109 3Q106 6 106 12V448H41Q35 448 32 451Q29 454 29 460V476Q29 482 31.5 485Q34 488 41 488Z" glyph-name="ffi" horiz-adv-x="822" unicode="&#64259;" /><glyph d="M41 488 96 491H106V580Q106 642 150.5 672.5Q195 703 285 703H290Q296 703 299 700Q302 697 302 691V670Q302 664 299 661Q296 658 290 658H285Q220 658 189 638Q158 618 158 575V491H396V576Q396 638 441 668.5Q486 699 576 699H726Q733 699 736 696Q739 693 739 687V12Q739 6 736 3Q733 0 727 0H699Q693 0 690 3Q687 6 687 12V654H576Q511 654 480 634Q449 614 449 571V491H565Q571 491 573.5 488.5Q576 486 576 480V460Q576 453 573.5 450.5Q571 448 565 448H449V12Q449 6 446 3Q443 0 437 0H408Q402 0 399 3Q396 6 396 12V448H158V12Q158 6 155 3Q152 0 146 0H118Q112 0 109 3Q106 6 106 12V448H41Q35 448 32 451Q29 454 29 460V476Q29 482 31.5 485Q34 488 41 488Z" glyph-name="ffl" horiz-adv-x="822" unicode="&#64260;" /><glyph d="M448 479V12Q448 6 445.5 3Q443 0 437 0H408Q402 0 399 3Q396 6 396 12V448H158V12Q158 6 155 3Q152 0 146 0H117Q111 0 108.5 3Q106 6 106 12V448H41Q34 448 31.5 450.5Q29 453 29 460V476Q29 483 31.5 485.5Q34 488 41 488L96 491H106V576Q106 638 150.5 668.5Q195 699 285 699H413Q419 699 422 696Q425 693 425 687V666Q425 660 422 657Q419 654 413 654H285Q220 654 189 634Q158 614 158 571V491H436Q443 491 445.5 488.5Q448 486 448 479Z" glyph-name="fi" horiz-adv-x="531" unicode="&#64257;" /><glyph d="M95 680H419Q426 680 429 677Q432 674 432 668V646Q432 640 429 637Q426 634 419 634H136V409H255Q348 409 397.5 376Q447 343 447 282V131Q447 57 401.5 24.5Q356 -8 258 -8Q160 -8 114.5 24.5Q69 57 69 131V150Q69 156 72 159Q75 162 81 162H110Q116 162 119 159Q122 156 122 150V137Q122 81 153.5 59Q185 37 258 37Q331 37 362.5 59Q394 81 394 137V275Q394 319 359 341.5Q324 364 255 364H95Q89 364 86 367Q83 370 83 376V668Q83 674 86 677Q89 680 95 680Z" glyph-name="five" horiz-adv-x="515" unicode="5" /><glyph d="M60 374H248Q253 374 254.5 372.5Q256 371 256 366V348Q256 344 253.5 342Q251 340 247 340H94V229H157Q210 229 238 209.5Q266 190 266 155V76Q266 35 238 15.5Q210 -4 154 -4Q97 -4 69.5 15.5Q42 35 42 76V87Q42 91 44 92.5Q46 94 50 94H76Q80 94 82 92.5Q84 91 84 87V80Q84 51 100.5 39.5Q117 28 154 28Q190 28 206.5 40Q223 52 223 80V150Q223 172 205 184Q187 196 153 196H60Q55 196 53 198Q51 200 51 204V366Q51 371 53 372.5Q55 374 60 374Z" glyph-name="five.denominator" horiz-adv-x="307" unicode="&#63066;" /><glyph d="M60 224H248Q253 224 254.5 222.5Q256 221 256 216V198Q256 194 253.5 192Q251 190 247 190H94V79H157Q210 79 238 59.5Q266 40 266 5V-74Q266 -115 238 -134.5Q210 -154 154 -154Q97 -154 69.5 -134.5Q42 -115 42 -74V-63Q42 -59 44 -57.5Q46 -56 50 -56H76Q80 -56 82 -57.5Q84 -59 84 -63V-70Q84 -99 100.5 -110.5Q117 -122 154 -122Q190 -122 206.5 -110Q223 -98 223 -70V0Q223 22 205 34Q187 46 153 46H60Q55 46 53 48Q51 50 51 54V216Q51 221 53 222.5Q55 224 60 224Z" glyph-name="five.inferior" horiz-adv-x="307" unicode="&#8325;" /><glyph d="M60 680H248Q253 680 254.5 678.5Q256 677 256 672V654Q256 650 253.5 648Q251 646 247 646H94V535H157Q210 535 238 515.5Q266 496 266 461V382Q266 341 238 321.5Q210 302 154 302Q97 302 69.5 321.5Q42 341 42 382V393Q42 397 44 398.5Q46 400 50 400H76Q80 400 82 398.5Q84 397 84 393V386Q84 357 100.5 345.5Q117 334 154 334Q190 334 206.5 346Q223 358 223 386V456Q223 478 205 490Q187 502 153 502H60Q55 502 53 504Q51 506 51 510V672Q51 677 53 678.5Q55 680 60 680Z" glyph-name="five.numerator" horiz-adv-x="307" unicode="&#63078;" /><glyph d="M60 830H248Q253 830 254.5 828.5Q256 827 256 822V804Q256 800 253.5 798Q251 796 247 796H94V685H157Q210 685 238 665.5Q266 646 266 611V532Q266 491 238 471.5Q210 452 154 452Q97 452 69.5 471.5Q42 491 42 532V543Q42 547 44 548.5Q46 550 50 550H76Q80 550 82 548.5Q84 547 84 543V536Q84 507 100.5 495.5Q117 484 154 484Q190 484 206.5 496Q223 508 223 536V606Q223 628 205 640Q187 652 153 652H60Q55 652 53 654Q51 656 51 660V822Q51 827 53 828.5Q55 830 60 830Z" glyph-name="five.superior" horiz-adv-x="307" unicode="&#8309;" /><glyph d="M106 680H430Q437 680 440 677Q443 674 443 668V646Q443 640 440 637Q437 634 430 634H147V409H266Q359 409 408.5 376Q458 343 458 282V131Q458 57 412.5 24.5Q367 -8 269 -8Q171 -8 125.5 24.5Q80 57 80 131V150Q80 156 83 159Q86 162 92 162H121Q127 162 130 159Q133 156 133 150V137Q133 81 164.5 59Q196 37 269 37Q342 37 373.5 59Q405 81 405 137V275Q405 319 370 341.5Q335 364 266 364H106Q100 364 97 367Q94 370 94 376V668Q94 674 97 677Q100 680 106 680Z" glyph-name="five.tab" horiz-adv-x="536" unicode="&#65301;" /><glyph d="M448 687V12Q448 6 445.5 3Q443 0 437 0H408Q402 0 399 3Q396 6 396 12V654H285Q220 654 189 634Q158 614 158 571V491H274Q280 491 283 488.5Q286 486 286 480V460Q286 454 283 451Q280 448 274 448H158V12Q158 6 155 3Q152 0 146 0H117Q111 0 108.5 3Q106 6 106 12V448H41Q34 448 31.5 450.5Q29 453 29 460V476Q29 483 31.5 485.5Q34 488 41 488L96 491H106V576Q106 638 150.5 668.5Q195 699 285 699H436Q443 699 445.5 696.5Q448 694 448 687Z" glyph-name="fl" horiz-adv-x="531" unicode="&#64258;" /><glyph d="M391 663H382Q317 663 283.5 643Q250 623 245 580L224 411H328Q334 411 336.5 408.5Q339 406 339 399V379Q339 373 336.5 370Q334 367 328 367H219L165 -92Q158 -155 110 -185.5Q62 -216 -28 -216H-33Q-39 -216 -42 -213Q-45 -210 -45 -204V-184Q-45 -177 -42 -174Q-39 -171 -33 -171H-24Q41 -171 74.5 -151Q108 -131 113 -88L168 367H70Q64 367 61 370Q58 373 58 379V399Q58 406 60.5 408.5Q63 411 70 411H172L193 585Q201 647 248.5 677.5Q296 708 386 708H391Q397 708 400 705Q403 702 403 696V675Q403 669 400 666Q397 663 391 663Z" glyph-name="florin" horiz-adv-x="411" unicode="&#402;" /><glyph d="M244 668 96 270H384V668Q384 674 387 677Q390 680 396 680H426Q432 680 434.5 677Q437 674 437 668V12Q437 6 434.5 3Q432 0 426 0H396Q390 0 387 3Q384 6 384 12V224H52Q46 224 43 227Q40 230 40 236V250Q40 256 41 260.5Q42 265 45 274L190 668Q192 674 195.5 677Q199 680 205 680H235Q241 680 243.5 677Q246 674 244 668Z" glyph-name="four" horiz-adv-x="522" unicode="4" /><glyph d="M145 366 69 153H215V366Q215 371 217 372.5Q219 374 224 374H250Q254 374 256 372Q258 370 258 366V8Q258 4 256 2Q254 0 250 0H224Q219 0 217 1.5Q215 3 215 8V118H33Q28 118 26 120Q24 122 24 126V139Q24 142 24.5 144.5Q25 147 26 150L102 366Q104 370 106 372Q108 374 113 374H138Q143 374 144.5 372Q146 370 145 366Z" glyph-name="four.denominator" horiz-adv-x="307" unicode="&#63065;" /><glyph d="M146 216 70 3H216V216Q216 221 218 222.5Q220 224 225 224H251Q255 224 257 222Q259 220 259 216V-142Q259 -146 257 -148Q255 -150 251 -150H225Q220 -150 218 -148.5Q216 -147 216 -142V-32H34Q29 -32 27 -30Q25 -28 25 -24V-11Q25 -8 25.5 -5.5Q26 -3 27 0L103 216Q105 220 107 222Q109 224 114 224H139Q144 224 145.5 222Q147 220 146 216Z" glyph-name="four.inferior" horiz-adv-x="307" unicode="&#8324;" /><glyph d="M146 672 70 459H216V672Q216 677 218 678.5Q220 680 225 680H251Q255 680 257 678Q259 676 259 672V314Q259 310 257 308Q255 306 251 306H225Q220 306 218 307.5Q216 309 216 314V424H34Q29 424 27 426Q25 428 25 432V445Q25 448 25.5 450.5Q26 453 27 456L103 672Q105 676 107 678Q109 680 114 680H139Q144 680 145.5 678Q147 676 146 672Z" glyph-name="four.numerator" horiz-adv-x="307" unicode="&#63077;" /><glyph d="M145 822 69 609H215V822Q215 827 217 828.5Q219 830 224 830H250Q254 830 256 828Q258 826 258 822V464Q258 460 256 458Q254 456 250 456H224Q219 456 217 457.5Q215 459 215 464V574H33Q28 574 26 576Q24 578 24 582V595Q24 598 24.5 600.5Q25 603 26 606L102 822Q104 826 106 828Q108 830 113 830H138Q143 830 144.5 828Q146 826 145 822Z" glyph-name="four.superior" horiz-adv-x="307" unicode="&#8308;" /><glyph d="M248 668 100 270H388V668Q388 674 391 677Q394 680 400 680H430Q436 680 438.5 677Q441 674 441 668V12Q441 6 438.5 3Q436 0 430 0H400Q394 0 391 3Q388 6 388 12V224H56Q50 224 47 227Q44 230 44 236V250Q44 256 45 260.5Q46 265 49 274L194 668Q196 674 199.5 677Q203 680 209 680H239Q245 680 247.5 677Q250 674 248 668Z" glyph-name="four.tab" horiz-adv-x="536" unicode="&#65300;" /><glyph d="M218 676 -90 4Q-93 -2 -97 -5Q-101 -8 -107 -8H-130Q-135 -8 -136.5 -4Q-138 0 -136 4L173 676Q176 682 180 685Q184 688 190 688H212Q217 688 218.5 684.5Q220 681 218 676Z" glyph-name="fraction" horiz-adv-x="83" unicode="&#8260;" /><glyph d="M211 -8Q145 -8 109.5 24Q74 56 74 115V378Q74 437 109.5 469Q145 501 211 501Q258 501 302 485.5Q346 470 385 439L387 480Q387 487 390 490Q393 493 399 493H424Q430 493 433 490Q436 487 436 480V-84Q436 -146 391.5 -177Q347 -208 257 -208H122Q116 -208 113 -205Q110 -202 110 -196V-175Q110 -169 113 -166Q116 -163 122 -163H257Q322 -163 353 -143Q384 -123 384 -80V52Q345 22 301.5 7Q258 -8 211 -8ZM224 453Q177 453 151.5 431.5Q126 410 126 371V122Q126 83 151.5 61Q177 39 224 39Q264 39 303 53Q342 67 384 98V393Q349 422 308 437.5Q267 453 224 453Z" glyph-name="g" horiz-adv-x="519" unicode="g" /><glyph d="M211 -8Q145 -8 109.5 24Q74 56 74 115V378Q74 437 109.5 469Q145 501 211 501Q258 501 302 485.5Q346 470 385 439L387 480Q387 487 390 490Q393 493 399 493H424Q430 493 433 490Q436 487 436 480V-84Q436 -146 391.5 -177Q347 -208 257 -208H122Q116 -208 113 -205Q110 -202 110 -196V-175Q110 -169 113 -166Q116 -163 122 -163H257Q322 -163 353 -143Q384 -123 384 -80V52Q345 22 301.5 7Q258 -8 211 -8ZM224 453Q177 453 151.5 431.5Q126 410 126 371V122Q126 83 151.5 61Q177 39 224 39Q264 39 303 53Q342 67 384 98V393Q349 422 308 437.5Q267 453 224 453ZM182 683V665Q182 625 199.5 608.5Q217 592 256 592Q294 592 311.5 608.5Q329 625 329 665V683Q329 689 331.5 691.5Q334 694 340 694H358Q364 694 366.5 691.5Q369 689 369 683V666Q369 610 341 583.5Q313 557 255 557Q197 557 169.5 583Q142 609 142 666V683Q142 689 144.5 691.5Q147 694 153 694H171Q177 694 179.5 691.5Q182 689 182 683Z" glyph-name="gbreve" horiz-adv-x="519" unicode="&#287;" /><glyph d="M321 582 261 674 200 582Q196 575 192 572.5Q188 570 184 570H160Q154 570 152.5 573.5Q151 577 154 582L232 696Q236 702 240.5 705Q245 708 250 708H270Q276 708 280.5 705Q285 702 289 697L367 582Q371 577 369 573.5Q367 570 361 570H338Q333 570 329 573Q325 576 321 582ZM211 -8Q145 -8 109.5 24Q74 56 74 115V378Q74 437 109.5 469Q145 501 211 501Q258 501 302 485.5Q346 470 385 439L387 480Q387 487 390 490Q393 493 399 493H424Q430 493 433 490Q436 487 436 480V-84Q436 -146 391.5 -177Q347 -208 257 -208H122Q116 -208 113 -205Q110 -202 110 -196V-175Q110 -169 113 -166Q116 -163 122 -163H257Q322 -163 353 -143Q384 -123 384 -80V52Q345 22 301.5 7Q258 -8 211 -8ZM224 453Q177 453 151.5 431.5Q126 410 126 371V122Q126 83 151.5 61Q177 39 224 39Q264 39 303 53Q342 67 384 98V393Q349 422 308 437.5Q267 453 224 453Z" glyph-name="gcircumflex" horiz-adv-x="519" unicode="&#285;" /><glyph d="M297 713Q274 664 271 648.5Q268 633 268 612V585Q268 579 265 576Q262 573 256 573H234Q228 573 225 576Q222 579 222 585V614Q222 641 230.5 668Q239 695 259 728Q262 733 265.5 734.5Q269 736 275 734L292 729Q297 727 298.5 723Q300 719 297 713ZM211 -8Q145 -8 109.5 24Q74 56 74 115V378Q74 437 109.5 469Q145 501 211 501Q258 501 302 485.5Q346 470 385 439L387 480Q387 487 390 490Q393 493 399 493H424Q430 493 433 490Q436 487 436 480V-84Q436 -146 391.5 -177Q347 -208 257 -208H122Q116 -208 113 -205Q110 -202 110 -196V-175Q110 -169 113 -166Q116 -163 122 -163H257Q322 -163 353 -143Q384 -123 384 -80V52Q345 22 301.5 7Q258 -8 211 -8ZM224 453Q177 453 151.5 431.5Q126 410 126 371V122Q126 83 151.5 61Q177 39 224 39Q264 39 303 53Q342 67 384 98V393Q349 422 308 437.5Q267 453 224 453Z" glyph-name="gcommaaccent" horiz-adv-x="519" unicode="&#291;" /><glyph d="M211 -8Q145 -8 109.5 24Q74 56 74 115V378Q74 437 109.5 469Q145 501 211 501Q258 501 302 485.5Q346 470 385 439L387 480Q387 487 390 490Q393 493 399 493H424Q430 493 433 490Q436 487 436 480V-84Q436 -146 391.5 -177Q347 -208 257 -208H122Q116 -208 113 -205Q110 -202 110 -196V-175Q110 -169 113 -166Q116 -163 122 -163H257Q322 -163 353 -143Q384 -123 384 -80V52Q345 22 301.5 7Q258 -8 211 -8ZM224 453Q177 453 151.5 431.5Q126 410 126 371V122Q126 83 151.5 61Q177 39 224 39Q264 39 303 53Q342 67 384 98V393Q349 422 308 437.5Q267 453 224 453ZM277 675V598Q277 592 274.5 589Q272 586 266 586H236Q230 586 227 589Q224 592 224 598V675Q224 681 227 684Q230 687 236 687H266Q272 687 274.5 684Q277 681 277 675Z" glyph-name="gdotaccent" horiz-adv-x="519" unicode="&#289;" /><glyph d="M294 666Q226 666 192 645Q158 624 158 581V12Q158 6 155 3Q152 0 146 0H118Q112 0 109 3Q106 6 106 12V448H41Q35 448 32 451Q29 454 29 460V476Q29 482 31.5 485Q34 488 41 488L96 491H106V585Q106 646 153 677Q200 708 292 708Q385 708 431.5 677.5Q478 647 478 585V547Q478 516 457.5 494Q437 472 400 462L338 445Q302 435 290.5 423.5Q279 412 279 395V389Q279 369 293 353.5Q307 338 340 326L459 282Q506 265 529 240Q552 215 552 184V114Q552 49 512.5 20.5Q473 -8 389 -8Q305 -8 267.5 19.5Q230 47 230 113V125Q230 132 232.5 134.5Q235 137 242 137H262Q268 137 271 134Q274 131 274 125V111Q274 67 301.5 48Q329 29 389 29Q449 29 476.5 48Q504 67 504 111V175Q504 195 490 210Q476 225 435 240L318 283Q275 299 254.5 324Q234 349 234 384V397Q234 427 254 447.5Q274 468 312 478L369 493Q400 501 415 516.5Q430 532 430 554V581Q430 624 396 645Q362 666 294 666Z" glyph-name="germandbls" horiz-adv-x="598" unicode="&#223;" /><glyph d="M184 577 103 696Q99 701 101 704.5Q103 708 109 708H141Q146 708 149.5 706Q153 704 157 698L229 581Q232 576 230.5 573Q229 570 224 570H199Q194 570 190.5 571.5Q187 573 184 577Z" glyph-name="grave" horiz-adv-x="336" unicode="`" /><glyph d="M136 747 55 866Q51 871 52.5 874.5Q54 878 60 878H92Q97 878 100.5 876Q104 874 108 867L180 751Q183 746 182 742.5Q181 739 175 739H150Q146 739 142.5 741Q139 743 136 747Z" glyph-name="grave.case" horiz-adv-x="233" /><glyph d="M87 203 398 340 87 478Q81 481 78.5 484Q76 487 76 491V521Q76 528 79 530.5Q82 533 87 531L439 370Q445 367 447.5 364Q450 361 450 357V324Q450 320 448.5 317.5Q447 315 439 311L87 150Q82 148 79 150.5Q76 153 76 160V189Q76 194 78.5 197Q81 200 87 203Z" glyph-name="greater" horiz-adv-x="498" unicode="&gt;" /><glyph d="M95 284 405 401 95 519Q88 522 85.5 525Q83 528 83 533V562Q83 569 86.5 571.5Q90 574 95 572L446 432Q452 430 454.5 426.5Q457 423 457 418V385Q457 380 455 377.5Q453 375 446 372L95 231Q90 229 86.5 231.5Q83 234 83 241V271Q83 276 85.5 278.5Q88 281 95 284ZM95 168H445Q451 168 454 165Q457 162 457 156V134Q457 128 454 125.5Q451 123 445 123H95Q89 123 86 125.5Q83 128 83 134V156Q83 162 86 165Q89 168 95 168Z" glyph-name="greaterequal" horiz-adv-x="536" unicode="&#8805;" /><glyph d="M243 131 89 245 243 360Q251 366 253 369.5Q255 373 255 377V410Q255 416 251 417.5Q247 419 243 416L58 275Q51 270 49 266Q47 262 47 257V233Q47 228 49.5 224Q52 220 58 215L243 75Q248 71 251.5 73Q255 75 255 81V112Q255 117 252 121.5Q249 126 243 131ZM444 131 290 245 444 360Q452 366 454 369.5Q456 373 456 377V410Q456 416 452 417.5Q448 419 444 416L259 275Q252 270 250 266Q248 262 248 257V233Q248 228 250.5 224Q253 220 259 215L444 75Q449 71 452.5 73Q456 75 456 81V112Q456 117 453 121.5Q450 126 444 131Z" glyph-name="guillemotleft" horiz-adv-x="529" unicode="&#171;" /><glyph d="M84 367 238 253 84 138Q76 132 74 128.5Q72 125 72 121V88Q72 82 76 80.5Q80 79 84 82L269 223Q276 228 278 232Q280 236 280 241V265Q280 270 277.5 274Q275 278 269 283L84 423Q79 427 75.5 425Q72 423 72 417V386Q72 381 75 376.5Q78 372 84 367ZM284 367 438 253 284 138Q276 132 274 128.5Q272 125 272 121V88Q272 82 276 80.5Q280 79 284 82L469 223Q476 228 478 232Q480 236 480 241V265Q480 270 477.5 274Q475 278 469 283L284 423Q279 427 275.5 425Q272 423 272 417V386Q272 381 275 376.5Q278 372 284 367Z" glyph-name="guillemotright" horiz-adv-x="527" unicode="&#187;" /><glyph d="M243 131 89 245 243 360Q251 366 253 369.5Q255 373 255 377V410Q255 416 251 417.5Q247 419 243 416L58 275Q51 270 49 266Q47 262 47 257V233Q47 228 49.5 224Q52 220 58 215L243 75Q248 71 251.5 73Q255 75 255 81V112Q255 117 252 121.5Q249 126 243 131Z" glyph-name="guilsinglleft" horiz-adv-x="328" unicode="&#8249;" /><glyph d="M85 131 239 245 85 360Q77 366 75 369.5Q73 373 73 377V410Q73 416 77 417.5Q81 419 85 416L270 275Q277 270 279 266Q281 262 281 257V233Q281 228 278.5 224Q276 220 270 215L85 75Q80 71 76.5 73Q73 75 73 81V112Q73 117 76 121.5Q79 126 85 131Z" glyph-name="guilsinglright" horiz-adv-x="328" unicode="&#8250;" /><glyph d="M135 687V440Q171 470 215 485.5Q259 501 308 501Q373 501 409 469.5Q445 438 445 381V12Q445 6 442.5 3Q440 0 434 0H405Q399 0 396 3Q393 6 393 12V371Q393 412 368 433Q343 454 295 454Q252 454 211.5 438.5Q171 423 135 394V12Q135 6 132.5 3Q130 0 124 0H95Q89 0 86 3Q83 6 83 12V687Q83 693 86 696Q89 699 95 699H124Q130 699 132.5 696Q135 693 135 687Z" glyph-name="h" horiz-adv-x="526" unicode="h" /><glyph d="M135 394V12Q135 6 132.5 3Q130 0 124 0H95Q89 0 86 3Q83 6 83 12V564H28Q22 564 19 567Q16 570 16 576V592Q16 598 19 600.5Q22 603 28 603H83V687Q83 693 86 696Q89 699 95 699H124Q130 699 132.5 696Q135 693 135 687V603H292Q298 603 301 600.5Q304 598 304 592V576Q304 570 301 567Q298 564 292 564H135V440Q171 470 215 485.5Q259 501 308 501Q373 501 409 469.5Q445 438 445 381V12Q445 6 442.5 3Q440 0 434 0H405Q399 0 396 3Q393 6 393 12V371Q393 412 368 433Q343 454 295 454Q252 454 211.5 438.5Q171 423 135 394Z" glyph-name="hbar" horiz-adv-x="526" unicode="&#295;" /><glyph d="M135 687V440Q171 470 215 485.5Q259 501 308 501Q373 501 409 469.5Q445 438 445 381V12Q445 6 442.5 3Q440 0 434 0H405Q399 0 396 3Q393 6 393 12V371Q393 412 368 433Q343 454 295 454Q252 454 211.5 438.5Q171 423 135 394V12Q135 6 132.5 3Q130 0 124 0H95Q89 0 86 3Q83 6 83 12V687Q83 693 86 696Q89 699 95 699H124Q130 699 132.5 696Q135 693 135 687ZM170 752 109 844 49 752Q45 745 41 742.5Q37 740 32 740H9Q3 740 1 743.5Q-1 747 3 752L81 866Q85 872 89.5 875Q94 878 99 878H119Q124 878 128.5 875Q133 872 137 867L216 752Q219 747 217.5 743.5Q216 740 210 740H186Q182 740 178 743Q174 746 170 752Z" glyph-name="hcircumflex" horiz-adv-x="526" unicode="&#293;" /><glyph d="M284 696 204 580Q200 574 196.5 572Q193 570 188 570H166Q160 570 158 573.5Q156 577 160 582L233 696Q237 702 241.5 705Q246 708 252 708H278Q284 708 286 704.5Q288 701 284 696ZM181 696 117 582Q113 575 109.5 572.5Q106 570 101 570H79Q73 570 71 573.5Q69 577 72 582L130 696Q133 702 137.5 705Q142 708 147 708H173Q179 708 181.5 704.5Q184 701 181 696Z" glyph-name="hungarumlaut" horiz-adv-x="356" unicode="&#733;" /><glyph d="M222 866 143 750Q139 745 135 742.5Q131 740 126 740H104Q98 740 96.5 743.5Q95 747 98 752L171 866Q175 872 180 875Q185 878 190 878H216Q222 878 224 874.5Q226 871 222 866ZM120 866 55 752Q50 744 47 742Q44 740 39 740H17Q12 740 10 743.5Q8 747 10 752L69 866Q72 872 76 875Q80 878 85 878H112Q118 878 120.5 874.5Q123 871 120 866Z" glyph-name="hungarumlaut.case" horiz-adv-x="233" /><glyph d="M82 311H350Q357 311 359.5 308.5Q362 306 362 300V279Q362 273 359 270Q356 267 350 267H82Q76 267 73 270Q70 273 70 279V300Q70 306 73 308.5Q76 311 82 311Z" glyph-name="hyphen" horiz-adv-x="432" unicode="-" /><glyph d="M52 176H203Q208 176 210 174Q212 172 212 168V151Q212 147 210 145Q208 143 203 143H52Q47 143 45.5 144.5Q44 146 44 151V168Q44 173 46 174.5Q48 176 52 176Z" glyph-name="hyphen.denominator" horiz-adv-x="256" unicode="&#63019;" /><glyph d="M57 482H208Q213 482 215 480Q217 478 217 474V457Q217 453 215 451Q213 449 208 449H57Q52 449 50.5 450.5Q49 452 49 457V474Q49 479 51 480.5Q53 482 57 482Z" glyph-name="hyphen.numerator" horiz-adv-x="266" unicode="&#63024;" /><glyph d="M135 480V12Q135 6 132.5 3Q130 0 124 0H95Q89 0 86 3Q83 6 83 12V480Q83 487 86 490Q89 493 95 493H124Q130 493 132.5 490Q135 487 135 480ZM135 687V592Q135 586 132.5 583Q130 580 124 580H95Q89 580 86 583Q83 586 83 592V687Q83 693 86 696Q89 699 95 699H124Q130 699 132.5 696Q135 693 135 687Z" glyph-name="i" horiz-adv-x="218" unicode="i" /><glyph d="M214 696 133 577Q131 574 127.5 572Q124 570 119 570H94Q88 570 86.5 573Q85 576 88 581L160 698Q163 703 167 705.5Q171 708 176 708H208Q214 708 216 704.5Q218 701 214 696ZM136 481V12Q136 6 133 3Q130 0 124 0H95Q89 0 86.5 3Q84 6 84 12V481Q84 487 86.5 490Q89 493 95 493H124Q130 493 133 490Q136 487 136 481Z" glyph-name="iacute" horiz-adv-x="219" unicode="&#237;" /><glyph d="M136 481V12Q136 6 133 3Q130 0 124 0H95Q89 0 86.5 3Q84 6 84 12V481Q84 487 86.5 490Q89 493 95 493H124Q130 493 133 490Q136 487 136 481ZM36 683V665Q36 625 53.5 608.5Q71 592 110 592Q148 592 165.5 608.5Q183 625 183 665V683Q183 689 185.5 691.5Q188 694 194 694H212Q218 694 220.5 691.5Q223 689 223 683V666Q223 610 195 583.5Q167 557 109 557Q51 557 23.5 583Q-4 609 -4 666V683Q-4 689 -1.5 691.5Q1 694 7 694H25Q31 694 33.5 691.5Q36 689 36 683Z" glyph-name="ibreve" horiz-adv-x="219" unicode="&#301;" /><glyph d="M171 582 111 674 50 582Q46 575 42 572.5Q38 570 34 570H10Q4 570 2.5 573.5Q1 577 4 582L82 696Q86 702 90.5 705Q95 708 100 708H120Q126 708 130.5 705Q135 702 139 697L217 582Q221 577 219 573.5Q217 570 211 570H188Q183 570 179 573Q175 576 171 582ZM136 481V12Q136 6 133 3Q130 0 124 0H95Q89 0 86.5 3Q84 6 84 12V481Q84 487 86.5 490Q89 493 95 493H124Q130 493 133 490Q136 487 136 481Z" glyph-name="icircumflex" horiz-adv-x="219" unicode="&#238;" /><glyph d="M82 690V592Q82 586 79 583Q76 580 70 580H52Q46 580 43 583Q40 586 40 592V690Q40 696 43 699Q46 702 52 702H70Q76 702 79 699Q82 696 82 690ZM180 690V592Q180 586 177 583Q174 580 168 580H150Q144 580 141 583Q138 586 138 592V690Q138 696 141 699Q144 702 150 702H168Q174 702 177 699Q180 696 180 690ZM136 481V12Q136 6 133 3Q130 0 124 0H95Q89 0 86.5 3Q84 6 84 12V481Q84 487 86.5 490Q89 493 95 493H124Q130 493 133 490Q136 487 136 481Z" glyph-name="idieresis" horiz-adv-x="219" unicode="&#239;" /><glyph d="M136 481V12Q136 6 133 3Q130 0 124 0H95Q89 0 86.5 3Q84 6 84 12V481Q84 487 86.5 490Q89 493 95 493H124Q130 493 133 490Q136 487 136 481ZM82 577 1 696Q-3 701 -1 704.5Q1 708 7 708H39Q44 708 47.5 706Q51 704 55 698L127 581Q130 576 128.5 573Q127 570 122 570H97Q92 570 88.5 571.5Q85 573 82 577Z" glyph-name="igrave" horiz-adv-x="219" unicode="&#236;" /><glyph d="M135 480V12Q135 6 132.5 3Q130 0 124 0H95Q89 0 86 3Q83 6 83 12V480Q83 487 86 490Q89 493 95 493H124Q130 493 132.5 490Q135 487 135 480ZM135 687V592Q135 586 132.5 583Q130 580 124 580H95Q89 580 86 583Q83 586 83 592V687Q83 693 86 696Q89 699 95 699H124Q130 699 132.5 696Q135 693 135 687ZM355 687V592Q355 586 352.5 583Q350 580 344 580H315Q309 580 306 583Q303 586 303 592V687Q303 693 306 696Q309 699 315 699H344Q350 699 352.5 696Q355 693 355 687ZM355 480V-84Q355 -147 310.5 -177.5Q266 -208 176 -208H171Q165 -208 162 -205Q159 -202 159 -196V-175Q159 -169 162 -166Q165 -163 171 -163H176Q241 -163 272 -143Q303 -123 303 -80V480Q303 487 306 490Q309 493 315 493H343Q349 493 352 490Q355 487 355 480Z" glyph-name="ij" horiz-adv-x="439" unicode="&#307;" /><glyph d="M136 481V12Q136 6 133 3Q130 0 124 0H95Q89 0 86.5 3Q84 6 84 12V481Q84 487 86.5 490Q89 493 95 493H124Q130 493 133 490Q136 487 136 481ZM-19 646H238Q244 646 247 643Q250 640 250 634V616Q250 610 247 607Q244 604 238 604H-19Q-25 604 -28 607Q-31 610 -31 616V634Q-31 640 -28 643Q-25 646 -19 646Z" glyph-name="imacron" horiz-adv-x="219" unicode="&#299;" /><glyph d="M42 314Q42 318 45 323.5Q48 329 54 335L165 446Q171 452 176 454.5Q181 457 186 457Q191 457 197 454Q203 451 208 446L319 335Q324 330 326.5 324.5Q329 319 329 314Q329 308 326.5 302.5Q324 297 319 292L208 181Q203 176 197 173Q191 170 186 170Q181 170 176 172.5Q171 175 165 181L54 292Q47 299 44.5 304Q42 309 42 314ZM186 438Q184 438 182 437Q180 436 178 434L66 322Q64 320 63 318Q62 316 62 313Q62 311 63 309Q64 307 66 305L178 193Q180 191 182 190Q184 189 186 189Q189 189 191 190Q193 191 195 193L307 305Q309 307 310 309Q311 311 311 313Q311 316 310 318Q309 320 307 322L195 434Q193 436 191 437Q189 438 186 438Z" glyph-name="infinity" horiz-adv-x="373" unicode="&#8734;" /><glyph d="M185 158Q120 158 75.5 203Q31 248 31 313Q31 378 76 423.5Q121 469 185 469Q250 469 296 423.5Q342 378 342 313Q342 248 296.5 203Q251 158 185 158Z" glyph-name="integral" horiz-adv-x="373" unicode="&#8747;" /><glyph d="M131 -149H100Q57 -149 34 -130Q11 -111 11 -75Q11 -47 32.5 -19Q54 9 87 23V480Q87 487 90 490Q93 493 99 493H127Q133 493 136 490Q139 487 139 480V12Q139 6 136 3Q133 0 127 0H119Q88 -6 70.5 -24.5Q53 -43 53 -68Q53 -90 67.5 -100.5Q82 -111 111 -111H134Q140 -111 143 -114Q146 -117 146 -123V-137Q146 -143 142.5 -146Q139 -149 131 -149ZM139 687V592Q139 586 136 583Q133 580 127 580H99Q93 580 90 583Q87 586 87 592V687Q87 693 90 696Q93 699 99 699H127Q133 699 136 696Q139 693 139 687Z" glyph-name="iogonek" horiz-adv-x="222" unicode="&#303;" /><glyph d="M136 481V12Q136 6 133 3Q130 0 124 0H95Q89 0 86.5 3Q84 6 84 12V481Q84 487 86.5 490Q89 493 95 493H124Q130 493 133 490Q136 487 136 481ZM178 580Q165 580 151 585.5Q137 591 126 600L80 636Q69 645 60 649.5Q51 654 44 654Q26 654 19.5 643Q13 632 13 599V591Q13 585 10 582.5Q7 580 0 580H-16Q-22 580 -24.5 582.5Q-27 585 -27 593V612Q-27 652 -9.5 673.5Q8 695 41 695Q54 695 67.5 690Q81 685 93 675L139 638Q149 630 158.5 625.5Q168 621 175 621Q193 621 199.5 632Q206 643 206 675V684Q206 690 209 692.5Q212 695 219 695H235Q241 695 243.5 692Q246 689 246 682V663Q246 623 228.5 601.5Q211 580 178 580Z" glyph-name="itilde" horiz-adv-x="219" unicode="&#297;" /><glyph d="M135 687V592Q135 586 132.5 583Q130 580 124 580H95Q89 580 86 583Q83 586 83 592V687Q83 693 86 696Q89 699 95 699H124Q130 699 132.5 696Q135 693 135 687ZM135 480V-84Q135 -147 90.5 -177.5Q46 -208 -44 -208H-49Q-55 -208 -58 -205Q-61 -202 -61 -196V-175Q-61 -169 -58 -166Q-55 -163 -49 -163H-44Q21 -163 52 -143Q83 -123 83 -80V480Q83 487 86 490Q89 493 95 493H123Q129 493 132 490Q135 487 135 480Z" glyph-name="j" horiz-adv-x="218" unicode="j" /><glyph d="M136 481V-85Q136 -147 91.5 -177.5Q47 -208 -44 -208H-49Q-55 -208 -58 -205Q-61 -202 -61 -196V-176Q-61 -170 -58 -167Q-55 -164 -49 -164H-44Q21 -164 52.5 -144Q84 -124 84 -81V481Q84 487 86.5 490Q89 493 95 493H124Q130 493 133 490Q136 487 136 481ZM170 582 110 674 49 582Q45 575 41 572.5Q37 570 33 570H9Q3 570 1.5 573.5Q0 577 3 582L81 696Q85 702 89.5 705Q94 708 99 708H119Q125 708 129.5 705Q134 702 138 697L216 582Q220 577 218 573.5Q216 570 210 570H187Q182 570 178 573Q174 576 170 582Z" glyph-name="jcircumflex" horiz-adv-x="219" unicode="&#309;" /><glyph d="M412 481 215 281 438 12Q442 8 440 4Q438 0 433 0H396Q391 0 386.5 2.5Q382 5 376 12L172 257H136V12Q136 6 133 3Q130 0 124 0H95Q89 0 86.5 3Q84 6 84 12V687Q84 693 86.5 696Q89 699 95 699H124Q130 699 133 696Q136 693 136 687V298H172L354 481Q362 489 366 491Q370 493 374 493H407Q413 493 414.5 489Q416 485 412 481Z" glyph-name="k" horiz-adv-x="456" unicode="k" /><glyph d="M179 -190Q202 -141 205 -125.5Q208 -110 208 -89V-62Q208 -56 211 -53Q214 -50 220 -50H242Q248 -50 251 -53Q254 -56 254 -62V-91Q254 -118 245.5 -145Q237 -172 217 -205Q214 -210 210.5 -211.5Q207 -213 201 -211L184 -206Q179 -204 177.5 -200Q176 -196 179 -190ZM412 481 215 281 438 12Q442 8 440 4Q438 0 433 0H396Q391 0 386.5 2.5Q382 5 376 12L172 257H136V12Q136 6 133 3Q130 0 124 0H95Q89 0 86.5 3Q84 6 84 12V687Q84 693 86.5 696Q89 699 95 699H124Q130 699 133 696Q136 693 136 687V298H172L354 481Q362 489 366 491Q370 493 374 493H407Q413 493 414.5 489Q416 485 412 481Z" glyph-name="kcommaaccent" horiz-adv-x="456" unicode="&#311;" /><glyph d="M412 481 215 276 438 12Q442 8 440 4Q438 0 432 0H396Q391 0 386.5 2.5Q382 5 376 12L172 252H136V12Q136 6 133 3Q130 0 124 0H95Q89 0 86.5 3Q84 6 84 12V481Q84 487 86.5 490Q89 493 95 493H124Q130 493 133 490Q136 487 136 481V293H172L354 481Q362 489 366 491Q370 493 374 493H407Q413 493 414.5 489Q416 485 412 481Z" glyph-name="kgreenlandic" horiz-adv-x="456" unicode="&#312;" /><glyph d="M135 687V12Q135 6 132.5 3Q130 0 124 0H95Q89 0 86 3Q83 6 83 12V687Q83 693 86 696Q89 699 95 699H124Q130 699 132.5 696Q135 693 135 687Z" glyph-name="l" horiz-adv-x="218" unicode="l" /><glyph d="M215 866 134 747Q132 744 128.5 742Q125 740 120 740H95Q89 740 87.5 743Q86 746 89 751L162 868Q166 874 169 876Q172 878 177 878H209Q216 878 217.5 875Q219 872 215 866ZM135 687V12Q135 6 132.5 3Q130 0 124 0H95Q89 0 86 3Q83 6 83 12V687Q83 693 86 696Q89 699 95 699H124Q130 699 132.5 696Q135 693 135 687Z" glyph-name="lacute" horiz-adv-x="219" unicode="&#314;" /><glyph d="M191 573Q214 622 217 637.5Q220 653 220 674V701Q220 707 223 710Q226 713 232 713H254Q260 713 263 710Q266 707 266 701V672Q266 645 257.5 618Q249 591 229 558Q226 553 222.5 551.5Q219 550 213 552L196 557Q191 559 189.5 563Q188 567 191 573ZM135 687V12Q135 6 132.5 3Q130 0 124 0H95Q89 0 86 3Q83 6 83 12V687Q83 693 86 696Q89 699 95 699H124Q130 699 132.5 696Q135 693 135 687Z" glyph-name="lcaron" horiz-adv-x="233" unicode="&#318;" /><glyph d="M58 -190Q81 -141 84 -125.5Q87 -110 87 -89V-62Q87 -56 90 -53Q93 -50 99 -50H121Q127 -50 130 -53Q133 -56 133 -62V-91Q133 -118 124.5 -145Q116 -172 96 -205Q93 -210 89.5 -211.5Q86 -213 80 -211L63 -206Q58 -204 56.5 -200Q55 -196 58 -190ZM135 687V12Q135 6 132.5 3Q130 0 124 0H95Q89 0 86 3Q83 6 83 12V687Q83 693 86 696Q89 699 95 699H124Q130 699 132.5 696Q135 693 135 687Z" glyph-name="lcommaaccent" horiz-adv-x="219" unicode="&#316;" /><glyph d="M135 687V12Q135 6 132.5 3Q130 0 124 0H95Q89 0 86 3Q83 6 83 12V687Q83 693 86 696Q89 699 95 699H124Q130 699 132.5 696Q135 693 135 687ZM268 393V316Q268 309 265.5 306.5Q263 304 257 304H227Q221 304 218 307Q215 310 215 316V393Q215 399 218 402Q221 405 227 405H257Q263 405 265.5 402Q268 399 268 393Z" glyph-name="ldot" horiz-adv-x="264" unicode="&#320;" /><glyph d="M411 478 100 340 411 203Q418 200 420.5 197Q423 194 423 189V160Q423 154 419.5 151.5Q416 149 411 151L59 311Q52 314 50 317Q48 320 48 325V356Q48 361 50.5 364Q53 367 59 370L411 530Q416 532 419.5 529.5Q423 527 423 521V492Q423 487 420.5 484Q418 481 411 478Z" glyph-name="less" horiz-adv-x="501" unicode="&lt;" /><glyph d="M442 519 132 401 442 284Q449 281 451.5 278Q454 275 454 270V241Q454 235 450.5 232.5Q447 230 442 232L91 372Q83 375 81 378Q79 381 79 386V417Q79 422 81.5 425Q84 428 91 431L442 571Q447 573 450.5 570.5Q454 568 454 562V533Q454 528 451.5 525Q449 522 442 519ZM92 167H442Q448 167 451 164.5Q454 162 454 156V135Q454 129 451 126.5Q448 124 442 124H92Q86 124 83 126.5Q80 129 80 135V156Q80 162 83 164.5Q86 167 92 167Z" glyph-name="lessequal" horiz-adv-x="536" unicode="&#8804;" /><glyph d="M176 204Q131 204 99.5 235.5Q68 267 68 313Q68 358 99.5 390Q131 422 176 422Q221 422 253.5 390Q286 358 286 313Q286 268 253.5 236Q221 204 176 204Z" glyph-name="logicalnot" horiz-adv-x="353" unicode="&#172;" /><glyph d="M41 488 96 491H106V580Q106 642 150.5 672.5Q195 703 285 703H290Q296 703 299 700Q302 697 302 691V671Q302 665 299 662Q296 659 290 659H285Q220 659 189 639Q158 619 158 576V12Q158 6 155 3Q152 0 146 0H117Q111 0 108.5 3Q106 6 106 12V449H41Q34 449 31.5 451.5Q29 454 29 460V476Q29 483 31.5 485.5Q34 488 41 488Z" glyph-name="longs" horiz-adv-x="261" unicode="&#383;" /><glyph d="M52 314Q52 317 54 321Q56 325 60 329L171 440Q175 444 178.5 445.5Q182 447 186 447Q190 447 193.5 445.5Q197 444 201 440L312 329Q316 325 318 321Q320 317 320 314Q320 310 318.5 307Q317 304 312 299L201 188Q196 183 192.5 181Q189 179 186 179Q183 179 179.5 181Q176 183 171 188L60 299Q55 304 53.5 307Q52 310 52 314Z" glyph-name="lozenge" horiz-adv-x="373" unicode="&#9674;" /><glyph d="M142 0H113Q107 0 104 3Q101 6 101 12V311L39 285Q33 283 29 284.5Q25 286 23 292L19 303Q17 308 18.5 312Q20 316 25 318L101 349V687Q101 693 104 696Q107 699 113 699H142Q148 699 150.5 696Q153 693 153 687V371L217 397Q222 399 226 397.5Q230 396 232 391L238 379Q240 375 238 370.5Q236 366 230 364L153 332V12Q153 6 150.5 3Q148 0 142 0Z" glyph-name="lslash" horiz-adv-x="257" unicode="&#322;" /><glyph d="M95 493H120Q126 493 129 490.5Q132 488 132 481L133 440Q170 471 212.5 486Q255 501 302 501Q350 501 382.5 483Q415 465 429 432Q470 468 513.5 484.5Q557 501 606 501Q671 501 707 469.5Q743 438 743 381V12Q743 6 740 3Q737 0 731 0H703Q697 0 694 3Q691 6 691 12V371Q691 412 666 433Q641 454 593 454Q550 454 511 438.5Q472 423 438 393Q439 389 439 384.5Q439 380 439 371V12Q439 6 436.5 3Q434 0 428 0H399Q393 0 390 3Q387 6 387 12V371Q387 412 362 433Q337 454 289 454Q246 454 206.5 438.5Q167 423 135 394V12Q135 6 132.5 3Q130 0 124 0H95Q89 0 86 3Q83 6 83 12V481Q83 487 86 490Q89 493 95 493Z" glyph-name="m" horiz-adv-x="824" unicode="m" /><glyph d="M81 646H338Q344 646 347 643Q350 640 350 634V616Q350 610 347 607Q344 604 338 604H81Q75 604 72 607Q69 610 69 616V634Q69 640 72 643Q75 646 81 646Z" glyph-name="macron" horiz-adv-x="419" unicode="&#175;" /><glyph d="M-12 820H245Q252 820 254.5 817.5Q257 815 257 809V791Q257 785 254 782Q251 779 245 779H-12Q-18 779 -21 782Q-24 785 -24 791V809Q-24 815 -21 817.5Q-18 820 -12 820Z" glyph-name="macron.case" horiz-adv-x="233" /><glyph d="M97 358H493Q499 358 502 355Q505 352 505 346V325Q505 319 502 316Q499 313 493 313H97Q91 313 88 316Q85 319 85 325V346Q85 353 87.5 355.5Q90 358 97 358Z" glyph-name="minus" horiz-adv-x="590" unicode="&#8722;" /><glyph d="M388 12 386 52Q350 22 307.5 7Q265 -8 218 -8Q188 -8 166 0.5Q144 9 130 25L133 -195Q133 -202 130.5 -205Q128 -208 121 -208H92Q86 -208 83.5 -205Q81 -202 81 -195V480Q81 487 83.5 490Q86 493 92 493H121Q127 493 130 490Q133 487 133 480V122Q133 81 158 60Q183 39 231 39Q273 39 312 54Q351 69 385 98V480Q385 487 387.5 490Q390 493 396 493H425Q431 493 434 490Q437 487 437 480V12Q437 6 434 3Q431 0 425 0H400Q393 0 390.5 2.5Q388 5 388 12Z" glyph-name="mu" horiz-adv-x="517" unicode="&#181;" /><glyph d="M352 185 229 307 107 185Q102 180 98.5 180Q95 180 90 185L75 200Q70 205 70 209Q70 213 75 217L198 339L75 462Q71 466 70.5 469.5Q70 473 74 477L89 493Q93 498 97 497.5Q101 497 106 492L229 370L352 494Q356 498 360 498Q364 498 369 493L383 478Q387 474 387 470Q387 466 383 462L260 339L382 217Q387 212 387 208Q387 204 382 199L368 185Q364 181 360.5 181Q357 181 352 185Z" glyph-name="multiply" horiz-adv-x="458" unicode="&#215;" /><glyph d="M95 493H120Q126 493 129 490.5Q132 488 132 481L134 439Q170 469 214.5 485Q259 501 308 501Q373 501 409 469.5Q445 438 445 381V12Q445 6 442.5 3Q440 0 434 0H405Q399 0 396 3Q393 6 393 12V371Q393 412 368 433Q343 454 295 454Q252 454 211.5 438.5Q171 423 135 394V12Q135 6 132.5 3Q130 0 124 0H95Q89 0 86 3Q83 6 83 12V481Q83 487 86 490Q89 493 95 493Z" glyph-name="n" horiz-adv-x="526" unicode="n" /><glyph d="M371 696 290 577Q288 574 284.5 572Q281 570 276 570H251Q245 570 243.5 573Q242 576 245 581L317 698Q320 703 324 705.5Q328 708 333 708H365Q371 708 373 704.5Q375 701 371 696ZM95 493H120Q126 493 129 490.5Q132 488 132 481L134 439Q170 469 214.5 485Q259 501 308 501Q373 501 409 469.5Q445 438 445 381V12Q445 6 442.5 3Q440 0 434 0H405Q399 0 396 3Q393 6 393 12V371Q393 412 368 433Q343 454 295 454Q252 454 211.5 438.5Q171 423 135 394V12Q135 6 132.5 3Q130 0 124 0H95Q89 0 86 3Q83 6 83 12V481Q83 487 86 490Q89 493 95 493Z" glyph-name="nacute" horiz-adv-x="526" unicode="&#324;" /><glyph d="M52 573Q75 622 78 637.5Q81 653 81 674V701Q81 707 84 710Q87 713 93 713H115Q121 713 124 710Q127 707 127 701V672Q127 645 118.5 618Q110 591 90 558Q87 553 83.5 551.5Q80 550 74 552L57 557Q52 559 50.5 563Q49 567 52 573ZM95 493H120Q126 493 129 490.5Q132 488 132 481L134 439Q170 469 214.5 485Q259 501 308 501Q373 501 409 469.5Q445 438 445 381V12Q445 6 442.5 3Q440 0 434 0H405Q399 0 396 3Q393 6 393 12V371Q393 412 368 433Q343 454 295 454Q252 454 211.5 438.5Q171 423 135 394V12Q135 6 132.5 3Q130 0 124 0H95Q89 0 86 3Q83 6 83 12V481Q83 487 86 490Q89 493 95 493Z" glyph-name="napostrophe" horiz-adv-x="526" unicode="&#329;" /><glyph d="M201 696 262 604 322 696Q326 702 330 705Q334 708 339 708H362Q368 708 370 704.5Q372 701 368 696L290 581Q286 576 281.5 573Q277 570 271 570H251Q246 570 241.5 573Q237 576 233 582L155 696Q152 701 153.5 704.5Q155 708 161 708H185Q189 708 193 705.5Q197 703 201 696ZM95 493H120Q126 493 129 490.5Q132 488 132 481L134 439Q170 469 214.5 485Q259 501 308 501Q373 501 409 469.5Q445 438 445 381V12Q445 6 442.5 3Q440 0 434 0H405Q399 0 396 3Q393 6 393 12V371Q393 412 368 433Q343 454 295 454Q252 454 211.5 438.5Q171 423 135 394V12Q135 6 132.5 3Q130 0 124 0H95Q89 0 86 3Q83 6 83 12V481Q83 487 86 490Q89 493 95 493Z" glyph-name="ncaron" horiz-adv-x="526" unicode="&#328;" /><glyph d="M213 -189Q236 -140 239 -124.5Q242 -109 242 -88V-61Q242 -55 245 -52Q248 -49 254 -49H276Q282 -49 285 -52Q288 -55 288 -61V-90Q288 -117 279.5 -144Q271 -171 251 -204Q248 -209 244.5 -210.5Q241 -212 235 -210L218 -205Q213 -203 211.5 -199Q210 -195 213 -189ZM95 493H120Q126 493 129 490.5Q132 488 132 481L134 439Q170 469 214.5 485Q259 501 308 501Q373 501 409 469.5Q445 438 445 381V12Q445 6 442.5 3Q440 0 434 0H405Q399 0 396 3Q393 6 393 12V371Q393 412 368 433Q343 454 295 454Q252 454 211.5 438.5Q171 423 135 394V12Q135 6 132.5 3Q130 0 124 0H95Q89 0 86 3Q83 6 83 12V481Q83 487 86 490Q89 493 95 493Z" glyph-name="ncommaaccent" horiz-adv-x="526" unicode="&#326;" /><glyph d="M267 688Q367 688 414.5 654Q462 620 462 547V127Q462 59 414 25.5Q366 -8 270 -8Q174 -8 126.5 25.5Q79 59 79 127V143Q79 149 81.5 152Q84 155 90 155H119Q125 155 127.5 152Q130 149 130 143V133Q130 84 164.5 60.5Q199 37 270 37Q341 37 375 60Q409 83 409 133V332Q393 305 356 291.5Q319 278 261 278Q164 278 117.5 312Q71 346 71 419V547Q71 621 119 654.5Q167 688 267 688ZM409 418V541Q409 596 375 619.5Q341 643 267 643Q192 643 157.5 619.5Q123 596 123 541V425Q123 370 157.5 346.5Q192 323 267 323Q340 323 374.5 345.5Q409 368 409 418Z" glyph-name="nine" horiz-adv-x="543" unicode="9" /><glyph d="M152 378Q210 378 238 358Q266 338 266 296V74Q266 36 237.5 16Q209 -4 153 -4Q97 -4 69 15.5Q41 35 41 74V82Q41 87 43.5 89Q46 91 50 91H75Q79 91 81 89Q83 87 83 82V77Q83 53 100.5 41Q118 29 153 29Q188 29 205.5 41.5Q223 54 223 79V178Q214 164 195.5 157.5Q177 151 147 151Q91 151 64 170Q37 189 37 229V296Q37 338 65 358Q93 378 152 378ZM152 345Q114 345 97 333Q80 321 80 293V237Q80 208 97 196Q114 184 152 184Q188 184 205.5 196Q223 208 223 233V293Q223 321 206 333Q189 345 152 345Z" glyph-name="nine.denominator" horiz-adv-x="307" unicode="&#63070;" /><glyph d="M152 228Q210 228 238 208Q266 188 266 146V-76Q266 -114 237.5 -134Q209 -154 153 -154Q97 -154 69 -134.5Q41 -115 41 -76V-68Q41 -63 43.5 -61Q46 -59 50 -59H75Q79 -59 81 -61Q83 -63 83 -68V-73Q83 -97 100.5 -109Q118 -121 153 -121Q188 -121 205.5 -108.5Q223 -96 223 -71V28Q214 14 195.5 7.5Q177 1 147 1Q91 1 64 20Q37 39 37 79V146Q37 188 65 208Q93 228 152 228ZM152 195Q114 195 97 183Q80 171 80 143V87Q80 58 97 46Q114 34 152 34Q188 34 205.5 46Q223 58 223 83V143Q223 171 206 183Q189 195 152 195Z" glyph-name="nine.inferior" horiz-adv-x="307" unicode="&#8329;" /><glyph d="M152 684Q210 684 238 664Q266 644 266 602V380Q266 342 237.5 322Q209 302 153 302Q97 302 69 321.5Q41 341 41 380V388Q41 393 43.5 395Q46 397 50 397H75Q79 397 81 395Q83 393 83 388V383Q83 359 100.5 347Q118 335 153 335Q188 335 205.5 347.5Q223 360 223 385V484Q214 470 195.5 463.5Q177 457 147 457Q91 457 64 476Q37 495 37 535V602Q37 644 65 664Q93 684 152 684ZM152 651Q114 651 97 639Q80 627 80 599V543Q80 514 97 502Q114 490 152 490Q188 490 205.5 502Q223 514 223 539V599Q223 627 206 639Q189 651 152 651Z" glyph-name="nine.numerator" horiz-adv-x="307" unicode="&#63082;" /><glyph d="M152 834Q210 834 238 814Q266 794 266 752V530Q266 492 237.5 472Q209 452 153 452Q97 452 69 471.5Q41 491 41 530V538Q41 543 43.5 545Q46 547 50 547H75Q79 547 81 545Q83 543 83 538V533Q83 509 100.5 497Q118 485 153 485Q188 485 205.5 497.5Q223 510 223 535V634Q214 620 195.5 613.5Q177 607 147 607Q91 607 64 626Q37 645 37 685V752Q37 794 65 814Q93 834 152 834ZM152 801Q114 801 97 789Q80 777 80 749V693Q80 664 97 652Q114 640 152 640Q188 640 205.5 652Q223 664 223 689V749Q223 777 206 789Q189 801 152 801Z" glyph-name="nine.superior" horiz-adv-x="307" unicode="&#8313;" /><glyph d="M263 688Q363 688 410.5 654Q458 620 458 547V127Q458 59 410 25.5Q362 -8 266 -8Q170 -8 122.5 25.5Q75 59 75 127V143Q75 149 77.5 152Q80 155 86 155H115Q121 155 123.5 152Q126 149 126 143V133Q126 84 160.5 60.5Q195 37 266 37Q337 37 371 60Q405 83 405 133V332Q389 305 352 291.5Q315 278 257 278Q160 278 113.5 312Q67 346 67 419V547Q67 621 115 654.5Q163 688 263 688ZM405 418V541Q405 596 371 619.5Q337 643 263 643Q188 643 153.5 619.5Q119 596 119 541V425Q119 370 153.5 346.5Q188 323 263 323Q336 323 370.5 345.5Q405 368 405 418Z" glyph-name="nine.tab" horiz-adv-x="536" unicode="&#65305;" /><glyph d="M274 226 246 154Q244 148 240 145Q236 142 230 142H203Q198 142 196 145.5Q194 149 196 154L224 226H93Q87 226 84 229Q81 232 81 238V259Q81 265 84 268Q87 271 93 271H242L291 397H93Q87 397 84 400Q81 403 81 409V430Q81 436 84 439Q87 442 93 442H309L337 514Q339 520 342.5 523Q346 526 352 526H379Q385 526 387 523Q389 520 387 514L359 442H490Q496 442 499 439Q502 436 502 430V409Q502 403 499 400Q496 397 490 397H341L292 271H490Q497 271 499.5 268.5Q502 266 502 259V238Q502 232 499 229Q496 226 490 226Z" glyph-name="notequal" horiz-adv-x="584" unicode="&#8800;" /><glyph d="M95 493H120Q126 493 129 490.5Q132 488 132 481L134 439Q170 469 214.5 485Q259 501 308 501Q373 501 409 469.5Q445 438 445 381V12Q445 6 442.5 3Q440 0 434 0H405Q399 0 396 3Q393 6 393 12V371Q393 412 368 433Q343 454 295 454Q252 454 211.5 438.5Q171 423 135 394V12Q135 6 132.5 3Q130 0 124 0H95Q89 0 86 3Q83 6 83 12V481Q83 487 86 490Q89 493 95 493ZM327 583Q314 583 300 588.5Q286 594 275 603L229 639Q218 648 209 652.5Q200 657 193 657Q175 657 168.5 646Q162 635 162 602V594Q162 588 159 585.5Q156 583 149 583H133Q127 583 124.5 585.5Q122 588 122 596V615Q122 655 139.5 676.5Q157 698 190 698Q203 698 216.5 693Q230 688 242 678L288 641Q298 633 307.5 628.5Q317 624 324 624Q342 624 348.5 635Q355 646 355 678V687Q355 693 358 695.5Q361 698 368 698H384Q390 698 392.5 695Q395 692 395 685V666Q395 626 377.5 604.5Q360 583 327 583Z" glyph-name="ntilde" horiz-adv-x="526" unicode="&#241;" /><glyph d="M65 270H150L183 389H105Q99 389 96 392Q93 395 93 401V417Q93 423 96 426Q99 429 105 429H194L222 530Q224 536 227.5 539Q231 542 237 542H259Q265 542 267.5 539Q270 536 268 530L240 429H400L429 530Q431 536 434.5 539Q438 542 443 542H465Q471 542 473.5 538.5Q476 535 474 530L445 429H513Q519 429 522 426Q525 423 525 417V401Q525 395 522 392Q519 389 513 389H434L401 270H473Q479 270 481.5 267.5Q484 265 484 258V242Q484 236 481.5 233Q479 230 473 230H390L363 131Q361 125 357.5 122Q354 119 348 119H325Q320 119 317.5 122.5Q315 126 317 131L345 230H184L156 131Q154 125 151 122Q148 119 142 119H120Q114 119 111.5 122Q109 125 111 131L139 230H65Q59 230 56 233Q53 236 53 242V258Q53 264 56 267Q59 270 65 270ZM389 389H228L195 270H355Z" glyph-name="numbersign" horiz-adv-x="575" unicode="#" /><glyph d="M254 -8Q164 -8 118.5 23Q73 54 73 115V377Q73 439 118.5 470Q164 501 254 501Q344 501 389.5 470Q435 439 435 377V115Q435 54 389.5 23Q344 -8 254 -8ZM254 36Q320 36 351.5 56Q383 76 383 119V374Q383 416 351 436.5Q319 457 254 457Q189 457 157 436.5Q125 416 125 374V119Q125 76 156.5 56Q188 36 254 36Z" glyph-name="o" horiz-adv-x="508" unicode="o" /><glyph d="M351 696 270 577Q268 574 264.5 572Q261 570 256 570H231Q225 570 223.5 573Q222 576 225 581L297 698Q300 703 304 705.5Q308 708 313 708H345Q351 708 353 704.5Q355 701 351 696ZM254 -8Q164 -8 118.5 23Q73 54 73 115V377Q73 439 118.5 470Q164 501 254 501Q344 501 389.5 470Q435 439 435 377V115Q435 54 389.5 23Q344 -8 254 -8ZM254 36Q320 36 351.5 56Q383 76 383 119V374Q383 416 351 436.5Q319 457 254 457Q189 457 157 436.5Q125 416 125 374V119Q125 76 156.5 56Q188 36 254 36Z" glyph-name="oacute" horiz-adv-x="508" unicode="&#243;" /><glyph d="M254 -8Q164 -8 118.5 23Q73 54 73 115V377Q73 439 118.5 470Q164 501 254 501Q344 501 389.5 470Q435 439 435 377V115Q435 54 389.5 23Q344 -8 254 -8ZM254 36Q320 36 351.5 56Q383 76 383 119V374Q383 416 351 436.5Q319 457 254 457Q189 457 157 436.5Q125 416 125 374V119Q125 76 156.5 56Q188 36 254 36ZM180 683V665Q180 625 197.5 608.5Q215 592 254 592Q292 592 309.5 608.5Q327 625 327 665V683Q327 689 329.5 691.5Q332 694 338 694H356Q362 694 364.5 691.5Q367 689 367 683V666Q367 610 339 583.5Q311 557 253 557Q195 557 167.5 583Q140 609 140 666V683Q140 689 142.5 691.5Q145 694 151 694H169Q175 694 177.5 691.5Q180 689 180 683Z" glyph-name="obreve" horiz-adv-x="508" unicode="&#335;" /><glyph d="M315 582 255 674 194 582Q190 575 186 572.5Q182 570 178 570H154Q148 570 146.5 573.5Q145 577 148 582L226 696Q230 702 234.5 705Q239 708 244 708H264Q270 708 274.5 705Q279 702 283 697L361 582Q365 577 363 573.5Q361 570 355 570H332Q327 570 323 573Q319 576 315 582ZM254 -8Q164 -8 118.5 23Q73 54 73 115V377Q73 439 118.5 470Q164 501 254 501Q344 501 389.5 470Q435 439 435 377V115Q435 54 389.5 23Q344 -8 254 -8ZM254 36Q320 36 351.5 56Q383 76 383 119V374Q383 416 351 436.5Q319 457 254 457Q189 457 157 436.5Q125 416 125 374V119Q125 76 156.5 56Q188 36 254 36Z" glyph-name="ocircumflex" horiz-adv-x="508" unicode="&#244;" /><glyph d="M221 690V592Q221 586 218 583Q215 580 209 580H191Q185 580 182 583Q179 586 179 592V690Q179 696 182 699Q185 702 191 702H209Q215 702 218 699Q221 696 221 690ZM319 690V592Q319 586 316 583Q313 580 307 580H289Q283 580 280 583Q277 586 277 592V690Q277 696 280 699Q283 702 289 702H307Q313 702 316 699Q319 696 319 690ZM254 -8Q164 -8 118.5 23Q73 54 73 115V377Q73 439 118.5 470Q164 501 254 501Q344 501 389.5 470Q435 439 435 377V115Q435 54 389.5 23Q344 -8 254 -8ZM254 36Q320 36 351.5 56Q383 76 383 119V374Q383 416 351 436.5Q319 457 254 457Q189 457 157 436.5Q125 416 125 374V119Q125 76 156.5 56Q188 36 254 36Z" glyph-name="odieresis" horiz-adv-x="508" unicode="&#246;" /><glyph d="M561 -8Q503 -8 464.5 5Q426 18 406 44Q387 18 349.5 5Q312 -8 254 -8Q164 -8 118.5 23Q73 54 73 115V378Q73 439 118.5 470Q164 501 254 501Q312 501 349.5 488Q387 475 406 449Q426 475 464.5 488Q503 501 561 501Q650 501 693.5 471Q737 441 737 378V255Q737 249 734.5 246.5Q732 244 726 244H434V117Q434 74 465 53.5Q496 33 561 33Q626 33 657 53.5Q688 74 688 117V139Q688 145 690.5 147.5Q693 150 700 150H724Q730 150 733 147.5Q736 145 736 139V115Q736 52 693 22Q650 -8 561 -8ZM561 460Q496 460 465 439.5Q434 419 434 376V282H688V376Q688 419 657 439.5Q626 460 561 460ZM254 35Q320 35 351.5 55.5Q383 76 383 119V374Q383 417 351.5 437.5Q320 458 254 458Q188 458 156.5 437.5Q125 417 125 374V119Q125 76 156.5 55.5Q188 35 254 35Z" glyph-name="oe" horiz-adv-x="805" unicode="&#339;" /><glyph d="M163 -149H132Q88 -149 64 -130Q40 -111 40 -76Q40 -49 58 -24Q76 1 110 20Q118 24 123 25Q128 26 133 24L147 19Q152 17 153 12Q154 7 148 5Q117 -8 99.5 -28Q82 -48 82 -69Q82 -90 97 -100.5Q112 -111 144 -111H163Q169 -111 172 -114Q175 -117 175 -123V-137Q175 -144 172.5 -146.5Q170 -149 163 -149Z" glyph-name="ogonek" horiz-adv-x="225" unicode="&#731;" /><glyph d="M254 -8Q164 -8 118.5 23Q73 54 73 115V377Q73 439 118.5 470Q164 501 254 501Q344 501 389.5 470Q435 439 435 377V115Q435 54 389.5 23Q344 -8 254 -8ZM254 36Q320 36 351.5 56Q383 76 383 119V374Q383 416 351 436.5Q319 457 254 457Q189 457 157 436.5Q125 416 125 374V119Q125 76 156.5 56Q188 36 254 36ZM227 577 146 696Q142 701 144 704.5Q146 708 152 708H184Q189 708 192.5 706Q196 704 200 698L272 581Q275 576 273.5 573Q272 570 267 570H242Q237 570 233.5 571.5Q230 573 227 577Z" glyph-name="ograve" horiz-adv-x="508" unicode="&#242;" /><glyph d="M394 696 314 580Q310 574 306.5 572Q303 570 298 570H276Q270 570 268 573.5Q266 577 270 582L343 696Q347 702 351.5 705Q356 708 362 708H388Q394 708 396 704.5Q398 701 394 696ZM291 696 227 582Q223 575 219.5 572.5Q216 570 211 570H189Q183 570 181 573.5Q179 577 182 582L240 696Q243 702 247.5 705Q252 708 257 708H283Q289 708 291.5 704.5Q294 701 291 696ZM254 -8Q164 -8 118.5 23Q73 54 73 115V377Q73 439 118.5 470Q164 501 254 501Q344 501 389.5 470Q435 439 435 377V115Q435 54 389.5 23Q344 -8 254 -8ZM254 36Q320 36 351.5 56Q383 76 383 119V374Q383 416 351 436.5Q319 457 254 457Q189 457 157 436.5Q125 416 125 374V119Q125 76 156.5 56Q188 36 254 36Z" glyph-name="ohungarumlaut" horiz-adv-x="508" unicode="&#337;" /><glyph d="M127 646H384Q390 646 393 643Q396 640 396 634V616Q396 610 393 607Q390 604 384 604H127Q121 604 118 607Q115 610 115 616V634Q115 640 118 643Q121 646 127 646ZM254 -8Q164 -8 118.5 23Q73 54 73 115V377Q73 439 118.5 470Q164 501 254 501Q344 501 389.5 470Q435 439 435 377V115Q435 54 389.5 23Q344 -8 254 -8ZM254 36Q320 36 351.5 56Q383 76 383 119V374Q383 416 351 436.5Q319 457 254 457Q189 457 157 436.5Q125 416 125 374V119Q125 76 156.5 56Q188 36 254 36Z" glyph-name="omacron" horiz-adv-x="508" unicode="&#333;" /><glyph d="M69 628 277 682Q282 683 285 680.5Q288 678 288 672V46H454Q460 46 463 43Q466 40 466 34V12Q466 6 463 3Q460 0 454 0H68Q62 0 59.5 2.5Q57 5 57 12V34Q57 41 59.5 43.5Q62 46 68 46H235V625L69 580Q64 579 61 581.5Q58 584 58 590V613Q58 619 60.5 623Q63 627 69 628Z" glyph-name="one" horiz-adv-x="494" unicode="1" /><glyph d="M54 348 174 374Q179 375 181 373.5Q183 372 183 367V36H270Q274 36 276 34Q278 32 278 28V8Q278 4 276.5 2Q275 0 270 0H53Q49 0 47 2Q45 4 45 8V28Q45 32 47 34Q49 36 53 36H140V332L54 311Q50 310 48 312Q46 314 46 318V337Q46 342 47.5 344.5Q49 347 54 348Z" glyph-name="one.denominator" horiz-adv-x="307" unicode="&#63062;" /><glyph d="M54 198 174 224Q179 225 181 223.5Q183 222 183 217V-114H270Q274 -114 276 -116Q278 -118 278 -122V-142Q278 -146 276.5 -148Q275 -150 270 -150H53Q49 -150 47 -148Q45 -146 45 -142V-122Q45 -118 47 -116Q49 -114 53 -114H140V182L54 161Q50 160 48 162Q46 164 46 168V187Q46 192 47.5 194.5Q49 197 54 198Z" glyph-name="one.inferior" horiz-adv-x="307" unicode="&#8321;" /><glyph d="M54 654 174 680Q179 681 181 679.5Q183 678 183 673V342H270Q274 342 276 340Q278 338 278 334V314Q278 310 276.5 308Q275 306 270 306H53Q49 306 47 308Q45 310 45 314V334Q45 338 47 340Q49 342 53 342H140V638L54 617Q50 616 48 618Q46 620 46 624V643Q46 648 47.5 650.5Q49 653 54 654Z" glyph-name="one.numerator" horiz-adv-x="307" unicode="&#63074;" /><glyph d="M92 628 300 682Q305 683 308 680.5Q311 678 311 672V46H477Q483 46 486 43Q489 40 489 34V12Q489 6 486 3Q483 0 477 0H91Q85 0 82.5 2.5Q80 5 80 12V34Q80 41 82.5 43.5Q85 46 91 46H258V625L92 580Q87 579 84 581.5Q81 584 81 590V613Q81 619 83.5 623Q86 627 92 628Z" glyph-name="one.tab" horiz-adv-x="536" unicode="&#65297;" /><glyph d="M498 104V36H673Q677 36 679 34Q681 32 681 28V8Q681 4 679.5 2Q678 0 673 0H462Q458 0 456 2Q454 4 454 8V108Q454 129 468 145Q482 161 506 168L601 197Q619 202 627.5 212Q636 222 636 236V292Q636 320 619 332Q602 344 564 344Q526 344 508.5 332Q491 320 491 292V267Q491 263 489 260.5Q487 258 483 258H457Q453 258 451.5 260Q450 262 450 267V296Q450 337 479 357.5Q508 378 566 378Q623 378 651 358Q679 338 679 296V234Q679 211 665 194Q651 177 627 169L532 139Q511 132 504.5 124.5Q498 117 498 104ZM65 654 185 680Q190 681 192 679.5Q194 678 194 673V342H281Q285 342 287 340Q289 338 289 334V314Q289 310 287.5 308Q286 306 281 306H64Q60 306 58 308Q56 310 56 314V334Q56 338 58 340Q60 342 64 342H151V638L65 617Q61 616 59 618Q57 620 57 624V643Q57 648 58.5 650.5Q60 653 65 654ZM555 676 247 4Q244 -2 240 -5Q236 -8 230 -8H207Q202 -8 200.5 -4Q199 0 201 4L510 676Q513 682 517 685Q521 688 527 688H549Q554 688 555.5 684.5Q557 681 555 676Z" glyph-name="onehalf" horiz-adv-x="737" unicode="&#189;" /><glyph d="M542 366 466 153H612V366Q612 371 614 372.5Q616 374 621 374H647Q651 374 653 372Q655 370 655 366V8Q655 4 653 2Q651 0 647 0H621Q616 0 614 1.5Q612 3 612 8V118H430Q425 118 423 120Q421 122 421 126V139Q421 142 421.5 144.5Q422 147 423 150L499 366Q501 370 503 372Q505 374 510 374H535Q540 374 541.5 372Q543 370 542 366ZM65 654 185 680Q190 681 192 679.5Q194 678 194 673V342H281Q285 342 287 340Q289 338 289 334V314Q289 310 287.5 308Q286 306 281 306H64Q60 306 58 308Q56 310 56 314V334Q56 338 58 340Q60 342 64 342H151V638L65 617Q61 616 59 618Q57 620 57 624V643Q57 648 58.5 650.5Q60 653 65 654ZM558 676 250 4Q247 -2 243 -5Q239 -8 233 -8H210Q205 -8 203.5 -4Q202 0 204 4L513 676Q516 682 520 685Q524 688 530 688H552Q557 688 558.5 684.5Q560 681 558 676Z" glyph-name="onequarter" horiz-adv-x="723" unicode="&#188;" /><glyph d="M54 804 174 830Q179 831 181 829.5Q183 828 183 823V492H270Q274 492 276 490Q278 488 278 484V464Q278 460 276.5 458Q275 456 270 456H53Q49 456 47 458Q45 460 45 464V484Q45 488 47 490Q49 492 53 492H140V788L54 767Q50 766 48 768Q46 770 46 774V793Q46 798 47.5 800.5Q49 803 54 804Z" glyph-name="onesuperior" horiz-adv-x="307" unicode="&#185;" /><glyph d="M72 603V613Q72 651 99 669.5Q126 688 181 688Q236 688 263 669Q290 650 290 612V396Q290 392 288 389.5Q286 387 281 387H259Q254 387 252.5 388.5Q251 390 250 396L248 417Q228 400 202.5 391Q177 382 149 382Q109 382 87.5 400.5Q66 419 66 453V483Q66 515 87 534Q108 553 145 553H247V611Q247 634 230.5 645Q214 656 180 656Q146 656 129.5 645Q113 634 113 612V603Q113 599 111 596.5Q109 594 105 594H81Q76 594 74 596Q72 598 72 603ZM161 415Q184 415 206 423.5Q228 432 247 448V524H153Q133 524 121 512Q109 500 109 480V458Q109 437 122 426Q135 415 161 415Z" glyph-name="ordfeminine" horiz-adv-x="367" unicode="&#170;" /><glyph d="M185 382Q127 382 98.5 401Q70 420 70 459V611Q70 649 99 668.5Q128 688 185 688Q241 688 270 668.5Q299 649 299 611V459Q299 421 270.5 401.5Q242 382 185 382ZM185 416Q220 416 237.5 427.5Q255 439 255 463V608Q255 631 238 642Q221 653 185 653Q149 653 131.5 642Q114 631 114 608V463Q114 440 132 428Q150 416 185 416Z" glyph-name="ordmasculine" horiz-adv-x="369" unicode="&#186;" /><glyph d="M125 374V119Q125 106 127.5 95Q130 84 136 76L341 442Q326 450 304.5 453.5Q283 457 254 457Q189 457 157 436.5Q125 416 125 374ZM254 36Q320 36 351.5 56Q383 76 383 119V374Q383 388 380 398.5Q377 409 371 417L167 50Q183 43 204.5 39.5Q226 36 254 36ZM110 -30H92Q86 -30 84.5 -25.5Q83 -21 87 -13L110 29Q92 44 82.5 65.5Q73 87 73 115V377Q73 439 118.5 470Q164 501 254 501Q287 501 314.5 497Q342 493 364 484L377 508Q383 519 387 522Q391 525 397 525H416Q423 525 424.5 520.5Q426 516 422 508L398 464Q416 448 425.5 426.5Q435 405 435 377V115Q435 54 389.5 23Q344 -8 254 -8Q221 -8 193.5 -4Q166 0 144 9L132 -13Q126 -24 121.5 -27Q117 -30 110 -30Z" glyph-name="oslash" horiz-adv-x="508" unicode="&#248;" /><glyph d="M125 374V119Q125 106 127.5 95Q130 84 136 76L341 442Q326 450 304.5 453.5Q283 457 254 457Q189 457 157 436.5Q125 416 125 374ZM254 36Q320 36 351.5 56Q383 76 383 119V374Q383 388 380 398.5Q377 409 371 417L167 50Q183 43 204.5 39.5Q226 36 254 36ZM110 -30H92Q86 -30 84.5 -25.5Q83 -21 87 -13L110 29Q92 44 82.5 65.5Q73 87 73 115V377Q73 439 118.5 470Q164 501 254 501Q287 501 314.5 497Q342 493 364 484L377 508Q383 519 387 522Q391 525 397 525H416Q423 525 424.5 520.5Q426 516 422 508L398 464Q416 448 425.5 426.5Q435 405 435 377V115Q435 54 389.5 23Q344 -8 254 -8Q221 -8 193.5 -4Q166 0 144 9L132 -13Q126 -24 121.5 -27Q117 -30 110 -30ZM361 696 280 577Q278 574 274.5 572Q271 570 266 570H241Q235 570 233.5 573Q232 576 235 581L307 698Q310 703 314 705.5Q318 708 323 708H355Q361 708 363 704.5Q365 701 361 696Z" glyph-name="oslashacute" horiz-adv-x="508" unicode="&#511;" /><glyph d="M254 -8Q164 -8 118.5 23Q73 54 73 115V377Q73 439 118.5 470Q164 501 254 501Q344 501 389.5 470Q435 439 435 377V115Q435 54 389.5 23Q344 -8 254 -8ZM254 36Q320 36 351.5 56Q383 76 383 119V374Q383 416 351 436.5Q319 457 254 457Q189 457 157 436.5Q125 416 125 374V119Q125 76 156.5 56Q188 36 254 36ZM323 580Q310 580 296 585.5Q282 591 271 600L225 636Q214 645 205 649.5Q196 654 189 654Q171 654 164.5 643Q158 632 158 599V591Q158 585 155 582.5Q152 580 145 580H129Q123 580 120.5 582.5Q118 585 118 593V612Q118 652 135.5 673.5Q153 695 186 695Q199 695 212.5 690Q226 685 238 675L284 638Q294 630 303.5 625.5Q313 621 320 621Q338 621 344.5 632Q351 643 351 675V684Q351 690 354 692.5Q357 695 364 695H380Q386 695 388.5 692Q391 689 391 682V663Q391 623 373.5 601.5Q356 580 323 580Z" glyph-name="otilde" horiz-adv-x="508" unicode="&#245;" /><glyph d="M95 493H120Q126 493 129 490Q132 487 132 480L134 439Q173 470 216.5 485.5Q260 501 308 501Q374 501 409.5 469Q445 437 445 378V115Q445 56 409.5 24Q374 -8 308 -8Q260 -8 216 7.5Q172 23 135 52V-196Q135 -202 132.5 -205Q130 -208 124 -208H95Q89 -208 86 -205Q83 -202 83 -196V480Q83 487 86 490Q89 493 95 493ZM295 39Q342 39 367.5 61Q393 83 393 122V371Q393 410 367.5 431.5Q342 453 295 453Q252 453 211.5 437.5Q171 422 135 393V98Q178 66 216.5 52.5Q255 39 295 39Z" glyph-name="p" horiz-adv-x="519" unicode="p" /><glyph d="M342 669V-195Q342 -202 339.5 -205Q337 -208 331 -208H301Q295 -208 292 -205Q289 -202 289 -195V282H238Q139 282 92 313.5Q45 345 45 413V549Q45 617 92 648.5Q139 680 238 680H331Q337 680 339.5 677.5Q342 675 342 669ZM485 668V-195Q485 -202 482 -205Q479 -208 473 -208H443Q437 -208 434 -205Q431 -202 431 -195V668Q431 674 434 677Q437 680 443 680H473Q479 680 482 677Q485 674 485 668Z" glyph-name="paragraph" horiz-adv-x="571" unicode="&#182;" /><glyph d="M80 -95V585Q80 647 124.5 677.5Q169 708 259 708H265Q271 708 274 705Q277 702 277 696V675Q277 669 274 666Q271 663 265 663H259Q195 663 164.5 643Q134 623 134 580V-90Q134 -133 164.5 -153Q195 -173 259 -173H265Q271 -173 274 -176Q277 -179 277 -185V-206Q277 -212 274 -215Q271 -218 265 -218H259Q169 -218 124.5 -187.5Q80 -157 80 -95Z" glyph-name="parenleft" horiz-adv-x="305" unicode="(" /><glyph d="M52 5V372Q52 408 78.5 425.5Q105 443 158 443H162Q167 443 169 441Q171 439 171 435V418Q171 414 169 411.5Q167 409 162 409H158Q125 409 110 399.5Q95 390 95 368V9Q95 -13 110 -22.5Q125 -32 158 -32H162Q167 -32 169 -34.5Q171 -37 171 -41V-58Q171 -63 169 -65Q167 -67 162 -67H158Q105 -67 78.5 -49Q52 -31 52 5Z" glyph-name="parenleft.denominator" horiz-adv-x="201" unicode="&#63020;" /><glyph d="M52 -145V222Q52 258 78.5 275.5Q105 293 158 293H162Q167 293 169 291Q171 289 171 285V268Q171 264 169 261.5Q167 259 162 259H158Q125 259 110 249.5Q95 240 95 218V-141Q95 -163 110 -172.5Q125 -182 158 -182H162Q167 -182 169 -184.5Q171 -187 171 -191V-208Q171 -213 169 -215Q167 -217 162 -217H158Q105 -217 78.5 -199Q52 -181 52 -145Z" glyph-name="parenleft.inferior" horiz-adv-x="201" unicode="&#8333;" /><glyph d="M51 311V678Q51 714 77.5 731.5Q104 749 157 749H161Q166 749 168 747Q170 745 170 741V724Q170 720 168 717.5Q166 715 161 715H157Q124 715 109 705.5Q94 696 94 674V315Q94 293 109 283.5Q124 274 157 274H161Q166 274 168 271.5Q170 269 170 265V248Q170 243 168 241Q166 239 161 239H157Q104 239 77.5 257Q51 275 51 311Z" glyph-name="parenleft.numerator" horiz-adv-x="199" unicode="&#63025;" /><glyph d="M52 461V828Q52 864 78.5 881.5Q105 899 158 899H162Q167 899 169 897Q171 895 171 891V874Q171 870 169 867.5Q167 865 162 865H158Q125 865 110 855.5Q95 846 95 824V465Q95 443 110 433.5Q125 424 158 424H162Q167 424 169 421.5Q171 419 171 415V398Q171 393 169 391Q167 389 162 389H158Q105 389 78.5 407Q52 425 52 461Z" glyph-name="parenleft.superior" horiz-adv-x="201" unicode="&#8317;" /><glyph d="M224 585V-95Q224 -157 179.5 -187.5Q135 -218 45 -218H40Q33 -218 30.5 -215.5Q28 -213 28 -206V-185Q28 -179 31 -176Q34 -173 40 -173H45Q109 -173 139.5 -153Q170 -133 170 -90V580Q170 623 139.5 643Q109 663 45 663H40Q34 663 31 666Q28 669 28 675V696Q28 703 30.5 705.5Q33 708 40 708H45Q135 708 179.5 677.5Q224 647 224 585Z" glyph-name="parenright" horiz-adv-x="304" unicode=")" /><glyph d="M106 9V368Q106 390 91 399.5Q76 409 43 409H39Q35 409 32.5 411.5Q30 414 30 418V435Q30 439 32.5 441Q35 443 39 443H43Q96 443 122.5 425.5Q149 408 149 372V5Q149 -31 122.5 -49Q96 -67 43 -67H39Q35 -67 32.5 -64.5Q30 -62 30 -58V-41Q30 -37 32.5 -34.5Q35 -32 39 -32H43Q76 -32 91 -22.5Q106 -13 106 9Z" glyph-name="parenright.denominator" horiz-adv-x="200" unicode="&#63021;" /><glyph d="M106 -141V218Q106 240 91 249.5Q76 259 43 259H39Q35 259 32.5 261.5Q30 264 30 268V285Q30 289 32.5 291Q35 293 39 293H43Q96 293 122.5 275.5Q149 258 149 222V-145Q149 -181 122.5 -199Q96 -217 43 -217H39Q35 -217 32.5 -214.5Q30 -212 30 -208V-191Q30 -187 32.5 -184.5Q35 -182 39 -182H43Q76 -182 91 -172.5Q106 -163 106 -141Z" glyph-name="parenright.inferior" horiz-adv-x="200" unicode="&#8334;" /><glyph d="M105 315V674Q105 696 90 705.5Q75 715 42 715H38Q34 715 31.5 717.5Q29 720 29 724V741Q29 745 31.5 747Q34 749 38 749H42Q95 749 121.5 731.5Q148 714 148 678V311Q148 275 121.5 257Q95 239 42 239H38Q34 239 31.5 241.5Q29 244 29 248V265Q29 269 31.5 271.5Q34 274 38 274H42Q75 274 90 283.5Q105 293 105 315Z" glyph-name="parenright.numerator" horiz-adv-x="199" unicode="&#63026;" /><glyph d="M106 465V824Q106 846 91 855.5Q76 865 43 865H39Q35 865 32.5 867.5Q30 870 30 874V891Q30 895 32.5 897Q35 899 39 899H43Q96 899 122.5 881.5Q149 864 149 828V461Q149 425 122.5 407Q96 389 43 389H39Q35 389 32.5 391.5Q30 394 30 398V415Q30 419 32.5 421.5Q35 424 39 424H43Q76 424 91 433.5Q106 443 106 465Z" glyph-name="parenright.superior" horiz-adv-x="200" unicode="&#8318;" /><glyph d="M87 197V434Q87 444 97 446.5Q107 449 118 442L297 331Q306 325 306 316Q306 307 297 301L118 190Q107 183 97 184.5Q87 186 87 197Z" glyph-name="partialdiff" horiz-adv-x="373" unicode="&#8706;" /><glyph d="M545 -4Q486 -4 457 16.5Q428 37 428 79V269Q428 310 457.5 330.5Q487 351 545 351Q603 351 632 330.5Q661 310 661 269V79Q661 37 632.5 16.5Q604 -4 545 -4ZM545 32Q583 32 600.5 44.5Q618 57 618 85V263Q618 291 600.5 303Q583 315 545 315Q506 315 488.5 303Q471 291 471 263V85Q471 57 488.5 44.5Q506 32 545 32ZM174 329Q116 329 87 349.5Q58 370 58 411V601Q58 643 87 663.5Q116 684 174 684Q233 684 262 663.5Q291 643 291 601V411Q291 370 262 349.5Q233 329 174 329ZM174 365Q212 365 230 377.5Q248 390 248 417V595Q248 623 230.5 635.5Q213 648 174 648Q135 648 117.5 635.5Q100 623 100 595V417Q100 390 118 377.5Q136 365 174 365ZM534 676 226 4Q223 -2 219 -5Q215 -8 209 -8H186Q181 -8 179.5 -4Q178 0 180 4L489 676Q492 682 496 685Q500 688 506 688H528Q533 688 534.5 684.5Q536 681 534 676Z" glyph-name="percent" horiz-adv-x="719" unicode="%" /><glyph d="M126 89V12Q126 5 123.5 2.5Q121 0 115 0H85Q79 0 76 3Q73 6 73 12V89Q73 95 76 98Q79 101 85 101H115Q121 101 123.5 98Q126 95 126 89Z" glyph-name="period" horiz-adv-x="200" unicode="." /><glyph d="M92 52V9Q92 4 90.5 2Q89 0 84 0H59Q54 0 52 2Q50 4 50 9V52Q50 56 52 58Q54 60 59 60H84Q89 60 90.5 58.5Q92 57 92 52Z" glyph-name="period.denominator" horiz-adv-x="143" unicode="&#63072;" /><glyph d="M91 358V315Q91 310 89.5 308Q88 306 83 306H58Q53 306 51 308Q49 310 49 315V358Q49 362 51 364Q53 366 58 366H83Q88 366 89.5 364.5Q91 363 91 358Z" glyph-name="period.numerator" horiz-adv-x="140" unicode="&#63084;" /><glyph d="M131 300V223Q131 216 128.5 213.5Q126 211 120 211H90Q84 211 81 214Q78 217 78 223V300Q78 306 81 309Q84 312 90 312H120Q126 312 128.5 309Q131 306 131 300Z" glyph-name="periodcentered" horiz-adv-x="210" unicode="&#183;" /><glyph d="M545 -4Q486 -4 457 16.5Q428 37 428 79V269Q428 310 457.5 330.5Q487 351 545 351Q603 351 632 330.5Q661 310 661 269V79Q661 37 632.5 16.5Q604 -4 545 -4ZM545 32Q583 32 600.5 44.5Q618 57 618 85V263Q618 291 600.5 303Q583 315 545 315Q506 315 488.5 303Q471 291 471 263V85Q471 57 488.5 44.5Q506 32 545 32ZM174 329Q116 329 87 349.5Q58 370 58 411V601Q58 643 87 663.5Q116 684 174 684Q233 684 262 663.5Q291 643 291 601V411Q291 370 262 349.5Q233 329 174 329ZM174 365Q212 365 230 377.5Q248 390 248 417V595Q248 623 230.5 635.5Q213 648 174 648Q135 648 117.5 635.5Q100 623 100 595V417Q100 390 118 377.5Q136 365 174 365ZM843 -4Q784 -4 755 16.5Q726 37 726 79V269Q726 310 755 330.5Q784 351 843 351Q901 351 930 330.5Q959 310 959 269V79Q959 37 930 16.5Q901 -4 843 -4ZM843 32Q881 32 898.5 44.5Q916 57 916 85V263Q916 291 898.5 303Q881 315 843 315Q804 315 786.5 303Q769 291 769 263V85Q769 56 786.5 44Q804 32 843 32ZM534 676 226 4Q223 -2 219 -5Q215 -8 209 -8H186Q181 -8 179.5 -4Q178 0 180 4L489 676Q492 682 496 685Q500 688 506 688H528Q533 688 534.5 684.5Q536 681 534 676Z" glyph-name="perthousand" horiz-adv-x="1015" unicode="&#8240;" /><glyph d="M61 427H298Q308 427 310.5 417Q313 407 306 396L195 217Q189 208 180 208Q171 208 165 217L54 396Q47 407 49 417Q51 427 61 427Z" glyph-name="pi" horiz-adv-x="360" unicode="&#960;" /><glyph d="M234 144V317H62Q55 317 52.5 319.5Q50 322 50 328V350Q50 356 53 359Q56 362 62 362H234V535Q234 541 237 544Q240 547 246 547H266Q272 547 275 544Q278 541 278 535V362H453Q459 362 462 359Q465 356 465 350V328Q465 322 462 319.5Q459 317 453 317H278V144Q278 137 275.5 134.5Q273 132 266 132H246Q240 132 237 135Q234 138 234 144Z" glyph-name="plus" horiz-adv-x="515" unicode="+" /><glyph d="M268 227V358H96Q89 358 86.5 360.5Q84 363 84 370V391Q84 397 86.5 399.5Q89 402 96 402H268V533Q268 539 270.5 542Q273 545 279 545H300Q306 545 309 542Q312 539 312 533V402H487Q493 402 495.5 399.5Q498 397 498 391V370Q498 363 495.5 360.5Q493 358 487 358H312V227Q312 220 309 217Q306 214 300 214H279Q273 214 270.5 217Q268 220 268 227ZM96 153H487Q493 153 495.5 150.5Q498 148 498 141V120Q498 114 495.5 111Q493 108 487 108H96Q90 108 87 111Q84 114 84 120V141Q84 148 86.5 150.5Q89 153 96 153Z" glyph-name="plusminus" horiz-adv-x="583" unicode="&#177;" /><glyph d="M306 205H68Q58 205 56 214.5Q54 224 61 235L171 415Q176 424 186 423.5Q196 423 201 415L312 235Q319 224 317.5 214.5Q316 205 306 205Z" glyph-name="product" horiz-adv-x="373" unicode="&#8719;" /><glyph d="M211 501Q258 501 302 485.5Q346 470 385 439L387 480Q387 487 390 490Q393 493 399 493H424Q430 493 433 490Q436 487 436 480V-196Q436 -202 433 -205Q430 -208 424 -208H395Q389 -208 386.5 -205Q384 -202 384 -196V52Q345 22 301.5 7Q258 -8 211 -8Q145 -8 109.5 24Q74 56 74 115V378Q74 437 109.5 469Q145 501 211 501ZM224 453Q177 453 151.5 431.5Q126 410 126 371V122Q126 83 151.5 61Q177 39 224 39Q264 39 303 53Q342 67 384 98V393Q349 422 308 437.5Q267 453 224 453Z" glyph-name="q" horiz-adv-x="519" unicode="q" /><glyph d="M212 169V250Q212 282 228.5 306Q245 330 279 347L343 379Q368 392 382.5 413Q397 434 397 461V540Q397 593 360.5 618Q324 643 247 643Q171 643 134.5 618.5Q98 594 98 540V491Q98 484 95 481Q92 478 86 478H58Q52 478 49 481Q46 484 46 491V547Q46 619 96 653.5Q146 688 247 688Q349 688 399.5 653Q450 618 450 547V463Q450 422 429.5 390.5Q409 359 370 340L317 314Q291 301 278 282Q265 263 265 239V169Q265 162 262.5 159.5Q260 157 254 157H224Q218 157 215 160Q212 163 212 169ZM265 89V12Q265 5 262.5 2.5Q260 0 254 0H224Q218 0 215 3Q212 6 212 12V89Q212 95 215 98Q218 101 224 101H254Q260 101 262.5 98Q265 95 265 89Z" glyph-name="question" horiz-adv-x="502" unicode="?" /><glyph d="M287 324V243Q287 211 270.5 187Q254 163 220 146L156 114Q131 101 116.5 80Q102 59 102 32V-47Q102 -100 138.5 -125Q175 -150 252 -150Q328 -150 364.5 -125.5Q401 -101 401 -47V2Q401 9 404 12Q407 15 413 15H441Q447 15 450 12Q453 9 453 2V-54Q453 -126 403 -160.5Q353 -195 252 -195Q150 -195 99.5 -160Q49 -125 49 -54V30Q49 71 69.5 102.5Q90 134 129 153L182 179Q208 192 221 211Q234 230 234 254V324Q234 331 236.5 333.5Q239 336 245 336H275Q281 336 284 333Q287 330 287 324ZM234 404V481Q234 488 236.5 490.5Q239 493 245 493H275Q281 493 284 490Q287 487 287 481V404Q287 398 284 395Q281 392 275 392H245Q239 392 236.5 395Q234 398 234 404Z" glyph-name="questiondown" horiz-adv-x="495" unicode="&#191;" /></font>
</defs>
</svg>
