<svg xmlns="http://www.w3.org/2000/svg" width="16" height="16" focusable="false" viewBox="0 0 16 16">
  <path fill="none" stroke="currentColor" d="M13.17 3.07l-1.64.71c-.48-.4-1.03-.72-1.63-.94l-.22-1.79a.511.511 0 00-.4-.44C8.86.54 8.44.5 8 .5c-.44 0-.86.04-1.28.11-.22.04-.38.22-.4.44l-.21 1.79c-.6.22-1.15.54-1.63.94l-1.65-.71a.491.491 0 00-.58.13c-.55.65-.99 1.4-1.29 2.21-.08.21 0 .44.18.58l1.45 1.08a4.91 4.91 0 000 1.87l-1.45 1.08c-.18.13-.25.37-.18.58.3.81.74 1.55 1.28 2.2.14.17.38.22.58.13l1.65-.71c.48.4 1.03.72 1.63.94l.21 1.79c.03.22.19.4.4.44.43.07.85.11 1.29.11.44 0 .86-.04 1.28-.11.22-.04.38-.22.4-.44l.21-1.79c.6-.22 1.15-.54 1.63-.94l1.65.71c.2.09.44.04.58-.13.54-.65.98-1.39 1.28-2.2.08-.21 0-.44-.18-.57L13.4 8.95c.07-.32.1-.63.1-.95s-.03-.63-.09-.94l1.45-1.08c.18-.13.25-.37.18-.58-.3-.81-.74-1.55-1.28-2.2a.51.51 0 00-.59-.13z"/>
  <circle cx="8" cy="8" r="2.5" fill="none" stroke="currentColor"/>
</svg>
