<?xml version="1.0" encoding="iso-8859-1"?>
<!-- Generator: Adobe Illustrator 19.0.0, SVG Export Plug-In . SVG Version: 6.00 Build 0)  -->
<svg version="1.1" id="Capa_1" xmlns="http://www.w3.org/2000/svg" xmlns:xlink="http://www.w3.org/1999/xlink" x="0px" y="0px"
	 viewBox="0 0 512 512" style="enable-background:new 0 0 512 512;" xml:space="preserve">
<g>
	<g>
		<path d="M256,0C114.844,0,0,114.844,0,256s114.844,256,256,256s256-114.844,256-256S397.156,0,256,0z M298.667,416
			c0,5.896-4.771,10.667-10.667,10.667h-64c-5.896,0-10.667-4.771-10.667-10.667V256h-10.667c-5.896,0-10.667-4.771-10.667-10.667
			v-42.667c0-5.896,4.771-10.667,10.667-10.667H288c5.896,0,10.667,4.771,10.667,10.667V416z M256,170.667
			c-23.531,0-42.667-19.135-42.667-42.667S232.469,85.333,256,85.333s42.667,19.135,42.667,42.667S279.531,170.667,256,170.667z"/>
	</g>
</g>
<g>
</g>
<g>
</g>
<g>
</g>
<g>
</g>
<g>
</g>
<g>
</g>
<g>
</g>
<g>
</g>
<g>
</g>
<g>
</g>
<g>
</g>
<g>
</g>
<g>
</g>
<g>
</g>
<g>
</g>
</svg>
