<?xml version="1.0" encoding="UTF-8"?>
<svg xmlns="http://www.w3.org/2000/svg" xmlns:xlink="http://www.w3.org/1999/xlink" width="24pt" height="24pt" viewBox="0 0 24 24" version="1.1">
<g id="surface1">
<path style=" stroke:none;fill-rule:nonzero;fill:rgb(0%,0%,0%);fill-opacity:1;" d="M 18.246094 1.921875 C 18.035156 1.917969 17.847656 2.050781 17.78125 2.25 L 15.394531 9.601562 L 8.605469 9.601562 L 6.21875 2.25 C 6.152344 2.058594 5.976562 1.925781 5.769531 1.921875 C 5.566406 1.917969 5.382812 2.039062 5.308594 2.230469 L 2.433594 9.90625 C 2.433594 9.90625 2.433594 9.910156 2.429688 9.910156 L 0.988281 13.75 C 0.914062 13.953125 0.984375 14.179688 1.160156 14.308594 L 11.714844 21.984375 L 11.71875 21.988281 C 11.71875 21.988281 11.71875 21.988281 11.71875 21.992188 L 11.738281 22 C 11.746094 22.003906 11.75 22.011719 11.757812 22.015625 C 11.761719 22.015625 11.761719 22.015625 11.761719 22.015625 C 11.761719 22.015625 11.765625 22.019531 11.765625 22.019531 C 11.769531 22.019531 11.769531 22.023438 11.773438 22.023438 L 11.78125 22.027344 C 11.789062 22.03125 11.800781 22.039062 11.8125 22.039062 L 11.8125 22.042969 L 11.84375 22.054688 C 11.847656 22.054688 11.847656 22.054688 11.847656 22.054688 C 11.855469 22.058594 11.863281 22.058594 11.871094 22.0625 C 11.875 22.0625 11.878906 22.066406 11.886719 22.066406 C 11.894531 22.070312 11.90625 22.070312 11.914062 22.074219 L 11.949219 22.078125 C 11.96875 22.078125 11.992188 22.078125 12.007812 22.078125 C 12.027344 22.078125 12.046875 22.078125 12.0625 22.074219 C 12.070312 22.074219 12.074219 22.074219 12.082031 22.074219 L 12.085938 22.074219 C 12.089844 22.070312 12.089844 22.070312 12.097656 22.070312 C 12.097656 22.070312 12.097656 22.070312 12.101562 22.070312 C 12.105469 22.066406 12.113281 22.066406 12.117188 22.066406 C 12.121094 22.0625 12.128906 22.0625 12.136719 22.058594 C 12.140625 22.058594 12.140625 22.058594 12.140625 22.058594 L 12.148438 22.058594 C 12.164062 22.050781 12.179688 22.046875 12.199219 22.035156 C 12.203125 22.035156 12.203125 22.035156 12.207031 22.03125 L 12.21875 22.027344 C 12.226562 22.023438 12.238281 22.015625 12.246094 22.011719 C 12.25 22.007812 12.253906 22.007812 12.253906 22.003906 C 12.257812 22.003906 12.257812 22.003906 12.261719 22.003906 C 12.269531 21.996094 12.277344 21.992188 12.28125 21.988281 L 12.285156 21.984375 L 22.84375 14.308594 C 23.015625 14.179688 23.085938 13.953125 23.007812 13.75 L 21.574219 9.925781 C 21.570312 9.921875 21.570312 9.914062 21.570312 9.910156 L 18.691406 2.230469 C 18.621094 2.046875 18.445312 1.921875 18.246094 1.921875 Z M 3.871094 10.558594 L 7.90625 10.558594 L 10.71875 19.207031 Z M 16.09375 10.558594 L 20.128906 10.558594 L 13.28125 19.207031 Z M 3.03125 11.042969 L 9.449219 19.152344 L 2.019531 13.746094 Z M 20.96875 11.042969 L 21.984375 13.746094 L 14.550781 19.152344 Z M 20.96875 11.042969 "/>
</g>
</svg>
