<?xml version="1.0" encoding="utf-8"?>
<!-- Generator: Adobe Illustrator 23.0.6, SVG Export Plug-In . SVG Version: 6.00 Build 0)  -->
<svg version="1.1" id="Layer_1" xmlns="http://www.w3.org/2000/svg" xmlns:xlink="http://www.w3.org/1999/xlink" x="0px" y="0px"
	 width="1024px" height="1024px" viewBox="0 0 1024 1024" style="enable-background:new 0 0 1024 1024;" xml:space="preserve">
<style type="text/css">
	.st0{fill:#F65850;}
</style>
<path class="st0" d="M682.9,982c81.3-219-28.6-448.9-148.5-525.5c-4-2.5-9.2,0.1-9.4,4.8c-4,97.7-19.2,191.7-71.4,275
	c-3.3,5.3-11.6,2.7-11.2-3.5c2.6-48.7,2.8-96.2-13.9-139.4c-1.9-4.8-8.5-5.3-11-0.7c-30.7,56.4-60.3,113.5-93.1,168.7
	c-37.8,63.7-37.1,129-16.4,196.6c2.8,9.3,6.4,18.3,10.7,29.4c2.1,5.4-3.8,10.4-8.8,7.4c-69-41.5-130.8-82.9-173.3-146.9
	C75.2,755.6,86.1,659,123.7,561.9c27-69.6,54.4-138.9,83.2-212.5c2.1-5.3,9.7-5.1,11.4,0.3c12.4,37.9,25,76.6,38.2,117.2
	c1.5,4.6,7.5,5.7,10.5,2c49.4-61,89.8-129.3,112.3-205.7c22.8-77.2,37-156.9,55-237.4c0.9-4.2,5.8-6.1,9.3-3.7
	c128.8,87,232.6,197.6,263.6,363.7c1.3,7,11.5,6.4,12-0.7c3.3-46.7,6.7-93.5,10-139.7c0.3-4.8,5.9-7.2,9.7-4.2
	c2,1.7,4.2,3.6,6.2,5.6c68.3,69.5,123.4,149.1,154.9,240.7c62,180.3,19.3,334.5-149.7,461.7c-18.9,14.2-38.8,27-58.5,40
	C687,992.4,680.9,987.5,682.9,982z"/>
</svg>
