<svg xmlns="http://www.w3.org/2000/svg" height="18" viewBox="0 0 18 18" width="18">
  <defs>
    <style>
      .a {
        fill: #6E6E6E;
      }
    </style>
  </defs>
  <title>S Education 18 N</title>
  <rect id="Canvas" fill="#ff13dc" opacity="0" width="18" height="18" /><path class="a" d="M8.6645,12.0095a.75.75,0,0,0,.671,0L15,9.177V11.25C15,12.907,12.314,15,9,15a9.60434,9.60434,0,0,1-5-2V9.7575Z" />
  <path class="a" d="M17.329,5.94,9.3355,1.9435a.75.75,0,0,0-.671,0L.6735,5.939a.3765.3765,0,0,0,0,.672l1.376.7L2.009,13.936a8.019,8.019,0,0,1-.29,2.0865L1.5,16.805c-.0975.466.1075.9035.5835.9035H2.906c.473,0,.6875-.4325.594-.896l-.212-.7685A8.00581,8.00581,0,0,1,3,13.917V8L8.1635,6.0025A.94351.94351,0,0,1,9,5.611c.4955,0,.897.2635.897.589s-.4.589-.897.589c-.0255,0-.047-.008-.072-.0095l-4.65,1.81L8.6635,10.61a.75.75,0,0,0,.6685,0l7.995-3.9975a.375.375,0,0,0,.002-.6725Z" />
</svg>