<svg id="Layer_1" data-name="Layer 1" xmlns="http://www.w3.org/2000/svg" viewBox="0 0 250 102"><defs><style>.cls-1{fill:#231916;}</style></defs><title>logo_web-250x52Artboard 1</title><path class="cls-1" d="M39.35,34.88A13.56,13.56,0,0,0,25.79,48.44V62h5.42V48.44h0a8.14,8.14,0,1,1,16.27,0h0V62h5.42V48.44A13.56,13.56,0,0,0,39.35,34.88Z"/><path class="cls-1" d="M76,35.84v1.78a13.56,13.56,0,1,0,0,21.66v2.64h5.42V35.84ZM67.91,56.58A8.14,8.14,0,1,1,76,48.44,8.14,8.14,0,0,1,67.91,56.58Z"/><path class="cls-1" d="M97.58,34.88A13.56,13.56,0,0,0,84,48.44v27h5.42V59.27a13.55,13.55,0,1,0,8.14-24.39Zm0,21.69a8.14,8.14,0,1,1,8.14-8.14A8.14,8.14,0,0,1,97.58,56.58Z"/><path class="cls-1" d="M182.44,35.84v4.49a13.56,13.56,0,1,0,0,16.22v5.36h2.71V35.84ZM171.59,59.29a10.85,10.85,0,1,1,10.85-10.85A10.85,10.85,0,0,1,171.59,59.29Z"/><path class="cls-1" d="M156,45.56a10.84,10.84,0,0,0-20.33-5.08,10.84,10.84,0,0,0-20.33,5.08h0V61.91H118V45.73a8.14,8.14,0,1,1,16.27,0V61.91H137V45.73a8.14,8.14,0,1,1,16.27,0V61.91H156V45.56Z"/><path class="cls-1" d="M231.76,50.11A10.84,10.84,0,0,1,212.41,55l14.39-8.31L231,44.24l2.37-1.37q-.28-.61-.62-1.21a13.56,13.56,0,1,0,1.81,6.81ZM215.62,39a10.85,10.85,0,0,1,14.06,2.84L211.05,52.65A10.85,10.85,0,0,1,215.62,39Z"/><polygon class="cls-1" points="208.95 34.9 205.12 34.9 191.61 48.41 191.61 21.34 188.9 21.34 188.9 62.02 191.61 62.02 191.61 52.24 193.55 50.3 205.17 61.91 209 61.91 195.47 48.38 208.95 34.9"/><path class="cls-1" d="M236.44,48.44V62h2.71V48.46h0v0A10.85,10.85,0,0,1,250,37.59V34.88A13.56,13.56,0,0,0,236.44,48.44Z"/><path class="cls-1" d="M11.84,45.65c-3.56-.56-5.74-1.54-5.74-3S8.67,40.2,12,40.2c.73,0,1.77,0,2.34.07a33.72,33.72,0,0,1,4.12.62c1.62.46,2.49.78,2.49.78s1.6-3.6,2-4.6a13.7,13.7,0,0,0-3.17-1.27,25.47,25.47,0,0,0-4.38-.88c-.92-.12-3.37-.17-3.37-.17C5.3,34.74,0,38.44,0,43S4,50,12,51.13h0c4.5.58,6,1.22,6,2.69s-2.48,2.56-5.59,2.71c-.44,0-2.14,0-3-.08a29.3,29.3,0,0,1-4.17-.58c-1.62-.46-3-1-3-1s-1.58,3.65-2,4.65A28.09,28.09,0,0,0,4.16,61a21.27,21.27,0,0,0,4.29.81c.92.08,3.32.17,3.32.17,6.84,0,12.38-3.66,12.38-8.18S20.92,46.75,11.84,45.65Z"/></svg>