<svg xmlns="http://www.w3.org/2000/svg" width="150" height="115" viewBox="0 0 150 115">
  <defs>
    <style>
      .fill {
        fill: #b3b3b3;
      }
    </style>
  </defs>
    <title>S_IlluFAQ_150x115</title>
    <path class="fill" d="M43.247,54.938a.938.938,0,0,0,0-1.876H31a.938.938,0,1,0,0,1.876Z"/>
    <path class="fill" d="M44.62,44.062H31a.938.938,0,1,0,0,1.876H44.62a.938.938,0,1,0,0-1.876Z"/>
    <path class="fill" d="M44,61.515H27.515a2.961,2.961,0,0,1-3.015-2.9V16.4A2.96,2.96,0,0,1,27.515,13.5H52.358a3.1,3.1,0,0,1,2.15.866l7.661,7.483a1.5,1.5,0,1,0,2.1-2.147L56.6,12.219A6.119,6.119,0,0,0,52.358,10.5H27.515A5.962,5.962,0,0,0,21.5,16.4V58.62a5.962,5.962,0,0,0,6.015,5.9H44a1.5,1.5,0,0,0,0-3Z"/>
    <path class="fill" d="M85,30.233a1,1,0,0,0-1,1v30.6A5.257,5.257,0,0,1,78.667,67H60.57a1,1,0,1,0,0,2h18.1A7.259,7.259,0,0,0,86,61.835v-30.6A1,1,0,0,0,85,30.233Z"/>
    <path class="fill" d="M103.844,72.193a2.372,2.372,0,0,0-3.249-.088l-1.468-1.468a1,1,0,1,0-1.414,1.414l1.458,1.458-2.583,2.583L95.13,74.634a1,1,0,0,0-1.414,1.414l1.46,1.46a2.376,2.376,0,0,0,.017,3.336l22.865,22.864a6.116,6.116,0,1,0,8.65-8.65Zm20.743,29.394h0a3.191,3.191,0,0,1-4.408,0L97.757,79.166l4.409-4.409,22.421,22.422A3.121,3.121,0,0,1,124.587,101.587Z"/>
    <path class="fill" d="M103.943,51.631A28.222,28.222,0,1,0,75.722,79.852,28.253,28.253,0,0,0,103.943,51.631ZM75.722,76.852a25.222,25.222,0,1,1,25.221-25.221A25.25,25.25,0,0,1,75.722,76.852Z"/>
    <path class="fill" d="M102.016,78.513a1,1,0,1,0-1.414,1.414l10.509,10.511a1,1,0,1,0,1.414-1.415Z"/>
    <path class="fill" d="M67.767,59.445a1.541,1.541,0,1,0,1.541,1.541A1.541,1.541,0,0,0,67.767,59.445Z"/>
    <path class="fill" d="M60.731,39.758a1.023,1.023,0,0,0,1.291-.648,6,6,0,0,1,5.5-3.62,5.633,5.633,0,0,1,5.932,5.969c0,2.649-2.244,4.685-3.585,5.9l-1.555,1.408a3.924,3.924,0,0,0-1.409,3.382V54.2a1.021,1.021,0,0,0,1.021,1.021h0a1.021,1.021,0,0,0,1.018-1.025V52.145a1.935,1.935,0,0,1,.737-1.868l1.555-1.4c1.487-1.349,4.256-3.86,4.256-7.414a7.646,7.646,0,0,0-7.975-8.011,8.042,8.042,0,0,0-7.43,4.987l-.01.028A1.022,1.022,0,0,0,60.731,39.758Z"/>
</svg>
