<svg xmlns="http://www.w3.org/2000/svg" width="96" height="96" viewBox="0 0 96 96">
  <defs>
    <style>
      .fill {
        fill: #6e6e6e;
      }
    </style>
  </defs>
    <title>S_IlluSolutionPartners_96</title>
    <path class="fill" d="M83,47H57a2.061,2.061,0,0,0-2,2.111v17.61c0,9.4,8.306,14.87,14.553,18.168A.955.955,0,0,0,70,85h0a.955.955,0,0,0,.447-.111C76.694,81.591,85,76.121,85,66.721V49.111A2.061,2.061,0,0,0,83,47ZM82,66.721c0,3.621-1.268,9.07-12,15-5.414-2.972-12-7.661-12-15V50H82Z"/>
    <path class="fill" d="M67.455,69.753a1.5,1.5,0,0,0,1.06.439l.081,0a1.5,1.5,0,0,0,1.088-.558l8.647-10.757A1.5,1.5,0,0,0,75.993,57l-7.6,9.453-4.5-4.493a1.5,1.5,0,1,0-2.121,2.121Z"/>
    <path class="fill" d="M52.091,45.281a20.7,20.7,0,0,0-4.94-1.095.4.4,0,0,1-.342-.417l0-2.713a.471.471,0,0,1,.144-.306,16.07,16.07,0,0,0,3.654-10,13.234,13.234,0,0,0-2.861-8.9,9.963,9.963,0,0,0-7.739-3.291h-.021a10.062,10.062,0,0,0-7.777,3.321,13.13,13.13,0,0,0-2.942,8.88,16.24,16.24,0,0,0,3.823,10.011.4.4,0,0,1,.1.226l-.005,2.759a.382.382,0,0,1-.275.384C20.3,45.22,18.933,54.235,18.792,56.624A26.953,26.953,0,0,1,37.645,13.105a26.961,26.961,0,0,1,29.23,29.448,1.5,1.5,0,0,0,2.987.291A30,30,0,1,0,40.1,69.985q1.187,0,2.388-.093a1.3,1.3,0,0,0,.152-.007A30.182,30.182,0,0,0,51.1,67.836a1.5,1.5,0,1,0-1.12-2.783A27.153,27.153,0,0,1,42.5,66.886c-.038,0-.077,0-.116.005a27.123,27.123,0,0,1-20.549-7.005v-.009c-.018-.263-.057-2.4-.057-2.775,0-1.5.564-9.045,11.455-9.976a3.377,3.377,0,0,0,2.959-3.388l0-2.765a3.364,3.364,0,0,0-.834-2.163,13.175,13.175,0,0,1-3.089-8.084,10.173,10.173,0,0,1,2.187-6.852,7.144,7.144,0,0,1,5.533-2.311h.016a7.05,7.05,0,0,1,5.487,2.268,10.314,10.314,0,0,1,2.117,6.9,13.012,13.012,0,0,1-2.926,8.059,3.426,3.426,0,0,0-.871,2.227l0,2.726a3.412,3.412,0,0,0,2.985,3.419,17.934,17.934,0,0,1,4.274.938,1.5,1.5,0,0,0,1.023-2.821Z"/>
</svg>
