<svg xmlns="http://www.w3.org/2000/svg" width="150" height="115" viewBox="0 0 150 115">
  <defs>
    <style>
      .fill {
        fill: #b3b3b3;
      }
    </style>
  </defs>
    <title>S_IlluTroubleshooting_150x115</title>
    <path class="fill" d="M103.974,61a1.5,1.5,0,1,0-2.121,2.121l28.961,28.963a2.341,2.341,0,0,1,0,3.309l-6.426,6.424a2.4,2.4,0,0,1-3.307,0L94.945,75.679A1.5,1.5,0,0,0,92.824,77.8l26.136,26.137a5.34,5.34,0,0,0,7.55,0l6.426-6.425a5.34,5.34,0,0,0,0-7.552Z"/>
    <path class="fill" d="M46.124,55.278a3.2,3.2,0,0,0,4.519,0l3.61-3.611a3.6,3.6,0,0,0,.725-3.951L57,45.765a4.914,4.914,0,0,0,5.668-.9l.956-.956,7.8,7.8a1.5,1.5,0,1,0,2.121-2.121l-8.864-8.864a1.544,1.544,0,0,0-2.122,0L60.547,42.74a1.9,1.9,0,0,1-2.656.018,1.5,1.5,0,0,0-2.088-.006L52.1,46.327a1.516,1.516,0,0,0-.177,1.956c.006.008.6.876.212,1.263l-3.61,3.61a.194.194,0,0,1-.277,0l-9.569-9.571a.184.184,0,0,1-.057-.136.188.188,0,0,1,.057-.138l3.611-3.61c.15-.15.5-.5,1.111.086a1.688,1.688,0,0,0,1.079.449,1.5,1.5,0,0,0,1.074-.462l3.516-3.663a1.5,1.5,0,0,0-.043-2.12l-.783-.752a1.892,1.892,0,0,1-.005-2.678L60.066,18.73c5.064-5.063,11.957-5.8,16.851-5.523A31.3,31.3,0,0,1,87.765,15.73c-.414.019-.843.03-1.223.041-3.286.087-7.786.208-10.61,3.032-1,1-5.534,6.089-5.726,6.305a1.5,1.5,0,0,0,.059,2.058l1.591,1.591a1.893,1.893,0,0,1,0,2.674l-1.314,1.315a1.5,1.5,0,0,0,0,2.121l12.6,12.6a1.5,1.5,0,0,0,2.121-2.121l-11.54-11.54.254-.254a4.9,4.9,0,0,0,0-6.917l-.589-.589c1.7-1.9,4.039-4.5,4.664-5.123,1.979-1.978,5.633-2.076,8.57-2.154,2.765-.075,5.152-.139,5.565-2.2.34-1.7-1.708-2.795-2.479-3.207a33.606,33.606,0,0,0-14.141-3.2c-5.041-.068-12.182,1.009-17.623,6.449L46.115,28.44a4.89,4.89,0,0,0-.236,6.662l-1.634,1.7a3.679,3.679,0,0,0-1.512-.345,3.552,3.552,0,0,0-2.567,1.122l-3.61,3.609a3.193,3.193,0,0,0,0,4.518Z"/>
    <path class="fill" d="M93.58,70.154a4.32,4.32,0,0,0,0-6.111l-1.932-1.931,25.594-25.594a3.747,3.747,0,0,0,1.71.3,4.514,4.514,0,0,0,3.227-1.753l6.01-7.513a1.5,1.5,0,0,0-.111-2L121.1,18.573a1.5,1.5,0,0,0-2-.111l-7.514,6.011a4.509,4.509,0,0,0-1.752,3.227,3.765,3.765,0,0,0,.3,1.709L84.54,55l-1.932-1.932a4.32,4.32,0,0,0-6.111,0l-1,1a4.33,4.33,0,0,0-.87,4.861L71.69,61.868a5.576,5.576,0,0,1-2.171,1.342l-2.51.836a10.006,10.006,0,0,0-3.894,2.408L57.059,72.51a1.5,1.5,0,1,0,2.121,2.121l6.056-6.056a7,7,0,0,1,2.722-1.683l2.509-.836a8.6,8.6,0,0,0,3.344-2.066l3.81-3.81a1.5,1.5,0,0,0,0-2.121,1.324,1.324,0,0,1,0-1.869l1-1a1.355,1.355,0,0,1,1.869,0L91.459,66.165a1.321,1.321,0,0,1,0,1.868l-1,1a1.322,1.322,0,0,1-1.868,0,1.5,1.5,0,0,0-2.121,0L82.661,72.84A8.6,8.6,0,0,0,80.6,76.184l-.837,2.509a7.013,7.013,0,0,1-1.682,2.723L66.5,92.99a1.5,1.5,0,1,0,2.121,2.121L80.2,83.537a10.015,10.015,0,0,0,2.407-3.9l.836-2.51a5.6,5.6,0,0,1,1.342-2.171l2.939-2.939a4.328,4.328,0,0,0,4.861-.87ZM89.527,59.99l-2.866-2.866,26.455-26.455a1.5,1.5,0,0,0,0-2.121.866.866,0,0,1-.288-.682,1.551,1.551,0,0,1,.631-1.051l6.465-5.171,5.084,5.083-5.172,6.465a1.553,1.553,0,0,1-1.05.632.872.872,0,0,1-.682-.289,1.5,1.5,0,0,0-2.122,0Z"/>
    <path class="fill" d="M45.237,62.452a4.891,4.891,0,0,0-8.474,0L16.16,98.163A4.892,4.892,0,0,0,20.4,105.5H61.6a4.892,4.892,0,0,0,4.236-7.337Zm18,39.1a1.857,1.857,0,0,1-1.637.945H20.4a1.892,1.892,0,0,1-1.638-2.837l20.6-35.712a1.89,1.89,0,0,1,3.276,0l20.6,35.712A1.858,1.858,0,0,1,63.241,101.555Z"/>
    <path class="fill" d="M41,89.026a1.5,1.5,0,0,0,1.5-1.5v-9.82a1.5,1.5,0,0,0-3,0v9.82A1.5,1.5,0,0,0,41,89.026Z"/>
    <path class="fill" d="M41,92.361a1.77,1.77,0,1,0,1.77,1.77A1.771,1.771,0,0,0,41,92.361Z"/>
</svg>
