<svg xmlns="http://www.w3.org/2000/svg" width="150" height="115" viewBox="0 0 150 115">
  <defs>
    <style>
      .fill {
        fill: #b3b3b3;
      }
    </style>
  </defs>
    <title>S_IlluBestPractices_150x115</title>
    <path class="fill" d="M78.24,16.809A21.465,21.465,0,1,0,99.705,38.274,21.489,21.489,0,0,0,78.24,16.809Zm0,40.93A19.465,19.465,0,1,1,97.705,38.274,19.487,19.487,0,0,1,78.24,57.739Z"/>
    <path class="fill" d="M78.24,9a29.274,29.274,0,1,0,29.275,29.274A29.307,29.307,0,0,0,78.24,9Zm0,55.548a26.274,26.274,0,1,1,26.275-26.274A26.3,26.3,0,0,1,78.24,64.548Z"/>
    <path class="fill" d="M96.916,67.583a1.5,1.5,0,0,0-2.852.935l8.687,26.5-8.713-2.871a1.5,1.5,0,0,0-1.745.635l-4.764,7.694L82.6,86.924a1.5,1.5,0,0,0-2.819,1.027l5.993,16.462a1.5,1.5,0,0,0,1.255.98c.051,0,.1.007.154.007a1.5,1.5,0,0,0,1.275-.711l5.769-9.318L104.631,98.8a1.5,1.5,0,0,0,1.895-1.892Z"/>
    <path class="fill" d="M81.12,74.728a1.5,1.5,0,0,0-1.963.805L68.539,100.917l-4-7.934a1.493,1.493,0,0,0-1.684-.785L53.9,94.306,64.639,68.629a1.5,1.5,0,0,0-2.768-1.157L50,95.861A1.5,1.5,0,0,0,51.724,97.9l10.669-2.51,4.933,9.787a1.5,1.5,0,0,0,1.34.824h.053a1.5,1.5,0,0,0,1.331-.92L81.925,76.69A1.5,1.5,0,0,0,81.12,74.728Z"/>
    <path class="fill" d="M29.505,58.419a1,1,0,0,0-1,1v5.555a1,1,0,0,0,2,0V59.419A1,1,0,0,0,29.505,58.419Z"/>
    <path class="fill" d="M29.505,69.529a1,1,0,0,0-1,1v5.554a1,1,0,0,0,2,0V70.529A1,1,0,0,0,29.505,69.529Z"/>
    <path class="fill" d="M26.728,66.751H21.173a1,1,0,0,0,0,2h5.555a1,1,0,1,0,0-2Z"/>
    <path class="fill" d="M37.837,66.751H32.282a1,1,0,1,0,0,2h5.555a1,1,0,0,0,0-2Z"/>
    <path class="fill" d="M25.836,65.773a1,1,0,1,0,1.414-1.414l-1.667-1.666a1,1,0,1,0-1.414,1.414Z"/>
    <path class="fill" d="M32.805,69.914a1,1,0,0,0-1.414,1.414L33.057,73a1,1,0,1,0,1.414-1.414Z"/>
    <path class="fill" d="M25.836,69.914l-1.667,1.667A1,1,0,1,0,25.583,73l1.667-1.667a1,1,0,0,0-1.414-1.414Z"/>
    <path class="fill" d="M32.1,66.066a1,1,0,0,0,.707-.293l1.666-1.666a1,1,0,0,0-1.414-1.414l-1.666,1.666a1,1,0,0,0,.707,1.707Z"/>
    <path class="fill" d="M117.272,62.271h-1.851a1,1,0,0,0,0,2h1.851a1,1,0,0,0,0-2Z"/>
    <path class="fill" d="M122.827,62.271h-1.851a1,1,0,0,0,0,2h1.851a1,1,0,0,0,0-2Z"/>
    <path class="fill" d="M119.124,64.122a1,1,0,0,0-1,1v1.852a1,1,0,1,0,2,0V65.122A1,1,0,0,0,119.124,64.122Z"/>
    <path class="fill" d="M119.124,62.419a1,1,0,0,0,1-1V59.567a1,1,0,0,0-2,0v1.852A1,1,0,0,0,119.124,62.419Z"/>
    <path class="fill" d="M40.208,16.906H38.356a1,1,0,0,0,0,2h1.852a1,1,0,0,0,0-2Z"/>
    <path class="fill" d="M45.763,16.906H43.911a1,1,0,0,0,0,2h1.852a1,1,0,0,0,0-2Z"/>
    <path class="fill" d="M42.06,18.758a1,1,0,0,0-1,1v1.851a1,1,0,0,0,2,0V19.758A1,1,0,0,0,42.06,18.758Z"/>
    <path class="fill" d="M42.06,17.055a1,1,0,0,0,1-1V14.2a1,1,0,0,0-2,0v1.852A1,1,0,0,0,42.06,17.055Z"/>
    <path class="fill" d="M90.685,33.108l-7.369-.665L80.479,25.7A2.429,2.429,0,0,0,76,25.7l-2.837,6.74-7.368.665a2.429,2.429,0,0,0-1.349,4.275l5.58,4.716L68.32,49.342a2.429,2.429,0,0,0,3.647,2.621l6.273-3.9,6.275,3.9a2.428,2.428,0,0,0,3.645-2.62L86.453,42.1l5.579-4.715a2.429,2.429,0,0,0-1.347-4.276ZM83.814,40.4a1.5,1.5,0,0,0-.492,1.49l1.6,6.8-5.892-3.66a1.5,1.5,0,0,0-1.583,0l-5.89,3.66,1.6-6.8a1.5,1.5,0,0,0-.492-1.49l-5.239-4.427,6.9-.623a1.5,1.5,0,0,0,1.248-.913l2.66-6.321,2.66,6.321a1.5,1.5,0,0,0,1.248.913l6.906.623Z"/>
</svg>
