<svg preserveAspectRatio="none" width="100%" height="100%" overflow="visible" style="display: block;" viewBox="0 0 24 24" fill="none" xmlns="http://www.w3.org/2000/svg">
<g id="tabler:help-filled">
<path id="Vector" d="M17 3.34C18.1465 3.99182 19.1527 4.86398 19.9607 5.90626C20.7687 6.94854 21.3626 8.14035 21.7081 9.41308C22.0536 10.6858 22.144 12.0143 21.974 13.3221C21.804 14.6299 21.377 15.8912 20.7176 17.0333C20.0582 18.1754 19.1794 19.1758 18.1318 19.9769C17.0842 20.7779 15.8885 21.3639 14.6135 21.701C13.3385 22.0381 12.0094 22.1196 10.7027 21.941C9.39611 21.7623 8.13771 21.327 7 20.66C4.72193 19.3245 3.06458 17.1421 2.38962 14.5892C1.71466 12.0362 2.07689 9.31993 3.39725 7.03306C4.71762 4.74618 6.88893 3.07439 9.43736 2.38251C11.9858 1.69063 14.7044 2.03483 17 3.34ZM12 16C11.7551 16 11.5187 16.09 11.3356 16.2527C11.1526 16.4155 11.0357 16.6397 11.007 16.883L11 17.01C11.0003 17.2649 11.0979 17.51 11.2728 17.6954C11.4478 17.8807 11.687 17.9922 11.9414 18.0072C12.1958 18.0221 12.4464 17.9393 12.6418 17.7757C12.8373 17.6121 12.9629 17.3801 12.993 17.127L13 17C13 16.7348 12.8946 16.4804 12.7071 16.2929C12.5196 16.1054 12.2652 16 12 16ZM13.173 6.144C12.4631 5.91583 11.6998 5.91374 10.9887 6.13801C10.2775 6.36228 9.65358 6.80185 9.203 7.396C9.04782 7.59858 8.97596 7.85282 9.00213 8.10665C9.0283 8.36049 9.15052 8.59472 9.34376 8.76138C9.537 8.92804 9.78665 9.01451 10.0416 9.0031C10.2965 8.99169 10.5374 8.88326 10.715 8.7L10.797 8.604C10.9467 8.40681 11.1402 8.24707 11.3622 8.13735C11.5841 8.02762 11.8285 7.9709 12.0761 7.97166C12.3237 7.97242 12.5678 8.03063 12.789 8.14171C13.0103 8.2528 13.2028 8.41372 13.3513 8.61182C13.4999 8.80992 13.6004 9.03979 13.645 9.28333C13.6896 9.52688 13.6771 9.77746 13.6085 10.0153C13.5398 10.2532 13.4169 10.4719 13.2493 10.6543C13.0818 10.8366 12.8742 10.9775 12.643 11.066C12.1374 11.2483 11.7043 11.5894 11.4085 12.0382C11.1127 12.487 10.9701 13.0194 11.002 13.556C11.0176 13.8098 11.1292 14.0481 11.3143 14.2225C11.4993 14.3969 11.7438 14.4943 11.9981 14.4948C12.2524 14.4953 12.4973 14.3989 12.6831 14.2253C12.8688 14.0516 12.9814 13.8137 12.998 13.56V13.443C12.9928 13.3488 13.0144 13.2551 13.0602 13.1726C13.106 13.0901 13.1743 13.0223 13.257 12.977L13.332 12.943C14.0338 12.679 14.636 12.2031 15.055 11.5813C15.474 10.9594 15.6889 10.2226 15.67 9.473C15.6496 8.72788 15.3985 8.00745 14.9512 7.41116C14.504 6.81486 13.8826 6.3721 13.173 6.144Z" fill="var(--fill-0, #2C8DC7)"/>
</g>
</svg>
