<svg xmlns="http://www.w3.org/2000/svg" width="150" height="115" viewBox="0 0 150 115">
  <defs>
    <style>
      .fill {
        fill: #b3b3b3;
      }
    </style>
  </defs>
    <title>S_IlluHowTo_150x115</title>
    <path class="fill" d="M91.4,65.836a1.5,1.5,0,0,0-2.11.213A24.632,24.632,0,0,0,83.78,81.6V91.98a2.2,2.2,0,0,1-.5,1.4l-6.02,7.327a2.17,2.17,0,0,1-1.682.8H70.234a2.17,2.17,0,0,1-1.682-.8l-6.027-7.334a2.189,2.189,0,0,1-.494-1.382V81.509H74.164a1.5,1.5,0,0,0,0-3H62.031V74.962a5.8,5.8,0,0,0-1.278-3.626c-1.174-1.46-2.3-2.839-3.378-4.155C49.346,57.364,44.5,51.438,44.5,41.388a29.07,29.07,0,0,1,8.666-20.914A26.965,26.965,0,0,1,72.675,12.6a1.783,1.783,0,0,0,.358-.038l.258-.059a27.148,27.148,0,0,1,19.732,8.258,1.5,1.5,0,1,0,2.144-2.1A30.094,30.094,0,0,0,73.086,9.5a1.518,1.518,0,0,0-.308.038l-.237.053h-.325a30,30,0,0,0-21.154,8.741A32.048,32.048,0,0,0,41.5,41.388c0,11.121,5.392,17.713,13.553,27.692,1.071,1.31,2.194,2.682,3.362,4.135a2.8,2.8,0,0,1,.616,1.747V91.989a5.186,5.186,0,0,0,1.177,3.286l6.026,7.334a5.155,5.155,0,0,0,4,1.891h5.343a5.155,5.155,0,0,0,4-1.891l6.02-7.326a5.213,5.213,0,0,0,1.183-3.3V81.6a21.631,21.631,0,0,1,4.828-13.656A1.5,1.5,0,0,0,91.4,65.836Z"/>
    <path class="fill" d="M77.787,50a1.5,1.5,0,0,0,2.91.727l1.427-5.708a4.122,4.122,0,0,0-4-5.123H64.948a4.122,4.122,0,0,0-3.911,5.426l7.816,23.451a1.5,1.5,0,1,0,2.845-.949l-7.815-23.45a1.122,1.122,0,0,1,1.065-1.478H78.124a1.122,1.122,0,0,1,1.089,1.4Z"/>
    <path class="fill" d="M122.86,38a1.5,1.5,0,0,0-1.124,1.8c1.982,8.572-2.058,16.75-9.824,19.887a16.545,16.545,0,0,1-21.427-9.1c-1.814-4.492-1.772-17.039,9.1-21.43A16.419,16.419,0,0,1,115.277,31a1.5,1.5,0,1,0,1.733-2.448,19.4,19.4,0,0,0-18.55-2.179A18.273,18.273,0,0,0,87.384,38.967,21.686,21.686,0,0,0,87.7,51.708,19.323,19.323,0,0,0,98.155,62.3a19.569,19.569,0,0,0,7.658,1.574,19.242,19.242,0,0,0,7.223-1.41c9.165-3.7,13.945-13.3,11.623-23.343A1.5,1.5,0,0,0,122.86,38Z"/>
    <path class="fill" d="M124.939,27.154l-21.3,21.3-6.065-6.065a1.5,1.5,0,0,0-2.121,2.121l7.125,7.126a1.5,1.5,0,0,0,2.121,0l22.36-22.363a1.5,1.5,0,0,0-2.122-2.121Z"/>
</svg>
