<svg xmlns="http://www.w3.org/2000/svg" width="150" height="115" viewBox="0 0 150 115">
  <defs>
    <style>
      .fill {
        fill: #b3b3b3;
      }
    </style>
  </defs>
    <title>S_IlluAnnouncements_150x115</title>
    <path class="fill" d="M101.279,19.493a3.731,3.731,0,0,0-4.052.628c-9.884,8.794-27.557,13.657-36,13.657a1.5,1.5,0,0,0,0,3c9.134,0,27.418-5.01,37.99-14.416a.752.752,0,0,1,.83-.132.74.74,0,0,1,.449.7V77.07a.764.764,0,0,1-1.279.568c-10.572-9.406-28.856-14.416-37.99-14.416a1.5,1.5,0,0,0,0,3c8.439,0,26.112,4.863,36,13.657a3.74,3.74,0,0,0,2.5.965,3.788,3.788,0,0,0,1.553-.337A3.722,3.722,0,0,0,103.5,77.07V22.93A3.722,3.722,0,0,0,101.279,19.493Z"/>
    <path class="fill" d="M56,33.493H25.4a9.908,9.908,0,0,0-9.9,9.9V56.6a9.908,9.908,0,0,0,9.9,9.9h3.181l4.591,24.143A4.731,4.731,0,0,0,37.817,94.5h3.94A3.747,3.747,0,0,0,45.5,90.757V66.5H56A1.5,1.5,0,0,0,57.5,65V34.993A1.5,1.5,0,0,0,56,33.493ZM42.5,90.757a.743.743,0,0,1-.743.743h-3.94a1.73,1.73,0,0,1-1.7-1.414L31.632,66.5H42.5ZM54.5,63.5H25.4a6.9,6.9,0,0,1-6.9-6.9V43.39a6.9,6.9,0,0,1,6.9-6.9H54.5Z"/>
    <path class="fill" d="M27,45H38.324a1,1,0,0,0,0-2H27a1,1,0,0,0,0,2Z"/>
    <path class="fill" d="M27,52H38.324a1,1,0,0,0,0-2H27a1,1,0,0,0,0,2Z"/>
    <path class="fill" d="M52.9,67.939a1,1,0,0,0-1.212.728L50.105,75H47.98a1,1,0,1,0,0,2h2.907a1,1,0,0,0,.969-.757l1.773-7.091A1,1,0,0,0,52.9,67.939Z"/>
    <path class="fill" d="M134,47.5H120.961a1.5,1.5,0,0,0,0,3H134a1.5,1.5,0,0,0,0-3Z"/>
    <path class="fill" d="M112.9,35.549a1.492,1.492,0,0,0,1-.379l9.1-8.1A1.5,1.5,0,0,0,121,24.83l-9.1,8.1a1.5,1.5,0,0,0,1,2.62Z"/>
    <path class="fill" d="M114.021,63.454a1.5,1.5,0,1,0-2.24,1.994l8.1,9.1a1.5,1.5,0,1,0,2.24-1.994Z"/>
</svg>
