<svg preserveAspectRatio="none" width="100%" height="100%" overflow="visible" style="display: block;" viewBox="0 0 20 20.4597" fill="none" xmlns="http://www.w3.org/2000/svg">
<path id="Solid" fill-rule="evenodd" clip-rule="evenodd" d="M14.2413 4.11941e-07H5.75871C4.95375 -1.19578e-05 4.28938 -2.21655e-05 3.74818 0.0441949C3.18609 0.0901201 2.66938 0.188684 2.18405 0.435975C1.4314 0.819469 0.819477 1.43139 0.435983 2.18404C0.188692 2.66937 0.0901279 3.18608 0.0442027 3.74818C-1.46255e-05 4.28937 -4.13693e-06 4.95373 8.61847e-06 5.7587L4.56535e-06 18.371C-4.07342e-05 18.6062 -8.69874e-05 18.846 0.0177625 19.0425C0.0348344 19.2305 0.0800364 19.5852 0.327695 19.8955C0.612677 20.2525 1.04482 20.4602 1.50163 20.4597C1.89861 20.4593 2.20385 20.273 2.36128 20.1689C2.52588 20.0601 2.7131 19.9102 2.89678 19.7632L5.30992 17.8327C5.8285 17.4178 5.98246 17.3007 6.14245 17.219C6.30292 17.137 6.47374 17.0771 6.65027 17.0408C6.82625 17.0047 7.01965 17 7.68376 17H14.2413C15.0463 17 15.7106 17 16.2518 16.9558C16.8139 16.9099 17.3306 16.8113 17.816 16.564C18.5686 16.1805 19.1805 15.5686 19.564 14.816C19.8113 14.3306 19.9099 13.8139 19.9558 13.2518C20 12.7106 20 12.0463 20 11.2413V5.75868C20 4.95372 20 4.28937 19.9558 3.74818C19.9099 3.18608 19.8113 2.66937 19.564 2.18404C19.1805 1.43139 18.5686 0.819469 17.816 0.435975C17.3306 0.188684 16.8139 0.0901201 16.2518 0.0441949C15.7106 -2.21655e-05 15.0463 -1.19578e-05 14.2413 4.11941e-07ZM5 5.5C4.44772 5.5 4 5.94772 4 6.5C4 7.05229 4.44772 7.5 5 7.5H10C10.5523 7.5 11 7.05229 11 6.5C11 5.94772 10.5523 5.5 10 5.5H5ZM5 9C4.44772 9 4 9.44771 4 10C4 10.5523 4.44772 11 5 11H13C13.5523 11 14 10.5523 14 10C14 9.44771 13.5523 9 13 9H5Z" fill="var(--fill-0, #2C8DC7)"/>
</svg>
