<svg xmlns="http://www.w3.org/2000/svg" width="96" height="96" viewBox="0 0 96 96">
  <defs>
    <style>
      .fill {
        fill: #6e6e6e;
      }
    </style>
  </defs>
    <title>S_IlluMagentoForums_96</title>
    <path class="fill" d="M57.387,32H22.5a1.5,1.5,0,0,0,0,3H57.387a1.5,1.5,0,0,0,0-3Z"/>
    <path class="fill" d="M43.425,41H22.5a1.5,1.5,0,0,0,0,3H43.425a1.5,1.5,0,0,0,0-3Z"/>
    <path class="fill" d="M64.915,56.9A7.086,7.086,0,0,0,72,49.834V25.069A7.085,7.085,0,0,0,64.915,18H15.085A7.085,7.085,0,0,0,8,25.069V49.834a7.086,7.086,0,0,0,7.085,7.07H26V67.6A2.9,2.9,0,0,0,31,69.6L43.05,56.9Zm-23.6-2.533L29,67.343V55.4a1.5,1.5,0,0,0-1.5-1.5H15.085A4.083,4.083,0,0,1,11,49.834V25.069A4.082,4.082,0,0,1,15.085,21h49.83A4.082,4.082,0,0,1,69,25.069V49.834a4.083,4.083,0,0,1-4.085,4.07H42.406A1.5,1.5,0,0,0,41.318,54.371Z"/>
    <path class="fill" d="M80.925,35h-5.19a1.5,1.5,0,0,0,0,3h5.19A4.079,4.079,0,0,1,85,42.074V62.02a4.079,4.079,0,0,1-4.075,4.074H66.453a1.5,1.5,0,0,0-1.5,1.5l.007,8.216-8.683-9.245a1.5,1.5,0,0,0-1.093-.472h-12.9A6.836,6.836,0,0,1,40,65.7a1.5,1.5,0,1,0-1,2.83,9.86,9.86,0,0,0,3.287.561H54.535l8.4,8.947a2.894,2.894,0,0,0,5.022-1.962l-.006-6.985h12.97A7.083,7.083,0,0,0,88,62.02V42.074A7.083,7.083,0,0,0,80.925,35Z"/>
</svg>
