<svg xmlns="http://www.w3.org/2000/svg" width="96" height="96" viewBox="0 0 96 96">
  <defs>
    <style>
      .fill {
        fill: #6e6e6e;
      }
    </style>
  </defs>
    <title>S_IlluTechResources_96</title>
    <path class="fill" d="M84.526,19.976H11.474a3.5,3.5,0,0,0-3.5,3.487V72.537a3.5,3.5,0,0,0,3.5,3.487H84.526a3.5,3.5,0,0,0,3.5-3.487V23.463A3.5,3.5,0,0,0,84.526,19.976ZM11.474,23.024H84.526a.445.445,0,0,1,.45.439V33H11.024V23.463A.445.445,0,0,1,11.474,23.024ZM84.526,72.976H11.474a.445.445,0,0,1-.45-.439V36H84.976V72.537A.445.445,0,0,1,84.526,72.976Z"/>
    <path class="fill" d="M15.5,30h5.778a1.5,1.5,0,0,0,0-3H15.5a1.5,1.5,0,0,0,0,3Z"/>
    <path class="fill" d="M42,48.335a1.5,1.5,0,0,0-2.1-.263l-6.811,5.3a1.5,1.5,0,0,0,0,2.368l6.811,5.3a1.5,1.5,0,1,0,1.842-2.367l-5.289-4.113,5.289-4.115A1.5,1.5,0,0,0,42,48.335Z"/>
    <path class="fill" d="M62.921,53.37l-6.811-5.3a1.5,1.5,0,1,0-1.842,2.367l5.289,4.115-5.289,4.113a1.5,1.5,0,1,0,1.842,2.367l6.811-5.3a1.5,1.5,0,0,0,0-2.368Z"/>
    <path class="fill" d="M46.759,46.467A1.5,1.5,0,1,0,43.944,47.5l5.3,14.379a1.5,1.5,0,0,0,1.407.981,1.474,1.474,0,0,0,.519-.093,1.5,1.5,0,0,0,.889-1.925Z"/>
</svg>
