<svg preserveAspectRatio="none" width="100%" height="100%" overflow="visible" style="display: block;" viewBox="0 0 18 16" fill="none" xmlns="http://www.w3.org/2000/svg">
<path d="M9.46813 0.259107C9.14367 0.578996 9.11324 1.08447 9.37922 1.43913L9.45911 1.53187L14.95 7.1L0.9 7.1C0.402944 7.1 0 7.50294 0 8C0 8.45882 0.343337 8.83745 0.787106 8.89299L0.9 8.9H14.95L9.45911 14.4681C9.13922 14.7926 9.11596 15.2984 9.38694 15.6493L9.46813 15.7409C9.79259 16.0608 10.2985 16.084 10.6493 15.8131L10.7409 15.7319L17.7409 8.63187C18.0576 8.31066 18.084 7.81089 17.8201 7.45992L17.7409 7.36813L10.7409 0.268133C10.3919 -0.0858224 9.82209 -0.0898636 9.46813 0.259107Z" fill="#2C8DC7"/>
</svg>
