<?xml version="1.0" encoding="utf-8"?>
<!-- Generator: Adobe Illustrator 21.1.0, SVG Export Plug-In . SVG Version: 6.00 Build 0)  -->
<svg version="1.1" id="Layer_1" xmlns="http://www.w3.org/2000/svg" xmlns:xlink="http://www.w3.org/1999/xlink" x="0px" y="0px"
	 viewBox="0 0 115 115" style="enable-background:new 0 0 115 115;" xml:space="preserve">
<style type="text/css">
	.st0{fill:#EBEBEB;}
	.st1{fill:#636466;}
	.st2{fill:#F26321;}
</style>
<circle class="st0" cx="57.5" cy="57.5" r="57.5"/>
<g>
	<g>
		<path class="st1" d="M88.5,30.4L88.5,30.4L88.5,30.4 M86.2,31.4L59,95.6l-8.9-18.9l5.4-12.7l1.4-3.4l-3.4,1.4l-12.7,5.4l-18.9-8.9
			L86.2,31.4 M88.1,29c-0.1,0-0.1,0-0.2,0L19.3,58c-0.2,0.1-0.3,0.3-0.3,0.5c0,0.2,0.1,0.4,0.3,0.5L40.6,69c0.1,0,0.1,0,0.2,0
			c0.1,0,0.1,0,0.2,0l13.1-5.6l-5.6,13.1c-0.1,0.1-0.1,0.3,0,0.4l10.1,21.3c0.1,0.2,0.3,0.3,0.5,0.3c0,0,0,0,0,0
			c0.2,0,0.4-0.1,0.5-0.3l29-68.6c0.1-0.2,0-0.4-0.1-0.6C88.3,29.1,88.2,29,88.1,29L88.1,29z"/>
	</g>
	<polygon class="st2" points="68.9,48.7 58.4,73.3 56.9,65.4 60.3,57.3 52.2,60.7 43.9,59.3 68.9,48.7 	"/>
</g>
</svg>
