<svg xmlns="http://www.w3.org/2000/svg" width="150" height="115" viewBox="0 0 150 115">
  <defs>
    <style>
      .fill {
        fill: #b3b3b3;
      }
    </style>
  </defs>
    <title>S_IlluMBI_150x115</title>
    <path class="fill" d="M59.8,85.253a1.5,1.5,0,0,0,1.631-.2l5.829-4.9,8.812,3.576a1.5,1.5,0,0,0,1.5-.219l9.73-7.79,4.651,1.994A1.5,1.5,0,0,0,93.6,77.4l5.037-5.041h5.692l3.788,2.607a1.5,1.5,0,0,0,1.905-.169l7.123-7.047a1.5,1.5,0,1,0-2.109-2.133L108.8,71.79l-3.15-2.167a1.5,1.5,0,0,0-.85-.265h-6.78a1.5,1.5,0,0,0-1.062.44L92.2,74.56l-4.544-1.948a1.5,1.5,0,0,0-1.528.208l-9.745,7.8-8.835-3.584a1.5,1.5,0,0,0-1.528.241l-5.77,4.85-1.186-.588c-.02-.01-.041-.014-.062-.023v-20.1a1,1,0,0,0-2,0V82.359a1.492,1.492,0,0,0,0,1.061V93a1,1,0,0,0,1,1h58.239a1,1,0,0,0,0-2H59V84.859Z"/>
    <path class="fill" d="M85.086,51a.968.968,0,1,0-.968.969A.969.969,0,0,0,85.086,51Z"/>
    <path class="fill" d="M124.557,49.259V75.132a1.5,1.5,0,0,0,3,0V49.259A3.763,3.763,0,0,0,123.8,45.5H45.258A3.763,3.763,0,0,0,41.5,49.259v8.228a1.5,1.5,0,0,0,3,0V49.259a.76.76,0,0,1,.758-.759H123.8A.76.76,0,0,1,124.557,49.259Z"/>
    <path class="fill" d="M138,97.5H31.479a1.5,1.5,0,0,0-1.5,1.5v1.939c0,1.146.9,5.626,3.436,5.626H136.064c2.54,0,3.436-4.48,3.436-5.626V99A1.5,1.5,0,0,0,138,97.5Zm-1.5,3.439a6.987,6.987,0,0,1-.8,2.626H33.779a6.987,6.987,0,0,1-.8-2.626V100.5H76.025v.2a1.291,1.291,0,0,0,1.291,1.291h14.2A1.292,1.292,0,0,0,92.81,100.7v-.2H136.5Z"/>
    <path class="fill" d="M126.057,95.145a1.5,1.5,0,0,0,1.5-1.5v-2.57a1.5,1.5,0,0,0-3,0v2.57A1.5,1.5,0,0,0,126.057,95.145Z"/>
    <path class="fill" d="M53,91.054v-24.1a1.92,1.92,0,0,0-.562-1.38A1.955,1.955,0,0,0,51.059,65H34.992a.585.585,0,0,0,0-.06,48.313,48.313,0,0,1,4.659-27.891,1,1,0,1,0-1.787-.9A50.123,50.123,0,0,0,32.994,65H12.932a1.95,1.95,0,0,0-1.37.575A1.915,1.915,0,0,0,11,66.946v24.1a1.92,1.92,0,0,0,.562,1.38A1.955,1.955,0,0,0,12.941,93h38.13A1.952,1.952,0,0,0,53,91.054Zm-40,0V67l38-.054L51.059,91Z"/>
    <path class="fill" d="M27.469,82.275a1.465,1.465,0,0,0,.593-.126l8.579-3.8a1.474,1.474,0,0,0,0-2.693l-8.579-3.8A1.468,1.468,0,0,0,26,73.192V80.8a1.452,1.452,0,0,0,.427,1.039A1.541,1.541,0,0,0,27.469,82.275ZM28,74.011,34.742,77,28,79.989Z"/>
    <path class="fill" d="M47.638,86.049H27.085a1,1,0,0,0,0,2H47.638a1,1,0,1,0,0-2Z"/>
    <path class="fill" d="M19.043,86.049H16.362a1,1,0,1,0,0,2h2.681a1,1,0,1,0,0-2Z"/>
    <path class="fill" d="M23.064,85.512A1.789,1.789,0,1,0,24.851,87.3,1.788,1.788,0,0,0,23.064,85.512Z"/>
    <path class="fill" d="M42.175,35.544a11.178,11.178,0,0,0,5.935,1.71,11.33,11.33,0,0,0,2.566-.3,11.186,11.186,0,0,0,7.01-5.015,1,1,0,0,0-1.7-1.057,9.255,9.255,0,0,1-16.442-1.433c-1.022-2.529-1-9.593,5.116-12.063A9.314,9.314,0,0,1,55.106,19.9l-8.179,8.186-3.364-3.365a1,1,0,0,0-1.414,1.414l4.071,4.073a1,1,0,0,0,1.414,0L60.405,17.426a1,1,0,1,0-1.414-1.414l-2.467,2.469a11.33,11.33,0,0,0-12.61-2.946C36.626,18.479,36.267,26.672,37.69,30.2A11.206,11.206,0,0,0,42.175,35.544Z"/>
    <path class="fill" d="M118.184,30.217v4.249a1.966,1.966,0,0,0,.446,1.246l1.579,1.924a1.966,1.966,0,0,0,1.515.715h1.4a1.962,1.962,0,0,0,1.515-.718l1.576-1.919a1.975,1.975,0,0,0,.447-1.251V31.955a5.064,5.064,0,0,1,1.128-3.193c1.858-2.276,3.463-4.242,3.463-7.344v-.151a8.8,8.8,0,0,0-8.776-8.808,1.212,1.212,0,0,0-.221.025h-.034a8.791,8.791,0,0,0-8.63,8.935c0,3.13,1.546,5.021,3.684,7.639C117.559,29.4,117.852,29.759,118.184,30.217ZM117.5,16.561a6.743,6.743,0,0,1,4.761-2.076h.113a.971.971,0,0,0,.215-.024,6.8,6.8,0,0,1,6.671,6.805V21.4c0,2.3-1.033,3.677-3.014,6.1a7.073,7.073,0,0,0-1.577,4.457l.008,2.487-1.548,1.907-1.371.013-1.568-1.9v-2.1h2.489a1,1,0,1,0,0-2h-2.489v-.151a2.141,2.141,0,0,0-.469-1.326c-.308-.385-.605-.747-.888-1.094-2.016-2.467-3.233-3.956-3.233-6.391A6.755,6.755,0,0,1,117.5,16.561Z"/>
    <path class="fill" d="M121.735,29.471a1,1,0,0,0,.95-1.317l-1.91-5.733h2.613l-.277,1.108a1,1,0,0,0,1.942.484l.369-1.481a1.611,1.611,0,0,0,.054-.426,1.687,1.687,0,0,0-1.684-1.685H120.34a1.713,1.713,0,0,0-.538.088,1.687,1.687,0,0,0-1.062,2.133l2.046,6.144A1,1,0,0,0,121.735,29.471Z"/>
    <path class="fill" d="M64.49,15.034a48.312,48.312,0,0,1,42.3,3.019l-2.708.351a1,1,0,0,0,.128,1.992.955.955,0,0,0,.13-.008l5.216-.678a1,1,0,0,0,.862-1.12l-.677-5.219a1,1,0,1,0-1.983.256l.375,2.887a50.331,50.331,0,0,0-44.39-3.334,1,1,0,0,0,.752,1.854Z"/>
    <path class="fill" d="M131.232,40.4a1,1,0,0,0-1.839.787,48.422,48.422,0,0,1-2.217,42.376l-.4-2.7a1,1,0,0,0-1.978.294l.774,5.206a1,1,0,0,0,.99.853,1.05,1.05,0,0,0,.147-.011l5.2-.776a1,1,0,1,0-.295-1.978l-2.876.429A50.431,50.431,0,0,0,131.232,40.4Z"/>
</svg>
