<svg id="Layer_1" data-name="Layer 1" xmlns="http://www.w3.org/2000/svg" viewBox="0 0 115 115"><defs><style>.cls-1{fill:#ebebeb;}.cls-2{fill:#f26321;}.cls-3,.cls-4{fill:none;stroke:#636466;stroke-width:1.5px;}.cls-3{stroke-miterlimit:10;}.cls-4{stroke-linecap:round;stroke-linejoin:round;}</style></defs><title>icon-news</title><circle class="cls-1" cx="57.5" cy="57.5" r="57.5"/><polygon class="cls-2" points="37.45 58.5 87.54 58.5 87.54 38.21 37.45 51.01 37.45 58.5 37.45 58.5"/><polyline class="cls-3" points="87.54 38.21 37.45 51.01 37.45 58.5 37.45 65.99 87.54 78.79"/><path class="cls-4" d="M87.54,58.5V37.12a2.58,2.58,0,0,1,2.58-2.58h0a2.58,2.58,0,0,1,2.58,2.58V79.88a2.58,2.58,0,0,1-2.58,2.58h0a2.58,2.58,0,0,1-2.58-2.58V71.42M28.27,67.31l9.18-1.45V51l-9.18-1.45m0,17.07a3,3,0,0,1-3,3h0a3,3,0,0,1-3-3V50.25a3,3,0,0,1,3-3h0a3,3,0,0,1,3,3v3.91M48.14,68.85v9.43a3,3,0,0,0,3,3h11.6a3,3,0,0,0,3-3V73.62"/></svg>