<svg xmlns="http://www.w3.org/2000/svg" width="150" height="115" viewBox="0 0 150 115">
  <defs>
    <style>
      .fill {
        fill: #b3b3b3;
      }
    </style>
  </defs>
    <title>S_IlluHelpCenterGuide_150x115</title>
    <path class="fill" d="M123.216,30.639A2.536,2.536,0,0,0,119,32.54V58.734a2.474,2.474,0,0,0,1.617,2.334,2.525,2.525,0,0,0,.886.162,2.474,2.474,0,0,0,1.867-.854l6.875-7.856,11.211.067h.016a2.493,2.493,0,0,0,1.65-4.362ZM141.933,50.27a.476.476,0,0,1-.461.317h0l-11.669-.07a1.2,1.2,0,0,0-.758.341l-7.176,8.2a.494.494,0,0,1-.865-.325V32.54a.522.522,0,0,1,.316-.49.564.564,0,0,1,.229-.05.514.514,0,0,1,.347.138L141.8,49.724A.477.477,0,0,1,141.933,50.27Z"/>
    <path class="fill" d="M120,66.584a1.5,1.5,0,0,0-1.5,1.5V92.12c-2.66-.361-5.081-.733-7.426-1.094-11.485-1.764-18.985-2.9-27.316,1.528,4.151-11.234,10.481-17.988,24.867-16.065a2.55,2.55,0,0,0,2.012-.606,2.5,2.5,0,0,0,.853-1.878V42.443h1.892a1.5,1.5,0,0,0,0-3H111.49V24.279a2.517,2.517,0,0,0-2.173-2.487c-8.649-1.16-15.868,1.094-21.456,6.707a32.854,32.854,0,0,0-7.745,13.512c-9.006-5.586-16.731-4.394-29.038-2.49-2.628.407-5.346.827-8.388,1.234a2.526,2.526,0,0,0-2.19,2.489V92.731a2.516,2.516,0,0,0,2.851,2.485c2.945-.394,5.585-.8,8.136-1.195,12.759-1.971,19.789-3.058,28.664,3.208.024.016.052.022.077.037s.048.038.076.053c.008,0,.014.012.022.016a1.407,1.407,0,0,0,.164.061c.04.015.078.033.119.044a1.345,1.345,0,0,0,.14.031c.016,0,.028.013.044.015a1.4,1.4,0,0,0,.221.017h.006a1.512,1.512,0,0,0,.4-.063c.017,0,.035-.006.052-.011s.055-.028.084-.039c.048-.02.1-.031.146-.055s.061-.046.094-.066.056-.023.081-.04c8.9-6.285,15.948-5.2,28.737-3.238,2.515.387,5.116.786,8.014,1.175a2.563,2.563,0,0,0,2.01-.609,2.5,2.5,0,0,0,.858-1.877v-24.6A1.5,1.5,0,0,0,120,66.584ZM79.516,93.247a26.593,26.593,0,0,0-14.183-3.738,97.022,97.022,0,0,0-14.3,1.547c-2.377.367-4.831.746-7.529,1.113v-48.5c2.917-.4,5.63-.815,8.037-1.187C64,40.557,71.009,39.474,79.516,45.193Zm3-48.631c.989-4.133,6.476-22.263,25.974-19.9V73.447c-14.679-1.771-21.78,5.27-25.974,14.272Z"/>
    <path class="fill" d="M118.4,99.343c-2.979-.4-5.642-.816-8.216-1.218C98.284,96.266,90.3,95.042,81,101.2c-9.3-6.16-17.283-4.936-29.18-3.078-2.574.4-5.237.818-8.216,1.218a1.5,1.5,0,1,0,.4,2.972c3.011-.4,5.811-.839,8.282-1.226,12.357-1.93,19.164-3,27.851,3.137.021.015.047.02.069.034a1.529,1.529,0,0,0,.275.136c.04.015.078.032.119.043a1.475,1.475,0,0,0,.391.059l.01,0h0l.01,0a1.475,1.475,0,0,0,.391-.059c.041-.011.079-.028.119-.043a1.529,1.529,0,0,0,.275-.136c.022-.014.048-.019.069-.034,8.686-6.132,15.493-5.068,27.851-3.137,2.471.387,5.271.824,8.282,1.226a1.5,1.5,0,1,0,.4-2.972Z"/>
    <path class="fill" d="M34.663,48.833A18.469,18.469,0,1,1,48.277,33.379a1.5,1.5,0,1,0,2.973.4,21.467,21.467,0,1,0-15.823,17.96,1.5,1.5,0,1,0-.764-2.9Z"/>
    <circle class="fill" cx="30.184" cy="39.929" r="1.547"/>
    <path class="fill" d="M32.971,31.59c1.115-1.011,3.19-2.895,3.19-5.635a5.9,5.9,0,0,0-6.153-6.179,6.2,6.2,0,0,0-5.746,3.895,1.175,1.175,0,0,0,2.217.777,3.85,3.85,0,0,1,3.531-2.323,3.575,3.575,0,0,1,3.8,3.828c0,1.7-1.515,3.072-2.419,3.893l-1.1.994a3.229,3.229,0,0,0-1.17,2.764V35.07A1.177,1.177,0,0,0,30.3,36.246h0a1.174,1.174,0,0,0,1.172-1.178V33.6c0-.661.073-.727.38-1.007Z"/>
</svg>
