<?xml version="1.0" encoding="utf-8"?>
<!-- Generator: Adobe Illustrator 22.1.0, SVG Export Plug-In . SVG Version: 6.00 Build 0)  -->
<svg version="1.1" xmlns="http://www.w3.org/2000/svg" xmlns:xlink="http://www.w3.org/1999/xlink" x="0px" y="0px" width="1024px"
	 height="1024px" viewBox="0 0 1024 1024" style="enable-background:new 0 0 1024 1024;" xml:space="preserve">
<style type="text/css">
	.st0{fill:#FFFFFF;}
</style>
<g id="Layer_1">
	<path id="XMLID_2_" class="st0" d="M1358.1,954.9c387.6,0,600.8-319.8,600.8-600.8c0-9.7,0-19.4,0-29.1
		c38.8-29.1,77.5-67.8,106.6-106.6c-29.1,19.4-77.5,29.1-116.3,38.8c38.8-38.8,77.5-67.8,96.9-126c-38.8,29.1-87.2,38.8-126,48.5
		c-38.8-48.5-96.9-67.8-155.1-67.8c-116.3,0-213.2,96.9-213.2,213.2c0,19.4,0,38.8,9.7,48.5c-184.1-9.7-339.2-96.9-445.8-222.9
		c-29.1,38.8-38.8,77.5-38.8,116.3c0,67.8,38.8,135.7,96.9,174.4c-38.8,0-67.8-9.7-96.9-29.1l0,0c0,106.6,67.8,184.1,164.7,213.2
		c-9.7,9.7-29.1,9.7-48.5,9.7s-29.1,0-38.8,0c29.1,87.2,106.6,145.4,203.5,145.4c-67.8,48.5-164.7,87.2-261.6,87.2
		c-19.4,0-38.8,0-48.5,0C1135.2,925.9,1241.8,954.9,1358.1,954.9"/>
	<g>
		<path class="st0" d="M508.2,280.1c-128.5,0-233,104.4-233,233s104.4,241,233,241s233-104.4,233-233
			C741.2,392.6,636.8,280.1,508.2,280.1z M508.2,673.7c-88.4,0-152.6-72.3-152.6-160.7s64.3-152.6,152.6-152.6
			s152.6,64.3,152.6,152.6S596.6,673.7,508.2,673.7z"/>
		<path class="st0" d="M757.3,215.8c-26.6,0-48.2,21.6-48.2,48.2c0,26.6,21.6,48.2,48.2,48.2c26.6,0,48.2-21.6,48.2-48.2
			C805.5,237.4,783.9,215.8,757.3,215.8z"/>
		<path class="st0" d="M685,43.2H339.5c-151.9,0-285.2,133.3-285.2,285.2v361.5C54.4,847,182.3,975,339.5,975h337.4
			c157.6,0,283.7-121.4,293.3-285.2V328.3C970.2,176.4,836.9,43.2,685,43.2z M676.9,886.7H339.5c-108.5,0-196.8-88.3-196.8-196.8
			V328.3c0-104.9,92-196.8,196.8-196.8H685c104.8,0,196.8,92,196.8,196.8l0.1,358.9C875.1,802.8,788.9,886.7,676.9,886.7z"/>
	</g>
	<g>
		<g>
			<g>
				<path class="st0" d="M2997.4,46.1h-795c-38,0-68.9,30.1-68.9,67.2v798.4c0,37.2,30.9,67.3,68.9,67.3h795
					c38,0,69.1-30.2,69.1-67.3V113.3C3066.5,76.2,3035.4,46.1,2997.4,46.1z M2410.2,841h-138.4V395.8h138.4V841z M2341,335
					c-44.4,0-80.2-36-80.2-80.3c0-44.2,35.9-80.2,80.2-80.2c44.2,0,80.2,36,80.2,80.2C2421.2,299,2385.2,335,2341,335z M2928.5,841
					h-138.2V624.5c0-51.6-1-118.1-71.9-118.1c-72,0-83,56.2-83,114.3V841H2497V395.8h132.7v60.8h1.9c18.5-35,63.6-71.9,130.9-71.9
					c140,0,165.9,92.2,165.9,212.1V841z"/>
			</g>
		</g>
	</g>
</g>
<g id="White">
	<path id="White_2_" class="st0" d="M-116.9,46.5h-829.1c-28.4,0-51.4,23-51.4,51.4v829.1c0,28.4,23,51.4,51.4,51.4h446.4V617.6
		h-121.5V476.9h121.5V373.2c0-120.4,73.5-185.9,180.9-185.9c51.4,0,95.6,3.8,108.5,5.5v125.8l-74.5,0c-58.4,0-69.7,27.8-69.7,68.5
		v89.8h139.3l-18.1,140.7h-121.1v360.9h237.5c28.4,0,51.4-23,51.4-51.4V98C-65.5,69.6-88.5,46.5-116.9,46.5z"/>
</g>
</svg>
