<svg width="214" height="35" xmlns="http://www.w3.org/2000/svg"><title>Jobber Logo</title><desc>Jobber logo with the word Jobber to the right of it</desc><g fill="#012939" fill-rule="evenodd"><path d="M66.665 4.814H60.13a.803.803 0 00-.805.8v15.114c0 .997-.209 1.78-.628 2.35-.418.569-1.106.854-2.063.854-.956 0-1.656-.326-2.1-.98-.35-.516-.577-1.2-.68-2.052a.804.804 0 00-.796-.707h-6.52a.809.809 0 00-.805.87c.222 3.042 1.166 5.398 2.828 7.07 1.818 1.827 4.508 2.741 8.073 2.741 3.373 0 6.022-.884 7.948-2.653 1.925-1.767 2.889-4.384 2.889-7.85V5.615c0-.442-.361-.8-.806-.8M87.384 23.932c-2.99 0-4.485-2.136-4.485-6.408s1.495-6.408 4.485-6.408 4.485 2.136 4.485 6.408-1.495 6.408-4.485 6.408m9.634-16.234C95.929 6.558 94.59 5.686 93 5.08c-1.592-.605-3.427-.908-5.508-.908-2.13 0-4.007.315-5.633.943-1.627.63-2.99 1.53-4.091 2.706-1.1 1.175-1.925 2.588-2.475 4.237-.552 1.65-.826 3.506-.826 5.57 0 2.067.274 3.917.826 5.555.55 1.638 1.368 3.026 2.457 4.166 1.089 1.139 2.428 2.011 4.018 2.616 1.592.606 3.427.908 5.509.908 2.129 0 4.006-.315 5.633-.944 1.626-.628 2.984-1.524 4.073-2.687 1.088-1.163 1.913-2.582 2.474-4.255.562-1.673.844-3.542.844-5.607 0-2.065-.274-3.91-.824-5.536-.552-1.625-1.37-3.008-2.46-4.147M120.753 23.825c-.43.404-1.256.606-2.475.606h-2.567a.803.803 0 01-.806-.8v-3.065c0-.442.36-.8.806-.8h2.567c1.219 0 2.045.202 2.475.606.43.403.646.985.646 1.744 0 .736-.215 1.306-.646 1.709zm-5.848-12.408c0-.442.36-.8.806-.8h2.386c1.005 0 1.687.166 2.047.499.358.332.537.807.537 1.423 0 .618-.18 1.093-.537 1.424-.36.333-1.042.499-2.047.499h-2.386a.803.803 0 01-.806-.8v-2.245zm11.384 5.92a.79.79 0 01-.065-1.284 5.304 5.304 0 001.385-1.61c.5-.913.751-1.951.751-3.114 0-.878-.144-1.715-.431-2.51-.286-.795-.769-1.49-1.45-2.083-.68-.593-1.594-1.061-2.74-1.406-1.147-.344-2.58-.516-4.298-.516h-11.157a.803.803 0 00-.807.8v23.82c0 .441.361.8.807.8h10.836c1.861 0 3.425-.203 4.691-.606 1.266-.404 2.293-.95 3.08-1.638.789-.688 1.35-1.482 1.685-2.385a8.122 8.122 0 00.502-2.848c0-2.41-.93-4.216-2.79-5.42zM149.386 23.825c-.43.404-1.256.606-2.475.606h-2.567a.803.803 0 01-.806-.8v-3.065c0-.442.36-.8.806-.8h2.567c1.219 0 2.045.202 2.475.606.43.403.646.985.646 1.744 0 .736-.215 1.306-.646 1.709zm-5.848-12.408c0-.442.36-.8.806-.8h2.386c1.005 0 1.687.166 2.047.499.358.332.537.807.537 1.423 0 .618-.18 1.093-.537 1.424-.36.333-1.042.499-2.047.499h-2.386a.803.803 0 01-.806-.8v-2.245zm11.384 5.92a.79.79 0 01-.065-1.284 5.304 5.304 0 001.385-1.61c.5-.913.751-1.951.751-3.114 0-.878-.144-1.715-.431-2.51-.286-.795-.769-1.49-1.45-2.083-.68-.593-1.594-1.061-2.74-1.406-1.147-.344-2.58-.516-4.298-.516h-11.157a.803.803 0 00-.807.8v23.82c0 .441.361.8.807.8h10.836c1.861 0 3.425-.203 4.691-.606 1.266-.404 2.293-.95 3.08-1.638.789-.688 1.35-1.482 1.685-2.385a8.122 8.122 0 00.502-2.848c0-2.41-.93-4.216-2.79-5.42zM183.625 24.003H173.55a.803.803 0 01-.806-.8v-1.89c0-.44.36-.799.806-.799h8.721a.803.803 0 00.806-.8v-4.63c0-.442-.36-.8-.806-.8h-8.721a.803.803 0 01-.806-.8v-1.64c0-.442.36-.8.806-.8h9.438a.803.803 0 00.807-.8v-4.63c0-.442-.361-.8-.807-.8h-17.44a.803.803 0 00-.806.8v23.82c0 .441.361.8.807.8h17.621a.804.804 0 00.802-.723l.454-4.63a.802.802 0 00-.802-.878M204.485 15.53c-.51.45-1.373.676-2.587.676h-1.903a.803.803 0 01-.806-.8v-3.812c0-.441.36-.8.806-.8h1.903c1.214 0 2.076.227 2.587.677.512.452.767 1.128.767 2.03 0 .902-.255 1.578-.767 2.029m9.346 13.523l-4.328-7.95a.789.789 0 01.217-1.01 7.899 7.899 0 002.224-2.57c.658-1.21.986-2.67.986-4.378 0-1.14-.173-2.22-.52-3.24a6.326 6.326 0 00-1.743-2.653c-.816-.747-1.887-1.34-3.218-1.78-1.329-.439-2.976-.658-4.942-.658h-10.19a.803.803 0 00-.807.8v23.82c0 .441.361.8.807.8h6.066a.803.803 0 00.806-.8V22.88c0-.441.36-.8.806-.8h1.564c.306 0 .585.172.722.444l3.646 7.266a.807.807 0 00.722.443h6.473a.8.8 0 00.71-1.18M32.761 22.207c0 5.688-4.647 10.299-10.38 10.299H7.665a.337.337 0 01-.338-.335V12.91c0-3.115 2.546-5.641 5.686-5.641h9.873c.235 0 .399.233.317.452l-.574 1.531a.338.338 0 01-.317.218h-8.82c-2.18 0-3.946 1.753-3.946 3.915V29.97c0 .185.151.336.338.336H22.38c4.508 0 8.162-3.626 8.162-8.098V5.159c0-.3.364-.449.577-.237l1.542 1.53c.063.063.1.148.1.237v15.518zm-20.74.648v-9.468c0-.806.659-1.46 1.47-1.46h9.543c.187 0 .338.151.338.336v9.468c0 .806-.658 1.46-1.47 1.46H12.36a.337.337 0 01-.338-.336zm-7.17-9.944V29.96a.338.338 0 01-.577.237l-1.542-1.53a.335.335 0 01-.1-.237V12.91c0-5.688 4.648-10.299 10.38-10.299H27.73c.186 0 .338.15.338.335v19.26c0 3.115-2.546 5.641-5.686 5.641h-9.873a.336.336 0 01-.317-.452l.574-1.53a.338.338 0 01.317-.22h8.82c2.18 0 3.946-1.752 3.946-3.915V5.15a.337.337 0 00-.338-.336H13.013c-4.508 0-8.162 3.626-8.162 8.098zM30.114.451a1.018 1.018 0 00-.717-.296H13.013C5.913.155.157 5.867.157 12.911v16.257c0 .267.107.523.297.712l4.826 4.788c.19.188.448.295.717.295H22.38c7.1 0 12.856-5.712 12.856-12.756V5.95c0-.267-.107-.523-.297-.712L30.114.45z"/></g></svg>
