<svg xmlns="http://www.w3.org/2000/svg" viewBox="0 0 525.5 155.26">
    <defs>
        <style>
            .cls-1 {
                fill: #b1e2f8;
            }

            .cls-2 {
                fill: #174b62;
            }

            .cls-3, .cls-4 {
                fill: #fff;
            }
        </style>
    </defs>
    <title>logo-two-column</title>
    <g id="Layer_2" data-name="Layer 2">
        <g id="Layer_1-2" data-name="Layer 1">
            <path class="cls-1"
                d="M218.27,75c0-.75.06-1.49.06-2.25A72.79,72.79,0,0,0,83.79,34.26a62.39,62.39,0,1,0-21.41,121H162.92V114.71H179.7v40.55h32.82A40.32,40.32,0,0,0,218.27,75Z" />
            <path class="cls-2"
                d="M212.1,91.65H194.89V59.79h4.36a3.91,3.91,0,0,0,0-7.81H69a3.91,3.91,0,0,0,0,7.81h4.36V91.65H56.16a3.91,3.91,0,0,0,0,7.82h4.35v55.79H162.92V114.71H179.7v40.55h28V99.47h4.36a3.91,3.91,0,1,0,0-7.82Z" />
            <rect class="cls-3" x="73.37" y="114.71" width="42.19" height="16.78" />
            <rect class="cls-3" x="139.08" y="67.35" width="16.78" height="16.8" />
            <rect class="cls-3" x="73.37" y="67.35" width="58.74" height="16.8" />
            <rect class="cls-3" x="162.92" y="67.35" width="16.78" height="16.8" />
            <rect class="cls-3" x="162.92" y="114.7" width="16.78" height="40.56" />
            <path class="cls-4" d="M338.49,62.71H329.9L313.18,35.28V62.71h-8.59V21h8.59l16.75,27.49V21h8.56Z" />
            <path class="cls-4" d="M393.5,54.12H378.44l-2.86,8.59h-9.14L382,21h8l15.6,41.69H396.4Zm-12.74-7h10.42l-5.24-15.61Z" />
            <path class="cls-4"
                d="M432.88,62.71V21h14.61a27.9,27.9,0,0,1,6.5.68,13.8,13.8,0,0,1,4.85,2.11,9.31,9.31,0,0,1,3,3.56,11.56,11.56,0,0,1,1,5.07,10.79,10.79,0,0,1-.35,2.75,8.87,8.87,0,0,1-2.94,4.54A9.55,9.55,0,0,1,457,41.26a9.25,9.25,0,0,1,3.13,1.39,8.54,8.54,0,0,1,3.38,4.84,11.29,11.29,0,0,1,.39,3q0,6.07-3.91,9.17t-11.12,3.09Zm8.59-24.23h6.36a7.84,7.84,0,0,0,4.9-1.38,4.67,4.67,0,0,0,1.6-3.8,4.81,4.81,0,0,0-1.64-4.08Q451,28,447.49,28h-6Zm0,6.07V55.81h7.37a8.71,8.71,0,0,0,2.86-.42,5.64,5.64,0,0,0,2-1.14,4.52,4.52,0,0,0,1.19-1.72,5.84,5.84,0,0,0,.39-2.16,7.85,7.85,0,0,0-.35-2.42,4.53,4.53,0,0,0-1.07-1.83A4.59,4.59,0,0,0,452,45a8.68,8.68,0,0,0-2.81-.41Z" />
            <path class="cls-4"
                d="M525.32,21V48.53a15.92,15.92,0,0,1-1.2,6.38,12.92,12.92,0,0,1-3.32,4.62,14.29,14.29,0,0,1-5,2.81,22.36,22.36,0,0,1-12.83,0,14.33,14.33,0,0,1-5.06-2.81,12.89,12.89,0,0,1-3.31-4.62,16.1,16.1,0,0,1-1.18-6.38V21H502V48.53c0,2.74.65,4.72,2,6a8.77,8.77,0,0,0,10.85,0c1.29-1.25,1.93-3.23,1.93-6V21Z" />
            <path class="cls-4"
                d="M338.41,119.79a17.05,17.05,0,0,1-1.44,5.84,13.52,13.52,0,0,1-3.32,4.56,14.86,14.86,0,0,1-5.14,3,20.38,20.38,0,0,1-6.89,1.08,17.82,17.82,0,0,1-7.2-1.39,14.82,14.82,0,0,1-5.41-4,18.21,18.21,0,0,1-3.41-6.31,27.27,27.27,0,0,1-1.19-8.32v-2.75a26.45,26.45,0,0,1,1.24-8.33,18.42,18.42,0,0,1,3.48-6.33,15.1,15.1,0,0,1,5.45-4,17.76,17.76,0,0,1,7.16-1.4,20,20,0,0,1,6.89,1.1,14.93,14.93,0,0,1,5.08,3.06,14,14,0,0,1,3.26,4.67,19.39,19.39,0,0,1,1.49,5.89h-8.59a13.06,13.06,0,0,0-.64-3.3,6.57,6.57,0,0,0-1.45-2.4A6,6,0,0,0,325.35,99a11.52,11.52,0,0,0-3.61-.5,7.31,7.31,0,0,0-6.49,3.17q-2.13,3.16-2.13,9.81v2.8a30.45,30.45,0,0,0,.47,5.67,12.08,12.08,0,0,0,1.49,4.07,6.57,6.57,0,0,0,2.64,2.44,8.48,8.48,0,0,0,3.9.82,11.72,11.72,0,0,0,3.51-.46,6.15,6.15,0,0,0,2.47-1.39,6.39,6.39,0,0,0,1.53-2.33,11.31,11.31,0,0,0,.68-3.26Z" />
            <path class="cls-4" d="M391,125.08H376l-2.86,8.59H364L379.5,92h8l15.61,41.69h-9.14Zm-12.74-7h10.42l-5.24-15.61Z" />
            <path class="cls-4"
                d="M452,122.74a5.82,5.82,0,0,0-.31-2,3.78,3.78,0,0,0-1.22-1.61A10.69,10.69,0,0,0,448,117.7a37.7,37.7,0,0,0-4.11-1.52,51,51,0,0,1-5.4-2.06,20.14,20.14,0,0,1-4.44-2.71,12,12,0,0,1-3-3.59,9.79,9.79,0,0,1-1.11-4.76,10.16,10.16,0,0,1,1.13-4.76,10.89,10.89,0,0,1,3.18-3.69,15.88,15.88,0,0,1,4.87-2.36,21.67,21.67,0,0,1,6.2-.84,19.55,19.55,0,0,1,6.3,1,14.44,14.44,0,0,1,4.84,2.68,11.75,11.75,0,0,1,3.09,4.08,12.08,12.08,0,0,1,1.09,5.16h-8.59a6.85,6.85,0,0,0-.42-2.43,5,5,0,0,0-1.27-1.92,6,6,0,0,0-2.15-1.25,9.49,9.49,0,0,0-3-.44,10.62,10.62,0,0,0-2.94.37,6,6,0,0,0-2.06,1A4.42,4.42,0,0,0,439,101.2a4.35,4.35,0,0,0-.42,1.89,4.06,4.06,0,0,0,2.11,3.45,23.53,23.53,0,0,0,6.17,2.59,41.07,41.07,0,0,1,6,2.35,17.64,17.64,0,0,1,4.32,2.92,11,11,0,0,1,2.62,3.67,11.42,11.42,0,0,1,.89,4.61,10.85,10.85,0,0,1-1.07,4.89,10.25,10.25,0,0,1-3,3.63,14.65,14.65,0,0,1-4.77,2.26,23.13,23.13,0,0,1-6.23.79,23.89,23.89,0,0,1-4.12-.36,20.28,20.28,0,0,1-3.94-1.1,17.56,17.56,0,0,1-3.48-1.86,13,13,0,0,1-2.79-2.64,11.93,11.93,0,0,1-1.86-3.45,12.94,12.94,0,0,1-.68-4.28h8.62a7.89,7.89,0,0,0,.6,3.21,5.49,5.49,0,0,0,1.68,2.13,7.1,7.1,0,0,0,2.59,1.19,14.11,14.11,0,0,0,3.38.37,10.32,10.32,0,0,0,2.89-.36,6.06,6.06,0,0,0,2-1,3.86,3.86,0,0,0,1.18-1.5A4.54,4.54,0,0,0,452,122.74Z" />
            <path class="cls-4"
                d="M513.47,125.08H498.41l-2.87,8.59h-9.13L501.93,92h8l15.61,41.69h-9.14Zm-12.74-7h10.42l-5.24-15.61Z" />
        </g>
    </g>
</svg>