<?xml version="1.0" encoding="utf-8"?>
<!-- Generator: Adobe Illustrator 23.0.6, SVG Export Plug-In . SVG Version: 6.00 Build 0)  -->
<svg version="1.1" id="Layer_1" xmlns="http://www.w3.org/2000/svg" xmlns:xlink="http://www.w3.org/1999/xlink" x="0px" y="0px"
	 width="400px" height="208px" viewBox="0 0 400 208" style="enable-background:new 0 0 400 208;" xml:space="preserve">
<style type="text/css">
	.st0{fill:#006AB3;}
</style>
<g>
	<path d="M61.8,66.8c0.7,3.4,1.4,8.2,1.4,8.2s0.7-4.8,1.5-8l11.7-53.8c0.2-0.8,0.5-1.2,1.2-1.1l2.3,0.3c0.8,0.1,1.1,0.5,0.9,1.4
		L65.8,83.6c-0.2,0.9-0.6,1.3-1.4,1.2l-2.8-0.2c-0.7,0-1.1-0.5-1.3-1.4L48,25.2c-0.6-2.3-1.2-6.5-1.2-7.3l-1.3,7L33,81.6
		c-0.2,0.9-0.7,1.3-1.5,1.3l-3-0.2c-0.8,0-1.3-0.5-1.5-1.5L10.1,4.1C9.9,3,10.2,2.7,11.1,2.8l3.2,0.4c0.8,0.1,1.2,0.6,1.4,1.6
		l12.9,59.4l1.6,8.1c0.1-0.6,0.9-5,1.6-7.8L44.3,8.8c0.2-0.9,0.5-1.3,1.3-1.2L48.3,8c0.8,0.1,1.1,0.6,1.3,1.5L61.8,66.8z"/>
	<path d="M92.4,86.4c-0.6,0-0.9-0.5-0.9-1.3l-0.1-69.7c0-0.8,0.3-1.2,1-1.1l28.4,4c0.6,0.1,1,0.4,1,1.4l0,2.3c0,0.9-0.3,1.2-1,1.1
		l-24.9-3.4l0,26.9l23.4,2.4c0.6,0.1,1,0.4,1,1.3l0,2.2c0,0.8-0.3,1.2-1,1.1l-23.4-2.3l0,30.5l25.8,1.6c0.6,0,1,0.4,1,1.3l0,2.3
		c0,0.9-0.3,1.2-1,1.2L92.4,86.4z"/>
	<path d="M138.7,84.4l22.2,1.4c0.6,0,0.9,0.3,0.9,1.2l0,2.1c0,0.9-0.3,1.2-0.9,1.1l-25.5-1.5c-0.5,0-0.8-0.4-0.8-1.3l-0.1-66.3
		c0-0.8,0.3-1.2,0.9-1.1l2.3,0.3c0.6,0.1,0.8,0.5,0.9,1.3L138.7,84.4z"/>
	<path d="M197.5,80c0,7.3-2.9,13-13.8,12.4c-11.3-0.6-14.3-6.9-14.3-14.5l0-40.1c0-7.5,3-13.2,14.3-11.6
		c10.9,1.5,13.8,7.8,13.8,15.1l0,4.9c0,0.8-0.2,1.2-0.7,1.1l-1.9-0.2c-0.5-0.1-0.8-0.5-0.8-1.3l0-4.1c0-5.7-2.4-10-10.3-11.1
		c-8.2-1.1-10.5,2.6-10.5,8.5l0,38.3c0,5.9,2.4,10.1,10.6,10.6c8,0.5,10.3-3.3,10.3-9l0-5.3c0-0.8,0.3-1,0.8-1l1.9,0.2
		c0.5,0,0.7,0.3,0.7,1.1L197.5,80z"/>
	<path d="M206.6,42.5c0-7.2,3.1-12.6,13.3-11.1c10,1.4,12.9,7.4,12.9,14.4l0,36.9c0,6.9-3,12.4-12.9,11.8
		c-10.2-0.6-13.3-6.6-13.3-13.8L206.6,42.5z M229.6,46.1c0-5.5-2.4-9.5-9.7-10.5c-7.3-1-9.8,2.5-9.8,8.1l0,36.5
		c0,5.6,2.5,9.6,9.9,10.1c7.3,0.5,9.6-3.2,9.6-8.6L229.6,46.1z"/>
	<path d="M273.4,95.8c0,0.7-0.2,1-0.6,1l-1.6-0.1c-0.4,0-0.7-0.4-0.7-1.1l0-46.7l-1,4.3l-9,32.9c-0.2,0.7-0.4,1-0.9,1L258,87
		c-0.5,0-0.7-0.4-0.8-1.1L247.4,50c-0.4-1.3-0.8-3.5-0.9-4l0,48.2c0,0.7-0.2,1-0.6,1l-1.6-0.1c-0.5,0-0.7-0.4-0.7-1.1l-0.1-57.5
		c0-0.7,0.2-1,0.7-1l1.6,0.2c0.3,0,0.5,0.2,0.6,0.7l11.4,41.7c0.5,1.8,0.9,4.1,0.9,4.1s0.6-2.4,1-3.9l10.8-38.7
		c0.1-0.4,0.3-0.5,0.6-0.4l1.6,0.2c0.4,0.1,0.6,0.4,0.6,1.1L273.4,95.8z"/>
	<path d="M284.2,97.4c-0.4,0-0.6-0.4-0.6-1l-0.1-54.3c0-0.7,0.2-1,0.6-0.9l17.4,2.4c0.4,0.1,0.6,0.3,0.6,1l0,1.8
		c0,0.7-0.2,0.9-0.6,0.9l-15.2-2.1l0,21l14.3,1.5c0.4,0,0.6,0.3,0.6,1l0,1.7c0,0.6-0.2,0.9-0.6,0.9l-14.3-1.4l0,23.8l15.8,1
		c0.4,0,0.6,0.3,0.6,1l0,1.8c0,0.7-0.2,1-0.6,0.9L284.2,97.4z"/>
	<path d="M337.2,48.6c0.4,0,0.5,0.3,0.5,1l0,1.7c0,0.7-0.2,0.9-0.5,0.8L329,51l0,48.1c0,0.6-0.1,0.9-0.5,0.9l-1.4-0.1
		c-0.4,0-0.6-0.3-0.6-1l0-48.3l-8.4-1.1c-0.4-0.1-0.6-0.3-0.6-1l0-1.7c0-0.7,0.1-0.9,0.6-0.9L337.2,48.6z"/>
	<path d="M342,59.4c0-5.9,2.1-10.4,9-9.4c6.8,1,8.8,5.9,8.8,11.6l0,30.4c0,5.7-2,10.3-8.8,9.9c-6.9-0.4-9-5.3-9-11.2L342,59.4z
		 M357.5,61.9c0-4.5-1.6-7.8-6.6-8.5c-5-0.7-6.7,2.3-6.7,6.9l0,30c0,4.6,1.7,7.9,6.7,8.2c4.9,0.3,6.6-2.7,6.6-7.2L357.5,61.9z"/>
	<path class="st0" d="M73.1,192.4c0,1.8-0.5,2.7-2.2,2.9l-7.6,0.5c-1.7,0.1-2.2-0.7-2.2-2.6l-0.1-41.8c-0.1,0.3-1.7,7.1-2.7,10.1
		l-7.1,20.9c-0.7,1.8-1.5,2.9-3.1,2.9l-6.8,0.4c-1.6,0.1-2.5-1-3.1-2.7l-8.4-22.4c-1-2.4-2.2-7.6-2.3-8.4l0.1,43.1
		c0,1.9-0.6,2.9-2.4,3l-7.9,0.5c-1.8,0.1-2.4-0.8-2.4-2.7l-0.1-72.8c0-2,0.6-2.9,2.4-2.8l7.9,0.1c1.3,0,1.8,0.6,2.2,1.6l15,39.4
		c1.2,3,2.4,7.8,2.4,7.8s1.2-4.4,2.5-7.8l13.8-39.1c0.4-1,1-1.3,2.1-1.3l7.6,0.1c1.6,0,2.2,0.9,2.2,2.7L73.1,192.4z"/>
	<path class="st0" d="M101.3,148.4c0.5,1.7,1.4,5.1,1.4,5.5c0.1-0.4,0.8-3.9,1.5-5.6l8.8-23.7c0.5-1.4,1-2.6,2.4-2.5l7,0.1
		c1.4,0,2.1,1,1.4,2.6l-15.3,40.9l0,24.5c0,1.8-0.5,2.6-2,2.7l-7.3,0.5c-1.5,0.1-2.1-0.7-2.1-2.5l0-23.1l-16.5-43.6
		c-0.6-1.6,0-2.7,1.5-2.7l8.6,0.1c1.5,0,2.1,1.1,2.6,2.7L101.3,148.4z"/>
	<path class="st0" d="M164.1,174.1c0,8.2-3.9,16.1-17.4,17c-13.9,0.9-18.2-6.8-18.2-15.4l0-37.6c0-8.5,4.2-16.5,18.1-16.3
		c13.5,0.2,17.4,8,17.4,16.2l0,4.7c0,1.8-0.4,2.4-1.7,2.5l-6.1,0.1c-1.3,0-1.9-0.7-1.9-2.4l0-2.4c0-4.9-2.6-7.4-7.6-7.4
		c-5.1,0-7.7,2.5-7.7,7.5l0,32.3c0,5,2.6,7.4,7.7,7.1c5-0.3,7.6-2.9,7.6-7.8l0-3.7c0-1.8,0.5-2.5,1.8-2.5l6.1-0.2
		c1.2,0,1.7,0.6,1.7,2.4L164.1,174.1z"/>
	<path class="st0" d="M171.2,138c0-8.1,4.4-15.7,16.9-15.4c12.1,0.2,16.2,7.6,16.2,15.4l0,34.2c0,7.8-4.1,15.3-16.2,16.2
		c-12.5,0.8-16.9-6.5-16.9-14.6L171.2,138z M195.4,140.2c0-4.7-2.8-7-7.3-7c-4.6,0-7.4,2.4-7.4,7.1l0,30.7c0,4.8,2.8,7,7.4,6.8
		c4.5-0.2,7.3-2.7,7.3-7.4L195.4,140.2z"/>
	<path class="st0" d="M242.6,181.8c0,1.5-0.4,2.2-1.4,2.3l-4.7,0.3c-0.8,0.1-1.1-0.2-1.4-1l-11.8-29.1c-1.7-4-2.4-7-2.5-7.3l0,36.1
		c0,1.5-0.4,2.3-1.5,2.4l-5,0.3c-1.1,0.1-1.5-0.6-1.5-2.2l-0.1-57.6c0-1.6,0.4-2.3,1.5-2.3l5,0.1c0.7,0,1.1,0.3,1.3,0.9l12.4,30.9
		c1,2.6,2.1,6.2,2.1,6.2l0-35.5c0-1.5,0.4-2.2,1.4-2.2l4.7,0.1c1.1,0,1.4,0.7,1.4,2.2L242.6,181.8z"/>
	<path class="st0" d="M272.4,124.8c0.9,0,1.4,0.5,1.4,2l0,5.3c0,1.5-0.4,2.1-1.3,2.1l-14.1,0l0,13.9l13.2-0.2c1,0,1.4,0.5,1.4,2
		l0,5.4c0,1.5-0.4,2.1-1.4,2.1l-13.2,0.4l0,22.9c0,1.5-0.3,2.3-1.4,2.3l-5,0.3c-1,0.1-1.4-0.6-1.4-2.2l-0.1-54.5
		c0-1.6,0.3-2.2,1.4-2.2L272.4,124.8z"/>
	<path class="st0" d="M286.5,179c0,1.5-0.3,2.2-1.2,2.2l-4.6,0.3c-1,0.1-1.3-0.6-1.3-2.1l-0.1-52.3c0-1.5,0.3-2.2,1.3-2.1l4.6,0.1
		c0.9,0,1.2,0.7,1.3,2.2L286.5,179z"/>
	<path class="st0" d="M315,151c0.8,0,1.2,0.4,1.2,1.9l0,14c0,6.6-2.6,13-11.3,13.6c-9,0.6-11.8-5.7-11.8-12.5l0-30.2
		c0-6.9,2.7-13.3,11.8-13.1c8.8,0.2,11.4,6.4,11.4,13.1l0,3.2c0,1.3-0.3,2-1.1,2l-4,0c-0.9,0-1.2-0.6-1.2-2l0-1.3c0-4-1.7-6-5-6
		c-3.3,0-5,2-5,6l0,26c0,4,1.7,6,5,5.8c3.3-0.2,5-2.3,5-6.2l0-5.3l-4.8,0.2c-0.9,0-1.3-0.4-1.3-1.9l0-5.1c0-1.4,0.4-1.9,1.3-2
		L315,151z"/>
	<path class="st0" d="M327.9,164.5c0,3.9,1.8,5.7,4.9,5.6c3-0.2,4.9-2.2,4.9-6l0-36.2c0-1.4,0.3-2,1.1-2l3.8,0.1c0.8,0,1,0.6,1,2
		l0,37.7c0,6.3-2.7,12.5-10.8,13c-8.3,0.6-11.2-5.4-11.2-12l0-39c0-1.4,0.3-2,1.2-2l4,0.1c0.8,0,1.1,0.6,1.1,2L327.9,164.5z"/>
	<path class="st0" d="M355.1,157.4l0,17.3c0,1.3-0.2,1.9-1,2l-3.7,0.2c-0.8,0.1-1-0.5-1-1.9l0-47c0-1.3,0.3-1.9,1-1.9l8.8,0.2
		c7.4,0.1,9.9,5.9,9.9,12l0,6.9c0,4.3-1.2,8.4-4.4,10.6l4.4,18.1c0.3,1.1-0.2,1.9-0.9,1.9l-3.6,0.2c-0.6,0-0.7-0.7-1-1.8l-4-16.9
		l-0.2,0L355.1,157.4z M355.1,134.5l0,14.6l4.1-0.1c2.8-0.1,4.4-1.9,4.4-5.6l0-3.4c0-3.7-1.7-5.5-4.4-5.5L355.1,134.5z"/>
	<path class="st0" d="M383.7,126.7c0.7,0,1,0.6,1.2,1.8l7,44c0.2,1.1,0,1.7-0.7,1.8l-3.4,0.2c-0.6,0-0.9-0.6-1.1-1.7l-1.3-8.5
		l-7.1,0.3l-1.4,8.8c-0.2,1.2-0.5,1.8-1.2,1.9l-3.2,0.2c-0.7,0-1-0.6-0.8-1.8l7.3-45.3c0.2-1.2,0.5-1.8,1.2-1.8L383.7,126.7z
		 M383,148.9c-0.5-2.9-1.1-11.9-1.1-12.9c-0.1,0.9-0.7,9.9-1.2,12.8l-1.3,8l4.9-0.2L383,148.9z"/>
</g>
</svg>
