<svg xmlns="http://www.w3.org/2000/svg" height="18" viewBox="0 0 18 18" width="18">
  <defs>
    <style>
      .a {
        fill: #6E6E6E;
      }
    </style>
  </defs>
  <title>S News 18 N</title>
  <rect id="Canvas" fill="#ff13dc" opacity="0" width="18" height="18" /><path class="a" d="M16.5,3H2.5a.5.5,0,0,0-.5.5v10a.5.5,0,0,1-1,0V5.25A.25.25,0,0,0,.75,5H.25A.25.25,0,0,0,0,5.25V13.5A1.5,1.5,0,0,0,1.5,15h14A1.5,1.5,0,0,0,17,13.5V3.5A.5.5,0,0,0,16.5,3Zm-1,11H3V4H16v9.5A.5.5,0,0,1,15.5,14Z" />
  <rect class="a" height="1" width="5" x="10" y="6" />
  <rect class="a" height="1" width="5" x="10" y="10" />
  <rect class="a" height="1" width="5" x="4" y="12" />
  <rect class="a" height="1" width="5" x="10" y="8" />
  <rect class="a" height="1" width="5" x="10" y="12" />
  <rect class="a" height="5" width="5" x="4" y="6" />
</svg>