<?xml version="1.0" encoding="iso-8859-1"?>
<!-- Generator: Adobe Illustrator 19.0.0, SVG Export Plug-In . SVG Version: 6.00 Build 0)  -->
<svg version="1.1" id="Capa_1" xmlns="http://www.w3.org/2000/svg" xmlns:xlink="http://www.w3.org/1999/xlink" x="0px" y="0px"
	 viewBox="0 0 384 384" style="enable-background:new 0 0 384 384;" xml:space="preserve">
<g>
	<g>
		<path d="M357.116,86.819c-0.092-0.069,0.026-0.172-0.095-0.236l-160-85.333c-3.125-1.667-6.917-1.667-10.042,0l-160,85.333
			c-0.121,0.064-0.003,0.167-0.095,0.236c-3.258,1.826-5.551,5.177-5.551,9.181v192c0,3.938,2.167,7.563,5.646,9.417l160,85.333
			c0.039,0.021,0.081-0.118,0.121-0.111c1.547,0.809,3.204,1.361,4.9,1.361c1.729,0,3.458-0.417,5.021-1.25l160-85.333
			c3.479-1.854,5.646-5.479,5.646-9.417V96C362.667,91.996,360.374,88.645,357.116,86.819z M181.333,355.551L42.667,281.604v-167.82
			l138.667,73.954V355.551z M249.325,138.668L111.996,65.426l22.678-12.094l137.329,73.242L249.325,138.668z"/>
	</g>
</g>
<g>
</g>
<g>
</g>
<g>
</g>
<g>
</g>
<g>
</g>
<g>
</g>
<g>
</g>
<g>
</g>
<g>
</g>
<g>
</g>
<g>
</g>
<g>
</g>
<g>
</g>
<g>
</g>
<g>
</g>
</svg>
