<svg width="105.141" height="35.5796" viewBox="0 0 105.141 35.5796" fill="none" xmlns="http://www.w3.org/2000/svg">
<g id="Group">
<path id="Vector" d="M71.0593 7.72555C71.2163 8.14598 71.4519 8.51387 71.7398 8.80292C72.0277 9.09197 72.3679 9.32847 72.7605 9.48613C73.1531 9.64379 73.598 9.72263 74.0691 9.72263C74.5926 9.72263 75.0375 9.64379 75.4563 9.45985C75.8751 9.27591 76.2415 9.03942 76.5294 8.72409C76.8173 8.40876 77.0528 8.04088 77.2099 7.62044C77.3669 7.2 77.4454 6.72701 77.4454 6.22774C77.4454 5.78102 77.3669 5.36058 77.236 4.94015C77.1052 4.51971 76.8958 4.12555 76.6079 3.81022C76.32 3.46861 75.9536 3.20584 75.4825 2.99562C75.0114 2.7854 74.4879 2.68029 73.8336 2.68029C73.2316 2.68029 72.682 2.7854 72.1585 2.96934C71.6351 3.15328 71.2425 3.38978 70.9284 3.62628L71.4519 4.54598C71.7659 4.30949 72.1323 4.12555 72.5511 3.99416C72.9699 3.86277 73.3886 3.78394 73.8074 3.78394C74.1738 3.78394 74.5141 3.8365 74.7758 3.94161C75.0637 4.04672 75.2731 4.1781 75.4825 4.36204C75.6918 4.54599 75.8227 4.7562 75.9274 4.96642C76.0321 5.20292 76.1106 5.43942 76.163 5.70219H70.7975C70.7975 5.78102 70.7714 5.88613 70.7714 5.96496C70.7714 6.07007 70.7714 6.17518 70.7714 6.30657C70.7975 6.80584 70.876 7.30511 71.0593 7.72555ZM76.2153 6.70073C76.163 6.98978 76.0844 7.22628 75.9536 7.46277C75.8227 7.69927 75.6657 7.90949 75.4825 8.06715C75.2993 8.22482 75.0899 8.3562 74.8543 8.46131C74.6188 8.56642 74.357 8.61898 74.0691 8.61898C73.5195 8.61898 73.0746 8.46131 72.682 8.11971C72.3156 7.7781 72.1062 7.30511 72.0538 6.70073H76.2153V6.70073Z" fill="var(--fill-0, white)"/>
<path id="Vector_2" d="M69.3319 0H68.1279V9.53869H69.3319V0Z" fill="var(--fill-0, white)"/>
<path id="Vector_3" d="M79.3299 7.17372C79.3299 7.96204 79.5131 8.5927 79.8533 9.03942C80.1936 9.48613 80.7432 9.72263 81.476 9.72263C81.7901 9.72263 82.1042 9.67007 82.4183 9.59124C82.7323 9.48613 83.0202 9.35474 83.2558 9.1708L82.8109 8.22482C82.6276 8.3562 82.4444 8.43504 82.2351 8.51387C82.0257 8.5927 81.8163 8.61898 81.6069 8.61898C81.2143 8.61898 80.9264 8.48759 80.7694 8.25109C80.6123 8.0146 80.5338 7.67299 80.5338 7.27883V3.81022H82.9155V2.7854H80.5338V0.394161H79.3299V2.7854H78.1259V3.81022H79.3299V7.17372Z" fill="var(--fill-0, white)"/>
<path id="Vector_4" d="M57.3713 1.78664C57.6069 1.78664 57.8163 1.70781 57.9733 1.55015C58.1303 1.39248 58.2089 1.18226 58.2089 0.919489C58.2089 0.682993 58.1303 0.472774 57.9733 0.31511C57.8163 0.157445 57.6069 0.0786133 57.3713 0.0786133C57.1358 0.0786133 56.9264 0.157445 56.7432 0.31511C56.56 0.472774 56.4814 0.682993 56.4814 0.919489C56.4814 1.18226 56.56 1.39248 56.7432 1.55015C56.9002 1.70781 57.1096 1.78664 57.3713 1.78664Z" fill="var(--fill-0, white)"/>
<path id="Vector_5" d="M64.0714 9.53868L67.0551 2.7854H65.7203L63.6788 7.85693L61.6112 2.7854H60.2764L63.2339 9.53868H64.0714Z" fill="var(--fill-0, white)"/>
<path id="Vector_6" d="M51.0635 13.8746C51.0635 14.1373 51.142 14.3476 51.3252 14.5052C51.5084 14.6629 51.7178 14.7417 51.9534 14.7417C52.1889 14.7417 52.3983 14.6629 52.5553 14.5052C52.7124 14.3476 52.7909 14.1373 52.7909 13.8746C52.7909 13.6381 52.7124 13.4279 52.5553 13.2702C52.3983 13.1125 52.1889 13.0337 51.9534 13.0337C51.7178 13.0337 51.5084 13.1125 51.3252 13.2702C51.142 13.4279 51.0635 13.6381 51.0635 13.8746Z" fill="var(--fill-0, white)"/>
<path id="Vector_7" d="M53.5239 8.67164C53.8379 8.98696 54.2044 9.24974 54.6493 9.43368C55.0942 9.61762 55.5653 9.72273 56.0888 9.72273C56.6123 9.72273 57.0834 9.61762 57.5021 9.43368C57.9471 9.24974 58.3135 8.98696 58.6276 8.67164C58.9416 8.35631 59.1772 7.98842 59.3604 7.54171C59.5436 7.09499 59.6221 6.64828 59.6221 6.14901C59.6221 5.64974 59.5436 5.20302 59.3604 4.78258C59.1772 4.36215 58.9416 3.96799 58.6276 3.65266C58.3135 3.33733 57.9471 3.07456 57.5021 2.89061C57.0834 2.70667 56.5861 2.60156 56.0888 2.60156C55.5915 2.60156 55.0942 2.70667 54.6493 2.89061C54.2044 3.07456 53.8379 3.33733 53.5239 3.65266C53.2098 3.96799 52.9742 4.33587 52.791 4.78258C52.6078 5.20302 52.5293 5.67602 52.5293 6.14901C52.5293 6.64828 52.6078 7.09499 52.791 7.54171C52.9742 7.98842 53.2098 8.35631 53.5239 8.67164ZM53.9165 5.2293C54.0473 4.94025 54.2044 4.67748 54.4137 4.46726C54.6231 4.25704 54.8587 4.0731 55.1466 3.94171C55.4345 3.81032 55.7486 3.73149 56.0626 3.73149C56.3767 3.73149 56.6908 3.81032 56.9787 3.94171C57.2666 4.0731 57.5021 4.25704 57.7115 4.46726C57.9209 4.67748 58.0779 4.94025 58.2088 5.2293C58.3397 5.51835 58.392 5.83368 58.392 6.17529C58.392 6.51689 58.3397 6.83222 58.2088 7.12127C58.0779 7.41032 57.9209 7.6731 57.7115 7.90959C57.5021 8.11981 57.2666 8.30375 56.9787 8.43514C56.6908 8.56653 56.3767 8.64536 56.0626 8.64536C55.7224 8.64536 55.4345 8.56653 55.1466 8.43514C54.8587 8.30375 54.6231 8.11981 54.4137 7.90959C54.2044 7.6731 54.0473 7.4366 53.9165 7.12127C53.7856 6.83222 53.7332 6.51689 53.7332 6.17529C53.7332 5.83368 53.8118 5.51835 53.9165 5.2293Z" fill="var(--fill-0, white)"/>
<path id="Vector_8" d="M54.8586 1.78664C55.0942 1.78664 55.3036 1.70781 55.4606 1.55015C55.6176 1.39248 55.6962 1.18226 55.6962 0.919489C55.6962 0.682993 55.6176 0.472774 55.4606 0.31511C55.3036 0.157445 55.0942 0.0786133 54.8586 0.0786133C54.6231 0.0786133 54.4137 0.157445 54.2305 0.31511C54.0734 0.472774 53.9688 0.682993 53.9688 0.919489C53.9688 1.18226 54.0473 1.39248 54.2305 1.55015C54.4137 1.70781 54.6231 1.78664 54.8586 1.78664Z" fill="var(--fill-0, white)"/>
<path id="Vector_9" d="M48.8385 9.22336C49.3882 9.01314 49.8331 8.69781 50.2257 8.30365C50.5921 7.90949 50.88 7.41022 51.0894 6.83212C51.2988 6.25401 51.4035 5.62336 51.4035 4.91387C51.4035 4.20438 51.2988 3.54745 51.1156 2.96934C50.9062 2.39124 50.6444 1.89197 50.2519 1.49781C49.8854 1.10365 49.4405 0.788321 48.8909 0.551825C48.3674 0.341606 47.7654 0.210219 47.1111 0.210219H43.6563V9.53869H46.9802C47.6869 9.53869 48.2889 9.43358 48.8385 9.22336ZM44.9126 1.41898H47.0326C47.5299 1.41898 47.9748 1.49781 48.3412 1.68175C48.7077 1.86569 49.0479 2.10219 49.2835 2.41752C49.5452 2.73285 49.7284 3.10073 49.8593 3.49489C49.9901 3.91533 50.0425 4.36204 50.0425 4.86131C50.0425 5.36058 49.9901 5.8073 49.8593 6.22774C49.7284 6.64818 49.5452 7.01606 49.2835 7.33139C49.0217 7.64672 48.7077 7.88321 48.3412 8.06715C47.9748 8.2511 47.5299 8.32993 47.0326 8.32993H44.9126V1.41898Z" fill="var(--fill-0, white)"/>
<path id="Vector_10" d="M52.5291 15.7139H51.3252V22.4672H52.5291V15.7139Z" fill="var(--fill-0, white)"/>
<path id="Vector_11" d="M101.865 15.5299C101.42 15.5299 101.027 15.635 100.713 15.819C100.399 16.0029 100.137 16.3182 99.9279 16.7124V15.7139H98.7763V22.4672H99.9802V18.8934C99.9802 18.5255 100.033 18.1839 100.137 17.9212C100.242 17.6321 100.373 17.4219 100.53 17.238C100.713 17.054 100.896 16.9226 101.132 16.8438C101.341 16.765 101.603 16.7124 101.839 16.7124C102.074 16.7124 102.31 16.765 102.545 16.8175L102.65 15.635C102.519 15.5825 102.362 15.5562 102.231 15.5562C102.126 15.5299 101.996 15.5299 101.865 15.5299Z" fill="var(--fill-0, white)"/>
<path id="Vector_12" d="M82.0516 28.616H80.8477V35.3693H82.0516V28.616Z" fill="var(--fill-0, white)"/>
<path id="Vector_13" d="M81.2667 19.1036C81.2667 18.6569 81.1882 18.2365 81.0573 17.8161C80.9264 17.3956 80.717 17.0015 80.4291 16.6861C80.1412 16.3445 79.7748 16.0818 79.3037 15.8715C78.8588 15.6613 78.3091 15.5562 77.6548 15.5562C77.0528 15.5562 76.5032 15.6613 75.9798 15.8453C75.4563 16.0292 75.0637 16.2657 74.7496 16.5022L75.2731 17.4219C75.5872 17.1854 75.9536 17.0015 76.3723 16.8701C76.7911 16.7387 77.2099 16.6599 77.6025 16.6599C77.9689 16.6599 78.3091 16.7124 78.5709 16.8175C78.8588 16.9226 79.0943 17.054 79.2775 17.238C79.4607 17.4219 79.6178 17.6321 79.7225 17.8423C79.8272 18.0788 79.9057 18.3153 79.958 18.5781H74.5926C74.5926 18.6569 74.5664 18.762 74.5664 18.8409C74.5664 18.946 74.5402 19.0511 74.5402 19.1825C74.5402 19.7343 74.6188 20.2073 74.7758 20.6277C74.9328 21.0482 75.1684 21.4161 75.4563 21.7051C75.7442 21.9942 76.0844 22.2307 76.477 22.3883C76.8696 22.546 77.3146 22.6248 77.7857 22.6248C78.3091 22.6248 78.7541 22.546 79.1728 22.362C79.5916 22.1781 79.958 21.9416 80.2459 21.6263C80.5338 21.3109 80.7694 20.9431 80.9264 20.4963C81.162 20.0759 81.2667 19.6029 81.2667 19.1036ZM79.7225 20.3912C79.5916 20.6277 79.4346 20.838 79.2514 20.9956C79.0681 21.1533 78.8588 21.3109 78.6232 21.3898C78.3877 21.4949 78.1259 21.5474 77.838 21.5474C77.2884 21.5474 76.8435 21.3898 76.4509 21.0482C76.0583 20.7066 75.8751 20.2336 75.8227 19.6292H79.9842C79.958 19.892 79.8533 20.1547 79.7225 20.3912Z" fill="var(--fill-0, white)"/>
<path id="Vector_14" d="M86.0563 21.4161C85.8469 21.4949 85.6375 21.5212 85.4281 21.5212C85.0356 21.5212 84.7477 21.3898 84.5906 21.1533C84.4336 20.9168 84.3551 20.5752 84.3551 20.181V16.7387H86.7368V15.7139H84.3551V13.3226H83.1511V15.7139H81.9472V16.7387H83.1511V20.1022C83.1511 20.8905 83.3343 21.5212 83.6746 21.9679C84.0148 22.4146 84.5644 22.6511 85.2973 22.6511C85.6114 22.6511 85.9254 22.5985 86.2395 22.5197C86.5536 22.4146 86.8415 22.2832 87.077 22.0993L86.6321 21.1533C86.4489 21.2321 86.2395 21.3372 86.0563 21.4161Z" fill="var(--fill-0, white)"/>
<path id="Vector_15" d="M78.9901 25.8306H77.7861V35.3693H78.9901V25.8306Z" fill="var(--fill-0, white)"/>
<path id="Vector_16" d="M96.525 16.66C96.2371 16.3184 95.8707 16.0556 95.3996 15.8454C94.9285 15.6351 94.405 15.53 93.7507 15.53C93.1487 15.53 92.5991 15.6351 92.0756 15.8191C91.5522 16.003 91.1596 16.2395 90.8455 16.476L91.369 17.3957C91.683 17.1592 92.0495 16.9753 92.4682 16.8439C92.887 16.7125 93.3058 16.6337 93.7245 16.6337C94.0909 16.6337 94.4312 16.6862 94.6929 16.7913C94.9808 16.8965 95.1902 17.0278 95.3996 17.2118C95.5828 17.3957 95.7398 17.6059 95.8445 17.8162C95.9492 18.0527 96.0277 18.2892 96.0801 18.5519H90.7147C90.7147 18.6308 90.6885 18.7359 90.6885 18.8147C90.6885 18.9198 90.6885 19.0249 90.6885 19.1563C90.6885 19.7081 90.767 20.1811 90.924 20.6016C91.0811 21.022 91.3166 21.3899 91.6045 21.6789C91.8924 21.968 92.2327 22.2045 92.6253 22.3621C93.0179 22.5198 93.4628 22.5986 93.9339 22.5986C94.4574 22.5986 94.9023 22.5198 95.3211 22.3359C95.7398 22.1519 96.1063 21.9154 96.3942 21.6001C96.6821 21.2848 96.9176 20.9169 97.0746 20.4702C97.2317 20.0497 97.3102 19.5767 97.3102 19.0775C97.3102 18.6308 97.2317 18.2103 97.1008 17.7899C97.0223 17.3694 96.8129 16.9753 96.525 16.66ZM95.8445 20.3913C95.7137 20.6278 95.5566 20.8381 95.3734 20.9957C95.1902 21.1534 94.9808 21.3111 94.7453 21.3899C94.5097 21.495 94.248 21.5475 93.9601 21.5475C93.4105 21.5475 92.9655 21.3899 92.5729 21.0483C92.2065 20.7067 91.9971 20.2337 91.9448 19.6293H96.1063C96.0539 19.8921 95.9754 20.1548 95.8445 20.3913Z" fill="var(--fill-0, white)"/>
<path id="Vector_17" d="M104.901 13.2702C104.744 13.1125 104.535 13.0337 104.299 13.0337C104.063 13.0337 103.854 13.1125 103.671 13.2702C103.488 13.4279 103.409 13.6381 103.409 13.8746C103.409 14.1373 103.488 14.3476 103.671 14.5052C103.854 14.6629 104.063 14.7417 104.299 14.7417C104.535 14.7417 104.744 14.6629 104.901 14.5052C105.058 14.3476 105.137 14.1373 105.137 13.8746C105.163 13.6381 105.084 13.4279 104.901 13.2702Z" fill="var(--fill-0, white)"/>
<path id="Vector_18" d="M89.2499 12.9021H88.0459V22.4408H89.2499V12.9021Z" fill="var(--fill-0, white)"/>
<path id="Vector_19" d="M74.7492 29.6147C74.4613 29.2468 74.1211 28.9578 73.7023 28.7738C73.3097 28.5636 72.8648 28.4585 72.3675 28.4585C71.8702 28.4585 71.4253 28.5373 71.0327 28.7213C70.6139 28.9052 70.2737 29.1417 69.9596 29.457C69.6455 29.7724 69.4361 30.1402 69.2529 30.5607C69.0959 30.9811 68.9912 31.4541 68.9912 31.9534C68.9912 32.4527 69.0697 32.9256 69.2529 33.3724C69.41 33.8191 69.6455 34.187 69.9596 34.5023C70.2737 34.8176 70.6139 35.0804 71.0327 35.2643C71.4515 35.4483 71.8964 35.5534 72.3675 35.5534C72.8648 35.5534 73.3097 35.4483 73.7023 35.2643C74.0949 35.0804 74.4352 34.7913 74.7492 34.4235V35.3957H75.9008V28.6424H74.7492V29.6147ZM74.6707 32.9256C74.566 33.2147 74.409 33.4775 74.1996 33.714C73.9902 33.9242 73.7547 34.1081 73.4668 34.2395C73.1789 34.3709 72.8648 34.4235 72.4984 34.4235C72.1581 34.4235 71.8179 34.3446 71.5561 34.2395C71.2682 34.1081 71.0327 33.9242 70.8233 33.714C70.6139 33.5038 70.4569 33.241 70.3522 32.9256C70.2475 32.6366 70.1952 32.3213 70.1952 31.9797C70.1952 31.6381 70.2475 31.349 70.3522 31.0337C70.4569 30.7446 70.6139 30.4819 70.8233 30.2716C71.0327 30.0614 71.2682 29.8775 71.5561 29.7461C71.844 29.6147 72.1581 29.5359 72.4984 29.5359C72.8648 29.5359 73.1789 29.6147 73.4668 29.7461C73.7547 29.8775 73.9902 30.0614 74.1996 30.2716C74.409 30.4819 74.566 30.7446 74.6707 31.0337C74.7754 31.3227 74.8278 31.6381 74.8278 31.9797C74.8278 32.3213 74.7754 32.6366 74.6707 32.9256Z" fill="var(--fill-0, white)"/>
<path id="Vector_20" d="M104.901 15.7139H103.697V22.4672H104.901V15.7139Z" fill="var(--fill-0, white)"/>
<path id="Vector_21" d="M50.2257 13.1387H48.7077L46.4568 16.765L44.2059 13.1387H42.7664L45.6978 17.7372L42.6094 22.4672H44.1012L46.4568 18.762L48.7862 22.4672H50.2519L47.1635 17.7372L50.2257 13.1387Z" fill="var(--fill-0, white)"/>
<path id="Vector_22" d="M56.7427 29.5095C56.4286 29.1942 56.0622 28.9314 55.6173 28.7474C55.1723 28.5635 54.7012 28.4584 54.204 28.4584C53.6805 28.4584 53.2094 28.5635 52.7644 28.7474C52.3195 28.9314 51.9531 29.1942 51.639 29.5095C51.3249 29.8248 51.0894 30.1927 50.9062 30.6394C50.723 31.0599 50.6444 31.5328 50.6444 32.0058C50.6444 32.5051 50.723 32.9781 50.9062 33.3985C51.0894 33.819 51.3249 34.2131 51.639 34.5285C51.9531 34.8438 52.3195 35.1066 52.7644 35.2905C53.2094 35.4745 53.6805 35.5796 54.204 35.5796C54.7274 35.5796 55.1985 35.4745 55.6173 35.2905C56.0622 35.1066 56.4286 34.8438 56.7427 34.5285C57.0568 34.2131 57.2923 33.819 57.4756 33.3985C57.6588 32.9781 57.7373 32.5051 57.7373 32.0058C57.7373 31.5066 57.6588 31.0599 57.4756 30.6394C57.2923 30.1927 57.0568 29.8248 56.7427 29.5095ZM56.3501 32.9256C56.2193 33.2146 56.0622 33.4774 55.8528 33.7139C55.6435 33.9241 55.4079 34.108 55.12 34.2394C54.8321 34.3708 54.518 34.4234 54.204 34.4234C53.8899 34.4234 53.5758 34.3445 53.2879 34.2394C53 34.108 52.7644 33.9241 52.5551 33.7139C52.3457 33.4774 52.1886 33.2409 52.0578 32.9256C51.9269 32.6365 51.8746 32.3212 51.8746 31.9796C51.8746 31.638 51.9269 31.3489 52.0578 31.0336C52.1886 30.7445 52.3457 30.4818 52.5551 30.2715C52.7644 30.0613 53 29.8774 53.2879 29.746C53.5758 29.6146 53.8899 29.5358 54.204 29.5358C54.5442 29.5358 54.8321 29.6146 55.12 29.746C55.4079 29.8774 55.6435 30.0613 55.8528 30.2715C56.0622 30.4818 56.2193 30.7445 56.3501 31.0336C56.481 31.3226 56.5333 31.638 56.5333 31.9796C56.5333 32.3212 56.4548 32.6365 56.3501 32.9256Z" fill="var(--fill-0, white)"/>
<path id="Vector_23" d="M49.0479 26.9606C48.7862 26.6978 48.4983 26.4613 48.1057 26.3037C47.7393 26.146 47.2943 26.0672 46.7709 26.0672H43.6825V35.3956H44.9388V31.7956H46.6662C47.2158 31.7956 47.6607 31.7168 48.0533 31.5591C48.4459 31.4015 48.76 31.1912 49.0217 30.9022C49.2835 30.6394 49.4667 30.3241 49.5975 29.9825C49.7284 29.6409 49.7807 29.273 49.7807 28.9051C49.7807 28.5635 49.7284 28.1956 49.5975 27.854C49.4928 27.5387 49.3096 27.2234 49.0479 26.9606ZM48.4198 29.5358C48.3412 29.746 48.2365 29.9299 48.0795 30.0876C47.9225 30.2453 47.7393 30.3766 47.5037 30.4818C47.2681 30.5869 46.9802 30.6394 46.6662 30.6394H44.9126V27.2496H46.8232C47.1111 27.2496 47.3467 27.3022 47.556 27.381C47.7654 27.4861 47.9486 27.5912 48.0795 27.7489C48.2104 27.9066 48.3151 28.0905 48.3936 28.2745C48.4721 28.4847 48.4983 28.6949 48.4983 28.9051C48.5244 29.1153 48.4721 29.3255 48.4198 29.5358Z" fill="var(--fill-0, white)"/>
<path id="Vector_24" d="M59.7006 21.5211V22.4671H60.9046V12.9021H59.7006V16.686C59.4127 16.3182 59.0725 16.0554 58.6799 15.8452C58.2873 15.6349 57.8423 15.5298 57.345 15.5298C56.8478 15.5298 56.4028 15.6349 56.0102 15.8189C55.5915 16.0028 55.2512 16.2656 54.9371 16.5809C54.6231 16.8963 54.3875 17.2641 54.2305 17.7109C54.0734 18.1313 53.9688 18.6043 53.9688 19.0773C53.9688 19.5766 54.0473 20.0495 54.2305 20.47C54.3875 20.9167 54.6231 21.2846 54.9371 21.5999C55.2512 21.9152 55.5915 22.178 56.0102 22.362C56.429 22.5459 56.8739 22.651 57.3712 22.651C57.8423 22.651 58.2873 22.5459 58.6799 22.362C59.0725 22.1517 59.4127 21.889 59.7006 21.5211ZM58.4443 21.3109C58.1564 21.4422 57.8423 21.4948 57.4759 21.4948C57.1095 21.4948 56.7954 21.416 56.5075 21.3109C56.2196 21.1795 55.9841 20.9955 55.7747 20.7853C55.5653 20.5488 55.4344 20.3123 55.3036 19.997C55.1989 19.7079 55.1465 19.3926 55.1465 19.051C55.1465 18.7357 55.1989 18.4203 55.3036 18.1313C55.4083 17.8422 55.5653 17.5795 55.7747 17.3693C55.9841 17.159 56.2196 16.9751 56.5075 16.8437C56.7954 16.7123 57.1095 16.6598 57.4759 16.6598C57.8162 16.6598 58.1564 16.7386 58.4443 16.8437C58.7322 16.9751 58.9678 17.159 59.1771 17.3693C59.3865 17.5795 59.5436 17.8422 59.6483 18.1313C59.7529 18.4203 59.8053 18.7357 59.8053 19.051C59.8053 19.3926 59.7529 19.7079 59.6483 19.997C59.5436 20.286 59.3865 20.5488 59.1771 20.7853C58.9678 21.0218 58.7322 21.1795 58.4443 21.3109Z" fill="var(--fill-0, white)"/>
<path id="Vector_25" d="M62.239 28.4321C61.7941 28.4321 61.4015 28.5372 61.0874 28.7212C60.7733 28.9051 60.5116 29.2204 60.3022 29.6146V28.6161H59.1506V35.3693H60.3546V31.7956C60.3546 31.4277 60.4069 31.0861 60.5116 30.8234C60.6163 30.5343 60.7472 30.3241 60.9042 30.1401C61.0874 29.9562 61.2706 29.8248 61.5062 29.746C61.7417 29.6672 61.9773 29.6146 62.2128 29.6146C62.4484 29.6146 62.6839 29.6409 62.9195 29.7197L63.0242 28.5372C62.8933 28.4847 62.7363 28.4584 62.6054 28.4584C62.5007 28.4584 62.3699 28.4321 62.239 28.4321Z" fill="var(--fill-0, white)"/>
<path id="Vector_26" d="M67.4478 34.3183C67.2384 34.3971 67.029 34.4234 66.8197 34.4234C66.4271 34.4234 66.1392 34.292 65.9821 34.0555C65.8251 33.819 65.7466 33.4774 65.7466 33.0832V29.6409H68.1283V28.6161H65.7466V26.2249H64.5165V28.6161H63.3125V29.6409H64.5165V33.0044C64.5165 33.7927 64.6997 34.4234 65.0399 34.8701C65.3802 35.3168 65.9298 35.5533 66.6626 35.5533C66.9767 35.5533 67.2908 35.5008 67.6048 35.4219C67.9189 35.3168 68.2068 35.1854 68.4424 35.0015L67.9974 34.0555C67.8404 34.1606 67.631 34.2395 67.4478 34.3183Z" fill="var(--fill-0, white)"/>
<path id="Vector_27" d="M69.6721 16.7912C69.8815 16.6861 70.1432 16.6336 70.4049 16.6336C70.9022 16.6336 71.2948 16.7912 71.5827 17.1328C71.8706 17.4745 72.0277 17.9474 72.0277 18.6044V22.4409H73.2316V18.4467C73.2316 18 73.1793 17.6058 73.0484 17.238C72.9175 16.8701 72.7343 16.581 72.4988 16.3182C72.2632 16.0555 71.9753 15.8715 71.6612 15.7401C71.321 15.6088 70.9546 15.5299 70.562 15.5299C70.0385 15.5299 69.5412 15.635 69.0963 15.8715C68.6514 16.108 68.3373 16.3971 68.1017 16.7912C67.9185 16.3708 67.6306 16.0555 67.238 15.8453C66.8454 15.635 66.4267 15.5299 65.9817 15.5299C65.5368 15.5299 65.118 15.635 64.7778 15.8453C64.4114 16.0555 64.1496 16.3445 63.9402 16.7124V15.7139H62.7625V22.4672H63.9664V18.6832C63.9664 18.3679 64.0188 18.0788 64.0973 17.8423C64.202 17.6058 64.3067 17.3693 64.4637 17.2117C64.6207 17.0277 64.804 16.8964 65.0395 16.7912C65.2751 16.6861 65.5106 16.6336 65.7723 16.6336C66.2696 16.6336 66.6622 16.8175 66.9763 17.1591C67.2642 17.527 67.4212 18 67.4212 18.6307V22.4409H68.6252V18.6569C68.6252 18.3416 68.6775 18.0788 68.7561 17.8423C68.8346 17.6058 68.9654 17.3956 69.1225 17.2117C69.2795 17.0277 69.4627 16.8964 69.6721 16.7912Z" fill="var(--fill-0, white)"/>
<path id="Vector_28" d="M31.9832 14.7153V14.2686H31.5121H25.9896C25.7279 10.0905 21.7758 6.77956 16.96 6.77956C12.1442 6.77956 8.1921 10.0905 7.93037 14.2686H2.4079H1.93679V14.7153V18.7095H0V35.527H10.6523H11.5684H14.1072V28.2745V27.8277H14.5521H19.3679H19.839V28.2745V35.527H22.3778H23.2938H33.9462V18.7095H32.0094V14.7153H31.9832ZM8.27062 32.2161H3.45481V28.2745H8.27062V32.2161V32.2161ZM8.27062 24.9898H3.45481V21.0219H8.27062V24.9898V24.9898ZM19.3679 24.9898H14.5521V21.0219H19.3679V24.9898ZM30.4652 32.2161H25.6494V28.2745H30.4652V32.2161ZM30.4652 24.9898H25.6494V21.0219H30.4652V24.9898Z" fill="var(--fill-0, white)"/>
<path id="Vector_29" d="M22.7442 0.551825H17.0647V2.10219V4.51971H22.7442V0.551825Z" fill="var(--fill-0, white)"/>
</g>
</svg>
