<svg width="150.807" height="34.6026" viewBox="0 0 150.807 34.6026" fill="none" xmlns="http://www.w3.org/2000/svg">
<g id="Group">
<path id="Vector" d="M5.11715 6.44211H2.01932L1.19324 8.62105H0L3.30435 0.189474H3.90097L7.15942 8.62105H5.94324L5.11715 6.44211ZM2.38647 5.35263H4.75L3.57971 2.17895L2.38647 5.35263ZM12.5519 7.69737V8.64474H7.64131V7.9579L11.0374 3.48158H7.84783V2.53421H12.4372V3.17368L9.06401 7.69737H12.5519ZM13.378 5.68421C13.378 5.56579 13.378 5.44737 13.401 5.35263C13.401 5.25789 13.4239 5.18684 13.4239 5.11579H18.151C18.1051 4.87895 18.0362 4.66579 17.9444 4.45263C17.8527 4.23947 17.715 4.05 17.5543 3.90789C17.3937 3.74211 17.1872 3.62368 16.9348 3.52895C16.6824 3.43421 16.407 3.38684 16.0628 3.38684C15.7186 3.38684 15.3514 3.45789 14.9614 3.57632C14.5713 3.69474 14.25 3.86053 13.9976 4.07368L13.5386 3.24474C13.814 3.03158 14.1582 2.81842 14.6171 2.65263C15.0761 2.48684 15.558 2.39211 16.0857 2.39211C16.6365 2.39211 17.1184 2.48684 17.5314 2.67632C17.9444 2.86579 18.2657 3.10263 18.5181 3.41053C18.7705 3.71842 18.9541 4.05 19.0688 4.45263C19.1836 4.83158 19.2524 5.23421 19.2524 5.63684C19.2524 6.08684 19.1836 6.51316 19.0459 6.89211C18.9082 7.27105 18.7017 7.62632 18.4493 7.91053C18.1969 8.19474 17.8756 8.4079 17.5085 8.57368C17.1413 8.73947 16.7283 8.81053 16.2693 8.81053C15.8563 8.81053 15.4662 8.73947 15.122 8.59737C14.7778 8.45526 14.4795 8.24211 14.2271 7.98158C13.9746 7.72105 13.7681 7.38947 13.6304 7.01053C13.4469 6.58421 13.378 6.15789 13.378 5.68421ZM16.2464 7.79211C16.4988 7.79211 16.7283 7.74474 16.9348 7.65C17.1413 7.55526 17.3249 7.43684 17.4855 7.29474C17.6461 7.15263 17.7838 6.96316 17.8986 6.75C18.0133 6.53684 18.0821 6.3 18.128 6.06316H14.4795C14.5254 6.60789 14.7089 7.03421 15.0302 7.34211C15.3744 7.65 15.7645 7.79211 16.2464 7.79211ZM20.4915 2.51053H21.5012V3.41053C21.6848 3.05526 21.9143 2.77105 22.1896 2.60526C22.465 2.43947 22.8092 2.34474 23.1993 2.34474C23.314 2.34474 23.4287 2.34474 23.5435 2.36842C23.6582 2.39211 23.7729 2.39211 23.9106 2.43947L23.8188 3.50526C23.6123 3.43421 23.4058 3.41053 23.1993 3.41053C22.9698 3.41053 22.7633 3.45789 22.5797 3.52895C22.3732 3.6 22.2126 3.71842 22.0519 3.88421C21.8913 4.05 21.7766 4.26316 21.7077 4.5C21.6159 4.76053 21.57 5.04474 21.57 5.4V8.64474H20.5145C20.4915 8.62105 20.4915 2.51053 20.4915 2.51053ZM27.9493 2.36842C28.3623 2.36842 28.7524 2.43947 29.1196 2.62895C29.4867 2.79474 29.785 3.03158 30.0604 3.31579C30.3357 3.6 30.5193 3.95526 30.68 4.33421C30.8176 4.73684 30.9094 5.13947 30.9094 5.58947C30.9094 6.03947 30.8406 6.46579 30.68 6.84474C30.5423 7.22368 30.3357 7.57895 30.0604 7.86316C29.808 8.14737 29.4867 8.38421 29.1196 8.55C28.7524 8.71579 28.3623 8.81053 27.9493 8.81053C27.5133 8.81053 27.1232 8.71579 26.779 8.52632C26.4348 8.33684 26.1365 8.1 25.8841 7.76842V8.66842H24.8285V0H25.8841V3.45789C26.1365 3.10263 26.4348 2.84211 26.779 2.65263C27.1002 2.46316 27.4903 2.36842 27.9493 2.36842ZM27.8116 7.74474C28.1328 7.74474 28.4082 7.69737 28.6377 7.57895C28.8901 7.46053 29.0966 7.31842 29.2802 7.10526C29.4638 6.91579 29.5785 6.67895 29.6932 6.41842C29.785 6.1579 29.8309 5.87368 29.8309 5.56579C29.8309 5.28158 29.785 4.99737 29.6932 4.73684C29.6015 4.47632 29.4638 4.23947 29.2802 4.05C29.0966 3.86053 28.8901 3.69474 28.6377 3.57632C28.3853 3.45789 28.1099 3.41053 27.8116 3.41053C27.5133 3.41053 27.215 3.45789 26.9855 3.57632C26.7331 3.69474 26.5266 3.83684 26.343 4.05C26.1594 4.23947 26.0447 4.47632 25.9529 4.73684C25.8611 4.99737 25.8152 5.28158 25.8152 5.56579C25.8152 5.87368 25.8611 6.1579 25.9529 6.41842C26.0447 6.67895 26.1824 6.91579 26.343 7.10526C26.5266 7.29474 26.7331 7.46053 26.9855 7.57895C27.2379 7.69737 27.5133 7.74474 27.8116 7.74474ZM37.8853 2.51053V8.62105H36.8756V7.74474C36.6232 8.07632 36.3019 8.31316 35.9577 8.50263C35.6135 8.66842 35.2234 8.76316 34.7874 8.76316C34.3514 8.76316 33.9614 8.69211 33.5942 8.50263C33.2271 8.33684 32.9287 8.1 32.6534 7.81579C32.378 7.53158 32.1715 7.17632 32.0338 6.77368C31.8961 6.37105 31.8043 5.94474 31.8043 5.49474C31.8043 5.04474 31.8732 4.61842 32.0338 4.21579C32.1944 3.81316 32.378 3.50526 32.6534 3.22105C32.9058 2.93684 33.2271 2.72368 33.5942 2.55789C33.9614 2.39211 34.3514 2.32105 34.7874 2.32105C35.2234 2.32105 35.6135 2.41579 35.9577 2.58158C36.3019 2.77105 36.6232 3.03158 36.8756 3.33947V2.43947C36.8756 2.51053 37.8853 2.51053 37.8853 2.51053ZM34.9022 7.76842C35.2234 7.76842 35.4988 7.72105 35.7512 7.57895C36.0036 7.43684 36.2101 7.29474 36.3937 7.10526C36.5773 6.91579 36.715 6.67895 36.8068 6.39474C36.8986 6.13421 36.9444 5.85 36.9444 5.54211C36.9444 5.2579 36.8986 4.97368 36.8068 4.68947C36.715 4.42895 36.5773 4.19211 36.3937 4.00263C36.2101 3.81316 36.0036 3.64737 35.7512 3.52895C35.4988 3.41053 35.2234 3.36316 34.9022 3.36316C34.5809 3.36316 34.3056 3.41053 34.0761 3.52895C33.8237 3.64737 33.6171 3.81316 33.4336 4.00263C33.25 4.19211 33.1123 4.42895 33.0205 4.71316C32.9287 4.97368 32.8829 5.25789 32.8829 5.56579C32.8829 5.87368 32.9287 6.1579 33.0205 6.41842C33.1123 6.67895 33.25 6.91579 33.4336 7.12895C33.6171 7.31842 33.8237 7.48421 34.0761 7.60263C34.3056 7.72105 34.5809 7.76842 34.9022 7.76842ZM44.7005 2.51053L42.2222 9.30789C41.9698 10.0184 41.6715 10.4921 41.3273 10.8C41.006 11.0842 40.6159 11.2263 40.157 11.2263C39.9734 11.2263 39.7899 11.2026 39.6292 11.1553C39.4686 11.1079 39.3309 11.0605 39.2162 10.9895L39.3539 10.0421C39.4686 10.0895 39.5604 10.1368 39.6981 10.1605C39.8357 10.1842 39.9505 10.2079 40.0652 10.2079C40.2947 10.2079 40.5242 10.1368 40.7077 9.97105C40.8913 9.80526 41.0749 9.52105 41.2355 9.14211L41.465 8.59737L38.8949 2.48684H40.1341L41.9698 7.08158L43.5531 2.48684L44.7005 2.51053ZM48.4179 8.76316C47.9589 8.76316 47.5459 8.69211 47.1558 8.52632C46.7657 8.36053 46.4444 8.14737 46.1691 7.86316C45.8937 7.57895 45.6872 7.24737 45.5266 6.84474C45.3659 6.44211 45.2971 6.01579 45.2971 5.56579C45.2971 5.11579 45.3659 4.66579 45.5266 4.28684C45.6872 3.88421 45.8937 3.55263 46.192 3.26842C46.4903 2.98421 46.8116 2.77105 47.2017 2.60526C47.5918 2.43947 48.0278 2.36842 48.4867 2.36842C48.7621 2.36842 49.0604 2.41579 49.3357 2.48684C49.6111 2.55789 49.8635 2.67632 50.093 2.81842C50.3225 2.96053 50.529 3.12632 50.7355 3.31579C50.9191 3.50526 51.0797 3.74211 51.1944 3.97895L50.3225 4.5C50.1389 4.14474 49.8865 3.88421 49.5652 3.67105C49.244 3.45789 48.8998 3.36316 48.5097 3.36316C48.2114 3.36316 47.936 3.41053 47.6606 3.52895C47.4082 3.64737 47.1787 3.78947 46.9952 4.00263C46.8116 4.19211 46.651 4.42895 46.5592 4.71316C46.4444 4.97368 46.3986 5.28158 46.3986 5.58947C46.3986 5.89737 46.4444 6.18158 46.5592 6.46579C46.6739 6.72632 46.8116 6.96316 46.9952 7.15263C47.1787 7.34211 47.3853 7.5079 47.6377 7.62632C47.8901 7.74474 48.1655 7.79211 48.4638 7.79211C48.8309 7.79211 49.1981 7.69737 49.5423 7.48421C49.8865 7.27105 50.1389 7.01053 50.2995 6.70263L51.1944 7.22368C51.0797 7.46053 50.9191 7.67368 50.7355 7.86316C50.5519 8.05263 50.3225 8.21842 50.093 8.36053C49.8635 8.50263 49.6111 8.59737 49.3357 8.66842C49.0604 8.73947 48.7162 8.76316 48.4179 8.76316ZM58.0097 2.51053V8.62105H57V7.74474C56.7476 8.07632 56.4263 8.31316 56.0821 8.50263C55.7379 8.66842 55.3478 8.76316 54.9118 8.76316C54.4758 8.76316 54.0857 8.69211 53.7415 8.50263C53.3744 8.33684 53.0761 8.1 52.8007 7.81579C52.5254 7.53158 52.3188 7.17632 52.1812 6.77368C52.0435 6.37105 51.9517 5.94474 51.9517 5.49474C51.9517 5.04474 52.0205 4.61842 52.1812 4.21579C52.3188 3.83684 52.5254 3.50526 52.8007 3.22105C53.0761 2.93684 53.3744 2.72368 53.7415 2.55789C54.1087 2.39211 54.4988 2.32105 54.9118 2.32105C55.3478 2.32105 55.7379 2.41579 56.0821 2.58158C56.4263 2.77105 56.7476 3.03158 57 3.33947V2.43947C56.9771 2.51053 58.0097 2.51053 58.0097 2.51053ZM55.0036 7.76842C55.3249 7.76842 55.6002 7.72105 55.8527 7.57895C56.1051 7.46053 56.3116 7.29474 56.4952 7.10526C56.6787 6.91579 56.8164 6.67895 56.9082 6.39474C57 6.13421 57.0459 5.85 57.0459 5.54211C57.0459 5.2579 57 4.97368 56.9082 4.68947C56.8164 4.42895 56.6787 4.19211 56.4952 4.00263C56.3116 3.81316 56.1051 3.64737 55.8527 3.52895C55.6002 3.41053 55.3249 3.36316 55.0036 3.36316C54.6824 3.36316 54.407 3.41053 54.1775 3.52895C53.9251 3.64737 53.7186 3.81316 53.535 4.00263C53.3514 4.19211 53.2138 4.42895 53.122 4.71316C53.0302 4.97368 52.9843 5.25789 52.9843 5.56579C52.9843 5.87368 53.0302 6.1579 53.122 6.41842C53.2138 6.67895 53.3514 6.91579 53.535 7.12895C53.7186 7.31842 53.9251 7.48421 54.1775 7.60263C54.4299 7.72105 54.7053 7.76842 55.0036 7.76842ZM59.6618 2.51053H60.6944V3.38684C60.878 3.05526 61.1304 2.79474 61.4517 2.62895C61.7729 2.46316 62.163 2.36842 62.5761 2.36842C62.8973 2.36842 63.1727 2.41579 63.471 2.51053C63.7464 2.60526 63.9988 2.77105 64.2283 2.98421C64.4348 3.19737 64.6184 3.45789 64.756 3.78947C64.8937 4.12105 64.9396 4.5 64.9396 4.92632V8.62105H63.8841V5.23421C63.8841 4.61842 63.7464 4.14474 63.4481 3.83684C63.1498 3.52895 62.8056 3.36316 62.3696 3.36316C62.1171 3.36316 61.9106 3.41053 61.7041 3.50526C61.4976 3.6 61.337 3.71842 61.1993 3.88421C61.0616 4.05 60.9469 4.23947 60.8551 4.47632C60.7633 4.71316 60.7403 4.95 60.7403 5.23421V8.62105H59.6848L59.6618 2.51053ZM71.663 5.21053H70.5387V8.64474H69.4372V0.189474H72.2138C72.6498 0.189474 73.0169 0.260526 73.3382 0.402632C73.6594 0.544737 73.9348 0.73421 74.1413 0.971053C74.3478 1.20789 74.5085 1.46842 74.6232 1.77632C74.7379 2.08421 74.7838 2.39211 74.7838 2.7C74.7838 2.96053 74.7379 3.22105 74.6691 3.48158C74.6002 3.74211 74.4626 3.97895 74.3249 4.19211C74.1643 4.40526 73.9577 4.59474 73.7283 4.76053C73.4988 4.92632 73.2234 5.04474 72.9022 5.11579L75.1739 8.62105H73.8201L71.663 5.21053ZM70.5387 4.12105H72.0072C72.3056 4.12105 72.558 4.07368 72.7645 4.00263C72.971 3.9079 73.1546 3.81316 73.2693 3.67105C73.407 3.52895 73.4988 3.38684 73.5447 3.22105C73.6135 3.05526 73.6365 2.86579 73.6365 2.7C73.6365 2.51053 73.6135 2.32105 73.5447 2.15526C73.4758 1.98947 73.407 1.82368 73.2923 1.70526C73.1775 1.58684 73.0169 1.46842 72.8333 1.39737C72.6498 1.32632 72.4432 1.27895 72.2138 1.27895H70.5387V4.12105ZM81.8056 5.44737C81.8056 5.56579 81.8056 5.68421 81.8056 5.77895C81.8056 5.87368 81.7826 5.94474 81.7826 6.01579H77.0556C77.1014 6.25263 77.1703 6.46579 77.2621 6.67895C77.3539 6.89211 77.4916 7.08158 77.6522 7.22368C77.8128 7.38947 78.0193 7.5079 78.2717 7.60263C78.5241 7.69737 78.7995 7.74474 79.1437 7.74474C79.4879 7.74474 79.8551 7.67368 80.2452 7.55526C80.6123 7.43684 80.9336 7.27105 81.2089 7.05789L81.6679 7.88684C81.3925 8.1 81.0483 8.31316 80.5894 8.47895C80.1304 8.64474 79.6485 8.73947 79.1208 8.73947C78.57 8.73947 78.0882 8.64474 77.6751 8.45526C77.2621 8.26579 76.9408 8.02895 76.6884 7.72105C76.436 7.41316 76.2524 7.08158 76.1377 6.70263C76.0229 6.32368 75.9541 5.92105 75.9541 5.51842C75.9541 5.06842 76.023 4.64211 76.1606 4.23947C76.2983 3.83684 76.5048 3.50526 76.7572 3.22105C77.0097 2.93684 77.3309 2.72368 77.6981 2.55789C78.0652 2.39211 78.4783 2.32105 78.9143 2.32105C79.3273 2.32105 79.7174 2.39211 80.0616 2.53421C80.4058 2.67632 80.7041 2.88947 80.9795 3.15C81.2319 3.41053 81.4384 3.74211 81.5761 4.12105C81.7367 4.54737 81.8056 4.97368 81.8056 5.44737ZM78.9602 3.33947C78.7077 3.33947 78.4783 3.38684 78.2717 3.48158C78.0652 3.57632 77.8816 3.69474 77.721 3.83684C77.5604 3.97895 77.4227 4.16842 77.308 4.38158C77.1932 4.59474 77.1244 4.83158 77.0785 5.06842H80.7271C80.6812 4.52368 80.4976 4.09737 80.1763 3.78947C79.8321 3.48158 79.4191 3.33947 78.9602 3.33947ZM84.7198 8.76316C84.5133 8.76316 84.3068 8.73947 84.1002 8.69211C83.8937 8.64474 83.6872 8.57368 83.5036 8.45526C83.3201 8.33684 83.1365 8.19474 82.9529 8.02895C82.7923 7.86316 82.6317 7.67368 82.5169 7.43684L83.2742 6.84474C83.4577 7.17632 83.6872 7.43684 83.9626 7.57895C84.2379 7.72105 84.4903 7.81579 84.7428 7.81579C85.087 7.81579 85.3394 7.72105 85.5229 7.55526C85.7065 7.38947 85.7983 7.2 85.7983 6.96316C85.7983 6.77368 85.7524 6.63158 85.6377 6.48947C85.5229 6.37105 85.4082 6.25263 85.2476 6.18158C85.1558 6.13421 85.0411 6.06316 84.9263 6.01579C84.7887 5.96842 84.651 5.89737 84.5133 5.85C84.3756 5.77895 84.2379 5.73158 84.1002 5.66053C83.9626 5.58947 83.8708 5.54211 83.756 5.49474C83.4348 5.32895 83.2053 5.09211 83.0676 4.83158C82.93 4.57105 82.8611 4.28684 82.8611 4.00263C82.8611 3.76579 82.907 3.52895 82.9988 3.31579C83.0906 3.10263 83.2053 2.93684 83.3889 2.77105C83.5495 2.62895 83.756 2.51053 84.0085 2.41579C84.2379 2.32105 84.5133 2.27368 84.8116 2.27368C85.1788 2.27368 85.5229 2.34474 85.8672 2.51053C86.2114 2.67632 86.4867 2.91316 86.6932 3.24474L86.0278 3.90789C85.8672 3.64737 85.6606 3.45789 85.4312 3.36316C85.2017 3.24474 84.9722 3.19737 84.7657 3.19737C84.4903 3.19737 84.2838 3.26842 84.1232 3.41053C83.9855 3.55263 83.9167 3.7421 83.9167 3.93158C83.9167 4.05 83.9626 4.19211 84.0314 4.31053C84.1002 4.42895 84.2379 4.54737 84.4215 4.64211C84.628 4.73684 84.8575 4.85526 85.1099 4.95C85.3853 5.06842 85.6147 5.18684 85.8672 5.30526C86.1884 5.47105 86.4179 5.68421 86.6015 5.92105C86.785 6.15789 86.8768 6.46579 86.8768 6.84474C86.8768 7.10526 86.8309 7.34211 86.7162 7.57895C86.6015 7.79211 86.4638 8.00526 86.2802 8.17105C86.0966 8.33684 85.8671 8.47895 85.5918 8.57368C85.3394 8.71579 85.0411 8.76316 84.7198 8.76316ZM91.2597 2.36842C91.6957 2.36842 92.0858 2.46316 92.4529 2.62895C92.8201 2.79474 93.1184 3.03158 93.3937 3.31579C93.6691 3.6 93.8756 3.95526 94.0133 4.33421C94.151 4.71316 94.2428 5.13947 94.2428 5.56579C94.2428 6.01579 94.1739 6.44211 94.0133 6.82105C93.8527 7.2 93.6691 7.55526 93.3937 7.83947C93.1184 8.12368 92.8201 8.36053 92.4529 8.52632C92.0858 8.69211 91.6957 8.78684 91.2597 8.78684C90.8237 8.78684 90.4106 8.69211 90.0664 8.50263C89.7222 8.31316 89.4239 8.07632 89.1486 7.74474V11.1553H88.093V2.51053H89.1486V3.43421C89.401 3.07895 89.7222 2.81842 90.0664 2.62895C90.4336 2.46316 90.8237 2.36842 91.2597 2.36842ZM91.122 7.76842C91.4203 7.76842 91.7186 7.72105 91.971 7.57895C92.2234 7.46053 92.43 7.29474 92.6135 7.10526C92.7971 6.91579 92.9348 6.67895 93.0266 6.39474C93.1184 6.13421 93.1643 5.85 93.1643 5.54211C93.1643 5.2579 93.1184 4.97368 93.0266 4.68947C92.9348 4.42895 92.7971 4.19211 92.6135 3.97895C92.43 3.76579 92.2234 3.62368 91.971 3.50526C91.7186 3.38684 91.4432 3.33947 91.122 3.33947C90.8007 3.33947 90.5254 3.38684 90.273 3.50526C90.0205 3.62368 89.814 3.78947 89.6304 3.97895C89.4469 4.16842 89.3321 4.40526 89.2174 4.66579C89.1256 4.92632 89.0797 5.21053 89.0797 5.51842C89.0797 5.82632 89.1256 6.11053 89.2174 6.37105C89.3092 6.63158 89.4469 6.86842 89.6304 7.08158C89.814 7.27105 90.0205 7.43684 90.273 7.55526C90.5254 7.72105 90.8237 7.76842 91.122 7.76842ZM97.9602 8.78684C97.5701 8.78684 97.2258 8.71579 96.9046 8.59737C96.5833 8.47895 96.3309 8.31316 96.1014 8.07632C95.872 7.83947 95.7114 7.57895 95.5966 7.24737C95.4819 6.93947 95.413 6.56053 95.413 6.15789V2.51053H96.4686V6.13421C96.4686 6.63158 96.6063 7.03421 96.8587 7.31842C97.1111 7.60263 97.4783 7.76842 97.9602 7.76842C98.442 7.76842 98.8092 7.62632 99.0616 7.31842C99.314 7.03421 99.4517 6.63158 99.4517 6.13421V2.51053H100.507V6.15789C100.507 6.96316 100.278 7.60263 99.8418 8.07632C99.4058 8.55 98.7633 8.78684 97.9602 8.78684ZM105.211 2.36842C105.624 2.36842 106.015 2.46316 106.382 2.62895C106.749 2.79474 107.047 3.03158 107.322 3.31579C107.598 3.6 107.781 3.95526 107.942 4.33421C108.08 4.73684 108.172 5.13947 108.172 5.58947C108.172 6.03947 108.103 6.46579 107.942 6.84474C107.781 7.22368 107.598 7.57895 107.322 7.86316C107.047 8.14737 106.749 8.38421 106.382 8.55C106.015 8.71579 105.624 8.81053 105.211 8.81053C104.775 8.81053 104.385 8.71579 104.018 8.52632C103.651 8.33684 103.376 8.1 103.123 7.76842V8.66842H102.068V0H103.123V3.45789C103.376 3.10263 103.674 2.84211 104.018 2.65263C104.385 2.46316 104.775 2.36842 105.211 2.36842ZM105.097 7.74474C105.395 7.74474 105.693 7.69737 105.923 7.57895C106.175 7.46053 106.382 7.31842 106.565 7.10526C106.749 6.91579 106.864 6.67895 106.978 6.41842C107.07 6.1579 107.116 5.87368 107.116 5.56579C107.116 5.28158 107.07 4.99737 106.978 4.73684C106.886 4.47632 106.749 4.23947 106.565 4.05C106.382 3.86053 106.175 3.69474 105.923 3.57632C105.67 3.45789 105.395 3.41053 105.097 3.41053C104.798 3.41053 104.5 3.45789 104.271 3.57632C104.018 3.69474 103.812 3.83684 103.628 4.05C103.444 4.23947 103.33 4.47632 103.238 4.73684C103.146 4.99737 103.1 5.28158 103.1 5.56579C103.1 5.87368 103.146 6.1579 103.238 6.41842C103.33 6.67895 103.467 6.91579 103.628 7.10526C103.812 7.29474 104.018 7.46053 104.271 7.57895C104.5 7.69737 104.775 7.74474 105.097 7.74474ZM109.457 8.62105V0H110.512V8.64474H109.457V8.62105ZM112.715 1.63421C112.508 1.63421 112.325 1.56316 112.164 1.42105C112.004 1.27895 111.935 1.08947 111.935 0.852631C111.935 0.639474 112.004 0.45 112.164 0.307895C112.325 0.165789 112.508 0.0947368 112.715 0.0947368C112.922 0.0947368 113.105 0.165789 113.243 0.307895C113.38 0.45 113.449 0.639474 113.449 0.852631C113.449 1.08947 113.38 1.27895 113.243 1.42105C113.105 1.56316 112.944 1.63421 112.715 1.63421ZM112.187 8.62105V2.51053H113.243V8.62105H112.187ZM116.501 5.77895L115.928 6.3V8.62105H114.872V0H115.928V4.99737L118.589 2.51053H120.035L117.258 5.09211L120.127 8.64474H118.727C118.727 8.62105 116.501 5.77895 116.501 5.77895ZM126.621 2.51053V8.62105H125.611V7.74474C125.359 8.07632 125.037 8.31316 124.693 8.50263C124.349 8.66842 123.959 8.76316 123.523 8.76316C123.087 8.76316 122.697 8.69211 122.33 8.50263C121.963 8.33684 121.664 8.1 121.389 7.81579C121.114 7.53158 120.907 7.17632 120.769 6.77368C120.632 6.37105 120.54 5.94474 120.54 5.49474C120.54 5.04474 120.609 4.61842 120.769 4.21579C120.93 3.81316 121.114 3.50526 121.389 3.22105C121.664 2.93684 121.963 2.72368 122.33 2.55789C122.697 2.39211 123.087 2.32105 123.523 2.32105C123.959 2.32105 124.349 2.41579 124.693 2.58158C125.037 2.77105 125.336 3.03158 125.611 3.33947V2.43947C125.588 2.51053 126.621 2.51053 126.621 2.51053ZM123.615 7.76842C123.913 7.76842 124.211 7.72105 124.464 7.57895C124.716 7.46053 124.923 7.29474 125.106 7.10526C125.29 6.91579 125.428 6.67895 125.519 6.39474C125.611 6.13421 125.657 5.85 125.657 5.54211C125.657 5.2579 125.611 4.97368 125.519 4.68947C125.428 4.42895 125.29 4.19211 125.106 4.00263C124.923 3.81316 124.716 3.64737 124.464 3.52895C124.211 3.41053 123.936 3.36316 123.615 3.36316C123.293 3.36316 123.018 3.41053 122.766 3.52895C122.513 3.64737 122.307 3.81316 122.123 4.00263C121.94 4.19211 121.802 4.42895 121.71 4.71316C121.618 4.99737 121.572 5.25789 121.572 5.56579C121.572 5.87368 121.618 6.1579 121.71 6.41842C121.802 6.67895 121.94 6.91579 122.123 7.12895C122.307 7.31842 122.513 7.48421 122.766 7.60263C123.018 7.72105 123.316 7.76842 123.615 7.76842ZM129.925 8.76316C129.719 8.76316 129.512 8.73947 129.306 8.69211C129.099 8.64474 128.893 8.57368 128.709 8.45526C128.525 8.33684 128.342 8.19474 128.158 8.02895C127.998 7.86316 127.837 7.67368 127.722 7.43684L128.479 6.84474C128.663 7.17632 128.893 7.43684 129.168 7.57895C129.443 7.72105 129.696 7.81579 129.971 7.81579C130.315 7.81579 130.568 7.72105 130.751 7.55526C130.935 7.38947 131.027 7.2 131.027 6.96316C131.027 6.77368 130.981 6.63158 130.866 6.48947C130.751 6.37105 130.636 6.25263 130.476 6.18158C130.384 6.13421 130.269 6.06316 130.155 6.01579C130.017 5.96842 129.879 5.89737 129.742 5.85C129.604 5.77895 129.466 5.73158 129.329 5.66053C129.191 5.58947 129.099 5.54211 128.984 5.49474C128.663 5.32895 128.434 5.09211 128.296 4.83158C128.158 4.57105 128.089 4.28684 128.089 4.00263C128.089 3.76579 128.135 3.52895 128.227 3.31579C128.319 3.10263 128.457 2.93684 128.617 2.77105C128.778 2.62895 128.984 2.51053 129.237 2.41579C129.466 2.32105 129.742 2.27368 130.04 2.27368C130.407 2.27368 130.751 2.34474 131.095 2.51053C131.44 2.67632 131.715 2.91316 131.922 3.24474L131.256 3.90789C131.095 3.64737 130.889 3.45789 130.659 3.36316C130.43 3.24474 130.2 3.19737 129.994 3.19737C129.719 3.19737 129.512 3.26842 129.351 3.41053C129.214 3.55263 129.145 3.7421 129.145 3.93158C129.145 4.05 129.191 4.19211 129.26 4.31053C129.328 4.42895 129.466 4.54737 129.65 4.64211C129.856 4.73684 130.086 4.85526 130.338 4.95C130.614 5.06842 130.843 5.18684 131.095 5.30526C131.417 5.47105 131.646 5.68421 131.83 5.92105C132.013 6.15789 132.105 6.46579 132.105 6.84474C132.105 7.10526 132.059 7.34211 131.944 7.57895C131.83 7.79211 131.692 8.00526 131.508 8.17105C131.325 8.33684 131.095 8.47895 130.82 8.57368C130.522 8.71579 130.246 8.76316 129.925 8.76316ZM133.275 8.62105V2.51053H134.331V8.62105H133.275ZM135.983 2.51053H137.016V3.38684C137.199 3.05526 137.452 2.79474 137.773 2.62895C138.094 2.46316 138.484 2.36842 138.897 2.36842C139.196 2.36842 139.494 2.41579 139.792 2.51053C140.068 2.60526 140.32 2.77105 140.55 2.98421C140.779 3.19737 140.94 3.45789 141.077 3.78947C141.215 4.12105 141.261 4.5 141.261 4.92632V8.62105H140.205V5.23421C140.205 4.61842 140.068 4.14474 139.769 3.83684C139.494 3.52895 139.127 3.36316 138.691 3.36316C138.438 3.36316 138.232 3.41053 138.025 3.50526C137.819 3.6 137.658 3.71842 137.521 3.88421C137.383 4.05 137.268 4.23947 137.176 4.47632C137.107 4.71316 137.062 4.95 137.062 5.23421V8.62105H136.006L135.983 2.51053ZM142.821 8.62105V2.51053H143.877V8.62105H142.821ZM145.529 2.51053H146.562V3.38684C146.745 3.05526 146.998 2.79474 147.319 2.62895C147.64 2.46316 148.03 2.36842 148.443 2.36842C148.742 2.36842 149.04 2.41579 149.338 2.51053C149.614 2.60526 149.866 2.77105 150.095 2.98421C150.325 3.19737 150.486 3.45789 150.623 3.78947C150.761 4.12105 150.807 4.5 150.807 4.92632V8.62105H149.751V5.23421C149.751 4.61842 149.614 4.14474 149.315 3.83684C149.04 3.52895 148.673 3.36316 148.237 3.36316C147.984 3.36316 147.778 3.41053 147.571 3.50526C147.365 3.6 147.204 3.71842 147.066 3.88421C146.929 4.05 146.814 4.23947 146.722 4.47632C146.653 4.71316 146.607 4.95 146.607 5.23421V8.62105H145.529V2.51053ZM5.25483 15.7026C5.50724 15.7737 5.73671 15.8921 5.94324 16.0342C6.12681 16.1763 6.31039 16.3421 6.42512 16.5316C6.5628 16.7211 6.65459 16.9342 6.72343 17.1711C6.79227 17.4079 6.81522 17.6447 6.81522 17.8816C6.81522 18.1895 6.76932 18.4737 6.65459 18.7816C6.53986 19.0658 6.37923 19.3263 6.1727 19.5632C5.96618 19.8 5.69082 19.9658 5.39251 20.1079C5.07126 20.25 4.70411 20.3211 4.29106 20.3211H0.917874V11.8895H4.15338C4.52053 11.8895 4.86473 11.9605 5.1401 12.0789C5.41546 12.1974 5.64493 12.3632 5.85145 12.5526C6.03502 12.7421 6.17271 12.9789 6.26449 13.2158C6.35628 13.4763 6.40217 13.7132 6.40217 13.9737C6.40217 14.3526 6.31038 14.6842 6.10386 15.0158C5.89734 15.3474 5.59903 15.5842 5.25483 15.7026ZM1.97343 12.9553V15.3H3.92391C4.13043 15.3 4.33696 15.2526 4.47464 15.1816C4.63527 15.1105 4.77295 15.0158 4.88768 14.8974C5.00242 14.7789 5.07125 14.6605 5.1401 14.4947C5.18599 14.3526 5.23188 14.1868 5.23188 14.0447C5.23188 13.9026 5.20894 13.7605 5.1401 13.6421C5.0942 13.5 5.00242 13.3816 4.88768 13.2868C4.77295 13.1921 4.65821 13.0974 4.49758 13.0263C4.33695 12.9553 4.15338 12.9316 3.94686 12.9316L1.97343 12.9553ZM4.06159 19.2316C4.31401 19.2316 4.54348 19.1842 4.72705 19.1132C4.93357 19.0421 5.0942 18.9237 5.20894 18.7816C5.32367 18.6395 5.43841 18.4974 5.50725 18.3316C5.57609 18.1658 5.62198 18 5.62198 17.8105C5.62198 17.6211 5.59903 17.4553 5.53019 17.2658C5.46135 17.0763 5.36957 16.9342 5.23188 16.7921C5.0942 16.65 4.93357 16.5316 4.72705 16.4605C4.52053 16.3895 4.29106 16.3421 4.0157 16.3421H1.95048V19.2316H4.06159ZM8.65097 13.3342C8.44444 13.3342 8.26087 13.2632 8.10024 13.1211C7.93961 12.9789 7.87077 12.7895 7.87077 12.5526C7.87077 12.3395 7.93961 12.15 8.10024 12.0079C8.26087 11.8658 8.4215 11.7947 8.65097 11.7947C8.85749 11.7947 9.04106 11.8658 9.17874 12.0079C9.31643 12.15 9.38526 12.3395 9.38526 12.5526C9.38526 12.7895 9.31643 12.9789 9.17874 13.1211C9.04106 13.2632 8.85749 13.3342 8.65097 13.3342ZM8.10024 20.3211V14.2105H9.1558V20.3211H8.10024ZM15.2367 19.3737V20.2974H10.3261V19.6105L13.7222 15.1342H10.5326V14.2105H15.1449V14.85L11.7488 19.3737H15.2367ZM16.4299 14.2105H17.4626V15.0868C17.6461 14.7553 17.8985 14.5184 18.2198 14.3289C18.5411 14.1632 18.9312 14.0684 19.3442 14.0684C19.6425 14.0684 19.9408 14.1158 20.2391 14.2342C20.5145 14.3289 20.7669 14.4947 20.9964 14.7079C21.2258 14.9211 21.3865 15.1816 21.5242 15.5132C21.6618 15.8447 21.7077 16.2237 21.7077 16.65V20.3447H20.6522V16.9105C20.6522 16.2947 20.5145 15.8211 20.2162 15.5132C19.9408 15.2053 19.5737 15.0395 19.1377 15.0395C18.8853 15.0395 18.6787 15.0868 18.4722 15.1816C18.2657 15.2763 18.1051 15.3947 17.9674 15.5605C17.8297 15.7263 17.715 15.9158 17.6232 16.1526C17.5314 16.3895 17.5085 16.6263 17.5085 16.9105V20.2974H16.4529L16.4299 14.2105ZM28.7754 17.1474C28.7754 17.2895 28.7754 17.3842 28.7754 17.4553C28.7754 17.55 28.7524 17.6211 28.7524 17.6921H24.0254C24.0713 17.9289 24.1401 18.1421 24.2319 18.3553C24.3237 18.5684 24.4614 18.7579 24.622 18.9C24.7826 19.0658 24.9891 19.1842 25.2415 19.2789C25.494 19.3737 25.7693 19.4211 26.1135 19.4211C26.4577 19.4211 26.8249 19.35 27.215 19.2316C27.5821 19.1132 27.9263 18.9474 28.1787 18.7342L28.6377 19.5632C28.3623 19.7763 28.0181 19.9895 27.5592 20.1553C27.1002 20.3211 26.6184 20.4158 26.0906 20.4158C25.5169 20.4158 25.058 20.3211 24.6449 20.1316C24.2319 19.9421 23.9106 19.7053 23.6582 19.3974C23.4058 19.0895 23.2222 18.7579 23.1075 18.3789C22.9928 18 22.9239 17.5974 22.9239 17.1947C22.9239 16.7447 22.9928 16.3184 23.1304 15.9395C23.2681 15.5605 23.4746 15.2053 23.7271 14.9211C23.9795 14.6368 24.3007 14.4 24.6679 14.2579C25.035 14.0921 25.4481 14.0211 25.907 14.0211C26.3201 14.0211 26.7101 14.0921 27.0543 14.2342C27.3986 14.3763 27.6969 14.5658 27.9722 14.85C28.2246 15.1105 28.4312 15.4421 28.5688 15.8211C28.6836 16.2237 28.7754 16.65 28.7754 17.1474ZM25.907 15.0158C25.6546 15.0158 25.4251 15.0632 25.2186 15.1579C25.0121 15.2526 24.8285 15.3711 24.6679 15.5132C24.5072 15.6789 24.3696 15.8447 24.2548 16.0579C24.1401 16.2711 24.0713 16.5079 24.0254 16.7447H27.6969C27.651 16.2 27.4674 15.7737 27.1461 15.4658C26.779 15.1816 26.3889 15.0158 25.907 15.0158Z" fill="var(--fill-0, #FEFEFE)"/>
<path id="Vector_2" d="M31.6663 20.4631C31.4597 20.4631 31.2532 20.4394 31.0467 20.3921C30.8402 20.3447 30.6337 20.25 30.4501 20.1552C30.2665 20.0368 30.0829 19.8947 29.8994 19.7289C29.7387 19.5631 29.5781 19.35 29.4634 19.1368L30.2206 18.521C30.4042 18.8526 30.6337 19.1131 30.909 19.2552C31.1844 19.3973 31.4368 19.4921 31.6892 19.4921C32.0334 19.4921 32.2858 19.3973 32.4694 19.2315C32.653 19.0657 32.7448 18.8526 32.7448 18.6394C32.7448 18.45 32.6989 18.3078 32.5841 18.1657C32.4694 18.0236 32.3547 17.9289 32.1941 17.8578C32.1023 17.8105 31.9875 17.7394 31.8728 17.6921C31.7351 17.6447 31.6204 17.5736 31.4597 17.5026C31.3221 17.4552 31.1844 17.3842 31.0467 17.3368C30.909 17.2894 30.8172 17.2184 30.7025 17.171C30.3812 17.0052 30.1518 16.7684 30.0141 16.5078C29.8764 16.2473 29.8076 15.9631 29.8076 15.6789C29.8076 15.4421 29.8535 15.2052 29.9453 14.9921C30.037 14.7789 30.1518 14.6131 30.3354 14.4473C30.496 14.2815 30.7025 14.1631 30.932 14.0921C31.1614 13.9973 31.4368 13.95 31.7351 13.95C32.1023 13.95 32.4465 14.021 32.7907 14.1868C33.1349 14.3526 33.4102 14.5894 33.6168 14.921L32.9513 15.5842C32.7907 15.3236 32.5841 15.1342 32.3547 15.0394C32.1252 14.9447 31.8957 14.8736 31.6892 14.8736C31.4139 14.8736 31.2073 14.9447 31.0467 15.0868C30.909 15.2289 30.8402 15.3947 30.8402 15.6078C30.8402 15.7263 30.8861 15.8684 30.9549 15.9868C31.0238 16.1052 31.1614 16.2236 31.345 16.3184C31.5515 16.4131 31.781 16.5078 32.0334 16.6263C32.2858 16.7447 32.5383 16.8631 32.7907 16.9815C33.1119 17.1473 33.3643 17.3605 33.525 17.5973C33.7085 17.8342 33.8003 18.1421 33.8003 18.521C33.8003 18.7815 33.7544 19.0184 33.6397 19.2552C33.525 19.4684 33.3873 19.6815 33.2037 19.8473C33.0201 20.0131 32.7907 20.1552 32.5153 20.25C32.2858 20.4157 31.9875 20.4631 31.6663 20.4631ZM37.9767 11.8894H38.5044L42.0383 17.2421L45.5491 11.8894H46.0998V20.321H44.9984V14.6368L42.1989 18.9H41.9235L39.124 14.6368V20.3447H38.0226C37.9767 20.321 37.9767 11.8894 37.9767 11.8894ZM49.3124 13.2868C49.1059 13.2868 48.9223 13.2157 48.7617 13.0736C48.624 12.9315 48.5322 12.7421 48.5322 12.5052C48.5322 12.2921 48.6011 12.1026 48.7617 11.9605C48.8994 11.8184 49.0829 11.7473 49.3124 11.7473C49.5189 11.7473 49.7025 11.8184 49.8402 11.9605C49.9779 12.1026 50.0467 12.2921 50.0467 12.5052C50.0467 12.7421 49.9779 12.9315 49.8402 13.0736C49.7025 13.2157 49.5189 13.2868 49.3124 13.2868ZM51.5153 13.2868C51.3088 13.2868 51.1252 13.2157 50.9646 13.0736C50.8269 12.9315 50.7351 12.7421 50.7351 12.5052C50.7351 12.2921 50.804 12.1026 50.9646 11.9605C51.1023 11.8184 51.2858 11.7473 51.5153 11.7473C51.7218 11.7473 51.9054 11.8184 52.0431 11.9605C52.1808 12.1026 52.2496 12.2921 52.2496 12.5052C52.2496 12.7421 52.1808 12.9315 52.0431 13.0736C51.9054 13.2157 51.7218 13.2868 51.5153 13.2868ZM50.3909 20.4631C50.0008 20.4631 49.6566 20.3921 49.3354 20.2736C49.0141 20.1552 48.7617 19.9894 48.5322 19.7526C48.3027 19.5394 48.1421 19.2552 48.0274 18.9473C47.9126 18.6394 47.8438 18.2605 47.8438 17.8578V14.2105H48.8994V17.8342C48.8994 18.3315 49.037 18.7342 49.2895 19.0184C49.5419 19.3026 49.909 19.4684 50.3909 19.4684C50.8728 19.4684 51.2399 19.3263 51.4924 19.0184C51.7448 18.7342 51.8825 18.3315 51.8825 17.8342V14.2105H52.938V17.8578C52.938 18.6631 52.7085 19.3026 52.2496 19.7763C51.8136 20.25 51.194 20.4631 50.3909 20.4631ZM54.4984 11.6763H55.531V14.9684C55.7146 14.7078 55.967 14.4947 56.2883 14.3052C56.6095 14.1394 56.9996 14.0447 57.4126 14.0447C57.7339 14.0447 58.0093 14.0921 58.3076 14.2105C58.5829 14.3052 58.8354 14.471 59.0419 14.6842C59.2484 14.8973 59.432 15.1578 59.5467 15.4894C59.6614 15.821 59.7532 16.2 59.7532 16.6263V20.321H58.6977V16.9105C58.6977 16.2947 58.56 15.821 58.2617 15.5131C57.9863 15.2052 57.6192 15.0394 57.1832 15.0394C56.9537 15.0394 56.7242 15.0868 56.5177 15.1815C56.3112 15.2763 56.1506 15.3947 56.0129 15.5605C55.8752 15.7263 55.7605 15.9157 55.6916 16.1526C55.6228 16.3894 55.5769 16.6263 55.5769 16.9105V20.321H54.5213L54.4984 11.6763ZM61.8643 13.3342C61.6578 13.3342 61.4742 13.2631 61.3136 13.121C61.1759 12.9789 61.0841 12.7894 61.0841 12.5526C61.0841 12.3394 61.153 12.15 61.3136 12.0078C61.4742 11.8657 61.6578 11.7947 61.8643 11.7947C62.0709 11.7947 62.2544 11.8657 62.3921 12.0078C62.5298 12.15 62.5986 12.3394 62.5986 12.5526C62.5986 12.7894 62.5298 12.9789 62.3921 13.121C62.2774 13.2631 62.0938 13.3342 61.8643 13.3342ZM61.3366 20.321V14.2105H62.3921V20.321H61.3366ZM67.9223 19.9657C67.7158 20.1315 67.4634 20.2736 67.188 20.3447C66.9127 20.4157 66.6373 20.4631 66.339 20.4631C65.6965 20.4631 65.2146 20.25 64.8933 19.8473C64.5721 19.4447 64.4344 18.8763 64.4344 18.1657V15.1342H63.3788V14.2105H64.4344V12.0315H65.4899V14.2105H67.5781V15.1342H65.4899V18.2605C65.4899 18.6394 65.5588 18.9236 65.6965 19.1368C65.8342 19.35 66.0866 19.4684 66.4308 19.4684C66.6143 19.4684 66.7979 19.4447 66.9815 19.3736C67.1651 19.3026 67.3257 19.2315 67.4863 19.1131C67.5093 19.1131 67.9223 19.9657 67.9223 19.9657ZM69.2991 13.3342C69.0926 13.3342 68.909 13.2631 68.7484 13.121C68.5878 12.9789 68.5189 12.7894 68.5189 12.5526C68.5189 12.3394 68.5878 12.15 68.7484 12.0078C68.909 11.8657 69.0926 11.7947 69.2991 11.7947C69.5056 11.7947 69.6892 11.8657 69.8269 12.0078C69.9646 12.15 70.0334 12.3394 70.0334 12.5526C70.0334 12.7894 69.9646 12.9789 69.8269 13.121C69.6892 13.2631 69.5286 13.3342 69.2991 13.3342ZM68.7713 20.321V14.2105H69.8269V20.321H68.7713ZM79.4646 14.2105L76.8486 20.321H76.1143L73.4984 14.2105H74.6687L76.4815 18.7815L78.2713 14.2105H79.4646ZM80.0612 17.3605C80.0612 17.2184 80.0612 17.1236 80.0612 17.0526C80.0612 16.9815 80.0841 16.8868 80.0841 16.8157H84.8112C84.7653 16.5789 84.6965 16.3657 84.6047 16.1526C84.5129 15.9394 84.3752 15.75 84.2146 15.6078C84.0539 15.4421 83.8474 15.3236 83.595 15.2289C83.3426 15.1342 83.0672 15.0868 82.723 15.0868C82.3788 15.0868 82.0117 15.1578 81.6216 15.2763C81.2544 15.3947 80.9102 15.5605 80.6578 15.7736L80.1989 14.9447C80.4742 14.7315 80.8184 14.5184 81.2774 14.3526C81.7363 14.1868 82.2182 14.0921 82.746 14.0921C83.3197 14.0921 83.7786 14.1868 84.1916 14.3763C84.6047 14.5657 84.9259 14.8026 85.1783 15.1105C85.4308 15.4184 85.6143 15.75 85.7291 16.1526C85.8438 16.5315 85.9126 16.9342 85.9126 17.3368C85.9126 17.7868 85.8438 18.2131 85.7061 18.5921C85.5684 18.971 85.3619 19.3263 85.0866 19.6105C84.8341 19.8947 84.5129 20.1078 84.1457 20.2736C83.7786 20.4394 83.3655 20.5105 82.9296 20.5105C82.5165 20.5105 82.1264 20.4394 81.7822 20.2973C81.438 20.1552 81.1397 19.9421 80.8643 19.6815C80.6119 19.421 80.4054 19.0894 80.2677 18.7105C80.13 18.2842 80.0612 17.8578 80.0612 17.3605ZM82.9296 19.4921C83.182 19.4921 83.4114 19.4447 83.618 19.35C83.8245 19.2552 84.008 19.1368 84.1687 18.9947C84.3293 18.8526 84.467 18.6631 84.5817 18.45C84.6965 18.2368 84.7653 18 84.8112 17.7631H81.1397C81.1856 18.3078 81.3692 18.7342 81.6904 19.0421C82.0346 19.3263 82.4477 19.4921 82.9296 19.4921ZM94.4948 15.7026C94.7472 15.7736 94.9766 15.8921 95.1832 16.0342C95.3897 16.1763 95.5274 16.3421 95.6651 16.5315C95.8027 16.721 95.8945 16.9342 95.9634 17.171C96.0322 17.4078 96.0552 17.6447 96.0552 17.8815C96.0552 18.1894 96.0093 18.4736 95.8945 18.7815C95.7798 19.0657 95.6192 19.3263 95.4126 19.5631C95.2061 19.8 94.9308 19.9657 94.6325 20.1078C94.3112 20.25 93.9441 20.321 93.531 20.321H90.1578V11.8894H93.3933C93.7605 11.8894 94.1047 11.9605 94.38 12.0789C94.6554 12.1973 94.8849 12.3631 95.0914 12.5526C95.275 12.7421 95.4126 12.9789 95.5044 13.2157C95.5962 13.4763 95.6421 13.7131 95.6421 13.9736C95.6421 14.3526 95.5503 14.6842 95.3438 15.0157C95.1143 15.3473 94.839 15.5842 94.4948 15.7026ZM91.2134 12.9552V15.3H93.1638C93.3704 15.3 93.5769 15.2526 93.7375 15.1815C93.8981 15.1105 94.0358 15.0157 94.1506 14.8973C94.2653 14.7789 94.3341 14.6605 94.403 14.4947C94.4489 14.3526 94.4948 14.1868 94.4948 14.0447C94.4948 13.9026 94.4718 13.7605 94.403 13.6421C94.3571 13.5 94.2653 13.3815 94.1506 13.2868C94.0358 13.1921 93.9211 13.0973 93.7605 13.0263C93.5998 12.9552 93.4163 12.9315 93.2097 12.9315L91.2134 12.9552ZM93.3245 19.2315C93.5769 19.2315 93.8064 19.1842 93.9899 19.1131C94.1965 19.0421 94.3571 18.9236 94.4948 18.7815C94.6324 18.6394 94.7242 18.4973 94.7931 18.3315C94.8619 18.1657 94.9078 18 94.9078 17.8105C94.9078 17.621 94.8849 17.4552 94.816 17.2657C94.7472 17.0763 94.6554 16.9342 94.5177 16.7921C94.38 16.65 94.2194 16.5315 94.0129 16.4605C93.8064 16.3894 93.5769 16.3421 93.3015 16.3421H91.2363V19.2315H93.3245ZM102.847 17.1473C102.847 17.2894 102.847 17.3842 102.847 17.4552C102.847 17.55 102.824 17.621 102.824 17.6921H98.0974C98.1433 17.9289 98.2122 18.1421 98.304 18.3552C98.3957 18.5684 98.5334 18.7578 98.6941 18.9C98.8547 19.0657 99.0612 19.1842 99.3136 19.2789C99.566 19.3736 99.8414 19.421 100.186 19.421C100.53 19.421 100.897 19.35 101.287 19.2315C101.654 19.1131 101.975 18.9473 102.251 18.7342L102.71 19.5631C102.434 19.7763 102.09 19.9894 101.631 20.1552C101.172 20.321 100.69 20.4157 100.163 20.4157C99.6119 20.4157 99.13 20.321 98.717 20.1315C98.3039 19.9421 97.9827 19.7052 97.7303 19.3973C97.4779 19.0894 97.2943 18.7578 97.1795 18.3789C97.0648 18 96.996 17.5973 96.996 17.1947C96.996 16.7447 97.0648 16.3184 97.2025 15.9394C97.3402 15.5605 97.5467 15.2052 97.8221 14.921C98.0745 14.6368 98.3957 14.4 98.7629 14.2578C99.13 14.0921 99.5431 14.021 99.9791 14.021C100.392 14.021 100.782 14.0921 101.126 14.2342C101.471 14.3763 101.769 14.5657 102.044 14.85C102.297 15.1105 102.503 15.4421 102.641 15.821C102.779 16.2 102.847 16.65 102.847 17.1473ZM99.9791 15.0157C99.7267 15.0157 99.4972 15.0631 99.2907 15.1578C99.0841 15.2526 98.9006 15.371 98.7399 15.5131C98.5793 15.6789 98.4416 15.8447 98.3269 16.0578C98.2122 16.271 98.1433 16.5078 98.0974 16.7447H101.769C101.723 16.2 101.539 15.7736 101.218 15.4657C100.874 15.1815 100.461 15.0157 99.9791 15.0157ZM109.25 14.2105L106.771 21.0078C106.519 21.7184 106.221 22.2157 105.876 22.5C105.555 22.7842 105.165 22.9263 104.706 22.9263C104.523 22.9263 104.339 22.9026 104.178 22.8552C104.018 22.8078 103.88 22.7605 103.765 22.6894L103.903 21.7421C104.018 21.7894 104.132 21.8368 104.247 21.8605C104.362 21.9078 104.5 21.9078 104.614 21.9078C104.844 21.9078 105.073 21.8368 105.257 21.671C105.44 21.5052 105.624 21.221 105.785 20.8421L106.014 20.2973L103.444 14.1868H104.66L106.496 18.7815L108.079 14.1868L109.25 14.2105ZM110.236 14.2105H111.269V15.0868C111.453 14.7552 111.705 14.5184 112.026 14.3289C112.347 14.1631 112.738 14.0684 113.151 14.0684C113.449 14.0684 113.747 14.1157 114.045 14.2342C114.321 14.3289 114.573 14.4947 114.803 14.7078C115.032 14.921 115.193 15.1815 115.331 15.5131C115.468 15.8447 115.514 16.2236 115.514 16.65V20.3447H114.459V16.9105C114.459 16.2947 114.321 15.821 114.023 15.5131C113.747 15.2052 113.38 15.0394 112.944 15.0394C112.692 15.0394 112.485 15.0868 112.279 15.1815C112.072 15.2763 111.911 15.3947 111.774 15.5605C111.636 15.7263 111.521 15.9157 111.43 16.1526C111.361 16.3894 111.315 16.6263 111.315 16.9105V20.2973H110.259L110.236 14.2105ZM116.707 17.3605C116.707 17.2184 116.707 17.1236 116.707 17.0526C116.707 16.9815 116.73 16.8868 116.73 16.8157H121.457C121.411 16.5789 121.343 16.3657 121.251 16.1526C121.159 15.9394 121.021 15.75 120.861 15.6078C120.7 15.4421 120.494 15.3236 120.241 15.2289C119.989 15.1342 119.713 15.0868 119.369 15.0868C119.025 15.0868 118.658 15.1578 118.268 15.2763C117.901 15.3947 117.579 15.5605 117.304 15.7736L116.845 14.9447C117.12 14.7315 117.465 14.5184 117.924 14.3526C118.382 14.1868 118.864 14.0921 119.392 14.0921C119.943 14.0921 120.425 14.1868 120.838 14.3763C121.251 14.5657 121.572 14.8026 121.824 15.1105C122.077 15.4184 122.26 15.75 122.375 16.1526C122.49 16.5315 122.559 16.9342 122.559 17.3368C122.559 17.7868 122.49 18.2131 122.352 18.5921C122.215 18.971 122.008 19.3263 121.733 19.6105C121.48 19.8947 121.159 20.1078 120.792 20.2736C120.425 20.4394 120.012 20.5105 119.576 20.5105C119.163 20.5105 118.773 20.4394 118.428 20.2973C118.084 20.1552 117.786 19.9421 117.51 19.6815C117.258 19.421 117.052 19.0894 116.914 18.7105C116.776 18.2842 116.707 17.8578 116.707 17.3605ZM119.576 19.4921C119.828 19.4921 120.058 19.4447 120.264 19.35C120.471 19.2552 120.654 19.1368 120.815 18.9947C120.975 18.8526 121.113 18.6631 121.228 18.45C121.343 18.2368 121.411 18 121.457 17.7631H117.786C117.832 18.3078 118.015 18.7342 118.337 19.0421C118.704 19.3263 119.094 19.4921 119.576 19.4921ZM123.821 20.321V11.6763H124.876V20.321H123.821ZM129.948 20.321L128.502 18.0236L127.056 20.321H125.794L127.882 17.1473L126.001 14.2105H127.217L128.525 16.3657L129.856 14.2105H131.095L129.099 17.2421L131.141 20.3447H129.948V20.321ZM137.864 14.2105V20.321H136.855V19.4447C136.602 19.7763 136.281 20.0131 135.937 20.2026C135.593 20.3684 135.202 20.4631 134.767 20.4631C134.331 20.4631 133.94 20.3684 133.573 20.2026C133.206 20.0368 132.908 19.8 132.632 19.5157C132.357 19.2315 132.151 18.8763 132.013 18.4736C131.875 18.071 131.783 17.6447 131.783 17.1947C131.783 16.7447 131.852 16.3184 132.013 15.9394C132.151 15.5605 132.357 15.2289 132.632 14.9447C132.908 14.6605 133.206 14.4473 133.573 14.2815C133.94 14.1157 134.331 14.0447 134.767 14.0447C135.202 14.0447 135.593 14.1394 135.937 14.3289C136.281 14.5184 136.579 14.7552 136.855 15.0868V14.1868L137.864 14.2105ZM134.858 19.4684C135.157 19.4684 135.455 19.421 135.707 19.2789C135.96 19.1605 136.166 18.9947 136.35 18.8052C136.533 18.5921 136.671 18.3789 136.763 18.0947C136.855 17.8342 136.901 17.55 136.901 17.2421C136.901 16.9342 136.855 16.6736 136.763 16.3894C136.671 16.1289 136.533 15.8921 136.35 15.7026C136.166 15.5131 135.96 15.3473 135.707 15.2289C135.455 15.1105 135.18 15.0394 134.858 15.0394C134.537 15.0394 134.262 15.0868 134.009 15.2289C133.757 15.371 133.55 15.5131 133.367 15.7026C133.183 15.8921 133.045 16.1289 132.954 16.4131C132.862 16.6736 132.816 16.9578 132.816 17.2657C132.816 17.55 132.862 17.8342 132.954 18.1184C133.045 18.3789 133.183 18.6157 133.367 18.8289C133.55 19.0421 133.757 19.1842 134.009 19.3026C134.262 19.421 134.56 19.4684 134.858 19.4684ZM139.517 20.321V11.6763H140.572V20.321H139.517ZM147.984 14.2105V22.8552H146.905V19.4447C146.653 19.7763 146.332 20.0131 145.988 20.2026C145.643 20.3921 145.23 20.4631 144.794 20.4631C144.358 20.4631 143.968 20.3684 143.601 20.2026C143.234 20.0368 142.936 19.8 142.66 19.5157C142.385 19.2315 142.178 18.8763 142.041 18.4973C141.88 18.0947 141.811 17.6921 141.811 17.2421C141.811 16.7921 141.88 16.3894 142.041 15.9868C142.178 15.6078 142.385 15.2526 142.66 14.9684C142.936 14.6842 143.234 14.4473 143.601 14.2815C143.968 14.1157 144.358 14.021 144.794 14.021C145.23 14.021 145.643 14.1157 145.988 14.3052C146.332 14.4947 146.653 14.7552 146.905 15.0868V14.1631H147.984V14.2105ZM144.932 19.4684C145.23 19.4684 145.529 19.421 145.781 19.2789C146.033 19.1605 146.24 18.9947 146.424 18.8052C146.607 18.5921 146.722 18.3789 146.837 18.0947C146.928 17.8342 146.974 17.55 146.974 17.2421C146.974 16.9342 146.928 16.6736 146.837 16.3894C146.745 16.1289 146.607 15.8921 146.424 15.7026C146.24 15.5131 146.033 15.3473 145.781 15.2289C145.529 15.1105 145.253 15.0394 144.932 15.0394C144.611 15.0394 144.335 15.0868 144.083 15.2289C143.831 15.3473 143.624 15.5131 143.44 15.7026C143.257 15.8921 143.142 16.1289 143.027 16.3894C142.936 16.65 142.89 16.9342 142.89 17.2421C142.89 17.55 142.936 17.8342 143.027 18.0947C143.119 18.3552 143.257 18.5921 143.44 18.8052C143.624 18.9947 143.831 19.1605 144.083 19.2789C144.358 19.3973 144.634 19.4684 144.932 19.4684ZM3.12038 28.5868H1.99598V32.021H0.894531V23.5894H3.6711C4.10709 23.5894 4.47424 23.6605 4.7955 23.8026C5.11675 23.9447 5.39212 24.1342 5.59864 24.371C5.80516 24.6078 5.96579 24.8684 6.08052 25.1763C6.17231 25.4842 6.24115 25.7921 6.24115 26.1C6.24115 26.3605 6.19526 26.621 6.12642 26.8578C6.05758 27.1184 5.91989 27.3552 5.78221 27.5684C5.62159 27.7815 5.41506 27.971 5.18559 28.1368C4.95612 28.3026 4.65782 28.421 4.35951 28.4921L6.63125 31.9973H5.27738L3.12038 28.5868ZM1.97303 27.4973H3.44163C3.73994 27.4973 3.99236 27.45 4.19888 27.3789C4.4054 27.3078 4.58898 27.1894 4.70371 27.0473C4.81845 26.9052 4.93318 26.7631 4.97907 26.5973C5.02497 26.4315 5.07086 26.2421 5.07086 26.0763C5.07086 25.8868 5.04791 25.6973 4.97907 25.5315C4.91023 25.3657 4.84139 25.2236 4.70371 25.0815C4.58898 24.9394 4.42835 24.8447 4.26772 24.7736C4.08414 24.7026 3.87762 24.6552 3.64815 24.6552H1.97303V27.4973ZM13.2629 28.8473C13.2629 28.9894 13.2629 29.0842 13.2399 29.1789C13.217 29.2736 13.217 29.3447 13.217 29.4157H8.48994C8.53584 29.6526 8.60468 29.8657 8.69646 30.0789C8.78825 30.2921 8.92593 30.4815 9.08656 30.6236C9.24719 30.7894 9.45371 30.9078 9.70613 31.0026C9.95854 31.0973 10.2339 31.1447 10.5781 31.1447C10.9223 31.1447 11.2895 31.0736 11.6796 30.9552C12.0697 30.8368 12.3909 30.671 12.6433 30.4578L13.1023 31.2868C12.8498 31.5 12.4827 31.7131 12.0238 31.8789C11.5648 32.0447 11.0829 32.1394 10.5552 32.1394C10.0044 32.1394 9.52255 32.0447 9.10951 31.8552C8.69646 31.6657 8.37521 31.4289 8.12279 31.121C7.87038 30.8131 7.6868 30.4815 7.57207 30.1026C7.45733 29.7236 7.38849 29.321 7.38849 28.9184C7.38849 28.4684 7.45733 28.0421 7.59501 27.6631C7.73269 27.2842 7.93922 26.9289 8.19163 26.6447C8.44405 26.3605 8.76531 26.1473 9.13246 25.9815C9.49961 25.8157 9.91265 25.7447 10.3716 25.7447C10.7846 25.7447 11.1747 25.8157 11.5189 25.9578C11.8631 26.1 12.1614 26.3131 12.4139 26.5736C12.6663 26.8342 12.8728 27.1657 13.0105 27.5447C13.194 27.9236 13.2629 28.35 13.2629 28.8473ZM10.3945 26.7157C10.1421 26.7157 9.91265 26.7631 9.70613 26.8578C9.49961 26.9526 9.31603 27.071 9.1554 27.2131C8.99477 27.3552 8.85709 27.5447 8.74236 27.7578C8.62762 27.971 8.55878 28.2078 8.51289 28.4447H12.1614C12.1155 27.9 11.932 27.4736 11.6107 27.1657C11.2895 26.8578 10.8764 26.7157 10.3945 26.7157ZM19.6651 25.8868L17.1868 32.6842C16.9344 33.3947 16.6361 33.8684 16.2919 34.1763C15.9706 34.4605 15.5805 34.6026 15.1216 34.6026C14.938 34.6026 14.7544 34.5789 14.5938 34.5315C14.4332 34.4842 14.2955 34.4368 14.1808 34.3657L14.3184 33.4184C14.4102 33.4657 14.525 33.5131 14.6626 33.5368C14.8003 33.5842 14.9151 33.5842 15.0298 33.5842C15.2593 33.5842 15.4887 33.5131 15.6723 33.3473C15.8559 33.1815 16.0395 32.8973 16.2001 32.5184L16.4296 31.9736L13.8595 25.8631H15.0757L16.9114 30.4578L18.4948 25.8631L19.6651 25.8868ZM24.5298 31.6421C24.3233 31.8078 24.0709 31.95 23.7955 32.021C23.5201 32.1157 23.2448 32.1394 22.9465 32.1394C22.3039 32.1394 21.8221 31.9263 21.5008 31.5236C21.1796 31.121 21.0419 30.5526 21.0419 29.8421V26.8105H19.9863V25.8868H21.0419V23.7315H22.0974V25.9105H24.2085V26.8342H22.0974V29.9605C22.0974 30.3394 22.1663 30.6236 22.304 30.8368C22.4416 31.05 22.694 31.1684 23.0612 31.1684C23.2448 31.1684 23.4284 31.1447 23.6119 31.0736C23.7955 31.0026 23.9561 30.9315 24.1168 30.8131L24.5298 31.6421ZM25.9296 25.0342C25.723 25.0342 25.5395 24.9631 25.3788 24.821C25.2411 24.6789 25.1494 24.4894 25.1494 24.2526C25.1494 24.0394 25.2182 23.85 25.3788 23.7078C25.5395 23.5657 25.723 23.4947 25.9296 23.4947C26.1361 23.4947 26.3197 23.5657 26.4573 23.7078C26.595 23.85 26.6639 24.0394 26.6639 24.2526C26.6639 24.4894 26.595 24.6789 26.4573 24.821C26.3197 24.9394 26.1361 25.0342 25.9296 25.0342ZM25.3788 32.021V25.9105H26.4344V32.021H25.3788ZM28.0866 25.8868H29.1192V26.7631C29.3027 26.4315 29.5552 26.1947 29.8764 26.0052C30.1977 25.8157 30.5878 25.7447 31.0008 25.7447C31.3221 25.7447 31.5974 25.7921 31.8957 25.9105C32.1711 26.0052 32.4235 26.171 32.653 26.3842C32.8595 26.5973 33.0431 26.8578 33.1808 27.1894C33.3184 27.521 33.3643 27.9 33.3643 28.3263V32.021H32.3088V28.6105C32.3088 27.9947 32.1711 27.521 31.8728 27.2131C31.5745 26.9052 31.2303 26.7394 30.7943 26.7394C30.5419 26.7394 30.3354 26.7868 30.1288 26.8815C29.9223 26.9763 29.7617 27.0947 29.624 27.2605C29.4863 27.4263 29.3716 27.6157 29.2798 27.8526C29.188 28.0894 29.1651 28.3263 29.1651 28.6105V32.021H28.1095L28.0866 25.8868ZM40.6844 25.8868V34.5315H39.6288V31.121C39.3764 31.4526 39.0552 31.6894 38.711 31.8789C38.3668 32.0684 37.9537 32.1394 37.5177 32.1394C37.0817 32.1394 36.6916 32.0447 36.3474 31.8789C35.9803 31.7131 35.682 31.4763 35.4066 31.1921C35.1312 30.9078 34.9247 30.5763 34.787 30.1736C34.6494 29.7947 34.5576 29.3684 34.5576 28.9184C34.5576 28.4684 34.6264 28.0657 34.787 27.6868C34.9247 27.3078 35.1312 26.9526 35.4066 26.6684C35.682 26.3842 35.9803 26.1473 36.3474 25.9815C36.7146 25.8157 37.1047 25.721 37.5177 25.721C37.9537 25.721 38.3668 25.8157 38.711 26.0052C39.0552 26.1947 39.3764 26.4552 39.6288 26.7868V25.8868H40.6844ZM37.6325 31.1447C37.9537 31.1447 38.2291 31.0973 38.4815 30.9789C38.7339 30.8605 38.9404 30.6947 39.124 30.5052C39.3076 30.2921 39.4453 30.0789 39.537 29.7947C39.6288 29.5342 39.6747 29.25 39.6747 28.9421C39.6747 28.6578 39.6288 28.3736 39.537 28.0894C39.4453 27.8289 39.3076 27.5921 39.124 27.4026C38.9404 27.2131 38.7339 27.0473 38.4815 26.9289C38.2291 26.8105 37.9537 26.7394 37.6325 26.7394C37.3112 26.7394 37.0358 26.7868 36.7834 26.9289C36.531 27.0473 36.3245 27.2131 36.1409 27.4026C35.9573 27.5921 35.8197 27.8289 35.7279 28.0894C35.6361 28.35 35.5902 28.6342 35.5902 28.9421C35.5902 29.25 35.6361 29.5342 35.7279 29.7947C35.8197 30.0552 35.9573 30.2921 36.1409 30.5052C36.3245 30.7184 36.531 30.8605 36.7834 30.9789C37.0588 31.0973 37.3341 31.1447 37.6325 31.1447ZM42.3136 32.021V23.3763H43.3692V32.021H42.3136ZM44.6771 29.0605C44.6771 28.9184 44.6771 28.8236 44.6771 28.7526C44.6771 28.6578 44.7001 28.5868 44.7001 28.5157H49.4271C49.3812 28.2789 49.3124 28.0657 49.2206 27.8526C49.1288 27.6394 48.9912 27.45 48.8305 27.3078C48.6699 27.1421 48.4634 27.0236 48.211 26.9289C47.9585 26.8342 47.6832 26.7868 47.339 26.7868C46.9948 26.7868 46.6276 26.8578 46.2375 26.9763C45.8704 27.0947 45.5491 27.2605 45.2738 27.4736L44.8148 26.6447C45.0672 26.4315 45.4344 26.2184 45.8933 26.0526C46.3523 25.8868 46.8341 25.7921 47.3619 25.7921C47.9127 25.7921 48.3945 25.8868 48.8076 26.0763C49.2206 26.2657 49.5419 26.5026 49.7943 26.8105C50.0467 27.1184 50.2303 27.45 50.345 27.8526C50.4598 28.2315 50.5286 28.6342 50.5286 29.0368C50.5286 29.4868 50.4598 29.9131 50.3221 30.3157C50.1844 30.6947 49.9779 31.05 49.7254 31.3342C49.473 31.6184 49.1518 31.8315 48.7846 31.9973C48.4175 32.1631 48.0044 32.2342 47.5455 32.2342C47.1325 32.2342 46.7424 32.1631 46.3982 32.021C46.054 31.8789 45.7327 31.6657 45.4803 31.4052C45.2279 31.1447 45.0213 30.8131 44.8837 30.4342C44.746 29.9842 44.6771 29.5342 44.6771 29.0605ZM47.5455 31.1684C47.7979 31.1684 48.0274 31.121 48.2339 31.0263C48.4404 30.9315 48.624 30.8131 48.7846 30.671C48.9453 30.5289 49.0829 30.3394 49.1977 30.1263C49.3124 29.9131 49.3812 29.6763 49.4271 29.4394H45.7556C45.8015 29.9842 45.9851 30.4105 46.3064 30.7184C46.6506 31.0263 47.0636 31.1684 47.5455 31.1684ZM51.7907 25.8868H52.8003V26.7868C52.9839 26.4315 53.2134 26.1473 53.4887 25.9815C53.7641 25.8157 54.1083 25.721 54.4984 25.721C54.6131 25.721 54.7279 25.721 54.8426 25.7447C54.9573 25.7447 55.0721 25.7921 55.2097 25.8157L55.118 26.8815C54.9114 26.8105 54.7049 26.7868 54.4984 26.7868C54.2689 26.7868 54.0624 26.8342 53.8788 26.9052C53.6953 26.9763 53.5117 27.0947 53.3511 27.2605C53.1904 27.4263 53.0757 27.6394 53.0068 27.8763C52.9151 28.1368 52.8921 28.421 52.8921 28.7763V32.021H51.8366V25.8868H51.7907ZM60.2122 24.9868C60.0056 24.9868 59.8221 24.9157 59.6614 24.7736C59.5238 24.6315 59.432 24.4421 59.432 24.2052C59.432 23.9921 59.5008 23.8026 59.6614 23.6605C59.7991 23.5184 59.9827 23.4473 60.2122 23.4473C60.4187 23.4473 60.6023 23.5184 60.7399 23.6605C60.8776 23.8026 60.9465 23.9921 60.9465 24.2052C60.9465 24.4421 60.8776 24.6315 60.7399 24.7736C60.5793 24.9157 60.4187 24.9868 60.2122 24.9868ZM62.4151 24.9868C62.2085 24.9868 62.025 24.9157 61.8643 24.7736C61.7267 24.6315 61.6349 24.4421 61.6349 24.2052C61.6349 23.9921 61.7037 23.8026 61.8643 23.6605C62.002 23.5184 62.1856 23.4473 62.4151 23.4473C62.6216 23.4473 62.8052 23.5184 62.9428 23.6605C63.0805 23.8026 63.1494 23.9921 63.1494 24.2052C63.1494 24.4421 63.0805 24.6315 62.9428 24.7736C62.7822 24.9157 62.6216 24.9868 62.4151 24.9868ZM61.2907 32.1631C60.9006 32.1631 60.5564 32.0921 60.2351 31.9736C59.9138 31.8552 59.6614 31.6894 59.432 31.4526C59.2025 31.2157 59.0419 30.9552 58.9271 30.6473C58.8124 30.3157 58.7436 29.9605 58.7436 29.5578V25.9105H59.7991V29.5342C59.7991 30.0315 59.9368 30.4342 60.1892 30.7184C60.4416 31.0026 60.8088 31.1684 61.2907 31.1684C61.7726 31.1684 62.1397 31.0263 62.3921 30.7184C62.6445 30.4342 62.7822 30.0315 62.7822 29.5342V25.9105H63.8378V29.5578C63.8378 30.3631 63.6083 31.0026 63.1494 31.4763C62.7134 31.9263 62.0938 32.1631 61.2907 32.1631ZM69.8269 31.0736V31.9973H64.9163V31.3105L68.3124 26.8342H65.1228V25.9105H69.7351V26.55L66.3619 31.0736H69.8269ZM71.0201 25.8868H72.0298V26.7868C72.2134 26.4315 72.4428 26.1473 72.7182 25.9815C72.9936 25.8157 73.3378 25.721 73.7279 25.721C73.8426 25.721 73.9573 25.721 74.0721 25.7447C74.1868 25.7447 74.3015 25.7921 74.4392 25.8157L74.3474 26.8815C74.1409 26.8105 73.9344 26.7868 73.7279 26.7868C73.4984 26.7868 73.2919 26.8342 73.1083 26.9052C72.9247 26.9763 72.7412 27.0947 72.5805 27.2605C72.4199 27.4263 72.3052 27.6394 72.2363 27.8763C72.1445 28.1368 72.0986 28.421 72.0986 28.7763V32.021H71.0431C71.0201 32.021 71.0201 25.8868 71.0201 25.8868Z" fill="var(--fill-0, #FEFEFE)"/>
<path id="Vector_3" d="M74.9678 29.0604C74.9678 28.9183 74.9678 28.8236 74.9678 28.7525C74.9678 28.6578 74.9907 28.5867 74.9907 28.5157H79.7178C79.6719 28.2788 79.603 28.0657 79.5112 27.8525C79.4195 27.6394 79.2818 27.4499 79.1211 27.3078C78.9605 27.142 78.754 27.0236 78.5016 26.9288C78.2492 26.8341 77.9738 26.7867 77.6296 26.7867C77.2854 26.7867 76.9183 26.8578 76.5282 26.9762C76.161 27.0946 75.8398 27.2604 75.5644 27.4736L75.1055 26.6446C75.3808 26.4315 75.725 26.2183 76.184 26.0525C76.6429 25.8867 77.1248 25.792 77.6526 25.792C78.2033 25.792 78.6852 25.8867 79.0982 26.0762C79.5113 26.2657 79.8325 26.5025 80.0849 26.8104C80.3373 27.1183 80.5209 27.4499 80.6357 27.8525C80.7504 28.2552 80.8192 28.6341 80.8192 29.0367C80.8192 29.4867 80.7504 29.9131 80.6127 30.3157C80.475 30.6946 80.2685 31.0499 79.9931 31.3341C79.7407 31.6183 79.4195 31.8315 79.0523 31.9973C78.6852 32.163 78.2721 32.2341 77.8361 32.2341C77.4231 32.2341 77.033 32.1631 76.6888 32.0209C76.3446 31.8788 76.0463 31.6657 75.7709 31.4052C75.5185 31.1446 75.312 30.8131 75.1743 30.4341C75.0366 30.0552 74.9678 29.5341 74.9678 29.0604ZM77.8361 31.1683C78.0885 31.1683 78.318 31.1209 78.5245 31.0262C78.7311 30.9315 78.9146 30.8131 79.0753 30.6709C79.2359 30.5288 79.3736 30.3394 79.4883 30.1262C79.603 29.9131 79.6719 29.6762 79.7178 29.4394H76.0692C76.1151 29.9841 76.2987 30.4104 76.62 30.7183C76.9412 31.0262 77.3542 31.1683 77.8361 31.1683ZM87.2443 28.3025L86.1199 29.6525V31.9973H85.0185V23.5657H86.1199V28.1604L89.8603 23.5657H91.1683L87.9327 27.5446L91.4666 31.9973H90.0898L87.2443 28.3025ZM94.9315 32.1631C94.4726 32.1631 94.0596 32.0683 93.6695 31.9025C93.2794 31.7367 92.9581 31.4999 92.6828 31.2157C92.4074 30.9315 92.2009 30.5762 92.0402 30.1973C91.8796 29.7946 91.8108 29.392 91.8108 28.942C91.8108 28.492 91.8796 28.0894 92.0402 27.7104C92.2009 27.3315 92.4074 26.9762 92.6828 26.692C92.9581 26.4078 93.2794 26.1709 93.6695 26.0052C94.0596 25.8394 94.4726 25.7446 94.9315 25.7446C95.3905 25.7446 95.8035 25.8394 96.1936 26.0052C96.5837 26.1709 96.905 26.4078 97.1803 26.692C97.4557 26.9762 97.6622 27.3315 97.8228 27.7104C97.9835 28.0894 98.0523 28.5157 98.0523 28.942C98.0523 29.392 97.9835 29.8183 97.8228 30.1973C97.6622 30.5762 97.4557 30.9315 97.1803 31.2157C96.905 31.4999 96.5837 31.7367 96.1936 31.9025C95.8035 32.0683 95.3905 32.1631 94.9315 32.1631ZM94.9315 31.1446C95.2299 31.1446 95.4823 31.0973 95.7347 30.9788C95.9871 30.8604 96.1936 30.6946 96.3772 30.5052C96.5608 30.292 96.6985 30.0788 96.8132 29.7946C96.9279 29.5341 96.9738 29.2499 96.9738 28.942C96.9738 28.6578 96.9279 28.3736 96.8132 28.0894C96.6985 27.8288 96.5608 27.592 96.3772 27.4025C96.1936 27.2131 95.9871 27.0473 95.7347 26.9288C95.4823 26.8104 95.2069 26.7394 94.9315 26.7394C94.6562 26.7394 94.3808 26.7867 94.1284 26.9288C93.876 27.0473 93.6695 27.2131 93.4859 27.4025C93.3023 27.592 93.1646 27.8288 93.0499 28.0894C92.9352 28.3499 92.8893 28.6341 92.8893 28.942C92.8893 29.2499 92.9352 29.5341 93.0499 29.7946C93.1646 30.0552 93.3023 30.292 93.4859 30.5052C93.6695 30.7183 93.876 30.8604 94.1284 30.9788C94.3579 31.0973 94.6332 31.1446 94.9315 31.1446ZM106.153 25.7446C106.52 25.7446 106.841 25.8157 107.139 25.9341C107.438 26.0525 107.667 26.242 107.874 26.4552C108.08 26.692 108.241 26.9525 108.355 27.2841C108.47 27.6157 108.516 27.9709 108.516 28.3736V32.0209H107.461V28.5394C107.461 27.9473 107.323 27.5209 107.07 27.213C106.818 26.9052 106.474 26.7631 106.038 26.7631C105.808 26.7631 105.579 26.8104 105.395 26.9052C105.212 26.9999 105.051 27.1183 104.89 27.2841C104.753 27.4499 104.638 27.6394 104.569 27.8525C104.5 28.0657 104.454 28.3262 104.454 28.5867V32.0209H103.399V28.5631C103.399 27.9946 103.261 27.5446 103.009 27.2367C102.756 26.9288 102.389 26.7631 101.953 26.7631C101.724 26.7631 101.517 26.8104 101.311 26.9052C101.127 26.9999 100.944 27.1183 100.806 27.2841C100.668 27.4499 100.554 27.6394 100.485 27.8525C100.393 28.0657 100.37 28.3262 100.37 28.6104V32.0209H99.3144V25.9104H100.347V26.8104C100.508 26.4788 100.76 26.2183 101.081 26.0288C101.403 25.8394 101.747 25.7446 102.16 25.7446C102.55 25.7446 102.917 25.8394 103.261 26.0288C103.605 26.2183 103.858 26.5025 104.018 26.8815C104.225 26.5499 104.5 26.2657 104.89 26.0525C105.258 25.8394 105.694 25.7446 106.153 25.7446ZM110.627 25.0341C110.421 25.0341 110.237 24.963 110.076 24.8209C109.916 24.6788 109.847 24.4894 109.847 24.2525C109.847 24.0394 109.916 23.8499 110.076 23.7078C110.237 23.5657 110.421 23.4946 110.627 23.4946C110.834 23.4946 111.017 23.5657 111.155 23.7078C111.293 23.8499 111.361 24.0394 111.361 24.2525C111.361 24.4894 111.293 24.6788 111.155 24.8209C111.017 24.963 110.857 25.0341 110.627 25.0341ZM110.099 32.0209V25.9104H111.155V32.0209H110.099ZM114.459 32.1394C114.253 32.1394 114.046 32.1157 113.84 32.0683C113.633 32.0209 113.427 31.9499 113.243 31.8315C113.06 31.713 112.876 31.5709 112.692 31.4052C112.532 31.2394 112.371 31.0499 112.256 30.813L113.014 30.1973C113.197 30.5288 113.427 30.7894 113.702 30.9315C113.977 31.0736 114.23 31.1683 114.482 31.1683C114.826 31.1683 115.079 31.0736 115.262 30.9078C115.446 30.742 115.538 30.5288 115.538 30.3157C115.538 30.1262 115.492 29.9841 115.377 29.8657C115.262 29.7473 115.148 29.6288 114.987 29.5578C114.895 29.5104 114.781 29.4394 114.666 29.392C114.528 29.3446 114.39 29.2736 114.253 29.2025C114.115 29.1315 113.977 29.0841 113.84 29.0131C113.702 28.942 113.61 28.8946 113.496 28.8473C113.174 28.6815 112.945 28.4446 112.807 28.1841C112.669 27.9236 112.601 27.6394 112.601 27.3552C112.601 27.1183 112.647 26.8815 112.738 26.6683C112.83 26.4552 112.968 26.2894 113.128 26.1236C113.289 25.9815 113.496 25.8394 113.748 25.7683C113.977 25.6736 114.253 25.6262 114.551 25.6262C114.918 25.6262 115.262 25.6973 115.607 25.8631C115.951 26.0288 116.226 26.2657 116.433 26.5973L115.767 27.2604C115.607 26.9999 115.4 26.8104 115.171 26.7157C114.941 26.6209 114.712 26.5499 114.505 26.5499C114.23 26.5499 114.023 26.6209 113.863 26.7631C113.725 26.9052 113.656 27.0946 113.656 27.2841C113.656 27.4025 113.702 27.5446 113.771 27.663C113.84 27.8052 113.977 27.8999 114.161 27.9946C114.368 28.0894 114.597 28.2078 114.849 28.3025C115.125 28.4209 115.354 28.5394 115.607 28.6578C115.928 28.8236 116.157 29.0367 116.341 29.2736C116.525 29.5341 116.616 29.8183 116.616 30.1973C116.616 30.4578 116.57 30.6946 116.456 30.9315C116.341 31.1446 116.203 31.3578 116.02 31.5236C115.836 31.6894 115.607 31.8315 115.331 31.9262C115.056 32.092 114.758 32.1394 114.459 32.1394ZM119.462 32.1394C119.255 32.1394 119.049 32.1157 118.842 32.0683C118.636 32.0209 118.429 31.9499 118.246 31.8315C118.062 31.713 117.878 31.5709 117.695 31.4052C117.534 31.2394 117.374 31.0499 117.259 30.813L118.016 30.1973C118.2 30.5288 118.429 30.7894 118.704 30.9315C118.98 31.0736 119.232 31.1683 119.508 31.1683C119.852 31.1683 120.104 31.0736 120.288 30.9078C120.471 30.742 120.563 30.5288 120.563 30.3157C120.563 30.1262 120.517 29.9841 120.403 29.8657C120.288 29.7473 120.173 29.6288 120.012 29.5578C119.921 29.5104 119.806 29.4394 119.691 29.392C119.554 29.3446 119.439 29.2736 119.278 29.2025C119.118 29.1315 119.003 29.0841 118.865 29.0131C118.727 28.9657 118.613 28.8946 118.521 28.8473C118.2 28.6815 117.97 28.4446 117.833 28.1841C117.695 27.9236 117.626 27.6394 117.626 27.3552C117.626 27.1183 117.672 26.8815 117.764 26.6683C117.855 26.4552 117.993 26.2894 118.154 26.1236C118.314 25.9815 118.521 25.8394 118.773 25.7683C119.003 25.6736 119.278 25.6262 119.576 25.6262C119.944 25.6262 120.288 25.6973 120.632 25.8631C120.976 26.0288 121.252 26.2657 121.458 26.5973L120.793 27.2604C120.632 26.9999 120.425 26.8104 120.196 26.7157C119.967 26.6209 119.737 26.5499 119.531 26.5499C119.255 26.5499 119.049 26.6209 118.888 26.7631C118.75 26.9052 118.682 27.0946 118.682 27.2841C118.682 27.4025 118.727 27.5446 118.796 27.663C118.865 27.8052 119.003 27.8999 119.186 27.9946C119.393 28.0894 119.622 28.2078 119.875 28.3025C120.15 28.4209 120.38 28.5394 120.632 28.6578C120.953 28.8236 121.183 29.0367 121.366 29.2736C121.55 29.5341 121.642 29.8183 121.642 30.1973C121.642 30.4578 121.596 30.6946 121.481 30.9315C121.366 31.1446 121.229 31.3578 121.045 31.5236C120.861 31.6894 120.632 31.8315 120.357 31.9262C120.081 32.092 119.783 32.1394 119.462 32.1394ZM123.386 25.0341C123.179 25.0341 122.996 24.963 122.835 24.8209C122.674 24.6788 122.605 24.4894 122.605 24.2525C122.605 24.0394 122.674 23.8499 122.835 23.7078C122.996 23.5657 123.179 23.4946 123.386 23.4946C123.592 23.4946 123.776 23.5657 123.913 23.7078C124.051 23.8499 124.12 24.0394 124.12 24.2525C124.12 24.4894 124.051 24.6788 123.913 24.8209C123.776 24.963 123.592 25.0341 123.386 25.0341ZM122.835 32.0209V25.9104H123.89V32.0209H122.835ZM130.683 25.8867L128.204 32.6841C127.952 33.3946 127.654 33.8683 127.31 34.1762C126.988 34.4604 126.575 34.6025 126.139 34.6025C125.956 34.6025 125.772 34.5788 125.611 34.5315C125.451 34.4841 125.313 34.4367 125.198 34.3657L125.336 33.4183C125.451 33.4657 125.543 33.513 125.68 33.5367C125.795 33.5841 125.933 33.5841 126.047 33.5841C126.277 33.5841 126.506 33.5131 126.69 33.3473C126.874 33.1815 127.057 32.8973 127.218 32.5183L127.447 31.9736L124.877 25.8631H126.093L127.929 30.4578L129.512 25.8631L130.683 25.8867ZM137.383 25.8867V32.0209H136.374V31.1446C136.121 31.4762 135.8 31.7131 135.456 31.9025C135.111 32.0683 134.721 32.1631 134.285 32.1631C133.849 32.1631 133.459 32.0683 133.092 31.9025C132.725 31.7367 132.427 31.4999 132.151 31.2157C131.876 30.9315 131.669 30.5762 131.532 30.1736C131.394 29.7709 131.302 29.3446 131.302 28.8946C131.302 28.4446 131.371 28.0183 131.532 27.6394C131.692 27.2604 131.876 26.9288 132.151 26.6446C132.427 26.3604 132.725 26.1473 133.092 25.9815C133.459 25.8157 133.849 25.7446 134.285 25.7446C134.721 25.7446 135.111 25.8394 135.456 26.0288C135.8 26.2183 136.098 26.4552 136.374 26.7867V25.8867H137.383ZM134.4 31.1446C134.698 31.1446 134.997 31.0973 135.249 30.9788C135.502 30.8604 135.708 30.6946 135.892 30.5052C136.075 30.292 136.213 30.0788 136.305 29.7946C136.397 29.5341 136.442 29.2499 136.442 28.942C136.442 28.6578 136.397 28.3736 136.305 28.0894C136.213 27.8288 136.075 27.592 135.892 27.4025C135.708 27.2131 135.502 27.0473 135.249 26.9288C134.997 26.8104 134.721 26.7394 134.4 26.7394C134.079 26.7394 133.804 26.7867 133.551 26.9288C133.299 27.0709 133.092 27.2131 132.909 27.4025C132.725 27.592 132.587 27.8288 132.496 28.1131C132.404 28.3973 132.358 28.6578 132.358 28.9657C132.358 29.2736 132.404 29.5341 132.496 29.8183C132.587 30.0788 132.725 30.3157 132.909 30.5288C133.092 30.7183 133.299 30.8841 133.551 31.0025C133.804 31.1209 134.079 31.1446 134.4 31.1446ZM140.688 32.1394C140.481 32.1394 140.275 32.1157 140.068 32.0683C139.861 32.0209 139.655 31.9499 139.471 31.8315C139.288 31.713 139.104 31.5709 138.921 31.4052C138.76 31.2394 138.599 31.0499 138.485 30.813L139.242 30.1973C139.425 30.5288 139.655 30.7894 139.93 30.9315C140.206 31.0736 140.458 31.1683 140.733 31.1683C141.078 31.1683 141.33 31.0736 141.514 30.9078C141.697 30.742 141.789 30.5288 141.789 30.3157C141.789 30.1262 141.743 29.9841 141.628 29.8657C141.514 29.7473 141.399 29.6288 141.238 29.5578C141.147 29.5104 141.032 29.4394 140.917 29.392C140.779 29.3446 140.665 29.2736 140.504 29.2025C140.343 29.1315 140.229 29.0841 140.091 29.0131C139.953 28.9657 139.839 28.8946 139.747 28.8473C139.426 28.6815 139.196 28.4446 139.058 28.1841C138.921 27.9236 138.852 27.6394 138.852 27.3552C138.852 27.1183 138.898 26.8815 138.99 26.6683C139.081 26.4552 139.219 26.2894 139.38 26.1236C139.54 25.9815 139.747 25.8394 139.999 25.7683C140.229 25.6736 140.504 25.6262 140.802 25.6262C141.169 25.6262 141.514 25.6973 141.858 25.8631C142.202 26.0288 142.477 26.2657 142.684 26.5973L142.019 27.2604C141.858 26.9999 141.651 26.8104 141.422 26.7157C141.192 26.6209 140.963 26.5499 140.756 26.5499C140.481 26.5499 140.275 26.6209 140.114 26.7631C139.976 26.9052 139.907 27.0946 139.907 27.2841C139.907 27.4025 139.953 27.5446 140.022 27.663C140.091 27.8052 140.229 27.8999 140.412 27.9946C140.619 28.0894 140.848 28.2078 141.101 28.3025C141.376 28.4209 141.605 28.5394 141.858 28.6578C142.179 28.8236 142.409 29.0367 142.592 29.2736C142.776 29.5341 142.868 29.8183 142.868 30.1973C142.868 30.4578 142.822 30.6946 142.707 30.9315C142.592 31.1446 142.454 31.3578 142.271 31.5236C142.087 31.6894 141.858 31.8315 141.583 31.9262C141.307 32.092 141.009 32.1394 140.688 32.1394ZM144.061 32.0209V25.9104H145.116V32.0209H144.061Z" fill="var(--fill-0, #FEFEFE)"/>
</g>
</svg>
