<svg width="26.6679" height="16.291" viewBox="0 0 26.6679 16.291" fill="none" xmlns="http://www.w3.org/2000/svg">
<g id="Group">
<path id="path23493" d="M0 16.2423C8.0602 15.4998 16.0467 14.2651 23.9186 12.2814C23.7966 12.8258 23.6746 13.3686 23.5526 13.9131C13.4825 16.2088 6.45716 16.42 0 16.2423Z" fill="var(--fill-0, white)"/>
<path id="path23497" d="M2.51183 14.5919C9.91542 12.7457 17.4549 10.1619 25.0861 7.0688C24.9617 7.6288 24.8364 8.1888 24.7112 8.74961C16.6264 11.9238 9.14829 14.0131 2.51183 14.5927" fill="var(--fill-0, white)"/>
<path id="path23501" d="M5.32739 12.5197C13.711 8.46547 20.5276 4.26466 26.6679 0C26.4984 0.756488 26.3289 1.5138 26.1595 2.27028C19.1963 6.71588 12.2479 10.3976 5.32657 12.5197" fill="var(--fill-0, white)"/>
</g>
</svg>
