<svg width="30.7343" height="16.9816" viewBox="0 0 30.7343 16.9816" fill="none" xmlns="http://www.w3.org/2000/svg">
<g id="Group_22">
<path id="Path_457" d="M2.37301 1.98947C2.34955 1.94211 2.34955 1.89474 2.32609 1.84737C2.32609 1.91842 2.34955 1.96579 2.37301 1.98947Z" fill="var(--fill-0, #FEFEFE)"/>
<path id="Path_458" d="M2.25785 1.70534C2.23439 1.65797 2.23439 1.6106 2.21094 1.56323C2.23439 1.6106 2.23439 1.65797 2.25785 1.70534Z" fill="var(--fill-0, #FEFEFE)"/>
<path id="Path_459" d="M2.6699 2.79472C2.60106 2.65262 2.55517 2.51051 2.48633 2.36841C2.55517 2.51051 2.62401 2.65262 2.6699 2.79472Z" fill="var(--fill-0, #FEFEFE)"/>
<path id="Path_460" d="M30.7343 2.41579C30.7343 2.36842 30.7114 2.34474 30.7114 2.34474H30.6884C30.6655 2.34474 30.6425 2.36842 30.6425 2.3921C30.5278 2.74737 30.3901 3.12631 30.2295 3.48158L30 3.67105C30.023 3.55263 30.0459 3.43421 30.0688 3.29211C30.2754 2.84211 30.4589 2.36842 30.5966 1.87105C30.5966 1.87105 30.5966 1.87105 30.5966 1.84737C30.5966 1.82368 30.5737 1.8 30.5507 1.8H30.5278C30.5048 1.8 30.4819 1.82368 30.4819 1.84737C30.3901 2.22631 30.2524 2.60526 30.0918 2.96053C30.0918 2.81842 30.1147 2.65263 30.1147 2.46316C30.2983 2.03684 30.436 1.58684 30.5278 1.13684C30.5278 1.13684 30.5278 1.13684 30.5278 1.11316C30.5278 1.08947 30.5048 1.06579 30.4819 1.06579C30.4819 1.06579 30.4819 1.06579 30.4589 1.06579C30.436 1.06579 30.4131 1.08947 30.4131 1.11316C30.3442 1.46842 30.2524 1.8 30.1147 2.13158V1.56316C30.2524 1.08947 30.3672 0.544736 30.436 0.0473677C30.436 0.0236835 30.4131 0 30.3901 0C30.3901 0 30.3901 0 30.3672 0C30.3442 0 30.3213 0.0236835 30.3213 0.0473677C30.2295 0.592105 30.0918 1.20789 29.9541 1.72895L29.7705 2.03684C29.7246 2.13158 29.6558 2.22632 29.564 2.36842L29.5411 2.3921C29.6788 1.89474 29.8164 1.39737 29.9082 0.971052C29.9082 0.971052 29.9082 0.971053 29.9082 0.947368C29.9082 0.923684 29.8853 0.899999 29.8623 0.899999C29.8623 0.899999 29.8623 0.899999 29.8394 0.899999C29.8164 0.899999 29.7935 0.923684 29.7935 0.947368C29.6788 1.46842 29.4952 2.15526 29.3116 2.74737C29.1969 2.91316 29.1051 3.10263 29.0133 3.29211L29.0362 2.86579C29.2198 2.3921 29.4034 1.8 29.587 1.08947V1.06579C29.587 1.04211 29.564 1.01842 29.5411 1.01842C29.5411 1.01842 29.5411 1.01842 29.5181 1.01842C29.4952 1.01842 29.4722 1.04211 29.4722 1.06579C29.3116 1.72895 29.1051 2.3921 28.8527 3.00789L28.692 3.24474C28.5773 3.38684 28.4855 3.52895 28.3937 3.69474C28.5544 3.03158 28.8756 2.32105 28.9903 1.68158C26.971 7.50789 21.6244 11.3684 15.6353 11.3684H15.6123C11.2983 11.3684 7.23672 9.33158 4.55194 5.87368C4.55194 5.87368 4.55194 5.89737 4.57489 5.89737C4.50605 6.20526 4.29952 6.60789 4.04711 6.48947C3.7488 6.34737 3.86353 6.06316 3.93237 5.94474C4.00122 5.80263 3.97827 5.66053 3.65701 5.4C3.56523 5.32895 3.51933 5.23421 3.51933 5.11579C3.51933 4.95 3.61112 4.80789 3.77175 4.76053C3.77175 4.78421 3.79469 4.78421 3.79469 4.80789C3.56523 4.42895 3.33576 4.05 3.12923 3.64737C3.15218 3.69474 3.17513 3.71842 3.17513 3.76579C3.17513 3.76579 3.42754 4.80789 3.15218 4.38158C2.78503 3.07895 2.32609 2.25 1.72948 1.30263C1.70653 1.27895 1.70653 1.27895 1.68358 1.27895C1.68358 1.27895 1.66064 1.27895 1.66064 1.30263C1.63769 1.30263 1.63769 1.32632 1.63769 1.35C1.63769 1.37368 1.63769 1.37368 1.63769 1.37368C2.09663 2.06053 2.48672 2.81842 2.80798 3.6C2.60146 3.2921 2.32609 3.00789 2.05073 2.74737H1.95894C1.936 2.74737 1.936 2.72368 1.91305 2.72368C1.8901 2.72368 1.8901 2.72368 1.86716 2.74737C1.86716 2.77105 1.86716 2.77105 1.86716 2.79474C1.86716 2.81842 1.86716 2.81842 1.8901 2.84211L1.936 2.88947C2.39494 3.2921 2.78503 3.64737 3.06039 4.52368C3.28986 5.30526 2.92271 5.94474 2.39494 5.94474C1.68358 5.94474 1.40822 5.21053 1.40822 4.92631C1.38527 4.45263 1.82126 4.40526 1.84421 4.02632C1.86716 3.64737 1.22465 3.19737 1.06402 3.07895C0.834548 2.91316 0.696867 2.55789 1.24759 2.32105C1.36233 2.25 1.43117 2.13158 1.43117 1.98947C1.43117 1.89474 1.40822 1.82368 1.33938 1.75263C0.811602 1.13684 0.811602 0.876316 1.06402 0.568421C1.43117 0.0947372 1.98189 0.876315 2.14252 1.32632V1.35C2.14252 1.37368 2.16547 1.39737 2.16547 1.39737C2.07368 1.13684 2.00484 0.876316 1.936 0.592105C1.79832 0.378947 1.56885 0.260527 1.31643 0.213158C1.1558 0.213158 0.995177 0.307895 0.903389 0.45C0.444452 1.06579 0.857495 1.63421 1.10991 1.87105C1.1558 1.89474 1.31643 2.03684 1.04107 2.15526C0.650974 2.29737 0.650974 2.51053 0.628027 2.65263C0.628027 2.67631 0.628027 2.72368 0.628027 2.74737C0.628027 2.8421 0.650974 2.93684 0.67392 3.03158C0.628027 3.03158 0.582133 3.00789 0.513292 3.00789C0.352664 3.00789 0.214983 3.05526 0.0773021 3.15C-0.19806 3.45789 0.329718 4.00263 0.60508 4.21579C0.582133 4.31053 0.559186 4.5 0.834548 4.59474C0.926336 4.61842 0.995176 4.6421 1.08696 4.6421C1.13286 4.6421 1.1558 4.6421 1.17875 4.6421C1.1558 4.71316 1.13286 4.80789 1.13286 4.90263V4.92631C1.1558 5.32895 1.40822 6.18158 2.34904 6.18158C2.2802 6.27632 2.25725 6.41842 2.25725 6.53684C2.25725 7.31842 2.71619 7.27105 2.71619 7.50789C2.71619 7.69737 2.09663 7.74474 2.09663 8.26579C2.09663 8.78684 2.41788 9.02368 3.10629 9.02368C3.45049 9.02368 3.49638 9.07105 3.49638 9.11842C3.49638 9.21316 3.0145 9.37895 3.0145 9.71053C3.0145 9.82895 3.08334 10.2079 3.63407 10.3974C3.45049 10.4921 3.31281 10.6105 3.31281 10.8C3.31281 10.9421 3.38165 11.1553 3.81764 11.3211C4.04711 11.4158 4.27658 11.4632 4.52899 11.4868C4.57489 11.5579 4.66667 11.6053 4.75846 11.6289C4.75846 11.7711 4.8273 11.9132 4.94204 12.0079C5.05677 12.1263 5.19445 12.2447 5.33213 12.3632C4.8732 12.3868 4.46015 12.6711 4.39131 13.0737C4.39131 13.1211 4.36837 13.1684 4.36837 13.2158C4.36837 13.3579 4.41426 13.5 4.50605 13.5947C4.64373 13.7605 4.85025 13.8789 5.07972 13.9026C5.10266 13.9026 5.12561 13.9026 5.14856 13.9026C5.28624 13.9026 5.40097 13.8789 5.53866 13.8316C5.6075 13.8079 5.67634 13.8079 5.74518 13.7842H5.76812C5.76812 13.7842 5.76812 13.8079 5.79107 13.8079C5.81402 13.8789 5.83696 13.95 5.85991 13.9974C5.92875 14.2105 6.02054 14.4947 6.31885 14.4947C6.13527 14.9447 6.18117 15.4421 6.45653 15.6553C6.50242 15.7026 6.57126 15.7263 6.6401 15.7263C6.89252 15.7263 7.19083 15.4184 7.39735 15.1816C7.64977 14.8737 7.85629 14.85 7.85629 14.85C7.94808 14.8974 8.06281 14.9447 8.17754 14.9684C8.29228 14.9921 8.36112 15.0868 8.36112 15.1816C8.36112 15.2526 8.33817 15.3237 8.26933 15.3711C8.1087 15.5368 8.01692 15.7737 8.01692 16.0105C8.01692 16.0342 8.01692 16.0579 8.01692 16.0816C8.01692 16.4842 8.33817 16.8395 8.75122 16.8395H8.77416C9.73793 16.8395 9.66909 16.1053 9.64614 15.8921C9.6232 15.6316 9.78382 15.6789 9.85267 15.7263C10.128 15.9395 10.3804 15.9868 10.6558 15.7737C10.7476 15.7026 10.8164 15.6316 10.8394 15.5132C10.9541 15.6316 11.0918 15.7026 11.2524 15.7026C11.2524 15.7026 11.2524 15.7026 11.2754 15.7026C11.4131 15.7026 11.5507 15.6553 11.6655 15.5605V15.5842C11.6655 15.7026 11.7343 15.8211 11.849 15.8921C11.8949 15.9158 11.9408 15.9395 11.9867 15.9395C11.9638 15.9632 11.9408 15.9632 11.9179 15.9868C11.872 16.0105 11.849 16.0342 11.8031 16.0579C11.7573 16.1053 11.7343 16.1763 11.7343 16.2474V16.2711C11.7573 16.5316 12.1244 16.6026 12.3539 16.6026C12.4227 16.6026 12.4916 16.6026 12.5604 16.5789C12.6292 16.5553 12.6981 16.5316 12.7669 16.4842C12.9046 16.3895 13.0652 16.2711 13.2717 16.1526C13.157 16.2237 13.0652 16.3184 12.9734 16.3895L12.9505 16.4132C12.8817 16.4605 12.8358 16.5553 12.8358 16.6263C12.8358 16.65 12.8358 16.6737 12.8358 16.6737C12.8817 16.9342 13.2947 16.9816 13.4783 16.9816C13.7536 16.9816 14.006 16.8868 14.2355 16.7211C14.2585 16.6974 14.2585 16.6974 14.2814 16.6737C14.5568 16.4132 14.8321 16.2 15.1534 15.9868C15.5435 16.2237 16.5073 16.8158 16.599 16.8632C16.6679 16.8868 16.7367 16.9105 16.8056 16.9342C16.8974 16.9579 16.9891 16.9579 17.1039 16.9579C17.6775 16.9579 18.1594 16.7211 18.1824 16.4368C18.1824 16.4368 18.1824 16.4368 18.1824 16.4132C18.1824 16.2947 18.1135 16.2 17.9988 16.1526C17.7005 16.0105 17.1727 15.75 16.599 15.4658L16.6449 15.4895C17.035 15.5368 18.2283 16.2947 18.2283 16.2947C18.343 16.3421 18.4577 16.3895 18.5725 16.3895C18.5725 16.3895 18.5725 16.3895 18.5954 16.3895C18.8249 16.3895 19.2379 16.2947 19.2838 16.0342C19.2838 16.0105 19.2838 16.0105 19.2838 15.9868C19.2838 15.8447 19.215 15.75 19.0773 15.7026C19.0544 15.7026 19.0544 15.7026 19.0314 15.6789C18.9855 15.6553 18.9626 15.6553 18.9167 15.6553C17.7464 15.2526 17.2874 14.9684 17.1268 14.8737C18.2053 15.3237 19.3068 15.7263 20.4082 16.0579C20.2705 16.1763 19.8345 16.4605 18.8708 16.6026C18.8708 16.65 18.8937 16.6974 18.9167 16.7684C19.192 16.8395 19.4445 16.8632 19.7428 16.8632C19.7887 16.8632 19.8116 16.8632 19.8575 16.8632C20.5688 16.8395 21.2573 16.6737 21.8998 16.3421C21.9227 15.9868 21.9916 15.6553 22.0833 15.3237H22.4046C22.2669 15.5368 22.1522 15.75 22.1063 16.0105C22.4505 15.8921 22.7947 15.7263 23.093 15.5132L23.5749 15.2289C23.8044 14.9447 23.9879 14.6132 24.0797 14.2579C24.0338 14.0684 23.9191 14.0684 23.9191 14.0684C23.3913 14.1395 22.8865 14.1868 22.4505 14.2342C23.2766 14.0921 24.0797 13.8316 24.8599 13.5C25.2959 13.3342 25.7319 13.1211 26.1449 12.8842C26.1679 12.8842 26.1679 12.8605 26.1679 12.8368V12.8132C26.1449 12.7895 26.1449 12.7895 26.122 12.7895H26.099C25.6631 13.05 25.2041 13.2868 24.7452 13.4526C24.4928 13.5237 24.2174 13.5474 23.942 13.5474C23.7126 13.5474 23.506 13.5237 23.2766 13.4763C24.4239 13.2632 25.5254 12.7895 26.4662 12.1026C26.7186 11.9605 26.9481 11.7711 27.1775 11.5816C27.2005 11.5579 27.2005 11.5579 27.2005 11.5342C27.2005 11.5105 27.2005 11.5105 27.1775 11.4868C27.1546 11.4632 27.1546 11.4632 27.1317 11.4632C27.1087 11.4632 27.1087 11.4632 27.0858 11.4868C26.8792 11.6526 26.6727 11.8184 26.4662 11.9605C25.9843 12.1737 25.4795 12.3158 24.9517 12.3395C25.7548 12.0316 26.5121 11.6053 27.2005 11.0605C27.5447 10.8474 27.8889 10.6105 28.2102 10.35C28.2331 10.3263 28.2331 10.3263 28.2331 10.3026C28.2331 10.2789 28.2331 10.2789 28.2102 10.2553C28.1872 10.2316 28.1872 10.2316 28.1643 10.2316C28.1413 10.2316 28.1413 10.2316 28.1184 10.2553C27.7512 10.5395 27.3841 10.8 27.0169 11.0368C26.7186 11.2026 26.3744 11.2737 26.0302 11.2737C26.7186 11.0605 27.3152 10.6342 28.1413 9.82895C28.4167 9.61579 28.692 9.37895 28.9445 9.11842C28.9674 9.09474 28.9674 9.09474 28.9674 9.07105C28.9674 9.04737 28.9674 9.04737 28.9445 9.02368C28.9215 9 28.9215 9 28.8986 9C28.8756 9 28.8756 9 28.8527 9.02368C28.6002 9.26053 28.3249 9.49737 28.0495 9.71053C27.7283 9.9 27.3841 10.0421 27.0169 10.0895C27.7053 9.78158 28.279 9.18947 28.7379 8.62105C28.9215 8.43158 29.1051 8.24211 29.3116 8.02895C29.3116 8.00526 29.3345 8.00526 29.3345 7.98158C29.3345 7.95789 29.3345 7.95789 29.3116 7.93421C29.3116 7.91053 29.2887 7.91053 29.2657 7.91053C29.2428 7.91053 29.2428 7.91053 29.2198 7.93421C29.0362 8.14737 28.8527 8.33684 28.6691 8.50263C28.5085 8.59737 28.3478 8.69211 28.1643 8.73947L28.1872 8.71579C28.6691 8.33684 29.0592 7.86316 29.3575 7.3421C29.7246 6.91579 30.0459 6.4421 30.3442 5.96842V5.94474C30.3442 5.92105 30.3213 5.89737 30.3213 5.89737H30.2983C30.2754 5.89737 30.2524 5.92105 30.2524 5.92105C29.9312 6.44211 29.587 6.91579 29.1739 7.38947C28.9903 7.53158 28.7609 7.65 28.5314 7.69737C29.1051 7.29474 29.2887 6.84474 29.8623 5.92105C30.0688 5.63684 30.2754 5.30526 30.4589 4.99737V4.97368C30.4589 4.95 30.436 4.92631 30.436 4.92631H30.4131C30.3901 4.92631 30.3672 4.95 30.3672 4.95C30.2065 5.25789 30 5.56579 29.8164 5.85C29.7017 5.96842 29.6099 6.06316 29.4722 6.13421C29.7476 5.75526 29.9541 5.32895 30.1377 4.90263C30.3213 4.59474 30.4589 4.28684 30.5966 3.95526V3.93158C30.5966 3.90789 30.5737 3.88421 30.5737 3.88421H30.5507C30.5278 3.88421 30.5048 3.90789 30.5048 3.93158C30.3901 4.21579 30.2524 4.5 30.0918 4.76053C30.023 4.85526 29.9541 4.95 29.8853 5.04474C30.0918 4.66579 30.2524 4.14474 30.436 3.31579C30.5278 3.00789 30.6425 2.72368 30.7343 2.41579ZM1.56885 3.97895C1.56885 4.02631 1.52295 4.07368 1.47706 4.07368C1.43117 4.07368 1.40822 4.02631 1.40822 3.97895C1.40822 3.93158 1.45411 3.88421 1.50001 3.88421C1.5459 3.88421 1.56885 3.93158 1.56885 3.97895ZM0.260877 3.36316C0.329718 3.24474 0.880442 3.24474 1.17875 3.50526C1.08696 3.71842 0.949283 3.93158 0.788655 4.09737C0.490346 3.88421 0.192036 3.50526 0.260877 3.36316ZM0.926336 4.38158C0.880442 4.38158 0.834548 4.33421 0.834548 4.28684C0.834548 4.23947 0.880442 4.1921 0.926336 4.1921C0.97223 4.1921 1.01812 4.23947 1.01812 4.28684C1.01812 4.33421 0.97223 4.38158 0.926336 4.38158ZM1.17875 3.88421C1.22465 3.88421 1.27054 3.93158 1.27054 3.97895C1.27054 4.02631 1.22465 4.07368 1.17875 4.07368C1.13286 4.07368 1.08696 4.02631 1.08696 3.97895C1.08696 3.93158 1.13286 3.88421 1.17875 3.88421ZM1.2017 4.38158C1.1558 4.38158 1.10991 4.33421 1.10991 4.28684C1.10991 4.23947 1.1558 4.1921 1.2017 4.1921C1.24759 4.1921 1.29349 4.23947 1.29349 4.28684C1.29349 4.33421 1.24759 4.38158 1.2017 4.38158ZM1.31643 3.64737C1.31643 3.6 1.36233 3.55263 1.40822 3.55263C1.45411 3.55263 1.50001 3.6 1.50001 3.64737C1.50001 3.69474 1.45411 3.7421 1.40822 3.7421C1.36233 3.7421 1.31643 3.69474 1.31643 3.64737ZM29.0592 3.62368C29.151 3.24474 29.7246 2.46316 29.9082 2.13158C29.9082 3.41053 29.8623 3.74211 29.5411 4.12105C29.2428 4.52368 28.8756 4.33421 29.0592 3.62368ZM29.0592 4.47632L29.0362 4.5C29.0362 4.47632 29.0362 4.47631 29.0362 4.45263C29.0362 4.45263 29.0362 4.45263 29.0592 4.47632ZM28.8068 3.38684C28.7379 3.78947 28.8986 4.31053 28.8297 4.57105C28.7609 4.83158 28.5314 5.16316 28.3708 4.83158C28.2331 4.5 28.4626 3.78947 28.8068 3.38684ZM27.4988 5.18684C27.5676 4.83158 28.1413 3.88421 28.1413 3.88421C27.9577 4.73684 28.3937 5.42368 28.0954 5.73158C27.7971 6.01579 27.2923 6.34737 27.4988 5.18684ZM27.0399 7.08158C27.3152 6.79737 27.5906 6.46579 27.8201 6.11052C27.843 6.08684 27.843 6.08684 27.866 6.08684C27.8889 6.08684 27.8889 6.08684 27.8889 6.11052C27.9118 6.11052 27.9118 6.13421 27.9118 6.15789C27.9118 6.18158 27.9118 6.18158 27.9118 6.20526C27.6824 6.56053 27.407 6.89211 27.1087 7.2C27.0399 7.36579 26.9481 7.50789 26.8792 7.62631C27.1546 7.3421 27.5217 6.96316 27.8201 6.65526C27.843 6.63158 27.843 6.63158 27.866 6.63158C27.8889 6.63158 27.8889 6.63158 27.9118 6.65526C27.9348 6.67895 27.9348 6.67895 27.9348 6.70263C27.9348 6.72631 27.9348 6.72632 27.9118 6.75C27.5217 7.2 27.1087 7.60263 26.6727 8.00526C26.6039 8.12368 26.5121 8.21842 26.4203 8.31316C26.099 8.64474 25.6401 8.33684 25.9614 7.88684C26.2138 7.53158 26.7645 7.22368 27.0399 7.08158ZM26.7416 7.05789C26.9022 6.86842 27.0628 6.65526 27.2005 6.48947C27.1775 6.63158 27.1317 6.77368 27.0399 6.86842C26.971 6.98684 26.8563 7.03421 26.7416 7.05789ZM26.8563 6.27632C26.8333 6.27632 26.8333 6.25263 26.8104 6.25263C26.7874 6.25263 26.7645 6.25263 26.7645 6.27632C26.6957 6.37105 26.6039 6.46579 26.535 6.56053C26.5809 6.11053 27.0399 5.49474 27.2464 5.30526C27.2464 5.61316 27.2464 5.96842 27.2234 6.25263C27.0628 6.44211 26.8333 6.70263 26.6268 6.96316C26.5809 6.89211 26.535 6.82105 26.535 6.72632C26.6268 6.60789 26.7416 6.46579 26.8563 6.32368C26.8563 6.32368 26.8792 6.3 26.8792 6.27632C26.8792 6.32368 26.8563 6.3 26.8563 6.27632ZM26.3974 6.84474C25.5024 7.95789 25.8237 8.28947 25.5713 8.62105C25.3188 8.95263 25.1123 9.09474 24.9976 8.97632C24.8829 8.88158 25.0205 8.45526 25.3418 8.02895C25.6631 7.60263 26.0302 7.2 26.3974 6.84474ZM19.3068 13.7368C18.8249 13.5947 18.8478 13.05 19.4215 12.9316C20.0411 12.7895 21.0966 13.3816 22.0145 13.3816C20.5459 13.8553 19.7887 13.8789 19.3068 13.7368ZM21.3031 14.1395C20.2017 14.5658 19.215 14.7316 18.343 14.6132C17.494 14.5184 17.6087 13.7132 18.1824 13.6658C18.9167 13.5947 19.9722 14.2579 21.3031 14.1395ZM21.3261 13.1211C21.4638 13.1211 21.6015 13.1211 21.7621 13.0974C21.8998 13.1684 22.0374 13.2158 22.1751 13.2868C21.8768 13.2632 21.6015 13.1921 21.3261 13.1211ZM20.6377 12.9789C19.9952 12.8842 20.4082 12.2921 20.7754 12.1974C21.3261 12.0553 22.0374 12.6237 22.7029 12.6947C22.221 12.9079 21.7162 13.0026 21.2114 13.0026C21.0048 13.0263 20.8213 13.0026 20.6377 12.9789ZM22.244 12.4105C22.657 12.4105 23.093 12.3158 23.4602 12.15C23.5519 12.1974 23.6208 12.2447 23.7355 12.2921C23.506 12.3868 23.2766 12.4579 23.0242 12.5289C22.9553 12.5289 22.8865 12.5526 22.8176 12.5526C22.6341 12.5526 22.4275 12.5053 22.244 12.4105ZM22.0604 12.3158C21.6703 12.2921 21.4408 11.9842 21.8998 11.6526C22.4734 11.2263 23.5978 11.8184 23.942 11.7711C23.1848 12.2211 22.4275 12.3395 22.0604 12.3158ZM22.9324 10.9184C23.2307 10.7053 24.0338 11.0368 24.6534 10.9658C23.965 11.3921 23.5749 11.5816 23.0701 11.4395C22.7259 11.3447 22.7488 11.0605 22.9324 10.9184ZM23.7814 11.5816C23.9879 11.4868 24.2174 11.3921 24.401 11.2737C24.5387 11.2737 24.6763 11.2974 24.814 11.3211C24.6304 11.4158 24.4698 11.5105 24.3092 11.5816C24.2174 11.6053 24.1027 11.6289 23.9879 11.6289C23.942 11.6053 23.8502 11.6053 23.7814 11.5816ZM24.0338 10.7526C23.6667 10.7526 23.5519 10.4684 23.8503 10.2316C24.2862 9.85263 24.814 10.2553 25.6401 10.1842C24.7681 10.6816 24.401 10.7526 24.0338 10.7526ZM24.8829 10.7053C25.1123 10.6105 25.3647 10.4684 25.6401 10.3026C25.7319 10.3026 25.8237 10.3026 25.9155 10.3263C25.5942 10.5395 25.25 10.7053 24.8829 10.8474C24.8829 10.8237 24.8829 10.8 24.8829 10.7763C24.8829 10.7526 24.8829 10.7289 24.8829 10.7053ZM25.1123 9.94737C24.6993 9.97105 24.4698 9.71052 24.9746 9.42631C25.4106 9.16579 26.1679 9.40263 26.6957 9.18947C25.9614 9.80526 25.5254 9.94737 25.1123 9.94737C25.1123 9.94737 25.1123 9.97105 25.1123 9.94737ZM25.0894 8.02895C24.6993 8.76316 24.814 8.6921 24.7911 9.1421C24.7452 9.56842 24.2403 10.0184 24.2403 9.28421C24.2403 8.71579 24.9288 8.14737 25.0894 8.02895ZM23.3913 9.66316C23.6208 9.1421 24.2174 8.6921 24.2174 8.6921C23.8732 9.37895 24.1256 9.75789 23.7585 10.1132C23.4143 10.4684 23.1848 10.2079 23.3913 9.66316ZM23.2995 9.37895C23.0242 9.94737 23.3225 10.2789 22.8865 10.7526C22.4505 11.2263 22.2669 10.7289 22.4964 10.2789C22.7259 9.87632 23.0701 9.63947 23.2995 9.37895ZM22.6341 9.78158C22.0145 10.5158 22.3358 11.0132 21.8309 11.4868C21.3261 11.9605 21.1196 11.5105 21.3261 11.0605C21.5556 10.6105 22.2669 9.97105 22.6341 9.78158ZM21.5326 10.2789C21.0966 11.0605 21.0507 11.7 20.6836 12.0553C20.3164 12.4342 19.7428 12.15 20.1329 11.4868C20.4771 10.9184 21.3031 10.4447 21.5326 10.2789ZM20.2476 10.8711C19.6969 11.8184 20.0181 12.0553 19.3068 12.7658C18.6643 13.4053 18.5266 12.6711 18.7331 12.3395C19.1232 11.7474 19.651 11.25 20.2476 10.8711ZM17.9759 13.5474C17.6087 13.9026 17.1727 13.6421 17.4022 13.0974C17.7693 12.2921 18.7102 11.5105 19.2379 11.1789C18.4807 12.2921 18.343 13.2158 17.9759 13.5474ZM17.5169 13.9026C17.1957 14.0211 16.8056 14.1632 16.3925 14.3526C16.3696 14.2579 16.3237 14.1868 16.2548 14.1158C16.622 13.9737 16.9432 13.8553 17.2645 13.7605C17.3333 13.8316 17.4251 13.8789 17.5169 13.9026ZM16.8515 13.7132C16.4384 14.1395 15.8188 13.9263 16.1172 13.2868C16.4155 12.6237 17.5399 11.7237 18.2742 11.4395C17.3104 12.5289 17.471 13.0737 16.8515 13.7132ZM16.1631 12.8605C16.1401 12.8132 16.1172 12.7658 16.0713 12.7184C16.0024 12.6237 15.9106 12.5526 15.8188 12.5053C16.2319 12.1263 16.7826 11.7237 17.3104 11.5579C16.8974 11.9605 16.5073 12.4105 16.1631 12.8605ZM15.3829 11.6763C15.6812 11.4632 16.1401 11.4395 16.2319 11.5816C16.3466 11.7711 15.9795 12.1974 15.7271 12.3395C15.6812 12.1026 15.5664 11.8658 15.3829 11.6763ZM15.4746 12.1974C15.5205 12.1974 15.5664 12.2447 15.5664 12.2921C15.5664 12.3395 15.5205 12.3868 15.4746 12.3868C15.4288 12.3868 15.3829 12.3395 15.3829 12.2921C15.3829 12.2447 15.4288 12.1974 15.4746 12.1974ZM15.337 12.0553C15.337 12.1026 15.2911 12.15 15.2452 12.15C15.1993 12.15 15.1534 12.1026 15.1534 12.0553C15.1534 12.0079 15.1993 11.9605 15.2452 11.9605C15.314 11.9605 15.337 12.0079 15.337 12.0553ZM15.1993 11.6526C15.2452 11.6526 15.2911 11.7 15.2911 11.7474C15.2911 11.7947 15.2452 11.8421 15.1993 11.8421C15.1534 11.8421 15.1075 11.7947 15.1075 11.7474C15.1075 11.7 15.1534 11.6526 15.1993 11.6526ZM15.1763 12.2447C15.2222 12.2447 15.2681 12.2921 15.2681 12.3395C15.2681 12.3868 15.2222 12.4342 15.1763 12.4342C15.1304 12.4342 15.0845 12.3868 15.0845 12.3395C15.0845 12.2921 15.1304 12.2447 15.1763 12.2447ZM14.9698 11.9368C15.0157 11.9368 15.0616 11.9842 15.0616 12.0316C15.0616 12.0789 15.0157 12.1263 14.9698 12.1263C14.9239 12.1263 14.878 12.0789 14.878 12.0316C14.878 11.9842 14.9239 11.9368 14.9698 11.9368ZM13.4553 11.5579C13.7536 11.4158 14.006 11.3921 14.1896 11.6053C14.5568 12.0553 14.1208 12.5763 14.7403 12.6C15.3599 12.6474 15.5664 12.4579 15.9336 12.8368C16.3007 13.2395 15.2452 13.6658 15.773 13.9263C16.3696 14.2342 16.3237 14.7079 16.1172 14.9684C16.0254 15.1105 15.8647 15.1816 15.7271 15.1816C15.5435 15.1816 15.3829 15.0868 15.2911 14.9211C15.1075 14.5421 14.9239 14.5658 14.7403 14.7079C14.5568 14.85 14.3503 15.2053 14.1208 14.8026C13.8913 14.4 14.0978 13.8316 13.5242 13.8789C12.9275 13.95 12.9046 14.8026 12.1932 14.2579C12.0556 14.1395 11.9638 13.9737 11.9408 13.8079C11.9408 13.6184 11.9867 13.4289 12.0556 13.2632H12.0785C12.285 13.2158 12.4686 13.1684 12.6292 13.1447C12.8358 13.2395 12.9964 13.3579 13.1111 13.5474C13.1111 13.5711 13.1341 13.5711 13.157 13.5711H13.18C13.2029 13.5474 13.2029 13.5474 13.2029 13.5237V13.5C13.1111 13.3342 12.9734 13.2158 12.8128 13.1211C13.3406 13.0263 13.7077 13.0263 14.0749 13.1684C14.5109 13.5237 14.5109 13.7368 14.4879 14.0684C14.4879 14.0921 14.5109 14.1158 14.5338 14.1395C14.5568 14.1395 14.5797 14.1158 14.6027 14.0921C14.6027 13.8316 14.6256 13.6421 14.465 13.4053C14.8551 13.7368 15.2222 14.1158 15.5205 14.5421C15.5435 14.5658 15.5435 14.5658 15.5664 14.5658C15.5894 14.5658 15.5894 14.5658 15.6123 14.5421C15.6353 14.5184 15.6353 14.5184 15.6353 14.4947C15.6353 14.4711 15.6353 14.4711 15.6123 14.4474C15.1534 13.8553 14.8092 13.4763 14.465 13.2395C14.8321 13.2868 15.337 13.3342 15.5894 13.2158C15.6123 13.2158 15.6353 13.1921 15.6353 13.1684V13.1447C15.6353 13.1211 15.6123 13.1211 15.5894 13.1211H15.5664C15.2452 13.2632 14.3961 13.1447 14.1437 13.05C14.1437 13.05 14.1437 13.05 14.1208 13.05C13.8913 12.9789 13.6618 12.9316 13.4324 12.9316C13.2947 12.9316 13.157 12.9553 13.0193 12.9789C13.3635 12.7895 13.6848 12.5289 13.9602 12.2447C13.9602 12.2211 13.9831 12.2211 13.9831 12.1974C13.9831 12.1737 13.9831 12.1737 13.9602 12.15C13.9602 12.15 13.9372 12.1263 13.9143 12.1263C13.8913 12.1263 13.8913 12.1263 13.8684 12.15C13.5242 12.5053 13.1111 12.7895 12.6522 13.0263C12.4916 13.05 12.3309 13.0974 12.1474 13.1447C12.4457 12.5289 12.9046 11.9842 13.4553 11.5579ZM13.1111 14.7553C13.2717 14.8974 13.4324 15.0158 13.593 15.1342C13.4094 15.2289 13.2029 15.3474 13.0423 15.4421C13.1111 15.3 13.1341 15.1342 13.1341 14.9684C13.1341 14.8974 13.1341 14.8263 13.1111 14.7553ZM13.1111 14.4947C13.157 14.3289 13.3176 14.2105 13.5012 14.2105C13.5242 14.2105 13.5471 14.2105 13.593 14.2105L13.8225 14.3289C13.8225 14.3526 13.8225 14.3763 13.8454 14.4C13.8684 14.5895 13.9143 14.7553 14.006 14.8974C14.006 14.8974 14.006 14.8974 14.006 14.9211C13.9372 14.9447 13.8913 14.9684 13.8225 15.0158C13.5701 14.8737 13.3406 14.6842 13.1111 14.4947ZM12.721 15.0158C12.6751 15.0158 12.6292 14.9684 12.6292 14.9211C12.6292 14.8737 12.6751 14.8263 12.721 14.8263C12.7669 14.8263 12.8128 14.8737 12.8128 14.9211C12.8128 14.9684 12.7669 15.0158 12.721 15.0158ZM12.7899 15.2289C12.7899 15.2763 12.744 15.3237 12.6981 15.3237C12.6522 15.3237 12.6063 15.2763 12.6063 15.2289C12.6063 15.1816 12.6522 15.1342 12.6981 15.1342C12.744 15.1342 12.7899 15.1816 12.7899 15.2289ZM12.5374 14.9211C12.5374 14.9684 12.4916 15.0158 12.4457 15.0158C12.3998 15.0158 12.3539 14.9684 12.3539 14.9211C12.3539 14.8737 12.3998 14.8263 12.4457 14.8263C12.4916 14.8263 12.5374 14.8737 12.5374 14.9211ZM6.13527 7.72105C6.2959 7.86316 6.38769 8.05263 6.38769 8.26579C6.38769 8.33684 6.38769 8.40789 6.36474 8.47895C6.3418 8.47895 6.31885 8.43158 6.27296 8.33684C6.22706 8.19474 6.06643 7.79211 5.74518 7.67368C5.79107 7.65 5.83696 7.65 5.90581 7.65C5.99759 7.65 6.06643 7.67368 6.13527 7.72105ZM4.66667 11.2263C4.23068 11.2026 3.72585 11.0132 3.72585 10.8C3.72585 10.5868 4.29952 10.4211 4.66667 10.4684C4.68962 10.5868 4.71257 10.7289 4.71257 10.8474C4.68962 10.9658 4.68962 11.1079 4.66667 11.2263ZM4.8732 11.3921C4.8273 11.3921 4.78141 11.3447 4.78141 11.2974C4.78141 11.25 4.8273 11.2026 4.8732 11.2026C4.91909 11.2026 4.96498 11.25 4.96498 11.2974C4.96498 11.3447 4.91909 11.3921 4.8732 11.3921ZM4.89614 11.0368C4.85025 11.0368 4.80436 10.9895 4.80436 10.9421C4.80436 10.8947 4.85025 10.8474 4.89614 10.8474C4.94204 10.8474 4.98793 10.8947 4.98793 10.9421C4.98793 10.9895 4.94204 11.0368 4.89614 11.0368ZM4.91909 10.6342C4.8732 10.6342 4.8273 10.5868 4.8273 10.5395C4.8273 10.4921 4.8732 10.4447 4.91909 10.4447C4.96498 10.4447 5.01088 10.4921 5.01088 10.5395C5.01088 10.5868 4.96498 10.6342 4.91909 10.6342ZM4.89614 9.94737C4.89614 9.99474 4.89614 10.0421 4.91909 10.0895C4.73551 10.2079 4.52899 10.2789 4.29952 10.2789C4.27658 10.2789 4.25363 10.2789 4.25363 10.2789C3.61112 10.2316 3.33576 9.99474 3.33576 9.73421C3.33576 9.49737 3.86353 9.54474 3.88648 9.16579C3.90943 8.85789 3.54228 8.81053 3.24397 8.81053C2.46378 8.81053 2.39494 8.52631 2.39494 8.33684C2.39494 8.07631 2.6244 8.05263 2.94566 7.83947C3.3587 7.60263 3.08334 7.29474 2.80798 7.10526C2.53262 6.91579 2.30315 6.37105 2.78503 6.08684C3.26692 5.80263 3.49638 6.03947 3.72585 6.56053C3.90943 6.98684 4.29952 6.77368 4.43721 6.60789C4.52899 6.53684 4.62078 6.51316 4.71257 6.51316C4.78141 6.51316 4.85025 6.53684 4.91909 6.56053C5.10266 6.75 5.28624 6.93947 5.49276 7.10526C5.5616 7.27105 5.58455 7.46052 5.58455 7.65C5.5616 7.65 5.51571 7.65 5.46981 7.65C5.30919 7.65 5.14856 7.69737 5.03382 7.79211C4.8273 7.91053 4.68962 8.12368 4.66667 8.38421C4.66667 8.40789 4.66667 8.40789 4.66667 8.43158C4.66667 8.47895 4.66667 8.55 4.68962 8.62105C4.57489 8.50263 4.46015 8.38421 4.32247 8.26579C4.32247 8.1 4.29952 7.95789 4.29952 7.79211C4.29952 7.53158 4.32247 7.27105 4.34542 7.03421C4.34542 7.01053 4.32247 6.98684 4.29952 6.98684C4.27658 6.98684 4.25363 7.01053 4.25363 7.03421C4.23068 7.29474 4.20774 7.55526 4.20774 7.81579C4.20774 7.93421 4.20774 8.05263 4.20774 8.14737C3.7488 7.62632 3.3587 7.08158 3.0145 6.51316C3.0145 6.48947 2.99155 6.48947 2.96861 6.48947C2.94566 6.48947 2.94566 6.48947 2.94566 6.48947C2.92271 6.48947 2.92271 6.51316 2.92271 6.53684C2.92271 6.56053 2.92271 6.56053 2.92271 6.56053C3.28986 7.17631 3.70291 7.72105 4.16184 8.26579C4.093 8.26579 4.02416 8.26579 3.93237 8.26579C3.65701 8.26579 3.38165 8.2421 3.10629 8.17105C3.10629 8.17105 3.10629 8.17105 3.08334 8.17105C3.06039 8.17105 3.03745 8.19474 3.03745 8.21842C3.03745 8.21842 3.03745 8.21842 3.03745 8.2421C3.03745 8.26579 3.06039 8.28947 3.08334 8.28947C3.3587 8.36053 3.65701 8.38421 3.93237 8.38421C4.04711 8.38421 4.1389 8.38421 4.25363 8.36052C4.41426 8.55 4.59783 8.73947 4.80436 8.90526C4.8732 9 4.94204 9.09474 5.03382 9.16579C5.28624 9.37895 5.30919 9.45 5.30919 9.47368C5.30919 9.47368 5.28624 9.52105 5.24035 9.54474C5.05677 9.61579 4.89614 9.73421 4.89614 9.94737ZM5.10267 11.0605C5.14856 11.0605 5.19445 11.1079 5.19445 11.1553C5.19445 11.2026 5.14856 11.25 5.10267 11.25C5.05677 11.25 5.01088 11.2026 5.01088 11.1553C5.03382 11.1079 5.05677 11.0605 5.10267 11.0605ZM5.07972 10.7526C5.07972 10.7053 5.12561 10.6579 5.17151 10.6579C5.2174 10.6579 5.26329 10.7053 5.26329 10.7526C5.26329 10.8 5.2174 10.8474 5.17151 10.8474C5.12561 10.8474 5.07972 10.8 5.07972 10.7526ZM5.14856 11.8658C4.75846 11.4868 5.40097 11.3211 5.65339 10.9895C5.79107 10.7763 5.63044 10.5632 5.28624 10.2553C4.96498 9.97105 5.07972 9.82895 5.33213 9.61579C5.6075 9.40263 5.46981 9.21316 5.14856 8.92895C4.75846 8.59737 4.80436 8.12368 5.14856 7.91053C5.69928 7.57895 5.9517 8.05263 6.08938 8.40789C6.22706 8.76316 6.43358 8.66842 6.66305 8.52632C6.96136 8.33684 7.09904 8.73947 7.16788 9.16579C7.23672 9.5921 7.51209 9.52105 7.69566 9.47368C8.1087 9.40263 8.29228 9.61579 8.40701 9.9C8.31523 10.0421 8.26933 10.1842 8.26933 10.35C8.26933 10.3974 8.26933 10.4447 8.26933 10.4921C8.31523 10.7053 8.47585 10.8711 8.68238 10.9421C8.75122 10.9658 8.79711 10.9895 8.86595 11.0132C9.30194 11.2263 9.32489 11.2737 9.30194 11.3921C9.27899 11.4868 9.2331 11.4868 9.02658 11.4868H9.00363C8.93479 11.4868 8.86595 11.4868 8.79711 11.5105C8.52175 11.1316 8.03986 10.7526 7.64977 10.7526C7.64977 10.7526 7.64977 10.7526 7.62682 10.7526V10.2079C7.62682 10.1842 7.60387 10.1605 7.55798 10.1605C7.53503 10.1605 7.51209 10.1842 7.51209 10.2079V10.7763C7.46619 10.8 7.39735 10.8237 7.35146 10.8474C7.25967 10.9184 7.19083 10.9895 7.12199 11.0605C6.98431 10.7289 6.82368 10.3974 6.6401 10.0658C6.6401 9.45 6.70895 8.97631 6.77779 8.83421V8.81053C6.77779 8.78684 6.77779 8.76316 6.75484 8.76316H6.73189C6.70895 8.76316 6.686 8.78684 6.686 8.78684C6.59421 8.95263 6.54832 9.37895 6.52537 9.87631C6.18117 9.30789 5.76812 8.76316 5.35508 8.2421C5.35508 8.21842 5.33213 8.21842 5.30919 8.21842C5.28624 8.21842 5.28624 8.21842 5.26329 8.2421C5.24035 8.26579 5.24035 8.26579 5.24035 8.28947C5.24035 8.31316 5.24035 8.31316 5.24035 8.33684C5.67634 8.85789 6.06643 9.40263 6.41064 9.97105C6.25001 9.92368 6.11233 9.9 5.9517 9.87631C5.76812 9.85263 5.58455 9.80526 5.40097 9.75789C5.40097 9.75789 5.40097 9.75789 5.37803 9.75789C5.35508 9.75789 5.33213 9.78158 5.33213 9.80526C5.33213 9.80526 5.33213 9.80526 5.33213 9.82895C5.33213 9.85263 5.35508 9.87631 5.37803 9.87631C5.5616 9.92368 5.76812 9.97105 5.9517 9.99474C6.15822 10.0184 6.3418 10.0658 6.52537 10.1368C6.70895 10.4447 6.86957 10.8 7.00725 11.1316C7.00725 11.1553 7.0302 11.1553 7.05315 11.1553C7.00725 11.25 6.98431 11.3447 6.96136 11.4395C6.686 11.3684 6.41064 11.2737 6.15822 11.1316H6.13527C6.11233 11.1316 6.08938 11.1553 6.08938 11.1553V11.1789C6.08938 11.2026 6.08938 11.2263 6.11233 11.2263C6.36474 11.3684 6.66305 11.4632 6.93841 11.5342C6.91547 11.6289 6.89252 11.6526 6.84663 11.6763C6.77779 11.7237 6.686 11.7474 6.61716 11.7474C6.50242 11.7474 6.38769 11.7 6.2959 11.6526C6.22706 11.6053 6.13527 11.5816 6.04349 11.5816C5.92875 11.5816 5.83696 11.6289 5.74518 11.7C5.65339 11.8184 5.6075 11.9605 5.6075 12.1026C5.6075 12.1263 5.6075 12.15 5.6075 12.15C5.6075 12.1737 5.6075 12.1974 5.6075 12.2211C5.46981 12.1737 5.30919 12.0316 5.14856 11.8658ZM5.35508 10.8947C5.40097 10.8947 5.44687 10.9421 5.44687 10.9895C5.44687 11.0368 5.40097 11.0842 5.35508 11.0842C5.30919 11.0842 5.26329 11.0368 5.26329 10.9895C5.28624 10.9421 5.30919 10.8947 5.35508 10.8947ZM5.30919 10.5632C5.30919 10.5158 5.35508 10.4684 5.40097 10.4684C5.44687 10.4684 5.49276 10.5158 5.49276 10.5632C5.49276 10.6105 5.44687 10.6579 5.40097 10.6579C5.35508 10.6579 5.30919 10.6105 5.30919 10.5632ZM6.61716 15.5368C6.47948 15.4184 6.43358 14.9211 6.6401 14.4947C6.91547 14.5184 7.19083 14.6605 7.39735 14.85C7.32851 15.0395 6.77779 15.6789 6.61716 15.5368ZM7.16788 14.0447C7.12199 14.0447 7.0761 13.9974 7.0761 13.95C7.0761 13.9026 7.12199 13.8553 7.16788 13.8553C7.21378 13.8553 7.25967 13.9026 7.25967 13.95C7.25967 13.9974 7.21378 14.0447 7.16788 14.0447ZM7.28262 14.1395C7.32851 14.1395 7.3744 14.1868 7.3744 14.2342C7.3744 14.2816 7.32851 14.3289 7.28262 14.3289C7.23672 14.3289 7.19083 14.2816 7.19083 14.2342C7.21378 14.1868 7.23672 14.1395 7.28262 14.1395ZM7.12199 14.3053C7.12199 14.3526 7.07609 14.4 7.0302 14.4C6.98431 14.4 6.93841 14.3526 6.93841 14.3053C6.93841 14.2579 6.98431 14.2105 7.0302 14.2105C7.07609 14.2105 7.12199 14.2579 7.12199 14.3053ZM7.3744 14.6132C7.32851 14.6132 7.28262 14.5658 7.28262 14.5184C7.28262 14.4711 7.32851 14.4237 7.3744 14.4237C7.4203 14.4237 7.46619 14.4711 7.46619 14.5184C7.46619 14.5658 7.4203 14.6132 7.3744 14.6132ZM7.46619 14.1632C7.46619 14.1158 7.51209 14.0684 7.55798 14.0684C7.60387 14.0684 7.64977 14.1158 7.64977 14.1632C7.64977 14.2105 7.60387 14.2579 7.55798 14.2579C7.51209 14.2579 7.46619 14.2105 7.46619 14.1632ZM7.64977 14.6368C7.60387 14.6368 7.55798 14.5895 7.55798 14.5421C7.55798 14.4947 7.60387 14.4474 7.64977 14.4474C7.69566 14.4474 7.74155 14.4947 7.74155 14.5421C7.71861 14.5895 7.69566 14.6368 7.64977 14.6368ZM7.71861 14.0684C7.60387 13.9026 7.4203 13.7132 7.25967 13.7368C6.89252 13.7605 6.84663 14.3053 6.36474 14.3289C6.13527 14.3289 6.13527 14.0921 5.99759 13.7605C5.88286 13.4289 5.53866 13.7368 5.17151 13.7132C5.01088 13.7132 4.57489 13.5711 4.66667 13.0974C4.75846 12.6474 5.2174 12.6 5.49276 12.6237C5.76812 12.6474 5.88286 12.6 5.88286 12.2211C5.88286 11.8421 6.11233 11.7947 6.27296 11.8895C6.38769 11.9842 6.52537 12.0316 6.686 12.0316C6.80073 12.0316 6.91547 12.0079 7.00725 11.9605C7.30556 11.7947 7.07609 11.3921 7.51209 11.0605C7.78745 10.8474 8.36112 11.2737 8.65943 11.6763C8.63648 11.7 8.61354 11.7237 8.61354 11.7711C8.61354 11.8184 8.59059 11.8658 8.59059 11.9132C8.59059 12.0553 8.63648 12.1737 8.70532 12.2921C8.75122 12.3632 8.82006 12.4105 8.8889 12.4579C8.70532 12.4342 8.52175 12.4105 8.36112 12.4105C8.1546 12.2921 7.53503 11.8895 7.53503 11.8895H7.51209C7.48914 11.8895 7.46619 11.8895 7.46619 11.9132V11.9368C7.46619 11.9605 7.46619 11.9842 7.48914 11.9842C7.51209 12.0079 7.90218 12.2447 8.1546 12.4105C7.78745 12.4342 7.4203 12.5289 7.05315 12.6711L7.00725 12.6947C6.84663 12.6711 6.70895 12.6 6.57126 12.5053C6.45653 12.4342 6.3418 12.3632 6.22706 12.3158H6.20411C6.18117 12.3158 6.15822 12.3395 6.15822 12.3632V12.3868C6.15822 12.4105 6.18117 12.4342 6.18117 12.4342C6.2959 12.4816 6.41064 12.5526 6.52537 12.6237C6.61716 12.6711 6.70895 12.7421 6.82368 12.7895C6.52537 12.8842 6.22706 12.9553 5.90581 12.9553C5.81402 12.9553 5.69928 12.9553 5.6075 12.9316C5.58455 12.9316 5.5616 12.9553 5.5616 12.9789C5.5616 13.0026 5.58455 13.0263 5.6075 13.0263C5.72223 13.05 5.81402 13.05 5.92875 13.05C6.2959 13.05 6.66305 12.9789 7.00725 12.8368C6.86957 13.0737 6.70895 13.3105 6.52537 13.5C6.50242 13.5237 6.50242 13.5237 6.50242 13.5474C6.50242 13.5711 6.50242 13.5711 6.50242 13.5947C6.50242 13.6184 6.52537 13.6184 6.54832 13.6184C6.57126 13.6184 6.57126 13.6184 6.59421 13.5947C6.82368 13.3579 7.00725 13.0737 7.14494 12.7895C7.48914 12.6474 7.83334 12.5763 8.17754 12.5526C7.97102 12.7421 7.7645 12.9553 7.60387 13.1684V13.1921C7.60387 13.2158 7.60387 13.2395 7.62682 13.2395C7.62682 13.2395 7.64977 13.2632 7.67271 13.2632C7.69566 13.2632 7.71861 13.2632 7.71861 13.2395C7.90218 12.9789 8.13165 12.7421 8.40701 12.5526C8.63648 12.5526 8.86595 12.5763 9.07247 12.6474C9.04953 12.6947 9.04953 12.7184 9.02658 12.7658C9.02658 12.7895 9.02658 12.7895 9.02658 12.7895C9.02658 12.9789 9.11837 13.1447 9.27899 13.2158C9.32489 13.2395 9.34783 13.2868 9.34783 13.3342C9.34783 13.3579 9.32489 13.4053 9.27899 13.4289C9.02658 13.5947 8.75122 13.6895 8.45291 13.7132C8.01692 13.7605 7.81039 13.9263 7.71861 14.0684ZM11.2524 15.4421C11.2295 15.4421 11.2295 15.4421 11.2065 15.4421C11.0688 15.4421 10.9541 15.3711 10.9082 15.2526C10.8623 15.1342 10.8164 15.0158 10.7705 14.9211C10.7017 14.8263 10.6558 14.7316 10.6558 14.6132V14.5895C10.6558 14.5658 10.6558 14.5184 10.6788 14.4947C10.7017 14.4711 10.7246 14.4711 10.7246 14.4711C10.7705 14.4711 10.7935 14.4947 10.8394 14.5184L10.8623 14.5421C11.023 14.6842 11.2524 14.8974 11.5048 14.9211C11.5507 14.9211 11.6196 14.9211 11.6655 14.8974C11.6425 15.1342 11.5507 15.3947 11.2524 15.4421ZM11.6655 14.6368C11.436 14.8263 11.1377 14.5421 10.9541 14.3763C10.7476 14.1868 10.4263 14.2816 10.4493 14.6132C10.4722 14.9447 10.9771 15.3474 10.587 15.6079C10.1969 15.8684 9.89856 15.3711 9.6232 15.4658C9.34783 15.5605 9.46257 15.7974 9.37078 16.2C9.30194 16.6026 8.75122 16.7211 8.47585 16.4842C8.33817 16.3658 8.26933 16.2 8.26933 16.0105C8.26933 15.8447 8.33817 15.6789 8.45291 15.5605C8.56764 15.4658 8.63648 15.3237 8.63648 15.1579C8.63648 15.0395 8.59059 14.9211 8.52175 14.8263C8.36112 14.6368 7.78745 14.8263 7.81039 14.3289C7.83334 14.1158 7.99397 13.9263 8.45291 13.8553C8.77416 13.8316 9.07247 13.7132 9.34783 13.5237C9.43962 13.4763 9.50846 13.3579 9.50846 13.2632C9.50846 13.1447 9.43962 13.05 9.34783 12.9789C9.18721 12.8842 9.09542 12.6 9.34783 12.5289C9.76088 12.3868 10.0592 12.5289 10.1739 12.6474C10.1969 12.6711 10.2428 12.7184 10.2887 12.7895C10.2428 12.8132 10.1969 12.8605 10.151 12.8842C9.99035 13.0026 9.80677 13.1211 9.78382 13.3579V13.3816C9.78382 13.5 9.82972 13.6184 9.89856 13.7132C9.80677 13.8079 9.71498 13.9026 9.64614 14.0211C9.60025 14.0684 9.09542 14.4 8.843 14.6368C8.82006 14.6605 8.82006 14.6605 8.82006 14.6842C8.82006 14.7079 8.82006 14.7079 8.843 14.7316C8.843 14.7553 8.86595 14.7553 8.8889 14.7553C8.91184 14.7553 8.91184 14.7553 8.93479 14.7316C9.09542 14.5895 9.32489 14.4237 9.48552 14.3053C9.18721 14.85 8.98068 15.4658 8.93479 16.1053C8.93479 16.1289 8.95774 16.1526 8.98068 16.1763C9.00363 16.1763 9.02658 16.1526 9.02658 16.1289C9.07247 15.4658 9.30194 14.85 9.6232 14.2816C9.6232 14.6132 9.71498 14.9211 9.87561 15.2053C9.87561 15.2289 9.89856 15.2289 9.92151 15.2289H9.94445C9.9674 15.2289 9.9674 15.2053 9.9674 15.1816C9.9674 15.1579 9.9674 15.1579 9.9674 15.1579C9.80677 14.85 9.71498 14.5184 9.71498 14.1868C9.71498 14.1632 9.71498 14.1632 9.71498 14.1632C9.78382 14.0684 9.85267 13.9737 9.94445 13.8789C9.94445 13.8789 9.94445 13.8789 9.9674 13.9026C10.151 14.0921 10.4263 14.1868 10.7935 14.1868C11.023 14.1868 11.2524 14.1632 11.4589 14.1158H11.5048C11.7343 14.2579 11.849 14.4711 11.6655 14.6368ZM11.8949 13.5237C11.872 13.3816 11.8261 13.2395 11.7802 13.0974C11.7802 12.9316 11.7573 12.7658 11.7343 12.6C11.6884 12.3395 11.6655 12.0789 11.6655 11.8184C11.6655 11.7947 11.6425 11.7711 11.5966 11.7711C11.5507 11.7711 11.5507 11.7947 11.5507 11.8184C11.5507 12.0789 11.5966 12.3395 11.6196 12.6C11.6196 12.6474 11.6425 12.7184 11.6425 12.7658C11.3901 12.3395 11.0459 11.9842 10.6558 11.7V11.6763C10.6558 11.3684 10.587 11.0605 10.4722 10.7763C10.4722 10.7526 10.4493 10.7526 10.4263 10.7526H10.4034C10.3804 10.7763 10.3804 10.7763 10.3804 10.8C10.3804 10.8237 10.3804 10.8237 10.3804 10.8237C10.4952 11.0842 10.5411 11.3447 10.5411 11.6053L10.4493 11.5342C9.94445 11.1789 9.48552 10.8474 9.2331 10.2079C9.2331 10.1842 9.21015 10.1605 9.18721 10.1605H9.16426C9.14131 10.1605 9.11837 10.1842 9.11837 10.2079V10.2316C9.39373 10.8947 9.87561 11.2737 10.3804 11.6289L10.4263 11.6526C10.1969 11.7 9.9674 11.7237 9.73793 11.7237C9.69204 11.7237 9.66909 11.7237 9.6232 11.7237C9.60025 11.7237 9.5773 11.7474 9.5773 11.7711C9.5773 11.7947 9.60025 11.8184 9.6232 11.8421C9.66909 11.8421 9.71498 11.8421 9.76088 11.8421C10.0362 11.8421 10.2887 11.7947 10.564 11.7474C10.9771 12.0553 11.3901 12.4105 11.6425 12.9789C11.3213 12.8842 11.0459 12.8605 10.7705 12.9553C10.7476 12.9553 10.7246 12.9789 10.7246 13.0026V13.0263C10.7246 13.05 10.7476 13.05 10.7705 13.05H10.7935C11.023 12.9553 11.2524 12.9553 11.6655 13.0974C11.7114 13.2632 11.7573 13.4289 11.7802 13.5947C11.6655 13.7368 11.5048 13.8079 11.3213 13.8316C10.8853 13.9026 10.3575 13.95 10.0592 13.6658C9.50846 13.1211 10.5411 13.0737 10.5411 12.6C10.5411 12.1263 9.85267 12.1026 9.41668 12.2684C8.91184 12.4579 8.65943 11.9605 8.72827 11.7474C8.79711 11.5579 9.30194 11.8184 9.41668 11.4158C9.53141 11.0605 9.16426 10.9421 8.72827 10.7289C8.29228 10.5158 8.40701 10.1132 8.59059 9.85263C8.65943 9.78158 8.75122 9.71053 8.843 9.68684C8.93479 9.66316 9.5773 10.1132 9.71498 10.3263C9.85267 10.5395 9.82972 10.4447 10.1739 10.4447C10.5181 10.4447 10.9312 10.6342 10.9771 10.9895C11.023 11.3447 11.0918 11.4158 11.6425 11.1789C12.3309 10.9184 12.4227 11.7947 12.3768 12.15C12.3539 12.3158 12.308 12.4579 12.2162 12.6237C12.1244 12.8368 11.9867 13.1211 11.8949 13.3579C11.9408 13.4526 11.9179 13.5 11.8949 13.5237ZM12.0326 15.7737C11.849 15.6553 11.9638 15.2763 12.1474 15.0868C12.285 15.1816 12.3998 15.2763 12.4916 15.4184C12.5833 15.5842 12.2391 15.9158 12.0326 15.7737ZM12.5604 16.4605C12.1703 16.5553 11.6655 16.3184 12.1703 16.2C12.4916 16.1289 12.9505 16.3658 12.5604 16.4605ZM12.9046 16.2237C12.744 16.1053 12.5604 16.0105 12.3539 16.0105C12.8128 15.7263 13.4324 15.3947 14.0978 15.0632C14.1667 15.1342 14.2585 15.1816 14.3732 15.1816C14.5338 15.1579 14.6715 15.0868 14.7862 14.9447C14.8092 14.9211 14.8551 14.8974 14.878 14.85C14.901 14.8263 14.9469 14.8026 14.9698 14.8026C14.9928 14.8026 15.0387 14.8263 15.0845 14.9211C14.3273 15.3237 13.593 15.75 12.9046 16.2237ZM14.006 16.7684C13.4324 16.9816 12.7669 16.7684 13.2029 16.5553C13.5701 16.3895 14.5568 16.5553 14.006 16.7684ZM14.1896 16.3895C14.006 16.3184 13.8225 16.2947 13.6389 16.2947C13.5012 16.2947 13.3635 16.3184 13.2488 16.3421C13.8913 15.9158 14.5797 15.5368 15.2681 15.2053C15.3599 15.3 15.4976 15.3711 15.6353 15.3947C15.1075 15.7263 14.5568 16.1053 14.1896 16.3895ZM16.8285 16.8158C16.3696 16.7447 16.8974 16.2711 17.7923 16.3658C18.3201 16.4132 17.7234 16.9342 16.8285 16.8158ZM17.5858 16.1763C17.5399 16.1763 17.494 16.1763 17.4251 16.1763C17.0809 16.1763 16.7597 16.3184 16.5073 16.5553C16.3237 16.4368 15.8877 16.2237 15.3599 15.9395C15.6123 15.7737 15.8647 15.6079 16.0942 15.4658C16.6908 15.75 17.2416 16.0342 17.5858 16.1763ZM16.3925 14.9211C16.4155 14.85 16.4384 14.7789 16.4384 14.7079L16.5531 14.6605L16.7138 14.7316C16.6449 14.7553 16.5302 14.8263 16.3925 14.9211ZM18.9626 15.8921C19.3756 16.0579 18.6643 16.3421 18.3201 16.1763C18.0676 16.0342 18.5725 15.75 18.9626 15.8921ZM18.6643 15.7263C18.5266 15.7026 18.1824 15.75 18.0676 15.9158C18.0676 15.9158 17.2874 15.5605 16.7826 15.3C16.8285 15.1816 16.9432 15.1105 17.058 15.0868C17.1727 15.0632 17.8841 15.4658 18.6643 15.7263ZM19.8804 16.6263C20.3623 16.4368 20.7065 16.2947 20.7754 16.2C20.9589 16.2947 21.1196 16.3658 21.3031 16.4132C20.9131 16.5553 20.523 16.6263 20.1099 16.6263C20.0411 16.65 19.9493 16.65 19.8804 16.6263ZM21.6474 16.2C20.7065 16.0579 18.1135 15.1579 16.8515 14.5658C16.9432 14.4947 17.058 14.4474 17.1498 14.4C18.5266 14.8737 20.087 15.0632 21.9227 15.2526C21.808 15.5605 21.7162 15.8684 21.6474 16.2ZM22.4046 15.7263C22.4964 15.5842 22.5882 15.4658 22.7029 15.3474L23.0012 15.3711C23.0012 15.3711 22.4275 15.7263 22.4046 15.7263ZM23.8273 14.3526C23.7355 14.6132 23.5978 14.85 23.4372 15.0632C23.1848 15.0868 22.9094 15.0868 22.657 15.0868C21.8768 15.0868 21.0966 15.0395 20.3164 14.9447C20.5688 14.8026 20.7983 14.6605 21.0507 14.4947C21.1884 14.4947 21.3261 14.4947 21.4638 14.4947C22.244 14.4947 23.0471 14.4474 23.8273 14.3526ZM23.6437 13.7605C22.8406 13.9974 22.1981 14.0921 21.6932 14.0684C21.9457 13.9974 22.1981 13.9026 22.4734 13.8316L22.6341 13.7842C22.657 13.7842 22.68 13.7605 22.68 13.7368V13.7132C22.68 13.6895 22.657 13.6658 22.6341 13.6658H22.6111L22.4505 13.7132C22.0604 13.8316 21.6932 13.95 21.372 14.0447C21.2114 14.0211 21.0507 13.95 20.8901 13.8789C21.2802 13.7842 21.6474 13.6421 22.0145 13.5C22.1292 13.4763 22.244 13.4289 22.3587 13.3816C22.7717 13.5947 23.2077 13.7368 23.6437 13.7605ZM25.4336 12.4579C24.1486 13.1211 23.4143 13.3579 22.7029 13.3105C23.0701 13.2158 23.4372 13.0737 23.7814 12.8842C23.8044 12.8605 23.8044 12.8605 23.8044 12.8368V12.8132C23.8044 12.7895 23.7814 12.7895 23.7585 12.7895H23.7355C23.2995 13.0263 22.8406 13.1921 22.3587 13.2632C22.221 13.2395 22.1063 13.1684 22.0145 13.0737C22.4505 12.9316 22.9094 12.7658 23.3225 12.5763C23.506 12.5289 23.6896 12.4579 23.8732 12.3632C24.1945 12.4816 24.6304 12.5763 25.4336 12.4579ZM26.2597 11.4158C25.2959 12.0079 24.7681 12.2684 24.2174 12.2684C24.1945 12.2684 24.1486 12.2684 24.1256 12.2684C24.3321 12.1974 24.5387 12.0789 24.814 11.9842L24.8599 11.9605C24.8829 11.9605 24.9058 11.9368 24.9058 11.9132V11.8895C24.9058 11.8658 24.8829 11.8421 24.8599 11.8421H24.837L24.7911 11.8658C24.4698 12.0079 24.1945 12.1263 23.965 12.2211C23.8961 12.1974 23.8273 12.1263 23.7814 12.0553C24.0797 11.9132 24.378 11.7474 24.6534 11.5579C24.6993 11.5342 24.7222 11.5105 24.7681 11.4868C24.8599 11.4395 24.9517 11.3921 25.0435 11.3211C25.3188 11.3921 25.5942 11.4158 25.8696 11.4158C25.9843 11.4395 26.122 11.4395 26.2597 11.4158ZM27.43 10.2079C26.7874 10.7289 26.3515 11.0842 25.4565 11.2026C25.4336 11.2026 25.3877 11.2026 25.3647 11.2026C25.3418 11.2026 25.2959 11.2026 25.273 11.2026C25.3647 11.1553 25.4565 11.0842 25.5713 11.0132C25.5942 10.9895 25.5942 10.9895 25.5942 10.9658C25.5942 10.9421 25.5942 10.9421 25.5942 10.9421C25.5942 10.9184 25.5713 10.9184 25.5483 10.9184H25.5254C25.3877 11.0132 25.25 11.0842 25.1353 11.1553C25.0664 11.1079 24.9746 11.0605 24.9517 10.9895C25.3647 10.8237 25.7778 10.6342 26.1449 10.3737C26.2367 10.3737 26.3515 10.3974 26.4432 10.3974C26.7645 10.35 27.1087 10.3026 27.43 10.2079ZM26.5809 10.0658C26.535 10.0895 26.4662 10.0895 26.4203 10.0895C26.3285 10.0895 26.2367 10.0658 26.1679 10.0184C26.4203 9.87631 26.6498 9.71053 26.8563 9.52105C26.8792 9.49737 26.8792 9.49737 26.8792 9.47368C26.8792 9.45 26.8792 9.45 26.8563 9.42631C26.8333 9.40263 26.8333 9.40263 26.8104 9.40263C26.7874 9.40263 26.7874 9.40263 26.7645 9.42631C26.558 9.61579 26.3056 9.78158 26.0761 9.92368C26.0531 9.9 26.0531 9.85263 26.0531 9.82895C26.3744 9.63947 26.6727 9.45 26.9481 9.21316C26.994 9.21316 27.0399 9.21316 27.0858 9.21316C27.407 9.21316 27.7283 9.16579 28.0495 9.09474C28.3708 9.02368 27.43 9.87632 26.5809 10.0658ZM28.8297 7.86316C28.1184 8.66842 27.7971 8.92895 27.43 9C27.3841 9 27.3382 9.02368 27.2923 9.02368C27.2693 9.02368 27.2464 9.02368 27.2464 9.02368C27.43 8.88158 27.6365 8.71579 27.8889 8.50263C27.9118 8.47895 27.9118 8.47895 27.9118 8.45526C27.9118 8.43158 27.9118 8.43158 27.8889 8.40789C27.866 8.38421 27.8659 8.38421 27.843 8.38421C27.8201 8.38421 27.8201 8.38421 27.7971 8.40789C27.5676 8.62105 27.3382 8.81053 27.0858 8.97632C26.994 8.92895 26.9251 8.85789 26.8792 8.76316C27.1546 8.55 27.407 8.31316 27.6365 8.02895C28.0495 7.95789 28.4396 7.88684 28.8297 7.86316ZM26.9022 8.59737C26.9481 8.43158 27.0628 8.28947 27.2005 8.19474C27.2923 8.14737 27.3841 8.1 27.4759 8.07632C27.2923 8.26579 27.0858 8.43158 26.9022 8.59737ZM28.0725 7.79211C28.0266 7.81579 28.0036 7.81579 27.9577 7.81579C27.8201 7.81579 27.6824 7.74474 27.6365 7.62631C27.3611 7.95789 27.0399 8.26579 26.7416 8.55C26.7416 8.55 26.7416 8.55 26.7186 8.55C26.3285 9 26.099 9.16579 25.8696 9.21316C25.5024 9.30789 25.2041 9.09474 25.686 8.71579C25.9614 8.50263 26.4203 8.50263 26.8333 8.28947C27.1087 8.02895 27.3611 7.76842 27.5906 7.48421C27.5906 7.31842 27.6594 7.2 27.7742 7.08158C28.1413 6.70263 29.0133 6.86842 29.3804 6.39474C28.6232 7.57895 28.4396 7.69737 28.0725 7.79211ZM28.5773 6.60789C28.5544 6.60789 28.5544 6.60789 28.5314 6.60789C28.3478 6.60789 28.1872 6.44211 28.1872 6.25263C28.1872 6.15789 28.2331 6.06316 28.3019 5.9921C28.5314 5.73158 29.3116 5.87368 29.6099 5.51842C29.2428 6.22895 28.8756 6.56053 28.5773 6.60789C28.5773 6.60789 28.5773 6.58421 28.5773 6.60789ZM29.2887 5.42368C28.9903 5.70789 28.4167 5.4 28.9215 4.83158C29.1969 4.52368 29.587 4.40526 29.9541 3.93158C29.8853 4.71316 29.6099 5.13947 29.2887 5.42368Z" fill="var(--fill-0, #FEFEFE)"/>
<path id="Path_461" d="M2.48734 2.29738C2.46389 2.25001 2.44043 2.20264 2.44043 2.15527C2.44043 2.20264 2.46389 2.25001 2.48734 2.29738Z" fill="var(--fill-0, #FEFEFE)"/>
<path id="Path_462" d="M4.13967 5.37622L4.11621 5.35254C4.11621 5.35254 4.13967 5.37622 4.13967 5.37622Z" fill="var(--fill-0, #FEFEFE)"/>
<path id="Path_463" d="M3.06039 3.62368C3.03745 3.55263 2.99155 3.48158 2.96861 3.43421C2.99155 3.48158 3.03745 3.55263 3.06039 3.62368Z" fill="var(--fill-0, #FEFEFE)"/>
<path id="Path_465" d="M3.90918 5.04468C3.93264 5.06836 3.93264 5.09205 3.95609 5.11573C3.93264 5.09205 3.90918 5.06836 3.90918 5.04468Z" fill="var(--fill-0, #FEFEFE)"/>
<path id="Path_466" d="M2.80761 3.0552C2.78466 2.98415 2.73877 2.91309 2.71582 2.84204C2.73877 2.93678 2.76171 2.98415 2.80761 3.0552Z" fill="var(--fill-0, #FEFEFE)"/>
<path id="Path_467" d="M2.92271 3.33947C2.89977 3.26842 2.85387 3.19737 2.83093 3.15C2.87682 3.19737 2.89977 3.26842 2.92271 3.33947Z" fill="var(--fill-0, #FEFEFE)"/>
</g>
</svg>
