<svg width="113.853" height="16.555" viewBox="0 0 113.853 16.555" fill="none" xmlns="http://www.w3.org/2000/svg">
<g id="Group">
<path id="Vector" d="M13.3452 16.3927H15.2294L9.30037 0.1161H5.95239L0 16.3927H1.88226L3.45114 12.1143H11.7899L13.3452 16.3927ZM4.04677 10.4871L7.25265 1.74337H8.02152L11.2002 10.4871H4.04872H4.04677ZM28.4617 1.57987L19.4864 14.7635H28.9386L28.3177 16.3908H17.3219V14.927L26.2738 1.74337H17.4153V0.1161H28.4598V1.57987H28.4617ZM43.9286 16.3927H45.8128L39.8838 0.1161H36.5358L30.5834 16.3927H32.4656L34.0345 12.1143H42.3733L43.9286 16.3927ZM34.6302 10.4871L37.836 1.74337H38.6049L41.7835 10.4871H34.6321H34.6302ZM50.4552 0.1161V14.7655H58.0582V16.3927H48.5943V0.1161H50.4552Z" fill="var(--fill-0, white)"/>
<path id="Vector_2" d="M62.4806 16.3934H60.6198V0.116791H62.6656L68.7114 13.8357L74.7339 0.116791H76.7582V16.3934H74.8974V3.78984L69.3635 16.3934H68.0379L62.4806 3.78984V16.3934ZM81.8347 2.44091C81.4785 2.44091 81.1826 2.32412 80.951 2.09249C80.7174 1.85891 80.6025 1.57277 80.6025 1.23213C80.6025 0.891495 80.7193 0.582005 80.951 0.348425C81.1826 0.114845 81.4765 0 81.8347 0C82.1598 0 82.442 0.116792 82.6834 0.348425C82.9228 0.582005 83.0435 0.875923 83.0435 1.23213C83.0435 1.58834 82.9228 1.85891 82.6834 2.09249C82.442 2.32607 82.1598 2.44091 81.8347 2.44091ZM80.951 4.76698H82.6717V16.3934H80.951V4.76698ZM86.662 0.12847H88.4061V16.3934H86.662V0.12847ZM97.179 16.555C96.0947 16.555 95.1293 16.2922 94.2845 15.7647C93.4397 15.2372 92.776 14.517 92.2971 13.6021C91.8163 12.6873 91.5769 11.642 91.5769 10.4644C91.5769 9.28676 91.8163 8.32518 92.2971 7.44147C92.7779 6.55776 93.4358 5.86481 94.2728 5.35872C95.1098 4.85652 96.0636 4.60347 97.1322 4.60347C98.2009 4.60347 99.1274 4.83511 99.9585 5.30032C100.788 5.76554 101.434 6.40982 101.899 7.23125C102.364 8.05267 102.58 8.99089 102.551 10.0439C102.551 10.2133 102.544 10.3924 102.528 10.5792C102.512 10.7661 102.497 10.9666 102.481 11.1846H93.4825C93.5137 11.9126 93.6908 12.5569 94.0178 13.1136C94.3429 13.6722 94.7731 14.1102 95.3084 14.4275C95.8437 14.7447 96.451 14.9044 97.1322 14.9044C98.0315 14.9044 98.7945 14.735 99.4233 14.3924C100.052 14.0518 100.506 13.5632 100.784 12.9287L102.294 13.5321C101.829 14.5092 101.156 15.2567 100.272 15.7764C99.3882 16.2961 98.3566 16.555 97.179 16.555ZM100.644 9.67216C100.657 9.00646 100.515 8.41666 100.214 7.90474C99.9118 7.39281 99.4894 6.98988 98.9464 6.69596C98.4033 6.40204 97.7746 6.25411 97.0622 6.25411C96.4432 6.25411 95.8767 6.40204 95.3648 6.69596C94.8548 6.98988 94.4305 7.3967 94.0976 7.91642C93.7628 8.43614 93.5662 9.02008 93.504 9.67216H100.642H100.644ZM106.602 12.8352C106.695 13.3004 106.865 13.6839 107.114 13.9875C107.361 14.2893 107.682 14.517 108.079 14.6727C108.474 14.8284 108.936 14.9063 109.463 14.9063C110.285 14.9063 110.908 14.7467 111.336 14.4294C111.762 14.1121 111.974 13.7131 111.974 13.2323C111.974 12.8294 111.848 12.5024 111.591 12.2552C111.336 12.008 110.997 11.8016 110.579 11.6381C110.16 11.4746 109.695 11.3325 109.183 11.2079C108.78 11.1165 108.346 11.0036 107.881 10.8712C107.416 10.7388 106.974 10.5578 106.555 10.3242C106.137 10.0907 105.796 9.78895 105.531 9.41717C105.269 9.04539 105.136 8.55682 105.136 7.95146C105.136 7.28575 105.317 6.69985 105.683 6.19571C106.047 5.69156 106.551 5.30032 107.194 5.02197C107.836 4.74362 108.578 4.60347 109.415 4.60347C110.376 4.60347 111.233 4.81175 111.984 5.23025C112.735 5.64874 113.259 6.30082 113.553 7.18259L111.926 7.74123C111.817 7.3383 111.62 7.02881 111.332 6.8108C111.046 6.59474 110.727 6.44681 110.378 6.36895C110.03 6.29109 109.685 6.25216 109.343 6.25216C108.646 6.25216 108.083 6.38841 107.657 6.65898C107.231 6.93149 107.017 7.33636 107.017 7.87944C107.017 8.1753 107.087 8.41861 107.225 8.61132C107.365 8.80597 107.558 8.96363 107.807 9.08821C108.054 9.21279 108.35 9.31595 108.691 9.40159C109.031 9.48724 109.403 9.58457 109.806 9.69357C110.256 9.80257 110.713 9.93688 111.178 10.1004C111.643 10.2639 112.077 10.4722 112.48 10.7291C112.883 10.9841 113.212 11.3092 113.469 11.7063C113.724 12.1014 113.853 12.5939 113.853 13.1817C113.853 13.8649 113.666 14.4567 113.294 14.9608C112.922 15.4649 112.406 15.8562 111.747 16.1345C111.087 16.4129 110.324 16.553 109.456 16.553C108.262 16.553 107.273 16.2864 106.491 15.7511C105.709 15.2158 105.185 14.4294 104.922 13.39L106.596 12.8313L106.602 12.8352Z" fill="var(--fill-0, white)"/>
</g>
</svg>
