<svg width="182.4" height="30" viewBox="0 0 182.4 30" fill="none" xmlns="http://www.w3.org/2000/svg">
<g id="Azerbaijan travel logo" clip-path="url(#clip0_0_111)">
<path id="Vector" opacity="0.3" d="M23.4484 14.2188C23.4484 20.599 18.2082 25.7552 11.7242 25.7552C5.24016 25.7552 0 20.599 0 14.2188C0 7.83855 5.24016 2.6823 11.7242 2.6823C18.2082 2.6823 23.4484 7.83855 23.4484 14.2188Z" fill="var(--fill-0, white)"/>
<path id="Vector_2" opacity="0.7" d="M23.4479 23.9322V4.47904C23.4479 1.27591 18.7371 3.54154 17.5726 4.21862C14.1056 6.22383 11.6973 9.94778 11.6973 14.2186C11.6973 18.4894 14.1321 22.2915 17.5726 24.2186C18.79 24.8957 23.4479 27.1613 23.4479 23.9322Z" fill="var(--fill-0, white)"/>
<path id="Vector_3" d="M144.316 4.21875C145.428 4.21875 146.301 3.38542 146.301 2.29167C146.301 1.19792 145.401 0.338542 144.316 0.338542C143.205 0.338542 142.358 1.22396 142.358 2.29167C142.331 3.35938 143.205 4.21875 144.316 4.21875ZM47.479 17.5521C46.4734 18.8802 44.9119 19.6354 43.4034 19.6354C40.5186 19.6354 38.4543 17.4219 38.4543 14.7917C38.4543 12.2396 40.3598 9.94792 43.2446 9.94792C45.0442 9.94792 46.5792 10.8594 47.479 12.0313V17.5521ZM46.8439 8.22917C45.7059 7.57813 44.3826 7.21354 42.9535 7.21354C38.6661 7.21354 35.1991 10.625 35.1991 14.8438C35.1991 19.0625 38.6661 22.474 42.9535 22.474C44.3561 22.474 45.6794 22.1094 46.8439 21.4583C47.6378 21.901 50.7343 23.4115 50.7343 21.276V8.41146C50.7078 6.27604 47.6114 7.78646 46.8439 8.22917ZM127.669 17.5521C126.664 18.8802 125.102 19.6354 123.594 19.6354C120.709 19.6354 118.645 17.4219 118.645 14.7917C118.645 12.2396 120.55 9.94792 123.435 9.94792C125.235 9.94792 126.77 10.8594 127.669 12.0313V17.5521ZM127.008 8.22917C125.87 7.57813 124.546 7.21354 123.117 7.21354C118.83 7.21354 115.363 10.625 115.363 14.8438C115.363 19.0625 118.83 22.474 123.117 22.474C124.52 22.474 125.843 22.1094 127.008 21.4583C127.802 21.901 130.898 23.4115 130.898 21.276V8.41146C130.898 6.27604 127.802 7.78646 127.008 8.22917ZM161.281 17.5521C160.275 18.8802 158.713 19.6354 157.205 19.6354C154.32 19.6354 152.256 17.4219 152.256 14.7917C152.256 12.2396 154.161 9.94792 157.046 9.94792C158.846 9.94792 160.381 10.8594 161.281 12.0313V17.5521ZM160.645 8.22917C159.507 7.57813 158.184 7.21354 156.755 7.21354C152.468 7.21354 149.001 10.625 149.001 14.8438C149.001 19.0625 152.468 22.474 156.755 22.474C158.158 22.474 159.481 22.1094 160.645 21.4583C161.439 21.901 164.536 23.4115 164.536 21.276V8.41146C164.536 6.27604 161.439 7.78646 160.645 8.22917ZM72.039 12.9427H80.1639C79.714 11.0677 77.9937 9.76563 76.2205 9.76563C74.2886 9.76563 72.5418 11.0417 72.039 12.9427ZM72.0125 15.4427C72.1713 17.9167 74.2356 19.8698 76.8292 19.8698C78.3378 19.8698 79.3699 19.375 80.1374 18.776C80.7461 18.3073 81.646 18.3594 82.2017 18.8802L83.0751 19.6875C81.9635 21.0938 79.8463 22.4219 76.8028 22.4219C72.4624 22.4219 68.7837 19.1927 68.7837 14.7917C68.7837 10.3906 72.1449 7.16146 76.3529 7.16146C80.5079 7.16146 83.525 10.4688 83.525 14.7917C83.525 14.9219 83.525 15.1302 83.4985 15.4167L72.0125 15.4427ZM171.046 8.88021C171.84 8.125 173.349 7.16146 175.519 7.16146C179.462 7.16146 182.4 9.32292 182.4 14.9479V20.651C182.4 21.4583 181.738 22.1094 180.918 22.1094H179.145V14.8177C179.145 11.6406 177.477 9.97396 175.281 9.97396C173.322 9.97396 172.052 11.0156 171.152 12.0573V20.6771C171.152 21.4844 170.491 22.1354 169.67 22.1354H167.897V8.93229C167.897 8.125 168.559 7.47396 169.379 7.47396H171.046V8.88021ZM58.3299 19.4792L65.8461 10.2083C66.296 9.66146 66.5342 8.95833 66.5342 8.22917V7.47396H56.1862C55.3658 7.47396 54.5983 8.07292 54.5983 8.85417V11.0938H55.4187C56.0274 11.0938 56.5302 10.7031 56.742 10.1042H62.2997L54.81 19.401C54.3601 19.9479 54.1219 20.651 54.1219 21.3542V22.1354H65.502C66.3754 22.1354 67.1164 21.4323 67.1164 20.5469V19.4792H58.3299ZM136.588 4.21875C137.7 4.21875 138.573 3.38542 138.573 2.29167C138.573 1.19792 137.673 0.338542 136.588 0.338542C135.477 0.338542 134.63 1.22396 134.63 2.29167C134.603 3.35938 135.477 4.21875 136.588 4.21875ZM133.942 7.47396V8.17708C133.942 8.88021 134.418 9.45313 135.08 9.58333V22.1354H136.747C137.62 22.1354 138.361 21.4323 138.361 20.5729V7.47396H133.942ZM146.089 13.0469V7.5H141.67V8.20313C141.67 8.90625 142.146 9.47917 142.808 9.60938V22.6563C142.808 24.4792 142.622 25.7031 140.241 27.3698L142.12 30C145.772 27.474 146.089 25 146.089 22.6563V13.0469ZM101.098 17.5521V12.0573C101.998 10.8854 103.506 9.97396 105.306 9.97396C108.191 9.97396 110.07 12.2656 110.07 14.8177C110.07 17.9427 107.503 19.6615 105.147 19.6615C102.871 19.6354 101.442 18.0208 101.098 17.5521ZM113.325 14.8438C113.325 9.97396 109.091 7.16146 105.65 7.16146C104.036 7.16146 102.421 7.63021 101.098 8.75V0H99.4572C98.5839 0 97.8428 0.729167 97.8428 1.58854V21.276C97.8428 23.4115 100.41 21.875 101.098 21.0417C101.336 21.1719 103.189 22.474 105.65 22.474C109.858 22.474 113.325 19.0365 113.325 14.8438ZM95.3551 7.21354C91.544 6.90104 90.6178 8.38542 90.0355 9.16667V7.47396H88.3947C87.5213 7.47396 86.7803 8.17708 86.7803 9.0625V22.1354H88.4211C89.2945 22.1354 90.0355 21.4323 90.0355 20.5469V12.4479C90.6178 11.0417 92.2057 10.2344 93.7671 10.2344C94.2435 10.2344 94.614 10.2865 94.9581 10.3906L95.3551 7.21354Z" fill="var(--fill-0, #B8C2D7)"/>
</g>
<defs>
<clipPath id="clip0_0_111">
<rect width="182.4" height="30" fill="white"/>
</clipPath>
</defs>
</svg>
