<svg width="28.3623" height="29.2737" viewBox="0 0 28.3623 29.2737" fill="none" xmlns="http://www.w3.org/2000/svg">
<g id="Group_21">
<path id="Path_446" d="M14.1812 0C6.35628 0 0 6.56053 0 14.6368C0 22.7132 6.35628 29.2737 14.1812 29.2737C22.006 29.2737 28.3623 22.7132 28.3623 14.6368C28.3623 6.56053 22.006 0 14.1812 0ZM27.3297 14.5658L25.3333 13.7132C25.1498 11.25 24.186 8.90526 22.6027 7.05789L23.4287 4.97368C23.4517 4.99737 23.4746 4.99737 23.4746 5.02105C25.9529 7.55526 27.3297 10.9895 27.3297 14.5658ZM23.1993 16.3658L25.2645 15.4658C25.1039 17.8816 24.186 20.2026 22.6486 22.05L21.7766 19.9184C22.4879 18.8289 22.9698 17.6211 23.1993 16.3658ZM21.7536 19.8237L20.7669 17.4079L23.1075 16.3895C22.901 17.6211 22.442 18.8053 21.7536 19.8237ZM20.1473 17.1474L22.6486 23.2816L16.6824 20.7711L14.25 26.9289L11.7488 20.7947L5.80556 23.3763L8.23792 17.2184L2.27174 14.7079L8.21498 12.1263L5.71377 5.9921L11.68 8.50263L14.1123 2.34474L16.6135 8.47895L22.5568 5.89737L20.1244 12.0553L26.0906 14.5658L20.1473 17.1474ZM19.3672 22.4289L21.4553 23.3053C19.6655 24.8921 17.4626 25.8632 15.099 26.0526L15.9481 23.8974C17.1872 23.6605 18.3345 23.1632 19.3672 22.4289ZM15.994 23.8263L16.9577 21.4105L19.2983 22.4053C18.2886 23.1158 17.1643 23.5895 15.994 23.8263ZM12.506 23.9211L13.378 26.0526C11.0374 25.8632 8.81159 24.9395 7.02174 23.3763L9.08696 22.4763C10.1196 23.2105 11.2899 23.7079 12.506 23.9211ZM9.17874 22.4526L11.4964 21.4342L12.4831 23.85C11.2899 23.6132 10.1655 23.1395 9.17874 22.4526ZM6.63164 19.9658L5.78261 22.1211C4.24517 20.2974 3.32729 18 3.12077 15.6079L5.20894 16.4842C5.43841 17.7158 5.94324 18.9237 6.63164 19.9658ZM5.27778 16.5079L7.61836 17.5026L6.67754 19.8947C5.98913 18.8763 5.53019 17.7158 5.27778 16.5079ZM5.18599 12.9079L3.12077 13.8079C3.2814 11.3921 4.19928 9.09474 5.71377 7.24737L6.58575 9.37895C5.89734 10.4447 5.41546 11.6526 5.18599 12.9079ZM6.6087 9.47368L7.59541 11.8658L5.25483 12.8605C5.4843 11.6526 5.94324 10.4921 6.6087 9.47368ZM9.01812 6.84474L6.92995 5.96842C8.69686 4.38158 10.9227 3.41053 13.2633 3.22105L12.4143 5.37632C11.1981 5.61316 10.0278 6.11053 9.01812 6.84474ZM12.3684 5.44737L11.4046 7.86316L9.08696 6.86842C10.0737 6.18158 11.1981 5.68421 12.3684 5.44737ZM15.8563 5.32895L14.9843 3.19737C17.3249 3.36316 19.5737 4.31053 21.3635 5.87368L19.2983 6.77368C18.2428 6.06316 17.0725 5.56579 15.8563 5.32895ZM19.2065 6.82105L16.8659 7.83947L15.8792 5.42368C17.0725 5.63684 18.1969 6.11053 19.2065 6.82105ZM21.7307 9.26053L22.5797 7.12895C24.1172 8.97632 25.058 11.2737 25.2645 13.6895L23.1763 12.8132C22.9469 11.5579 22.442 10.3263 21.7307 9.26053C21.7307 9.28421 21.7307 9.28421 21.7307 9.26053ZM23.1075 12.7895L20.744 11.7947L21.7077 9.35526C22.3961 10.3737 22.878 11.5579 23.1075 12.7895ZM23.4287 4.97368L21.4324 5.85C19.6196 4.23947 17.3478 3.29211 14.9614 3.12632L14.1123 1.06579C14.1353 1.06579 14.1582 1.06579 14.1812 1.06579C14.1812 1.06579 14.2041 1.06579 14.2271 1.06579C17.6691 1.06579 20.9964 2.46316 23.4287 4.97368ZM14.1123 1.06579L13.2862 3.15C10.8998 3.33947 8.65097 4.33421 6.86111 5.94474L4.84179 5.09211C4.86473 5.06842 4.86473 5.06842 4.88768 5.04474C7.32005 2.51053 10.6473 1.06579 14.1123 1.06579ZM4.81884 5.09211L5.66787 7.17632C4.13043 9.04737 3.18961 11.3921 3.02899 13.8316L1.00966 14.7079C1.00966 14.6842 1.00966 14.6605 1.00966 14.6368C1.00966 14.6368 1.00966 14.6132 1.00966 14.5895C1.03261 11.0368 2.38647 7.62632 4.81884 5.09211ZM1.03261 14.7079L3.07488 15.5605C3.25845 18 4.22222 20.3447 5.78261 22.1921L4.95652 24.3C4.93358 24.2763 4.91063 24.2526 4.91063 24.2526C2.40942 21.7184 1.03261 18.2842 1.03261 14.7079ZM4.93358 24.3L6.9529 23.4237C8.7657 25.0342 11.0374 25.9816 13.4239 26.1474L14.2729 28.2316C14.25 28.2316 14.2271 28.2316 14.2041 28.2316C14.1812 28.2316 14.1812 28.2316 14.1582 28.2316C10.6932 28.2316 7.36594 26.8105 4.93358 24.3ZM14.25 28.2316L15.0761 26.1474C17.4626 25.9579 19.7343 24.9632 21.5242 23.3526L23.5435 24.2053C23.5205 24.2289 23.4976 24.2526 23.4976 24.2526C21.0423 26.7868 17.715 28.2079 14.25 28.2316ZM23.5435 24.1816L22.6944 22.1211C24.2548 20.25 25.1957 17.9053 25.3563 15.4184L27.3527 14.5421C27.3527 14.5658 27.3527 14.5895 27.3527 14.6132C27.3527 14.6132 27.3527 14.6368 27.3527 14.6605C27.3297 18.2368 25.9758 21.6474 23.5435 24.1816Z" fill="var(--fill-0, #FEFEFE)"/>
<path id="Path_447" d="M25.6083 10.35C25.7919 10.2789 25.9296 10.0658 25.9296 9.8526C25.9296 9.78155 25.9066 9.71049 25.8837 9.63944C25.8148 9.44997 25.6083 9.30786 25.4018 9.30786C25.333 9.30786 25.2641 9.33155 25.1953 9.35523C25.0117 9.42628 24.874 9.63944 24.874 9.8526C24.874 9.92365 24.897 9.9947 24.9199 10.0658C24.9888 10.2552 25.1953 10.3973 25.4018 10.3973C25.4706 10.3737 25.5395 10.3737 25.6083 10.35ZM25.2182 9.4026C25.2641 9.37891 25.31 9.37891 25.3789 9.37891C25.5395 9.37891 25.6772 9.47365 25.746 9.63944C25.769 9.68681 25.769 9.73418 25.769 9.80523C25.769 9.97102 25.6772 10.1368 25.5165 10.1842C25.4706 10.2079 25.4247 10.2079 25.3559 10.2079C25.1953 10.2079 25.0347 10.1131 24.9888 9.94734C24.9658 9.89997 24.9658 9.82891 24.9658 9.78155C24.9658 9.63944 25.0576 9.47365 25.2182 9.4026Z" fill="var(--fill-0, #FEFEFE)"/>
<path id="Path_448" d="M19.0459 3.55263C19.2295 3.45789 19.3671 3.26842 19.3671 3.05526C19.3671 2.98421 19.3442 2.91316 19.3213 2.84211C19.2295 2.62895 19.0459 2.51053 18.8394 2.51053C18.7705 2.51053 18.7017 2.53421 18.6329 2.55789C18.4493 2.65263 18.3116 2.84211 18.3116 3.05526C18.3116 3.12632 18.3345 3.19737 18.3575 3.26842C18.4263 3.48158 18.6328 3.6 18.8394 3.6C18.9082 3.6 18.9771 3.57632 19.0459 3.55263ZM18.6329 2.62895C18.7017 2.60526 18.7476 2.60526 18.7935 2.60526C18.9541 2.60526 19.1147 2.7 19.1606 2.86579C19.1836 2.91316 19.1836 2.96053 19.1836 3.03158C19.1836 3.19737 19.0918 3.36316 18.9312 3.41053C18.8853 3.43421 18.8394 3.43421 18.7705 3.43421C18.6099 3.43421 18.4722 3.33947 18.4034 3.17368C18.3804 3.12632 18.3804 3.07895 18.3804 3.00789C18.4034 2.84211 18.4952 2.7 18.6329 2.62895Z" fill="var(--fill-0, #FEFEFE)"/>
<path id="Path_449" d="M9.75285 3.5526C9.93643 3.45787 10.0741 3.26839 10.0741 3.05523C10.0741 2.98418 10.0741 2.91313 10.0282 2.84208C9.95938 2.62892 9.75285 2.5105 9.54633 2.5105C9.47749 2.5105 9.40865 2.53418 9.33981 2.55787C9.15624 2.6526 9.01855 2.84208 9.01855 3.05523C9.01855 3.12629 9.0415 3.19734 9.06445 3.26839C9.13329 3.48155 9.33981 3.59997 9.54633 3.59997C9.61517 3.59997 9.68401 3.57629 9.75285 3.5526ZM9.36276 2.62892C9.40865 2.60523 9.47749 2.60523 9.52338 2.60523C9.68401 2.60523 9.82169 2.69997 9.89054 2.86576C9.91348 2.91313 9.91348 2.9605 9.91348 3.03155C9.91348 3.19734 9.82169 3.36313 9.66107 3.4105C9.61517 3.43418 9.56928 3.43418 9.50044 3.43418C9.33981 3.43418 9.17918 3.33945 9.13329 3.17366C9.11034 3.12629 9.11034 3.07892 9.11034 3.00787C9.11034 2.84208 9.20213 2.69997 9.36276 2.62892Z" fill="var(--fill-0, #FEFEFE)"/>
<path id="Path_450" d="M2.50121 10.0421C2.593 10.2316 2.77657 10.3737 2.98309 10.3737C3.05193 10.3737 3.12077 10.35 3.18961 10.3263C3.39614 10.2553 3.51087 10.0421 3.51087 9.82895C3.51087 9.75789 3.48792 9.68684 3.46498 9.61579C3.37319 9.42631 3.18961 9.28421 2.98309 9.28421C2.91425 9.28421 2.84541 9.30789 2.77657 9.33158C2.593 9.40263 2.45531 9.61579 2.45531 9.82895C2.45531 9.92368 2.47826 9.99474 2.50121 10.0421ZM2.77657 9.40263C2.82246 9.37895 2.86836 9.37895 2.9372 9.37895C3.09783 9.37895 3.25845 9.47368 3.30435 9.63947C3.32729 9.68684 3.32729 9.73421 3.32729 9.80526C3.32729 9.97105 3.23551 10.1368 3.07488 10.1842C3.02899 10.2079 2.96014 10.2079 2.91425 10.2079C2.75362 10.2079 2.593 10.1132 2.5471 9.94737C2.52415 9.9 2.52415 9.82895 2.52415 9.78158C2.52415 9.63947 2.63889 9.47368 2.77657 9.40263Z" fill="var(--fill-0, #FEFEFE)"/>
<path id="Path_451" d="M2.77657 18.9237C2.593 18.9947 2.45531 19.2079 2.45531 19.4211C2.45531 19.4921 2.47826 19.5632 2.50121 19.6342C2.593 19.8237 2.77657 19.9658 2.98309 19.9658C3.05193 19.9658 3.12077 19.9421 3.18961 19.9184C3.37319 19.8474 3.51087 19.6342 3.51087 19.4211C3.51087 19.35 3.48792 19.2789 3.46498 19.2079C3.37319 19.0184 3.18961 18.8763 2.98309 18.8763C2.91425 18.9 2.84541 18.9 2.77657 18.9237ZM3.09783 19.7763C3.05193 19.8 2.98309 19.8 2.9372 19.8C2.77657 19.8 2.61594 19.7053 2.57005 19.5395C2.5471 19.4921 2.5471 19.4447 2.5471 19.3737C2.5471 19.2079 2.63889 19.0421 2.79952 18.9947C2.84541 18.9711 2.8913 18.9711 2.96014 18.9711C3.12077 18.9711 3.2814 19.0658 3.32729 19.2316C3.35024 19.2789 3.35024 19.3263 3.35024 19.3974C3.35024 19.5632 3.23551 19.7053 3.09783 19.7763Z" fill="var(--fill-0, #FEFEFE)"/>
<path id="Path_452" d="M9.36232 25.7211C9.17874 25.7921 9.04106 26.0053 9.04106 26.2184C9.04106 26.2895 9.06401 26.3605 9.08696 26.4316C9.17874 26.6211 9.36232 26.7632 9.56884 26.7632C9.63768 26.7632 9.70652 26.7395 9.77536 26.7158C9.95894 26.6447 10.0966 26.4316 10.0966 26.2184C10.0966 26.1474 10.0737 26.0763 10.0507 26.0053C9.98188 25.8158 9.77536 25.6737 9.56884 25.6737C9.47705 25.6737 9.40821 25.6974 9.36232 25.7211ZM9.66063 26.55C9.61473 26.5737 9.56884 26.5737 9.5 26.5737C9.33937 26.5737 9.20169 26.4789 9.13285 26.3132C9.1099 26.2658 9.1099 26.2184 9.1099 26.1474C9.1099 25.9816 9.20169 25.8395 9.36232 25.7684C9.40821 25.7447 9.45411 25.7447 9.52295 25.7447C9.68358 25.7447 9.8442 25.8395 9.8901 26.0053C9.91304 26.0526 9.91304 26.1 9.91304 26.1711C9.91304 26.3368 9.82126 26.4789 9.66063 26.55Z" fill="var(--fill-0, #FEFEFE)"/>
<path id="Path_453" d="M18.6329 25.7211C18.4493 25.7921 18.3116 26.0053 18.3116 26.2184C18.3116 26.2895 18.3345 26.3605 18.3575 26.4316C18.4263 26.6211 18.6328 26.7632 18.8394 26.7632C18.9082 26.7632 18.9771 26.7395 19.0459 26.7158C19.2295 26.6447 19.3671 26.4316 19.3671 26.2184C19.3671 26.1474 19.3442 26.0763 19.3213 26.0053C19.2295 25.8158 19.0459 25.6737 18.8394 25.6737C18.7705 25.6737 18.7017 25.6974 18.6329 25.7211ZM18.9541 26.55C18.9082 26.5737 18.8623 26.5737 18.7935 26.5737C18.6328 26.5737 18.4952 26.4789 18.4263 26.3132C18.4034 26.2658 18.4034 26.2184 18.4034 26.1474C18.4034 25.9816 18.4952 25.8395 18.6558 25.7684C18.7017 25.7447 18.7476 25.7447 18.8164 25.7447C18.9771 25.7447 19.1377 25.8395 19.1836 26.0053C19.2065 26.0526 19.2065 26.1 19.2065 26.1711C19.2065 26.3368 19.0918 26.4789 18.9541 26.55Z" fill="var(--fill-0, #FEFEFE)"/>
<path id="Path_454" d="M25.8837 19.2315C25.8148 19.042 25.6083 18.8999 25.4018 18.8999C25.333 18.8999 25.2641 18.9236 25.1953 18.9473C25.0117 19.0183 24.874 19.2315 24.874 19.4446C24.874 19.5157 24.897 19.5867 24.9199 19.6578C24.9888 19.8473 25.1953 19.9894 25.4018 19.9894C25.4706 19.9894 25.5395 19.9657 25.6083 19.942C25.7919 19.871 25.9296 19.6578 25.9296 19.4446C25.9296 19.3736 25.9066 19.3025 25.8837 19.2315ZM25.5165 19.7762C25.4706 19.7999 25.4247 19.7999 25.3559 19.7999C25.1953 19.7999 25.0347 19.7052 24.9888 19.5394C24.9658 19.492 24.9658 19.4446 24.9658 19.3736C24.9658 19.2078 25.0576 19.042 25.2182 18.9946C25.2641 18.971 25.31 18.971 25.3789 18.971C25.5395 18.971 25.6772 19.0657 25.746 19.2315C25.769 19.2788 25.769 19.3262 25.769 19.3973C25.769 19.5631 25.6772 19.7052 25.5165 19.7762Z" fill="var(--fill-0, #FEFEFE)"/>
<path id="Path_455" d="M14.3872 8.69214C14.043 9.59214 13.8595 10.5632 13.8365 11.5106C13.8365 13.9737 14.8232 14.6132 14.8232 17.1237C14.8232 17.5263 14.7315 18.379 14.2955 18.379C13.6071 18.379 14.3184 16.7448 14.3184 15.5369C14.3184 14.3053 13.3087 12.6948 13.5841 10.0895C11.1976 13.0737 12.781 16.6737 12.9416 17.029C13.0793 17.3606 13.2858 17.6685 13.0793 17.8342C12.8957 18 12.6662 17.8342 12.5515 17.55C11.9778 16.1527 11.8401 14.5895 12.0696 12.6711C10.8764 14.5185 10.8534 16.3185 11.6566 17.8342C11.5418 17.3842 11.3583 16.5079 11.5648 15.9158C11.7713 18.8763 13.0793 19.5395 13.4923 19.5395C13.9054 19.5395 14.066 19.2316 14.2725 19.2316C14.4561 19.2316 14.4561 19.4921 14.8232 19.4921C15.4199 19.4921 16.223 18.2842 16.223 16.1527C16.223 12.7895 14.1807 11.2027 14.3872 8.69214Z" fill="var(--fill-0, #FEFEFE)"/>
<path id="Path_456" d="M16.5214 15.8446C16.5214 18.2367 15.6953 18.9473 15.6953 18.9473C16.8885 18.0473 17.5999 16.6025 17.6228 15.0867C17.6228 13.0025 15.5805 11.2973 15.2363 10.0894C15.2363 12.0078 16.5214 13.2394 16.5214 15.8446Z" fill="var(--fill-0, #FEFEFE)"/>
</g>
</svg>
