<svg xmlns="http://www.w3.org/2000/svg" height="18" viewBox="0 0 18 18" width="18">
  <defs>
    <style>
      .a {
        fill: #6E6E6E;
      }
    </style>
  </defs>
  <title>S SuccessMetric 18 N</title>
  <rect id="Canvas" fill="#ff13dc" opacity="0" width="18" height="18" /><rect class="a" height="4" rx="0.5" width="4" x="2" y="13" />
  <rect class="a" height="12" rx="0.5" width="4" x="7" y="5" />
  <rect class="a" height="6" rx="0.5" width="4" x="12" y="11" />
  <path class="a" d="M6,8H3.25A.25.25,0,0,1,3,7.75v-.5A.25.25,0,0,1,3.25,7H6Z" />
  <path class="a" d="M3.884,3.135,6,4.4895l-.539.842L3.3445,3.977a.25.25,0,0,1-.07616-.34525L3.2685,3.6315l.2695-.421a.25.25,0,0,1,.3453-.076Z" />
  <path class="a" d="M8.315,4l-.95-2.9855A.125.125,0,0,0,7.20816.933L7.208.933l-.715.227a.125.125,0,0,0-.08155.15684l0,.00016L7.266,4Z" />
  <path class="a" d="M12,8h2.75A.25.25,0,0,0,15,7.75v-.5A.25.25,0,0,0,14.75,7H12Z" />
  <path class="a" d="M14.116,3.135,12,4.4895l.539.842L14.6555,3.977a.25.25,0,0,0,.07616-.34525L14.7315,3.6315l-.2695-.421a.25.25,0,0,0-.3453-.076Z" />
  <path class="a" d="M9.685,4l.95-2.9855A.125.125,0,0,1,10.79184.933L10.792.933l.715.227a.125.125,0,0,1,.08155.15684l0,.00016L10.734,4Z" />
</svg>