<?xml version="1.0" encoding="UTF-8"?>
<svg xmlns="http://www.w3.org/2000/svg" xmlns:xlink="http://www.w3.org/1999/xlink" width="18pt" height="23pt" viewBox="0 0 18 23" version="1.1">
<g id="surface1">
<path style=" stroke:none;fill-rule:evenodd;fill:rgb(0%,0%,0%);fill-opacity:1;" d="M 7.050781 0.03125 C 6.152344 0.203125 5.410156 1.042969 5.410156 1.890625 L 5.410156 1.972656 L 4.972656 1.972656 C 3.625 1.976562 3.472656 2.046875 3.433594 2.679688 L 3.417969 2.929688 L 2.394531 2.941406 L 1.375 2.953125 L 1.148438 3.066406 C 0.613281 3.328125 0.335938 3.605469 0.09375 4.125 L 0 4.324219 L 0 19.726562 L 0.0820312 19.894531 C 0.410156 20.574219 0.929688 20.976562 1.59375 21.066406 C 1.820312 21.09375 9.453125 21.128906 9.453125 21.097656 C 9.453125 21.089844 9.390625 20.949219 9.3125 20.78125 C 9.117188 20.367188 9.0625 20.234375 9 20.035156 L 8.949219 19.867188 L 6.203125 19.863281 C 1.921875 19.859375 1.683594 19.851562 1.464844 19.679688 C 1.296875 19.550781 1.289062 19.523438 1.265625 18.71875 C 1.242188 17.789062 1.238281 5.054688 1.265625 4.785156 C 1.289062 4.554688 1.328125 4.476562 1.507812 4.3125 L 1.625 4.203125 L 3.414062 4.203125 L 3.429688 4.492188 C 3.464844 5.128906 3.539062 5.1875 4.355469 5.214844 C 5.089844 5.238281 9.898438 5.238281 10.53125 5.214844 C 11.289062 5.1875 11.371094 5.121094 11.425781 4.503906 L 11.449219 4.199219 L 13.175781 4.214844 L 13.308594 4.285156 C 13.597656 4.441406 13.578125 4.078125 13.589844 9.398438 L 13.597656 13.921875 L 13.675781 13.933594 C 13.71875 13.941406 13.878906 13.957031 14.035156 13.972656 C 14.292969 13.996094 14.765625 14.070312 14.855469 14.105469 C 14.902344 14.121094 14.890625 4.941406 14.84375 4.554688 C 14.765625 3.945312 14.472656 3.503906 13.917969 3.179688 C 13.554688 2.964844 13.363281 2.933594 12.28125 2.933594 L 11.449219 2.933594 L 11.433594 2.730469 C 11.417969 2.445312 11.351562 2.289062 11.1875 2.125 L 11.058594 1.996094 L 10.476562 1.992188 C 10.160156 1.992188 9.800781 1.984375 9.683594 1.976562 L 9.46875 1.960938 L 9.429688 1.734375 C 9.222656 0.585938 8.152344 -0.179688 7.050781 0.03125 M 7.699219 1.097656 C 8.261719 1.273438 8.515625 1.835938 8.269531 2.367188 C 7.9375 3.078125 6.925781 3.09375 6.578125 2.394531 C 6.214844 1.65625 6.90625 0.855469 7.699219 1.097656 M 5.308594 6.132812 C 5.226562 6.160156 4.898438 6.550781 4.371094 7.238281 L 3.964844 7.769531 L 3.84375 7.613281 C 3.320312 6.941406 3.066406 6.820312 2.878906 7.160156 C 2.757812 7.371094 2.777344 7.417969 3.304688 8.105469 C 3.863281 8.835938 4.003906 8.882812 4.347656 8.457031 C 5.277344 7.300781 5.773438 6.59375 5.773438 6.421875 C 5.773438 6.230469 5.503906 6.058594 5.308594 6.132812 M 7.945312 7.140625 C 6.578125 7.160156 6.492188 7.175781 6.359375 7.421875 C 6.296875 7.539062 6.308594 7.859375 6.382812 7.953125 C 6.570312 8.199219 6.597656 8.203125 9.109375 8.203125 C 11.363281 8.203125 11.609375 8.191406 11.75 8.085938 C 12.019531 7.875 12.011719 7.4375 11.734375 7.246094 C 11.574219 7.136719 10.46875 7.105469 7.945312 7.140625 M 5.296875 9.066406 C 5.21875 9.105469 4.855469 9.539062 4.382812 10.164062 L 3.96875 10.707031 L 3.789062 10.476562 C 3.296875 9.863281 3.066406 9.765625 2.875 10.097656 C 2.753906 10.308594 2.828125 10.464844 3.382812 11.144531 C 3.972656 11.863281 3.984375 11.859375 4.796875 10.816406 C 5.738281 9.605469 5.859375 9.394531 5.722656 9.210938 C 5.628906 9.078125 5.417969 9.007812 5.296875 9.066406 M 7.023438 10.097656 C 6.738281 10.105469 6.625 10.121094 6.570312 10.148438 C 6.191406 10.351562 6.234375 10.953125 6.640625 11.074219 C 7.058594 11.199219 11.445312 11.171875 11.722656 11.042969 C 12.054688 10.890625 12.007812 10.261719 11.65625 10.144531 C 11.46875 10.082031 8.328125 10.050781 7.023438 10.097656 M 5.351562 11.992188 C 5.238281 12.019531 5.011719 12.277344 4.359375 13.121094 C 4.160156 13.382812 3.984375 13.601562 3.972656 13.609375 C 3.960938 13.613281 3.839844 13.476562 3.699219 13.300781 C 3.34375 12.859375 3.183594 12.777344 2.972656 12.933594 C 2.691406 13.136719 2.753906 13.308594 3.386719 14.085938 C 3.984375 14.8125 3.984375 14.8125 4.9375 13.566406 C 5.890625 12.320312 5.941406 12.183594 5.523438 12.011719 C 5.429688 11.972656 5.429688 11.972656 5.351562 11.992188 M 6.648438 13.066406 C 6.257812 13.203125 6.183594 13.648438 6.503906 13.957031 L 6.621094 14.066406 L 9.074219 14.058594 C 11.847656 14.050781 11.710938 14.0625 11.847656 13.875 C 12.019531 13.640625 11.972656 13.28125 11.75 13.125 C 11.621094 13.035156 6.890625 12.980469 6.648438 13.066406 M 13 14.351562 C 11.179688 14.574219 9.53125 16.113281 9.246094 17.855469 C 9.035156 19.128906 9.351562 20.390625 10.121094 21.332031 C 12.347656 24.070312 16.671875 23.3125 17.828125 19.984375 C 18.085938 19.238281 18.054688 17.886719 17.769531 17.175781 C 16.976562 15.230469 15.070312 14.097656 13 14.351562 M 5.253906 14.96875 C 5.171875 15.003906 5.101562 15.089844 4.453125 15.929688 L 3.964844 16.5625 L 3.902344 16.492188 C 3.871094 16.453125 3.757812 16.316406 3.65625 16.183594 C 3.34375 15.78125 3.140625 15.699219 2.933594 15.898438 C 2.71875 16.101562 2.761719 16.21875 3.296875 16.90625 C 3.820312 17.570312 3.929688 17.632812 4.179688 17.417969 C 4.402344 17.226562 5.5625 15.714844 5.71875 15.410156 C 5.871094 15.113281 5.570312 14.828125 5.253906 14.96875 M 14.175781 15.414062 C 16.394531 15.808594 17.613281 18.210938 16.585938 20.171875 C 15.332031 22.5625 11.839844 22.535156 10.605469 20.125 C 9.378906 17.734375 11.5 14.9375 14.175781 15.414062 M 6.496094 16.078125 C 6.234375 16.3125 6.238281 16.636719 6.503906 16.886719 L 6.617188 16.996094 L 7.847656 17.007812 L 9.074219 17.015625 L 9.269531 16.640625 C 9.375 16.429688 9.496094 16.207031 9.542969 16.136719 C 9.585938 16.070312 9.621094 16.003906 9.621094 15.992188 C 9.621094 15.976562 9.085938 15.96875 8.121094 15.96875 L 6.617188 15.96875 L 6.496094 16.078125 M 14.992188 16.824219 C 14.875 16.894531 14.683594 17.121094 13.941406 18.082031 C 13.246094 18.984375 13.117188 19.140625 13.089844 19.125 C 13.078125 19.117188 12.949219 18.957031 12.800781 18.765625 C 12.300781 18.121094 12.222656 18.058594 11.964844 18.058594 C 11.660156 18.058594 11.441406 18.285156 11.441406 18.601562 C 11.441406 18.722656 12.292969 19.898438 12.683594 20.316406 C 13.023438 20.675781 13.28125 20.644531 13.652344 20.195312 C 14.222656 19.5 15.546875 17.726562 15.679688 17.480469 C 15.902344 17.0625 15.402344 16.582031 14.992188 16.824219 "/>
</g>
</svg>
