<?xml version="1.0" encoding="UTF-8"?>
<svg xmlns="http://www.w3.org/2000/svg" xmlns:xlink="http://www.w3.org/1999/xlink" width="24pt" height="24pt" viewBox="0 0 24 24" version="1.1">
<g id="surface1">
<path style=" stroke:none;fill-rule:nonzero;fill:rgb(0%,0%,0%);fill-opacity:1;" d="M 10.621094 14.253906 L 10.144531 17.472656 L 17.246094 23.820312 C 17.441406 23.992188 17.714844 24.046875 17.960938 23.957031 L 19.988281 23.222656 C 20.429688 23.0625 20.59375 22.527344 20.328125 22.148438 L 15.246094 14.9375 Z M 10.621094 14.253906 "/>
<path style=" stroke:none;fill-rule:nonzero;fill:rgb(0%,0%,0%);fill-opacity:1;" d="M 12.667969 0.453125 L 11.863281 5.878906 L 13.765625 9.207031 L 18.371094 5.148438 L 14.820312 0.289062 C 14.644531 0.046875 14.328125 -0.0585938 14.039062 0.03125 Z M 12.667969 0.453125 "/>
<path style=" stroke:none;fill-rule:nonzero;fill:rgb(0%,0%,0%);fill-opacity:1;" d="M 9.429688 12.644531 L 11.167969 0.914062 L 6.875 2.238281 C 6.613281 2.316406 6.421875 2.539062 6.382812 2.8125 L 5.019531 11.992188 Z M 9.429688 12.644531 "/>
<path style=" stroke:none;fill-rule:nonzero;fill:rgb(0%,0%,0%);fill-opacity:1;" d="M 11.785156 12.992188 L 11.773438 13.003906 L 15.460938 13.53125 L 15.46875 13.507812 L 18.363281 11.074219 C 18.523438 10.9375 18.617188 10.738281 18.617188 10.53125 L 18.617188 6.824219 Z M 11.785156 12.992188 "/>
<path style=" stroke:none;fill-rule:nonzero;fill:rgb(0%,0%,0%);fill-opacity:1;" d="M 4.8125 13.394531 L 3.523438 22.09375 C 3.464844 22.480469 3.734375 22.84375 4.121094 22.898438 L 7.125 23.34375 C 7.511719 23.402344 7.875 23.136719 7.929688 22.746094 L 9.21875 14.046875 Z M 4.8125 13.394531 "/>
</g>
</svg>
