<svg xmlns="http://www.w3.org/2000/svg" width="150" height="115" viewBox="0 0 150 115">
  <defs>
    <style>
      .fill {
        fill: #b3b3b3;
      }
    </style>
  </defs>
  <g id="I_C_O_N_S" data-name="I C O N S">
    <path class="fill" d="M67.353,94H10.5a.5.5,0,0,1-.5-.5V58.066a1.5,1.5,0,0,0-3,0V93.5A3.5,3.5,0,0,0,10.5,97H67.353a1.5,1.5,0,1,0,0-3Z"/>
    <path class="fill" d="M15.6,86.737a3.091,3.091,0,0,0,2.774,1.76h.09a3.1,3.1,0,0,0,2.771-1.934l4.72-11.041a1.116,1.116,0,0,1,.978-.72,1.083,1.083,0,0,1,1.014.622l1.059,2a3.076,3.076,0,0,0,2.725,1.686,3.02,3.02,0,0,0,2.739-1.656l4.2-7.743A1.07,1.07,0,0,1,39.7,69.1a1.127,1.127,0,0,1,.973.769l5.877,15.44a3.091,3.091,0,0,0,2.834,2.059,3.039,3.039,0,0,0,2.921-1.9l3.837-8.743a1.11,1.11,0,0,1,.987-.709,1.046,1.046,0,0,1,1.011.642A3.106,3.106,0,0,0,60.887,78.4h.024a3.106,3.106,0,0,0,2.741-1.689l4.806-9.023a1,1,0,0,0-1.766-.94l-4.807,9.027a1.072,1.072,0,0,1-1.957-.018,3.166,3.166,0,0,0-2.85-1.738,3.108,3.108,0,0,0-2.764,1.905l-3.836,8.743a1.137,1.137,0,0,1-1.04.709,1.114,1.114,0,0,1-1.015-.77L42.546,69.162a3.118,3.118,0,0,0-2.709-2.053,3.058,3.058,0,0,0-2.924,1.65l-4.2,7.743a1.087,1.087,0,0,1-.965.609h0a1.09,1.09,0,0,1-.968-.622l-1.059-2A3.057,3.057,0,0,0,26.851,72.8a3.114,3.114,0,0,0-2.735,1.932L19.4,85.776a1.113,1.113,0,0,1-.99.721,1.07,1.07,0,0,1-1.016-.65l-2.923-5.87a1,1,0,1,0-1.79.89Z"/>
    <path class="fill" d="M138.4,33.121,128.289,22.709A8.925,8.925,0,0,0,121.925,20H87.287A8.39,8.39,0,0,0,79,28.47v20.1a1.5,1.5,0,1,0,3,0V28.47A5.387,5.387,0,0,1,87.287,23h34.638a5.83,5.83,0,0,1,4.211,1.8l10.109,10.412A6.228,6.228,0,0,1,138,39.579V88.53A5.387,5.387,0,0,1,132.713,94H87.287A5.387,5.387,0,0,1,82,88.53V66.622a1.5,1.5,0,0,0-3,0V88.53A8.39,8.39,0,0,0,87.287,97h45.426A8.39,8.39,0,0,0,141,88.53V39.579A9.213,9.213,0,0,0,138.4,33.121Z"/>
    <path class="fill" d="M63.714,59H93.762l-6.6,6.62a1.5,1.5,0,1,0,2.125,2.117l8.516-8.545a2.4,2.4,0,0,0,0-3.381l-8.517-8.548a1.5,1.5,0,0,0-2.125,2.117L93.76,56H63.714a1.5,1.5,0,0,0,0,3Z"/>
    <path class="fill" d="M127,74H90.786a1,1,0,0,0,0,2H127a1,1,0,0,0,0-2Z"/>
    <path class="fill" d="M127,83H90.786a1,1,0,0,0,0,2H127a1,1,0,0,0,0-2Z"/>
  </g>
</svg>
