<svg xmlns="http://www.w3.org/2000/svg" width="18" height="18" viewBox="0 0 18 18" fill="none">
  <g clip-path="url(#clip0_0_1773)">
    <path fill-rule="evenodd" clip-rule="evenodd" d="M7.63629 0.899994C6.30398 0.899994 5.00158 1.29507 3.89381 2.03526C2.78603 2.77545 1.92263 3.82752 1.41277 5.05841C0.902918 6.28931 0.769517 7.64375 1.02944 8.95046C1.28936 10.2572 1.93093 11.4575 2.87301 12.3995C3.8151 13.3416 5.01539 13.9832 6.3221 14.2431C7.62881 14.503 8.98326 14.3696 10.2142 13.8598C10.8484 13.5971 11.4352 13.2405 11.9563 12.8049L16.0757 16.9243C16.31 17.1586 16.6899 17.1586 16.9242 16.9243C17.1585 16.69 17.1585 16.3101 16.9242 16.0758L12.8049 11.9564C12.9587 11.7723 13.1031 11.5796 13.2373 11.3788C13.9775 10.271 14.3726 8.96859 14.3726 7.63628V7.63624C14.3725 5.84971 13.6627 4.13639 12.3994 2.87312C11.1362 1.60985 9.42285 0.900108 7.63632 0.899994L7.63629 1.50372V0.899994ZM11.5509 3.72165C10.5127 2.68342 9.10457 2.1001 7.63629 2.09999L13.1726 7.63628C13.1725 6.168 12.5891 4.75988 11.5509 3.72165ZM4.56049 3.03303C5.47092 2.4247 6.54129 2.1 7.63625 2.09999L13.1726 7.63631C13.1726 8.73128 12.8479 9.80165 12.2395 10.7121C11.6312 11.6225 10.7666 12.3321 9.75493 12.7511C8.74331 13.1702 7.63015 13.2798 6.55621 13.0662C5.48228 12.8526 4.49581 12.3253 3.72154 11.551C2.94728 10.7768 2.42 9.79029 2.20638 8.71635C1.99276 7.64242 2.1024 6.52926 2.52143 5.51763C2.94046 4.50601 3.65005 3.64136 4.56049 3.03303Z" fill="#999999"/>
  </g>
  <defs>
    <clipPath id="clip0_0_1773">
      <rect width="18" height="18" fill="white"/>
    </clipPath>
  </defs>
</svg>