<?xml version="1.0" encoding="utf-8"?>
<!-- Generator: Adobe Illustrator 23.0.1, SVG Export Plug-In . SVG Version: 6.00 Build 0)  -->
<svg version="1.1" xmlns="http://www.w3.org/2000/svg" xmlns:xlink="http://www.w3.org/1999/xlink" x="0px" y="0px" width="24px"
	 height="24px" viewBox="0 0 24 24" enable-background="new 0 0 24 24" xml:space="preserve">
<g id="Bounding_Box">
	<rect fill="none" width="24" height="24"/>
</g>
<g id="Master">
	<path d="M20,12c0-1.1-0.9-2-2-2V7c0-1.1-0.9-2-2-2H8C6.9,5,6,5.9,6,7v3c-1.1,0-2,0.9-2,2v5h1.33L6,19h1l0.67-2h8.67L17,19h1l0.67-2
		H20V12z M16,10h-3V7h3V10z M8,7h3v3H8V7z M6,12h12v3H6V12z"/>
</g>
</svg>
