<svg preserveAspectRatio="none" width="100%" height="100%" overflow="visible" style="display: block;" viewBox="0 0 40 40" fill="none" xmlns="http://www.w3.org/2000/svg">
<g id="Group 474">
<circle id="Ellipse 23" cx="20" cy="20" r="20" fill="var(--fill-0, #AFDAE4)"/>
<g id="icons8-linkedin (2) 1">
<path id="Vector" d="M25.2083 12.5H14.7917C13.5283 12.5 12.5 13.5283 12.5 14.7917V25.2083C12.5 26.4717 13.5283 27.5 14.7917 27.5H25.2083C26.4717 27.5 27.5 26.4717 27.5 25.2083V14.7917C27.5 13.5283 26.4717 12.5 25.2083 12.5ZM17.5 24.1667C17.5 24.3971 17.3137 24.5833 17.0833 24.5833H15.8333C15.6029 24.5833 15.4167 24.3971 15.4167 24.1667V18.75C15.4167 18.5196 15.6029 18.3333 15.8333 18.3333H17.0833C17.3137 18.3333 17.5 18.5196 17.5 18.75V24.1667ZM16.4583 17.5C15.8829 17.5 15.4167 17.0337 15.4167 16.4583C15.4167 15.8829 15.8829 15.4167 16.4583 15.4167C17.0337 15.4167 17.5 15.8829 17.5 16.4583C17.5 17.0337 17.0337 17.5 16.4583 17.5ZM24.5833 24.1667C24.5833 24.3971 24.3971 24.5833 24.1667 24.5833H22.9167C22.6862 24.5833 22.5 24.3971 22.5 24.1667V21.0417C22.5 20.4671 22.0329 20 21.4583 20C20.8837 20 20.4167 20.4671 20.4167 21.0417V24.1667C20.4167 24.3971 20.2304 24.5833 20 24.5833H18.75C18.5196 24.5833 18.3333 24.3971 18.3333 24.1667V18.75C18.3333 18.5196 18.5196 18.3333 18.75 18.3333H20C20.2304 18.3333 20.4167 18.5196 20.4167 18.75V18.9754C20.8596 18.5775 21.4425 18.3333 22.0833 18.3333C23.4621 18.3333 24.5833 19.4546 24.5833 20.8333V24.1667Z" fill="var(--fill-0, #01357E)"/>
</g>
</g>
</svg>
