<svg preserveAspectRatio="none" width="100%" height="100%" overflow="visible" style="display: block;" viewBox="0 0 40 40" fill="none" xmlns="http://www.w3.org/2000/svg">
<g id="Group 477">
<circle id="Ellipse 23" cx="20" cy="20" r="20" fill="var(--fill-0, #AFDAE4)"/>
<g id="icons8-instagram (3) 1">
<path id="Vector" d="M16.8747 12.0833C14.2326 12.0833 12.083 14.2328 12.083 16.8749V23.1249C12.083 25.767 14.2326 27.9166 16.8747 27.9166H23.1247C25.7668 27.9166 27.9163 25.767 27.9163 23.1249V16.8749C27.9163 14.2328 25.7668 12.0833 23.1247 12.0833H16.8747ZM24.1663 14.9999C24.6268 14.9999 24.9997 15.3728 24.9997 15.8333C24.9997 16.2933 24.6268 16.6666 24.1663 16.6666C23.7059 16.6666 23.333 16.2933 23.333 15.8333C23.333 15.3728 23.7059 14.9999 24.1663 14.9999ZM19.9997 15.8333C22.2972 15.8333 24.1663 17.7024 24.1663 19.9999C24.1663 22.2974 22.2972 24.1666 19.9997 24.1666C17.7022 24.1666 15.833 22.2974 15.833 19.9999C15.833 17.7024 17.7022 15.8333 19.9997 15.8333ZM19.9997 17.0833C19.6167 17.0833 19.2374 17.1587 18.8835 17.3053C18.5296 17.4518 18.2081 17.6667 17.9373 17.9375C17.6664 18.2084 17.4516 18.5299 17.305 18.8838C17.1584 19.2376 17.083 19.6169 17.083 19.9999C17.083 20.3829 17.1584 20.7622 17.305 21.1161C17.4516 21.4699 17.6664 21.7915 17.9373 22.0623C18.2081 22.3332 18.5296 22.548 18.8835 22.6946C19.2374 22.8411 19.6167 22.9166 19.9997 22.9166C20.3827 22.9166 20.762 22.8411 21.1158 22.6946C21.4697 22.548 21.7912 22.3332 22.0621 22.0623C22.3329 21.7915 22.5477 21.4699 22.6943 21.1161C22.8409 20.7622 22.9163 20.3829 22.9163 19.9999C22.9163 19.6169 22.8409 19.2376 22.6943 18.8838C22.5477 18.5299 22.3329 18.2084 22.0621 17.9375C21.7912 17.6667 21.4697 17.4518 21.1158 17.3053C20.762 17.1587 20.3827 17.0833 19.9997 17.0833V17.0833Z" fill="var(--fill-0, #01357E)"/>
</g>
</g>
</svg>
