<svg class="footer-social__icon footer-social__icon--twitter" viewBox="0 0 32 26" title="Jobber Twitter" xmlns="http://www.w3.org/2000/svg"><path d="M32 3.078a13.14 13.14 0 01-3.771 1.034A6.584 6.584 0 0031.116.48a13.166 13.166 0 01-4.169 1.593A6.557 6.557 0 0022.155 0a6.565 6.565 0 00-6.565 6.565c0 .514.058 1.015.17 1.496a18.639 18.639 0 01-13.532-6.86 6.539 6.539 0 00-.889 3.301 6.563 6.563 0 002.92 5.464 6.532 6.532 0 01-2.973-.821l-.001.083a6.568 6.568 0 005.267 6.437 6.578 6.578 0 01-2.965.113 6.571 6.571 0 006.133 4.559 13.172 13.172 0 01-8.154 2.81c-.53 0-1.052-.031-1.566-.091a18.587 18.587 0 0010.064 2.949c12.076 0 18.679-10.004 18.679-18.679 0-.285-.006-.568-.019-.85A13.315 13.315 0 0032 3.078" fill="none" fill-rule="evenodd"/></svg>