<svg preserveAspectRatio="none" width="100%" height="100%" overflow="visible" style="display: block;" viewBox="0 0 40 40" fill="none" xmlns="http://www.w3.org/2000/svg">
<g id="Group 478">
<circle id="Ellipse 23" cx="20" cy="20" r="20" fill="var(--fill-0, #AFDAE4)"/>
<g id="icons8-tiktok 1">
<path id="Vector" d="M14.7917 12.5C13.5334 12.5 12.5 13.5334 12.5 14.7917V25.2083C12.5 26.4666 13.5334 27.5 14.7917 27.5H25.2083C26.4666 27.5 27.5 26.4666 27.5 25.2083V14.7917C27.5 13.5334 26.4666 12.5 25.2083 12.5H14.7917ZM21.4583 14.5833C21.8042 14.5833 22.0833 14.8625 22.0833 15.2083C22.0833 16.4708 23.1125 17.5 24.375 17.5C24.7208 17.5 25 17.7792 25 18.125C25 18.4708 24.7208 18.75 24.375 18.75C23.5 18.75 22.7 18.4335 22.0833 17.9085V22.0833C22.0833 23.9208 20.5875 25.4167 18.75 25.4167C16.9125 25.4167 15.4167 23.9208 15.4167 22.0833C15.4167 20.2458 16.9125 18.75 18.75 18.75C18.8375 18.75 18.9246 18.754 19.008 18.7581C19.3538 18.7873 19.6125 19.0879 19.5833 19.4295C19.5583 19.7754 19.2586 20.0331 18.9128 20.0081C18.8586 20.004 18.8042 20 18.75 20C17.6 20 16.6667 20.9333 16.6667 22.0833C16.6667 23.2333 17.6 24.1667 18.75 24.1667C19.9 24.1667 20.8333 23.2333 20.8333 22.0833V15.2083C20.8333 14.8625 21.1125 14.5833 21.4583 14.5833Z" fill="var(--fill-0, #01357E)"/>
</g>
</g>
</svg>
