<svg preserveAspectRatio="none" width="100%" height="100%" overflow="visible" style="display: block;" viewBox="0 0 40 40" fill="none" xmlns="http://www.w3.org/2000/svg">
<g id="Group 472">
<circle id="Ellipse 23" cx="20" cy="20" r="20" fill="var(--fill-0, #AFDAE4)"/>
<g id="icons8-facebook-f (2) 1">
<path id="Vector" d="M18.5417 29.1667C17.9675 29.1667 17.5 28.6996 17.5 28.125V20.8333L15.6458 20.8346C15.0762 20.8346 14.6087 20.3721 14.6037 19.8029L14.5917 18.5517C14.5892 18.2712 14.6958 18.0075 14.8933 17.8087C15.09 17.6096 15.3529 17.5 15.6333 17.5H17.5V15.625C17.5 12.8142 18.9342 11.2658 21.5379 11.2658C22.5679 11.2658 23.4671 11.3387 23.4754 11.3396C23.8775 11.3754 24.18 11.7062 24.18 12.1092V14.0133C24.18 14.4392 23.8333 14.7858 23.4075 14.7858H22.1958C21.6887 14.7858 21.2758 15.1983 21.2758 15.7058L21.2525 17.5H23.1017C23.3987 17.5 23.6821 17.6275 23.8796 17.8492C24.0771 18.0708 24.1708 18.3671 24.1362 18.6621L23.9908 19.9121C23.93 20.4375 23.485 20.8333 22.9567 20.8333H21.25V28.125C21.25 28.6996 20.7825 29.1667 20.2083 29.1667H18.5417Z" fill="var(--fill-0, #01357E)"/>
</g>
</g>
</svg>
