<svg viewBox="0 0 32 23" title="Jobber Youtube" xmlns="http://www.w3.org/2000/svg"><path d="M12.696 15.404l-.001-8.991 8.646 4.511-8.645 4.48zM31.68 4.855s-.313-2.205-1.272-3.176C29.191.404 27.827.398 27.202.324 22.724 0 16.007 0 16.007 0h-.014S9.276 0 4.798.324c-.626.074-1.989.08-3.207 1.355C.632 2.65.32 4.855.32 4.855S0 7.445 0 10.034v2.428c0 2.59.32 5.179.32 5.179s.312 2.205 1.271 3.176c1.218 1.275 2.817 1.235 3.529 1.368 2.56.246 10.88.322 10.88.322s6.724-.01 11.202-.334c.625-.075 1.989-.081 3.206-1.356.959-.971 1.272-3.176 1.272-3.176s.32-2.589.32-5.179v-2.428c0-2.589-.32-5.179-.32-5.179z" fill="none" fill-rule="evenodd"/></svg>