<svg preserveAspectRatio="none" width="100%" height="100%" overflow="visible" style="display: block;" viewBox="0 0 40 40" fill="none" xmlns="http://www.w3.org/2000/svg">
<g id="Group 475">
<circle id="Ellipse 23" cx="20" cy="20" r="20" fill="var(--fill-0, #AFDAE4)"/>
<g id="icons8-telegram-app 1">
<path id="Vector" d="M12.4292 19.84C17.6658 17.5363 24.4425 14.7275 25.3779 14.3388C27.8317 13.3213 28.5846 13.5163 28.2092 15.7696C27.9396 17.3892 27.1617 22.7513 26.5417 26.0888C26.1738 28.0679 25.3483 28.3025 24.0504 27.4462C23.4263 27.0342 20.2758 24.9508 19.5921 24.4617C18.9679 24.0158 18.1071 23.4796 19.1867 22.4233C19.5708 22.0471 22.0892 19.6425 24.0513 17.7708C24.3083 17.525 23.9854 17.1212 23.6888 17.3183C21.0442 19.0721 17.3775 21.5063 16.9108 21.8233C16.2058 22.3021 15.5288 22.5217 14.3133 22.1725C13.395 21.9088 12.4979 21.5942 12.1488 21.4742C10.8042 21.0125 11.1233 20.4146 12.4292 19.84Z" fill="var(--fill-0, #01357E)"/>
</g>
</g>
</svg>
