<svg preserveAspectRatio="none" width="100%" height="100%" overflow="visible" style="display: block;" viewBox="0 0 40 40" fill="none" xmlns="http://www.w3.org/2000/svg">
<g id="Group 476">
<circle id="Ellipse 23" cx="20" cy="20" r="20" fill="var(--fill-0, #AFDAE4)"/>
<g id="icons8-youtube (3) 1">
<path id="Vector" d="M19.9403 13.5417C17.2933 13.5417 14.834 13.7303 13.4307 14.0235C13.4277 14.0243 13.4247 14.0251 13.4217 14.026C12.3645 14.2629 11.3689 15.0202 11.1593 16.2061C11.1591 16.2078 11.1588 16.2094 11.1585 16.211C10.9975 17.1669 10.833 18.4129 10.833 20.2084C10.833 22.0006 10.9981 23.2135 11.2017 24.2196C11.4164 25.3706 12.3889 26.1508 13.4624 26.3909C13.4675 26.3923 13.4727 26.3936 13.4779 26.3949C14.9425 26.6835 17.3324 26.8751 19.9793 26.8751C22.6263 26.8751 25.0175 26.6835 26.4824 26.3949C26.4876 26.3936 26.4927 26.3923 26.4979 26.3909C27.5551 26.154 28.5507 25.3967 28.7603 24.2107C28.7608 24.2077 28.7614 24.2047 28.7619 24.2017C28.9204 23.2264 29.1258 21.9816 29.1663 20.1832C29.1664 20.1786 29.1664 20.174 29.1663 20.1694C29.1663 18.37 28.9604 17.1162 28.7594 16.1231C28.5464 14.9697 27.5727 14.1874 26.4979 13.947C26.4815 13.9434 26.4649 13.9404 26.4482 13.9381C25.019 13.7371 22.5876 13.5417 19.9403 13.5417ZM18.3981 17.0842C18.5524 17.081 18.712 17.1175 18.862 17.2022L22.4468 19.2278C23.0514 19.5694 23.0514 20.4315 22.4468 20.7732L18.862 22.7987C18.2624 23.1371 17.5151 22.7086 17.5151 22.0256V17.9745C17.5151 17.4623 17.9351 17.0938 18.3981 17.0842Z" fill="var(--fill-0, #01357E)"/>
</g>
</g>
</svg>
