<svg preserveAspectRatio="none" width="100%" height="100%" overflow="visible" style="display: block;" viewBox="0 0 40 40" fill="none" xmlns="http://www.w3.org/2000/svg">
<g id="Group 473">
<circle id="Ellipse 23" cx="20" cy="20" r="20" fill="var(--fill-0, #AFDAE4)"/>
<g id="icons8-twitter 1">
<path id="Vector" d="M28.6329 14.2938C28.51 14.1667 28.3208 14.1304 28.1596 14.2046L28.0913 14.2358C28.0333 14.2625 27.9754 14.2892 27.9171 14.3154C28.0867 14.045 28.2213 13.7558 28.3142 13.4567C28.3658 13.2917 28.3096 13.1112 28.1729 13.0046C28.0363 12.8979 27.8479 12.8867 27.7 12.9771C27.2246 13.2658 26.7679 13.4738 26.2958 13.6188C25.5833 12.9275 24.6129 12.5 23.5417 12.5C21.3554 12.5 19.5833 14.2721 19.5833 16.4583C19.5833 16.4604 19.5833 16.5429 19.5833 16.6667L19.1671 16.6333C15.1158 16.1542 13.9625 13.4292 13.9146 13.3117C13.8371 13.1158 13.6663 12.9729 13.46 12.93C13.2542 12.8863 13.0404 12.9508 12.8913 13.0996C12.8088 13.1825 12.0833 13.95 12.0833 15.4167C12.0833 16.4617 12.5492 17.3092 13.1521 17.9683C12.8713 17.7971 12.7075 17.6583 12.7033 17.6546C12.5113 17.4871 12.2363 17.4521 12.0079 17.5679C11.7804 17.6842 11.6463 17.9271 11.6692 18.1817C11.6771 18.2696 11.8546 19.9371 13.7808 21.1962L13.4296 21.26C13.2167 21.2987 13.0388 21.445 12.9596 21.6467C12.8808 21.8487 12.9117 22.0767 13.0417 22.25C13.0854 22.3087 13.8992 23.3667 15.6663 23.975C14.7225 24.2896 13.4258 24.5833 11.875 24.5833C11.63 24.5833 11.4071 24.7267 11.3058 24.95C11.2042 25.1733 11.2429 25.4354 11.4046 25.6196C11.4717 25.6967 13.0979 27.5 17.2917 27.5C24.2554 27.5 27.5 21.0354 27.5 16.6667V16.4583C27.5 16.3967 27.4933 16.3362 27.4908 16.2754C28.3625 15.4329 28.6904 14.8008 28.7063 14.7696C28.785 14.6112 28.7558 14.4204 28.6329 14.2938Z" fill="var(--fill-0, #01357E)"/>
</g>
</g>
</svg>
