<?xml version="1.0" encoding="utf-8"?>
<!-- Generator: Adobe Illustrator 23.0.1, SVG Export Plug-In . SVG Version: 6.00 Build 0)  -->
<svg version="1.1" xmlns="http://www.w3.org/2000/svg" xmlns:xlink="http://www.w3.org/1999/xlink" x="0px" y="0px" width="24px"
	 height="24px" viewBox="0 0 24 24" enable-background="new 0 0 24 24" xml:space="preserve">
<g id="Bounding_Box">
	<rect fill="none" width="24" height="24"/>
</g>
<g id="Master">
	<g>
		<path d="M17.66,17.66l-1.06,1.06l-0.71-0.71l1.06-1.06l-1.94-1.94l-1.06,1.06l-0.71-0.71l1.06-1.06l-1.94-1.94l-1.06,1.06
			l-0.71-0.71l1.06-1.06L9.7,9.7l-1.06,1.06l-0.71-0.71l1.06-1.06L7.05,7.05L5.99,8.11L5.28,7.4l1.06-1.06L4,4v14c0,1.1,0.9,2,2,2
			h14L17.66,17.66z M7,17v-5.76L12.76,17H7z"/>
	</g>
</g>
</svg>
