<svg xmlns="http://www.w3.org/2000/svg" height="18" viewBox="0 0 18 18" width="18">
  <defs>
    <style>
      .a {
        fill: #6E6E6E;
      }
    </style>
  </defs>
  <title>S Bug 18 N</title>
  <rect id="Canvas" fill="#ff13dc" opacity="0" width="18" height="18" /><path class="a" d="M13.097,3.621A4.9,4.9,0,0,0,9,1.5,4.9,4.9,0,0,0,4.903,3.621,5.9715,5.9715,0,0,0,9,5.25,5.97148,5.97148,0,0,0,13.097,3.621Z" />
  <path class="a" d="M2.608,3.196l-1.334.667A9.05,9.05,0,0,0,3.5645,6.42,13.72951,13.72951,0,0,0,3.059,9H0v1.5H3.0225a6.8,6.8,0,0,0,1.25,3.1815,7.539,7.539,0,0,0-2.25,3.08l1.35.675a6.02589,6.02589,0,0,1,1.887-2.6A5.78552,5.78552,0,0,0,8.25,16.429V6.75A7.491,7.491,0,0,1,2.608,3.196Z" />
  <path class="a" d="M18,10.5V9H14.941a13.72951,13.72951,0,0,0-.5055-2.58A9.05,9.05,0,0,0,16.726,3.863l-1.334-.667A7.491,7.491,0,0,1,9.75,6.75v9.679a5.78548,5.78548,0,0,0,2.9895-1.5925,6.026,6.026,0,0,1,1.887,2.6l1.35-.675a7.539,7.539,0,0,0-2.25-3.08A6.8,6.8,0,0,0,14.9775,10.5Z" />
</svg>