<?xml version="1.0" encoding="UTF-8"?>
<svg width="120px" height="120px" viewBox="0 0 120 120" version="1.1" xmlns="http://www.w3.org/2000/svg" xmlns:xlink="http://www.w3.org/1999/xlink">
    <!-- Generator: Sketch 56.3 (81716) - https://sketch.com -->
    <title>user</title>
    <desc>Created with Sketch.</desc>
    <g id="user" stroke="none" stroke-width="1" fill="none" fill-rule="evenodd">
        <path d="M45.594,59.562 C32.578,59.7 17,70.357 17,83.572 L17,105.331 C17,107.906 19.096,110 21.671,110 L99.033,110 C101.609,110 103.703,107.906 103.703,105.331 L103.703,83.572 C103.703,70.394 88.211,59.758 75.219,59.564 C75.159,59.568 75.1,59.571 75.04,59.573 C73.715,59.615 72.422,59.131 71.453,58.223 C69.957,56.82 69.461,54.637 70.216,52.73 C70.493,52.028 70.917,51.414 71.444,50.917 C75.049,46.916 77.111,41.217 77.111,35.22 L77.111,30.99 C77.111,19.416 69.593,10 60.352,10 C51.112,10 43.594,19.416 43.594,30.99 L43.594,35.22 C43.594,41.188 45.636,46.862 49.208,50.859 C49.763,51.363 50.209,51.996 50.496,52.722 C51.251,54.63 50.763,56.805 49.267,58.208 C48.298,59.117 47.015,59.604 45.672,59.566 C45.647,59.565 45.62,59.564 45.594,59.562 M99.033,120 L21.671,120 C13.581,120 7,113.419 7,105.331 L7,83.572 C7,74.53 11.532,65.867 19.761,59.178 C24.882,55.016 30.924,52.063 37.118,50.602 C34.835,45.959 33.594,40.656 33.594,35.22 L33.594,30.99 C33.594,13.902 45.598,0 60.352,0 C75.107,0 87.111,13.902 87.111,30.99 L87.111,35.22 C87.111,40.656 85.869,45.959 83.586,50.602 C89.781,52.063 95.823,55.016 100.943,59.178 C109.171,65.867 113.703,74.53 113.703,83.572 L113.703,105.331 C113.703,113.419 107.122,120 99.033,120" fill="#FFFFFF"></path>
    </g>
</svg>
