<svg height="452pt" viewBox="0 -7 452 452" width="452pt" xmlns="http://www.w3.org/2000/svg"><path d="m226 232.105469c38.988281 0 70.59375-31.605469 70.59375-70.59375s-31.605469-70.59375-70.59375-70.59375-70.59375 31.605469-70.59375 70.59375c.042969 38.972656 31.625 70.550781 70.59375 70.59375zm-30-106.039063c.046875-2.890625 1.628906-5.539062 4.152344-6.949218 2.539062-1.421876 5.640625-1.398438 8.15625.066406l59.835937 35.445312c2.429688 1.445313 3.917969 4.0625 3.914063 6.886719 0 2.828125-1.492188 5.441406-3.925782 6.878906l-59.851562 35.445313c-1.246094.730468-2.664062 1.117187-4.105469 1.117187-1.410156 0-2.792969-.359375-4.019531-1.050781-2.527344-1.410156-4.109375-4.058594-4.15625-6.949219zm0 0"/><path d="m212 140.105469v42.816406l36.140625-21.410156zm0 0"/><path d="m8 323h436c4.417969 0 8-3.582031 8-8v-307c0-4.417969-3.582031-8-8-8h-436c-4.417969 0-8 3.582031-8 8v307c0 4.417969 3.582031 8 8 8zm218-248.082031c47.824219 0 86.59375 38.769531 86.59375 86.59375.003906 47.824219-38.765625 86.59375-86.589844 86.597656-47.824218 0-86.597656-38.765625-86.597656-86.589844.050781-47.804687 38.789062-86.546875 86.59375-86.601562zm0 0"/><path d="m8 406h94v24.152344c0 4.417968 3.898438 7.847656 8.320312 7.847656h40.078126c2.066406.019531 4.046874-.8125 5.484374-2.292969 1.4375-1.484375 2.203126-3.492187 2.117188-5.554687v-24.152344h286c4.417969 0 8-3.582031 8-8s-3.582031-8-8-8h-286v-32.207031c.082031-2.058594-.683594-4.058594-2.121094-5.53125-1.4375-1.476563-3.421875-2.292969-5.480468-2.261719h-40.078126c-4.417968 0-8.320312 3.375-8.320312 7.792969v32.207031h-94c-4.417969 0-8 3.582031-8 8s3.582031 8 8 8zm0 0"/></svg>