<svg width="266" height="266" viewBox="0 0 266 266" fill="none" xmlns="http://www.w3.org/2000/svg">
<path d="M90.0829 180.521C89.7034 180.521 89.3017 180.431 88.9669 180.231L34.7527 148.916C34.0608 148.514 33.6367 147.778 33.6367 146.974V84.3681C33.6367 83.5646 34.0608 82.8281 34.7527 82.4263C35.4446 82.0246 36.2927 82.0246 36.9847 82.4263L91.1988 113.741C91.8907 114.142 92.3148 114.879 92.3148 115.682V178.289C92.3148 179.092 91.8907 179.829 91.1988 180.231C90.864 180.431 90.4623 180.521 90.0829 180.521ZM38.1006 145.702L87.8509 174.427V116.977L38.1006 88.2517V145.702V145.702Z" fill="#606060"/>
<path d="M92.3155 174.405V116.955L142.066 88.2294V98.0723L146.53 95.5056V84.3681C146.53 83.5646 146.106 82.8281 145.414 82.4263C144.722 82.0246 143.874 82.0246 143.182 82.4263L88.9675 113.741C88.2756 114.142 87.8516 114.879 87.8516 115.682V178.289C87.8516 179.092 88.2756 179.829 88.9675 180.231C89.3023 180.431 89.7041 180.521 90.0835 180.521C90.4629 180.521 90.8647 180.431 91.1995 180.231L114.166 166.973V161.817L92.3155 174.427V174.405Z" fill="#606060"/>
<path d="M146.552 84.368C146.552 83.5645 146.128 82.8279 145.436 82.4262L91.2223 51.1119C90.5304 50.7101 89.6822 50.7101 88.9903 51.1119L34.7761 82.4262C34.0842 82.8279 33.6602 83.5645 33.6602 84.368C33.6602 85.1715 34.0842 85.908 34.7761 86.3098L88.9903 117.624C89.3251 117.825 89.7269 117.914 90.1063 117.914C90.4857 117.914 90.8875 117.825 91.2223 117.624L145.436 86.3098C146.128 85.908 146.552 85.1715 146.552 84.368ZM90.1063 113.093L40.356 84.368L90.1063 55.6427L139.857 84.368L90.1063 113.093Z" fill="#606060"/>
<path d="M120.707 98.0052L66.2915 66.8025L61.8945 69.3246L115.729 100.862L120.707 98.0052Z" fill="#606060"/>
<path d="M174.919 214.178C174.539 214.178 174.138 214.089 173.803 213.888L119.589 182.574C118.897 182.172 118.473 181.436 118.473 180.632V118.026C118.473 117.222 118.897 116.486 119.589 116.084C120.281 115.682 121.129 115.682 121.821 116.084L176.035 147.398C176.727 147.8 177.151 148.537 177.151 149.34V211.946C177.151 212.75 176.727 213.487 176.035 213.888C175.7 214.089 175.298 214.178 174.919 214.178ZM122.937 179.36L172.687 208.085V150.635L122.937 121.909V179.36V179.36Z" fill="#606060"/>
<path d="M174.919 214.178C174.54 214.178 174.138 214.089 173.803 213.888C173.112 213.487 172.688 212.75 172.688 211.946V149.34C172.688 148.537 173.112 147.8 173.803 147.398L228.018 116.084C228.71 115.682 229.558 115.682 230.25 116.084C230.942 116.486 231.366 117.222 231.366 118.026V180.632C231.366 181.436 230.942 182.172 230.25 182.574L176.035 213.888C175.701 214.089 175.299 214.178 174.919 214.178ZM177.151 150.612V208.063L226.902 179.338V121.887L177.151 150.612Z" fill="#606060"/>
<path d="M174.919 151.572C174.539 151.572 174.138 151.483 173.803 151.282L119.589 119.968C118.897 119.566 118.473 118.829 118.473 118.026C118.473 117.222 118.897 116.486 119.589 116.084L173.803 84.7698C174.495 84.3681 175.343 84.3681 176.035 84.7698L230.249 116.084C230.941 116.486 231.365 117.222 231.365 118.026C231.365 118.829 230.941 119.566 230.249 119.968L176.035 151.282C175.7 151.483 175.298 151.572 174.919 151.572ZM125.169 118.026L174.919 146.751L224.669 118.026L174.919 89.3007L125.169 118.026V118.026Z" fill="#606060"/>
<path d="M146.73 103.005L200.565 134.52L205.542 131.663L151.127 100.46L146.73 103.005Z" fill="#606060"/>
<path d="M132.511 265C59.437 265 0 205.563 0 132.511C0 59.4593 59.437 0 132.511 0C205.585 0 265.022 59.437 265.022 132.511C265.022 205.585 205.585 265.022 132.511 265.022V265ZM132.511 8.92782C64.3696 8.92782 8.92782 64.3696 8.92782 132.511C8.92782 200.653 64.3696 256.094 132.511 256.094C200.653 256.094 256.094 200.653 256.094 132.511C256.094 64.3696 200.63 8.92782 132.511 8.92782Z" fill="#606060"/>
</svg>
