<svg width="266" height="266" viewBox="0 0 266 266" fill="none" xmlns="http://www.w3.org/2000/svg">
<path d="M241.073 169.383H215.338V164.919H238.841V128.36H233.328C232.547 128.36 231.832 127.958 231.431 127.288L206.924 86.9571H74.792V164.919H87.7597V169.383H72.5601C71.3325 169.383 70.3281 168.379 70.3281 167.151V84.7251C70.3281 83.4975 71.3325 82.4932 72.5601 82.4932H208.174C208.955 82.4932 209.669 82.8949 210.071 83.5645L234.578 123.896H241.073C242.3 123.896 243.305 124.9 243.305 126.128V167.151C243.305 168.379 242.3 169.383 241.073 169.383Z" fill="#606060"/>
<path d="M167.888 157.732H136.484V162.196H167.888V157.732Z" fill="#606060"/>
<path d="M191.232 178.177C179.737 178.177 170.363 168.825 170.363 157.308C170.363 145.791 179.715 136.439 191.232 136.439C202.749 136.439 212.101 145.791 212.101 157.308C212.101 168.825 202.749 178.177 191.232 178.177ZM191.232 140.926C182.193 140.926 174.827 148.291 174.827 157.331C174.827 166.37 182.193 173.735 191.232 173.735C200.271 173.735 207.637 166.37 207.637 157.331C207.637 148.291 200.271 140.926 191.232 140.926Z" fill="#606060"/>
<path d="M111.552 178.177C100.058 178.177 90.6836 168.825 90.6836 157.308C90.6836 145.791 100.035 136.439 111.552 136.439C123.069 136.439 132.421 145.791 132.421 157.308C132.421 168.825 123.069 178.177 111.552 178.177ZM111.552 140.926C102.513 140.926 95.1475 148.291 95.1475 157.331C95.1475 166.37 102.513 173.735 111.552 173.735C120.592 173.735 127.957 166.37 127.957 157.331C127.957 148.291 120.592 140.926 111.552 140.926Z" fill="#606060"/>
<path d="M226.141 128.181H189.068C187.84 128.181 186.836 127.177 186.836 125.949V91.5325C186.836 90.3049 187.84 89.3005 189.068 89.3005H205.517C206.299 89.3005 207.035 89.7023 207.437 90.3942L228.06 124.811C228.462 125.503 228.484 126.351 228.082 127.065C227.681 127.779 226.944 128.204 226.141 128.204V128.181ZM191.3 123.717H222.19L204.245 93.7644H191.278V123.717H191.3Z" fill="#606060"/>
<path d="M191.233 165.165C186.903 165.165 183.398 161.638 183.398 157.308C183.398 152.978 186.925 149.474 191.233 149.474C195.54 149.474 199.089 153.001 199.089 157.308C199.089 161.616 195.563 165.165 191.233 165.165ZM191.233 153.938C189.38 153.938 187.862 155.456 187.862 157.308C187.862 159.161 189.38 160.701 191.233 160.701C193.085 160.701 194.625 159.183 194.625 157.308C194.625 155.433 193.107 153.938 191.233 153.938Z" fill="#606060"/>
<path d="M111.552 165.165C107.222 165.165 103.695 161.638 103.695 157.308C103.695 152.978 107.222 149.474 111.552 149.474C115.882 149.474 119.386 153.001 119.386 157.308C119.386 161.616 115.859 165.165 111.552 165.165ZM111.552 153.938C109.677 153.938 108.159 155.456 108.159 157.308C108.159 159.161 109.677 160.701 111.552 160.701C113.427 160.701 114.922 159.183 114.922 157.308C114.922 155.433 113.404 153.938 111.552 153.938Z" fill="#606060"/>
<path d="M179.382 91.5103H174.918V125.927H179.382V91.5103Z" fill="#606060"/>
<path d="M66.3793 143.894H31.6055V148.358H66.3793V143.894Z" fill="#606060"/>
<path d="M66.3795 151.572H26.8516V156.036H66.3795V151.572Z" fill="#606060"/>
<path d="M66.8911 159.272H19.0156V163.736H66.8911V159.272Z" fill="#606060"/>
<path d="M132.511 265C59.437 265 0 205.563 0 132.511C0 59.4593 59.437 0 132.511 0C205.585 0 265.022 59.437 265.022 132.511C265.022 205.585 205.585 265.022 132.511 265.022V265ZM132.511 8.92782C64.3696 8.92782 8.92782 64.3696 8.92782 132.511C8.92782 200.653 64.3696 256.094 132.511 256.094C200.653 256.094 256.094 200.653 256.094 132.511C256.094 64.3696 200.63 8.92782 132.511 8.92782Z" fill="#606060"/>
</svg>
