<svg width="266" height="266" viewBox="0 0 266 266" fill="none" xmlns="http://www.w3.org/2000/svg">
<path d="M113.115 206.121H86.2865C84.925 206.121 83.6081 205.608 82.6038 204.693L48.2986 173.021C47.0487 171.86 46.4015 170.164 46.58 168.468L52.7402 110.303C52.9188 108.562 53.9455 107 55.4855 106.152C57.0033 105.304 58.8781 105.237 60.4628 105.973C62.1367 106.754 63.275 108.317 63.5206 110.147L69.279 153C69.3236 153.313 69.5245 153.581 69.7924 153.715L85.1036 161.415C85.5946 161.66 85.974 161.437 86.1526 161.303C86.3311 161.147 86.599 160.835 86.4651 160.299L83.6974 150.858C83.0055 148.514 83.876 146.148 85.9071 144.809C87.9381 143.47 90.4603 143.604 92.3351 145.166L115.547 164.383C116.753 165.365 117.467 166.816 117.512 168.379L118.538 200.496C118.583 201.97 118.047 203.376 117.021 204.447C115.994 205.518 114.61 206.099 113.115 206.099V206.121ZM58.1192 109.901C57.9184 109.901 57.7398 109.968 57.6505 110.035C57.4943 110.125 57.2041 110.348 57.1595 110.772L50.9993 168.937C50.977 169.227 51.0886 169.539 51.3118 169.74L85.6169 201.412C85.7955 201.568 86.0187 201.657 86.2642 201.657H113.092C113.449 201.657 113.673 201.478 113.784 201.367C113.896 201.255 114.052 201.032 114.052 200.675L113.025 168.557C113.025 168.289 112.891 168.021 112.691 167.843L89.4559 148.626C88.9872 148.246 88.5408 148.425 88.3176 148.559C88.0944 148.715 87.7596 149.028 87.9158 149.63L90.6835 159.071C91.3084 161.169 90.6388 163.357 88.9648 164.763C87.2909 166.169 85.0143 166.437 83.0502 165.432L67.739 157.732C66.1319 156.929 65.0383 155.389 64.8151 153.603L59.0566 110.727C59.012 110.415 58.8111 110.125 58.521 109.991C58.3647 109.924 58.2308 109.901 58.1192 109.901Z" fill="#606060"/>
<path d="M178.735 206.121H151.907C150.434 206.121 149.05 205.541 148.001 204.469C146.974 203.398 146.438 202.014 146.483 200.519L147.51 168.401C147.554 166.839 148.269 165.388 149.474 164.406L172.686 145.189C174.561 143.626 177.083 143.492 179.114 144.832C181.145 146.171 182.016 148.559 181.324 150.88L178.556 160.321C178.4 160.835 178.69 161.169 178.869 161.326C179.047 161.482 179.404 161.683 179.918 161.437L195.229 153.737C195.519 153.603 195.698 153.313 195.742 153L201.501 110.147C201.746 108.317 202.885 106.754 204.559 105.973C206.143 105.214 207.996 105.281 209.536 106.152C211.054 107 212.08 108.562 212.281 110.303L218.441 168.468C218.62 170.164 217.973 171.86 216.723 173.021L182.418 204.693C181.413 205.608 180.119 206.121 178.735 206.121ZM176.146 148.38C175.967 148.38 175.766 148.447 175.543 148.626L152.331 167.843C152.13 168.022 151.996 168.267 151.974 168.557L150.947 200.675C150.947 201.032 151.103 201.255 151.215 201.367C151.326 201.479 151.55 201.657 151.907 201.657H178.735C178.98 201.657 179.204 201.568 179.382 201.412L213.687 169.74C213.91 169.539 214.022 169.249 213.977 168.937L207.817 110.772C207.773 110.348 207.505 110.125 207.326 110.035C207.17 109.946 206.835 109.812 206.456 110.013C206.166 110.147 205.965 110.437 205.92 110.75L200.162 153.625C199.916 155.411 198.822 156.951 197.215 157.755L181.904 165.455C179.94 166.437 177.686 166.191 175.989 164.785C174.293 163.379 173.646 161.192 174.271 159.094L177.039 149.653C177.217 149.072 176.86 148.737 176.637 148.581C176.525 148.492 176.324 148.403 176.101 148.403L176.146 148.38Z" fill="#606060"/>
<path d="M132.509 149.586C132.218 149.586 131.906 149.519 131.616 149.407C129.339 148.425 76.0625 124.99 76.0625 87.2695C76.0625 68.9675 85.6153 58.9014 102.958 58.9014C120.3 58.9014 128.804 67.1819 132.486 71.4896C136.191 67.1596 145.409 58.9014 162.015 58.9014C178.621 58.9014 188.91 68.9675 188.91 87.2695C188.91 125.012 135.633 148.447 133.357 149.407C133.067 149.519 132.776 149.586 132.464 149.586H132.509ZM102.98 63.3653C88.0927 63.3653 80.5487 71.4003 80.5487 87.2695C80.5487 119.566 125.59 141.707 132.509 144.921C139.428 141.707 184.469 119.566 184.469 87.2695C184.469 71.4003 176.925 63.3653 162.037 63.3653C142.642 63.3653 134.741 75.8419 134.406 76.3553C134.004 77.0248 133.267 77.4266 132.509 77.4266C131.727 77.4266 131.013 77.0248 130.611 76.3553C130.277 75.8419 122.376 63.3653 102.98 63.3653Z" fill="#606060"/>
<path d="M132.511 265C59.437 265 0 205.563 0 132.511C0 59.4593 59.437 0 132.511 0C205.585 0 265.022 59.437 265.022 132.511C265.022 205.585 205.585 265.022 132.511 265.022V265ZM132.511 8.92782C64.3696 8.92782 8.92782 64.3696 8.92782 132.511C8.92782 200.653 64.3696 256.094 132.511 256.094C200.653 256.094 256.094 200.653 256.094 132.511C256.094 64.3696 200.63 8.92782 132.511 8.92782Z" fill="#606060"/>
</svg>
