<svg width="105" height="27" fill="none" xmlns="http://www.w3.org/2000/svg"><path d="M15.61 12.674a5.194 5.194 0 012.486-4.368 5.338 5.338 0 00-4.21-2.27c-1.772-.186-3.489 1.057-4.392 1.057-.92 0-2.31-1.039-3.806-1.008a5.619 5.619 0 00-4.72 2.87C-1.071 12.477.45 17.654 2.406 20.5c.978 1.394 2.12 2.952 3.616 2.897 1.463-.06 2.01-.93 3.776-.93 1.75 0 2.262.93 3.788.895 1.57-.026 2.56-1.4 3.503-2.808A11.516 11.516 0 0018.69 17.3a5.042 5.042 0 01-2.238-1.851 5.02 5.02 0 01-.842-2.776zM12.729 4.163A5.116 5.116 0 0013.905.491a5.235 5.235 0 00-3.384 1.746 4.875 4.875 0 00-1.207 3.536 4.335 4.335 0 003.415-1.61zM34.107 19.868h-4.993l-1.2 3.531H25.8l4.73-13.064h2.197l4.73 13.064h-2.152l-1.198-3.53zm-4.476-1.63h3.958l-1.951-5.73h-.055l-1.952 5.73zM47.671 18.637c0 2.96-1.588 4.862-3.986 4.862a3.246 3.246 0 01-3.005-1.667h-.045v4.718h-1.96V13.875h1.897v1.584h.036a3.383 3.383 0 013.041-1.684c2.424 0 4.022 1.91 4.022 4.862zm-2.015 0c0-1.928-1-3.196-2.524-3.196-1.498 0-2.505 1.295-2.505 3.196 0 1.92 1.007 3.205 2.505 3.205 1.525 0 2.524-1.259 2.524-3.205zM58.184 18.637c0 2.96-1.589 4.862-3.986 4.862a3.245 3.245 0 01-3.005-1.667h-.045v4.718h-1.961V13.875h1.898v1.584h.036a3.384 3.384 0 013.04-1.684c2.425 0 4.023 1.91 4.023 4.862zm-2.015 0c0-1.928-1-3.196-2.524-3.196-1.498 0-2.506 1.295-2.506 3.196 0 1.92 1.008 3.205 2.506 3.205 1.524 0 2.524-1.259 2.524-3.205zM65.131 19.76c.145 1.295 1.407 2.145 3.132 2.145 1.652 0 2.841-.85 2.841-2.018 0-1.014-.717-1.622-2.415-2.038l-1.697-.407c-2.406-.58-3.523-1.702-3.523-3.522 0-2.254 1.97-3.802 4.767-3.802 2.768 0 4.666 1.548 4.73 3.802h-1.98c-.118-1.304-1.198-2.09-2.778-2.09-1.579 0-2.66.795-2.66 1.954 0 .924.69 1.467 2.38 1.883l1.443.354c2.687.634 3.804 1.71 3.804 3.621 0 2.444-1.952 3.975-5.057 3.975-2.905 0-4.867-1.495-4.994-3.858h2.007zM77.406 11.62v2.255h1.816v1.548h-1.816v5.25c0 .816.363 1.196 1.162 1.196.215-.004.43-.019.645-.045v1.539a5.402 5.402 0 01-1.09.09c-1.933 0-2.687-.724-2.687-2.571v-5.46h-1.389v-1.548h1.389V11.62h1.97zM80.274 18.637c0-2.996 1.77-4.88 4.53-4.88 2.77 0 4.531 1.884 4.531 4.88 0 3.005-1.752 4.88-4.53 4.88-2.778 0-4.53-1.875-4.53-4.88zm7.064 0c0-2.055-.945-3.269-2.534-3.269-1.588 0-2.532 1.223-2.532 3.27 0 2.063.944 3.267 2.532 3.267 1.589 0 2.534-1.204 2.534-3.268zM90.951 13.875h1.87v1.62h.046c.126-.506.424-.953.842-1.266a2.283 2.283 0 011.455-.454c.226 0 .451.024.672.073v1.829a2.75 2.75 0 00-.881-.119 1.981 1.981 0 00-1.527.628 1.966 1.966 0 00-.516 1.564v5.649h-1.96v-9.524zM104.875 20.602c-.264 1.729-1.952 2.915-4.112 2.915-2.779 0-4.504-1.856-4.504-4.834 0-2.988 1.734-4.925 4.421-4.925 2.643 0 4.304 1.81 4.304 4.698v.67h-6.745v.117a2.472 2.472 0 00.674 1.928 2.487 2.487 0 001.895.77 2.158 2.158 0 002.206-1.34h1.861zm-6.627-2.843h4.775a2.286 2.286 0 00-1.419-2.245 2.304 2.304 0 00-.924-.172 2.423 2.423 0 00-2.249 1.49c-.122.293-.184.609-.183.927zM27.111 6.78V.501h2.53c1.183 0 1.894.6 1.894 1.566a1.373 1.373 0 01-1.103 1.349v.074a1.49 1.49 0 011.417 1.51c0 1.104-.806 1.778-2.15 1.778H27.11zm.978-3.62h1.16c.864 0 1.314-.317 1.314-.913 0-.58-.424-.918-1.148-.918h-1.326V3.16zm1.414 2.793c.88 0 1.347-.357 1.347-1.022 0-.657-.484-1-1.404-1h-1.357v2.022h1.414zM32.854 5.44c0-.853.636-1.344 1.767-1.414l1.286-.074v-.41c0-.5-.331-.782-.972-.782-.524 0-.886.192-.99.527h-.908c.096-.814.864-1.336 1.941-1.336 1.191 0 1.863.591 1.863 1.592V6.78h-.903v-.666h-.074a1.597 1.597 0 01-1.427.744 1.44 1.44 0 01-1.458-.838 1.425 1.425 0 01-.125-.58zm3.053-.405V4.64l-1.16.074c-.654.044-.95.266-.95.683 0 .427.37.675.88.675a1.123 1.123 0 001.23-1.036zM38.187.642a.605.605 0 01.702-.634.608.608 0 01.468.82.606.606 0 01-.564.383.578.578 0 01-.606-.57zm.139 1.4h.934V6.78h-.934V2.042zM42.477 5.1L41.44 6.78h-1.03l1.576-2.358-1.589-2.38h1.095l1.021 1.67h.075l1.011-1.67h1.043l-1.566 2.34 1.583 2.398h-1.076L42.547 5.1h-.07zM45.485 5.44c0-.853.637-1.344 1.767-1.414l1.287-.074v-.41c0-.5-.332-.782-.973-.782-.523 0-.886.192-.99.527h-.907c.096-.814.863-1.336 1.94-1.336 1.192 0 1.863.591 1.863 1.592V6.78h-.902v-.666h-.074a1.596 1.596 0 01-1.427.744 1.44 1.44 0 01-1.458-.838 1.425 1.425 0 01-.126-.58zm3.054-.405V4.64l-1.16.074c-.654.044-.951.266-.951.683 0 .427.37.675.88.675a1.123 1.123 0 001.23-1.036zM50.94 2.043h.903v.726h.07a1.285 1.285 0 011.282-.805c.14-.002.281.011.419.039v.923a2.575 2.575 0 00-.524-.057 1.116 1.116 0 00-1.12.664 1.108 1.108 0 00-.092.45V6.78h-.938V2.043zM57.226 2.042h.903v.753h.07a1.42 1.42 0 011.418-.844 1.549 1.549 0 011.591 1.079c.069.22.087.454.053.683v3.066h-.937V3.947c0-.76-.332-1.14-1.025-1.14a1.093 1.093 0 00-1.084.74c-.05.148-.067.305-.05.461V6.78h-.939V2.042zM62.441 5.44c0-.853.637-1.344 1.767-1.414l1.287-.074v-.41c0-.5-.332-.782-.973-.782-.523 0-.886.192-.99.527h-.907c.096-.814.863-1.336 1.94-1.336 1.192 0 1.863.591 1.863 1.592V6.78h-.902v-.666h-.074a1.596 1.596 0 01-1.427.744 1.439 1.439 0 01-1.458-.838 1.428 1.428 0 01-.126-.58zm3.054-.405V4.64l-1.16.074c-.654.044-.95.266-.95.683 0 .427.37.675.88.675a1.123 1.123 0 001.112-.607c.068-.134.108-.28.118-.429z" fill="#fff"></path></svg>