<svg width="161" height="120" viewBox="0 0 161 120" fill="none" xmlns="http://www.w3.org/2000/svg"><path fill-rule="evenodd" clip-rule="evenodd" d="M130.568 90.859v-7.693h5.387c8.881 0 16.105-6.974 16.105-15.769s-7.224-15.77-16.105-15.77h-20.921v-7.692h20.921c13.163 0 23.872 10.425 23.872 23.462 0 13.037-10.709 23.462-23.872 23.462h-5.387z" fill="#fff"></path><path clip-rule="evenodd" d="M135.955 90.859h-5.387v-7.693h5.387c8.881 0 16.105-6.974 16.105-15.769s-7.224-15.77-16.105-15.77h-20.921v-7.692h20.921c13.163 0 23.872 10.425 23.872 23.462 0 13.037-10.709 23.462-23.872 23.462v0z" stroke="#CCC" stroke-width="2" stroke-linecap="round" stroke-linejoin="round"></path><path fill-rule="evenodd" clip-rule="evenodd" d="M25.65 90.859h4.725v-7.693h-4.726c-8.88 0-16.105-6.974-16.105-15.769s7.224-15.77 16.105-15.77h20.26v-7.692h-20.26c-13.163 0-23.872 10.425-23.872 23.462 0 13.037 10.71 23.462 23.872 23.462" fill="#fff"></path><path clip-rule="evenodd" d="M25.65 90.859h4.725v-7.693h-4.726c-8.88 0-16.105-6.974-16.105-15.769s7.224-15.77 16.105-15.77h20.26v-7.692h-20.26c-13.163 0-23.872 10.425-23.872 23.462 0 13.037 10.71 23.462 23.872 23.462v0z" stroke="#CCC" stroke-width="2" stroke-linecap="round" stroke-linejoin="round"></path><mask id="a" maskUnits="userSpaceOnUse" x="1" y="0" width="160" height="120" style="mask-type: alpha;"><path fill-rule="evenodd" clip-rule="evenodd" d="M1 120h159.605V0H1v120z" fill="#fff"></path></mask><g mask="url(#a)"><path fill-rule="evenodd" clip-rule="evenodd" d="M50.664 102.135h60.507V76.242H50.664v25.893z" fill="#F2F2F2"></path><path clip-rule="evenodd" d="M50.664 102.135h60.507V76.242H50.664v25.893z" stroke="#CCC" stroke-width="2" stroke-linecap="round" stroke-linejoin="round"></path><path fill-rule="evenodd" clip-rule="evenodd" d="M111.171 94.127h20.836V76.242h-20.836v17.885z" fill="#F2F2F2"></path><path clip-rule="evenodd" d="M111.171 94.127h20.836V76.242h-20.836v17.885z" stroke="#CCC" stroke-width="2" stroke-linecap="round" stroke-linejoin="round"></path><path fill-rule="evenodd" clip-rule="evenodd" d="M29.42 94.127h21.244V76.242H29.42v17.885z" fill="#F2F2F2"></path><path clip-rule="evenodd" d="M29.42 94.127h21.244V76.242H29.42v17.885z" stroke="#CCC" stroke-width="2" stroke-linecap="round" stroke-linejoin="round"></path><path d="M29.42 80.857h102.588M29.42 85.186h102.588" stroke="#CCC" stroke-width="2" stroke-linecap="round" stroke-linejoin="round"></path><path fill-rule="evenodd" clip-rule="evenodd" d="M90.907 76.445c0 5.527-4.524 10.008-10.105 10.008-5.58 0-10.105-4.48-10.105-10.008" fill="#fff"></path><path d="M90.907 76.445c0 5.527-4.524 10.008-10.105 10.008-5.58 0-10.105-4.48-10.105-10.008" stroke="#CCC" stroke-width="2" stroke-linecap="round" stroke-linejoin="round"></path><path fill-rule="evenodd" clip-rule="evenodd" d="M92.695 22.397H69.14a1.15 1.15 0 01-1.155-1.144v-.92c0-2.577 2.11-4.667 4.713-4.667h16.44c2.603 0 4.713 2.09 4.713 4.668v.919a1.15 1.15 0 01-1.155 1.144" fill="#F2F2F2"></path><path clip-rule="evenodd" d="M92.695 22.397H69.14a1.15 1.15 0 01-1.155-1.144v-.92c0-2.577 2.11-4.667 4.713-4.667h16.44c2.603 0 4.713 2.09 4.713 4.668v.919a1.15 1.15 0 01-1.155 1.144v0z" stroke="#CCC" stroke-width="2" stroke-linecap="round" stroke-linejoin="round"></path><path fill-rule="evenodd" clip-rule="evenodd" d="M80.802 77.524c-11.939 0-21.617-9.585-21.617-21.41V41.499c0-11.825 9.678-21.411 21.617-21.411 11.94 0 21.618 9.586 21.618 21.41v14.616c0 11.825-9.678 21.41-21.618 21.41" fill="#fff"></path><path clip-rule="evenodd" d="M80.802 77.524v0c-11.939 0-21.617-9.585-21.617-21.41V41.499c0-11.825 9.678-21.411 21.617-21.411v0c11.94 0 21.618 9.586 21.618 21.41v14.616c0 11.825-9.678 21.41-21.618 21.41v0z" stroke="#CCC" stroke-width="2" stroke-linecap="round" stroke-linejoin="round"></path><path d="M80.716 45.217v11.025h-2.354c-1.348 0-2.441 1.083-2.441 2.418v0c0 1.335 1.093 2.417 2.441 2.417h3.933" stroke="#CCC" stroke-width="2" stroke-linecap="round" stroke-linejoin="round"></path><path fill-rule="evenodd" clip-rule="evenodd" d="M76.3 69.513c0-2.168 1.775-3.925 3.963-3.925s3.962 1.757 3.962 3.925h-7.924z" fill="#F2F2F2"></path><path clip-rule="evenodd" d="M76.3 69.513c0-2.168 1.775-3.925 3.963-3.925s3.962 1.757 3.962 3.925h-7.924v0z" stroke="#CCC" stroke-width="2" stroke-linecap="round" stroke-linejoin="round"></path><path fill-rule="evenodd" clip-rule="evenodd" d="M98.537 34.511h-35.47l-3.883-11.153s9.56-3.366 21.521-3.366c11.96 0 21.715 3.366 21.715 3.366L98.537 34.51z" fill="#fff"></path><path clip-rule="evenodd" d="M98.537 34.511h-35.47l-3.883-11.153s9.56-3.366 21.521-3.366c11.96 0 21.715 3.366 21.715 3.366L98.537 34.51v0z" stroke="#CCC" stroke-width="2" stroke-linecap="round" stroke-linejoin="round"></path><path d="M77.78 25.217h5.695M80.627 23.166v7.308M83.443 28.31c0 1.54-1.261 2.789-2.816 2.789s-2.816-1.248-2.816-2.788" stroke="#CCC" stroke-width="2" stroke-linecap="round" stroke-linejoin="round"></path><path fill-rule="evenodd" clip-rule="evenodd" d="M91.522 37.66c-.07 0-.139.12-.208.12h-21.27c-.07 0-.139-.12-.209-.12-4.962 0-8.985 3.93-8.985 8.845 0 4.914 4.023 9.152 8.985 9.152 4.963 0 8.986-4.8 8.986-8.645h3.715c0 3.846 4.022 8.618 8.986 8.618 4.963 0 8.985-4.07 8.985-8.985 0-4.915-4.022-8.985-8.986-8.985" fill="#F2F2F2"></path><path clip-rule="evenodd" d="M91.522 37.66c-.07 0-.139.12-.208.12h-21.27c-.07 0-.139-.12-.209-.12-4.962 0-8.985 3.93-8.985 8.845 0 4.914 4.023 9.152 8.985 9.152 4.963 0 8.986-4.8 8.986-8.645h3.715c0 3.846 4.022 8.618 8.986 8.618 4.963 0 8.985-4.07 8.985-8.985 0-4.915-4.022-8.985-8.986-8.985v0z" stroke="#CCC" stroke-width="2" stroke-linecap="round" stroke-linejoin="round"></path><path fill-rule="evenodd" clip-rule="evenodd" d="M117.21 47.416c0 8.32-6.81 15.065-15.211 15.065-8.4 0-15.21-6.745-15.21-15.065s6.81-15.064 15.21-15.064c8.401 0 15.211 6.744 15.211 15.064" fill="#F2F2F2"></path><path clip-rule="evenodd" d="M117.21 47.416c0 8.32-6.81 15.065-15.211 15.065-8.4 0-15.21-6.745-15.21-15.065s6.81-15.064 15.21-15.064c8.401 0 15.211 6.744 15.211 15.064v0z" stroke="#CCC" stroke-width="2" stroke-linecap="round" stroke-linejoin="round"></path><path fill-rule="evenodd" clip-rule="evenodd" d="M101.999 56.943c-5.304 0-9.62-4.274-9.62-9.526 0-5.253 4.316-9.526 9.62-9.526 5.303 0 9.618 4.273 9.618 9.526 0 5.252-4.315 9.526-9.618 9.526" fill="#fff"></path><path clip-rule="evenodd" d="M101.999 56.943c-5.304 0-9.62-4.274-9.62-9.526 0-5.253 4.316-9.526 9.62-9.526 5.303 0 9.618 4.273 9.618 9.526 0 5.252-4.315 9.526-9.618 9.526v0z" stroke="#CCC" stroke-width="2" stroke-linecap="round" stroke-linejoin="round"></path><path fill-rule="evenodd" clip-rule="evenodd" d="M101.998 41.352c3.376 0 6.124 2.72 6.124 6.064z" fill="#fff"></path><path d="M101.998 41.352c3.376 0 6.124 2.72 6.124 6.064" stroke="#CCC" stroke-width="2" stroke-linecap="round" stroke-linejoin="round"></path><path fill-rule="evenodd" clip-rule="evenodd" d="M74.57 47.416c0 8.32-6.81 15.065-15.212 15.065-8.4 0-15.21-6.745-15.21-15.065s6.81-15.064 15.21-15.064c8.401 0 15.211 6.744 15.211 15.064" fill="#F2F2F2"></path><path clip-rule="evenodd" d="M74.57 47.416c0 8.32-6.81 15.065-15.212 15.065-8.4 0-15.21-6.745-15.21-15.065s6.81-15.064 15.21-15.064c8.401 0 15.211 6.744 15.211 15.064v0z" stroke="#CCC" stroke-width="2" stroke-linecap="round" stroke-linejoin="round"></path><path fill-rule="evenodd" clip-rule="evenodd" d="M59.358 56.943c-5.303 0-9.619-4.274-9.619-9.526 0-5.253 4.316-9.526 9.619-9.526s9.619 4.273 9.619 9.526c0 5.252-4.316 9.526-9.62 9.526" fill="#fff"></path><path clip-rule="evenodd" d="M59.358 56.943c-5.303 0-9.619-4.274-9.619-9.526 0-5.253 4.316-9.526 9.619-9.526s9.619 4.273 9.619 9.526c0 5.252-4.316 9.526-9.62 9.526v0z" stroke="#CCC" stroke-width="2" stroke-linecap="round" stroke-linejoin="round"></path><path fill-rule="evenodd" clip-rule="evenodd" d="M59.357 41.352c3.377 0 6.124 2.72 6.124 6.064z" fill="#fff"></path><path d="M59.357 41.352c3.377 0 6.124 2.72 6.124 6.064M88.051 41.352H73.553M80.802 86.453v10.614" stroke="#CCC" stroke-width="2" stroke-linecap="round" stroke-linejoin="round"></path></g></svg>