<svg width="108" height="80" viewBox="0 0 108 80" fill="none" xmlns="http://www.w3.org/2000/svg">
<g clip-path="url(#clip0_3314_6789)">
<path d="M107.157 67.2929H49.3469V48.605H100.309L105.063 52.6047C106.393 53.708 107.157 55.3975 107.157 57.1559V67.2929V67.2929Z" fill="#263238"/>
<path opacity="0.5" d="M107.157 67.2929H49.3469V48.605H100.309L105.063 52.6047C106.393 53.708 107.157 55.3975 107.157 57.1559V67.2929V67.2929Z" fill="#263238"/>
<path d="M49.0154 65.6013C49.0154 58.7743 52.0074 53.2576 55.6642 53.2576H48.5833C44.8932 53.2576 41.9346 58.7743 41.9346 65.6013C41.9346 72.4282 44.9265 77.9449 48.5833 77.9449H55.6642C51.9741 77.9449 49.0154 72.4282 49.0154 65.6013Z" fill="#303042"/>
<path d="M55.6642 77.9449C59.3362 77.9449 62.3129 72.4185 62.3129 65.6013C62.3129 58.7841 59.3362 53.2576 55.6642 53.2576C51.9922 53.2576 49.0155 58.7841 49.0155 65.6013C49.0155 72.4185 51.9922 77.9449 55.6642 77.9449Z" fill="#303042"/>
<path d="M56.1958 75.2248C58.8029 75.2248 60.9164 70.9179 60.9164 65.6051C60.9164 60.2922 58.8029 55.9853 56.1958 55.9853C53.5887 55.9853 51.4752 60.2922 51.4752 65.6051C51.4752 70.9179 53.5887 75.2248 56.1958 75.2248Z" fill="white"/>
<path d="M10.6185 65.6013C10.6185 58.7743 13.6104 53.2576 17.2672 53.2576H10.1863C6.49628 53.2576 3.5376 58.7743 3.5376 65.6013C3.5376 72.4282 6.52952 77.9449 10.1863 77.9449H17.2672C13.5772 77.9449 10.6185 72.4282 10.6185 65.6013Z" fill="#303042"/>
<path d="M17.2679 77.9449C20.9398 77.9449 23.9166 72.4185 23.9166 65.6013C23.9166 58.7841 20.9398 53.2576 17.2679 53.2576C13.5959 53.2576 10.6191 58.7841 10.6191 65.6013C10.6191 72.4185 13.5959 77.9449 17.2679 77.9449Z" fill="#303042"/>
<path d="M94.6583 65.6013C94.6583 58.7743 97.6502 53.2576 101.307 53.2576H94.2261C90.5361 53.2576 87.5774 58.7743 87.5774 65.6013C87.5774 72.4282 90.5693 77.9449 94.2261 77.9449H101.307C97.6502 77.9449 94.6583 72.4282 94.6583 65.6013Z" fill="#303042"/>
<path d="M101.308 77.9449C104.98 77.9449 107.956 72.4185 107.956 65.6013C107.956 58.7841 104.98 53.2576 101.308 53.2576C97.6357 53.2576 94.6589 58.7841 94.6589 65.6013C94.6589 72.4185 97.6357 77.9449 101.308 77.9449Z" fill="#303042"/>
<path d="M101.872 75.2248C104.479 75.2248 106.592 70.9179 106.592 65.6051C106.592 60.2922 104.479 55.9853 101.872 55.9853C99.2647 55.9853 97.1512 60.2922 97.1512 65.6051C97.1512 70.9179 99.2647 75.2248 101.872 75.2248Z" fill="white"/>
<path d="M41.1357 69.0507H32.5921L32.1267 68.568C31.628 68.0508 30.9631 67.7749 30.265 67.7749H8.88939C8.19128 67.7749 7.5264 68.0508 7.02775 68.568L6.72856 68.8783H5.96396C3.43744 68.8438 1.37634 66.7061 1.37634 64.0856V56.776H49.8455L45.9892 65.4648C45.2579 67.6025 43.3297 69.0507 41.1357 69.0507Z" fill="#EE7EAF"/>
<path d="M41.1357 69.0507H32.5921L32.1267 68.568C31.628 68.0508 30.9631 67.7749 30.265 67.7749H8.88939C8.19128 67.7749 7.5264 68.0508 7.02775 68.568L6.72856 68.8783H5.96396C3.43744 68.8438 1.37634 66.7061 1.37634 64.0856V56.776H49.8455L45.9892 65.4648C45.2579 67.6025 43.3297 69.0507 41.1357 69.0507Z" fill="#DD7990"/>
<path d="M91.6004 25.6712C91.5672 25.6712 91.5339 25.6712 91.5007 25.6367C91.4342 25.6022 91.4009 25.4988 91.4342 25.3954L93.7612 21.2578C93.7945 21.1889 93.8942 21.1544 93.9939 21.1889C94.0604 21.2234 94.0937 21.3268 94.0604 21.4302L91.7334 25.5678C91.7001 25.6712 91.6669 25.6712 91.6004 25.6712Z" fill="#263238"/>
<path d="M103.867 46.2587V41.5695C103.867 39.087 100.41 27.433 95.6229 25.2608C90.869 23.0886 79.3335 22.0887 72.0864 22.5024C64.8393 22.9162 55.1322 38.6388 55.1322 38.6388L56.196 52.1892C57.6587 52.1892 62.3793 51.741 63.0442 65.119C63.1439 67.0843 64.7064 68.6014 66.6012 68.6014H92.0326C93.7945 68.6014 95.2904 67.2567 95.5564 65.4293C96.2213 60.6712 97.9499 52.1547 102.139 52.1547C105.064 52.1547 107.192 54.7752 107.192 57.7404C107.192 54.4649 106.427 51.2238 104.964 48.3275L103.867 46.2587Z" fill="#EF87A1"/>
<path d="M45.4912 22.5034C32.2603 22.5034 17.3007 38.6397 17.3007 38.6397H55.1651C55.1651 38.6397 64.839 22.8826 72.1193 22.5034H45.4912Z" fill="#ADADDE"/>
<path opacity="0.4" d="M46.3226 22.4997C35.186 22.4997 23.5175 33.9469 20.0934 37.5673C19.7278 37.981 19.9937 38.6361 20.5256 38.6361H51.0764C53.5697 38.6361 55.8995 41.4433 57.3927 35.3261C60.6838 30.6714 67.0001 22.7756 72.1196 22.4653H46.3226V22.4997Z" fill="white"/>
<path d="M55.1645 38.6401L41.1689 50.0873L3.53718 49.9494C3.53718 49.9494 1.37634 53.1905 1.37634 56.7763C3.73664 56.7763 47.1195 56.7763 49.8455 56.7763C50.6433 54.6041 53.4358 52.1905 56.195 52.1905C56.195 48.122 55.1645 38.6401 55.1645 38.6401Z" fill="#EF87A1"/>
<path opacity="0.2" d="M45.9895 46.7057C45.923 46.7057 45.8232 46.6368 45.8232 46.5678C45.8232 46.4644 45.8565 46.3954 45.9562 46.3609C50.0784 45.7058 53.1701 43.6371 55.0317 41.982C56.0955 41.0511 56.295 39.465 55.5304 38.2927C55.4639 38.2238 55.4971 38.1203 55.5636 38.0514C55.6301 37.9824 55.7298 38.0169 55.7963 38.0859C56.6607 39.4306 56.428 41.189 55.2644 42.2579C53.3695 43.9129 50.2114 46.0506 45.9895 46.7057C46.0227 46.7057 46.0227 46.7057 45.9895 46.7057Z" fill="black"/>
<path d="M3.5376 49.9494C3.5376 49.9494 10.1531 41.9502 17.3004 38.6401H55.1649L41.1693 50.0873L3.5376 49.9494Z" fill="#EF87A1"/>
<path d="M32.8253 49.95H7.99231V50.7085H32.8253V49.95Z" fill="#263238"/>
<path d="M32.2927 48.4649L33.6224 47.0858C33.9216 46.7754 34.2873 46.5686 34.7194 46.4651L44.759 44.1895C45.1247 44.1205 45.4904 44.1205 45.8228 44.224L46.3547 44.3964C47.9171 44.8446 48.4823 46.8444 47.4185 48.1201L45.2577 50.6716C44.892 51.1198 44.3601 51.3957 43.7949 51.4302L34.0546 52.3611C33.3897 52.4301 32.7581 52.1887 32.2927 51.706C31.4283 50.8095 31.4283 49.3614 32.2927 48.4649Z" fill="white"/>
<path d="M8.69079 49.1904L7.59375 47.0527C7.42754 46.7424 7.19483 46.501 6.92888 46.3286C6.39699 45.9838 5.69887 45.9838 5.16697 46.2596L4.33588 46.7079C3.93696 46.9492 3.60452 47.3285 3.47155 47.7767L2.9729 49.3283C2.60722 50.4317 3.27209 51.604 4.36913 51.7764L6.66293 52.1901C7.42754 52.328 8.19214 51.9488 8.55782 51.2247L8.72404 50.9144C8.98998 50.4317 8.98998 49.7421 8.69079 49.1904Z" fill="white"/>
<path opacity="0.4" d="M62.8771 39.0875H97.8826C99.1458 39.0875 100.077 37.8117 99.7109 36.536C98.9131 33.7776 97.3839 29.4677 95.0901 27.261C94.8241 27.0197 94.525 26.8473 94.1925 26.7783C90.0703 25.8818 83.4216 25.2612 78.5015 24.9164C73.9804 24.6061 69.559 26.3301 66.4009 29.6746C64.7387 31.433 62.9435 33.6052 61.3479 36.0533C60.5168 37.398 61.4143 39.0875 62.8771 39.0875Z" fill="white"/>
<path d="M40.2379 60.81C40.2379 61.9479 39.1076 62.8443 37.7446 62.8443C36.3816 62.8443 35.2513 61.9134 35.2513 60.81C35.2513 59.6722 36.3816 58.7758 37.7446 58.7758C39.1408 58.7758 40.2379 59.6722 40.2379 60.81Z" fill="#263238"/>
<path d="M20.1602 48.3978C20.9913 48.3978 21.3902 49.2598 21.0578 50.3287C20.7253 51.3975 19.7945 52.2595 18.9967 52.2595C18.1988 52.2595 17.7667 51.3975 18.0991 50.3287C18.4315 49.2598 19.3624 48.3978 20.1602 48.3978Z" fill="#263238"/>
<path d="M3.4049 60.81C3.4049 61.9479 3.1057 62.8443 2.70678 62.8443C2.30786 62.8443 2.00867 61.9134 2.00867 60.81C2.00867 59.6722 2.30786 58.7758 2.70678 58.7758C3.07246 58.7758 3.4049 59.6722 3.4049 60.81Z" fill="#263238"/>
<path d="M61.814 38.778V37.6057C61.814 36.192 63.0772 35.1232 64.407 35.399L68.6621 36.3299C69.6594 36.5368 70.3908 37.4678 70.3908 38.5366V38.778C70.3908 40.0192 69.4267 41.0191 68.23 41.0191H63.9748C62.778 41.0191 61.814 40.0192 61.814 38.778Z" fill="#263238"/>
<path d="M84.2197 25.4313C84.2197 25.4313 83.6545 25.3624 82.6572 25.2934C87.0454 34.6028 85.9151 39.1196 85.9151 39.1196H89.2727C89.3059 33.4305 84.2197 25.4313 84.2197 25.4313Z" fill="#EF87A1"/>
<path opacity="0.2" d="M47.2854 34.9166C47.1524 36.4337 45.9224 37.606 44.4597 37.606H27.2063C25.943 37.606 25.4776 36.1578 26.4084 35.0545C28.1704 32.9857 30.032 31.1583 31.7607 29.6412C35.0185 26.8139 39.041 25.3313 42.7975 25.6071C43.2629 25.6416 43.7283 25.6761 44.227 25.7106C45.4903 25.814 46.5208 26.7794 46.7868 28.0552C47.3851 31.0893 47.4184 33.365 47.2854 34.9166Z" fill="#407BFF"/>
<path opacity="0.2" d="M86.3465 66.1561C86.2468 66.1561 86.1803 66.0872 86.1803 65.9837C86.1803 62.5013 87.909 48.1234 88.3411 45.9512C88.7733 43.8479 88.7733 41.5378 88.3411 39.9862C88.3079 39.8828 88.3744 39.8139 88.4409 39.7794C88.5406 39.7449 88.6071 39.8139 88.6403 39.8828C89.1057 41.4689 89.1057 43.8479 88.6403 45.9857C88.2082 48.1234 86.4795 62.4668 86.4795 65.9493C86.5127 66.0872 86.413 66.1561 86.3465 66.1561Z" fill="black"/>
<path opacity="0.2" d="M85.8825 46.1223H81.8268C81.4944 46.1223 81.2617 45.8465 81.3281 45.5017L81.4279 45.0189C81.4944 44.6742 81.8268 44.3983 82.1592 44.3983H86.2149C86.5474 44.3983 86.7801 44.6742 86.7136 45.0189L86.6139 45.5017C86.5474 45.8465 86.2149 46.1223 85.8825 46.1223Z" fill="black"/>
<path d="M74.9125 77.428L76.9071 77.3935L77.5055 72.5664L75.4776 72.6009L74.9125 77.428Z" fill="#B55B52"/>
<path d="M84.4861 77.258L86.4475 76.6373L85.2174 72.0861L83.2893 72.7067L84.4861 77.258Z" fill="#B55B52"/>
<path d="M86.3812 76.0488L84.2203 77.2211C84.1539 77.2556 84.1206 77.359 84.1206 77.428L84.586 79.2554C84.6193 79.4622 84.852 79.5312 85.0182 79.4278C85.7163 79.0485 86.215 78.7382 87.0793 78.2555C87.6112 77.9796 89.2734 77.1521 90.038 76.7384C90.7693 76.3591 90.5034 75.5316 90.1709 75.6006C88.6417 76.0143 87.3785 76.1522 86.7468 75.9798C86.6139 75.9798 86.4809 75.9798 86.3812 76.0488Z" fill="#263238"/>
<path d="M76.9735 77.1539L74.7794 77.1884C74.7129 77.1884 74.6132 77.2574 74.6132 77.3263L74.2475 79.1882C74.2143 79.3951 74.3473 79.5675 74.5467 79.5675C75.3446 79.533 76.4748 79.464 77.4721 79.464C78.6357 79.4296 78.9681 79.4985 80.3311 79.464C81.1622 79.464 81.3617 78.5676 81.0292 78.4986C79.4668 78.1538 78.8351 78.1538 77.4721 77.2918C77.3059 77.2229 77.1397 77.1539 76.9735 77.1539Z" fill="#263238"/>
<path d="M79.9982 14.0912C80.4636 15.0221 80.9623 16.0565 81.4942 16.9875C82.0261 17.9529 82.5579 18.8838 83.1231 19.7803C83.2561 19.9872 83.4223 20.2285 83.5553 20.4354L83.9209 20.9526C83.9874 21.056 84.0539 21.0905 84.0539 21.125C84.0539 21.1595 84.0872 21.1939 84.1869 21.1939C84.3864 21.1939 84.7853 20.9871 85.151 20.7112C85.3172 20.5733 85.5166 20.4009 85.7161 20.2285C85.8823 20.0561 86.0818 19.8493 86.248 19.6769L87.5445 20.4354C87.4115 20.7802 87.3118 21.0216 87.1456 21.3319C87.0126 21.6077 86.8464 21.8835 86.6469 22.1594C86.4475 22.4352 86.2147 22.711 85.9488 22.9524C85.6828 23.1938 85.3504 23.4351 84.885 23.6075C84.4528 23.7799 83.8877 23.8489 83.3558 23.6765C82.8239 23.5385 82.3917 23.2627 82.0925 22.9869C81.9928 22.9179 81.9263 22.849 81.8598 22.78L81.7601 22.6766L81.6936 22.5731L81.3944 22.2283C81.195 21.987 81.0287 21.7456 80.8293 21.5387C80.0979 20.5733 79.4663 19.6079 78.8679 18.5735C78.5687 18.0563 78.2695 17.5391 78.0368 17.0219C77.7709 16.5047 77.5049 15.9876 77.2722 15.4014L79.9982 14.0912Z" fill="#B55B52"/>
<path d="M76.4065 14.0918C75.8746 15.9882 79.6644 21.1946 79.6644 21.1946L83.5206 18.6431C83.5206 18.6431 82.3904 15.9882 80.8612 13.9539C79.2655 11.8851 77.0049 12.023 76.4065 14.0918Z" fill="#EBEBEB"/>
<g opacity="0.2">
<path opacity="0.2" d="M76.4065 14.0918C75.8746 15.9882 79.6644 21.1946 79.6644 21.1946L83.5206 18.6431C83.5206 18.6431 82.3904 15.9882 80.8612 13.9539C79.2655 11.8851 77.0049 12.023 76.4065 14.0918Z" fill="black"/>
</g>
<path opacity="0.2" d="M78.735 16.331C79.5329 16.6758 80.6964 18.6411 81.2948 20.1237L79.6658 21.227C79.6658 21.227 78.2031 19.2272 77.2058 17.2619C77.7377 16.6413 78.3361 16.1586 78.735 16.331Z" fill="black"/>
<path d="M85.9825 20.0911L87.3788 17.7465L88.5755 19.7463C88.5755 19.7463 88.1434 20.6428 87.2458 20.8841L85.9825 20.0911Z" fill="#B55B52"/>
<path d="M89.3389 17.7758V18.4998C89.3389 18.7412 89.2724 18.9481 89.1394 19.1205L88.6407 19.7756L87.444 17.7758L88.7072 17.293C88.9732 17.1551 89.3389 17.431 89.3389 17.7758Z" fill="#B55B52"/>
<path d="M87.9761 20.7815L85.782 20.747L86.9788 16.0233L89.1728 16.0578L87.9761 20.7815Z" fill="#687F8A"/>
<path d="M88.1767 20.7815L86.0159 20.747L87.2126 16.0233L89.4067 16.0578L88.1767 20.7815Z" fill="#263238"/>
<path opacity="0.2" d="M77.5046 72.5664L77.2055 75.0489L75.1776 75.0834L75.4768 72.6009L77.5046 72.5664Z" fill="black"/>
<path opacity="0.2" d="M83.2893 72.7067L85.2174 72.0861L85.8491 74.4307L83.9209 75.0513L83.2893 72.7067Z" fill="black"/>
<path d="M67.9305 15.1256C69.5594 22.4352 69.227 29.7104 69.3932 31.262C70.9557 31.1585 76.873 30.6758 80.0977 30.4345C81.1282 18.5391 78.7014 12.5052 78.7014 12.5052C78.7014 12.5052 78.0033 12.3672 77.0725 12.2638C76.7733 12.2293 76.4741 12.1948 76.1417 12.1948C75.9755 12.1948 75.776 12.1604 75.5765 12.1604C74.3798 12.1259 72.3852 12.3328 71.0222 12.5052C70.723 12.5396 70.457 12.5741 70.1578 12.6431C69.8919 12.6775 69.6259 12.7465 69.3932 12.781H69.36C68.3294 13.0223 67.6978 14.0567 67.9305 15.1256Z" fill="white"/>
<g opacity="0.2">
<path opacity="0.2" d="M67.9305 15.1256C69.5594 22.4352 69.227 29.7104 69.3932 31.262C70.9557 31.1585 76.873 30.6758 80.0977 30.4345C81.1282 18.5391 78.7014 12.5052 78.7014 12.5052C78.7014 12.5052 78.0033 12.3672 77.0725 12.2638C76.7733 12.2293 76.4741 12.1948 76.1417 12.1948C75.9755 12.1948 75.776 12.1604 75.5765 12.1604C74.3798 12.1259 72.3852 12.3328 71.0222 12.5052C70.723 12.5396 70.457 12.5741 70.1578 12.6431C69.8919 12.6775 69.6259 12.7465 69.3932 12.781H69.36C68.3294 13.0223 67.6978 14.0567 67.9305 15.1256Z" fill="black"/>
</g>
<path opacity="0.2" d="M69.7602 16.6395L68.5302 18.2945C68.5302 18.329 68.5302 18.329 68.5302 18.3634C68.6964 19.4668 68.8293 20.5701 68.9291 21.6045C70.0926 20.0874 69.9264 17.3635 69.7602 16.6395Z" fill="black"/>
<path d="M71.554 9.26542C71.8199 10.3688 71.7867 11.61 71.0221 12.5065C71.8864 13.265 72.9835 14.127 74.7121 14.0581C76.4408 13.9891 76.0751 12.7823 75.5432 12.1617C74.0473 11.9203 74.0473 10.9204 74.0473 9.81709C74.0473 9.57573 73.9143 9.36886 73.6816 9.2999L72.0526 8.74823C71.7535 8.67927 71.4875 8.9551 71.554 9.26542Z" fill="#B55B52"/>
<path opacity="0.2" d="M74.0469 9.87842L72.418 10.0853C72.4512 10.1543 72.4845 10.2232 72.5509 10.2922C72.8501 10.8094 73.5482 11.1542 74.2464 11.2576C74.0801 10.8783 74.0801 10.3956 74.0469 9.87842Z" fill="black"/>
<path d="M76.2087 5.43798C77.1396 5.61038 78.835 4.50704 78.4361 3.09338C77.9374 3.74849 76.2087 3.54162 76.2087 3.54162V5.43798Z" fill="#263238"/>
<path d="M72.6181 6.98228C72.7179 7.94771 71.5876 9.6372 70.2246 9.15449C70.8895 8.67178 70.7897 6.87885 70.7897 6.87885L72.6181 6.98228Z" fill="#263238"/>
<path d="M71.2881 5.09031C71.0554 7.1246 70.7895 8.33138 71.5873 9.57264C72.7841 11.4345 75.3771 10.9518 76.2082 9.02097C76.9728 7.297 77.2387 4.22833 75.4768 3.05603C73.7149 1.88373 71.5208 3.05603 71.2881 5.09031Z" fill="#B55B52"/>
<path d="M71.0226 7.15985C71.5213 7.67704 72.8178 5.53932 72.5851 4.78077C73.0837 5.02213 74.0478 4.5739 73.9813 3.71191C75.4773 4.53942 77.6381 5.19453 77.6713 3.71191C77.7046 2.2293 76.3416 1.12595 75.0119 0.988036C75.1781 1.43627 74.7459 1.60867 73.8816 1.43627C73.0172 1.22939 69.6596 -0.356662 70.0253 2.84992C68.7953 2.91888 68.6291 4.53942 71.0226 7.15985Z" fill="#263238"/>
<path d="M70.0244 6.40371C70.0909 6.95539 70.3901 7.4381 70.7558 7.67945C71.2877 8.09321 71.6201 7.64497 71.6533 6.98986C71.6866 6.40371 71.6533 5.47277 71.0217 5.33485C70.4233 5.19693 69.9579 5.74861 70.0244 6.40371Z" fill="#B55B52"/>
<path d="M73.0491 30.9837L80.0967 30.432C80.0967 30.432 80.9943 45.3961 80.9278 51.7403C80.8613 58.3603 77.9359 74.5312 77.9359 74.5312L74.545 74.6001C74.545 74.6001 74.811 58.8775 74.811 52.3954C74.811 43.6721 73.0491 30.9837 73.0491 30.9837Z" fill="#263238"/>
<path opacity="0.2" d="M75.7755 46.535C75.8752 46.9833 78.4682 59.12 79.3326 66.1883C79.798 63.2576 80.2301 59.9475 80.5626 57.0168L75.7755 46.535Z" fill="black"/>
<path d="M76.274 30.7104C76.274 30.7104 81.6263 44.3298 82.823 50.2947C84.1528 56.8458 86.2471 73.3614 86.2471 73.3614L82.6236 73.9476C82.6236 73.9476 79.8643 61.604 78.3351 55.2942C76.5732 48.088 69.6586 36.7098 69.3594 31.2621C76.274 30.7104 76.274 30.7104 76.274 30.7104Z" fill="#263238"/>
<path d="M86.7475 73.6721L82.2264 74.7755L81.6613 72.9825L86.5813 72.0861L86.7475 73.6721Z" fill="#EF87A1"/>
<path d="M78.3692 74.6361L74.3135 74.705V73.3258L78.8346 73.1879L78.3692 74.6361Z" fill="#EF87A1"/>
<path d="M74.0466 6.15743C74.0134 6.32982 74.0799 6.46774 74.1796 6.50222C74.2793 6.5367 74.3791 6.39878 74.4123 6.22639C74.4455 6.05399 74.3791 5.91607 74.2793 5.88159C74.1796 5.88159 74.0799 6.01951 74.0466 6.15743Z" fill="#263238"/>
<path d="M76.0088 6.60921C75.9755 6.78161 76.042 6.91952 76.1417 6.954C76.2415 6.98848 76.3412 6.85057 76.3744 6.67817C76.4077 6.50577 76.3412 6.36785 76.2415 6.33337C76.1417 6.33337 76.042 6.43681 76.0088 6.60921Z" fill="#263238"/>
<path d="M75.3439 6.5733C75.3439 6.5733 75.5433 7.60769 75.8425 8.12488C75.5101 8.33175 75.0447 8.12488 75.0447 8.12488L75.3439 6.5733Z" fill="#A02724"/>
<path d="M74.7453 8.64277C74.1469 8.50486 73.881 8.02214 73.881 8.02214C73.881 7.98767 73.881 7.95319 73.9142 7.95319C73.9475 7.95319 73.9807 7.95319 73.9807 7.98767C73.9807 7.98767 74.2799 8.53934 74.978 8.6083C75.0112 8.6083 75.0112 8.64278 75.0112 8.67725C75.0112 8.71173 74.978 8.71173 74.9448 8.71173C74.8783 8.64277 74.8118 8.64277 74.7453 8.64277Z" fill="#263238"/>
<path d="M73.8475 5.43387C73.8475 5.43387 73.8142 5.43387 73.8142 5.39939C73.781 5.36491 73.781 5.29595 73.8142 5.26147C74.2132 4.8822 74.6453 5.02012 74.6453 5.02012C74.7118 5.02012 74.7118 5.08908 74.7118 5.12356C74.7118 5.19251 74.6453 5.19251 74.6121 5.19251C74.6121 5.19251 74.2797 5.12356 73.9472 5.39939C73.914 5.43387 73.8807 5.43387 73.8475 5.43387Z" fill="#263238"/>
<path d="M77.0725 6.09325C77.0392 6.09325 77.006 6.05877 77.006 6.02429C76.9062 5.61054 76.5738 5.47262 76.5738 5.47262C76.5406 5.47262 76.5073 5.40366 76.5073 5.33471C76.5073 5.30023 76.5738 5.26575 76.6403 5.26575C76.6735 5.26575 77.0725 5.40366 77.2054 5.95534C77.2054 6.02429 77.2054 6.05877 77.1389 6.09325C77.1057 6.09325 77.0725 6.09325 77.0725 6.09325Z" fill="#263238"/>
<path d="M87.1456 76.0473C86.9793 76.1507 86.7799 76.1852 86.6469 76.2197C86.6136 76.2197 86.6136 76.2197 86.6136 76.1852C86.6136 76.1852 86.6136 76.1507 86.6136 76.1163C86.6469 76.0473 87.0458 75.3577 87.3118 75.3577C87.345 75.3577 87.4115 75.3577 87.4448 75.4267C87.5112 75.5301 87.5112 75.5991 87.478 75.7025C87.3783 75.8749 87.2785 75.9784 87.1456 76.0473ZM86.7134 76.1163C87.0458 76.0128 87.2785 75.8749 87.345 75.737C87.3783 75.668 87.3783 75.5991 87.3118 75.5646C87.2785 75.5301 87.2785 75.5301 87.2453 75.5301C87.1456 75.4956 86.8796 75.8404 86.7134 76.1163Z" fill="#E06FA0"/>
<path d="M86.6461 76.2228C86.6461 76.2228 86.6129 76.2228 86.6461 76.2228C86.6129 76.2228 86.5796 76.2228 86.5796 76.1883C86.5796 76.1538 86.3469 75.6022 86.4799 75.3263C86.5131 75.2574 86.5464 75.1884 86.6461 75.1884C86.7458 75.1539 86.8123 75.1884 86.8456 75.2229C86.9453 75.4298 86.7791 76.0159 86.6461 76.2228ZM86.6461 75.2918C86.6129 75.3263 86.5796 75.3263 86.5796 75.3953C86.5131 75.5677 86.6129 75.9125 86.6461 76.0849C86.7458 75.8435 86.8456 75.4298 86.7458 75.2918C86.7126 75.2918 86.7126 75.2574 86.6461 75.2918Z" fill="#E06FA0"/>
<path d="M77.1724 77.4284C77.1392 77.4284 77.1392 77.3939 77.1392 77.3939C77.1392 77.3595 77.1392 77.3595 77.1724 77.3595C77.2721 77.325 78.07 76.8768 78.3027 77.0147C78.3359 77.0492 78.3692 77.0836 78.3692 77.1526C78.3692 77.256 78.3359 77.325 78.2694 77.3939C78.07 77.5663 77.5048 77.4974 77.1724 77.4284ZM78.2362 77.0836C78.07 77.0147 77.6378 77.2215 77.3386 77.3595C77.7708 77.4284 78.1032 77.3939 78.2362 77.2905C78.2694 77.256 78.3027 77.1871 78.3027 77.1181C78.2694 77.1181 78.2694 77.0836 78.2362 77.0836Z" fill="#E06FA0"/>
<path d="M77.1724 77.4262C77.1724 77.4262 77.1392 77.4262 77.1724 77.4262C77.1392 77.4262 77.1392 77.3918 77.1392 77.3918C77.1392 77.3573 77.1724 76.8056 77.4384 76.5987C77.5048 76.5298 77.6046 76.4953 77.7043 76.4953C77.8373 76.4953 77.8705 76.5643 77.8705 76.6332C77.9038 76.8746 77.4384 77.3228 77.2057 77.4262C77.1724 77.4262 77.1724 77.4262 77.1724 77.4262ZM77.7376 76.5987H77.7043C77.6378 76.5987 77.5713 76.5987 77.5048 76.6677C77.3386 76.8056 77.2721 77.1504 77.2389 77.3228C77.4716 77.1504 77.804 76.8056 77.7708 76.6677C77.7708 76.6332 77.7708 76.5987 77.7376 76.5987Z" fill="#E06FA0"/>
<path d="M71.1223 15.7469C70.4575 16.9881 69.7926 18.2639 69.1942 19.5741C68.5958 20.8498 68.0307 22.16 67.6318 23.4703C67.5985 23.6427 67.532 23.7806 67.4988 23.953C67.4655 24.0219 67.4655 24.1254 67.4323 24.1599C67.4323 24.1943 67.399 24.2288 67.399 24.2978C67.3658 24.4702 67.3658 24.7115 67.4323 24.9529C67.532 25.4701 67.7647 26.0562 68.0639 26.6424C68.6955 27.8147 69.5599 28.9525 70.4575 30.0214L69.4934 31.2281C68.2301 30.3317 67.0999 29.3318 66.1025 27.9871C65.6371 27.332 65.1717 26.5734 64.8725 25.6425C64.7396 25.1598 64.6398 24.6426 64.6731 24.0909C64.6731 23.953 64.7063 23.8151 64.7063 23.6427C64.7396 23.5047 64.7396 23.4358 64.7728 23.3323C64.806 23.1255 64.8393 22.9186 64.9058 22.7117C65.2715 21.1257 65.8034 19.6775 66.4017 18.2639C67.0001 16.8502 67.665 15.5055 68.4628 14.1608L71.1223 15.7469Z" fill="#B55B52"/>
<path d="M69.0617 12.9514C67.2001 13.4686 65.4049 18.8818 65.4049 18.8818L69.8595 20.1576C69.8595 20.1576 70.8569 18.8818 71.7212 16.4683C72.652 13.8134 71.289 12.2963 69.0617 12.9514Z" fill="#E2E2E2"/>
<g opacity="0.2">
<path opacity="0.2" d="M69.0617 12.9514C67.2001 13.4686 65.4049 18.8818 65.4049 18.8818L69.8595 20.1576C69.8595 20.1576 70.8569 18.8818 71.7212 16.4683C72.652 13.8134 71.289 12.2963 69.0617 12.9514Z" fill="#E2E2E2"/>
</g>
<path d="M69.6586 29.6412L71.6864 30.1929L70.8886 32.1927C70.8886 32.1927 69.0602 31.779 69.0602 30.7446L69.6586 29.6412Z" fill="#B55B52"/>
<path d="M72.4839 31.5348L71.8522 33.1209L70.8882 32.1899L71.686 30.1901L72.4839 31.5348Z" fill="#B55B52"/>
<ellipse cx="77.789" cy="17.1685" rx="0.608051" ry="0.837044" fill="#EF87A1"/>
</g>
<defs>
<clipPath id="clip0_3314_6789">
<rect width="106.58" height="79.4391" fill="white" transform="translate(0.959961)"/>
</clipPath>
</defs>
</svg>
