<svg width="122" height="101" viewBox="0 0 122 101" fill="none" xmlns="http://www.w3.org/2000/svg">
<path d="M84.6732 52.5743C85.108 54.2449 84.5283 56.1355 83.2351 57.2799C82.3851 58.0316 81.2786 58.466 80.5038 59.293C79.5061 60.3594 79.219 61.9882 79.6566 63.3804C80.0913 64.7726 81.1894 65.9086 82.5077 66.5378C84.3026 67.3954 86.5155 67.3202 88.249 66.3429C90.4034 65.1262 91.6604 62.6871 91.9781 60.2341C92.2958 57.781 91.7969 55.2974 91.1476 52.9112" fill="#263238"/>
<path d="M111.844 95.8272C114.073 95.4625 116.164 96.1419 118.371 96.6319C118.965 96.7628 119.589 96.8769 120.18 96.7294C121.136 96.4871 121.816 95.5544 121.964 94.5798C122.092 93.7362 121.872 92.8508 121.401 92.138C121.2 91.8373 120.952 91.5588 120.637 91.3806C120.314 91.1969 119.94 91.1272 119.569 91.091C118.226 90.9602 116.86 91.2609 115.637 91.8317C114.413 92.4025 113.329 93.2406 112.376 94.1928C111.911 94.6606 112.05 95.2008 111.844 95.8272Z" fill="#263238"/>
<path d="M66.6299 59.8773C66.2732 57.764 66.3178 55.5838 66.7581 53.4844C66.9727 52.4625 67.2877 51.4463 67.859 50.5748C68.068 50.2573 68.3244 49.9483 68.6756 49.8091C69.1633 49.6141 69.7431 49.7951 70.1277 50.1515C70.6293 50.6165 70.8384 51.3377 70.8161 52.0198C70.7938 52.7048 70.5708 53.3647 70.32 54.0023C69.4616 56.2019 68.1015 58.0285 66.6299 59.8773Z" fill="#263238"/>
<path d="M109.835 67.9245C110.342 68.2837 121.554 92.3962 121.554 92.3962C120.654 92.0092 119.656 91.9117 118.697 92.115L118.09 92.2765C117.003 92.566 115.969 93.0366 115.035 93.6686L111.841 95.8293C111.585 95.6845 111.415 95.42 111.387 95.1249L111.379 95.033L102.691 80.1367L109.835 67.9245Z" fill="#FFE6EC"/>
<path d="M67.7816 29.5529L70.7693 46.518C71.7308 48.8011 82.9459 62.6338 82.9459 62.6338L79.2363 74.5342L64.5096 54.4172C63.1412 52.9554 62.397 51.0203 62.436 49.0211L63.0102 30.8949L67.7816 29.5529Z" fill="#FFBE9D"/>
<path d="M83.6814 59.9756L91.3708 60.5576L98.0764 61.5961C98.0764 61.5961 109.838 64.684 109.838 65.9704C109.838 66.3992 106.624 76.615 104.835 82.735C104.063 85.3773 103.754 87.254 103.754 87.254L109.838 100.753H80.9027V88.3761C80.9027 88.3761 78.9601 72.1349 79.2946 69.9186C79.629 67.7022 83.6814 59.9756 83.6814 59.9756Z" fill="#FFE6EC"/>
<path d="M64.1436 22.6986C64.1881 20.9696 64.3637 19.246 64.6703 17.5448C64.7149 17.3025 64.8124 17.0102 65.0549 16.9796C65.3559 16.9406 65.5092 17.3276 65.5482 17.6255C65.8158 19.672 65.7294 21.7631 65.2946 23.7818" fill="#EB996E"/>
<path d="M67.5635 58.6218C70.8634 55.6759 70.9749 50.5722 70.6934 46.5098C70.6739 46.2091 70.6516 45.8833 70.8216 45.6383C71.1365 45.19 71.903 45.3543 72.2095 45.811C72.5161 46.2648 72.4994 46.8551 72.4715 47.4036C72.6415 46.9386 73.3662 46.9414 73.7062 47.3006C74.0462 47.6598 74.1047 48.1916 74.1438 48.6844C74.18 49.1383 74.2162 49.5921 74.2524 50.046L83.89 59.2204C83.89 59.2204 84.1548 58.3962 84.8627 58.8668C85.5706 59.3374 86.0277 60.362 86.0277 60.362L79.2357 75.1748L66.6299 59.8525C66.6299 59.8525 67.0256 59.1007 67.5635 58.6218Z" fill="#FFE6EC"/>
<path d="M80.6427 68.8682C79.6672 70.1685 78.8534 71.6108 78.4298 73.1811C78.0061 74.7515 77.995 76.4556 78.5719 77.9758C79.3885 80.117 81.4119 81.7486 83.6778 82.0967" fill="#FFE6EC"/>
<path d="M111.845 95.8267L111.479 100.755H118.623L120.298 92.0539C118.121 91.9314 115.975 92.6052 114.258 93.9445L111.845 95.8267Z" fill="#FFBE9D"/>
<path d="M70.9198 57.53C70.9114 57.5244 70.9671 57.3852 71.0758 57.1402C71.1873 56.8951 71.3378 56.5332 71.5078 56.0821C71.6806 55.631 71.859 55.0853 72.029 54.4728C72.1907 53.8574 72.3412 53.1725 72.4499 52.4457C72.553 51.719 72.6059 51.0174 72.6254 50.3825C72.6394 49.7449 72.6227 49.1713 72.5864 48.6896C72.553 48.2079 72.5112 47.8209 72.4749 47.5536C72.4415 47.2863 72.4276 47.136 72.4359 47.1332C72.4471 47.1304 72.4777 47.278 72.5307 47.5425C72.5836 47.807 72.6422 48.1968 72.6895 48.6813C72.7397 49.163 72.7648 49.7421 72.7592 50.3853C72.7453 51.0285 72.6979 51.7329 72.5948 52.468C72.4861 53.2003 72.33 53.8908 72.16 54.509C71.9816 55.1271 71.7921 55.6728 71.6054 56.1211C71.4214 56.5694 71.257 56.9258 71.1288 57.1652C71.0034 57.4047 70.9281 57.5355 70.9198 57.53Z" fill="#263238"/>
<path d="M73.0204 54.9462C73.0009 54.935 73.1347 54.6733 73.3187 54.239C73.5026 53.8046 73.7256 53.192 73.8872 52.4932C74.0489 51.7943 74.1185 51.1455 74.1408 50.675C74.1659 50.2044 74.1604 49.9121 74.1827 49.9093C74.1994 49.9093 74.2412 50.2016 74.244 50.6778C74.244 51.1539 74.191 51.8166 74.0266 52.5266C73.8621 53.2366 73.6197 53.8547 73.4079 54.2835C73.2016 54.7095 73.0344 54.9545 73.0204 54.9462Z" fill="#263238"/>
<path d="M84.3422 62.6452C84.3199 62.634 84.4369 62.4503 84.5038 62.1245C84.5763 61.7987 84.5707 61.3282 84.4314 60.8353C84.292 60.3425 84.083 59.9165 83.9464 59.6046C83.8071 59.2928 83.7346 59.0895 83.7541 59.084C83.7736 59.0756 83.8767 59.2594 84.0384 59.5601C84.1973 59.8636 84.423 60.284 84.5707 60.7964C84.7156 61.3115 84.7045 61.8126 84.6042 62.1496C84.5038 62.4892 84.3505 62.6563 84.3422 62.6452Z" fill="#263238"/>
<path d="M82.6644 82.2585C82.6616 82.2613 82.6198 82.239 82.5445 82.1917C82.4553 82.1332 82.3466 82.0608 82.2156 81.9745C81.9314 81.7824 81.5217 81.4984 81.0367 81.1197C80.5546 80.7383 79.9944 80.2566 79.4732 79.6245C78.9548 78.9953 78.4893 78.1934 78.2636 77.2718C78.0295 76.3529 78.0128 75.4369 78.1047 74.6266C78.1967 73.8136 78.389 73.1008 78.5813 72.5161C78.7764 71.9314 78.9715 71.4747 79.1136 71.1601C79.1861 71.0042 79.2419 70.8844 79.2837 70.8037C79.3255 70.7229 79.3478 70.6812 79.3533 70.684C79.3645 70.6895 79.292 70.8649 79.1666 71.1824C79.0412 71.5026 78.8628 71.9648 78.6817 72.5467C78.5033 73.1314 78.3221 73.8386 78.2413 74.6405C78.1577 75.4397 78.18 76.3362 78.4085 77.2356C78.6287 78.1377 79.0774 78.9173 79.5819 79.541C80.0891 80.1675 80.6354 80.652 81.1064 81.039C81.5802 81.426 81.9787 81.7212 82.2519 81.93C82.3773 82.0246 82.4804 82.1054 82.5668 82.1694C82.6309 82.2251 82.6672 82.2557 82.6644 82.2585Z" fill="#263238"/>
<path d="M98.452 85.0146C98.452 85.0201 98.4102 85.0341 98.3294 85.0591C98.2458 85.0814 98.126 85.1232 97.9671 85.1538C97.6494 85.2262 97.1839 85.3014 96.6014 85.3181C95.4476 85.3598 93.7837 85.0953 92.2648 84.1347C90.7459 83.1741 89.7927 81.7875 89.3356 80.7267C89.1015 80.1948 88.9677 79.741 88.8981 79.4236C88.859 79.2677 88.8423 79.1396 88.8284 79.056C88.8144 78.9725 88.8117 78.928 88.8144 78.9252C88.8256 78.9224 88.8646 79.0978 88.951 79.4069C89.0374 79.7159 89.1851 80.1614 89.4276 80.6821C89.9014 81.7179 90.8518 83.0683 92.3401 84.0122C93.8283 84.9505 95.456 85.229 96.5987 85.215C97.1728 85.2123 97.6382 85.1538 97.956 85.0981C98.2737 85.0424 98.4493 85.0006 98.452 85.0146Z" fill="#263238"/>
<path d="M102.887 90.4242C102.848 90.413 103.215 88.876 103.709 86.9882C104.202 85.1004 104.634 83.5774 104.673 83.5885C104.712 83.5997 104.344 85.1366 103.851 87.0272C103.358 88.9122 102.926 90.4353 102.887 90.4242Z" fill="#263238"/>
<path d="M106.788 87.1563C106.755 87.1758 105.634 85.3465 104.285 83.0689C102.936 80.7913 101.875 78.9285 101.908 78.909C101.941 78.8895 103.062 80.7189 104.411 82.9965C105.757 85.2741 106.822 87.1368 106.788 87.1563Z" fill="#263238"/>
<path d="M117.474 91.6665C117.477 91.6943 117.067 91.7278 116.432 91.8893C116.114 91.9672 115.744 92.0897 115.342 92.2512C114.944 92.4183 114.517 92.6327 114.094 92.8944C113.673 93.1645 113.299 93.4568 112.976 93.7436C112.658 94.036 112.388 94.32 112.182 94.5734C111.764 95.0773 111.557 95.431 111.535 95.417C111.527 95.4115 111.571 95.3196 111.663 95.1581C111.753 94.9938 111.9 94.7711 112.101 94.5066C112.302 94.242 112.566 93.9469 112.884 93.6434C113.207 93.3455 113.586 93.042 114.016 92.7691C114.448 92.499 114.882 92.2874 115.292 92.1231C115.702 91.9644 116.084 91.8531 116.41 91.7862C116.736 91.7166 117.001 91.6804 117.187 91.6693C117.371 91.6582 117.474 91.6554 117.474 91.6665Z" fill="#263238"/>
<path d="M118.84 89.9875C118.837 90.0181 118.391 89.9624 117.678 90.0237C117.321 90.0515 116.9 90.1239 116.44 90.2408C115.986 90.3661 115.493 90.5415 115.005 90.7838C114.517 91.0316 114.082 91.3184 113.709 91.608C113.341 91.9059 113.032 92.1983 112.795 92.4683C112.318 93.0029 112.095 93.3927 112.07 93.376C112.062 93.3705 112.115 93.273 112.218 93.0976C112.268 93.0085 112.332 92.9027 112.421 92.7885C112.508 92.6716 112.597 92.5352 112.72 92.3987C112.948 92.1175 113.257 91.8084 113.628 91.5022C114.004 91.2014 114.445 90.9035 114.941 90.6529C115.44 90.4079 115.941 90.2325 116.41 90.11C116.878 89.9986 117.31 89.9346 117.672 89.9206C117.853 89.9039 118.018 89.9123 118.163 89.9151C118.308 89.9151 118.43 89.9262 118.531 89.9373C118.731 89.9624 118.84 89.9791 118.84 89.9875Z" fill="#263238"/>
<g opacity="0.3">
<g opacity="0.3">
<g opacity="0.3">
<path opacity="0.3" d="M89.116 79.5185C88.4583 80.7603 89.0073 82.275 89.6065 83.5474C90.072 84.5331 90.5904 85.5355 91.4348 86.2204C92.2654 86.8942 93.3858 87.2061 94.4448 87.0557C95.5067 86.9054 96.4933 86.2984 97.1065 85.4213C93.5641 85.4352 90.1444 83.0184 88.9794 79.6772" fill="black"/>
</g>
</g>
</g>
<g opacity="0.3">
<g opacity="0.3">
<g opacity="0.3">
<path opacity="0.3" d="M101.909 78.909C101.41 80.1035 101.786 81.7407 102.31 82.924C102.837 84.1074 103.392 85.4299 102.968 86.6579C102.89 86.8862 102.776 87.1173 102.804 87.3595C102.834 87.599 103.093 87.8301 103.308 87.7187C103.433 87.6547 103.489 87.5071 103.531 87.3734C103.927 86.1817 104.325 84.99 104.721 83.8011" fill="#FFB3C7"/>
</g>
</g>
</g>
<path d="M75.5461 63.1797C75.507 63.1742 75.6352 62.1802 75.8303 60.9634C76.0282 59.7466 76.2205 58.7638 76.2595 58.7693C76.2985 58.7749 76.1703 59.7689 75.9753 60.9857C75.7774 62.2052 75.5851 63.1881 75.5461 63.1797Z" fill="#FAFAFA"/>
<path d="M72.6078 62.5648C72.5715 62.5899 72.0922 61.9188 71.4316 61.1504C70.7711 60.3791 70.183 59.8055 70.2109 59.7749C70.236 59.747 70.8742 60.2789 71.5403 61.0585C72.2092 61.8325 72.6384 62.5453 72.6078 62.5648Z" fill="#FAFAFA"/>
<path d="M75.1277 55.3941C75.1444 55.4052 75.0245 55.5974 74.8127 55.8953C74.6009 56.1932 74.2943 56.5914 73.932 57.0146C73.5725 57.4378 73.2269 57.8054 72.9677 58.0643C72.7085 58.3205 72.5385 58.468 72.5245 58.4541C72.4939 58.4235 73.1042 57.7664 73.8205 56.9199C74.5396 56.0763 75.0942 55.3691 75.1277 55.3941Z" fill="#FAFAFA"/>
<path d="M74.1441 51.8895C74.1051 51.9062 73.9462 51.5498 73.6368 51.199C73.333 50.8426 73.0042 50.6365 73.0265 50.5976C73.0404 50.5641 73.4222 50.7256 73.7483 51.1043C74.0744 51.4802 74.1803 51.8811 74.1441 51.8895Z" fill="#FAFAFA"/>
<path d="M71.6025 54.0471C71.6081 54.0861 71.2848 54.1696 70.8779 54.2364C70.4709 54.3004 70.1365 54.3199 70.1309 54.281C70.1254 54.242 70.4486 54.1585 70.8556 54.0916C71.2625 54.0276 71.5969 54.0081 71.6025 54.0471Z" fill="#FAFAFA"/>
<path d="M78.0157 57.1434C77.9711 57.1378 78.0798 56.5503 77.9237 55.8486C77.776 55.1442 77.4332 54.6541 77.4695 54.6319C77.4918 54.604 77.907 55.0801 78.0631 55.818C78.2275 56.5531 78.0492 57.1573 78.0157 57.1434Z" fill="#FAFAFA"/>
<path d="M81.44 60.8208C81.401 60.8431 81.1084 60.2528 80.5426 59.6904C79.9824 59.1224 79.3943 58.8244 79.4166 58.7855C79.4278 58.7521 80.0632 58.9971 80.6457 59.5874C81.2338 60.1721 81.4735 60.8125 81.44 60.8208Z" fill="#FAFAFA"/>
<path d="M75.9418 67.2108C75.9558 67.2442 75.3872 67.4502 74.6542 67.4224C73.9212 67.4001 73.3694 67.1551 73.3861 67.1245C73.4 67.0827 73.9547 67.2581 74.6598 67.2776C75.3677 67.3055 75.9307 67.1662 75.9418 67.2108Z" fill="#FAFAFA"/>
<path d="M78.5222 68.531C78.4832 68.5171 78.7005 67.8739 78.8817 67.0608C79.0656 66.2478 79.1437 65.5768 79.1855 65.5796C79.2217 65.5824 79.2078 66.2701 79.021 67.0943C78.8399 67.9184 78.5584 68.5449 78.5222 68.531Z" fill="#FAFAFA"/>
<path d="M84.1606 68.7478C84.1299 68.7757 83.5864 68.2244 82.9426 67.5199C82.2988 66.8155 81.8027 66.2224 81.8334 66.1946C81.864 66.1667 82.4075 66.718 83.0513 67.4225C83.6923 68.1269 84.1884 68.72 84.1606 68.7478Z" fill="#FAFAFA"/>
<path d="M86.7888 75.2558C86.7609 75.2837 86.354 74.9106 85.8802 74.4205C85.4064 73.9305 85.0469 73.5128 85.0748 73.485C85.1026 73.4571 85.5095 73.8302 85.9833 74.3203C86.4571 74.8076 86.8167 75.228 86.7888 75.2558Z" fill="#FAFAFA"/>
<path d="M81.9059 75.8737C81.9309 75.9016 81.4655 76.3332 80.7938 76.7202C80.1222 77.1128 79.5174 77.3021 79.5062 77.2659C79.4895 77.2269 80.0608 76.9791 80.7214 76.5949C81.3819 76.2134 81.8808 75.8403 81.9059 75.8737Z" fill="#FAFAFA"/>
<path d="M84.1521 82.0664C84.1103 82.0553 84.2775 81.3258 84.3611 80.407C84.4475 79.4909 84.4197 78.7419 84.4643 78.7391C84.5005 78.7336 84.5953 79.4909 84.5061 80.4209C84.4197 81.3509 84.1883 82.0776 84.1521 82.0664Z" fill="#FAFAFA"/>
<path d="M92.5996 77.0321C92.5773 77.0627 91.9809 76.6451 91.3928 75.9713C90.802 75.3002 90.4703 74.6543 90.501 74.6376C90.5372 74.6153 90.9218 75.2195 91.5015 75.8766C92.0784 76.5393 92.6275 76.9987 92.5996 77.0321Z" fill="#FAFAFA"/>
<path d="M95.6845 79.6601C95.651 79.635 96.0747 79.0559 96.5457 78.3124C97.0223 77.569 97.3678 76.9453 97.4069 76.962C97.4403 76.9787 97.1505 77.6386 96.6683 78.3904C96.1917 79.1394 95.7151 79.6823 95.6845 79.6601Z" fill="#FAFAFA"/>
<path d="M95.234 73.2308C95.2228 73.2698 94.5901 73.1333 93.8181 72.9273C93.0461 72.7213 92.4302 72.5208 92.4386 72.4818C92.4497 72.4428 93.0824 72.5792 93.8544 72.7853C94.6264 72.9941 95.2451 73.1918 95.234 73.2308Z" fill="#FAFAFA"/>
<path d="M92.9847 84.5436C92.9456 84.5408 92.9456 83.9506 92.9902 83.2238C93.032 82.4971 93.0989 81.9096 93.1407 81.9124C93.1797 81.9152 93.1797 82.5055 93.1352 83.2322C93.0906 83.9561 93.0237 84.5436 92.9847 84.5436Z" fill="#FAFAFA"/>
<path d="M94.9298 88.4182C94.888 88.3987 95.1807 87.8224 95.281 87.0455C95.3897 86.2715 95.2587 85.6366 95.3033 85.6283C95.3368 85.6144 95.5346 86.2575 95.4232 87.065C95.32 87.8725 94.9577 88.4405 94.9298 88.4182Z" fill="#FAFAFA"/>
<path d="M89.8882 87.5598C89.852 87.5654 89.7656 86.9111 89.9189 86.1203C90.0694 85.3295 90.3927 84.7532 90.4233 84.7727C90.4623 84.7894 90.206 85.3797 90.061 86.1481C89.9105 86.9166 89.9328 87.5598 89.8882 87.5598Z" fill="#FAFAFA"/>
<path d="M85.2894 89.5224C85.2615 89.553 84.6958 89.0713 83.9795 88.5061C83.2632 87.9381 82.6668 87.501 82.6891 87.4676C82.7114 87.4341 83.3496 87.8212 84.0687 88.392C84.7933 88.9627 85.3173 89.4946 85.2894 89.5224Z" fill="#FAFAFA"/>
<path d="M88.4048 84.0623C88.4243 84.0985 87.6913 84.5217 86.7716 85.0118C85.8491 85.5018 85.0882 85.8666 85.0687 85.8332C85.0492 85.797 85.7822 85.3737 86.7019 84.8837C87.6217 84.3936 88.3853 84.0261 88.4048 84.0623Z" fill="#FAFAFA"/>
<path d="M98.0762 96.3196C98.0762 96.3251 98.0149 96.339 97.8951 96.3669C97.7752 96.3892 97.5996 96.4337 97.3711 96.4643C96.914 96.5395 96.2423 96.6036 95.4118 96.5896C94.5813 96.5785 93.5919 96.4643 92.5272 96.1831C91.4653 95.9047 90.3338 95.4425 89.2524 94.7742C88.1766 94.0976 87.2653 93.2846 86.5462 92.4521C85.8272 91.6196 85.2893 90.7815 84.9158 90.0408C84.5395 89.3002 84.3027 88.6709 84.1689 88.2282C84.0936 88.0083 84.0574 87.8328 84.0267 87.7159C83.9961 87.599 83.9849 87.5349 83.9877 87.5349C83.9933 87.5349 84.0156 87.5934 84.0546 87.7103C84.0964 87.8245 84.141 87.9971 84.2218 88.2143C84.3723 88.6514 84.6204 89.2696 85.005 89.9991C85.3896 90.7258 85.9303 91.55 86.6466 92.3686C87.3628 93.1872 88.2658 93.9863 89.3277 94.6545C90.3951 95.3144 91.5099 95.7738 92.5607 96.0578C93.6114 96.3418 94.5896 96.4671 95.4118 96.4922C96.234 96.52 96.9029 96.4699 97.3599 96.4142C97.5913 96.3947 97.7668 96.3585 97.8867 96.3446C98.0121 96.3223 98.0762 96.314 98.0762 96.3196Z" fill="#263238"/>
<path d="M89.7517 94.8805C89.7183 94.8917 89.6124 94.2708 89.8827 93.5635C90.1447 92.8563 90.6325 92.4554 90.6492 92.486C90.6826 92.5166 90.2646 92.9426 90.0165 93.6136C89.7601 94.2847 89.7963 94.8805 89.7517 94.8805Z" fill="#FAFAFA"/>
<path d="M87.4549 93.9221C87.4744 93.9611 87.0564 94.1644 86.7303 94.6099C86.3959 95.0498 86.3178 95.5092 86.2732 95.5009C86.237 95.5065 86.2509 94.9997 86.6132 94.5236C86.97 94.0419 87.4493 93.8859 87.4549 93.9221Z" fill="#FAFAFA"/>
<path d="M96.2761 99.1649C96.2761 99.2011 95.6406 99.151 94.994 98.7417C94.3418 98.338 94.0158 97.7922 94.0492 97.7755C94.0854 97.7477 94.4478 98.235 95.0721 98.6164C95.688 99.0118 96.2872 99.1232 96.2761 99.1649Z" fill="#FAFAFA"/>
<path d="M97.6467 91.4522C97.683 91.4522 97.6021 92.0313 97.1479 92.5631C96.6991 93.0977 96.1362 93.2703 96.1334 93.2341C96.1139 93.1952 96.6155 92.9724 97.0392 92.4684C97.4684 91.9728 97.6049 91.4382 97.6467 91.4522Z" fill="#FAFAFA"/>
<path d="M101.546 97.2051C101.513 97.1772 101.881 96.7122 102.221 96.0718C102.563 95.4314 102.742 94.8662 102.784 94.8801C102.82 94.8885 102.7 95.4843 102.349 96.1414C102 96.7958 101.574 97.2301 101.546 97.2051Z" fill="#FAFAFA"/>
<path d="M106.699 97.965C106.716 98.0068 106.209 98.2073 105.699 98.6277C105.183 99.0426 104.885 99.4992 104.849 99.4742C104.815 99.4602 105.072 98.9507 105.607 98.5163C106.139 98.0764 106.691 97.9288 106.699 97.965Z" fill="#FAFAFA"/>
<path d="M102.77 91.3691C102.728 91.383 102.483 90.5672 101.97 89.665C101.463 88.7601 100.892 88.1309 100.925 88.1002C100.939 88.0891 101.098 88.2283 101.324 88.49C101.55 88.749 101.834 89.136 102.096 89.5954C102.355 90.0548 102.536 90.4976 102.642 90.8261C102.751 91.1547 102.787 91.3635 102.77 91.3691Z" fill="#FAFAFA"/>
<path d="M103.542 83.077C103.55 83.116 102.959 83.2858 102.221 83.4557C101.482 83.6255 100.875 83.7313 100.866 83.6923C100.858 83.6533 101.449 83.4835 102.187 83.3137C102.926 83.1438 103.531 83.038 103.542 83.077Z" fill="#FAFAFA"/>
<path d="M101.17 80.5993C101.139 80.6243 100.757 80.1844 100.317 79.6219C99.8764 79.0567 99.5475 78.5778 99.5782 78.5555C99.6088 78.5305 99.9906 78.9676 100.431 79.5329C100.869 80.0981 101.2 80.5742 101.17 80.5993Z" fill="#FAFAFA"/>
<path d="M107.043 79.1117C107.04 79.1507 106.432 79.1117 105.708 78.9391C104.98 78.7693 104.423 78.5298 104.437 78.4936C104.451 78.4546 105.025 78.6273 105.741 78.7971C106.457 78.9697 107.048 79.07 107.043 79.1117Z" fill="#FAFAFA"/>
<path d="M111.22 79.0388C111.183 79.0193 111.412 78.5154 111.646 77.8778C111.88 77.2401 112.031 76.7083 112.072 76.7167C112.109 76.725 112.022 77.2791 111.783 77.9279C111.546 78.5766 111.253 79.0583 111.22 79.0388Z" fill="#FAFAFA"/>
<path d="M110.281 84.6967C110.273 84.7329 109.693 84.5881 109.066 84.2122C108.436 83.8419 108.032 83.402 108.06 83.3769C108.088 83.3463 108.528 83.7277 109.141 84.0869C109.749 84.4517 110.295 84.6549 110.281 84.6967Z" fill="#FAFAFA"/>
<path d="M112.998 84.5252C112.959 84.5168 113.095 83.7762 113.304 82.8713C113.513 81.9663 113.714 81.2396 113.753 81.2508C113.792 81.2591 113.656 81.9997 113.447 82.9047C113.238 83.8068 113.037 84.5335 112.998 84.5252Z" fill="#FAFAFA"/>
<path d="M110.729 90.8479C110.696 90.8701 110.255 90.3216 109.742 89.6228C109.23 88.9211 108.842 88.3364 108.873 88.3113C108.906 88.2891 109.347 88.8348 109.859 89.5364C110.372 90.2381 110.76 90.8256 110.729 90.8479Z" fill="#FAFAFA"/>
<path d="M114.601 88.4314C114.562 88.4481 114.309 87.9469 113.907 87.3844C113.509 86.8192 113.118 86.4127 113.149 86.3821C113.174 86.3542 113.617 86.7218 114.027 87.3009C114.434 87.8773 114.635 88.4174 114.601 88.4314Z" fill="#FAFAFA"/>
<path d="M118.227 87.8854C118.19 87.9077 117.825 87.362 117.335 86.7216C116.844 86.0784 116.412 85.5855 116.443 85.5549C116.471 85.5271 116.953 85.9837 117.449 86.6325C117.948 87.2812 118.26 87.8687 118.227 87.8854Z" fill="#FAFAFA"/>
<path d="M117.374 90.2883C117.33 90.2911 117.36 89.8066 117.042 89.3388C116.736 88.8627 116.282 88.6984 116.298 88.6594C116.304 88.6427 116.427 88.6567 116.602 88.7458C116.778 88.8321 116.998 89.0047 117.165 89.2581C117.332 89.5115 117.405 89.7815 117.416 89.9765C117.427 90.1741 117.391 90.2911 117.374 90.2883Z" fill="#FAFAFA"/>
<path d="M114.545 93.583C114.522 93.5774 114.531 93.5078 114.508 93.4104C114.489 93.3129 114.43 93.182 114.316 93.0901C114.202 93.001 114.06 92.9788 113.959 92.9816C113.859 92.9843 113.792 93.0066 113.784 92.9871C113.773 92.9732 113.825 92.9119 113.945 92.8785C114.06 92.8451 114.249 92.8535 114.408 92.9732C114.564 93.0957 114.617 93.2767 114.611 93.3964C114.606 93.5245 114.561 93.5886 114.545 93.583Z" fill="#FAFAFA"/>
<path d="M85.5483 98.8472C85.5399 98.8807 84.8153 98.6078 84.1575 97.9423C83.4914 97.2824 83.2183 96.5585 83.2517 96.5529C83.2908 96.5307 83.6168 97.2045 84.2606 97.8421C84.8961 98.4853 85.5706 98.8083 85.5483 98.8472Z" fill="#FAFAFA"/>
<path d="M67.8095 29.7402C67.3635 25.5052 66.5525 21.5236 66.3323 17.3693C66.3212 17.1605 66.2989 16.9266 66.1344 16.7958C65.9115 16.6176 65.5575 16.7596 65.4126 17.0046C65.2677 17.2496 65.2705 17.5503 65.2705 17.8343C65.2788 20.0368 64.9026 22.2392 64.1668 24.3163C63.6874 25.6639 63.0576 26.9615 62.6952 28.3453C62.3329 29.7291 63.0102 30.1997 63.6317 31.486" fill="#FFBE9D"/>
<path d="M53.5754 12.9692C53.5503 12.9999 51.9812 11.7246 50.0749 10.1236C48.1657 8.51983 46.6412 7.19726 46.6663 7.16663C46.6914 7.13601 48.2605 8.40846 50.1668 10.0122C52.076 11.616 53.6033 12.9386 53.5754 12.9692Z" fill="#263238"/>
<path d="M61.5243 11.0622C61.4853 11.065 61.3265 8.58973 61.1732 5.53529C61.0199 2.48085 60.9251 0.00277145 60.9669 -1.29121e-05C61.0059 -0.00279727 61.1648 2.4725 61.3181 5.52694C61.4714 8.58138 61.5634 11.0595 61.5243 11.0622Z" fill="#263238"/>
<path d="M56.4632 9.29464C56.4242 9.30578 55.9365 7.89411 55.3707 6.13997C54.8049 4.38582 54.3785 2.95466 54.4175 2.94074C54.4565 2.9296 54.9443 4.34127 55.51 6.09542C56.073 7.84956 56.5022 9.28072 56.4632 9.29464Z" fill="#263238"/>
<path d="M51.9511 15.5782C51.9344 15.6144 50.9728 15.2079 49.7995 14.6733C48.6289 14.1359 47.6925 13.6737 47.7092 13.6375C47.7259 13.6013 48.6875 14.005 49.8608 14.5424C51.0342 15.0798 51.9678 15.542 51.9511 15.5782Z" fill="#263238"/>
<path d="M44.618 12.3815C44.6124 12.4205 44.3811 12.426 44.0996 12.3898C43.8181 12.3536 43.5951 12.2952 43.6007 12.2534C43.6063 12.2144 43.8376 12.2089 44.1191 12.2451C44.3978 12.2812 44.6235 12.3397 44.618 12.3815Z" fill="#263238"/>
<path d="M54.5979 1.14427C54.5588 1.14427 54.5254 0.915956 54.5254 0.634736C54.5254 0.353516 54.5588 0.125198 54.5979 0.125198C54.6369 0.125198 54.6703 0.353516 54.6703 0.634736C54.6703 0.915956 54.6369 1.14427 54.5979 1.14427Z" fill="#263238"/>
<path d="M71.3818 5.07535C71.4124 5.10319 70.1248 6.57612 68.5111 8.36646C66.8947 10.1568 65.5624 11.588 65.5318 11.5601C65.5011 11.5323 66.786 10.0594 68.4024 8.26901C70.0189 6.47867 71.3511 5.04751 71.3818 5.07535Z" fill="#263238"/>
<path d="M73.4281 3.05129C73.456 3.07913 73.3083 3.27403 73.0965 3.48286C72.8847 3.69447 72.6924 3.84204 72.6645 3.8142C72.6366 3.78636 72.7844 3.59145 72.9962 3.38262C73.2052 3.17101 73.4003 3.02344 73.4281 3.05129Z" fill="#263238"/>
<path d="M78.3944 10.1792C78.4 10.1875 78.2634 10.2683 78.0154 10.4047C77.7673 10.5411 77.405 10.7333 76.9507 10.9588C76.0449 11.4154 74.7796 12.0113 73.3498 12.6016C71.9201 13.1918 70.6046 13.668 69.6403 13.9854C69.1581 14.1441 68.7679 14.2666 68.4948 14.3446C68.2217 14.4225 68.0712 14.4615 68.0684 14.4532C68.0656 14.4448 68.2105 14.3863 68.4781 14.2917C68.7679 14.1887 69.1498 14.0522 69.6068 13.8879C70.56 13.5455 71.8671 13.0554 73.2941 12.4651C74.7183 11.8748 75.9892 11.2957 76.9061 10.8641C77.3465 10.6553 77.7088 10.4827 77.9875 10.3518C78.2467 10.2321 78.3916 10.1708 78.3944 10.1792Z" fill="#263238"/>
<path d="M74.3191 17.032C74.3246 17.0514 74.0431 17.1489 73.5805 17.277C73.1178 17.4051 72.4685 17.5554 71.7466 17.6779C71.022 17.8004 70.3615 17.8728 69.8821 17.9062C69.4027 17.9397 69.1045 17.9397 69.1045 17.9202C69.1017 17.8979 69.3972 17.8645 69.8737 17.8032C70.3475 17.7447 71.0053 17.6556 71.7243 17.5331C72.4434 17.4106 73.09 17.277 73.5582 17.174C74.0236 17.0765 74.3135 17.0125 74.3191 17.032Z" fill="#263238"/>
<path d="M78.0233 16.3472C78.0233 16.3862 77.6638 16.4196 77.2206 16.4196C76.7775 16.4196 76.418 16.3862 76.418 16.3472C76.418 16.3082 76.7775 16.2748 77.2206 16.2748C77.6638 16.2748 78.0233 16.3082 78.0233 16.3472Z" fill="#263238"/>
<path d="M63.6306 31.4864C62.5186 30.6594 61.9277 29.1865 62.1591 27.8221C62.2984 26.9868 62.7137 26.2267 63.0426 25.4471C63.3742 24.6675 63.625 23.8043 63.4244 22.9802C63.3463 22.6655 63.2042 22.362 63.2042 22.0363C63.2014 21.7133 63.4104 21.3513 63.7337 21.3346C63.979 21.3235 64.1852 21.51 64.3385 21.6993C64.8792 22.3704 65.3168 24.3333 65.0437 25.7951" fill="#FFBE9D"/>
<path d="M65.0443 25.7974C65.0303 25.7946 65.0721 25.5719 65.0889 25.1653C65.1028 24.7588 65.0861 24.1685 64.9467 23.4557C64.8771 23.0993 64.7739 22.7151 64.6123 22.3225C64.5315 22.1276 64.4367 21.9271 64.3001 21.7573C64.1664 21.5874 63.988 21.4176 63.7762 21.4037C63.5644 21.387 63.3804 21.5735 63.3107 21.7935C63.2327 22.0134 63.2829 22.264 63.3553 22.5091C63.4306 22.7541 63.5226 23.0186 63.5504 23.297C63.5783 23.5755 63.5672 23.8595 63.5198 24.1379C63.3247 25.2684 62.7227 26.1816 62.4161 27.0838C62.26 27.5348 62.1653 27.9803 62.1681 28.4035C62.1653 28.8268 62.235 29.2194 62.3409 29.5618C62.5555 30.2524 62.9094 30.7396 63.177 31.0375C63.4501 31.3383 63.6368 31.4691 63.6257 31.4803C63.6229 31.483 63.5755 31.4524 63.4891 31.3884C63.3999 31.3243 63.2773 31.2213 63.1352 31.0765C62.8481 30.7842 62.4746 30.2969 62.2405 29.5925C62.1263 29.2416 62.0482 28.8379 62.0454 28.4008C62.0371 27.9636 62.1318 27.4986 62.2879 27.0364C62.5945 26.112 63.1881 25.1987 63.3721 24.1101C63.4194 23.84 63.4278 23.5699 63.4027 23.3082C63.3776 23.0437 63.294 22.7986 63.216 22.5453C63.1407 22.2947 63.0822 22.0079 63.1742 21.7434C63.2188 21.6153 63.2885 21.4928 63.3944 21.4009C63.4975 21.3062 63.6396 21.2533 63.779 21.2645C64.0632 21.2895 64.2528 21.4928 64.3949 21.6738C64.5426 21.8631 64.6346 22.0719 64.7182 22.2724C64.8798 22.6761 64.9746 23.0715 65.0415 23.4307C65.1697 24.1546 65.1725 24.7533 65.139 25.1626C65.1195 25.3658 65.1 25.5245 65.0777 25.6303C65.0638 25.7445 65.0499 25.7974 65.0443 25.7974Z" fill="#EB996E"/>
<path d="M101.483 48.4118C101.63 49.2137 102.391 49.8318 103.205 49.8986C104.016 49.9655 104.83 49.5311 105.304 48.8684C105.778 48.2057 105.934 47.3482 105.825 46.5407C105.666 45.3685 104.886 44.2408 103.754 43.8928C102.623 43.5419 101.215 44.1656 100.903 45.3072L99.5986 47.1282L101.483 48.4118Z" fill="#263238"/>
<path d="M99.9412 44.8394C100.471 40.6155 97.4134 36.7564 93.1213 36.3471C89.0746 35.9628 85.4793 38.9727 84.8745 42.985C84.3422 46.5044 83.8851 50.0572 83.9018 51.3464C83.952 55.2361 86.229 56.7508 87.1543 57.2075C87.3661 57.3105 87.9458 57.4302 88.1799 57.4636C88.1939 57.4664 88.205 57.4803 88.2022 57.4943L87.3382 61.9604C86.9453 64.8867 88.5813 67.4957 91.5049 67.9217C94.4396 68.3477 96.7334 66.1007 97.1793 63.1716L99.9412 44.8394Z" fill="#FFBE9D"/>
<path d="M85.5428 45.2631C85.6069 45.355 86.1225 45.0794 86.7802 45.1768C87.4408 45.2659 87.8756 45.6752 87.9564 45.6028C87.9954 45.5722 87.9396 45.4163 87.7529 45.2325C87.569 45.0488 87.2345 44.8511 86.8248 44.7926C86.4151 44.7341 86.0473 44.8371 85.8243 44.9624C85.6013 45.0877 85.5094 45.2214 85.5428 45.2631Z" fill="#263238"/>
<path d="M91.4072 46.5319C91.4713 46.6238 91.9869 46.3481 92.6447 46.4456C93.3052 46.5347 93.74 46.944 93.8208 46.8716C93.8598 46.841 93.8041 46.685 93.6173 46.5013C93.4334 46.3175 93.099 46.1198 92.6893 46.0613C92.2796 46.0029 91.9117 46.1059 91.6887 46.2312C91.4658 46.3565 91.3766 46.4901 91.4072 46.5319Z" fill="#263238"/>
<path d="M89.1275 49.6459C89.1359 49.6097 88.7373 49.4788 88.0851 49.2978C87.9207 49.2561 87.7646 49.2004 87.7535 49.0807C87.7312 48.9526 87.8287 48.7827 87.9374 48.599C88.1548 48.2147 88.3834 47.8138 88.623 47.3906C89.5818 45.667 90.3008 44.2414 90.2312 44.2025C90.1615 44.1635 89.3282 45.5306 88.3722 47.2541C88.1409 47.6801 87.9179 48.0839 87.7061 48.4737C87.6141 48.6547 87.472 48.8551 87.5222 49.1196C87.55 49.2533 87.6587 49.3619 87.7618 49.4064C87.865 49.4538 87.9597 49.4705 88.0405 49.4872C88.7067 49.618 89.1191 49.6821 89.1275 49.6459Z" fill="#263238"/>
<path d="M88.202 57.4666C88.202 57.4666 90.7159 58.0458 94.1802 56.5979C94.1802 56.5979 92.6864 59.8139 87.9707 58.6695L88.202 57.4666Z" fill="#EB996E"/>
<path d="M89.1749 51.2704C89.4564 50.992 89.8968 50.8806 90.3037 50.9837C90.5852 51.0561 90.8555 51.237 90.9949 51.4932C91.1342 51.7521 91.1231 52.0863 90.9336 52.2867C90.719 52.5095 90.3399 52.515 90.0361 52.3786C89.7351 52.2422 89.4927 51.9972 89.2669 51.7521C89.2028 51.6853 89.1387 51.6157 89.1081 51.5294C89.0746 51.4459 89.0802 51.3401 89.1443 51.2844" fill="#EB996E"/>
<path d="M91.0007 50.3829C90.8948 50.3606 90.7889 51.0762 90.1033 51.4939C89.4177 51.9143 88.6652 51.7222 88.6457 51.8224C88.629 51.867 88.7962 51.9867 89.1167 52.0424C89.4316 52.0981 89.9082 52.0647 90.3263 51.8085C90.7443 51.5524 90.9673 51.1598 91.0342 50.8702C91.1038 50.575 91.0509 50.3857 91.0007 50.3829Z" fill="#263238"/>
<path d="M91.8612 44.3886C91.9002 44.578 92.5719 44.5891 93.33 44.7952C94.0936 44.9845 94.6845 45.3019 94.8099 45.1571C94.8656 45.0875 94.782 44.9038 94.5563 44.6921C94.3305 44.4833 93.9571 44.2606 93.5 44.1408C93.0429 44.0239 92.6081 44.035 92.3099 44.1074C92.0089 44.1798 91.8472 44.2995 91.8612 44.3886Z" fill="#263238"/>
<path d="M86.2094 43.2293C86.3042 43.3964 86.7808 43.3073 87.327 43.3797C87.8761 43.4326 88.322 43.6275 88.4502 43.4855C88.5087 43.4159 88.4558 43.2572 88.2746 43.0845C88.0963 42.9147 87.7813 42.7504 87.4023 42.7059C87.026 42.6641 86.6805 42.7504 86.4686 42.8757C86.254 43.0066 86.1676 43.1514 86.2094 43.2293Z" fill="#263238"/>
<path d="M84.1093 42.1135C84.9147 43.3414 87.4732 42.5841 89.0173 41.7404C90.6449 42.818 92.9052 42.3502 94.0312 40.7019C94.9147 41.8267 96.7095 41.4536 97.3645 40.1868C98.0194 38.9199 97.6515 37.1741 96.7513 36.0659C95.8511 34.9577 94.5356 34.3981 93.2369 34.1586C90.1572 33.5906 86.8044 34.7823 84.9621 37.5639C84.1149 38.8475 83.6048 40.5766 84.1093 42.1135Z" fill="#263238"/>
<path d="M92.6199 34.5985C92.6171 34.6515 91.8925 34.5122 90.7526 34.7044C89.6322 34.8909 88.0575 35.4756 86.8814 36.7843C85.7331 38.1124 85.212 39.6856 85.0224 40.8105C84.8301 41.952 84.9779 42.6704 84.9277 42.676C84.9138 42.6788 84.8664 42.5033 84.8218 42.1776C84.7828 41.8518 84.7716 41.3701 84.8441 40.7854C84.9946 39.6271 85.4962 38.0038 86.6919 36.6172C87.921 35.2473 89.5681 34.6737 90.7247 34.5289C91.31 34.451 91.7922 34.4677 92.1183 34.5067C92.4443 34.5373 92.6227 34.5846 92.6199 34.5985Z" fill="#455A64"/>
<path d="M88.4556 40.3177C88.4417 40.3204 88.4082 40.1645 88.3943 39.8805C88.3804 39.5965 88.4027 39.1789 88.5197 38.6805C88.7399 37.6948 89.4534 36.3305 90.833 35.5119C92.2181 34.7044 93.7594 34.7406 94.7292 35.0274C95.2225 35.1666 95.5988 35.3504 95.8413 35.5007C96.0837 35.6511 96.2036 35.7541 96.1952 35.768C96.1701 35.8153 95.6545 35.4311 94.6846 35.2028C93.7371 34.9689 92.2711 34.9689 90.9612 35.7346C89.6568 36.5087 88.9489 37.7895 88.6925 38.7306C88.4222 39.6828 88.5086 40.3177 88.4556 40.3177Z" fill="#455A64"/>
<path d="M95.8446 38.9844C95.5854 40.0815 95.3262 41.1896 95.3262 42.3145C95.3262 43.4422 95.6077 44.6033 96.3267 45.472C97.4025 46.7695 99.1974 47.1621 100.853 47.4767C101.739 45.2826 102.009 42.8408 101.625 40.5047C101.438 39.3631 101.07 38.2048 100.265 37.3723C99.1026 36.175 97.0792 35.9328 95.669 36.8238" fill="#263238"/>
<path d="M96.7638 44.3743C96.3262 45.3154 96.3597 46.4041 96.5102 47.4315C96.6607 48.4589 96.9227 49.4752 96.9115 50.5138C96.9004 51.5495 96.5715 52.6494 95.7577 53.2926C95.5264 53.4763 95.2588 53.6183 95.0665 53.8411C94.8714 54.0638 94.7683 54.4035 94.9216 54.6541C95.0776 54.9047 95.5459 54.8991 95.6155 54.6123L95.5737 54.6847C95.3954 54.9882 95.6128 55.3864 95.9639 55.378C96.5158 55.3669 97.0815 55.0745 97.4522 54.6485C97.9845 54.0332 98.1963 53.2062 98.3357 52.4043C98.7649 49.9458 98.6813 47.3981 99.3613 44.9952" fill="#263238"/>
<path d="M87.3158 60.5205C87.6977 62.1884 88.832 63.6724 90.3482 64.4743C91.8615 65.279 93.726 65.3876 95.3258 64.7722C96.7695 64.2154 97.9317 63.1295 99.0577 62.0686C99.459 64.4743 98.7901 67.0387 97.2684 68.946C95.7466 70.8533 93.3916 72.0728 90.9529 72.2204C89.1079 72.3318 87.1208 71.7665 85.9613 70.3298C85.1503 69.3274 84.8214 67.9965 84.8354 66.7074C84.8493 65.4182 85.1782 64.1541 85.5628 62.9234C85.8945 61.8709 86.4128 60.6904 87.4803 60.4036" fill="#FFE6EC"/>
<path d="M100.537 47.5648C101.641 48.1634 102.248 49.4164 102.46 50.6526C102.675 51.8889 102.566 53.1557 102.619 54.4087C102.672 55.6617 102.912 56.9731 103.706 57.9448C104.548 58.9778 105.866 59.4679 107.039 60.0999C109.637 61.5005 111.774 63.8699 112.558 66.7128C113.341 69.5556 112.63 72.8439 110.498 74.8849C108.558 76.742 105.732 77.3936 103.048 77.3852C101.131 77.3796 99.0293 76.9731 97.8337 75.4779C96.652 73.9994 96.7077 71.8861 97.1369 70.0456C97.5689 68.2052 98.3214 66.4121 98.3493 64.5215C98.065 65.6881 97.5633 66.8019 96.8777 67.7903C96.6826 68.0715 96.3454 68.3778 96.0416 68.2163C95.7044 68.0381 95.8326 67.5342 95.9887 67.1861C98.2991 62.0545 97.4937 51.7107 98.8621 46.0445" fill="#263238"/>
<path d="M98.6342 46.9806C98.7039 46.9584 101.399 46.4488 101.051 49.1107C100.705 51.7725 98.1019 50.8759 98.1074 50.8008C98.113 50.7228 98.6342 46.9806 98.6342 46.9806Z" fill="#FFBE9D"/>
<path d="M99.0527 49.8952C99.0667 49.8868 99.0945 49.9342 99.1698 49.9787C99.2423 50.0233 99.3705 50.065 99.5154 50.0316C99.8108 49.9648 100.106 49.5499 100.182 49.071C100.221 48.8288 100.198 48.5921 100.137 48.3916C100.081 48.1856 99.9725 48.0352 99.8331 47.9907C99.6966 47.9406 99.5851 48.0102 99.5433 48.0826C99.4987 48.1522 99.507 48.2079 99.4931 48.2107C99.4847 48.2162 99.4429 48.1578 99.4764 48.052C99.4931 48.0018 99.5349 47.9406 99.6018 47.8988C99.6715 47.8543 99.769 47.8403 99.8666 47.8654C100.07 47.9072 100.232 48.1188 100.299 48.3415C100.377 48.5671 100.407 48.8344 100.363 49.1044C100.276 49.639 99.9362 50.104 99.5377 50.1653C99.3426 50.1903 99.1949 50.1124 99.1224 50.04C99.05 49.9592 99.0444 49.898 99.0527 49.8952Z" fill="#EB996E"/>
<path d="M84.56 66.2601C84.5405 66.249 84.7244 65.9371 85.0143 65.436C85.2986 64.9348 85.6999 64.2387 85.9758 63.4062C86.2517 62.5736 86.2991 61.769 86.2155 61.2037C86.1375 60.6357 85.9758 60.3072 86.0009 60.2988C86.0093 60.296 86.0566 60.3712 86.1207 60.5216C86.1876 60.6719 86.2629 60.8975 86.3158 61.187C86.4273 61.7634 86.3967 62.5987 86.1124 63.4507C85.8281 64.3027 85.41 64.9988 85.1007 65.4889C84.9446 65.7339 84.8136 65.9288 84.7189 66.0597C84.6241 66.1961 84.5684 66.2657 84.56 66.2601Z" fill="#263238"/>
<path d="M85.9191 63.1856C85.8801 63.1939 85.802 62.96 85.5651 62.7986C85.331 62.6315 85.083 62.6398 85.0802 62.6009C85.0774 62.5842 85.1387 62.5507 85.2474 62.5507C85.3561 62.548 85.5094 62.5842 85.6487 62.6816C85.7881 62.7791 85.8745 62.9099 85.9107 63.013C85.9442 63.1132 85.9358 63.1828 85.9191 63.1856Z" fill="#FAFAFA"/>
<path d="M87.6387 63.1824C87.5997 63.2046 87.3907 62.8204 86.9531 62.5392C86.5211 62.2496 86.0863 62.2078 86.0919 62.1633C86.0835 62.1271 86.5629 62.1048 87.0339 62.4167C87.5049 62.7257 87.675 63.174 87.6387 63.1824Z" fill="#FAFAFA"/>
<path d="M88.7235 68.8329C88.6844 68.8245 88.7569 68.315 88.8851 67.6968C89.0133 67.0759 89.1499 66.5803 89.1889 66.5887C89.2279 66.597 89.1555 67.1066 89.0272 67.7247C88.8963 68.3456 88.7625 68.8412 88.7235 68.8329Z" fill="#FAFAFA"/>
<path d="M93.0717 69.6843C93.0327 69.6843 93.016 69.1441 93.0355 68.4815C93.055 67.8188 93.1052 67.2814 93.1442 67.2842C93.1832 67.2842 93.1999 67.8244 93.1804 68.487C93.1609 69.1497 93.1108 69.6843 93.0717 69.6843Z" fill="#FAFAFA"/>
<path d="M4.29762 82.055L0 100.755L9.08855 100.783L13.2886 84.3382L4.29762 82.055Z" fill="#B78876"/>
<path d="M48.9316 59.0866C48.0676 57.9283 47.0754 56.8174 46.6211 55.4475C46.4009 54.7848 46.3145 54.0831 46.0804 53.426C45.8463 52.7689 45.4199 52.1285 44.7677 51.8807C44.1156 51.6329 43.6195 51.8835 43.1958 52.3485L40.0771 61.4617L41.8748 68.4616C43.6696 68.0578 45.916 67.5789 47.5938 66.8244C49.2688 66.0698 50.392 64.8614 50.4979 63.0265C50.5759 61.587 49.7956 60.2449 48.9316 59.0866Z" fill="#263238"/>
<path d="M20.5484 57.4735C20.5484 57.4735 9.70679 62.1902 8.35228 64.3147C6.99778 66.4419 2.54688 81.6083 2.54688 81.6083L13.9598 84.9635L13.7731 100.751H41.7829L41.5515 72.9156L38.0371 57.5292C38.0371 57.5292 31.8526 57.131 31.2813 56.8498C30.7071 56.5686 20.5484 57.4735 20.5484 57.4735Z" fill="#FFB3C7"/>
<path d="M59.0767 18.8797C59.1659 18.2421 58.72 17.5404 59.0405 16.9807C59.2188 16.6717 59.5756 16.5213 59.91 16.3932C60.0828 16.3264 60.2584 16.2596 60.4424 16.2652C60.6263 16.2707 60.8214 16.371 60.8799 16.5436C60.9496 16.7469 60.8186 16.9668 60.6653 17.1172C60.512 17.2703 60.3253 17.4012 60.2445 17.6017C60.1358 17.8689 60.2361 18.707 60.3476 18.9716C60.5371 19.4282 61.2116 21.4608 61.2701 21.9508" fill="#B78876"/>
<path d="M56.7881 19.1004C56.8271 18.1342 57.6131 14.3252 57.6521 13.359C58.307 13.5595 58.6861 14.2556 58.8087 14.9294C58.9313 15.6032 58.8672 16.2965 58.9843 16.9704C59.1404 17.8753 59.6114 18.6911 60.0852 19.4763C60.559 20.2615 61.055 21.0578 61.2669 21.9516C61.4787 22.8453 62.2897 25.1591 61.6598 25.8274" fill="#B78876"/>
<path d="M56.6072 25.6159L52.7332 44.015C52.5966 44.8447 38.0371 57.5302 38.0371 57.5302L40.9133 69.0046L59.8792 50.4803C61.2476 49.0185 61.9917 47.0833 61.9527 45.0842L61.6322 27.8211L56.6072 25.6159Z" fill="#B78876"/>
<path d="M55.9444 19.217L56.6077 25.6155L61.6327 27.8207C61.6327 27.8207 61.6941 27.3668 61.9114 25.1477C62.1483 22.7002 59.5174 21.6505 58.344 19.8463C57.8424 19.0722 57.9733 17.6522 57.5859 15.8925C57.5414 15.6892 57.2627 14.4613 57.1094 13.7987C57.0258 13.4339 56.8195 13.1026 56.5074 12.8937C56.2816 12.7406 56.0224 12.6654 55.8357 12.8937C55.6434 13.1248 55.9444 19.217 55.9444 19.217Z" fill="#B78876"/>
<path d="M59.0763 26.6868C59.6476 26.2051 59.7703 25.342 59.5584 24.6264C59.3466 23.9108 58.8645 23.3094 58.374 22.7442C57.8834 22.1789 57.3678 21.6193 57.0668 20.9343C56.855 20.4526 56.7575 19.9264 56.5234 19.4558C56.2892 18.9853 55.8628 18.5537 55.3389 18.5314C55.7597 21.1794 55.7486 22.7024 56.6098 25.6121" fill="#B78876"/>
<path d="M55.8497 21.5502C55.8497 21.5613 55.8302 21.4778 55.7968 21.3386C55.7605 21.1687 55.7159 20.9683 55.663 20.7316C55.5459 20.1775 55.3926 19.4619 55.2198 18.6489L55.2031 18.5709L55.2839 18.5654C55.6156 18.5403 55.9584 18.6851 56.2204 18.9162C56.658 19.2893 56.8586 19.8127 57.0063 20.2555C57.1513 20.7065 57.2767 21.1075 57.4467 21.4165C57.6028 21.7339 57.8146 21.9289 57.9372 22.0931C58.0598 22.2546 58.11 22.3521 58.1044 22.3576C58.0961 22.3632 58.0264 22.2769 57.8954 22.1293C57.7672 21.9845 57.5303 21.7924 57.3575 21.4667C57.1708 21.1548 57.0314 20.7427 56.8809 20.2972C56.7276 19.8573 56.5325 19.3672 56.1284 19.022C55.8859 18.8104 55.5822 18.6823 55.2951 18.7018L55.3592 18.6183C55.6909 20.2972 55.9082 21.553 55.8497 21.5502Z" fill="#7C5142"/>
<path d="M58.1011 19.9216C58.062 19.9272 57.853 18.7578 57.6384 17.3099C57.4238 15.862 57.2789 14.6815 57.3207 14.6759C57.3597 14.6703 57.5687 15.8398 57.7833 17.2876C57.9979 18.7355 58.1401 19.9161 58.1011 19.9216Z" fill="#7C5142"/>
<path d="M59.6974 20.1356C59.7057 20.1356 59.7169 20.1663 59.7336 20.2331L59.6918 20.2414C59.597 20.0103 59.3797 19.2892 59.1874 18.4205C59.0675 17.8831 58.9783 17.3931 58.9282 17.0367C58.8752 16.6803 58.8585 16.4575 58.878 16.4547C58.9198 16.4492 59.0898 17.3207 59.3295 18.3899C59.5218 19.2558 59.6974 19.9853 59.7364 20.2303L59.6946 20.2387C59.689 20.1718 59.6918 20.1384 59.6974 20.1356Z" fill="#7C5142"/>
<path d="M60.6874 23.663C60.6679 23.6741 60.5648 23.5182 60.3641 23.3038C60.1635 23.0894 59.8485 22.8249 59.4444 22.63C59.0403 22.4351 58.6362 22.3543 58.3435 22.3293C58.0509 22.3042 57.8641 22.3237 57.8614 22.2986C57.8586 22.2819 58.0425 22.2262 58.3491 22.2262C58.6557 22.2235 59.0821 22.2931 59.5085 22.4991C59.9321 22.7052 60.2554 22.9947 60.4422 23.237C60.6317 23.4792 60.7014 23.6574 60.6874 23.663Z" fill="#7C5142"/>
<path d="M57.0618 26.1194C57.0451 26.1249 56.9113 25.8409 56.733 25.362C56.5546 24.8831 56.3372 24.2121 56.156 23.4547C55.9749 22.6974 55.8634 21.9985 55.8049 21.4918C55.7463 20.985 55.738 20.6704 55.7575 20.6676C55.7798 20.6648 55.8244 20.9767 55.908 21.4778C55.9916 21.979 56.117 22.6668 56.2982 23.4213C56.4793 24.1731 56.6772 24.8469 56.8305 25.3286C56.981 25.8131 57.0813 26.111 57.0618 26.1194Z" fill="#7C5142"/>
<path d="M34.6338 57.8557C35.0992 57.0788 36.2447 56.8115 37.0083 57.3016C39.054 55.6393 41.1471 54.0105 43.1928 52.3482C42.5239 55.6811 42.0863 60.3504 43.5746 63.4049C43.5746 63.4049 45.4614 66.9104 48.4659 66.373L45.7875 69.0042L41.5512 72.9163" fill="#FFB3C7"/>
<path d="M33.9706 59.4229C33.9344 59.4257 33.9734 58.8048 34.3636 58.1672C34.751 57.5268 35.2833 57.2066 35.3 57.24C35.3279 57.2734 34.8569 57.6326 34.489 58.2423C34.1155 58.8465 34.0152 59.4313 33.9706 59.4229Z" fill="#263238"/>
<path d="M36.181 61.4693C36.1671 61.4749 36.0472 61.2549 35.9469 60.8595C35.8493 60.4669 35.7964 59.8989 35.9051 59.2864C36.0138 58.6738 36.259 58.1559 36.4876 57.8218C36.7161 57.4849 36.9056 57.3206 36.9168 57.329C36.9363 57.3457 36.7746 57.535 36.5768 57.8747C36.3761 58.2144 36.1559 58.7184 36.05 59.3087C35.9469 59.8989 35.9803 60.4502 36.05 60.8373C36.1169 61.2271 36.2033 61.4582 36.181 61.4693Z" fill="#263238"/>
<path d="M46.4205 68.6343C46.4205 68.6343 46.2059 68.7847 45.7544 68.9016C45.3085 69.0213 44.609 69.077 43.8007 68.8431C42.9953 68.6176 42.1257 68.0385 41.454 67.1614C40.7712 66.2899 40.3085 65.1372 40.0549 63.9009C39.5756 61.4145 39.5951 59.109 39.7205 57.4663C39.7846 56.6421 39.8793 55.9794 39.9546 55.5256C39.9908 55.2972 40.0271 55.1218 40.0493 55.0021C40.0744 54.8824 40.0884 54.8211 40.0939 54.8211C40.0995 54.8211 40.0939 54.8852 40.0772 55.0049C40.0605 55.1413 40.0382 55.314 40.0075 55.5311C39.949 55.9878 39.8738 56.6504 39.8208 57.4718C39.7205 59.109 39.7205 61.4061 40.1943 63.8703C40.4451 65.0926 40.8966 66.2231 41.5571 67.0779C42.2093 67.9382 43.0454 68.509 43.8286 68.7429C44.6117 68.9851 45.2946 68.9462 45.7377 68.8459C46.1892 68.7485 46.415 68.6176 46.4205 68.6343Z" fill="#FAFAFA"/>
<path d="M14.0188 89.6507C13.9797 89.6507 13.9463 85.6941 13.9463 80.8103C13.9463 75.9266 13.9797 71.97 14.0188 71.97C14.0578 71.97 14.0912 75.9266 14.0912 80.8103C14.0912 85.6941 14.0606 89.6507 14.0188 89.6507Z" fill="#263238"/>
<path d="M13.7951 68.9184C13.7645 68.9184 13.7728 68.523 13.6363 67.9077C13.5722 67.5986 13.4523 67.2422 13.2879 66.8608C13.1151 66.4849 12.8866 66.0839 12.5995 65.7025C12.3041 65.3238 11.9808 65.0008 11.6603 64.7335C11.337 64.4746 11.022 64.2658 10.7405 64.1238C10.1831 63.8286 9.79573 63.7339 9.80688 63.7061C9.80966 63.6977 9.90442 63.7172 10.08 63.7618C10.1664 63.7841 10.2723 63.8147 10.3894 63.862C10.5064 63.9094 10.6458 63.9539 10.7879 64.0319C11.0806 64.1655 11.4066 64.3716 11.7439 64.6305C12.0755 64.8978 12.4128 65.2264 12.7138 65.6162C13.0092 66.0088 13.2377 66.4208 13.4105 66.8107C13.5722 67.2033 13.6837 67.5736 13.7366 67.891C13.7728 68.0469 13.7812 68.1945 13.7951 68.3198C13.8119 68.4451 13.8119 68.5564 13.8119 68.6455C13.8091 68.821 13.8035 68.9184 13.7951 68.9184Z" fill="#263238"/>
<path d="M32.887 57.3541C32.8926 57.3541 32.9065 57.4348 32.9344 57.588C32.9651 57.7411 32.9873 57.9722 33.0069 58.2701C33.0375 58.8632 32.9846 59.7403 32.6585 60.7621C32.324 61.7729 31.6969 62.9339 30.6379 63.8862C29.5927 64.8468 28.0877 65.5067 26.4517 65.632C24.8157 65.7489 23.2299 65.3229 22.051 64.5266C20.8609 63.7414 20.0694 62.6861 19.5872 61.7367C19.1135 60.7761 18.9295 59.9157 18.871 59.3254C18.8459 59.0275 18.832 58.7964 18.8403 58.6405C18.8431 58.4845 18.8459 58.401 18.8515 58.401C18.857 58.401 18.8626 58.4845 18.871 58.6405C18.8738 58.7964 18.8933 59.0247 18.9295 59.3198C19.0048 59.9046 19.2026 60.751 19.6792 61.6921C20.1642 62.6221 20.9529 63.6523 22.1235 64.4152C23.2801 65.1893 24.8353 65.6013 26.4406 65.4872C28.0431 65.3619 29.5175 64.7215 30.5459 63.7859C31.5883 62.856 32.2153 61.72 32.5581 60.7287C32.8898 59.7264 32.9595 58.8604 32.9455 58.2701C32.9372 57.975 32.9232 57.7439 32.901 57.5907C32.887 57.4376 32.8814 57.3541 32.887 57.3541Z" fill="#263238"/>
<path d="M13.7789 81.5116C13.7649 81.5506 11.4656 80.8239 8.63677 79.8911C5.81071 78.9584 3.52812 78.1704 3.54206 78.1314C3.55599 78.0924 5.8553 78.8191 8.68415 79.7519C11.5102 80.6846 13.7928 81.4726 13.7789 81.5116Z" fill="#FAFAFA"/>
<path d="M41.2784 77.647C41.2784 77.6859 35.133 77.7444 27.5522 77.7778C19.9687 77.8085 13.8232 77.8029 13.8232 77.7639C13.8232 77.7249 19.9687 77.6665 27.5522 77.633C35.133 77.5996 41.2784 77.608 41.2784 77.647Z" fill="#FAFAFA"/>
<path d="M41.4178 80.0686C41.4178 80.1076 35.2389 80.141 27.6219 80.141C19.9993 80.141 13.8232 80.1076 13.8232 80.0686C13.8232 80.0296 19.9993 79.9962 27.6219 79.9962C35.2417 79.9962 41.4178 80.0296 41.4178 80.0686Z" fill="#FAFAFA"/>
<path d="M37.6333 83.018C37.6389 83.0208 37.611 83.0959 37.5553 83.2435C37.494 83.3994 37.4104 83.611 37.3045 83.8783C37.2487 84.0176 37.1874 84.1707 37.1205 84.335C37.048 84.4993 36.9616 84.6774 36.8725 84.8668C36.6885 85.2455 36.499 85.6882 36.2342 86.1476C36.106 86.3815 35.975 86.6237 35.8357 86.8799C35.6963 87.1333 35.5291 87.3838 35.3675 87.6511C35.0497 88.1885 34.6595 88.7287 34.2582 89.3051C33.4221 90.4327 32.4271 91.6189 31.2761 92.7577C30.1111 93.8881 28.9071 94.8571 27.7616 95.6701C27.1763 96.0599 26.6301 96.4414 26.0838 96.7449C25.8135 96.9008 25.5599 97.0623 25.3034 97.1987C25.047 97.3324 24.799 97.4604 24.5649 97.583C24.0994 97.8391 23.6535 98.0201 23.2717 98.1955C23.0794 98.2818 22.901 98.3654 22.7338 98.4322C22.5666 98.4962 22.4133 98.5547 22.2711 98.6076C22.0036 98.7078 21.789 98.7858 21.6301 98.8443C21.4824 98.8972 21.4044 98.9222 21.4044 98.9167C21.4016 98.9111 21.4768 98.8777 21.6218 98.8164C21.7778 98.7524 21.9869 98.6633 22.2516 98.5547C22.391 98.499 22.5415 98.435 22.7087 98.3681C22.8731 98.2958 23.0487 98.2094 23.241 98.1203C23.6201 97.9394 24.0604 97.75 24.5203 97.4911C24.7544 97.3658 24.9969 97.2349 25.2533 97.1013C25.5069 96.9648 25.7577 96.8005 26.0281 96.6418C26.5688 96.3328 27.1122 95.9513 27.6919 95.5587C28.8263 94.7429 30.0247 93.7767 31.1813 92.6519C32.3268 91.5186 33.319 90.3408 34.1579 89.2243C34.5592 88.6535 34.955 88.1189 35.2727 87.5843C35.4371 87.3198 35.6044 87.072 35.7465 86.8214C35.8886 86.5708 36.0224 86.3286 36.1534 86.0975C36.4237 85.6408 36.6188 85.2065 36.8084 84.8306C36.9003 84.6413 36.9923 84.4686 37.0676 84.3043C37.1372 84.1401 37.2041 83.9897 37.2626 83.8533C37.3769 83.5916 37.4689 83.3827 37.5386 83.2296C37.5943 83.0904 37.6305 83.0152 37.6333 83.018Z" fill="#263238"/>
<g opacity="0.3">
<g opacity="0.3">
<g opacity="0.3">
<path opacity="0.3" d="M36.5017 85.4397C34.6288 87.7173 32.6668 89.3684 29.916 90.432C28.5977 90.9416 27.2181 91.2868 25.9416 91.891C24.6652 92.4952 23.4639 93.4057 22.8898 94.6949C22.4467 95.6917 22.6613 97.1925 23.7287 97.418C24.1328 97.5043 24.5509 97.3734 24.9411 97.2314C30.3897 95.2573 33.9711 90.2789 36.5017 85.4397Z" fill="black"/>
</g>
</g>
</g>
<path d="M17.0144 35.887C15.8383 36.8086 15.7602 38.5321 15.8188 40.0245C15.8773 41.517 15.894 43.2154 14.8126 44.2456C13.9208 45.0949 12.36 45.4095 12.1036 46.6151C11.9838 47.1776 12.2514 47.8012 12.7419 48.102C13.2324 48.4027 13.9096 48.3581 14.3556 47.9962C13.9765 48.9373 14.1493 50.1485 14.952 50.7694C15.7575 51.3903 17.1677 51.1007 17.4715 50.1318C17.282 50.7722 17.7251 51.5267 18.3773 51.6799C19.0294 51.8302 19.7569 51.3485 19.8711 50.6886" fill="#263238"/>
<path d="M34.0826 46.6953C34.3278 47.4499 35.2531 47.9009 36 47.6308C36.747 47.3608 37.1678 46.4224 36.8724 45.6846C36.6411 45.1082 36.0474 44.6711 36.0195 44.0474C35.9861 43.2956 36.7748 42.7972 37.4688 42.5048C38.1628 42.2097 38.9766 41.8255 39.0881 41.0792C39.194 40.3609 38.5753 39.765 38.0541 39.2555C37.5357 38.746 37.0368 37.9719 37.4019 37.3426C37.5886 37.0197 37.9538 36.847 38.199 36.5658C38.7397 35.9449 38.5223 34.9008 37.898 34.3634C37.2737 33.826 36.3791 33.7118 35.5625 33.8176C34.7459 33.9234 33.9655 34.2242 33.1656 34.4191C30.5263 35.0678 27.6194 34.5444 25.373 33.0157" fill="#263238"/>
<path d="M17.8113 41.6276L20.6819 58.2335C21.1864 61.1543 23.9734 63.1062 26.8943 62.5855C29.6228 62.0982 31.5263 59.6062 31.2811 56.8497C31.1501 55.3768 31.0358 54.1572 31.0358 54.1572C31.0358 54.1572 35.1997 53.088 34.8401 48.8614C34.6673 46.8177 33.965 42.6383 33.2877 38.8655C32.5603 34.8115 28.834 32.0021 24.7315 32.4003L24.3246 32.4392C19.949 33.1242 17.0031 37.2812 17.8113 41.6276Z" fill="#B78876"/>
<path d="M32.3996 41.6066C32.4414 41.924 32.2072 42.2219 31.8756 42.272C31.5439 42.3222 31.2429 42.105 31.2011 41.7876C31.1593 41.4701 31.3934 41.1722 31.7223 41.1221C32.054 41.072 32.355 41.2892 32.3996 41.6066Z" fill="#263238"/>
<path d="M32.5806 41.0267C32.5138 41.113 32.0232 40.8179 31.3739 40.8847C30.7245 40.9404 30.2813 41.3218 30.2033 41.2467C30.1643 41.216 30.2284 41.0657 30.4207 40.893C30.6102 40.7232 30.9446 40.5422 31.3488 40.506C31.7529 40.4698 32.1096 40.584 32.3187 40.7176C32.5333 40.8541 32.6141 40.9877 32.5806 41.0267Z" fill="#263238"/>
<path d="M26.0421 42.3453C26.0839 42.6627 25.8498 42.9607 25.5182 43.0108C25.1865 43.0609 24.8855 42.8437 24.8437 42.5263C24.8019 42.2089 25.036 41.9109 25.3649 41.8608C25.6965 41.8107 26.0003 42.0279 26.0421 42.3453Z" fill="#263238"/>
<path d="M26.2067 41.7695C26.1398 41.8558 25.6493 41.5606 24.9999 41.6275C24.3505 41.6831 23.9074 42.0646 23.8266 41.9894C23.7876 41.9588 23.8489 41.8084 24.044 41.6358C24.2335 41.466 24.5679 41.285 24.972 41.2488C25.3762 41.2126 25.7329 41.3267 25.9419 41.4604C26.1593 41.594 26.2402 41.7305 26.2067 41.7695Z" fill="#263238"/>
<path d="M29.0352 46.3526C29.0297 46.3164 29.4254 46.2078 30.072 46.0603C30.2365 46.0269 30.3898 45.9795 30.4065 45.8626C30.4343 45.7401 30.3479 45.5674 30.2476 45.3809C30.0525 44.9939 29.8491 44.5901 29.6345 44.1669C28.7788 42.4378 28.1406 41.0067 28.2103 40.9733C28.28 40.9398 29.0325 42.3153 29.8881 44.0444C30.0943 44.4704 30.2922 44.8797 30.4817 45.2667C30.5625 45.4477 30.6908 45.651 30.6322 45.9099C30.5988 46.038 30.4873 46.141 30.3842 46.18C30.2811 46.2218 30.1891 46.2329 30.1055 46.2468C29.4477 46.3471 29.0408 46.3888 29.0352 46.3526Z" fill="#263238"/>
<path d="M26.1257 39.2115C26.0783 39.3953 25.4233 39.373 24.668 39.54C23.9127 39.6904 23.3191 39.9744 23.202 39.824C23.1491 39.7517 23.2411 39.5762 23.4724 39.3813C23.7009 39.1864 24.08 38.986 24.5315 38.8913C24.983 38.7966 25.4094 38.8272 25.6992 38.9136C25.9919 38.9999 26.1452 39.1252 26.1257 39.2115Z" fill="#263238"/>
<path d="M32.1601 39.1723C32.0598 39.331 31.5971 39.2224 31.0592 39.2669C30.5185 39.292 30.0754 39.4618 29.9556 39.3198C29.9026 39.2502 29.9583 39.0943 30.1451 38.9356C30.3262 38.7769 30.644 38.6321 31.0146 38.607C31.3853 38.582 31.7198 38.685 31.9204 38.8187C32.1267 38.9495 32.2019 39.0943 32.1601 39.1723Z" fill="#263238"/>
<path d="M21.9477 36.5519C21.9393 36.5575 21.9337 36.5658 21.9254 36.5714C21.3039 37.1672 20.9332 37.9803 20.8997 38.8406C20.8997 38.8713 20.897 38.8991 20.897 38.9269C20.8496 40.1465 20.9973 41.3688 20.9388 42.5912C20.8802 43.8107 20.582 45.0748 19.771 45.9908C19.4393 46.3667 18.8122 46.6647 18.4722 46.2943C18.3412 46.1523 18.3022 45.9491 18.2688 45.757C17.7587 42.8696 16.7136 40.3665 16.421 37.3259C16.3429 36.499 16.6551 35.6832 17.2822 35.1347C17.8758 34.6168 18.606 34.0682 19.3474 34.3328C20.0915 34.6001 21.1366 35.8335 21.7386 36.3431" fill="#263238"/>
<path d="M19.4227 43.4021C19.3474 43.377 16.435 42.8257 16.8084 45.7048C17.1819 48.5838 19.9968 47.6148 19.9913 47.5313C19.9857 47.4478 19.4227 43.4021 19.4227 43.4021Z" fill="#B78876"/>
<path d="M18.9707 46.5539C18.9568 46.5456 18.9261 46.5957 18.8453 46.6458C18.7672 46.6931 18.6279 46.7377 18.4718 46.7015C18.1541 46.6291 17.8336 46.1808 17.7528 45.6629C17.711 45.4012 17.7332 45.145 17.8001 44.9278C17.8615 44.7051 17.9785 44.5408 18.129 44.4935C18.2767 44.4378 18.3966 44.5158 18.4439 44.5937C18.4941 44.6689 18.483 44.7302 18.4969 44.7329C18.5053 44.7385 18.5526 44.6772 18.5136 44.5603C18.4941 44.5046 18.4523 44.4406 18.3771 44.3932C18.3018 44.3459 18.1959 44.332 18.09 44.357C17.8698 44.4016 17.697 44.6327 17.6246 44.8722C17.5409 45.1144 17.5075 45.404 17.5549 45.6963C17.6496 46.2727 18.0175 46.7794 18.4495 46.8435C18.6585 46.8713 18.8202 46.7878 18.8982 46.707C18.9735 46.6235 18.9791 46.5595 18.9707 46.5539Z" fill="#7C5142"/>
<path d="M19.297 34.7898C18.472 33.7039 20.2613 31.8551 21.6437 31.2676C23.0261 30.6801 24.9714 31.1924 26.4374 31.5237C27.3627 31.7325 28.2936 32.0611 29.2328 31.9302C29.8627 31.8439 30.4424 31.5543 31.0193 31.2843C31.5962 31.0142 32.1982 30.758 32.8337 30.7385C33.4691 30.719 34.1519 30.9919 34.4474 31.5543C34.7428 32.1168 34.478 32.9521 33.8621 33.0997C34.6202 32.5818 35.8325 33.0468 36.0499 33.9377C36.2673 34.8287 35.4061 35.7977 34.4975 35.6919C34.8794 35.3411 35.5594 35.7921 35.5566 36.31C35.5566 36.8279 35.1274 37.2456 34.6759 37.4989C33.5221 38.1449 32.1007 38.1143 30.8131 37.8164C29.5255 37.5184 28.3047 36.9783 27.0227 36.6469C25.7434 36.3184 23.5918 35.7114 22.3934 36.2683C21.5099 36.6803 20.9832 37.8414 20.4425 37.6493C19.9213 37.4627 19.5534 36.9727 19.4001 36.4409C19.2468 35.9063 19.2719 35.3438 19.297 34.7898Z" fill="#263238"/>
<path d="M19.458 43.8948C19.5416 45.4206 19.6252 46.9548 19.982 48.4416C20.3387 49.9285 20.9853 51.3764 22.0583 52.465C23.463 53.8934 25.2801 55.2605 27.2589 55.5863C29.4189 55.9427 32.061 55.4916 33.8196 54.1886C34.653 53.5704 35.2605 52.2367 35.0013 51.2316C35.712 50.9058 36.2137 50.1707 36.2555 49.3911C36.2973 48.6115 35.8235 47.637 35.2048 47.5339C35.6702 47.4588 35.8012 46.7237 35.6256 46.306C35.4445 45.8717 34.8397 45.7659 34.377 45.855C33.9144 45.9441 33.5103 46.2169 33.1312 46.4954C32.7522 46.7738 32.3704 47.069 31.9245 47.2137C30.4306 47.6982 28.9172 46.384 27.3481 46.4425C25.9295 46.4982 24.667 47.6732 23.2595 47.4755C22.4736 47.3641 21.7963 46.8212 21.3643 46.1585C20.9296 45.493 21.1191 43.0344 20.9491 42.2604" fill="#263238"/>
<g opacity="0.6">
<g opacity="0.6">
<path opacity="0.6" d="M30.8439 50.5207C30.8328 50.5402 30.7102 50.4762 30.4983 50.4177C30.2893 50.3592 29.9855 50.3175 29.6594 50.376C29.3334 50.4344 29.063 50.582 28.8874 50.7101C28.7091 50.8382 28.6171 50.9412 28.6004 50.9272C28.5864 50.9189 28.6561 50.7908 28.8289 50.6349C28.9989 50.479 29.2832 50.3063 29.6371 50.2423C29.9911 50.1783 30.3172 50.2423 30.5318 50.3258C30.7436 50.4121 30.8523 50.5068 30.8439 50.5207Z" fill="#455A64"/>
</g>
</g>
<path d="M27.792 47.3222C27.8979 47.3055 27.9676 48.0099 28.6197 48.4499C29.2719 48.8926 30.0161 48.7395 30.03 48.8397C30.0439 48.8842 29.8767 48.9928 29.559 49.0318C29.2496 49.0736 28.7842 49.0179 28.3856 48.7478C27.9871 48.4777 27.7892 48.0823 27.7362 47.7955C27.6833 47.506 27.7446 47.3222 27.792 47.3222Z" fill="white"/>
<path d="M25.6954 55.1161C25.6982 55.1106 25.7595 55.1356 25.8766 55.183C25.9964 55.2275 26.172 55.2888 26.4033 55.3528C26.866 55.4837 27.5516 55.6229 28.41 55.6674C28.8392 55.6925 29.3102 55.6897 29.8119 55.6396C30.3135 55.5978 30.8459 55.4976 31.3865 55.3333C31.93 55.1774 32.4735 54.9296 32.9919 54.601C33.5103 54.2753 34.0064 53.8632 34.3826 53.3369C34.8258 52.716 35.0543 51.9364 34.9345 51.2515L34.9233 51.193L34.9763 51.1707C35.333 51.0176 35.6229 50.7475 35.8458 50.4523C35.9573 50.3048 36.0548 50.1461 36.1273 49.9846C36.1998 49.8259 36.236 49.6505 36.2527 49.4806C36.3168 48.7929 36.0103 48.1553 35.581 47.7961L35.542 47.7627L35.5755 47.7209C35.8598 47.3701 35.8765 46.9051 35.7455 46.5765C35.6173 46.2368 35.3386 46.0391 35.1045 45.95C34.8648 45.8554 34.6585 45.8554 34.5248 45.8693C34.3882 45.886 34.3213 45.9111 34.3185 45.9027C34.3185 45.9027 34.3826 45.8665 34.522 45.8387C34.6585 45.8136 34.8731 45.8053 35.1268 45.8944C35.3748 45.9807 35.6786 46.1811 35.8263 46.5459C35.974 46.8967 35.9657 47.3951 35.6591 47.7905L35.6507 47.7153C36.1106 48.0912 36.4422 48.7595 36.3809 49.4945C36.3642 49.6755 36.3252 49.8621 36.2499 50.0375C36.1747 50.2129 36.0716 50.3772 35.9573 50.5331C35.7232 50.8422 35.4222 51.1289 35.032 51.2988L35.0738 51.218C35.2076 51.9698 34.9651 52.7689 34.5052 53.4205C34.1151 53.9662 33.6022 54.3922 33.0727 54.7208C32.5432 55.0549 31.983 55.3027 31.4311 55.4586C30.8793 55.6229 30.3386 55.7204 29.8286 55.7565C29.3186 55.8039 28.842 55.7983 28.41 55.7677C27.5432 55.7092 26.8548 55.5533 26.395 55.4057C26.1636 55.3333 25.988 55.2609 25.8738 55.208C25.7511 55.1523 25.6926 55.1217 25.6954 55.1161Z" fill="#455A64"/>
<path d="M13.0627 47.7711C13.0627 47.7711 13.0042 47.76 12.915 47.6987C12.8258 47.6403 12.706 47.5233 12.6224 47.3312C12.5444 47.1419 12.4998 46.8801 12.5639 46.5906C12.6252 46.2982 12.8314 46.0059 13.1185 45.7775C13.4083 45.5464 13.7762 45.3738 14.1776 45.229C14.5761 45.0815 15.0109 44.9506 15.4094 44.7056C15.808 44.4661 16.1313 44.0763 16.3375 43.6141C16.5493 43.1519 16.6497 42.6229 16.6664 42.0827C16.6887 40.994 16.4379 39.961 16.41 39.0004C16.3654 38.0426 16.5493 37.1433 16.9869 36.5418C17.4189 35.9376 17.993 35.6592 18.3916 35.5868C18.5922 35.545 18.7539 35.5562 18.8598 35.5617C18.9657 35.5784 19.0214 35.5896 19.0187 35.5951C19.0187 35.6146 18.7929 35.5506 18.4027 35.6425C18.0209 35.7288 17.4746 36.0128 17.0705 36.6003C16.6636 37.185 16.4908 38.0537 16.541 38.9949C16.5744 39.9387 16.8308 40.969 16.8085 42.0883C16.7918 42.6451 16.6887 43.1937 16.4657 43.6754C16.2483 44.1598 15.9 44.5691 15.4763 44.8225C15.0555 45.0759 14.6123 45.2012 14.2166 45.346C13.818 45.4852 13.4613 45.6467 13.1798 45.8639C12.9011 46.0783 12.706 46.3456 12.6419 46.6156C12.5722 46.8857 12.6057 47.1335 12.6726 47.3173C12.8258 47.6848 13.0795 47.7544 13.0627 47.7711Z" fill="#455A64"/>
<path d="M33.9564 33.045C33.9537 33.0422 33.9983 33.0227 34.0847 32.9865C34.1265 32.967 34.1822 32.9475 34.2463 32.9308C34.3132 32.9113 34.3884 32.8918 34.4776 32.8835C34.826 32.8306 35.4057 32.9141 35.8962 33.393L35.899 33.3958C36.2279 33.8079 36.423 34.4371 36.331 35.1221C36.253 35.807 35.8433 36.5171 35.1883 37.0071C34.5389 37.5083 33.675 37.7979 32.7664 37.848C31.8522 37.9037 30.9018 37.7644 29.9515 37.5389C28.4019 37.1658 27.0083 36.4976 25.8684 35.7319C25.2915 35.3588 24.7481 35.0051 24.1934 34.7573C23.6444 34.504 23.0898 34.3787 22.577 34.3453C21.5457 34.2784 20.7236 34.5457 20.2052 34.7852C19.6812 35.033 19.4332 35.2418 19.4248 35.2279C19.4248 35.2279 19.6589 34.9996 20.1801 34.7351C20.6957 34.4761 21.529 34.1865 22.5825 34.2422C23.1065 34.2701 23.6778 34.3954 24.2408 34.646C24.8066 34.8938 25.3612 35.2474 25.9381 35.6177C27.078 36.3723 28.4492 37.0266 29.9849 37.3969C30.9241 37.6224 31.8662 37.7589 32.7552 37.706C33.6443 37.6586 34.4804 37.383 35.1103 36.9041C35.7457 36.4335 36.1415 35.7597 36.2223 35.1054C36.3199 34.4511 36.1387 33.8441 35.8321 33.4459L35.8349 33.4487C35.3778 32.9893 34.8204 32.889 34.4804 32.928C34.1348 32.9642 33.9592 33.0617 33.9564 33.045Z" fill="#455A64"/>
<path d="M32.4798 30.5914C32.4798 30.5914 32.4993 30.8308 32.3488 31.229C32.1955 31.6188 31.822 32.1506 31.1587 32.5293C30.8326 32.7186 30.4397 32.8745 29.9965 32.9469C29.5562 33.0193 29.074 33.0165 28.5807 32.9525C27.5857 32.83 26.5573 32.4374 25.4759 32.1005C24.3973 31.7636 23.3048 31.5631 22.3489 31.7691C21.3929 31.9668 20.6404 32.5042 20.1499 33.0499C19.6538 33.5985 19.389 34.1526 19.258 34.5424C19.1298 34.9377 19.1047 35.1688 19.088 35.1661C19.0825 35.1661 19.088 35.1076 19.1048 34.999C19.1159 34.8876 19.1521 34.7289 19.2051 34.5257C19.3221 34.1247 19.573 33.5511 20.0719 32.9803C20.5652 32.4151 21.3288 31.8499 22.3182 31.6383C23.3104 31.4183 24.4308 31.6216 25.5149 31.9613C26.6047 32.301 27.622 32.6908 28.5974 32.8188C29.0824 32.8857 29.5506 32.8912 29.977 32.8272C30.4034 32.7632 30.788 32.6184 31.1085 32.4402C31.7579 32.0838 32.1342 31.5826 32.2986 31.2095C32.4575 30.8252 32.4603 30.5886 32.4798 30.5914Z" fill="#455A64"/>
</svg>
