<svg width="108" height="80" viewBox="0 0 108 80" fill="none" xmlns="http://www.w3.org/2000/svg">
<g clip-path="url(#clip0_3314_6978)">
<path d="M28.6002 25.7517H40.3087C40.3087 25.7517 40.3087 15.7267 50.5251 15.5469C55.8309 15.4538 58.5822 18.9974 59.6993 21.714C60.9969 24.8668 60.6035 28.46 58.866 31.3855C56.8791 34.7244 52.6032 38.0798 44.7123 36.6616L44.6373 63.2632H56.2161V47.4928C56.2161 47.4928 72.454 43.2133 72.454 24.964C72.454 7.50454 58.6085 3.73354 51.1657 3.48958C47.0257 3.3552 45.5233 3.17326 40.402 3.91547C33.8776 4.86029 28.4623 12.5884 28.6002 25.7517Z" fill="#FF678E"/>
<path d="M56.359 68.8085H44.6078V79.9995H56.359V68.8085Z" fill="#FF678E"/>
<path opacity="0.1" d="M56.359 68.8085H44.6078V79.9995H56.359V68.8085Z" fill="#FF678E"/>
<path opacity="0.1" d="M28.6002 25.7517H40.3087C40.3087 25.7517 40.3087 15.7267 50.5251 15.5469C55.8309 15.4538 58.5822 18.9974 59.6993 21.714C60.9969 24.8668 60.6035 28.46 58.866 31.3855C56.8791 34.7244 52.6032 38.0798 44.7123 36.6616L44.6373 63.2632H56.2161V47.4928C56.2161 47.4928 72.454 43.2133 72.454 24.964C72.454 7.50454 58.6085 3.73354 51.1657 3.48958C47.0257 3.3552 45.5233 3.17326 40.402 3.91547C33.8776 4.86029 28.4623 12.5884 28.6002 25.7517Z" fill="#FF678E"/>
<path d="M23.7518 25.7511H35.4604C35.4604 25.7511 35.4604 15.7261 45.6767 15.5463C50.9825 15.4532 53.7338 18.9968 54.8509 21.7134C56.1485 24.8663 55.7552 28.4594 54.0176 31.3849C52.0307 34.7238 47.6798 37.7588 39.789 36.3405V63.2626H51.3678V47.4923C51.3678 47.4923 67.6056 43.2127 67.6056 24.9634C67.6056 7.50394 52.2517 3.44763 45.6787 3.44763C40.6527 3.4497 23.5308 4.68809 23.7518 25.7511Z" fill="#FFB3C7"/>
<path opacity="0.3" d="M23.7518 25.7511H35.4604C35.4604 25.7511 35.4604 15.7261 45.6767 15.5463C50.9825 15.4532 53.7338 18.9968 54.8509 21.7134C56.1485 24.8663 55.7552 28.4594 54.0176 31.3849C52.0307 34.7238 47.6798 37.7588 39.789 36.3405V63.2626H51.3678V47.4923C51.3678 47.4923 67.6056 43.2127 67.6056 24.9634C67.6056 7.50394 52.2517 3.44763 45.6787 3.44763C40.6527 3.4497 23.5308 4.68809 23.7518 25.7511Z" fill="#FFB3C7"/>
<path d="M51.5078 68.8063H39.7567V79.9973H51.5078V68.8063Z" fill="#FFB3C7"/>
<path opacity="0.3" d="M51.5078 68.8063H39.7567V79.9973H51.5078V68.8063Z" fill="#FFB3C7"/>
<path d="M47.0007 15.6033C47.0007 15.6074 46.9399 15.6033 46.8264 15.593C46.7108 15.5868 46.5445 15.5537 46.3276 15.5516C45.8937 15.5227 45.2632 15.533 44.4907 15.6302C43.7203 15.7294 42.81 15.9237 41.8409 16.2649C41.3583 16.4427 40.8575 16.6453 40.3649 16.912C39.8681 17.1683 39.3755 17.4826 38.9213 17.8651C38.4631 18.2434 38.0759 18.6858 37.7393 19.1386C37.4007 19.5914 37.1068 20.0524 36.8533 20.5073C36.3546 21.4231 36.016 22.3059 35.8051 23.0688C35.5902 23.8296 35.4949 24.4664 35.4524 24.9068C35.428 25.128 35.4199 25.2996 35.4159 25.4153C35.4098 25.5311 35.4037 25.5931 35.3996 25.5931C35.3956 25.5931 35.3936 25.5311 35.3936 25.4153C35.3936 25.2975 35.3936 25.1259 35.4118 24.9026C35.4422 24.4581 35.5253 23.8151 35.7321 23.0461C35.9349 22.277 36.2694 21.3838 36.7682 20.4576C37.0216 19.9987 37.3156 19.5314 37.6562 19.0725C37.9948 18.6155 38.3861 18.1648 38.8524 17.7803C39.3146 17.3916 39.8134 17.0753 40.3162 16.8169C40.815 16.5481 41.3218 16.3455 41.8084 16.1698C42.7877 15.8286 43.7061 15.6405 44.4826 15.5516C45.2591 15.4648 45.8958 15.4648 46.3296 15.5082C46.5486 15.5165 46.7149 15.5578 46.8284 15.5702C46.9419 15.5888 47.0007 15.6012 47.0007 15.6033Z" fill="#263238"/>
<path d="M64.6415 13.4697C64.6394 13.4697 64.6273 13.4552 64.6029 13.4221C64.5766 13.3849 64.5421 13.3374 64.4995 13.2774C64.4063 13.143 64.2785 12.957 64.1143 12.7192C64.0292 12.5993 63.942 12.4608 63.8345 12.3181C63.721 12.1796 63.5993 12.0287 63.4696 11.8654C63.3378 11.702 63.1979 11.5284 63.0499 11.3444C62.8978 11.1645 62.7194 10.9888 62.543 10.7944C62.3606 10.6063 62.1801 10.3975 61.9754 10.199C61.7645 10.0047 61.5476 9.80413 61.3205 9.59532C61.207 9.49195 61.0954 9.38237 60.9738 9.279C60.8501 9.17976 60.7244 9.07846 60.5967 8.97509C60.3392 8.77248 60.0837 8.55333 59.806 8.34866C58.6949 7.52788 57.3953 6.73812 55.97 6.03726C55.6091 5.87187 55.2523 5.70647 54.9016 5.54521C54.5427 5.40256 54.1879 5.26198 53.8392 5.12553C53.4945 4.97874 53.1417 4.87537 52.8011 4.76166C52.4585 4.65415 52.128 4.52804 51.7935 4.44741C51.461 4.35851 51.1386 4.27168 50.8244 4.18691C50.5101 4.10215 50.1979 4.05253 49.8998 3.98637C49.5998 3.92848 49.3139 3.85405 49.0321 3.81684C48.7523 3.77549 48.4826 3.73621 48.2252 3.69693C47.7122 3.60803 47.2418 3.58942 46.8323 3.54807C46.6275 3.53153 46.4349 3.50879 46.2585 3.50052C46.0821 3.49639 45.922 3.49225 45.776 3.48812C45.4922 3.47778 45.2671 3.47158 45.1069 3.46538C45.036 3.46124 44.9772 3.45917 44.9326 3.45711C44.8941 3.45504 44.8738 3.45297 44.8738 3.4509C44.8738 3.44884 44.8941 3.44677 44.9326 3.44677C44.9772 3.44677 45.036 3.4447 45.1069 3.4447C45.2671 3.4447 45.4922 3.4447 45.776 3.44677C45.922 3.44884 46.0842 3.44884 46.2606 3.4509C46.4369 3.45711 46.6296 3.47571 46.8364 3.49019C47.2479 3.5274 47.7203 3.5398 48.2353 3.62457C48.4928 3.65972 48.7645 3.69693 49.0443 3.73621C49.3261 3.76929 49.614 3.84372 49.9161 3.89954C50.2161 3.96363 50.5283 4.01325 50.8446 4.09594C51.1609 4.17864 51.4853 4.26547 51.8198 4.35231C52.1564 4.43087 52.4869 4.55491 52.8315 4.66449C53.1742 4.7782 53.529 4.88157 53.8757 5.02836C54.2244 5.16687 54.5812 5.30539 54.9421 5.44805C55.2949 5.61137 55.6538 5.7747 56.0146 5.94216C57.446 6.64509 58.7497 7.44105 59.8627 8.27009C60.1425 8.47477 60.398 8.69805 60.6555 8.90273C60.7832 9.0061 60.9089 9.10947 61.0326 9.20871C61.1542 9.31208 61.2657 9.42372 61.3793 9.52709C61.6043 9.73797 61.8233 9.94265 62.0321 10.137C62.2369 10.3375 62.4173 10.5484 62.5978 10.7386C62.7742 10.9329 62.9506 11.1128 63.1026 11.2947C63.2486 11.4808 63.3885 11.6565 63.5162 11.8219C63.646 11.9873 63.7656 12.1403 63.8751 12.2809C63.9785 12.4277 64.0657 12.5662 64.1468 12.6903C64.3049 12.9322 64.4286 13.1244 64.5158 13.2609C64.5543 13.3229 64.5847 13.3725 64.609 13.4097C64.6333 13.4511 64.6435 13.4697 64.6415 13.4697Z" fill="#263238"/>
<path d="M63.423 39.1066C63.425 39.1087 63.3946 39.1521 63.3338 39.2307C63.2648 39.3175 63.1756 39.4312 63.0641 39.5739C62.9465 39.7227 62.8006 39.9026 62.6221 40.1032C62.4437 40.3058 62.2491 40.5414 62.0119 40.7833C61.7808 41.0314 61.5273 41.3002 61.2394 41.5752C60.9596 41.8584 60.6433 42.1416 60.3129 42.4435C59.6418 43.0327 58.8774 43.6509 58.0381 44.2463C57.1946 44.8355 56.3553 45.3441 55.5767 45.7741C55.1834 45.9809 54.8104 46.1835 54.4515 46.3489C54.0967 46.5246 53.7601 46.6714 53.4499 46.8037C53.1438 46.9422 52.8579 47.0456 52.6106 47.1428C52.3632 47.242 52.1463 47.3164 51.9679 47.3764C51.7976 47.4322 51.6617 47.4777 51.5583 47.5128C51.4651 47.5418 51.4144 47.5563 51.4124 47.5521C51.4103 47.548 51.459 47.5273 51.5502 47.4922C51.6516 47.4529 51.7854 47.4012 51.9537 47.3371C52.1301 47.273 52.343 47.1924 52.5883 47.0869C52.8336 46.9836 53.1174 46.8761 53.4195 46.7334C53.7257 46.597 54.0602 46.4481 54.411 46.2682C54.7678 46.1008 55.1368 45.8961 55.5281 45.6873C56.3026 45.2552 57.1338 44.7445 57.9752 44.1574C58.8126 43.5661 59.5749 42.9521 60.246 42.3691C60.5764 42.0713 60.8948 41.7922 61.1745 41.5111C61.4624 41.2402 61.7199 40.9735 61.9531 40.7317C62.1923 40.4939 62.391 40.2623 62.5715 40.0639C62.7539 39.8675 62.904 39.6917 63.0256 39.547C63.1432 39.4106 63.2385 39.301 63.3115 39.2183C63.3845 39.1418 63.4189 39.1046 63.423 39.1066Z" fill="#263238"/>
<path d="M51.1622 62.3252C51.1338 62.3252 51.1095 59.0049 51.1095 54.9093C51.1095 50.8116 51.1338 47.4913 51.1622 47.4913C51.1906 47.4913 51.2149 50.8116 51.2149 54.9093C51.2149 59.0049 51.1906 62.3252 51.1622 62.3252Z" fill="#263238"/>
<path d="M51.6076 79.2382C51.5792 79.2382 51.5549 76.9082 51.5549 74.0344C51.5549 71.1586 51.5792 68.8286 51.6076 68.8286C51.636 68.8286 51.6603 71.1586 51.6603 74.0344C51.6603 76.9082 51.638 79.2382 51.6076 79.2382Z" fill="#263238"/>
<path d="M63.1383 24.1657C62.9335 24.5812 63.6918 24.9182 64.1277 25.0526C64.5656 25.187 65.0319 25.1725 65.4861 25.1477C66.0903 25.1146 66.7167 25.0567 67.2418 24.7507C67.7082 24.4778 68.0569 24.0292 68.3002 23.5413C68.5435 23.0513 68.6915 22.52 68.8375 21.9928C68.8375 21.9928 64.0486 22.3132 63.1383 24.1657Z" fill="#E8505B"/>
<g opacity="0.4">
<path opacity="0.4" d="M63.1383 24.1657C62.9335 24.5812 63.6918 24.9182 64.1277 25.0526C64.5656 25.187 65.0319 25.1725 65.4861 25.1477C66.0903 25.1146 66.7167 25.0567 67.2418 24.7507C67.7082 24.4778 68.0569 24.0292 68.3002 23.5413C68.5435 23.0513 68.6915 22.52 68.8375 21.9928C68.8375 21.9928 64.0486 22.3132 63.1383 24.1657Z" fill="black"/>
</g>
<path d="M76.6722 22.8424C77.4528 23.4109 78.4158 23.7189 79.3768 23.7086C79.8371 23.7024 80.3257 23.6114 80.6643 23.2951C80.8204 23.1504 80.938 22.9623 81.0981 22.8237C81.2076 22.7286 81.3353 22.6563 81.4387 22.5529C81.5421 22.4495 81.6192 22.3028 81.5888 22.1601C81.5563 22.0133 81.4367 21.7776 81.309 21.7032C80.7595 21.3848 80.1026 21.3972 79.4701 21.4117C78.8375 21.4262 78.2151 21.5771 77.615 21.7818C77.1243 21.9492 76.6114 22.187 76.362 22.6501" fill="#E8505B"/>
<g opacity="0.4">
<path opacity="0.4" d="M81.5859 22.1599C81.5535 22.0131 81.3548 21.8188 81.227 21.7443C80.6776 21.426 80.0998 21.397 79.4672 21.4115C78.8346 21.426 78.2122 21.5769 77.6121 21.7816C77.1215 21.949 76.6085 22.1868 76.3591 22.6499L76.6714 22.8401C77.4519 23.4086 78.415 23.7167 79.376 23.7063C79.8362 23.7001 80.3228 23.6092 80.6634 23.2928C80.8195 23.1481 80.9371 22.96 81.0973 22.8215C81.2068 22.7264 81.3345 22.654 81.4379 22.5506C81.5413 22.4473 81.6163 22.3025 81.5859 22.1599Z" fill="black"/>
</g>
<path d="M67.3189 30.2631L77.4258 30.3975C77.515 30.3995 77.5778 30.3106 77.5515 30.2238L76.3654 26.4528C76.3654 26.4528 76.5398 24.5694 76.7811 22.3014C77.148 18.8612 77.6346 14.534 77.6407 14.5444C76.9514 12.5679 72.8721 12.233 72.8721 12.233L68.2232 12.5141L68.0589 12.235L66.7208 12.8697C66.4289 13.0083 66.1491 13.1695 65.8815 13.3515C64.9995 13.9551 62.8687 15.3362 62.4794 16.8785C61.5812 20.4428 63.1018 24.4226 63.1018 24.4226L64.077 23.6452C64.3325 23.4488 64.5737 23.2772 64.8515 23.118L66.81 28.4706C66.81 28.4706 66.4025 28.7228 66.3843 29.157C66.3701 29.5932 66.5992 30.1163 67.3189 30.2631Z" fill="#FFE6EC"/>
<g opacity="0.3">
<path opacity="0.3" d="M71.6514 23.9527C71.9717 22.1954 71.8034 20.3885 71.6311 18.6105C71.0695 20.0659 71.0898 21.7054 70.4957 23.1464C70.4308 23.3015 70.3599 23.4565 70.3376 23.624C70.3153 23.7915 70.3497 23.9755 70.4734 24.0892C70.6356 24.2401 70.8749 24.1595 71.0918 24.1326C71.3229 24.1057 71.4446 24.0251 71.6514 23.9527Z" fill="black"/>
</g>
<g opacity="0.4">
<path opacity="0.4" d="M67.9268 28.0229C68.7419 28.3123 69.6015 27.7769 70.4591 27.6818C71.0268 27.6198 71.5945 27.7521 72.1581 27.8451C73.2955 28.0332 74.4593 28.0622 75.6048 27.9319C75.7792 27.9113 75.9596 27.8864 76.1117 27.7975C76.2658 27.7086 76.3874 27.4626 76.3773 27.2848C74.4694 27.0843 72.5596 26.9664 70.6517 26.7659C70.1733 26.7163 69.6786 26.6667 69.2204 26.8114C68.6425 26.9933 68.1985 27.4564 67.793 27.9113" fill="black"/>
</g>
<path d="M81.2909 21.481C80.4637 19.5873 77.5563 14.3442 77.5563 14.3442L75.3038 17.2242L75.8289 22.8786C75.8289 22.8786 77.0191 21.5244 80.3461 21.4976C81.1206 21.4914 81.5849 22.1633 81.5849 22.1633L81.2909 21.481Z" fill="#FFE6EC"/>
<path d="M67.7646 20.476C67.7363 20.4843 67.566 19.9302 67.3855 19.2397C67.203 18.5491 67.0794 17.9827 67.1078 17.9744C67.1361 17.9661 67.3064 18.5202 67.4869 19.2107C67.6694 19.9033 67.793 20.4698 67.7646 20.476Z" fill="#263238"/>
<path d="M75.1342 16.8385C75.1382 16.8323 75.2132 16.8985 75.343 17.0184C75.4687 17.1424 75.6491 17.3285 75.8458 17.5807C76.2391 18.0769 76.7196 18.8543 76.9224 19.826C77.0237 20.3098 77.04 20.7853 76.9873 21.2112C76.9345 21.635 76.8555 22.0071 76.8048 22.3214C76.7521 22.6356 76.7196 22.892 76.7034 23.0698C76.6872 23.2476 76.6831 23.3468 76.675 23.3468C76.6689 23.3468 76.6588 23.2476 76.6629 23.0677C76.6669 22.8878 76.6872 22.6273 76.7318 22.311C76.7744 21.9926 76.8453 21.6184 76.892 21.2008C76.9386 20.7853 76.9183 20.3222 76.821 19.8508C76.6243 18.9018 76.1641 18.1327 75.789 17.6304C75.4119 17.1197 75.12 16.8551 75.1342 16.8385Z" fill="#263238"/>
<path d="M73.0696 29.8111C73.0717 29.8194 72.9926 29.8422 72.8486 29.8773C72.7777 29.8959 72.6885 29.9166 72.5851 29.929C72.4817 29.9435 72.3641 29.9662 72.2303 29.9724C71.9667 29.9993 71.6504 29.9972 71.3017 29.9662C70.953 29.929 70.5738 29.8587 70.1866 29.7388C69.8014 29.6147 69.4486 29.4535 69.1404 29.2819C68.8363 29.1061 68.5748 28.9242 68.372 28.7505C68.2666 28.6699 68.1815 28.5831 68.1044 28.5107C68.0253 28.4404 67.9645 28.3722 67.9159 28.3143C67.8165 28.2027 67.7658 28.1386 67.7699 28.1345C67.7841 28.12 68.003 28.3681 68.4166 28.6906C68.6214 28.8539 68.8829 29.0255 69.185 29.195C69.4892 29.3584 69.8379 29.5134 70.215 29.6354C70.5941 29.7533 70.9672 29.8256 71.3098 29.867C71.6524 29.9021 71.9626 29.9104 72.2242 29.8959C72.7493 29.869 73.0656 29.7905 73.0696 29.8111Z" fill="#263238"/>
<path d="M76.191 28.6345C76.2032 28.6325 76.2437 28.7441 76.2681 28.9364C76.2924 29.1266 76.2965 29.4016 76.2133 29.6889C76.1322 29.9784 75.964 30.2058 75.8159 30.3298C75.6679 30.456 75.5544 30.4952 75.5483 30.4849C75.5402 30.4704 75.6375 30.4063 75.7653 30.274C75.891 30.1438 76.0369 29.9288 76.112 29.6579C76.2661 29.1121 76.1505 28.6366 76.191 28.6345Z" fill="#263238"/>
<path d="M75.6431 29.3629C75.6694 29.3567 75.7221 29.6585 75.5924 29.9997C75.4647 30.3408 75.2254 30.5268 75.2092 30.5041C75.1869 30.4814 75.3755 30.2767 75.493 29.9604C75.6147 29.6461 75.6106 29.365 75.6431 29.3629Z" fill="#263238"/>
<path d="M73.8312 22.5602C73.8535 22.5829 73.665 22.798 73.4703 23.0895C73.2737 23.3789 73.1439 23.6353 73.1155 23.6229C73.0892 23.6125 73.1804 23.3293 73.3832 23.0295C73.5859 22.7277 73.813 22.5395 73.8312 22.5602Z" fill="#263238"/>
<path d="M66.8953 17.5531C66.8831 17.5655 66.723 17.4353 66.4472 17.2513C66.1715 17.0673 65.7721 16.8399 65.2997 16.6579C64.8273 16.4801 64.3792 16.385 64.0528 16.3395C63.7264 16.2941 63.5196 16.2858 63.5196 16.2693C63.5196 16.2568 63.7264 16.2382 64.0609 16.2651C64.3955 16.292 64.8557 16.3768 65.3362 16.5587C65.8167 16.7427 66.2202 16.9867 66.4878 17.1893C66.7595 17.3919 66.9034 17.5449 66.8953 17.5531Z" fill="#263238"/>
<path d="M77.5576 14.2734C77.5779 14.3023 77.0305 14.6414 76.5337 15.2513C76.0309 15.8549 75.7937 16.4628 75.7633 16.4483C75.7511 16.4442 75.7937 16.287 75.9052 16.0472C76.0147 15.8095 76.1992 15.4931 76.4526 15.183C76.7081 14.875 76.9818 14.6352 77.1947 14.4842C77.4055 14.3312 77.5515 14.263 77.5576 14.2734Z" fill="#263238"/>
<path d="M73.3816 12.5696C73.3856 12.5675 73.3998 12.6006 73.4262 12.6647C73.4566 12.7288 73.487 12.826 73.5215 12.9542C73.5863 13.2105 73.6208 13.6054 73.5174 14.0747C73.412 14.5378 73.1585 15.0753 72.6902 15.4992C72.2259 15.9251 71.5406 16.1793 70.825 16.1773C70.1072 16.1731 69.4321 15.9209 68.9414 15.5364C68.4447 15.1539 68.1142 14.6784 67.9054 14.2546C67.6986 13.8266 67.6033 13.4503 67.5608 13.1898C67.5405 13.0596 67.5263 12.9562 67.5243 12.888C67.5202 12.8177 67.5182 12.7826 67.5222 12.7826C67.5324 12.7805 67.5445 12.9273 67.6013 13.1836C67.656 13.44 67.7615 13.8059 67.9723 14.2215C68.1872 14.6308 68.5137 15.0919 69.0002 15.4578C69.4787 15.8279 70.1316 16.0656 70.827 16.0718C71.5204 16.0739 72.1793 15.832 72.6274 15.4268C73.0815 15.0237 73.3349 14.5068 73.4464 14.0582C73.5559 13.6054 73.5336 13.2209 73.4829 12.9645C73.4323 12.7081 73.3694 12.5737 73.3816 12.5696Z" fill="#263238"/>
<g opacity="0.3">
<path opacity="0.3" d="M74.0927 22.9268C74.0886 22.8234 74.0765 22.7015 73.9893 22.6498C73.9346 22.6167 73.8636 22.625 73.8048 22.6539C73.748 22.6829 73.7014 22.7304 73.6588 22.778C73.4135 23.0488 73.2412 23.3134 73.1175 23.6607L74.111 23.5739C74.1049 23.3589 74.0988 23.1418 74.0927 22.9268Z" fill="black"/>
</g>
<g opacity="0.3">
<path opacity="0.3" d="M77.3916 20.7939C77.3146 20.215 77.0247 19.6837 76.6719 19.2227C77.0997 20.6533 76.9557 21.4617 76.7165 22.4396L76.7692 22.3031C77.0449 21.7325 77.4687 21.3728 77.3916 20.7939Z" fill="black"/>
</g>
<path d="M75.4062 68.8531L74.8 78.1255L70.8465 78.078L70.2241 68.4375L75.4062 68.8531Z" fill="#FFBE9D"/>
<path d="M74.9138 76.9059V77.1747C74.9138 77.1747 79.3701 79.0043 79.4167 79.8664L70.5649 79.8127L70.7027 76.8108C72.0165 77.4393 73.3932 77.5178 74.9138 76.9059Z" fill="#FF678E"/>
<path d="M71.5951 77.7766C71.4228 77.8241 71.3031 78.0185 71.3437 78.1963C71.3822 78.3741 71.5768 78.4981 71.7492 78.4547C71.9215 78.4113 72.0716 78.1797 72.0148 78.0102C71.956 77.8386 71.7208 77.7042 71.5647 77.789" fill="white"/>
<path d="M70.567 79.8133L70.5995 79.0918L79.0701 79.406C79.0701 79.406 79.4635 79.5838 79.4168 79.865L70.567 79.8133Z" fill="#263238"/>
<path d="M74.946 77.1982C74.944 77.2416 74.7291 77.2603 74.5141 77.4008C74.2972 77.5352 74.1857 77.7254 74.1472 77.7089C74.1066 77.7006 74.1735 77.436 74.4351 77.2706C74.6946 77.1031 74.9541 77.1569 74.946 77.1982Z" fill="#263238"/>
<path d="M75.8708 77.5966C75.8809 77.64 75.6924 77.7124 75.5443 77.8985C75.3903 78.0804 75.3538 78.2809 75.3092 78.2789C75.2686 78.2851 75.2402 78.0266 75.4288 77.7992C75.6173 77.5718 75.8708 77.5553 75.8708 77.5966Z" fill="#263238"/>
<path d="M76.3914 78.7326C76.3529 78.7408 76.2941 78.5217 76.4056 78.2798C76.5171 78.0379 76.7198 77.9449 76.7381 77.98C76.7624 78.0172 76.6306 78.1454 76.5414 78.3439C76.4482 78.5424 76.434 78.7284 76.3914 78.7326Z" fill="#263238"/>
<path d="M74.6862 1.04022C74.9133 0.461338 74.6375 -0.241589 74.1449 -0.61166C73.6522 -0.981731 72.9933 -1.06236 72.3891 -0.963124C71.7849 -0.865955 71.2172 -0.607525 70.6576 -0.353231C70.1508 -0.872157 69.3479 -1.07063 68.6647 -0.843213C67.9814 -0.615795 67.4482 0.0251095 67.3387 0.750779C66.9028 0.63707 66.4121 0.79006 66.1101 1.12912C65.808 1.47025 65.7107 1.98297 65.8668 2.413L68.6079 3.39503L71.5984 8.76622C72.4742 9.52704 73.9036 9.50636 74.7572 8.72074C75.6107 7.93511 75.7749 6.48377 75.1201 5.52035C75.2883 5.36943 75.4282 5.18749 75.5397 4.99109C76.0142 4.69131 76.3852 4.22614 76.5089 3.66793C76.7704 2.48742 75.8641 1.18287 74.6862 1.04022Z" fill="#263238"/>
<path d="M72.8723 12.236C72.702 11.3615 72.5844 10.764 72.5844 10.7702C72.5844 10.7702 74.2003 10.1293 74.0888 7.82619C74.0341 6.68083 73.6043 4.87803 73.2089 3.41222C72.8521 2.0932 71.6457 0.639791 70.3684 1.05948L66.5082 2.98219C66.1209 3.11037 66.052 3.48044 66.1432 3.88566L66.1493 4.08413L67.6517 10.4229L68.2862 13.2553C68.5681 14.4606 69.7034 15.2483 70.9057 15.0705C72.2378 14.8741 73.1339 13.5799 72.8723 12.236Z" fill="#FFBE9D"/>
<path d="M73.1838 4.94162C73.2203 5.09047 73.1251 5.24553 72.973 5.28688C72.8209 5.32823 72.6668 5.2414 72.6304 5.09047C72.5939 4.94162 72.6891 4.78656 72.8412 4.74521C72.9953 4.70593 73.1474 4.79276 73.1838 4.94162Z" fill="#263238"/>
<path d="M73.0175 4.50203C72.9911 4.54751 72.7458 4.43173 72.4437 4.49789C72.1416 4.55785 71.953 4.76459 71.9125 4.73358C71.8922 4.72117 71.9145 4.64468 71.9956 4.55371C72.0767 4.46274 72.2227 4.35937 72.4112 4.31802C72.5998 4.27874 72.7721 4.31596 72.8776 4.36764C72.987 4.4214 73.0317 4.48342 73.0175 4.50203Z" fill="#263238"/>
<path d="M70.2485 5.63001C70.285 5.77887 70.1897 5.93392 70.0376 5.97527C69.8856 6.01662 69.7315 5.92979 69.695 5.77887C69.6585 5.63001 69.7538 5.47496 69.9058 5.43361C70.0599 5.39226 70.214 5.48116 70.2485 5.63001Z" fill="#263238"/>
<path d="M70.1014 5.23335C70.075 5.27883 69.8297 5.16306 69.5276 5.22921C69.2255 5.28917 69.037 5.49591 68.9964 5.4649C68.9761 5.4525 68.9984 5.376 69.0795 5.28503C69.1606 5.19407 69.3066 5.0907 69.4952 5.04935C69.6837 5.01007 69.856 5.04728 69.9615 5.09897C70.0689 5.15272 70.1135 5.21267 70.1014 5.23335Z" fill="#263238"/>
<path d="M71.6296 7.17569C71.6256 7.15915 71.806 7.08473 72.1 6.98136C72.175 6.95655 72.244 6.92553 72.246 6.86971C72.2521 6.80976 72.2034 6.7312 72.1467 6.6485C72.0351 6.47483 71.9175 6.29083 71.7959 6.09856C71.3053 5.315 70.9322 4.66376 70.9626 4.64516C70.993 4.62448 71.4168 5.24471 71.9074 6.02827C72.027 6.22261 72.1406 6.40661 72.2501 6.58234C72.2967 6.66504 72.3676 6.75601 72.3535 6.88212C72.3453 6.94621 72.2967 6.99996 72.2501 7.02477C72.2034 7.05165 72.1608 7.05992 72.1223 7.07026C71.8223 7.15089 71.6337 7.19223 71.6296 7.17569Z" fill="#263238"/>
<path d="M72.5845 10.7683C72.5845 10.7683 71.1349 11.1798 69.4947 10.5988C69.4947 10.5988 70.555 12.0129 72.7001 11.3369L72.5845 10.7683Z" fill="#EB996E"/>
<path d="M70.1597 4.79411C70.1394 4.88301 69.8292 4.88094 69.4764 4.96984C69.1216 5.05047 68.8438 5.1952 68.7871 5.1249C68.7607 5.09182 68.8033 5.00499 68.9087 4.90782C69.0142 4.81065 69.1905 4.71141 69.4034 4.65973C69.6163 4.60804 69.817 4.61838 69.9549 4.65766C70.0928 4.69487 70.1678 4.75276 70.1597 4.79411Z" fill="#263238"/>
<path d="M72.9024 3.52386C72.8537 3.60655 72.5942 3.58795 72.2982 3.6479C72.0001 3.69959 71.7629 3.81123 71.6899 3.75127C71.6575 3.72026 71.6818 3.64377 71.7791 3.5528C71.8724 3.4639 72.0427 3.37087 72.2475 3.33365C72.4523 3.29644 72.6408 3.32125 72.7584 3.37087C72.874 3.41842 72.9226 3.48251 72.9024 3.52386Z" fill="#263238"/>
<path d="M67.456 1.5008C67.5452 1.94736 67.8372 2.34638 68.2305 2.56346C68.6238 2.77847 69.1125 2.80535 69.5261 2.63375C69.8464 2.50143 70.1789 2.25127 70.5033 2.37119C70.8459 2.4973 70.9534 2.96247 71.2717 3.14441C71.7259 3.40283 72.2733 2.9542 72.7923 2.99969C73.1937 3.03483 73.5039 3.35322 73.8182 3.60958C74.1324 3.86594 74.5683 4.08095 74.9231 3.88661C74.8279 3.54549 74.7326 3.20023 74.5643 2.89011C74.396 2.58 74.1446 2.30296 73.8222 2.17478C73.6438 2.10449 73.4512 2.07968 73.2809 1.99078C72.9139 1.79851 72.7517 1.36434 72.4841 1.04596C72.1395 0.634541 71.592 0.40919 71.0649 0.465011C70.6249 0.510495 70.2093 0.735845 69.7694 0.717238C69.4429 0.702766 69.1307 0.555978 68.8043 0.560113C68.1697 0.57045 67.6912 1.13899 67.3384 1.67653" fill="#263238"/>
<path d="M69.5938 1.97467C69.3039 1.95192 68.7058 1.8899 68.5091 1.67902C68.0833 1.22005 67.4467 0.980231 66.879 1.13322C66.3113 1.28621 65.8531 1.86716 65.8612 2.51013C65.1658 2.66312 64.5779 3.25234 64.3812 3.99248C64.1845 4.73262 64.3853 5.59681 64.8881 6.16329C65.0199 6.31214 65.2206 6.65534 65.2206 6.65534C65.2206 6.65534 64.959 6.98819 64.8597 7.21354C64.3974 8.25967 65.6544 8.66075 65.6544 8.66075C65.6585 9.36368 66.2931 9.35954 66.7006 9.35747C67.0919 9.35541 67.3332 10.4636 67.6515 10.4201L67.3291 6.99646C67.3676 7.013 67.4163 7.02334 67.4771 7.02334C68.2455 7.03781 68.0448 5.55546 67.7954 5.17092C68.0124 4.87528 68.2313 4.57343 68.3712 4.2261C68.5111 3.87671 68.5213 3.00632 68.4016 2.64038C68.6713 2.6011 69.7215 1.98294 69.5938 1.97467Z" fill="#263238"/>
<path d="M67.4436 7.17785C67.324 6.70855 66.7523 6.49973 66.3975 6.82225C66.2028 7.00005 66.0873 7.29776 66.2089 7.79601C66.5353 9.12744 67.7782 8.51755 67.7721 8.47827C67.7701 8.45553 67.5835 7.72779 67.4436 7.17785Z" fill="#FFBE9D"/>
<path d="M67.2524 8.07658C67.2463 8.07451 67.2341 8.09932 67.1997 8.1262C67.1672 8.15307 67.1044 8.18202 67.0314 8.17375C66.8813 8.15721 66.709 7.96287 66.6441 7.72511C66.6117 7.6052 66.6076 7.48322 66.6259 7.37779C66.6421 7.27028 66.6867 7.18551 66.7536 7.15657C66.8185 7.12349 66.8773 7.15244 66.9036 7.18551C66.93 7.21859 66.928 7.24754 66.9361 7.24754C66.9401 7.24961 66.9584 7.21859 66.9341 7.16484C66.9219 7.14003 66.8996 7.11315 66.8631 7.09455C66.8246 7.07594 66.7759 7.07594 66.7293 7.09248C66.6299 7.12556 66.563 7.2434 66.5428 7.35918C66.5164 7.47702 66.5184 7.61554 66.5549 7.74992C66.6299 8.01662 66.8266 8.23164 67.0273 8.23991C67.1246 8.23991 67.1956 8.19236 67.226 8.15101C67.2584 8.10966 67.2564 8.07865 67.2524 8.07658Z" fill="#EB996E"/>
<path d="M74.4453 5.32011C74.4372 5.30977 74.5629 5.22707 74.7292 5.02033C74.8914 4.81359 75.0901 4.46419 75.1367 3.98661C75.159 3.75093 75.1468 3.48423 75.0637 3.2196C74.9806 2.95703 74.8305 2.69033 74.5994 2.48566C74.1493 2.06804 73.4052 1.87576 72.7362 2.11559C72.6754 2.13626 72.6186 2.16727 72.5598 2.19208C72.505 2.22103 72.4523 2.2541 72.3996 2.28512L72.3185 2.3306L72.3165 2.23963C72.3145 2.07837 72.2557 1.92331 72.1523 1.80547C72.0509 1.68556 71.9191 1.59459 71.7772 1.53257C71.4933 1.40439 71.1872 1.40232 70.9074 1.46848C70.3478 1.59873 69.8734 1.85922 69.4253 1.91091C68.9813 1.9688 68.6123 1.85716 68.4136 1.70417C68.3102 1.63181 68.2535 1.54911 68.215 1.49742C68.1825 1.43954 68.1663 1.41059 68.1704 1.40852C68.1805 1.40025 68.2352 1.53464 68.4359 1.67109C68.6326 1.80754 68.9874 1.90264 69.4152 1.83855C69.6281 1.80754 69.8552 1.72898 70.0964 1.63801C70.3377 1.54704 70.5972 1.43954 70.8871 1.37338C71.0331 1.34237 71.1852 1.31756 71.3453 1.32583C71.5035 1.3341 71.6637 1.37131 71.8177 1.43747C71.9698 1.50363 72.1158 1.60286 72.2313 1.73725C72.3489 1.87163 72.4199 2.05356 72.4219 2.2417L72.3408 2.19622C72.3956 2.1652 72.4523 2.12799 72.5111 2.09698C72.572 2.0701 72.6328 2.03702 72.6977 2.01635C73.4093 1.76205 74.1878 1.9688 74.6623 2.4133C74.9035 2.63244 75.0617 2.91775 75.1448 3.19479C75.2279 3.47389 75.236 3.75093 75.2076 3.99695C75.1509 4.49107 74.9339 4.84667 74.7575 5.04927C74.6683 5.15058 74.5893 5.22294 74.5305 5.26222C74.4778 5.30357 74.4473 5.32424 74.4453 5.32011Z" fill="#455A64"/>
<path d="M74.1789 0.644968C74.1708 0.65944 74.041 0.539529 73.7592 0.49818C73.6213 0.479573 73.4449 0.479573 73.2604 0.543664C73.0759 0.601552 72.8813 0.727666 72.7475 0.924072L72.6988 0.996432L72.6684 0.913735C72.5042 0.467169 72.0257 0.043345 71.4317 -0.0228129C70.9856 -0.0744988 70.5801 0.130177 70.2436 0.326583C69.903 0.529192 69.5928 0.727665 69.3008 0.822767C69.0109 0.926139 68.7554 0.938544 68.5871 0.907532C68.502 0.89306 68.4391 0.872386 68.3986 0.853779C68.358 0.835172 68.3357 0.824835 68.3378 0.8207C68.3418 0.810363 68.429 0.847577 68.5932 0.864116C68.7575 0.880656 68.9987 0.857914 69.2765 0.74834C69.5563 0.647036 69.8523 0.448562 70.1949 0.237684C70.3673 0.134312 70.5538 0.0288729 70.7626 -0.0455547C70.9714 -0.12205 71.2066 -0.159264 71.4438 -0.134454C72.0805 -0.0620942 72.5873 0.394809 72.7536 0.876521L72.6745 0.866184C72.8266 0.649103 73.0435 0.520922 73.2422 0.465101C73.4409 0.403078 73.6274 0.411348 73.7713 0.438225C73.9173 0.467169 74.0227 0.520922 74.0897 0.562271C74.1505 0.613957 74.1809 0.642901 74.1789 0.644968Z" fill="#455A64"/>
<path d="M71.5115 7.78787C71.4202 7.6969 71.2824 7.66796 71.1546 7.68243C71.035 7.6969 70.889 7.80441 70.812 7.93672C70.81 7.93879 70.8079 7.94086 70.8059 7.94499C70.8018 7.9512 70.7978 7.95533 70.7937 7.96153L70.7978 7.9574C70.7694 8.00495 70.7532 8.0587 70.7593 8.11452C70.7714 8.2365 70.8627 8.33987 70.9701 8.39363C71.1404 8.48046 71.3675 8.45565 71.5013 8.31507C71.6392 8.17448 71.6493 7.92432 71.5115 7.78787Z" fill="#E8505B"/>
<path d="M71.613 8.4302C71.5968 8.43433 71.5765 8.36817 71.5238 8.28134C71.4711 8.19451 71.3758 8.087 71.242 8.02498C71.1061 7.96296 70.9642 7.96089 70.8669 7.97743C70.7675 7.9919 70.7067 8.02085 70.6986 8.00637C70.6905 7.99604 70.7412 7.94228 70.8486 7.903C70.9541 7.86372 71.1223 7.85132 71.2866 7.92574C71.4488 8.00224 71.5501 8.14076 71.5907 8.2462C71.6312 8.35577 71.6251 8.42813 71.613 8.4302Z" fill="#263238"/>
<path d="M67.4756 8.68783C67.4857 8.68163 67.5344 8.79121 67.4574 8.94833C67.4188 9.02276 67.3499 9.10546 67.2404 9.14681C67.133 9.19022 66.9931 9.17368 66.8836 9.10339C66.7721 9.0331 66.6991 8.91319 66.691 8.79327C66.6808 8.67543 66.7254 8.57619 66.7741 8.50797C66.8795 8.36945 66.9971 8.36738 66.9971 8.37979C67.0032 8.39633 66.9079 8.42734 66.8369 8.55138C66.8025 8.61134 66.7761 8.6961 66.7883 8.78294C66.7984 8.86977 66.8552 8.9566 66.9403 9.01242C67.0255 9.06617 67.1289 9.08065 67.21 9.05377C67.2931 9.02689 67.356 8.96694 67.3945 8.90905C67.4715 8.78914 67.4573 8.68783 67.4756 8.68783Z" fill="#E8505B"/>
<path d="M66.7903 8.60367C66.8024 8.60987 66.7842 8.67397 66.695 8.71738C66.6524 8.73806 66.5916 8.75046 66.5267 8.73392C66.4598 8.71738 66.3969 8.66776 66.3604 8.59954C66.324 8.53131 66.3179 8.44862 66.3402 8.38452C66.3625 8.32043 66.405 8.27495 66.4456 8.25014C66.5308 8.19845 66.5936 8.21913 66.5916 8.23153C66.5936 8.24807 66.5409 8.25841 66.4922 8.3101C66.4395 8.35972 66.403 8.45688 66.4537 8.54785C66.5024 8.64089 66.6017 8.66156 66.6706 8.64502C66.7416 8.63262 66.7781 8.5954 66.7903 8.60367Z" fill="#E8505B"/>
<path d="M69.0218 26.9648C69.0218 26.9648 74.0418 27.2625 77.008 27.2894C79.3071 27.3101 80.331 26.6878 80.7892 25.1827C81.1744 23.9174 80.3452 21.4944 80.3452 21.4944C78.7921 21.5027 77.8311 21.7218 76.8316 22.1994L77.0972 23.3075L69.0036 24.0187L69.0218 26.9648Z" fill="#FFBE9D"/>
<path d="M78.7869 24.4913C78.7585 24.5099 78.5233 24.0613 78.0286 23.7243C77.54 23.379 77.0433 23.3191 77.0514 23.286C77.0534 23.2736 77.1771 23.2695 77.3737 23.3149C77.5684 23.3584 77.834 23.4597 78.0874 23.6375C78.3408 23.8153 78.5314 24.0282 78.6409 24.1977C78.7544 24.3673 78.797 24.4872 78.7869 24.4913Z" fill="#EB996E"/>
<path d="M67.1829 22.193C67.1829 22.193 65.6298 22.5734 64.4904 23.3508L65.7028 26.7124C66.1083 27.8164 67.3491 28.3581 68.3304 27.7854C69.8571 26.8964 70.3964 24.2997 70.3964 24.2997L72.0751 16.8818L69.2955 15.1058L67.1829 22.193Z" fill="#FFBE9D"/>
<path d="M69.2966 15.1044L69.4081 12.6648L68.7877 10.1942C68.7533 10.0578 68.7371 9.88619 68.8445 9.8035C68.958 9.71666 69.1284 9.7208 69.2196 9.8159C69.3899 9.9937 70.2009 12.1624 70.2009 12.1624C70.2009 12.1624 71.4315 11.4078 71.6505 11.3727C71.8695 11.3355 72.1432 12.0115 72.1614 12.0632C72.1776 12.117 72.1634 12.516 72.1634 12.516C72.1634 12.516 72.9237 12.5387 72.9927 12.6462C73.0616 12.7517 73.0799 13.3037 73.0799 13.3037C73.0799 13.3037 73.4022 13.4091 73.4529 13.6572C73.5056 13.9053 73.609 14.3146 73.457 14.4056C73.3049 14.4945 72.9846 14.6744 72.9846 14.6744C72.9846 14.6744 72.8548 15.9396 72.8224 16.0554C72.7899 16.1712 72.0763 16.8803 72.0763 16.8803L69.2966 15.1044Z" fill="#FFBE9D"/>
<path d="M66.7117 27.8362C66.7157 27.83 66.7867 27.8796 66.9448 27.9333C67.101 27.9871 67.3463 28.0346 67.6605 27.9912C67.9728 27.9478 68.3559 27.8093 68.6986 27.5033C69.0372 27.1911 69.3798 26.7776 69.6637 26.2587C69.8056 25.9982 69.9333 25.7129 70.0387 25.4049C70.1482 25.0968 70.2192 24.7619 70.2982 24.4146C70.4584 23.7178 70.6287 22.9674 70.8112 22.1714C71.1761 20.5774 71.5857 18.7932 72.0277 16.8726L72.0317 16.8581L72.0419 16.8477C72.1817 16.7072 72.3216 16.5645 72.4615 16.4177C72.5305 16.3433 72.5994 16.2689 72.6663 16.1924C72.6987 16.1531 72.7332 16.1138 72.7575 16.0766C72.7819 16.0518 72.7819 16.0022 72.792 15.9484C72.8468 15.5349 72.8893 15.107 72.9339 14.6769L72.936 14.6501L72.9603 14.6356C73.088 14.5632 73.2157 14.4888 73.3475 14.4144C73.3779 14.3958 73.4205 14.3751 73.4388 14.3606C73.455 14.3482 73.4692 14.3234 73.4753 14.2903C73.4895 14.2283 73.4854 14.1497 73.4773 14.0753C73.459 13.9306 73.4246 13.7611 73.3881 13.6267C73.3374 13.5006 73.1995 13.4117 73.0657 13.3621L73.0313 13.3496L73.0292 13.3145C73.0252 13.1946 73.0171 13.0705 73.0029 12.9486C72.9968 12.8865 72.9887 12.8266 72.9765 12.7666C72.9704 12.7398 72.9623 12.7067 72.9542 12.6901C72.9481 12.6757 72.9502 12.686 72.942 12.6777C72.9319 12.6736 72.9218 12.6674 72.9076 12.6633C72.6825 12.5992 72.4169 12.5909 72.1655 12.5785L72.1128 12.5764L72.1148 12.5227C72.1189 12.3945 72.125 12.2518 72.1189 12.1195C72.123 12.0844 72.0905 12.0306 72.0723 11.981C72.05 11.9314 72.0277 11.8818 72.0033 11.8342C71.9547 11.737 71.8999 11.644 71.8371 11.5613C71.8046 11.52 71.7702 11.4828 71.7337 11.4579C71.6931 11.4331 71.6749 11.4269 71.6262 11.4455C71.533 11.4786 71.4356 11.5303 71.3404 11.5799C70.9612 11.7805 70.5943 11.9996 70.2334 12.2188L70.1807 12.2498L70.1584 12.1919C69.9657 11.7019 69.7772 11.2181 69.5907 10.7426C69.4974 10.5049 69.4041 10.2671 69.3129 10.0335C69.2784 9.91564 69.1973 9.84741 69.0899 9.82054C68.9824 9.79159 68.877 9.82674 68.8263 9.91977C68.802 9.96319 68.7898 10.0169 68.7959 10.0666C68.802 10.112 68.8243 10.1823 68.8365 10.2382C68.8669 10.3581 68.8973 10.4759 68.9277 10.5938C68.9885 10.8294 69.0493 11.0651 69.1081 11.2967C69.2278 11.7598 69.3453 12.2167 69.4589 12.6612L69.4609 12.6695V12.6777C69.4204 13.5274 69.3818 14.342 69.3453 15.1173V15.1235L69.3433 15.1297C68.5769 17.6727 67.9423 19.7814 67.4963 21.2576C67.2733 21.9895 67.0969 22.5663 66.9753 22.9632C66.9144 23.1555 66.8678 23.3043 66.8354 23.4098C66.8029 23.5111 66.7826 23.5628 66.7826 23.5628C66.7826 23.5628 66.7948 23.509 66.8212 23.4077C66.8516 23.3002 66.8942 23.1514 66.9489 22.957C67.0645 22.558 67.2327 21.9791 67.4476 21.2431C67.8836 19.7628 68.508 17.6499 69.2582 15.1028L69.2561 15.1132C69.2906 14.3379 69.3271 13.5233 69.3656 12.6736L69.3676 12.6881C69.2521 12.2436 69.1345 11.7887 69.0128 11.3236C68.952 11.092 68.8912 10.8584 68.8304 10.6206C68.8 10.5028 68.7695 10.3829 68.7371 10.265C68.7229 10.2009 68.7047 10.1534 68.6925 10.0769C68.6844 10.0045 68.7006 9.93011 68.7371 9.86602C68.7736 9.80193 68.8304 9.75024 68.9013 9.72543C68.9723 9.70062 69.0433 9.70269 69.1102 9.71923C69.1771 9.73577 69.2419 9.76678 69.2967 9.8164C69.3514 9.86188 69.3879 9.94045 69.4062 9.9942C69.4974 10.2278 69.5907 10.4656 69.6839 10.7033C69.8705 11.1788 70.061 11.6626 70.2536 12.1526L70.1786 12.1257C70.5415 11.9066 70.9085 11.6874 71.2917 11.4828C71.389 11.4331 71.4823 11.3814 71.5918 11.3422C71.6222 11.3339 71.6506 11.3215 71.6931 11.3277C71.7296 11.3339 71.7641 11.3484 71.7884 11.367C71.8432 11.4021 71.8817 11.4476 71.9162 11.4931C71.9871 11.5841 72.0419 11.6833 72.0925 11.7846C72.1169 11.8342 72.1412 11.8859 72.1655 11.9376C72.1838 11.9913 72.2182 12.0348 72.2223 12.1133C72.2284 12.2601 72.2223 12.3966 72.2182 12.5289L72.1676 12.4731C72.4291 12.4875 72.6805 12.4917 72.942 12.564C72.9583 12.5682 72.9765 12.5785 72.9948 12.5868C73.011 12.595 73.0434 12.624 73.0475 12.6405C73.0677 12.6798 73.0718 12.7108 73.0799 12.746C73.0941 12.8121 73.1022 12.8741 73.1083 12.9382C73.1225 13.0643 73.1306 13.1884 73.1346 13.3124L73.0982 13.2628C73.2543 13.3228 73.4104 13.4158 73.4854 13.5895C73.5341 13.759 73.5604 13.9037 73.5827 14.067C73.5908 14.1477 73.5969 14.2304 73.5787 14.3193C73.5706 14.3627 73.5482 14.4123 73.5057 14.4475C73.4631 14.4785 73.4367 14.4888 73.4023 14.5095C73.2705 14.5839 73.1407 14.6583 73.013 14.7307L73.0394 14.6893C72.9948 15.1214 72.9502 15.5473 72.8954 15.9649L72.8832 16.0456C72.8812 16.0704 72.863 16.1159 72.8447 16.1365C72.8123 16.1841 72.7778 16.2234 72.7454 16.2627C72.6764 16.3412 72.6075 16.4177 72.5366 16.4921C72.3967 16.641 72.2547 16.7837 72.1148 16.9242L72.129 16.8994C71.683 18.818 71.2694 20.6001 70.8984 22.1941C70.7118 22.9901 70.5375 23.7385 70.3753 24.4352C70.2942 24.7826 70.2192 25.1216 70.1077 25.4317C69.9982 25.7439 69.8664 26.0313 69.7224 26.2939C69.4305 26.8169 69.0818 27.2325 68.7351 27.5447C68.3803 27.8548 67.987 27.9912 67.6707 28.0284C67.3503 28.0677 67.0989 28.0119 66.9448 27.954C66.8658 27.9251 66.809 27.8961 66.7725 27.8754C66.7299 27.8486 66.7097 27.8382 66.7117 27.8362Z" fill="#EB996E"/>
<path d="M72.1614 12.5129C72.1614 12.5274 72.0925 12.5357 71.985 12.5419C71.8775 12.5481 71.7316 12.5522 71.5815 12.5915C71.4315 12.6308 71.3099 12.7073 71.2369 12.7796C71.1619 12.8499 71.1294 12.9099 71.1152 12.9037C71.1031 12.8995 71.1112 12.8251 71.1801 12.73C71.247 12.6349 71.3828 12.5336 71.5532 12.4881C71.7235 12.4447 71.8775 12.455 71.987 12.4674C72.0985 12.4799 72.1634 12.4985 72.1614 12.5129Z" fill="#EB996E"/>
<path d="M71.5663 12.5372C71.54 12.5268 71.5379 12.4627 71.5623 12.3945C71.5866 12.3263 71.6292 12.2787 71.6576 12.2891C71.6839 12.2994 71.6859 12.3635 71.6616 12.4317C71.6353 12.5 71.5927 12.5475 71.5663 12.5372Z" fill="#EB996E"/>
<path d="M73.1133 13.2868C73.1133 13.3178 72.8417 13.3509 72.5112 13.3716C72.347 13.386 72.2253 13.446 72.1767 13.5349C72.124 13.6197 72.1402 13.69 72.126 13.6941C72.1159 13.7044 72.0611 13.6238 72.1098 13.4998C72.1321 13.4419 72.1828 13.3778 72.2537 13.3364C72.3247 13.2951 72.4119 13.2744 72.497 13.2641C72.8396 13.2413 73.1133 13.2579 73.1133 13.2868Z" fill="#EB996E"/>
<path d="M72.9764 14.0301C73.0048 14.0321 73.0231 14.1851 73.015 14.3712C73.0069 14.5593 72.9764 14.7082 72.9481 14.7082C72.9197 14.7061 72.9014 14.5531 72.9095 14.367C72.9176 14.1789 72.9481 14.028 72.9764 14.0301Z" fill="#EB996E"/>
<path d="M73.8167 19.6L73.9972 18.9653C74.0336 18.8371 74.1898 18.7978 74.281 18.8929L74.5162 19.1369L74.6622 18.5415C74.7007 18.3843 74.9115 18.3637 74.9805 18.5084L75.313 19.2134L73.8167 19.6Z" fill="white"/>
<path d="M75.3169 19.4858C75.323 19.5147 75.0026 19.6202 74.6012 19.7215C74.1977 19.8228 73.8673 19.8827 73.8592 19.8538C73.8531 19.8249 74.1734 19.7194 74.5748 19.6181C74.9763 19.5168 75.3088 19.4569 75.3169 19.4858Z" fill="white"/>
<path d="M63.2599 15.9515C63.2639 15.9556 63.1848 16.03 63.0794 16.1975C62.976 16.3629 62.8604 16.6296 62.8037 16.979C62.7449 17.3263 62.7408 17.7501 62.7672 18.2174C62.7895 18.6846 62.826 19.1994 62.8827 19.7369C62.9943 20.812 63.1646 21.7775 63.3105 22.4701C63.3835 22.8174 63.4484 23.0965 63.493 23.2888C63.5133 23.3736 63.5295 23.448 63.5457 23.51C63.5579 23.5617 63.562 23.5886 63.562 23.5886C63.562 23.5886 63.5518 23.5638 63.5376 23.5121C63.5214 23.4501 63.5011 23.3777 63.4768 23.2929C63.4261 23.1007 63.3572 22.8236 63.2822 22.4763C63.1281 21.7837 62.9537 20.8182 62.8422 19.7411C62.7854 19.2036 62.751 18.6888 62.7307 18.2195C62.7064 17.7522 62.7124 17.3243 62.7773 16.9728C62.8381 16.6213 62.9578 16.3526 63.0672 16.1892C63.1747 16.0218 63.2599 15.9515 63.2599 15.9515Z" fill="white"/>
<path d="M67.5259 13.1412C67.5259 13.1433 67.5117 13.1516 67.4813 13.166C67.4407 13.1867 67.3961 13.2074 67.3475 13.2301C67.2319 13.286 67.0636 13.3687 66.8629 13.4824C66.4574 13.7036 65.9181 14.0468 65.3403 14.4541C64.7625 14.8593 64.2475 15.2438 63.8744 15.5167C63.7021 15.6408 63.5541 15.7483 63.4284 15.8372C63.3838 15.8682 63.3432 15.8971 63.3068 15.9219C63.2784 15.9405 63.2642 15.9509 63.2621 15.9488C63.2621 15.9467 63.2743 15.9364 63.3007 15.9137C63.3372 15.8847 63.3757 15.8558 63.4183 15.8227C63.5399 15.7297 63.6859 15.618 63.8562 15.4898C64.2272 15.2107 64.7361 14.8221 65.316 14.4168C65.8958 14.0096 66.4392 13.6705 66.8487 13.4555C67.0515 13.3459 67.2218 13.2653 67.3414 13.2136C67.3921 13.1929 67.4367 13.1743 67.4792 13.1557C67.5097 13.1454 67.5259 13.1412 67.5259 13.1412Z" fill="white"/>
<path d="M77.1948 14.4866C77.1927 14.4887 77.1826 14.4784 77.1603 14.4597C77.1319 14.4349 77.1015 14.4081 77.0691 14.3791C76.99 14.3109 76.8704 14.2137 76.7143 14.1083C76.4041 13.8933 75.9418 13.6514 75.4106 13.4364C74.8794 13.2193 74.3827 13.0663 74.0218 12.965C73.8414 12.9133 73.6934 12.8761 73.592 12.8513C73.5514 12.841 73.5129 12.8306 73.4744 12.8203C73.448 12.812 73.4338 12.8079 73.4338 12.8058C73.4338 12.8037 73.448 12.8058 73.4764 12.8099C73.5149 12.8161 73.5535 12.8244 73.596 12.8327C73.6994 12.8534 73.8474 12.8864 74.0299 12.934C74.3949 13.027 74.8936 13.1779 75.4268 13.395C75.9601 13.6121 76.4243 13.8602 76.7305 14.0814C77.0427 14.3026 77.1948 14.4866 77.1948 14.4866Z" fill="white"/>
<path d="M67.5835 30.2671C67.5814 30.2692 67.5531 30.2609 67.5044 30.2403C67.4557 30.2196 67.3848 30.1844 67.3037 30.1307C67.1435 30.0273 66.9286 29.8268 66.8617 29.5229C66.7948 29.2252 66.8576 28.9419 66.9408 28.7662C66.9813 28.6773 67.0239 28.6091 67.0584 28.5656C67.0908 28.5222 67.1131 28.5016 67.1151 28.5036C67.1212 28.5078 67.0421 28.6008 66.9692 28.7786C66.8962 28.9543 66.8394 29.2272 66.9043 29.5125C66.9651 29.802 67.1678 29.9984 67.3199 30.1059C67.476 30.2155 67.5875 30.2589 67.5835 30.2671Z" fill="white"/>
<path d="M66.9372 28.0297C66.9494 28.0256 66.992 28.1434 67.0345 28.2902C67.0771 28.437 67.1015 28.559 67.0913 28.561C67.0791 28.5652 67.0366 28.4473 66.994 28.3005C66.9514 28.1558 66.9271 28.0338 66.9372 28.0297Z" fill="white"/>
<path d="M69.6786 74.3815L75.8624 74.3505L75.7509 52.5473L75.6941 30.37L67.3187 30.2645L65.8123 33.1589C65.204 34.327 64.7925 35.5964 64.6546 36.9113C64.5492 37.914 65.2851 41.1806 65.5426 42.0117L67.8478 49.4669L69.6786 74.3815Z" fill="#23263B"/>
<path d="M77.5094 30.3979L84.3054 49.2881C85.1043 51.8207 84.8366 54.3305 83.4681 56.6688L75.5793 72.371L71.1432 66.7124L77.7446 52.6456L71.9258 43.032L72.905 30.4186L75.6462 30.3731L77.5094 30.3979Z" fill="#23263B"/>
<path d="M75.1286 36.7278C75.1286 36.7278 75.1327 36.7609 75.1388 36.825C75.1428 36.8932 75.1489 36.9883 75.157 37.1103C75.1712 37.3667 75.1894 37.7347 75.2138 38.2061C75.2584 39.1633 75.3253 40.5381 75.4044 42.2355C75.4814 43.9391 75.5726 45.9631 75.674 48.2104C75.7227 49.3351 75.7754 50.5156 75.8301 51.7395C75.8686 52.3514 75.8504 52.9758 75.8585 53.6064C75.8605 54.239 75.8626 54.8799 75.8646 55.5312C75.8727 60.7266 75.8808 65.43 75.8869 68.8392C75.8849 70.5387 75.8828 71.9156 75.8808 72.8728C75.8788 73.3442 75.8747 73.7142 75.8747 73.9685C75.8727 74.0905 75.8707 74.1856 75.8707 74.2538C75.8686 74.3179 75.8646 74.351 75.8646 74.351C75.8646 74.351 75.8605 74.3179 75.8585 74.2538C75.8565 74.1856 75.8545 74.0905 75.8524 73.9685C75.8504 73.7122 75.8443 73.3442 75.8403 72.8728C75.8342 71.9156 75.824 70.5387 75.8119 68.8392C75.7977 65.43 75.7794 60.7266 75.7592 55.5312C75.7571 54.882 75.7551 54.239 75.7531 53.6084C75.747 52.9758 75.7652 52.3514 75.7267 51.7416C75.674 50.5176 75.6253 49.3371 75.5767 48.2124C75.4834 45.9651 75.4003 43.9391 75.3293 42.2376C75.2624 40.5402 75.2097 39.1653 75.1712 38.2081C75.155 37.7367 75.1428 37.3687 75.1347 37.1124C75.1327 36.9904 75.1286 36.8953 75.1266 36.8271C75.1266 36.7609 75.1286 36.7278 75.1286 36.7278Z" fill="#455A64"/>
<path d="M74.9752 30.7708C74.9833 30.7708 74.9975 30.8431 75.0178 30.9754C75.0381 31.1077 75.0644 31.3021 75.0908 31.5398C75.1455 32.0174 75.2023 32.6811 75.2347 33.415C75.2672 34.1489 75.2692 34.8147 75.257 35.2964C75.251 35.5362 75.2429 35.7326 75.2347 35.867C75.2266 36.0014 75.2165 36.0758 75.2104 36.0758C75.1942 36.0758 75.1901 35.7781 75.1841 35.2984C75.1759 34.8188 75.1638 34.1551 75.1313 33.4233C75.0989 32.6914 75.0543 32.0298 75.0178 31.5502C74.9813 31.0705 74.959 30.7728 74.9752 30.7708Z" fill="#455A64"/>
<path d="M73.6122 31.1983C73.6223 31.2128 73.5067 31.2665 73.4743 31.434C73.4601 31.5146 73.4763 31.618 73.5534 31.6862C73.6264 31.7565 73.7541 31.7896 73.8575 31.742C73.9609 31.6945 74.0177 31.5725 74.0136 31.4712C74.0136 31.3658 73.9467 31.2872 73.8778 31.2458C73.7318 31.1611 73.6162 31.2148 73.6122 31.1983C73.6122 31.1921 73.6345 31.1694 73.6852 31.1549C73.7358 31.1404 73.821 31.1363 73.9122 31.1776C74.0014 31.2169 74.1028 31.3203 74.1109 31.465C74.1211 31.6035 74.0521 31.7668 73.9001 31.8392C73.746 31.9074 73.5797 31.8537 73.4844 31.7565C73.381 31.6552 73.3709 31.5105 73.4013 31.4154C73.4297 31.3161 73.4865 31.2541 73.5331 31.2252C73.5777 31.1962 73.6101 31.1921 73.6122 31.1983Z" fill="#455A64"/>
<path d="M70.366 30.8229C70.372 30.8209 70.3964 30.8911 70.4207 31.0214C70.445 31.1516 70.4613 31.346 70.439 31.5837C70.4166 31.8215 70.3457 32.1027 70.2058 32.3838C70.0659 32.6671 69.8469 32.9482 69.555 33.1653C69.259 33.3783 68.9285 33.4982 68.6203 33.5437C68.3121 33.5892 68.0283 33.5685 67.8012 33.5127C67.5721 33.4589 67.3978 33.3824 67.2842 33.3163C67.1707 33.2501 67.1159 33.2046 67.118 33.1984C67.1281 33.1777 67.3674 33.3514 67.8154 33.4382C68.2513 33.5271 68.9265 33.4858 69.4921 33.0764C70.0537 32.6609 70.3072 32.022 70.3639 31.5734C70.4308 31.1144 70.3437 30.8271 70.366 30.8229Z" fill="#455A64"/>
<path d="M78.3226 32.6329C78.3226 32.6433 78.1685 32.6557 77.9333 32.5854C77.6981 32.5172 77.39 32.3497 77.1345 32.0644C76.8811 31.7791 76.7473 31.4483 76.7027 31.2043C76.6581 30.9583 76.6844 30.8033 76.6946 30.8053C76.7128 30.8053 76.7148 30.9562 76.7756 31.1878C76.8344 31.4173 76.9723 31.7233 77.2115 31.9941C77.4528 32.2629 77.7367 32.4324 77.9556 32.5151C78.1766 32.5978 78.3246 32.6123 78.3226 32.6329Z" fill="#455A64"/>
<path d="M80.7361 52.9992C80.7442 53.0095 80.6185 53.1356 80.3772 53.2907C80.2556 53.3651 80.1035 53.4478 79.915 53.4954C79.7305 53.545 79.5054 53.5512 79.2926 53.4788C78.8607 53.3341 78.591 53.0033 78.4268 52.7759C78.2626 52.5423 78.1795 52.3851 78.1896 52.3789C78.2018 52.3686 78.3092 52.5113 78.4856 52.7304C78.662 52.9434 78.9296 53.2452 79.325 53.3775C79.7224 53.5119 80.1015 53.3548 80.3387 53.2245C80.5861 53.0901 80.726 52.9847 80.7361 52.9992Z" fill="#455A64"/>
<path d="M79.1892 54.206C79.1649 54.2226 78.879 53.8546 78.5486 53.3811C78.2181 52.9077 77.9707 52.5107 77.9951 52.4942C78.0194 52.4776 78.3053 52.8457 78.6357 53.3191C78.9642 53.7905 79.2136 54.1895 79.1892 54.206Z" fill="#455A64"/>
<path d="M68.7989 37.462C68.7725 37.4723 68.6995 37.3545 68.6387 37.1953C68.5758 37.0382 68.5475 36.8996 68.5758 36.8893C68.6022 36.879 68.6752 36.9968 68.736 37.156C68.7989 37.3131 68.8252 37.4516 68.7989 37.462Z" fill="#FAFAFA"/>
<path d="M72.7249 38.0325C72.6965 38.0325 72.6722 37.9291 72.6722 37.803C72.6722 37.6769 72.6965 37.5735 72.7249 37.5735C72.7533 37.5735 72.7776 37.6769 72.7776 37.803C72.7776 37.9312 72.7553 38.0325 72.7249 38.0325Z" fill="#FAFAFA"/>
<path d="M71.1124 40.2058C71.084 40.2078 71.0516 40.0817 71.0415 39.9225C71.0313 39.7654 71.0455 39.6351 71.0759 39.6331C71.1043 39.631 71.1367 39.7571 71.1469 39.9163C71.155 40.0734 71.1408 40.2037 71.1124 40.2058Z" fill="#FAFAFA"/>
<path d="M68.1657 41.806C68.1413 41.8246 68.0582 41.7481 67.9487 41.6675C67.8413 41.5869 67.7439 41.529 67.7541 41.5C67.7622 41.4732 67.8879 41.4897 68.0116 41.5807C68.1332 41.6716 68.188 41.7895 68.1657 41.806Z" fill="#FAFAFA"/>
<path d="M73.3613 43.8275C73.337 43.811 73.3674 43.72 73.4303 43.6269C73.4931 43.5318 73.5621 43.4678 73.5864 43.4843C73.6107 43.5008 73.5803 43.5918 73.5175 43.6848C73.4546 43.782 73.3857 43.844 73.3613 43.8275Z" fill="#FAFAFA"/>
<path d="M70.1435 44.3978C70.1151 44.3978 70.0908 44.2262 70.0908 44.0174C70.0908 43.8066 70.1151 43.637 70.1435 43.637C70.1719 43.637 70.1962 43.8086 70.1962 44.0174C70.1962 44.2262 70.1719 44.3978 70.1435 44.3978Z" fill="#FAFAFA"/>
<path d="M69.103 46.7198C69.0868 46.7447 68.9794 46.695 68.8658 46.6103C68.7523 46.5255 68.6732 46.4387 68.6915 46.4139C68.7077 46.3891 68.8151 46.4387 68.9287 46.5234C69.0422 46.6082 69.1193 46.695 69.103 46.7198Z" fill="#FAFAFA"/>
<path d="M72.352 47.525C72.3642 47.5519 72.2973 47.6077 72.206 47.6512C72.1128 47.6925 72.0276 47.7049 72.0155 47.678C72.0033 47.6512 72.0702 47.5953 72.1614 47.5519C72.2547 47.5106 72.3399 47.4982 72.352 47.525Z" fill="#FAFAFA"/>
<path d="M70.1465 51.2982C70.1201 51.3106 70.0147 51.1514 69.9133 50.9406C69.8099 50.7297 69.747 50.5478 69.7734 50.5353C69.7998 50.5229 69.9052 50.6821 70.0066 50.893C70.11 51.1039 70.1728 51.2838 70.1465 51.2982Z" fill="#FAFAFA"/>
<path d="M73.7348 50.959C73.7084 50.9445 73.7551 50.806 73.8382 50.6468C73.9213 50.4896 74.0085 50.3718 74.0348 50.3863C74.0612 50.4007 74.0146 50.5393 73.9314 50.6985C73.8483 50.8556 73.7611 50.9734 73.7348 50.959Z" fill="#FAFAFA"/>
<path d="M72.1642 54.1615C72.1338 54.1574 72.1358 53.9941 72.1054 53.7997C72.077 53.6054 72.0243 53.4503 72.0527 53.4379C72.077 53.4235 72.1784 53.5702 72.2108 53.7832C72.2433 53.9961 72.1906 54.1677 72.1642 54.1615Z" fill="#FAFAFA"/>
<path d="M70.4816 55.9914C70.4593 56.0121 70.3579 55.9335 70.2565 55.8177C70.1531 55.702 70.0862 55.5924 70.1085 55.5717C70.1308 55.5511 70.2322 55.6296 70.3336 55.7454C70.437 55.8612 70.5039 55.9707 70.4816 55.9914Z" fill="#FAFAFA"/>
<path d="M74.5648 56.6843C74.5446 56.6636 74.6196 56.552 74.7311 56.4362C74.8446 56.3204 74.9521 56.2418 74.9723 56.2625C74.9926 56.2832 74.9176 56.3948 74.8061 56.5106C74.6946 56.6264 74.5851 56.705 74.5648 56.6843Z" fill="#FAFAFA"/>
<path d="M72.2168 59.4241C72.1884 59.42 72.1884 59.2629 72.2168 59.0727C72.2452 58.8825 72.2918 58.7315 72.3202 58.7377C72.3486 58.7419 72.3486 58.899 72.3202 59.0892C72.2918 59.2773 72.2452 59.4283 72.2168 59.4241Z" fill="#FAFAFA"/>
<path d="M70.6356 60.7535C70.6113 60.768 70.5221 60.6625 70.4369 60.5157C70.3538 60.3689 70.3051 60.2387 70.3295 60.2242C70.3538 60.2098 70.443 60.3152 70.5281 60.462C70.6133 60.6067 70.662 60.737 70.6356 60.7535Z" fill="#FAFAFA"/>
<path d="M74.4429 62.4303C74.4591 62.4551 74.3557 62.5605 74.2118 62.666C74.0678 62.7714 73.936 62.8376 73.9198 62.8127C73.9036 62.7879 74.007 62.6825 74.151 62.577C74.2949 62.4737 74.4267 62.4075 74.4429 62.4303Z" fill="#FAFAFA"/>
<path d="M71.2724 64.6072C71.244 64.5968 71.2805 64.4294 71.2967 64.2247C71.315 64.02 71.3089 63.8484 71.3373 63.8443C71.3656 63.8381 71.4204 64.0138 71.4001 64.235C71.3839 64.4562 71.2987 64.6196 71.2724 64.6072Z" fill="#FAFAFA"/>
<path d="M72.5375 67.7336C72.5152 67.7522 72.43 67.6819 72.3469 67.5765C72.2638 67.4711 72.2151 67.3718 72.2394 67.3532C72.2617 67.3346 72.3469 67.4049 72.43 67.5103C72.5111 67.6137 72.5598 67.715 72.5375 67.7336Z" fill="#FAFAFA"/>
<path d="M71.1538 69.8284C71.1295 69.845 71.018 69.723 70.9044 69.5535C70.7909 69.3839 70.7179 69.2351 70.7422 69.2185C70.7666 69.202 70.8781 69.324 70.9916 69.4935C71.1051 69.661 71.1781 69.8119 71.1538 69.8284Z" fill="#FAFAFA"/>
<path d="M74.9682 67.1997C74.9419 67.1893 74.9439 67.1128 74.9743 67.0281C75.0047 66.9433 75.0534 66.8833 75.0798 66.8937C75.1061 66.904 75.1041 66.9805 75.0737 67.0653C75.0433 67.15 74.9946 67.21 74.9682 67.1997Z" fill="#FAFAFA"/>
<path d="M73.2865 72.1931C73.2601 72.1786 73.3108 72.0318 73.3493 71.8478C73.3899 71.6638 73.4061 71.5087 73.4345 71.5067C73.4629 71.5046 73.4953 71.67 73.4507 71.8706C73.4101 72.0711 73.3108 72.2076 73.2865 72.1931Z" fill="#FAFAFA"/>
<path d="M74.3786 40.2417C74.3522 40.2541 74.2873 40.1714 74.2346 40.0557C74.1819 39.9399 74.1596 39.8365 74.186 39.8241C74.2123 39.8117 74.2772 39.8944 74.3299 40.0102C74.3847 40.1259 74.4049 40.2293 74.3786 40.2417Z" fill="#FAFAFA"/>
<path d="M71.565 33.8019C71.5812 33.8288 71.4393 33.9445 71.2872 34.1099C71.1352 34.2733 71.0297 34.4262 71.0034 34.4118C70.9791 34.3994 71.046 34.2133 71.2102 34.0355C71.3724 33.8577 71.5508 33.7771 71.565 33.8019Z" fill="#FAFAFA"/>
<path d="M74.0702 33.7263C74.0419 33.7325 73.9932 33.6105 73.9222 33.4678C73.8533 33.3252 73.7864 33.2135 73.8087 33.1928C73.829 33.1722 73.9405 33.2631 74.0175 33.4203C74.0946 33.5753 74.0986 33.72 74.0702 33.7263Z" fill="#FAFAFA"/>
<path d="M66.2658 35.8256C66.2394 35.8152 66.2658 35.6767 66.3286 35.5196C66.3894 35.3604 66.4624 35.2426 66.4888 35.2529C66.5151 35.2632 66.4888 35.4017 66.4259 35.5589C66.3651 35.716 66.2921 35.8359 66.2658 35.8256Z" fill="#FAFAFA"/>
<path d="M66.5189 38.9486C66.5006 38.9714 66.3851 38.9052 66.2614 38.7998C66.1377 38.6943 66.0526 38.5909 66.0708 38.5682C66.0891 38.5455 66.2046 38.6116 66.3283 38.7171C66.452 38.8225 66.5371 38.9259 66.5189 38.9486Z" fill="#FAFAFA"/>
<path d="M71.6412 31.3239C71.6148 31.3342 71.558 31.2577 71.5175 31.1523C71.4769 31.0469 71.4648 30.9518 71.4911 30.9414C71.5175 30.9311 71.5743 31.0076 71.6148 31.113C71.6554 31.2185 71.6675 31.3136 71.6412 31.3239Z" fill="#FAFAFA"/>
<path d="M76.5442 32.8491C76.5158 32.8429 76.5179 32.7188 76.5503 32.57C76.5827 32.4232 76.6314 32.3095 76.6598 32.3157C76.6882 32.3219 76.6861 32.4459 76.6537 32.5948C76.6233 32.7416 76.5726 32.8553 76.5442 32.8491Z" fill="#FAFAFA"/>
<path d="M77.696 35.2109C77.6697 35.2005 77.7062 35.0455 77.7771 34.8656C77.8501 34.6858 77.9292 34.5514 77.9575 34.5617C77.9839 34.5721 77.9474 34.7271 77.8764 34.907C77.8035 35.0868 77.7224 35.2212 77.696 35.2109Z" fill="#FAFAFA"/>
<path d="M76.8739 37.1187C76.8476 37.1311 76.7523 36.9885 76.659 36.8003C76.5658 36.6101 76.511 36.4468 76.5374 36.4323C76.5637 36.4199 76.659 36.5626 76.7523 36.7507C76.8456 36.9409 76.9003 37.1042 76.8739 37.1187Z" fill="#FAFAFA"/>
<path d="M78.6326 39.0247C78.6063 39.0143 78.6245 38.8944 78.6772 38.758C78.7279 38.6215 78.7928 38.5181 78.8191 38.5285C78.8455 38.5388 78.8273 38.6587 78.7745 38.7952C78.7239 38.9337 78.659 39.035 78.6326 39.0247Z" fill="#FAFAFA"/>
<path d="M77.0608 40.8939C77.0364 40.9104 76.9736 40.8546 76.9229 40.7699C76.8722 40.6851 76.8499 40.6045 76.8743 40.5879C76.8986 40.5714 76.9614 40.6272 77.0121 40.712C77.0648 40.7967 77.0871 40.8774 77.0608 40.8939Z" fill="#FAFAFA"/>
<path d="M77.3974 44.7454C77.3751 44.7661 77.2494 44.6627 77.1156 44.516C76.9818 44.3692 76.8906 44.2327 76.9108 44.212C76.9331 44.1914 77.0588 44.2947 77.1927 44.4415C77.3265 44.5883 77.4177 44.7248 77.3974 44.7454Z" fill="#FAFAFA"/>
<path d="M79.4532 42.533C79.4309 42.5516 79.3194 42.4461 79.2059 42.2993C79.0924 42.1526 79.0194 42.0182 79.0417 41.9996C79.064 41.981 79.1755 42.0864 79.289 42.2332C79.4026 42.382 79.4756 42.5164 79.4532 42.533Z" fill="#FAFAFA"/>
<path d="M80.5846 45.5853C80.5583 45.5729 80.6049 45.4178 80.688 45.238C80.7712 45.0602 80.8604 44.9237 80.8867 44.9382C80.9131 44.9506 80.8665 45.1056 80.7833 45.2855C80.6982 45.4633 80.609 45.5998 80.5846 45.5853Z" fill="#FAFAFA"/>
<path d="M78.1837 48.0983C78.1573 48.1149 78.064 47.9991 77.9323 47.8771C77.8025 47.7551 77.6829 47.6683 77.6971 47.6394C77.7092 47.6125 77.8613 47.6621 78.0052 47.7965C78.1472 47.9329 78.208 48.0839 78.1837 48.0983Z" fill="#FAFAFA"/>
<path d="M78.3304 50.6913C78.3304 50.7202 78.229 50.745 78.1054 50.745C77.9817 50.745 77.8803 50.7202 77.8803 50.6913C77.8803 50.6623 77.9817 50.6375 78.1054 50.6375C78.2311 50.6375 78.3304 50.6603 78.3304 50.6913Z" fill="#FAFAFA"/>
<path d="M80.8014 49.9648C80.7751 49.9482 80.8278 49.82 80.8663 49.6567C80.9068 49.4955 80.921 49.3569 80.9515 49.3549C80.9798 49.3507 81.0143 49.5037 80.9697 49.6836C80.9251 49.8655 80.8237 49.9813 80.8014 49.9648Z" fill="#FAFAFA"/>
<path d="M83.2525 50.8346C83.2241 50.845 83.1491 50.7002 83.0862 50.5121C83.0213 50.324 82.9909 50.1627 83.0193 50.1524C83.0477 50.142 83.1207 50.2868 83.1856 50.4749C83.2484 50.663 83.2788 50.8243 83.2525 50.8346Z" fill="#FAFAFA"/>
<path d="M82.8618 54.3916C82.8355 54.3771 82.8983 54.2035 83.0017 54.005C83.1051 53.8045 83.2085 53.6535 83.2349 53.668C83.2613 53.6825 83.1984 53.8561 83.095 54.0546C82.9916 54.2531 82.8882 54.404 82.8618 54.3916Z" fill="#FAFAFA"/>
<path d="M80.6235 56.4813C80.5971 56.4916 80.514 56.349 80.437 56.1608C80.362 55.9727 80.3214 55.8115 80.3478 55.7991C80.3741 55.7887 80.4573 55.9314 80.5343 56.1195C80.6093 56.3076 80.6499 56.4689 80.6235 56.4813Z" fill="#FAFAFA"/>
<path d="M78.1451 57.2854C78.1451 57.3144 78.062 57.3392 77.9586 57.3392C77.8552 57.3392 77.7721 57.3144 77.7721 57.2854C77.7721 57.2565 77.8552 57.2317 77.9586 57.2317C78.062 57.2317 78.1451 57.2565 78.1451 57.2854Z" fill="#FAFAFA"/>
<path d="M79.567 60.6028C79.5386 60.6111 79.4818 60.4891 79.4413 60.3299C79.4007 60.1728 79.3886 60.0384 79.417 60.0301C79.4453 60.0219 79.5021 60.1438 79.5427 60.303C79.5852 60.4622 79.5954 60.5966 79.567 60.6028Z" fill="#FAFAFA"/>
<path d="M77.7721 59.4971C77.7478 59.4826 77.7762 59.3834 77.839 59.278C77.9019 59.1725 77.9708 59.1002 77.9972 59.1146C78.0215 59.1291 77.9931 59.2283 77.9303 59.3338C77.8674 59.4392 77.7965 59.5116 77.7721 59.4971Z" fill="#FAFAFA"/>
<path d="M77.734 63.1556C77.7056 63.1597 77.665 63.0171 77.6447 62.8372C77.6245 62.6574 77.6306 62.5106 77.6589 62.5064C77.6873 62.5023 77.7279 62.645 77.7481 62.8248C77.7704 63.0047 77.7644 63.1515 77.734 63.1556Z" fill="#FAFAFA"/>
</g>
<defs>
<clipPath id="clip0_3314_6978">
<rect width="106.58" height="79.4391" fill="white" transform="translate(0.959961)"/>
</clipPath>
</defs>
</svg>
