<svg width="130" height="196" viewBox="0 0 130 196" fill="none" xmlns="http://www.w3.org/2000/svg">
<path d="M55.5138 63.4303C63.4768 70.9941 74.2422 75.6354 86.0915 75.6354C110.618 75.6354 130.5 55.7512 130.5 31.2229C130.5 19.0507 125.604 8.02212 117.673 -0.00022397L55.5138 63.4303Z" fill="#23263B"/>
<mask id="mask0_2758_7149" style="mask-type:alpha" maskUnits="userSpaceOnUse" x="0" y="56" width="70" height="71">
<ellipse cx="35.2329" cy="91.5149" rx="34.736" ry="34.7329" transform="rotate(-90 35.2329 91.5149)" fill="#C4C4C4"/>
</mask>
<g mask="url(#mask0_2758_7149)">
<ellipse cx="35.2329" cy="91.5149" rx="34.736" ry="34.7329" transform="rotate(-90 35.2329 91.5149)" fill="#FFDFB3"/>
<path d="M69.3182 134.19L-19.3474 47.4307L-18.3064 46.3666L70.3592 133.126L69.3182 134.19Z" fill="#FF80A1"/>
<path d="M94.6226 114.84L5.9571 28.0811L6.99812 27.017L95.6637 113.776L94.6226 114.84Z" fill="#FF80A1"/>
<path d="M70.8567 129.38L-17.8089 42.6211L-16.7678 41.557L71.8977 128.316L70.8567 129.38Z" fill="#FF80A1"/>
<path d="M96.162 110.027L7.49649 23.268L8.53751 22.2039L97.2031 108.963L96.162 110.027Z" fill="#FF80A1"/>
<path d="M72.3961 124.571L-16.2695 37.8115L-15.2285 36.7475L73.4371 123.507L72.3961 124.571Z" fill="#FF80A1"/>
<path d="M97.701 105.218L9.03545 18.4584L10.0765 17.3944L98.742 104.154L97.701 105.218Z" fill="#FF80A1"/>
<path d="M73.9346 119.761L-14.731 33.002L-13.6899 31.9379L74.9756 118.697L73.9346 119.761Z" fill="#FF80A1"/>
<path d="M99.2404 100.408L10.5748 13.6489L11.6159 12.5848L100.281 99.3441L99.2404 100.408Z" fill="#FF80A1"/>
<path d="M75.474 114.95L-13.1916 28.1907L-12.1505 27.1266L76.515 113.886L75.474 114.95Z" fill="#FF80A1"/>
<path d="M100.779 95.5969L12.1138 8.83758L13.1548 7.77349L101.82 94.5328L100.779 95.5969Z" fill="#FF80A1"/>
<path d="M77.0129 110.139L-11.6526 23.3794L-10.6116 22.3153L78.054 109.075L77.0129 110.139Z" fill="#FF80A1"/>
<path d="M102.319 90.7856L13.6532 4.02626L14.6942 2.96219L103.36 89.7215L102.319 90.7856Z" fill="#FF80A1"/>
<path d="M78.5519 105.329L-10.1136 18.5698L-9.07263 17.5057L79.5929 104.265L78.5519 105.329Z" fill="#FF80A1"/>
<path d="M103.857 85.976L15.1917 -0.783296L16.2327 -1.84738L104.898 84.9119L103.857 85.976Z" fill="#FF80A1"/>
</g>
<path d="M130.273 69.1546C128.26 68.9624 126.22 68.864 124.156 68.864C89.0519 68.864 60.5941 97.3244 60.5941 132.432C60.5941 167.54 89.0519 196 124.156 196C126.22 196 128.26 195.902 130.273 195.709L130.273 69.1546Z" fill="#FFAEA0"/>
</svg>
