<svg width="14" height="13" viewBox="0 0 14 13" fill="none" xmlns="http://www.w3.org/2000/svg">
<path fill-rule="evenodd" clip-rule="evenodd" d="M12.9823 12.4393C12.3965 13.0251 11.4468 13.0251 10.861 12.4393L0.982309 2.56066C0.396522 1.97487 0.396522 1.02513 0.982309 0.43934C1.56809 -0.146447 2.51784 -0.146446 3.10363 0.43934L12.9823 10.318C13.5681 10.9038 13.5681 11.8536 12.9823 12.4393Z" fill="#24263B"/>
<path fill-rule="evenodd" clip-rule="evenodd" d="M0.982535 12.4393C0.396748 11.8536 0.396749 10.9038 0.982535 10.318L10.8612 0.43934C11.447 -0.146447 12.3967 -0.146447 12.9825 0.43934C13.5683 1.02513 13.5683 1.97487 12.9825 2.56066L3.10386 12.4393C2.51807 13.0251 1.56832 13.0251 0.982535 12.4393Z" fill="#24263B"/>
</svg>
