<svg xmlns="http://www.w3.org/2000/svg" width="32" height="32" viewBox="0 0 24 24" fill="#FFFFFF"><path d="M23.0387 23.0449C23.4505 22.633 23.6826 22.0749 23.6843 21.4925V2.19481C23.6826 1.61374 23.4513 1.05689 23.0407 0.645721C22.6301 0.234553 22.0736 0.0024358 21.4925 0H2.19481C1.61296 0.000814347 1.05517 0.232314 0.643744 0.643744C0.232313 1.05517 0.000814347 1.61296 0 2.19481V21.4925C0.000811899 22.0747 0.232213 22.6328 0.643556 23.0447C1.0549 23.4566 1.61268 23.6888 2.19481 23.6904H10.1825V13.4582H8.06157V9.92436H10.1733V7.80035C10.1733 4.91908 11.383 3.20448 14.7691 3.20448H17.6042V6.73527H15.8373C14.5136 6.73527 14.4244 7.22779 14.4244 8.15127V9.92436H17.6289L17.2533 13.4582H14.4244V23.6904H21.4864C22.0688 23.6888 22.6269 23.4567 23.0387 23.0449Z"></path></svg>