<svg xmlns="http://www.w3.org/2000/svg" width="32" height="32" viewBox="0 0 24 24" fill="#FFFFFF"><path d="M23.2,0.8c-0.4-0.4-1-0.6-1.6-0.6H2.3c-0.6,0-1.1,0.2-1.6,0.6c-0.4,0.4-0.6,1-0.6,1.6v19.3  c0,0.6,0.2,1.1,0.6,1.6c0.4,0.4,1,0.6,1.6,0.6h19.3c0.6,0,1.1-0.2,1.6-0.6c0.4-0.4,0.6-1,0.6-1.6V2.4C23.8,1.8,23.6,1.2,23.2,0.8z   M7,20.6H3.3V9.3H7V20.6z M5.2,7.7L5.2,7.7c-1.3,0-2.1-0.8-2.1-1.9c0-1.1,0.8-1.9,2.1-1.9c1.3,0,2.1,0.9,2.1,1.9  C7.3,6.9,6.5,7.7,5.2,7.7z M20.6,20.6h-3.7v-6c0-1.5-0.5-2.5-1.9-2.5c-0.4,0-0.8,0.1-1.2,0.4c-0.3,0.2-0.6,0.6-0.7,1  c-0.1,0.3-0.1,0.6-0.1,0.9v6.3H9.1c0,0,0.1-10.2,0-11.3h3.7v1.6c0.3-0.6,0.8-1.1,1.4-1.4c0.6-0.3,1.3-0.5,2-0.5  c2.5,0,4.3,1.6,4.3,5.1V20.6z"></path></svg>