<svg xmlns="http://www.w3.org/2000/svg" width="32" height="32" viewBox="0 0 24 24" fill="#FFFFFF"><path d="M21.4925 8.34465e-06H2.19482C1.61269 0.00163627 1.05491 0.233819 0.643565 0.645739C0.232222 1.05766 0.000820398 1.61576 8.58307e-06 2.1979V7.5387H6.79993C7.45167 6.85773 8.23456 6.31579 9.1014 5.94554C9.96825 5.5753 10.9011 5.38442 11.8437 5.38442C12.7863 5.38442 13.7191 5.5753 14.586 5.94554C15.4528 6.31579 16.2357 6.85773 16.8874 7.5387H23.6904V2.1979C23.6888 1.61548 23.4567 1.05738 23.0449 0.645551C22.6331 0.233719 22.075 0.00163293 21.4925 8.34465e-06ZM14.5371 8.35527C13.7403 7.82287 12.8035 7.5387 11.8452 7.5387C10.5607 7.54033 9.32923 8.05134 8.42093 8.95964C7.51263 9.86794 7.00164 11.0994 7.00001 12.3839C7.00001 13.3422 7.28419 14.279 7.81658 15.0758C8.34898 15.8726 9.10569 16.4936 9.99103 16.8603C10.8764 17.227 11.8506 17.323 12.7905 17.136C13.7303 16.9491 14.5937 16.4876 15.2713 15.81C15.9489 15.1324 16.4104 14.269 16.5973 13.3292C16.7843 12.3893 16.6883 11.4151 16.3216 10.5297C15.9549 9.64439 15.3339 8.88767 14.5371 8.35527ZM2.19482 23.6904H21.4925C22.0736 23.688 22.6301 23.4559 23.0407 23.0447C23.4513 22.6335 23.6827 22.0767 23.6843 21.4956V9.6935H18.3065C18.705 10.6496 18.8863 11.6822 18.8374 12.7168C18.7885 13.7515 18.5106 14.7624 18.0238 15.6766C17.5369 16.5908 16.8532 17.3856 16.022 18.0037C15.1908 18.6217 14.2328 19.0476 13.2171 19.2506C12.2014 19.4536 11.1533 19.4287 10.1484 19.1776C9.14352 18.9265 8.20685 18.4556 7.40598 17.7987C6.60512 17.1418 5.96 16.3154 5.51718 15.379C5.07435 14.4427 4.84485 13.4197 4.84521 12.3839C4.84357 11.4602 5.02673 10.5454 5.38391 9.6935H8.58307e-06V21.4956C0.000823021 22.0775 0.232322 22.6352 0.643753 23.0467C1.05518 23.4581 1.61297 23.6896 2.19482 23.6904ZM21.4864 3.77086C21.4864 4.6634 20.7628 5.38696 19.8703 5.38696C18.9777 5.38696 18.2542 4.6634 18.2542 3.77086C18.2542 2.87831 18.9777 2.15476 19.8703 2.15476C20.7628 2.15476 21.4864 2.87831 21.4864 3.77086Z"></path></svg>